<?xml version="1.0" standalone="no"?>
 <!DOCTYPE svg PUBLIC "-//W3C//DTD SVG 1.1//EN" 
 "http://www.w3.org/Graphics/SVG/1.1/DTD/svg11.dtd"> 
<svg xmlns="http://www.w3.org/2000/svg" version="1.1" 
    width="29.7002cm" height="21.0007cm" viewBox="0 0 116930 82680 ">
<title>SVG Picture created as locomotive_tof_sensor-brd.svg date 2017/03/22 12:33:00 </title>
  <desc>Picture generated by PCBNEW </desc>
<g style="fill:#000000; fill-opacity:1;stroke:#000000; stroke-opacity:1;
stroke-linecap:round; stroke-linejoin:round; "
 transform="translate(0 0) scale(1 1)">
</g>
<g style="fill:#000000; fill-opacity:0.0; 
stroke:#000000; stroke-width:-0.000393701; stroke-opacity:1; 
stroke-linecap:round; stroke-linejoin:round;">
</g>
<g style="fill:#000000; fill-opacity:0.0; 
stroke:#000000; stroke-width:39.3701; stroke-opacity:1; 
stroke-linecap:round; stroke-linejoin:round;">
</g>
<g style="fill:#000000; fill-opacity:0.0; 
stroke:#000000; stroke-width:59.0551; stroke-opacity:1; 
stroke-linecap:round; stroke-linejoin:round;">
<rect x="69685.9" y="65357.2" width="42519.7" height="12598.4" rx="0" />
</g>
<g style="fill:#000000; fill-opacity:0.0; 
stroke:#000000; stroke-width:39.3701; stroke-opacity:1; 
stroke-linecap:round; stroke-linejoin:round;">
</g>
<g style="fill:#000000; fill-opacity:0.0; 
stroke:#000000; stroke-width:59.0551; stroke-opacity:1; 
stroke-linecap:round; stroke-linejoin:round;">
<rect x="3937.01" y="3937.01" width="109056" height="74806" rx="0" />
</g>
<g style="fill:#000000; fill-opacity:0.0; 
stroke:#000000; stroke-width:39.3701; stroke-opacity:1; 
stroke-linecap:round; stroke-linejoin:round;">
</g>
<g style="fill:#000000; fill-opacity:0.0; 
stroke:#000000; stroke-width:59.0551; stroke-opacity:1; 
stroke-linecap:round; stroke-linejoin:round;">
<rect x="4724.41" y="4724.41" width="107481" height="73231.2" rx="0" />
</g>
<g style="fill:#000000; fill-opacity:0.0; 
stroke:#000000; stroke-width:39.3701; stroke-opacity:1; 
stroke-linecap:round; stroke-linejoin:round;">
</g>
<g style="fill:#000000; fill-opacity:0.0; 
stroke:#000000; stroke-width:59.0551; stroke-opacity:1; 
stroke-linecap:round; stroke-linejoin:round;">
<path d="M23622 4724
L23622 3937
" />
</g>
<g style="fill:#000000; fill-opacity:0.0; 
stroke:#000000; stroke-width:39.3701; stroke-opacity:1; 
stroke-linecap:round; stroke-linejoin:round;">
</g>
<g style="fill:#000000; fill-opacity:0.0; 
stroke:#000000; stroke-width:59.0551; stroke-opacity:1; 
stroke-linecap:round; stroke-linejoin:round;">
<path d="M43307 4724
L43307 3937
" />
</g>
<g style="fill:#000000; fill-opacity:0.0; 
stroke:#000000; stroke-width:39.3701; stroke-opacity:1; 
stroke-linecap:round; stroke-linejoin:round;">
</g>
<g style="fill:#000000; fill-opacity:0.0; 
stroke:#000000; stroke-width:59.0551; stroke-opacity:1; 
stroke-linecap:round; stroke-linejoin:round;">
<path d="M62992 4724
L62992 3937
" />
</g>
<g style="fill:#000000; fill-opacity:0.0; 
stroke:#000000; stroke-width:39.3701; stroke-opacity:1; 
stroke-linecap:round; stroke-linejoin:round;">
</g>
<g style="fill:#000000; fill-opacity:0.0; 
stroke:#000000; stroke-width:59.0551; stroke-opacity:1; 
stroke-linecap:round; stroke-linejoin:round;">
<path d="M82677 4724
L82677 3937
" />
</g>
<g style="fill:#000000; fill-opacity:0.0; 
stroke:#000000; stroke-width:39.3701; stroke-opacity:1; 
stroke-linecap:round; stroke-linejoin:round;">
</g>
<g style="fill:#000000; fill-opacity:0.0; 
stroke:#000000; stroke-width:59.0551; stroke-opacity:1; 
stroke-linecap:round; stroke-linejoin:round;">
<path d="M102362 4724
L102362 3937
" />
</g>
<g style="fill:#000000; fill-opacity:0.0; 
stroke:#000000; stroke-width:39.3701; stroke-opacity:1; 
stroke-linecap:round; stroke-linejoin:round;">
</g>
<g style="fill:#000000; fill-opacity:0.0; 
stroke:#000000; stroke-width:59.0551; stroke-opacity:1; 
stroke-linecap:round; stroke-linejoin:round;">
<path d="M14169 4562
L13877 4562
" />
<path d="M14023 4562
L14023 4050
L13974 4123
L13925 4172
L13877 4196
" />
</g>
<g style="fill:#000000; fill-opacity:0.0; 
stroke:#000000; stroke-width:39.3701; stroke-opacity:1; 
stroke-linecap:round; stroke-linejoin:round;">
</g>
<g style="fill:#000000; fill-opacity:0.0; 
stroke:#000000; stroke-width:59.0551; stroke-opacity:1; 
stroke-linecap:round; stroke-linejoin:round;">
<path d="M33562 4099
L33586 4074
L33635 4050
L33757 4050
L33805 4074
L33830 4099
L33854 4147
L33854 4196
L33830 4269
L33537 4562
L33854 4562
" />
</g>
<g style="fill:#000000; fill-opacity:0.0; 
stroke:#000000; stroke-width:39.3701; stroke-opacity:1; 
stroke-linecap:round; stroke-linejoin:round;">
</g>
<g style="fill:#000000; fill-opacity:0.0; 
stroke:#000000; stroke-width:59.0551; stroke-opacity:1; 
stroke-linecap:round; stroke-linejoin:round;">
<path d="M53222 4050
L53539 4050
L53368 4245
L53442 4245
L53490 4269
L53515 4294
L53539 4342
L53539 4464
L53515 4513
L53490 4537
L53442 4562
L53295 4562
L53247 4537
L53222 4513
" />
</g>
<g style="fill:#000000; fill-opacity:0.0; 
stroke:#000000; stroke-width:39.3701; stroke-opacity:1; 
stroke-linecap:round; stroke-linejoin:round;">
</g>
<g style="fill:#000000; fill-opacity:0.0; 
stroke:#000000; stroke-width:59.0551; stroke-opacity:1; 
stroke-linecap:round; stroke-linejoin:round;">
<path d="M73175 4221
L73175 4562
" />
<path d="M73053 4026
L72932 4391
L73248 4391
" />
</g>
<g style="fill:#000000; fill-opacity:0.0; 
stroke:#000000; stroke-width:39.3701; stroke-opacity:1; 
stroke-linecap:round; stroke-linejoin:round;">
</g>
<g style="fill:#000000; fill-opacity:0.0; 
stroke:#000000; stroke-width:59.0551; stroke-opacity:1; 
stroke-linecap:round; stroke-linejoin:round;">
<path d="M92885 4050
L92641 4050
L92617 4294
L92641 4269
L92690 4245
L92812 4245
L92860 4269
L92885 4294
L92909 4342
L92909 4464
L92885 4513
L92860 4537
L92812 4562
L92690 4562
L92641 4537
L92617 4513
" />
</g>
<g style="fill:#000000; fill-opacity:0.0; 
stroke:#000000; stroke-width:39.3701; stroke-opacity:1; 
stroke-linecap:round; stroke-linejoin:round;">
</g>
<g style="fill:#000000; fill-opacity:0.0; 
stroke:#000000; stroke-width:59.0551; stroke-opacity:1; 
stroke-linecap:round; stroke-linejoin:round;">
<path d="M112545 4050
L112448 4050
L112399 4074
L112375 4099
L112326 4172
L112302 4269
L112302 4464
L112326 4513
L112350 4537
L112399 4562
L112497 4562
L112545 4537
L112570 4513
L112594 4464
L112594 4342
L112570 4294
L112545 4269
L112497 4245
L112399 4245
L112350 4269
L112326 4294
L112302 4342
" />
</g>
<g style="fill:#000000; fill-opacity:0.0; 
stroke:#000000; stroke-width:39.3701; stroke-opacity:1; 
stroke-linecap:round; stroke-linejoin:round;">
</g>
<g style="fill:#000000; fill-opacity:0.0; 
stroke:#000000; stroke-width:59.0551; stroke-opacity:1; 
stroke-linecap:round; stroke-linejoin:round;">
<path d="M23622 77955
L23622 78742
" />
</g>
<g style="fill:#000000; fill-opacity:0.0; 
stroke:#000000; stroke-width:39.3701; stroke-opacity:1; 
stroke-linecap:round; stroke-linejoin:round;">
</g>
<g style="fill:#000000; fill-opacity:0.0; 
stroke:#000000; stroke-width:59.0551; stroke-opacity:1; 
stroke-linecap:round; stroke-linejoin:round;">
<path d="M43307 77955
L43307 78742
" />
</g>
<g style="fill:#000000; fill-opacity:0.0; 
stroke:#000000; stroke-width:39.3701; stroke-opacity:1; 
stroke-linecap:round; stroke-linejoin:round;">
</g>
<g style="fill:#000000; fill-opacity:0.0; 
stroke:#000000; stroke-width:59.0551; stroke-opacity:1; 
stroke-linecap:round; stroke-linejoin:round;">
<path d="M62992 77955
L62992 78742
" />
</g>
<g style="fill:#000000; fill-opacity:0.0; 
stroke:#000000; stroke-width:39.3701; stroke-opacity:1; 
stroke-linecap:round; stroke-linejoin:round;">
</g>
<g style="fill:#000000; fill-opacity:0.0; 
stroke:#000000; stroke-width:59.0551; stroke-opacity:1; 
stroke-linecap:round; stroke-linejoin:round;">
<path d="M82677 77955
L82677 78742
" />
</g>
<g style="fill:#000000; fill-opacity:0.0; 
stroke:#000000; stroke-width:39.3701; stroke-opacity:1; 
stroke-linecap:round; stroke-linejoin:round;">
</g>
<g style="fill:#000000; fill-opacity:0.0; 
stroke:#000000; stroke-width:59.0551; stroke-opacity:1; 
stroke-linecap:round; stroke-linejoin:round;">
<path d="M102362 77955
L102362 78742
" />
</g>
<g style="fill:#000000; fill-opacity:0.0; 
stroke:#000000; stroke-width:39.3701; stroke-opacity:1; 
stroke-linecap:round; stroke-linejoin:round;">
</g>
<g style="fill:#000000; fill-opacity:0.0; 
stroke:#000000; stroke-width:59.0551; stroke-opacity:1; 
stroke-linecap:round; stroke-linejoin:round;">
<path d="M14169 78580
L13877 78580
" />
<path d="M14023 78580
L14023 78069
L13974 78142
L13925 78190
L13877 78215
" />
</g>
<g style="fill:#000000; fill-opacity:0.0; 
stroke:#000000; stroke-width:39.3701; stroke-opacity:1; 
stroke-linecap:round; stroke-linejoin:round;">
</g>
<g style="fill:#000000; fill-opacity:0.0; 
stroke:#000000; stroke-width:59.0551; stroke-opacity:1; 
stroke-linecap:round; stroke-linejoin:round;">
<path d="M33562 78117
L33586 78093
L33635 78069
L33757 78069
L33805 78093
L33830 78117
L33854 78166
L33854 78215
L33830 78288
L33537 78580
L33854 78580
" />
</g>
<g style="fill:#000000; fill-opacity:0.0; 
stroke:#000000; stroke-width:39.3701; stroke-opacity:1; 
stroke-linecap:round; stroke-linejoin:round;">
</g>
<g style="fill:#000000; fill-opacity:0.0; 
stroke:#000000; stroke-width:59.0551; stroke-opacity:1; 
stroke-linecap:round; stroke-linejoin:round;">
<path d="M53222 78069
L53539 78069
L53368 78263
L53442 78263
L53490 78288
L53515 78312
L53539 78361
L53539 78483
L53515 78532
L53490 78556
L53442 78580
L53295 78580
L53247 78556
L53222 78532
" />
</g>
<g style="fill:#000000; fill-opacity:0.0; 
stroke:#000000; stroke-width:39.3701; stroke-opacity:1; 
stroke-linecap:round; stroke-linejoin:round;">
</g>
<g style="fill:#000000; fill-opacity:0.0; 
stroke:#000000; stroke-width:59.0551; stroke-opacity:1; 
stroke-linecap:round; stroke-linejoin:round;">
<path d="M73175 78239
L73175 78580
" />
<path d="M73053 78044
L72932 78410
L73248 78410
" />
</g>
<g style="fill:#000000; fill-opacity:0.0; 
stroke:#000000; stroke-width:39.3701; stroke-opacity:1; 
stroke-linecap:round; stroke-linejoin:round;">
</g>
<g style="fill:#000000; fill-opacity:0.0; 
stroke:#000000; stroke-width:59.0551; stroke-opacity:1; 
stroke-linecap:round; stroke-linejoin:round;">
<path d="M92885 78069
L92641 78069
L92617 78312
L92641 78288
L92690 78263
L92812 78263
L92860 78288
L92885 78312
L92909 78361
L92909 78483
L92885 78532
L92860 78556
L92812 78580
L92690 78580
L92641 78556
L92617 78532
" />
</g>
<g style="fill:#000000; fill-opacity:0.0; 
stroke:#000000; stroke-width:39.3701; stroke-opacity:1; 
stroke-linecap:round; stroke-linejoin:round;">
</g>
<g style="fill:#000000; fill-opacity:0.0; 
stroke:#000000; stroke-width:59.0551; stroke-opacity:1; 
stroke-linecap:round; stroke-linejoin:round;">
<path d="M112545 78069
L112448 78069
L112399 78093
L112375 78117
L112326 78190
L112302 78288
L112302 78483
L112326 78532
L112350 78556
L112399 78580
L112497 78580
L112545 78556
L112570 78532
L112594 78483
L112594 78361
L112570 78312
L112545 78288
L112497 78263
L112399 78263
L112350 78288
L112326 78312
L112302 78361
" />
</g>
<g style="fill:#000000; fill-opacity:0.0; 
stroke:#000000; stroke-width:39.3701; stroke-opacity:1; 
stroke-linecap:round; stroke-linejoin:round;">
</g>
<g style="fill:#000000; fill-opacity:0.0; 
stroke:#000000; stroke-width:59.0551; stroke-opacity:1; 
stroke-linecap:round; stroke-linejoin:round;">
<path d="M3937 23622
L4724 23622
" />
</g>
<g style="fill:#000000; fill-opacity:0.0; 
stroke:#000000; stroke-width:39.3701; stroke-opacity:1; 
stroke-linecap:round; stroke-linejoin:round;">
</g>
<g style="fill:#000000; fill-opacity:0.0; 
stroke:#000000; stroke-width:59.0551; stroke-opacity:1; 
stroke-linecap:round; stroke-linejoin:round;">
<path d="M3937 43307
L4724 43307
" />
</g>
<g style="fill:#000000; fill-opacity:0.0; 
stroke:#000000; stroke-width:39.3701; stroke-opacity:1; 
stroke-linecap:round; stroke-linejoin:round;">
</g>
<g style="fill:#000000; fill-opacity:0.0; 
stroke:#000000; stroke-width:59.0551; stroke-opacity:1; 
stroke-linecap:round; stroke-linejoin:round;">
<path d="M3937 62992
L4724 62992
" />
</g>
<g style="fill:#000000; fill-opacity:0.0; 
stroke:#000000; stroke-width:39.3701; stroke-opacity:1; 
stroke-linecap:round; stroke-linejoin:round;">
</g>
<g style="fill:#000000; fill-opacity:0.0; 
stroke:#000000; stroke-width:59.0551; stroke-opacity:1; 
stroke-linecap:round; stroke-linejoin:round;">
<path d="M4208 13864
L4452 13864
" />
<path d="M4160 14011
L4330 13499
L4501 14011
" />
</g>
<g style="fill:#000000; fill-opacity:0.0; 
stroke:#000000; stroke-width:39.3701; stroke-opacity:1; 
stroke-linecap:round; stroke-linejoin:round;">
</g>
<g style="fill:#000000; fill-opacity:0.0; 
stroke:#000000; stroke-width:59.0551; stroke-opacity:1; 
stroke-linecap:round; stroke-linejoin:round;">
<path d="M4367 33428
L4440 33452
L4464 33476
L4489 33525
L4489 33598
L4464 33647
L4440 33671
L4391 33696
L4196 33696
L4196 33184
L4367 33184
L4416 33208
L4440 33233
L4464 33281
L4464 33330
L4440 33379
L4416 33403
L4367 33428
L4196 33428
" />
</g>
<g style="fill:#000000; fill-opacity:0.0; 
stroke:#000000; stroke-width:39.3701; stroke-opacity:1; 
stroke-linecap:round; stroke-linejoin:round;">
</g>
<g style="fill:#000000; fill-opacity:0.0; 
stroke:#000000; stroke-width:59.0551; stroke-opacity:1; 
stroke-linecap:round; stroke-linejoin:round;">
<path d="M4489 53332
L4464 53356
L4391 53381
L4342 53381
L4269 53356
L4221 53308
L4196 53259
L4172 53161
L4172 53088
L4196 52991
L4221 52942
L4269 52893
L4342 52869
L4391 52869
L4464 52893
L4489 52918
" />
</g>
<g style="fill:#000000; fill-opacity:0.0; 
stroke:#000000; stroke-width:39.3701; stroke-opacity:1; 
stroke-linecap:round; stroke-linejoin:round;">
</g>
<g style="fill:#000000; fill-opacity:0.0; 
stroke:#000000; stroke-width:59.0551; stroke-opacity:1; 
stroke-linecap:round; stroke-linejoin:round;">
<path d="M4196 73066
L4196 72554
L4318 72554
L4391 72578
L4440 72627
L4464 72676
L4489 72773
L4489 72846
L4464 72944
L4440 72993
L4391 73041
L4318 73066
L4196 73066
" />
</g>
<g style="fill:#000000; fill-opacity:0.0; 
stroke:#000000; stroke-width:39.3701; stroke-opacity:1; 
stroke-linecap:round; stroke-linejoin:round;">
</g>
<g style="fill:#000000; fill-opacity:0.0; 
stroke:#000000; stroke-width:59.0551; stroke-opacity:1; 
stroke-linecap:round; stroke-linejoin:round;">
<path d="M112992 23622
L112205 23622
" />
</g>
<g style="fill:#000000; fill-opacity:0.0; 
stroke:#000000; stroke-width:39.3701; stroke-opacity:1; 
stroke-linecap:round; stroke-linejoin:round;">
</g>
<g style="fill:#000000; fill-opacity:0.0; 
stroke:#000000; stroke-width:59.0551; stroke-opacity:1; 
stroke-linecap:round; stroke-linejoin:round;">
<path d="M112992 43307
L112205 43307
" />
</g>
<g style="fill:#000000; fill-opacity:0.0; 
stroke:#000000; stroke-width:39.3701; stroke-opacity:1; 
stroke-linecap:round; stroke-linejoin:round;">
</g>
<g style="fill:#000000; fill-opacity:0.0; 
stroke:#000000; stroke-width:59.0551; stroke-opacity:1; 
stroke-linecap:round; stroke-linejoin:round;">
<path d="M112992 62992
L112205 62992
" />
</g>
<g style="fill:#000000; fill-opacity:0.0; 
stroke:#000000; stroke-width:39.3701; stroke-opacity:1; 
stroke-linecap:round; stroke-linejoin:round;">
</g>
<g style="fill:#000000; fill-opacity:0.0; 
stroke:#000000; stroke-width:59.0551; stroke-opacity:1; 
stroke-linecap:round; stroke-linejoin:round;">
<path d="M112477 13864
L112721 13864
" />
<path d="M112428 14011
L112599 13499
L112769 14011
" />
</g>
<g style="fill:#000000; fill-opacity:0.0; 
stroke:#000000; stroke-width:39.3701; stroke-opacity:1; 
stroke-linecap:round; stroke-linejoin:round;">
</g>
<g style="fill:#000000; fill-opacity:0.0; 
stroke:#000000; stroke-width:59.0551; stroke-opacity:1; 
stroke-linecap:round; stroke-linejoin:round;">
<path d="M112635 33428
L112708 33452
L112733 33476
L112757 33525
L112757 33598
L112733 33647
L112708 33671
L112660 33696
L112465 33696
L112465 33184
L112635 33184
L112684 33208
L112708 33233
L112733 33281
L112733 33330
L112708 33379
L112684 33403
L112635 33428
L112465 33428
" />
</g>
<g style="fill:#000000; fill-opacity:0.0; 
stroke:#000000; stroke-width:39.3701; stroke-opacity:1; 
stroke-linecap:round; stroke-linejoin:round;">
</g>
<g style="fill:#000000; fill-opacity:0.0; 
stroke:#000000; stroke-width:59.0551; stroke-opacity:1; 
stroke-linecap:round; stroke-linejoin:round;">
<path d="M112757 53332
L112733 53356
L112660 53381
L112611 53381
L112538 53356
L112489 53308
L112465 53259
L112440 53161
L112440 53088
L112465 52991
L112489 52942
L112538 52893
L112611 52869
L112660 52869
L112733 52893
L112757 52918
" />
</g>
<g style="fill:#000000; fill-opacity:0.0; 
stroke:#000000; stroke-width:39.3701; stroke-opacity:1; 
stroke-linecap:round; stroke-linejoin:round;">
</g>
<g style="fill:#000000; fill-opacity:0.0; 
stroke:#000000; stroke-width:59.0551; stroke-opacity:1; 
stroke-linecap:round; stroke-linejoin:round;">
<path d="M112465 73066
L112465 72554
L112587 72554
L112660 72578
L112708 72627
L112733 72676
L112757 72773
L112757 72846
L112733 72944
L112708 72993
L112660 73041
L112587 73066
L112465 73066
" />
</g>
<g style="fill:#000000; fill-opacity:0.0; 
stroke:#000000; stroke-width:39.3701; stroke-opacity:1; 
stroke-linecap:round; stroke-linejoin:round;">
</g>
<g style="fill:#000000; fill-opacity:0.0; 
stroke:#000000; stroke-width:59.0551; stroke-opacity:1; 
stroke-linecap:round; stroke-linejoin:round;">
<path d="M78881 76293
L78881 75703
L79022 75703
L79106 75731
L79162 75787
L79190 75843
L79219 75956
L79219 76040
L79190 76153
L79162 76209
L79106 76265
L79022 76293
L78881 76293
" />
<path d="M79725 76293
L79725 75984
L79697 75928
L79640 75899
L79528 75899
L79472 75928
" />
<path d="M79725 76265
L79669 76293
L79528 76293
L79472 76265
L79444 76209
L79444 76153
L79472 76096
L79528 76068
L79669 76068
L79725 76040
" />
<path d="M79922 75899
L80147 75899
" />
<path d="M80006 75703
L80006 76209
L80034 76265
L80090 76293
L80147 76293
" />
<path d="M80568 76265
L80512 76293
L80400 76293
L80343 76265
L80315 76209
L80315 75984
L80343 75928
L80400 75899
L80512 75899
L80568 75928
L80597 75984
L80597 76040
L80315 76096
" />
<path d="M80850 76237
L80878 76265
L80850 76293
L80822 76265
L80850 76237
L80850 76293
" />
<path d="M80850 75928
L80878 75956
L80850 75984
L80822 75956
L80850 75928
L80850 75984
" />
<path d="M81553 75759
L81581 75731
L81637 75703
L81778 75703
L81834 75731
L81862 75759
L81890 75815
L81890 75871
L81862 75956
L81525 76293
L81890 76293
" />
<path d="M82256 75703
L82312 75703
L82368 75731
L82396 75759
L82424 75815
L82453 75928
L82453 76068
L82424 76181
L82396 76237
L82368 76265
L82312 76293
L82256 76293
L82199 76265
L82171 76237
L82143 76181
L82115 76068
L82115 75928
L82143 75815
L82171 75759
L82199 75731
L82256 75703
" />
<path d="M83015 76293
L82678 76293
" />
<path d="M82846 76293
L82846 75703
L82790 75787
L82734 75843
L82678 75871
" />
<path d="M83212 75703
L83606 75703
L83352 76293
" />
<path d="M83831 76068
L84280 76068
" />
<path d="M84674 75703
L84730 75703
L84787 75731
L84815 75759
L84843 75815
L84871 75928
L84871 76068
L84843 76181
L84815 76237
L84787 76265
L84730 76293
L84674 76293
L84618 76265
L84590 76237
L84562 76181
L84534 76068
L84534 75928
L84562 75815
L84590 75759
L84618 75731
L84674 75703
" />
<path d="M85068 75703
L85433 75703
L85237 75928
L85321 75928
L85377 75956
L85405 75984
L85433 76040
L85433 76181
L85405 76237
L85377 76265
L85321 76293
L85152 76293
L85096 76265
L85068 76237
" />
<path d="M85687 76068
L86136 76068
" />
<path d="M86390 75759
L86418 75731
L86474 75703
L86615 75703
L86671 75731
L86699 75759
L86727 75815
L86727 75871
L86699 75956
L86361 76293
L86727 76293
" />
<path d="M86952 75759
L86980 75731
L87036 75703
L87177 75703
L87233 75731
L87261 75759
L87289 75815
L87289 75871
L87261 75956
L86924 76293
L87289 76293
" />
</g>
<g style="fill:#000000; fill-opacity:0.0; 
stroke:#000000; stroke-width:39.3701; stroke-opacity:1; 
stroke-linecap:round; stroke-linejoin:round;">
</g>
<g style="fill:#000000; fill-opacity:0.0; 
stroke:#000000; stroke-width:59.0551; stroke-opacity:1; 
stroke-linecap:round; stroke-linejoin:round;">
<path d="M69685 76577
L112205 76577
" />
</g>
<g style="fill:#000000; fill-opacity:0.0; 
stroke:#000000; stroke-width:39.3701; stroke-opacity:1; 
stroke-linecap:round; stroke-linejoin:round;">
</g>
<g style="fill:#000000; fill-opacity:0.0; 
stroke:#000000; stroke-width:59.0551; stroke-opacity:1; 
stroke-linecap:round; stroke-linejoin:round;">
<path d="M70220 77395
L70220 76805
" />
<path d="M70557 77395
L70304 77058
" />
<path d="M70557 76805
L70220 77142
" />
<path d="M70810 77395
L70810 77002
" />
<path d="M70810 76805
L70782 76833
L70810 76861
L70838 76833
L70810 76805
L70810 76861
" />
<path d="M71429 77339
L71401 77367
L71316 77395
L71260 77395
L71176 77367
L71120 77311
L71091 77255
L71063 77142
L71063 77058
L71091 76946
L71120 76889
L71176 76833
L71260 76805
L71316 76805
L71401 76833
L71429 76861
" />
<path d="M71935 77395
L71935 77086
L71907 77030
L71851 77002
L71738 77002
L71682 77030
" />
<path d="M71935 77367
L71879 77395
L71738 77395
L71682 77367
L71654 77311
L71654 77255
L71682 77199
L71738 77171
L71879 77171
L71935 77142
" />
<path d="M72469 77395
L72469 76805
" />
<path d="M72469 77367
L72413 77395
L72301 77395
L72244 77367
L72216 77339
L72188 77283
L72188 77114
L72216 77058
L72244 77030
L72301 77002
L72413 77002
L72469 77030
" />
<path d="M73201 77086
L73397 77086
" />
<path d="M73482 77395
L73201 77395
L73201 76805
L73482 76805
" />
<path d="M73735 77339
L73763 77367
L73735 77395
L73707 77367
L73735 77339
L73735 77395
" />
<path d="M74016 77395
L74016 76805
L74157 76805
L74241 76833
L74297 76889
L74325 76946
L74354 77058
L74354 77142
L74325 77255
L74297 77311
L74241 77367
L74157 77395
L74016 77395
" />
<path d="M74607 77339
L74635 77367
L74607 77395
L74579 77367
L74607 77339
L74607 77395
" />
<path d="M74860 77227
L75141 77227
" />
<path d="M74804 77395
L75000 76805
L75197 77395
" />
<path d="M75394 77339
L75422 77367
L75394 77395
L75366 77367
L75394 77339
L75394 77395
" />
<path d="M76575 77395
L76575 76805
" />
<path d="M76631 77171
L76800 77395
" />
<path d="M76800 77002
L76575 77227
" />
<path d="M77053 77395
L77053 77002
" />
<path d="M77053 76805
L77025 76833
L77053 76861
L77081 76833
L77053 76805
L77053 76861
" />
<path d="M77588 77367
L77531 77395
L77419 77395
L77363 77367
L77334 77339
L77306 77283
L77306 77114
L77334 77058
L77363 77030
L77419 77002
L77531 77002
L77588 77030
" />
<path d="M78094 77395
L78094 77086
L78066 77030
L78009 77002
L77897 77002
L77841 77030
" />
<path d="M78094 77367
L78037 77395
L77897 77395
L77841 77367
L77813 77311
L77813 77255
L77841 77199
L77897 77171
L78037 77171
L78094 77142
" />
<path d="M78628 77395
L78628 76805
" />
<path d="M78628 77367
L78572 77395
L78459 77395
L78403 77367
L78375 77339
L78347 77283
L78347 77114
L78375 77058
L78403 77030
L78459 77002
L78572 77002
L78628 77030
" />
<path d="M79612 77002
L79612 77395
" />
<path d="M79472 76777
L79331 77199
L79697 77199
" />
<path d="M79922 77339
L79950 77367
L79922 77395
L79894 77367
L79922 77339
L79922 77395
" />
<path d="M80315 76805
L80372 76805
L80428 76833
L80456 76861
L80484 76917
L80512 77030
L80512 77171
L80484 77283
L80456 77339
L80428 77367
L80372 77395
L80315 77395
L80259 77367
L80231 77339
L80203 77283
L80175 77171
L80175 77030
L80203 76917
L80231 76861
L80259 76833
L80315 76805
" />
<path d="M80765 77339
L80793 77367
L80765 77395
L80737 77367
L80765 77339
L80765 77395
" />
<path d="M81300 76805
L81187 76805
L81131 76833
L81103 76861
L81046 76946
L81018 77058
L81018 77283
L81046 77339
L81075 77367
L81131 77395
L81243 77395
L81300 77367
L81328 77339
L81356 77283
L81356 77142
L81328 77086
L81300 77058
L81243 77030
L81131 77030
L81075 77058
L81046 77086
L81018 77142
" />
</g>
<g style="fill:#000000; fill-opacity:0.0; 
stroke:#000000; stroke-width:39.3701; stroke-opacity:1; 
stroke-linecap:round; stroke-linejoin:round;">
</g>
<g style="fill:#000000; fill-opacity:0.0; 
stroke:#000000; stroke-width:59.0551; stroke-opacity:1; 
stroke-linecap:round; stroke-linejoin:round;">
<path d="M69685 75396
L112205 75396
" />
</g>
<g style="fill:#000000; fill-opacity:0.0; 
stroke:#000000; stroke-width:39.3701; stroke-opacity:1; 
stroke-linecap:round; stroke-linejoin:round;">
</g>
<g style="fill:#000000; fill-opacity:0.0; 
stroke:#000000; stroke-width:118.11; stroke-opacity:1; 
stroke-linecap:round; stroke-linejoin:round;">
<path d="M104022 76293
L103825 76012
" />
<path d="M103684 76293
L103684 75703
L103909 75703
L103965 75731
L103994 75759
L104022 75815
L104022 75899
L103994 75956
L103965 75984
L103909 76012
L103684 76012
" />
<path d="M104500 76265
L104444 76293
L104331 76293
L104275 76265
L104247 76209
L104247 75984
L104275 75928
L104331 75899
L104444 75899
L104500 75928
L104528 75984
L104528 76040
L104247 76096
" />
<path d="M104725 75899
L104865 76293
L105006 75899
" />
<path d="M105231 76237
L105259 76265
L105231 76293
L105203 76265
L105231 76237
L105231 76293
" />
<path d="M105231 75928
L105259 75956
L105231 75984
L105203 75956
L105231 75928
L105231 75984
" />
<path d="M106271 76293
L105934 76293
" />
<path d="M106103 76293
L106103 75703
L106046 75787
L105990 75843
L105934 75871
" />
<path d="M106525 76237
L106553 76265
L106525 76293
L106496 76265
L106525 76237
L106525 76293
" />
<path d="M106918 75703
L106974 75703
L107031 75731
L107059 75759
L107087 75815
L107115 75928
L107115 76068
L107087 76181
L107059 76237
L107031 76265
L106974 76293
L106918 76293
L106862 76265
L106834 76237
L106806 76181
L106778 76068
L106778 75928
L106806 75815
L106834 75759
L106862 75731
L106918 75703
" />
</g>
<g style="fill:#000000; fill-opacity:0.0; 
stroke:#000000; stroke-width:39.3701; stroke-opacity:1; 
stroke-linecap:round; stroke-linejoin:round;">
</g>
<g style="fill:#000000; fill-opacity:0.0; 
stroke:#000000; stroke-width:59.0551; stroke-opacity:1; 
stroke-linecap:round; stroke-linejoin:round;">
<path d="M70192 76265
L70276 76293
L70417 76293
L70473 76265
L70501 76237
L70529 76181
L70529 76124
L70501 76068
L70473 76040
L70417 76012
L70304 75984
L70248 75956
L70220 75928
L70192 75871
L70192 75815
L70220 75759
L70248 75731
L70304 75703
L70445 75703
L70529 75731
" />
<path d="M70782 76293
L70782 75899
" />
<path d="M70782 75703
L70754 75731
L70782 75759
L70810 75731
L70782 75703
L70782 75759
" />
<path d="M71007 75899
L71316 75899
L71007 76293
L71316 76293
" />
<path d="M71766 76265
L71710 76293
L71598 76293
L71541 76265
L71513 76209
L71513 75984
L71541 75928
L71598 75899
L71710 75899
L71766 75928
L71795 75984
L71795 76040
L71513 76096
" />
<path d="M72048 76237
L72076 76265
L72048 76293
L72019 76265
L72048 76237
L72048 76293
" />
<path d="M72048 75928
L72076 75956
L72048 75984
L72019 75956
L72048 75928
L72048 75984
" />
<path d="M72751 76124
L73032 76124
" />
<path d="M72694 76293
L72891 75703
L73088 76293
" />
<path d="M73538 75899
L73538 76293
" />
<path d="M73397 75674
L73257 76096
L73622 76096
" />
</g>
<g style="fill:#000000; fill-opacity:0.0; 
stroke:#000000; stroke-width:39.3701; stroke-opacity:1; 
stroke-linecap:round; stroke-linejoin:round;">
</g>
<g style="fill:#000000; fill-opacity:0.0; 
stroke:#000000; stroke-width:59.0551; stroke-opacity:1; 
stroke-linecap:round; stroke-linejoin:round;">
<path d="M103684 77395
L103684 76805
" />
<path d="M104219 77395
L104219 76805
" />
<path d="M104219 77367
L104162 77395
L104050 77395
L103994 77367
L103965 77339
L103937 77283
L103937 77114
L103965 77058
L103994 77030
L104050 77002
L104162 77002
L104219 77030
" />
<path d="M104500 77339
L104528 77367
L104500 77395
L104472 77367
L104500 77339
L104500 77395
" />
<path d="M104500 77030
L104528 77058
L104500 77086
L104472 77058
L104500 77030
L104500 77086
" />
<path d="M105540 77395
L105203 77395
" />
<path d="M105372 77395
L105372 76805
L105315 76889
L105259 76946
L105203 76974
" />
<path d="M106215 76777
L105709 77536
" />
<path d="M106721 77395
L106384 77395
" />
<path d="M106553 77395
L106553 76805
L106496 76889
L106440 76946
L106384 76974
" />
</g>
<g style="fill:#000000; fill-opacity:0.0; 
stroke:#000000; stroke-width:39.3701; stroke-opacity:1; 
stroke-linecap:round; stroke-linejoin:round;">
</g>
<g style="fill:#000000; fill-opacity:0.0; 
stroke:#000000; stroke-width:59.0551; stroke-opacity:1; 
stroke-linecap:round; stroke-linejoin:round;">
<path d="M69685 73821
L112205 73821
" />
</g>
<g style="fill:#000000; fill-opacity:0.0; 
stroke:#000000; stroke-width:39.3701; stroke-opacity:1; 
stroke-linecap:round; stroke-linejoin:round;">
</g>
<g style="fill:#000000; fill-opacity:0.0; 
stroke:#000000; stroke-width:157.48; stroke-opacity:1; 
stroke-linecap:round; stroke-linejoin:round;">
<path d="M70257 74099
L70707 74099
" />
<path d="M70384 74886
L70482 74099
" />
<path d="M70871 74886
L70937 74361
" />
<path d="M70970 74099
L70927 74136
L70960 74174
L71002 74136
L70970 74099
L70960 74174
" />
<path d="M71199 74361
L71499 74361
" />
<path d="M71345 74099
L71260 74774
L71288 74849
L71359 74886
L71434 74886
" />
<path d="M71809 74886
L71738 74849
L71710 74774
L71795 74099
" />
<path d="M72413 74849
L72334 74886
L72184 74886
L72113 74849
L72085 74774
L72123 74474
L72169 74399
L72249 74361
L72399 74361
L72469 74399
L72498 74474
L72488 74549
L72104 74624
" />
<path d="M72793 74811
L72826 74849
L72783 74886
L72751 74849
L72793 74811
L72783 74886
" />
<path d="M72844 74399
L72877 74436
L72835 74474
L72802 74436
L72844 74399
L72835 74474
" />
<path d="M73744 74099
L74194 74099
" />
<path d="M73871 74886
L73969 74099
" />
<path d="M74607 74099
L74757 74099
L74827 74136
L74893 74211
L74911 74361
L74879 74624
L74822 74774
L74738 74849
L74658 74886
L74508 74886
L74438 74849
L74372 74774
L74354 74624
L74386 74361
L74443 74211
L74527 74136
L74607 74099
" />
<path d="M75497 74474
L75235 74474
" />
<path d="M75183 74886
L75282 74099
L75657 74099
" />
<path d="M76425 74849
L76533 74886
L76720 74886
L76800 74849
L76842 74811
L76889 74736
L76899 74661
L76870 74586
L76838 74549
L76767 74511
L76622 74474
L76552 74436
L76519 74399
L76491 74324
L76500 74249
L76547 74174
L76589 74136
L76669 74099
L76856 74099
L76964 74136
" />
<path d="M77513 74849
L77433 74886
L77283 74886
L77213 74849
L77184 74774
L77222 74474
L77269 74399
L77349 74361
L77498 74361
L77569 74399
L77597 74474
L77588 74549
L77203 74624
" />
<path d="M77948 74361
L77883 74886
" />
<path d="M77939 74436
L77981 74399
L78061 74361
L78173 74361
L78244 74399
L78272 74474
L78220 74886
" />
<path d="M78562 74849
L78633 74886
L78783 74886
L78862 74849
L78909 74774
L78914 74736
L78886 74661
L78816 74624
L78703 74624
L78633 74586
L78605 74511
L78609 74474
L78656 74399
L78736 74361
L78848 74361
L78919 74399
" />
<path d="M79345 74886
L79275 74849
L79242 74811
L79214 74736
L79242 74511
L79289 74436
L79331 74399
L79411 74361
L79523 74361
L79594 74399
L79626 74436
L79654 74511
L79626 74736
L79579 74811
L79537 74849
L79458 74886
L79345 74886
" />
<path d="M79945 74886
L80011 74361
" />
<path d="M79992 74511
L80039 74436
L80081 74399
L80161 74361
L80236 74361
" />
</g>
<g style="fill:#000000; fill-opacity:0.0; 
stroke:#000000; stroke-width:39.3701; stroke-opacity:1; 
stroke-linecap:round; stroke-linejoin:round;">
</g>
<g style="fill:#000000; fill-opacity:0.0; 
stroke:#000000; stroke-width:59.0551; stroke-opacity:1; 
stroke-linecap:round; stroke-linejoin:round;">
<path d="M70417 73070
L70220 73070
" />
<path d="M70220 73380
L70220 72789
L70501 72789
" />
<path d="M70726 73380
L70726 72986
" />
<path d="M70726 72789
L70698 72817
L70726 72845
L70754 72817
L70726 72789
L70726 72845
" />
<path d="M71091 73380
L71035 73352
L71007 73295
L71007 72789
" />
<path d="M71541 73352
L71485 73380
L71373 73380
L71316 73352
L71288 73295
L71288 73070
L71316 73014
L71373 72986
L71485 72986
L71541 73014
L71570 73070
L71570 73127
L71288 73183
" />
<path d="M71823 73323
L71851 73352
L71823 73380
L71795 73352
L71823 73323
L71823 73380
" />
<path d="M71823 73014
L71851 73042
L71823 73070
L71795 73042
L71823 73014
L71823 73070
" />
<path d="M72638 73380
L72582 73352
L72554 73295
L72554 72789
" />
<path d="M72947 73380
L72891 73352
L72863 73323
L72835 73267
L72835 73099
L72863 73042
L72891 73014
L72947 72986
L73032 72986
L73088 73014
L73116 73042
L73144 73099
L73144 73267
L73116 73323
L73088 73352
L73032 73380
L72947 73380
" />
<path d="M73651 73352
L73594 73380
L73482 73380
L73426 73352
L73397 73323
L73369 73267
L73369 73099
L73397 73042
L73426 73014
L73482 72986
L73594 72986
L73651 73014
" />
<path d="M73988 73380
L73932 73352
L73904 73323
L73876 73267
L73876 73099
L73904 73042
L73932 73014
L73988 72986
L74072 72986
L74129 73014
L74157 73042
L74185 73099
L74185 73267
L74157 73323
L74129 73352
L74072 73380
L73988 73380
" />
<path d="M74438 73380
L74438 72986
" />
<path d="M74438 73042
L74466 73014
L74522 72986
L74607 72986
L74663 73014
L74691 73070
L74691 73380
" />
<path d="M74691 73070
L74719 73014
L74775 72986
L74860 72986
L74916 73014
L74944 73070
L74944 73380
" />
<path d="M75310 73380
L75253 73352
L75225 73323
L75197 73267
L75197 73099
L75225 73042
L75253 73014
L75310 72986
L75394 72986
L75450 73014
L75478 73042
L75507 73099
L75507 73267
L75478 73323
L75450 73352
L75394 73380
L75310 73380
" />
<path d="M75675 72986
L75900 72986
" />
<path d="M75760 72789
L75760 73295
L75788 73352
L75844 73380
L75900 73380
" />
<path d="M76097 73380
L76097 72986
" />
<path d="M76097 72789
L76069 72817
L76097 72845
L76125 72817
L76097 72789
L76097 72845
" />
<path d="M76322 72986
L76463 73380
L76603 72986
" />
<path d="M77053 73352
L76997 73380
L76885 73380
L76828 73352
L76800 73295
L76800 73070
L76828 73014
L76885 72986
L76997 72986
L77053 73014
L77081 73070
L77081 73127
L76800 73183
" />
<path d="M77194 73436
L77644 73436
" />
<path d="M77700 72986
L77925 72986
" />
<path d="M77784 72789
L77784 73295
L77813 73352
L77869 73380
L77925 73380
" />
<path d="M78206 73380
L78150 73352
L78122 73323
L78094 73267
L78094 73099
L78122 73042
L78150 73014
L78206 72986
L78291 72986
L78347 73014
L78375 73042
L78403 73099
L78403 73267
L78375 73323
L78347 73352
L78291 73380
L78206 73380
" />
<path d="M78572 72986
L78797 72986
" />
<path d="M78656 73380
L78656 72874
L78684 72817
L78741 72789
L78797 72789
" />
<path d="M78853 73436
L79303 73436
" />
<path d="M79415 73352
L79472 73380
L79584 73380
L79640 73352
L79669 73295
L79669 73267
L79640 73211
L79584 73183
L79500 73183
L79444 73155
L79415 73099
L79415 73070
L79444 73014
L79500 72986
L79584 72986
L79640 73014
" />
<path d="M80147 73352
L80090 73380
L79978 73380
L79922 73352
L79894 73295
L79894 73070
L79922 73014
L79978 72986
L80090 72986
L80147 73014
L80175 73070
L80175 73127
L79894 73183
" />
<path d="M80428 72986
L80428 73380
" />
<path d="M80428 73042
L80456 73014
L80512 72986
L80597 72986
L80653 73014
L80681 73070
L80681 73380
" />
<path d="M80934 73352
L80990 73380
L81103 73380
L81159 73352
L81187 73295
L81187 73267
L81159 73211
L81103 73183
L81018 73183
L80962 73155
L80934 73099
L80934 73070
L80962 73014
L81018 72986
L81103 72986
L81159 73014
" />
<path d="M81525 73380
L81468 73352
L81440 73323
L81412 73267
L81412 73099
L81440 73042
L81468 73014
L81525 72986
L81609 72986
L81665 73014
L81693 73042
L81721 73099
L81721 73267
L81693 73323
L81665 73352
L81609 73380
L81525 73380
" />
<path d="M81974 73380
L81974 72986
" />
<path d="M81974 73099
L82003 73042
L82031 73014
L82087 72986
L82143 72986
" />
<path d="M82340 73323
L82368 73352
L82340 73380
L82312 73352
L82340 73323
L82340 73380
" />
<path d="M82621 73380
L82621 72789
" />
<path d="M82678 73155
L82846 73380
" />
<path d="M82846 72986
L82621 73211
" />
<path d="M83099 73380
L83099 72986
" />
<path d="M83099 72789
L83071 72817
L83099 72845
L83127 72817
L83099 72789
L83099 72845
" />
<path d="M83634 73352
L83577 73380
L83465 73380
L83409 73352
L83381 73323
L83352 73267
L83352 73099
L83381 73042
L83409 73014
L83465 72986
L83577 72986
L83634 73014
" />
<path d="M84140 73380
L84140 73070
L84112 73014
L84055 72986
L83943 72986
L83887 73014
" />
<path d="M84140 73352
L84084 73380
L83943 73380
L83887 73352
L83859 73295
L83859 73239
L83887 73183
L83943 73155
L84084 73155
L84140 73127
" />
<path d="M84674 73380
L84674 72789
" />
<path d="M84674 73352
L84618 73380
L84505 73380
L84449 73352
L84421 73323
L84393 73267
L84393 73099
L84421 73042
L84449 73014
L84505 72986
L84618 72986
L84674 73014
" />
<path d="M84815 73436
L85265 73436
" />
<path d="M85405 72986
L85405 73577
" />
<path d="M85405 73014
L85462 72986
L85574 72986
L85630 73014
L85658 73042
L85687 73099
L85687 73267
L85658 73323
L85630 73352
L85574 73380
L85462 73380
L85405 73352
" />
<path d="M86193 73352
L86136 73380
L86024 73380
L85968 73352
L85940 73323
L85912 73267
L85912 73099
L85940 73042
L85968 73014
L86024 72986
L86136 72986
L86193 73014
" />
<path d="M86446 73380
L86446 72789
" />
<path d="M86446 73014
L86502 72986
L86615 72986
L86671 73014
L86699 73042
L86727 73099
L86727 73267
L86699 73323
L86671 73352
L86615 73380
L86502 73380
L86446 73352
" />
</g>
<g style="fill:#000000; fill-opacity:0.0; 
stroke:#000000; stroke-width:39.3701; stroke-opacity:1; 
stroke-linecap:round; stroke-linejoin:round;">
</g>
<g style="fill:#000000; fill-opacity:0.0; 
stroke:#000000; stroke-width:59.0551; stroke-opacity:1; 
stroke-linecap:round; stroke-linejoin:round;">
<path d="M69685 71459
L112205 71459
" />
</g>
<g style="fill:#000000; fill-opacity:0.0; 
stroke:#000000; stroke-width:39.3701; stroke-opacity:1; 
stroke-linecap:round; stroke-linejoin:round;">
</g>
<g style="fill:#000000; fill-opacity:0.0; 
stroke:#000000; stroke-width:59.0551; stroke-opacity:1; 
stroke-linecap:round; stroke-linejoin:round;">
<path d="M70192 72289
L70276 72317
L70417 72317
L70473 72289
L70501 72260
L70529 72204
L70529 72148
L70501 72092
L70473 72064
L70417 72036
L70304 72007
L70248 71979
L70220 71951
L70192 71895
L70192 71839
L70220 71782
L70248 71754
L70304 71726
L70445 71726
L70529 71754
" />
<path d="M70782 72317
L70782 71726
" />
<path d="M71035 72317
L71035 72007
L71007 71951
L70951 71923
L70867 71923
L70810 71951
L70782 71979
" />
<path d="M71541 72289
L71485 72317
L71373 72317
L71316 72289
L71288 72232
L71288 72007
L71316 71951
L71373 71923
L71485 71923
L71541 71951
L71570 72007
L71570 72064
L71288 72120
" />
<path d="M72048 72289
L71991 72317
L71879 72317
L71823 72289
L71795 72232
L71795 72007
L71823 71951
L71879 71923
L71991 71923
L72048 71951
L72076 72007
L72076 72064
L71795 72120
" />
<path d="M72244 71923
L72469 71923
" />
<path d="M72329 71726
L72329 72232
L72357 72289
L72413 72317
L72469 72317
" />
<path d="M72666 72260
L72694 72289
L72666 72317
L72638 72289
L72666 72260
L72666 72317
" />
<path d="M72666 71951
L72694 71979
L72666 72007
L72638 71979
L72666 71951
L72666 72007
" />
</g>
<g style="fill:#000000; fill-opacity:0.0; 
stroke:#000000; stroke-width:39.3701; stroke-opacity:1; 
stroke-linecap:round; stroke-linejoin:round;">
</g>
<g style="fill:#000000; fill-opacity:0.0; 
stroke:#000000; stroke-width:118.11; stroke-opacity:1; 
stroke-linecap:round; stroke-linejoin:round;">
<path d="M70220 70826
L70417 70826
" />
<path d="M70501 71136
L70220 71136
L70220 70545
L70501 70545
" />
<path d="M71091 71079
L71063 71108
L70979 71136
L70923 71136
L70838 71108
L70782 71051
L70754 70995
L70726 70883
L70726 70798
L70754 70686
L70782 70629
L70838 70573
L70923 70545
L70979 70545
L71063 70573
L71091 70601
" />
<path d="M71345 70826
L71541 70826
" />
<path d="M71626 71136
L71345 71136
L71345 70545
L71626 70545
" />
<path d="M72582 70742
L72582 71136
" />
<path d="M72441 70517
L72301 70939
L72666 70939
" />
<path d="M73144 70742
L73144 71136
" />
<path d="M73004 70517
L72863 70939
L73229 70939
" />
<path d="M73735 70545
L73454 70545
L73426 70826
L73454 70798
L73510 70770
L73651 70770
L73707 70798
L73735 70826
L73763 70883
L73763 71023
L73735 71079
L73707 71108
L73651 71136
L73510 71136
L73454 71108
L73426 71079
" />
</g>
<g style="fill:#000000; fill-opacity:0.0; 
stroke:#000000; stroke-width:39.3701; stroke-opacity:1; 
stroke-linecap:round; stroke-linejoin:round;">
</g>
<g style="fill:#000000; fill-opacity:0.0; 
stroke:#000000; stroke-width:59.0551; stroke-opacity:1; 
stroke-linecap:round; stroke-linejoin:round;">
<path d="M77559 75396
L77559 76577
" />
</g>
<g style="fill:#000000; fill-opacity:0.0; 
stroke:#000000; stroke-width:39.3701; stroke-opacity:1; 
stroke-linecap:round; stroke-linejoin:round;">
</g>
<g style="fill:#000000; fill-opacity:0.0; 
stroke:#000000; stroke-width:59.0551; stroke-opacity:1; 
stroke-linecap:round; stroke-linejoin:round;">
<path d="M102756 75396
L102756 77955
" />
</g>
<g style="fill:#840084; fill-opacity:0.0; 
stroke:#840084; stroke-width:59.0551; stroke-opacity:1; 
stroke-linecap:round; stroke-linejoin:round;">
<path d="M59707 39610
L59812 39461
" />
<path d="M59887 39610
L59887 39296
L59767 39296
L59737 39311
L59722 39326
L59707 39356
L59707 39401
L59722 39431
L59737 39446
L59767 39461
L59887 39461
" />
<path d="M59452 39595
L59482 39610
L59542 39610
L59572 39595
L59587 39565
L59587 39446
L59572 39416
L59542 39401
L59482 39401
L59452 39416
L59437 39446
L59437 39476
L59587 39505
" />
<path d="M59332 39401
L59257 39610
L59182 39401
" />
<path d="M58657 39610
L58837 39610
" />
<path d="M58747 39610
L58747 39296
L58777 39341
L58807 39371
L58837 39386
" />
<path d="M58522 39580
L58507 39595
L58522 39610
L58537 39595
L58522 39580
L58522 39610
" />
<path d="M58312 39296
L58282 39296
L58252 39311
L58237 39326
L58222 39356
L58207 39416
L58207 39491
L58222 39550
L58237 39580
L58252 39595
L58282 39610
L58312 39610
L58342 39595
L58357 39580
L58372 39550
L58387 39491
L58387 39416
L58372 39356
L58357 39326
L58342 39311
L58312 39296
" />
<path d="M59797 38508
L59797 38733
L59812 38778
L59842 38808
L59887 38823
L59917 38823
" />
<path d="M59662 38808
L59617 38823
L59542 38823
L59512 38808
L59497 38793
L59482 38763
L59482 38733
L59497 38703
L59512 38688
L59542 38673
L59602 38658
L59632 38643
L59647 38628
L59662 38598
L59662 38568
L59647 38538
L59632 38523
L59602 38508
L59527 38508
L59482 38523
" />
<path d="M59392 38508
L59212 38508
" />
<path d="M59302 38823
L59302 38508
" />
<path d="M59107 38703
L58867 38703
" />
<path d="M58552 38523
L58582 38508
L58627 38508
L58672 38523
L58702 38553
L58717 38583
L58732 38643
L58732 38688
L58717 38748
L58702 38778
L58672 38808
L58627 38823
L58597 38823
L58552 38808
L58537 38793
L58537 38688
L58597 38688
" />
<path d="M58402 38823
L58402 38508
" />
<path d="M58402 38658
L58222 38658
" />
<path d="M58222 38823
L58222 38508
" />
</g>
<g style="fill:#840084; fill-opacity:0.0; 
stroke:#840084; stroke-width:47.2441; stroke-opacity:1; 
stroke-linecap:round; stroke-linejoin:round;">
<path d="M58070 38238
L60039 38238
" />
<path d="M60039 38238
L60039 38435
" />
<path d="M60039 38435
L58070 38435
" />
<path d="M58070 38435
L58070 38238
" />
<path d="M57401 39557
L57401 40029
" />
<path d="M57401 40029
L58051 40029
" />
<path d="M58051 40029
L58051 39832
" />
<path d="M58051 39832
L57598 39832
" />
<path d="M57598 39832
L57598 39557
" />
<path d="M57598 39557
L57401 39557
" />
<path d="M60708 39557
L60708 40029
" />
<path d="M60708 40029
L60059 40029
" />
<path d="M60059 40029
L60059 39832
" />
<path d="M60059 39832
L60511 39832
" />
<path d="M60511 39832
L60511 39557
" />
<path d="M60511 39557
L60708 39557
" />
<path d="M57923 40324
L57687 40442
" />
<path d="M57687 40442
L57687 40206
" />
<path d="M57687 40206
L57923 40324
" />
</g>
<g style="fill:#840000; fill-opacity:0.0; 
stroke:#840000; stroke-width:47.2441; stroke-opacity:1; 
stroke-linecap:round; stroke-linejoin:round;">
</g>
<g style="fill:#840000; fill-opacity:0.0; 
stroke:#840000; stroke-width:59.0551; stroke-opacity:1; 
stroke-linecap:round; stroke-linejoin:round;">
<path d="M59160 38902
L59160 39127
L59175 39172
L59205 39202
L59250 39217
L59280 39217
" />
<path d="M58845 39217
L59025 39217
" />
<path d="M58935 39217
L58935 38902
L58965 38947
L58995 38977
L59025 38992
" />
</g>
<g style="fill:#000000; fill-opacity:0.0; 
stroke:#000000; stroke-width:59.0551; stroke-opacity:1; 
stroke-linecap:round; stroke-linejoin:round;">
</g>
<g style="fill:#008400; fill-opacity:0.0; 
stroke:#008400; stroke-width:59.0551; stroke-opacity:1; 
stroke-linecap:round; stroke-linejoin:round;">
</g>
<g style="fill:#008400; fill-opacity:0.0; 
stroke:#008400; stroke-width:0; stroke-opacity:1; 
stroke-linecap:round; stroke-linejoin:round;">
</g>
<g style="fill:#008400; fill-opacity:1.0; 
stroke:#008400; stroke-width:0; stroke-opacity:1; 
stroke-linecap:round; stroke-linejoin:round;">
<polyline style="fill-rule:evenodd;"
points="58198,40482
58198,39773
58435,39773
58435,40482
58198,40482
" /> 
<polyline style="fill-rule:evenodd;"
points="58690,40482
58690,39773
58927,39773
58927,40482
58690,40482
" /> 
<polyline style="fill-rule:evenodd;"
points="59183,40482
59183,39773
59419,39773
59419,40482
59183,40482
" /> 
<polyline style="fill-rule:evenodd;"
points="59675,40482
59675,39773
59911,39773
59911,40482
59675,40482
" /> 
<polyline style="fill-rule:evenodd;"
points="60275,39360
60275,38257
60669,38257
60669,39360
60275,39360
" /> 
<polyline style="fill-rule:evenodd;"
points="57440,39360
57440,38257
57834,38257
57834,39360
57440,39360
" /> 
</g>
<g style="fill:#C2C2C2; fill-opacity:1.0; 
stroke:#C2C2C2; stroke-width:0; stroke-opacity:1; 
stroke-linecap:round; stroke-linejoin:round;">
<circle cx="57480.3" cy="40255.9" r="118.11" /> 
</g>
<g style="fill:#C2C2C2; fill-opacity:1.0; 
stroke:#C2C2C2; stroke-width:39.3701; stroke-opacity:1; 
stroke-linecap:round; stroke-linejoin:round;">
</g>
<g style="fill:#C2C2C2; fill-opacity:1.0; 
stroke:#C2C2C2; stroke-width:0; stroke-opacity:1; 
stroke-linecap:round; stroke-linejoin:round;">
<circle cx="60629.9" cy="40255.9" r="118.11" /> 
</g>
<g style="fill:#C2C2C2; fill-opacity:1.0; 
stroke:#C2C2C2; stroke-width:39.3701; stroke-opacity:1; 
stroke-linecap:round; stroke-linejoin:round;">
</g>
<g style="fill:#C2C2C2; fill-opacity:1.0; 
stroke:#C2C2C2; stroke-width:0; stroke-opacity:1; 
stroke-linecap:round; stroke-linejoin:round;">
<circle cx="58956.7" cy="40059.1" r="118.11" /> 
</g>
<g style="fill:#C2C2C2; fill-opacity:1.0; 
stroke:#C2C2C2; stroke-width:39.3701; stroke-opacity:1; 
stroke-linecap:round; stroke-linejoin:round;">
</g>
<g style="fill:#C2C2C2; fill-opacity:1.0; 
stroke:#C2C2C2; stroke-width:0; stroke-opacity:1; 
stroke-linecap:round; stroke-linejoin:round;">
<circle cx="59055.1" cy="38779.5" r="118.11" /> 
</g>
<g style="fill:#C2C2C2; fill-opacity:1.0; 
stroke:#C2C2C2; stroke-width:39.3701; stroke-opacity:1; 
stroke-linecap:round; stroke-linejoin:round;">
</g>
<g style="fill:#008400; fill-opacity:1.0; 
stroke:#008400; stroke-width:39.3701; stroke-opacity:1; 
stroke-linecap:round; stroke-linejoin:round;">
</g>
<g style="fill:#008400; fill-opacity:1.0; 
stroke:#008400; stroke-width:98.4252; stroke-opacity:1; 
stroke-linecap:round; stroke-linejoin:round;">
</g>
<g style="fill:#008400; fill-opacity:0.0; 
stroke:#008400; stroke-width:98.4252; stroke-opacity:1; 
stroke-linecap:round; stroke-linejoin:round;">
<path d="M58316 40127
L57608 40127
" />
<path d="M57608 40127
L57480 40255
" />
<path d="M59793 40127
L60501 40127
" />
<path d="M60501 40127
L60629 40255
" />
<path d="M58956 40059
L58877 40059
" />
<path d="M58877 40059
L58809 40127
" />
<path d="M59173 38897
L59055 38779
" />
<path d="M59301 39025
L59173 38897
" />
<path d="M59301 40127
L59301 39025
" />
</g>
<g style="fill:#008400; fill-opacity:1.0; 
stroke:#008400; stroke-width:98.4252; stroke-opacity:1; 
stroke-linecap:round; stroke-linejoin:round;">
<polyline style="fill-rule:evenodd;"
points="57290,39360
57300,39414
57333,39465
57382,39498
57440,39510
57834,39510
57889,39500
57939,39468
57973,39418
57985,39360
57985,38366
60125,38366
60125,39360
60135,39414
60167,39465
60217,39498
60275,39510
60669,39510
60724,39500
60774,39468
60807,39418
60819,39360
60819,38366
60846,38366
60846,40374
59569,40374
59569,39773
59559,39718
59527,39668
59498,39648
59498,39025
59483,38950
59469,38930
59440,38886
59320,38766
59320,38726
59280,38629
59205,38554
59108,38513
59002,38513
58904,38554
58829,38628
58789,38726
58789,38832
58829,38929
58904,39004
59002,39045
59042,39045
59104,39107
59104,39648
59078,39665
59054,39699
59035,39668
58985,39634
58927,39623
58690,39623
58636,39633
58585,39665
58562,39699
58542,39668
58493,39634
58435,39623
58198,39623
58144,39633
58093,39665
58060,39715
58048,39773
58048,39931
57608,39931
57532,39946
57469,39988
57467,39990
57427,39990
57329,40030
57263,40096
57263,38366
57290,38366
57290,39360
" /> 
</g>
<g style="fill:#FFFFFF; fill-opacity:1.0; 
stroke:#FFFFFF; stroke-width:98.4252; stroke-opacity:1; 
stroke-linecap:round; stroke-linejoin:round;">
</g>
<g style="fill:#FFFFFF; fill-opacity:1.0; 
stroke:#FFFFFF; stroke-width:0; stroke-opacity:1; 
stroke-linecap:round; stroke-linejoin:round;">
<circle cx="57480.3" cy="40255.9" r="78.7402" /> 
</g>
<g style="fill:#FFFFFF; fill-opacity:1.0; 
stroke:#FFFFFF; stroke-width:39.3701; stroke-opacity:1; 
stroke-linecap:round; stroke-linejoin:round;">
</g>
<g style="fill:#FFFFFF; fill-opacity:1.0; 
stroke:#FFFFFF; stroke-width:0; stroke-opacity:1; 
stroke-linecap:round; stroke-linejoin:round;">
<circle cx="60629.9" cy="40255.9" r="78.7402" /> 
</g>
<g style="fill:#FFFFFF; fill-opacity:1.0; 
stroke:#FFFFFF; stroke-width:39.3701; stroke-opacity:1; 
stroke-linecap:round; stroke-linejoin:round;">
</g>
<g style="fill:#FFFFFF; fill-opacity:1.0; 
stroke:#FFFFFF; stroke-width:0; stroke-opacity:1; 
stroke-linecap:round; stroke-linejoin:round;">
<circle cx="58956.7" cy="40059.1" r="78.7402" /> 
</g>
<g style="fill:#FFFFFF; fill-opacity:1.0; 
stroke:#FFFFFF; stroke-width:39.3701; stroke-opacity:1; 
stroke-linecap:round; stroke-linejoin:round;">
</g>
<g style="fill:#FFFFFF; fill-opacity:1.0; 
stroke:#FFFFFF; stroke-width:0; stroke-opacity:1; 
stroke-linecap:round; stroke-linejoin:round;">
<circle cx="59055.1" cy="38779.5" r="78.7402" /> 
</g>
<g style="fill:#FFFFFF; fill-opacity:1.0; 
stroke:#FFFFFF; stroke-width:39.3701; stroke-opacity:1; 
stroke-linecap:round; stroke-linejoin:round;">
</g>
<g style="fill:#000000; fill-opacity:1.0; 
stroke:#000000; stroke-width:39.3701; stroke-opacity:1; 
stroke-linecap:round; stroke-linejoin:round;">
</g>
<g style="fill:#840000; fill-opacity:1.0; 
stroke:#840000; stroke-width:39.3701; stroke-opacity:1; 
stroke-linecap:round; stroke-linejoin:round;">
</g>
<g style="fill:#840000; fill-opacity:1.0; 
stroke:#840000; stroke-width:0; stroke-opacity:1; 
stroke-linecap:round; stroke-linejoin:round;">
<polyline style="fill-rule:evenodd;"
points="60383,39232
60088,39232
60088,38917
60383,38917
60383,39232
" /> 
<polyline style="fill-rule:evenodd;"
points="60383,38641
60088,38641
60088,38326
60383,38326
60383,38641
" /> 
<polyline style="fill-rule:evenodd;"
points="60383,40413
60088,40413
60088,40098
60383,40098
60383,40413
" /> 
<polyline style="fill-rule:evenodd;"
points="60383,39822
60088,39822
60088,39507
60383,39507
60383,39822
" /> 
<polyline style="fill-rule:evenodd;"
points="58051,40354
57696,40354
57696,40157
58051,40157
58051,40354
" /> 
<polyline style="fill-rule:evenodd;"
points="58051,39763
57696,39763
57696,39566
58051,39566
58051,39763
" /> 
<polyline style="fill-rule:evenodd;"
points="58051,39173
57696,39173
57696,38976
58051,38976
58051,39173
" /> 
<polyline style="fill-rule:evenodd;"
points="58051,38582
57696,38582
57696,38385
58051,38385
58051,38582
" /> 
<polyline style="fill-rule:evenodd;"
points="58346,38740
58346,38523
58779,38523
58779,38740
58346,38740
" /> 
<polyline style="fill-rule:evenodd;"
points="58346,39035
58346,38818
58779,38818
58779,39035
58346,39035
" /> 
<polyline style="fill-rule:evenodd;"
points="58346,39330
58346,39114
58779,39114
58779,39330
58346,39330
" /> 
<polyline style="fill-rule:evenodd;"
points="58346,39625
58346,39409
58779,39409
58779,39625
58346,39625
" /> 
<polyline style="fill-rule:evenodd;"
points="58346,39921
58346,39704
58779,39704
58779,39921
58346,39921
" /> 
<polyline style="fill-rule:evenodd;"
points="58346,40216
58346,40000
58779,40000
58779,40216
58346,40216
" /> 
<polyline style="fill-rule:evenodd;"
points="59330,40216
59330,40000
59763,40000
59763,40216
59330,40216
" /> 
<polyline style="fill-rule:evenodd;"
points="59330,39921
59330,39704
59763,39704
59763,39921
59330,39921
" /> 
<polyline style="fill-rule:evenodd;"
points="59330,39625
59330,39409
59763,39409
59763,39625
59330,39625
" /> 
<polyline style="fill-rule:evenodd;"
points="59330,39330
59330,39114
59763,39114
59763,39330
59330,39330
" /> 
<polyline style="fill-rule:evenodd;"
points="59330,39035
59330,38818
59763,38818
59763,39035
59330,39035
" /> 
<polyline style="fill-rule:evenodd;"
points="59330,38740
59330,38523
59763,38523
59763,38740
59330,38740
" /> 
</g>
<g style="fill:#840000; fill-opacity:1.0; 
stroke:#840000; stroke-width:393.701; stroke-opacity:1; 
stroke-linecap:round; stroke-linejoin:round;">
</g>
<g style="fill:#840000; fill-opacity:0.0; 
stroke:#840000; stroke-width:393.701; stroke-opacity:1; 
stroke-linecap:round; stroke-linejoin:round;">
<path d="M57381 38484
L57381 38681
" />
</g>
<g style="fill:#C2C2C2; fill-opacity:0.0; 
stroke:#C2C2C2; stroke-width:393.701; stroke-opacity:1; 
stroke-linecap:round; stroke-linejoin:round;">
</g>
<g style="fill:#C2C2C2; fill-opacity:1.0; 
stroke:#C2C2C2; stroke-width:0; stroke-opacity:1; 
stroke-linecap:round; stroke-linejoin:round;">
<circle cx="57480.3" cy="40255.9" r="118.11" /> 
</g>
<g style="fill:#C2C2C2; fill-opacity:1.0; 
stroke:#C2C2C2; stroke-width:39.3701; stroke-opacity:1; 
stroke-linecap:round; stroke-linejoin:round;">
</g>
<g style="fill:#C2C2C2; fill-opacity:1.0; 
stroke:#C2C2C2; stroke-width:0; stroke-opacity:1; 
stroke-linecap:round; stroke-linejoin:round;">
<circle cx="60629.9" cy="40255.9" r="118.11" /> 
</g>
<g style="fill:#C2C2C2; fill-opacity:1.0; 
stroke:#C2C2C2; stroke-width:39.3701; stroke-opacity:1; 
stroke-linecap:round; stroke-linejoin:round;">
</g>
<g style="fill:#C2C2C2; fill-opacity:1.0; 
stroke:#C2C2C2; stroke-width:0; stroke-opacity:1; 
stroke-linecap:round; stroke-linejoin:round;">
<circle cx="58956.7" cy="40059.1" r="118.11" /> 
</g>
<g style="fill:#C2C2C2; fill-opacity:1.0; 
stroke:#C2C2C2; stroke-width:39.3701; stroke-opacity:1; 
stroke-linecap:round; stroke-linejoin:round;">
</g>
<g style="fill:#C2C2C2; fill-opacity:1.0; 
stroke:#C2C2C2; stroke-width:0; stroke-opacity:1; 
stroke-linecap:round; stroke-linejoin:round;">
<circle cx="59055.1" cy="38779.5" r="118.11" /> 
</g>
<g style="fill:#C2C2C2; fill-opacity:1.0; 
stroke:#C2C2C2; stroke-width:39.3701; stroke-opacity:1; 
stroke-linecap:round; stroke-linejoin:round;">
</g>
<g style="fill:#840000; fill-opacity:1.0; 
stroke:#840000; stroke-width:39.3701; stroke-opacity:1; 
stroke-linecap:round; stroke-linejoin:round;">
</g>
<g style="fill:#840000; fill-opacity:1.0; 
stroke:#840000; stroke-width:98.4252; stroke-opacity:1; 
stroke-linecap:round; stroke-linejoin:round;">
</g>
<g style="fill:#840000; fill-opacity:0.0; 
stroke:#840000; stroke-width:98.4252; stroke-opacity:1; 
stroke-linecap:round; stroke-linejoin:round;">
<path d="M59547 39812
L59232 39812
" />
<path d="M59232 39812
L59202 39783
" />
<path d="M59202 39783
L59202 39251
" />
<path d="M59202 39251
L59232 39222
" />
<path d="M59232 39222
L59547 39222
" />
<path d="M57480 40255
L57874 40255
" />
<path d="M57568 39301
L57568 40029
" />
<path d="M57874 39074
L57795 39074
" />
<path d="M57795 39074
L57568 39301
" />
<path d="M57568 40029
L57795 40255
" />
<path d="M57795 40255
L57874 40255
" />
<path d="M57874 40255
L58149 40255
" />
<path d="M58149 40255
L58238 40344
" />
<path d="M58238 40344
L59901 40344
" />
<path d="M59901 40344
L59990 40255
" />
<path d="M59990 40255
L60236 40255
" />
<path d="M59547 39812
L59793 39812
" />
<path d="M59793 39812
L60236 40255
" />
<path d="M59547 39222
L60088 39222
" />
<path d="M60088 39222
L60236 39074
" />
<path d="M60236 39665
L60236 39655
" />
<path d="M60236 39655
L60511 39379
" />
<path d="M60511 39379
L60511 38769
" />
<path d="M60511 38769
L60236 38494
" />
<path d="M60236 38494
L60236 38484
" />
<path d="M60236 39665
L60629 40059
" />
<path d="M60629 40059
L60629 40255
" />
<path d="M59547 39517
L60088 39517
" />
<path d="M60088 39517
L60236 39665
" />
<path d="M59547 38631
L60088 38631
" />
<path d="M60088 38631
L60236 38484
" />
<path d="M58562 40108
L58907 40108
" />
<path d="M58907 40108
L58956 40059
" />
<path d="M58937 38897
L59055 38779
" />
<path d="M58877 39812
L58907 39783
" />
<path d="M58562 39812
L58877 39812
" />
<path d="M58907 38927
L58937 38897
" />
<path d="M58907 39783
L58907 38927
" />
<path d="M57874 39665
L58021 39517
" />
<path d="M58021 39517
L58562 39517
" />
<path d="M57874 38484
L57480 38484
" />
<path d="M57480 38484
L57381 38582
" />
<path d="M58562 38631
L58021 38631
" />
<path d="M58021 38631
L57874 38484
" />
</g>
<g style="fill:#840000; fill-opacity:1.0; 
stroke:#840000; stroke-width:98.4252; stroke-opacity:1; 
stroke-linecap:round; stroke-linejoin:round;">
<polyline style="fill-rule:evenodd;"
points="60846,40374
60534,40374
60534,40098
60524,40043
60491,39993
60442,39959
60383,39947
60206,39947
59932,39673
59905,39655
59904,39650
59871,39599
59822,39566
59763,39554
59399,39554
59399,39481
59763,39481
59818,39470
59868,39438
59881,39419
60088,39419
60163,39404
60196,39382
60383,39382
60438,39372
60488,39340
60522,39290
60534,39232
60534,38917
60524,38862
60491,38812
60442,38778
60383,38766
60088,38766
60033,38777
59983,38809
59949,38858
59938,38917
59938,39025
59914,39025
59914,38818
59904,38764
59871,38713
59822,38680
59763,38668
59330,38668
59299,38674
59280,38629
59205,38554
59108,38513
59002,38513
58930,38543
58930,38523
58919,38468
58887,38418
58838,38384
58779,38373
58346,38373
58291,38383
58241,38415
58228,38435
58201,38435
58201,38385
58198,38366
60846,38366
60846,40374
" /> 
</g>
<g style="fill:#FFFFFF; fill-opacity:1.0; 
stroke:#FFFFFF; stroke-width:98.4252; stroke-opacity:1; 
stroke-linecap:round; stroke-linejoin:round;">
</g>
<g style="fill:#FFFFFF; fill-opacity:1.0; 
stroke:#FFFFFF; stroke-width:0; stroke-opacity:1; 
stroke-linecap:round; stroke-linejoin:round;">
<circle cx="57480.3" cy="40255.9" r="78.7402" /> 
</g>
<g style="fill:#FFFFFF; fill-opacity:1.0; 
stroke:#FFFFFF; stroke-width:39.3701; stroke-opacity:1; 
stroke-linecap:round; stroke-linejoin:round;">
</g>
<g style="fill:#FFFFFF; fill-opacity:1.0; 
stroke:#FFFFFF; stroke-width:0; stroke-opacity:1; 
stroke-linecap:round; stroke-linejoin:round;">
<circle cx="60629.9" cy="40255.9" r="78.7402" /> 
</g>
<g style="fill:#FFFFFF; fill-opacity:1.0; 
stroke:#FFFFFF; stroke-width:39.3701; stroke-opacity:1; 
stroke-linecap:round; stroke-linejoin:round;">
</g>
<g style="fill:#FFFFFF; fill-opacity:1.0; 
stroke:#FFFFFF; stroke-width:0; stroke-opacity:1; 
stroke-linecap:round; stroke-linejoin:round;">
<circle cx="58956.7" cy="40059.1" r="78.7402" /> 
</g>
<g style="fill:#FFFFFF; fill-opacity:1.0; 
stroke:#FFFFFF; stroke-width:39.3701; stroke-opacity:1; 
stroke-linecap:round; stroke-linejoin:round;">
</g>
<g style="fill:#FFFFFF; fill-opacity:1.0; 
stroke:#FFFFFF; stroke-width:0; stroke-opacity:1; 
stroke-linecap:round; stroke-linejoin:round;">
<circle cx="59055.1" cy="38779.5" r="78.7402" /> 
</g>
<g style="fill:#FFFFFF; fill-opacity:1.0; 
stroke:#FFFFFF; stroke-width:39.3701; stroke-opacity:1; 
stroke-linecap:round; stroke-linejoin:round;">
</g>
<g style="fill:#000000; fill-opacity:1.0; 
stroke:#000000; stroke-width:39.3701; stroke-opacity:1; 
stroke-linecap:round; stroke-linejoin:round;">
</g>
<g style="fill:#008484; fill-opacity:1.0; 
stroke:#008484; stroke-width:39.3701; stroke-opacity:1; 
stroke-linecap:round; stroke-linejoin:round;">
</g>
<g style="fill:#008484; fill-opacity:1.0; 
stroke:#008484; stroke-width:59.0551; stroke-opacity:1; 
stroke-linecap:round; stroke-linejoin:round;">
</g>
<g style="fill:#008484; fill-opacity:0.0; 
stroke:#008484; stroke-width:59.0551; stroke-opacity:1; 
stroke-linecap:round; stroke-linejoin:round;">
<path d="M57283 39173
L57480 39173
" />
<path d="M60969 40397
L60654 40397
" />
<path d="M60774 40397
L60759 40367
L60759 40307
L60774 40277
L60789 40262
L60819 40247
L60909 40247
L60939 40262
L60954 40277
L60969 40307
L60969 40367
L60954 40397
" />
<path d="M60954 39977
L60969 40007
L60969 40067
L60954 40097
L60939 40112
L60909 40127
L60819 40127
L60789 40112
L60774 40097
L60759 40067
L60759 40007
L60774 39977
" />
<path d="M60969 39707
L60804 39707
L60774 39722
L60759 39752
L60759 39812
L60774 39842
" />
<path d="M60954 39707
L60969 39737
L60969 39812
L60954 39842
L60924 39857
L60894 39857
L60864 39842
L60849 39812
L60849 39737
L60834 39707
" />
<path d="M60759 39557
L60969 39557
" />
<path d="M60789 39557
L60774 39542
L60759 39512
L60759 39467
L60774 39437
L60804 39422
L60969 39422
" />
<path d="M60654 39077
L60654 38897
" />
<path d="M60969 38987
L60654 38987
" />
<path d="M60654 38732
L60654 38672
L60669 38642
L60699 38612
L60759 38597
L60864 38597
L60924 38612
L60954 38642
L60969 38672
L60969 38732
L60954 38762
L60924 38792
L60864 38807
L60759 38807
L60699 38792
L60669 38762
L60654 38732
" />
<path d="M60804 38357
L60804 38462
" />
<path d="M60969 38462
L60654 38462
L60654 38312
" />
<path d="M57381 39074
L57480 39173
" />
<path d="M57381 39074
L57283 39173
" />
<path d="M57381 39370
L57381 39074
" />
<path d="M57524 40014
L57209 40014
" />
<path d="M57524 39865
L57209 39865
L57524 39685
L57209 39685
" />
<path d="M57209 39580
L57209 39400
" />
<path d="M57524 39490
L57209 39490
" />
</g>
<g style="fill:#008484; fill-opacity:0.0; 
stroke:#008484; stroke-width:47.2441; stroke-opacity:1; 
stroke-linecap:round; stroke-linejoin:round;">
<path d="M60000 38917
L60000 38641
" />
<path d="M60472 38641
L60472 38917
" />
<path d="M60000 40098
L60000 39822
" />
<path d="M60472 39822
L60472 40098
" />
<path d="M58141 39763
L58141 40157
" />
<path d="M57606 40157
L57606 39763
" />
<path d="M58141 38582
L58141 38976
" />
<path d="M57606 38976
L57606 38582
" />
</g>
<g style="fill:#008484; fill-opacity:0.0; 
stroke:#008484; stroke-width:59.0551; stroke-opacity:1; 
stroke-linecap:round; stroke-linejoin:round;">
<path d="M58503 40314
L58503 40236
" />
<path d="M59606 40314
L58503 40314
" />
<path d="M59606 40236
L59606 40314
" />
<path d="M59606 38425
L59606 38503
" />
<path d="M58346 38425
L59606 38425
" />
</g>
<g style="fill:#C2C200; fill-opacity:0.0; 
stroke:#C2C200; stroke-width:59.0551; stroke-opacity:1; 
stroke-linecap:round; stroke-linejoin:round;">
<path d="M60196 38863
L60185 38875
L60151 38886
L60129 38886
L60095 38875
L60073 38852
L60061 38830
L60050 38785
L60050 38751
L60061 38706
L60073 38683
L60095 38661
L60129 38650
L60151 38650
L60185 38661
L60196 38672
" />
<path d="M60421 38886
L60286 38886
" />
<path d="M60354 38886
L60354 38650
L60331 38683
L60309 38706
L60286 38717
" />
<path d="M60196 40044
L60185 40056
L60151 40067
L60129 40067
L60095 40056
L60073 40033
L60061 40011
L60050 39966
L60050 39932
L60061 39887
L60073 39865
L60095 39842
L60129 39831
L60151 39831
L60185 39842
L60196 39853
" />
<path d="M60286 39853
L60298 39842
L60320 39831
L60376 39831
L60399 39842
L60410 39853
L60421 39876
L60421 39898
L60410 39932
L60275 40067
L60421 40067
" />
<path d="M57834 40067
L57755 39955
" />
<path d="M57699 40067
L57699 39831
L57789 39831
L57812 39842
L57823 39853
L57834 39876
L57834 39910
L57823 39932
L57812 39943
L57789 39955
L57699 39955
" />
<path d="M58059 40067
L57924 40067
" />
<path d="M57992 40067
L57992 39831
L57969 39865
L57947 39887
L57924 39898
" />
<path d="M57834 38886
L57755 38773
" />
<path d="M57699 38886
L57699 38650
L57789 38650
L57812 38661
L57823 38672
L57834 38695
L57834 38728
L57823 38751
L57812 38762
L57789 38773
L57699 38773
" />
<path d="M57924 38672
L57935 38661
L57958 38650
L58014 38650
L58037 38661
L58048 38672
L58059 38695
L58059 38717
L58048 38751
L57913 38886
L58059 38886
" />
<path d="M58875 39240
L58875 39431
L58886 39454
L58897 39465
L58920 39476
L58965 39476
L58987 39465
L58998 39454
L59010 39431
L59010 39240
" />
<path d="M59246 39476
L59111 39476
" />
<path d="M59178 39476
L59178 39240
L59156 39274
L59133 39296
L59111 39308
" />
</g>
<g style="fill:#000000; fill-opacity:0.0; 
stroke:#000000; stroke-width:59.0551; stroke-opacity:1; 
stroke-linecap:round; stroke-linejoin:round;">
</g>
<g style="fill:#C2C200; fill-opacity:0.0; 
stroke:#C2C200; stroke-width:59.0551; stroke-opacity:1; 
stroke-linecap:round; stroke-linejoin:round;">
<path d="M57086 40551
L57086 38188
" />
<path d="M61023 40551
L57086 40551
" />
<path d="M61023 38188
L61023 40551
" />
<path d="M57086 38188
L61023 38188
" />
</g> 
</svg>
