<?xml version="1.0" standalone="no"?>
 <!DOCTYPE svg PUBLIC "-//W3C//DTD SVG 1.1//EN" 
 "http://www.w3.org/Graphics/SVG/1.1/DTD/svg11.dtd"> 
<svg xmlns="http://www.w3.org/2000/svg" version="1.1" 
    width="29.7002cm" height="21.0007cm" viewBox="0 0 116930 82680 ">
<title>SVG Picture created as locomotive_tof_sensor.svg date 2017/03/22 12:33:25 </title>
  <desc>Picture generated by Eeschema-SVG </desc>
<g style="fill:#000000; fill-opacity:1;stroke:#000000; stroke-opacity:1;
stroke-linecap:round; stroke-linejoin:round; "
 transform="translate(0 0) scale(1 1)">
</g>
<g style="fill:#000000; fill-opacity:0.0; 
stroke:#000000; stroke-width:-10; stroke-opacity:1; 
stroke-linecap:round; stroke-linejoin:round;">
</g>
<g style="fill:#840000; fill-opacity:0.0; 
stroke:#840000; stroke-width:-10; stroke-opacity:1; 
stroke-linecap:round; stroke-linejoin:round;">
</g>
<g style="fill:#840000; fill-opacity:0.0; 
stroke:#840000; stroke-width:100; stroke-opacity:1; 
stroke-linecap:round; stroke-linejoin:round;">
</g>
<g style="fill:#840000; fill-opacity:0.0; 
stroke:#840000; stroke-width:60; stroke-opacity:1; 
stroke-linecap:round; stroke-linejoin:round;">
<rect x="69690" y="65360" width="42520" height="12600" rx="0" />
</g>
<g style="fill:#840000; fill-opacity:0.0; 
stroke:#840000; stroke-width:100; stroke-opacity:1; 
stroke-linecap:round; stroke-linejoin:round;">
</g>
<g style="fill:#840000; fill-opacity:0.0; 
stroke:#840000; stroke-width:60; stroke-opacity:1; 
stroke-linecap:round; stroke-linejoin:round;">
<rect x="3940" y="3940" width="109050" height="74800" rx="0" />
</g>
<g style="fill:#840000; fill-opacity:0.0; 
stroke:#840000; stroke-width:100; stroke-opacity:1; 
stroke-linecap:round; stroke-linejoin:round;">
</g>
<g style="fill:#840000; fill-opacity:0.0; 
stroke:#840000; stroke-width:60; stroke-opacity:1; 
stroke-linecap:round; stroke-linejoin:round;">
<rect x="4720" y="4720" width="107490" height="73240" rx="0" />
</g>
<g style="fill:#840000; fill-opacity:0.0; 
stroke:#840000; stroke-width:100; stroke-opacity:1; 
stroke-linecap:round; stroke-linejoin:round;">
</g>
<g style="fill:#840000; fill-opacity:0.0; 
stroke:#840000; stroke-width:60; stroke-opacity:1; 
stroke-linecap:round; stroke-linejoin:round;">
<path d="M23620 4720
L23620 3940
" />
</g>
<g style="fill:#840000; fill-opacity:0.0; 
stroke:#840000; stroke-width:100; stroke-opacity:1; 
stroke-linecap:round; stroke-linejoin:round;">
</g>
<g style="fill:#840000; fill-opacity:0.0; 
stroke:#840000; stroke-width:60; stroke-opacity:1; 
stroke-linecap:round; stroke-linejoin:round;">
<path d="M43310 4720
L43310 3940
" />
</g>
<g style="fill:#840000; fill-opacity:0.0; 
stroke:#840000; stroke-width:100; stroke-opacity:1; 
stroke-linecap:round; stroke-linejoin:round;">
</g>
<g style="fill:#840000; fill-opacity:0.0; 
stroke:#840000; stroke-width:60; stroke-opacity:1; 
stroke-linecap:round; stroke-linejoin:round;">
<path d="M62990 4720
L62990 3940
" />
</g>
<g style="fill:#840000; fill-opacity:0.0; 
stroke:#840000; stroke-width:100; stroke-opacity:1; 
stroke-linecap:round; stroke-linejoin:round;">
</g>
<g style="fill:#840000; fill-opacity:0.0; 
stroke:#840000; stroke-width:60; stroke-opacity:1; 
stroke-linecap:round; stroke-linejoin:round;">
<path d="M82680 4720
L82680 3940
" />
</g>
<g style="fill:#840000; fill-opacity:0.0; 
stroke:#840000; stroke-width:100; stroke-opacity:1; 
stroke-linecap:round; stroke-linejoin:round;">
</g>
<g style="fill:#840000; fill-opacity:0.0; 
stroke:#840000; stroke-width:60; stroke-opacity:1; 
stroke-linecap:round; stroke-linejoin:round;">
<path d="M102360 4720
L102360 3940
" />
</g>
<g style="fill:#840000; fill-opacity:0.0; 
stroke:#840000; stroke-width:100; stroke-opacity:1; 
stroke-linecap:round; stroke-linejoin:round;">
</g>
<g style="fill:#840000; fill-opacity:0.0; 
stroke:#840000; stroke-width:60; stroke-opacity:1; 
stroke-linecap:round; stroke-linejoin:round;">
<path d="M14170 4560
L13880 4560
" />
<path d="M14020 4560
L14020 4050
L13970 4120
L13930 4170
L13880 4190
" />
</g>
<g style="fill:#840000; fill-opacity:0.0; 
stroke:#840000; stroke-width:100; stroke-opacity:1; 
stroke-linecap:round; stroke-linejoin:round;">
</g>
<g style="fill:#840000; fill-opacity:0.0; 
stroke:#840000; stroke-width:60; stroke-opacity:1; 
stroke-linecap:round; stroke-linejoin:round;">
<path d="M33560 4090
L33580 4070
L33630 4050
L33750 4050
L33800 4070
L33820 4090
L33850 4140
L33850 4190
L33820 4260
L33530 4560
L33850 4560
" />
</g>
<g style="fill:#840000; fill-opacity:0.0; 
stroke:#840000; stroke-width:100; stroke-opacity:1; 
stroke-linecap:round; stroke-linejoin:round;">
</g>
<g style="fill:#840000; fill-opacity:0.0; 
stroke:#840000; stroke-width:60; stroke-opacity:1; 
stroke-linecap:round; stroke-linejoin:round;">
<path d="M53220 4050
L53540 4050
L53370 4240
L53440 4240
L53490 4260
L53510 4290
L53540 4340
L53540 4460
L53510 4510
L53490 4530
L53440 4560
L53300 4560
L53250 4530
L53220 4510
" />
</g>
<g style="fill:#840000; fill-opacity:0.0; 
stroke:#840000; stroke-width:100; stroke-opacity:1; 
stroke-linecap:round; stroke-linejoin:round;">
</g>
<g style="fill:#840000; fill-opacity:0.0; 
stroke:#840000; stroke-width:60; stroke-opacity:1; 
stroke-linecap:round; stroke-linejoin:round;">
<path d="M73170 4220
L73170 4560
" />
<path d="M73050 4020
L72930 4390
L73240 4390
" />
</g>
<g style="fill:#840000; fill-opacity:0.0; 
stroke:#840000; stroke-width:100; stroke-opacity:1; 
stroke-linecap:round; stroke-linejoin:round;">
</g>
<g style="fill:#840000; fill-opacity:0.0; 
stroke:#840000; stroke-width:60; stroke-opacity:1; 
stroke-linecap:round; stroke-linejoin:round;">
<path d="M92880 4050
L92640 4050
L92620 4290
L92640 4260
L92690 4240
L92810 4240
L92860 4260
L92880 4290
L92910 4340
L92910 4460
L92880 4510
L92860 4530
L92810 4560
L92690 4560
L92640 4530
L92620 4510
" />
</g>
<g style="fill:#840000; fill-opacity:0.0; 
stroke:#840000; stroke-width:100; stroke-opacity:1; 
stroke-linecap:round; stroke-linejoin:round;">
</g>
<g style="fill:#840000; fill-opacity:0.0; 
stroke:#840000; stroke-width:60; stroke-opacity:1; 
stroke-linecap:round; stroke-linejoin:round;">
<path d="M112540 4050
L112440 4050
L112390 4070
L112370 4090
L112320 4170
L112300 4260
L112300 4460
L112320 4510
L112350 4530
L112390 4560
L112490 4560
L112540 4530
L112560 4510
L112590 4460
L112590 4340
L112560 4290
L112540 4260
L112490 4240
L112390 4240
L112350 4260
L112320 4290
L112300 4340
" />
</g>
<g style="fill:#840000; fill-opacity:0.0; 
stroke:#840000; stroke-width:100; stroke-opacity:1; 
stroke-linecap:round; stroke-linejoin:round;">
</g>
<g style="fill:#840000; fill-opacity:0.0; 
stroke:#840000; stroke-width:60; stroke-opacity:1; 
stroke-linecap:round; stroke-linejoin:round;">
<path d="M23620 77960
L23620 78740
" />
</g>
<g style="fill:#840000; fill-opacity:0.0; 
stroke:#840000; stroke-width:100; stroke-opacity:1; 
stroke-linecap:round; stroke-linejoin:round;">
</g>
<g style="fill:#840000; fill-opacity:0.0; 
stroke:#840000; stroke-width:60; stroke-opacity:1; 
stroke-linecap:round; stroke-linejoin:round;">
<path d="M43310 77960
L43310 78740
" />
</g>
<g style="fill:#840000; fill-opacity:0.0; 
stroke:#840000; stroke-width:100; stroke-opacity:1; 
stroke-linecap:round; stroke-linejoin:round;">
</g>
<g style="fill:#840000; fill-opacity:0.0; 
stroke:#840000; stroke-width:60; stroke-opacity:1; 
stroke-linecap:round; stroke-linejoin:round;">
<path d="M62990 77960
L62990 78740
" />
</g>
<g style="fill:#840000; fill-opacity:0.0; 
stroke:#840000; stroke-width:100; stroke-opacity:1; 
stroke-linecap:round; stroke-linejoin:round;">
</g>
<g style="fill:#840000; fill-opacity:0.0; 
stroke:#840000; stroke-width:60; stroke-opacity:1; 
stroke-linecap:round; stroke-linejoin:round;">
<path d="M82680 77960
L82680 78740
" />
</g>
<g style="fill:#840000; fill-opacity:0.0; 
stroke:#840000; stroke-width:100; stroke-opacity:1; 
stroke-linecap:round; stroke-linejoin:round;">
</g>
<g style="fill:#840000; fill-opacity:0.0; 
stroke:#840000; stroke-width:60; stroke-opacity:1; 
stroke-linecap:round; stroke-linejoin:round;">
<path d="M102360 77960
L102360 78740
" />
</g>
<g style="fill:#840000; fill-opacity:0.0; 
stroke:#840000; stroke-width:100; stroke-opacity:1; 
stroke-linecap:round; stroke-linejoin:round;">
</g>
<g style="fill:#840000; fill-opacity:0.0; 
stroke:#840000; stroke-width:60; stroke-opacity:1; 
stroke-linecap:round; stroke-linejoin:round;">
<path d="M14170 78580
L13880 78580
" />
<path d="M14020 78580
L14020 78070
L13970 78140
L13930 78190
L13880 78210
" />
</g>
<g style="fill:#840000; fill-opacity:0.0; 
stroke:#840000; stroke-width:100; stroke-opacity:1; 
stroke-linecap:round; stroke-linejoin:round;">
</g>
<g style="fill:#840000; fill-opacity:0.0; 
stroke:#840000; stroke-width:60; stroke-opacity:1; 
stroke-linecap:round; stroke-linejoin:round;">
<path d="M33560 78110
L33580 78090
L33630 78070
L33750 78070
L33800 78090
L33820 78110
L33850 78160
L33850 78210
L33820 78280
L33530 78580
L33850 78580
" />
</g>
<g style="fill:#840000; fill-opacity:0.0; 
stroke:#840000; stroke-width:100; stroke-opacity:1; 
stroke-linecap:round; stroke-linejoin:round;">
</g>
<g style="fill:#840000; fill-opacity:0.0; 
stroke:#840000; stroke-width:60; stroke-opacity:1; 
stroke-linecap:round; stroke-linejoin:round;">
<path d="M53220 78070
L53540 78070
L53370 78260
L53440 78260
L53490 78280
L53510 78310
L53540 78360
L53540 78480
L53510 78530
L53490 78550
L53440 78580
L53300 78580
L53250 78550
L53220 78530
" />
</g>
<g style="fill:#840000; fill-opacity:0.0; 
stroke:#840000; stroke-width:100; stroke-opacity:1; 
stroke-linecap:round; stroke-linejoin:round;">
</g>
<g style="fill:#840000; fill-opacity:0.0; 
stroke:#840000; stroke-width:60; stroke-opacity:1; 
stroke-linecap:round; stroke-linejoin:round;">
<path d="M73170 78240
L73170 78580
" />
<path d="M73050 78040
L72930 78410
L73240 78410
" />
</g>
<g style="fill:#840000; fill-opacity:0.0; 
stroke:#840000; stroke-width:100; stroke-opacity:1; 
stroke-linecap:round; stroke-linejoin:round;">
</g>
<g style="fill:#840000; fill-opacity:0.0; 
stroke:#840000; stroke-width:60; stroke-opacity:1; 
stroke-linecap:round; stroke-linejoin:round;">
<path d="M92880 78070
L92640 78070
L92620 78310
L92640 78280
L92690 78260
L92810 78260
L92860 78280
L92880 78310
L92910 78360
L92910 78480
L92880 78530
L92860 78550
L92810 78580
L92690 78580
L92640 78550
L92620 78530
" />
</g>
<g style="fill:#840000; fill-opacity:0.0; 
stroke:#840000; stroke-width:100; stroke-opacity:1; 
stroke-linecap:round; stroke-linejoin:round;">
</g>
<g style="fill:#840000; fill-opacity:0.0; 
stroke:#840000; stroke-width:60; stroke-opacity:1; 
stroke-linecap:round; stroke-linejoin:round;">
<path d="M112540 78070
L112440 78070
L112390 78090
L112370 78110
L112320 78190
L112300 78280
L112300 78480
L112320 78530
L112350 78550
L112390 78580
L112490 78580
L112540 78550
L112560 78530
L112590 78480
L112590 78360
L112560 78310
L112540 78280
L112490 78260
L112390 78260
L112350 78280
L112320 78310
L112300 78360
" />
</g>
<g style="fill:#840000; fill-opacity:0.0; 
stroke:#840000; stroke-width:100; stroke-opacity:1; 
stroke-linecap:round; stroke-linejoin:round;">
</g>
<g style="fill:#840000; fill-opacity:0.0; 
stroke:#840000; stroke-width:60; stroke-opacity:1; 
stroke-linecap:round; stroke-linejoin:round;">
<path d="M3940 23620
L4720 23620
" />
</g>
<g style="fill:#840000; fill-opacity:0.0; 
stroke:#840000; stroke-width:100; stroke-opacity:1; 
stroke-linecap:round; stroke-linejoin:round;">
</g>
<g style="fill:#840000; fill-opacity:0.0; 
stroke:#840000; stroke-width:60; stroke-opacity:1; 
stroke-linecap:round; stroke-linejoin:round;">
<path d="M3940 43310
L4720 43310
" />
</g>
<g style="fill:#840000; fill-opacity:0.0; 
stroke:#840000; stroke-width:100; stroke-opacity:1; 
stroke-linecap:round; stroke-linejoin:round;">
</g>
<g style="fill:#840000; fill-opacity:0.0; 
stroke:#840000; stroke-width:60; stroke-opacity:1; 
stroke-linecap:round; stroke-linejoin:round;">
<path d="M3940 62990
L4720 62990
" />
</g>
<g style="fill:#840000; fill-opacity:0.0; 
stroke:#840000; stroke-width:100; stroke-opacity:1; 
stroke-linecap:round; stroke-linejoin:round;">
</g>
<g style="fill:#840000; fill-opacity:0.0; 
stroke:#840000; stroke-width:60; stroke-opacity:1; 
stroke-linecap:round; stroke-linejoin:round;">
<path d="M4210 13860
L4450 13860
" />
<path d="M4160 14010
L4330 13500
L4500 14010
" />
</g>
<g style="fill:#840000; fill-opacity:0.0; 
stroke:#840000; stroke-width:100; stroke-opacity:1; 
stroke-linecap:round; stroke-linejoin:round;">
</g>
<g style="fill:#840000; fill-opacity:0.0; 
stroke:#840000; stroke-width:60; stroke-opacity:1; 
stroke-linecap:round; stroke-linejoin:round;">
<path d="M4370 33420
L4440 33440
L4470 33470
L4490 33520
L4490 33590
L4470 33640
L4440 33660
L4400 33690
L4200 33690
L4200 33180
L4370 33180
L4420 33200
L4440 33220
L4470 33270
L4470 33320
L4440 33370
L4420 33390
L4370 33420
L4200 33420
" />
</g>
<g style="fill:#840000; fill-opacity:0.0; 
stroke:#840000; stroke-width:100; stroke-opacity:1; 
stroke-linecap:round; stroke-linejoin:round;">
</g>
<g style="fill:#840000; fill-opacity:0.0; 
stroke:#840000; stroke-width:60; stroke-opacity:1; 
stroke-linecap:round; stroke-linejoin:round;">
<path d="M4490 53330
L4470 53350
L4400 53380
L4350 53380
L4270 53350
L4230 53300
L4200 53250
L4180 53160
L4180 53080
L4200 52990
L4230 52940
L4270 52890
L4350 52870
L4400 52870
L4470 52890
L4490 52910
" />
</g>
<g style="fill:#840000; fill-opacity:0.0; 
stroke:#840000; stroke-width:100; stroke-opacity:1; 
stroke-linecap:round; stroke-linejoin:round;">
</g>
<g style="fill:#840000; fill-opacity:0.0; 
stroke:#840000; stroke-width:60; stroke-opacity:1; 
stroke-linecap:round; stroke-linejoin:round;">
<path d="M4200 73060
L4200 72550
L4320 72550
L4400 72570
L4440 72620
L4470 72670
L4490 72760
L4490 72840
L4470 72930
L4440 72980
L4400 73030
L4320 73060
L4200 73060
" />
</g>
<g style="fill:#840000; fill-opacity:0.0; 
stroke:#840000; stroke-width:100; stroke-opacity:1; 
stroke-linecap:round; stroke-linejoin:round;">
</g>
<g style="fill:#840000; fill-opacity:0.0; 
stroke:#840000; stroke-width:60; stroke-opacity:1; 
stroke-linecap:round; stroke-linejoin:round;">
<path d="M112990 23620
L112210 23620
" />
</g>
<g style="fill:#840000; fill-opacity:0.0; 
stroke:#840000; stroke-width:100; stroke-opacity:1; 
stroke-linecap:round; stroke-linejoin:round;">
</g>
<g style="fill:#840000; fill-opacity:0.0; 
stroke:#840000; stroke-width:60; stroke-opacity:1; 
stroke-linecap:round; stroke-linejoin:round;">
<path d="M112990 43310
L112210 43310
" />
</g>
<g style="fill:#840000; fill-opacity:0.0; 
stroke:#840000; stroke-width:100; stroke-opacity:1; 
stroke-linecap:round; stroke-linejoin:round;">
</g>
<g style="fill:#840000; fill-opacity:0.0; 
stroke:#840000; stroke-width:60; stroke-opacity:1; 
stroke-linecap:round; stroke-linejoin:round;">
<path d="M112990 62990
L112210 62990
" />
</g>
<g style="fill:#840000; fill-opacity:0.0; 
stroke:#840000; stroke-width:100; stroke-opacity:1; 
stroke-linecap:round; stroke-linejoin:round;">
</g>
<g style="fill:#840000; fill-opacity:0.0; 
stroke:#840000; stroke-width:60; stroke-opacity:1; 
stroke-linecap:round; stroke-linejoin:round;">
<path d="M112480 13860
L112720 13860
" />
<path d="M112430 14010
L112600 13500
L112770 14010
" />
</g>
<g style="fill:#840000; fill-opacity:0.0; 
stroke:#840000; stroke-width:100; stroke-opacity:1; 
stroke-linecap:round; stroke-linejoin:round;">
</g>
<g style="fill:#840000; fill-opacity:0.0; 
stroke:#840000; stroke-width:60; stroke-opacity:1; 
stroke-linecap:round; stroke-linejoin:round;">
<path d="M112640 33420
L112710 33440
L112740 33470
L112760 33520
L112760 33590
L112740 33640
L112710 33660
L112670 33690
L112470 33690
L112470 33180
L112640 33180
L112690 33200
L112710 33220
L112740 33270
L112740 33320
L112710 33370
L112690 33390
L112640 33420
L112470 33420
" />
</g>
<g style="fill:#840000; fill-opacity:0.0; 
stroke:#840000; stroke-width:100; stroke-opacity:1; 
stroke-linecap:round; stroke-linejoin:round;">
</g>
<g style="fill:#840000; fill-opacity:0.0; 
stroke:#840000; stroke-width:60; stroke-opacity:1; 
stroke-linecap:round; stroke-linejoin:round;">
<path d="M112760 53330
L112740 53350
L112670 53380
L112620 53380
L112540 53350
L112500 53300
L112470 53250
L112450 53160
L112450 53080
L112470 52990
L112500 52940
L112540 52890
L112620 52870
L112670 52870
L112740 52890
L112760 52910
" />
</g>
<g style="fill:#840000; fill-opacity:0.0; 
stroke:#840000; stroke-width:100; stroke-opacity:1; 
stroke-linecap:round; stroke-linejoin:round;">
</g>
<g style="fill:#840000; fill-opacity:0.0; 
stroke:#840000; stroke-width:60; stroke-opacity:1; 
stroke-linecap:round; stroke-linejoin:round;">
<path d="M112470 73060
L112470 72550
L112590 72550
L112670 72570
L112710 72620
L112740 72670
L112760 72760
L112760 72840
L112740 72930
L112710 72980
L112670 73030
L112590 73060
L112470 73060
" />
</g>
<g style="fill:#840000; fill-opacity:0.0; 
stroke:#840000; stroke-width:100; stroke-opacity:1; 
stroke-linecap:round; stroke-linejoin:round;">
</g>
<g style="fill:#840000; fill-opacity:0.0; 
stroke:#840000; stroke-width:60; stroke-opacity:1; 
stroke-linecap:round; stroke-linejoin:round;">
<path d="M78880 76290
L78880 75700
L79020 75700
L79110 75730
L79160 75790
L79190 75840
L79220 75950
L79220 76040
L79190 76150
L79160 76210
L79110 76260
L79020 76290
L78880 76290
" />
<path d="M79720 76290
L79720 75980
L79700 75930
L79640 75900
L79530 75900
L79470 75930
" />
<path d="M79720 76260
L79670 76290
L79530 76290
L79470 76260
L79440 76210
L79440 76150
L79470 76100
L79530 76070
L79670 76070
L79720 76040
" />
<path d="M79920 75900
L80140 75900
" />
<path d="M80000 75700
L80000 76210
L80030 76260
L80080 76290
L80140 76290
" />
<path d="M80570 76260
L80510 76290
L80400 76290
L80340 76260
L80310 76210
L80310 75980
L80340 75930
L80400 75900
L80510 75900
L80570 75930
L80590 75980
L80590 76040
L80310 76100
" />
<path d="M80850 76240
L80880 76260
L80850 76290
L80820 76260
L80850 76240
L80850 76290
" />
<path d="M80850 75930
L80880 75950
L80850 75980
L80820 75950
L80850 75930
L80850 75980
" />
<path d="M81550 75760
L81580 75730
L81640 75700
L81780 75700
L81830 75730
L81860 75760
L81890 75810
L81890 75870
L81860 75950
L81520 76290
L81890 76290
" />
<path d="M82250 75700
L82310 75700
L82370 75730
L82390 75760
L82420 75810
L82450 75930
L82450 76070
L82420 76180
L82390 76240
L82370 76260
L82310 76290
L82250 76290
L82200 76260
L82170 76240
L82140 76180
L82110 76070
L82110 75930
L82140 75810
L82170 75760
L82200 75730
L82250 75700
" />
<path d="M83010 76290
L82670 76290
" />
<path d="M82840 76290
L82840 75700
L82780 75790
L82730 75840
L82670 75870
" />
<path d="M83200 75700
L83600 75700
L83340 76290
" />
<path d="M83820 76070
L84270 76070
" />
<path d="M84660 75700
L84720 75700
L84780 75730
L84800 75760
L84830 75810
L84860 75930
L84860 76070
L84830 76180
L84800 76240
L84780 76260
L84720 76290
L84660 76290
L84610 76260
L84580 76240
L84550 76180
L84520 76070
L84520 75930
L84550 75810
L84580 75760
L84610 75730
L84660 75700
" />
<path d="M85050 75700
L85420 75700
L85220 75930
L85310 75930
L85360 75950
L85390 75980
L85420 76040
L85420 76180
L85390 76240
L85360 76260
L85310 76290
L85140 76290
L85080 76260
L85050 76240
" />
<path d="M85670 76070
L86120 76070
" />
<path d="M86370 75760
L86400 75730
L86460 75700
L86600 75700
L86650 75730
L86680 75760
L86710 75810
L86710 75870
L86680 75950
L86340 76290
L86710 76290
" />
<path d="M86930 75760
L86960 75730
L87020 75700
L87160 75700
L87210 75730
L87240 75760
L87270 75810
L87270 75870
L87240 75950
L86900 76290
L87270 76290
" />
</g>
<g style="fill:#840000; fill-opacity:0.0; 
stroke:#840000; stroke-width:100; stroke-opacity:1; 
stroke-linecap:round; stroke-linejoin:round;">
</g>
<g style="fill:#840000; fill-opacity:0.0; 
stroke:#840000; stroke-width:60; stroke-opacity:1; 
stroke-linecap:round; stroke-linejoin:round;">
<path d="M69690 76580
L112210 76580
" />
</g>
<g style="fill:#840000; fill-opacity:0.0; 
stroke:#840000; stroke-width:100; stroke-opacity:1; 
stroke-linecap:round; stroke-linejoin:round;">
</g>
<g style="fill:#840000; fill-opacity:0.0; 
stroke:#840000; stroke-width:60; stroke-opacity:1; 
stroke-linecap:round; stroke-linejoin:round;">
<path d="M70220 77390
L70220 76800
" />
<path d="M70560 77390
L70300 77050
" />
<path d="M70560 76800
L70220 77140
" />
<path d="M70810 77390
L70810 77000
" />
<path d="M70810 76800
L70780 76830
L70810 76860
L70840 76830
L70810 76800
L70810 76860
" />
<path d="M71430 77340
L71400 77360
L71320 77390
L71260 77390
L71170 77360
L71120 77310
L71090 77250
L71060 77140
L71060 77050
L71090 76940
L71120 76890
L71170 76830
L71260 76800
L71320 76800
L71400 76830
L71430 76860
" />
<path d="M71930 77390
L71930 77080
L71910 77030
L71850 77000
L71740 77000
L71680 77030
" />
<path d="M71930 77360
L71880 77390
L71740 77390
L71680 77360
L71650 77310
L71650 77250
L71680 77200
L71740 77170
L71880 77170
L71930 77140
" />
<path d="M72460 77390
L72460 76800
" />
<path d="M72460 77360
L72410 77390
L72290 77390
L72240 77360
L72210 77340
L72180 77280
L72180 77110
L72210 77050
L72240 77030
L72290 77000
L72410 77000
L72460 77030
" />
<path d="M73190 77080
L73390 77080
" />
<path d="M73470 77390
L73190 77390
L73190 76800
L73470 76800
" />
<path d="M73720 77340
L73750 77360
L73720 77390
L73690 77360
L73720 77340
L73720 77390
" />
<path d="M74000 77390
L74000 76800
L74140 76800
L74230 76830
L74280 76890
L74310 76940
L74340 77050
L74340 77140
L74310 77250
L74280 77310
L74230 77360
L74140 77390
L74000 77390
" />
<path d="M74590 77340
L74620 77360
L74590 77390
L74560 77360
L74590 77340
L74590 77390
" />
<path d="M74840 77220
L75120 77220
" />
<path d="M74790 77390
L74980 76800
L75180 77390
" />
<path d="M75380 77340
L75410 77360
L75380 77390
L75350 77360
L75380 77340
L75380 77390
" />
<path d="M76560 77390
L76560 76800
" />
<path d="M76620 77170
L76790 77390
" />
<path d="M76790 77000
L76560 77220
" />
<path d="M77040 77390
L77040 77000
" />
<path d="M77040 76800
L77010 76830
L77040 76860
L77070 76830
L77040 76800
L77040 76860
" />
<path d="M77570 77360
L77520 77390
L77400 77390
L77350 77360
L77320 77340
L77290 77280
L77290 77110
L77320 77050
L77350 77030
L77400 77000
L77520 77000
L77570 77030
" />
<path d="M78080 77390
L78080 77080
L78060 77030
L78000 77000
L77890 77000
L77830 77030
" />
<path d="M78080 77360
L78030 77390
L77890 77390
L77830 77360
L77800 77310
L77800 77250
L77830 77200
L77890 77170
L78030 77170
L78080 77140
" />
<path d="M78610 77390
L78610 76800
" />
<path d="M78610 77360
L78560 77390
L78440 77390
L78390 77360
L78360 77340
L78330 77280
L78330 77110
L78360 77050
L78390 77030
L78440 77000
L78560 77000
L78610 77030
" />
<path d="M79590 77000
L79590 77390
" />
<path d="M79450 76770
L79310 77200
L79680 77200
" />
<path d="M79900 77340
L79930 77360
L79900 77390
L79870 77360
L79900 77340
L79900 77390
" />
<path d="M80290 76800
L80350 76800
L80410 76830
L80430 76860
L80460 76910
L80490 77030
L80490 77170
L80460 77280
L80430 77340
L80410 77360
L80350 77390
L80290 77390
L80240 77360
L80210 77340
L80180 77280
L80150 77170
L80150 77030
L80180 76910
L80210 76860
L80240 76830
L80290 76800
" />
<path d="M80740 77340
L80770 77360
L80740 77390
L80710 77360
L80740 77340
L80740 77390
" />
<path d="M81270 76800
L81160 76800
L81100 76830
L81080 76860
L81020 76940
L80990 77050
L80990 77280
L81020 77340
L81050 77360
L81100 77390
L81220 77390
L81270 77360
L81300 77340
L81330 77280
L81330 77140
L81300 77080
L81270 77050
L81220 77030
L81100 77030
L81050 77050
L81020 77080
L80990 77140
" />
</g>
<g style="fill:#840000; fill-opacity:0.0; 
stroke:#840000; stroke-width:100; stroke-opacity:1; 
stroke-linecap:round; stroke-linejoin:round;">
</g>
<g style="fill:#840000; fill-opacity:0.0; 
stroke:#840000; stroke-width:60; stroke-opacity:1; 
stroke-linecap:round; stroke-linejoin:round;">
<path d="M69690 75400
L112210 75400
" />
</g>
<g style="fill:#840000; fill-opacity:0.0; 
stroke:#840000; stroke-width:100; stroke-opacity:1; 
stroke-linecap:round; stroke-linejoin:round;">
</g>
<g style="fill:#840000; fill-opacity:0.0; 
stroke:#840000; stroke-width:120; stroke-opacity:1; 
stroke-linecap:round; stroke-linejoin:round;">
<path d="M104020 76290
L103820 76010
" />
<path d="M103680 76290
L103680 75700
L103910 75700
L103960 75730
L103990 75760
L104020 75810
L104020 75900
L103990 75950
L103960 75980
L103910 76010
L103680 76010
" />
<path d="M104500 76260
L104440 76290
L104330 76290
L104270 76260
L104240 76210
L104240 75980
L104270 75930
L104330 75900
L104440 75900
L104500 75930
L104520 75980
L104520 76040
L104240 76100
" />
<path d="M104720 75900
L104860 76290
L105010 75900
" />
<path d="M105230 76240
L105260 76260
L105230 76290
L105200 76260
L105230 76240
L105230 76290
" />
<path d="M105230 75930
L105260 75950
L105230 75980
L105200 75950
L105230 75930
L105230 75980
" />
<path d="M106270 76290
L105930 76290
" />
<path d="M106100 76290
L106100 75700
L106040 75790
L105990 75840
L105930 75870
" />
<path d="M106520 76240
L106550 76260
L106520 76290
L106490 76260
L106520 76240
L106520 76290
" />
<path d="M106910 75700
L106970 75700
L107030 75730
L107050 75760
L107080 75810
L107110 75930
L107110 76070
L107080 76180
L107050 76240
L107030 76260
L106970 76290
L106910 76290
L106860 76260
L106830 76240
L106800 76180
L106770 76070
L106770 75930
L106800 75810
L106830 75760
L106860 75730
L106910 75700
" />
</g>
<g style="fill:#840000; fill-opacity:0.0; 
stroke:#840000; stroke-width:100; stroke-opacity:1; 
stroke-linecap:round; stroke-linejoin:round;">
</g>
<g style="fill:#840000; fill-opacity:0.0; 
stroke:#840000; stroke-width:60; stroke-opacity:1; 
stroke-linecap:round; stroke-linejoin:round;">
<path d="M70190 76260
L70280 76290
L70420 76290
L70470 76260
L70500 76240
L70530 76180
L70530 76120
L70500 76070
L70470 76040
L70420 76010
L70300 75980
L70250 75950
L70220 75930
L70190 75870
L70190 75810
L70220 75760
L70250 75730
L70300 75700
L70450 75700
L70530 75730
" />
<path d="M70780 76290
L70780 75900
" />
<path d="M70780 75700
L70750 75730
L70780 75760
L70810 75730
L70780 75700
L70780 75760
" />
<path d="M71000 75900
L71310 75900
L71000 76290
L71310 76290
" />
<path d="M71770 76260
L71710 76290
L71600 76290
L71540 76260
L71510 76210
L71510 75980
L71540 75930
L71600 75900
L71710 75900
L71770 75930
L71790 75980
L71790 76040
L71510 76100
" />
<path d="M72050 76240
L72080 76260
L72050 76290
L72020 76260
L72050 76240
L72050 76290
" />
<path d="M72050 75930
L72080 75950
L72050 75980
L72020 75950
L72050 75930
L72050 75980
" />
<path d="M72750 76120
L73030 76120
" />
<path d="M72700 76290
L72890 75700
L73090 76290
" />
<path d="M73540 75900
L73540 76290
" />
<path d="M73400 75670
L73260 76100
L73630 76100
" />
</g>
<g style="fill:#840000; fill-opacity:0.0; 
stroke:#840000; stroke-width:100; stroke-opacity:1; 
stroke-linecap:round; stroke-linejoin:round;">
</g>
<g style="fill:#840000; fill-opacity:0.0; 
stroke:#840000; stroke-width:60; stroke-opacity:1; 
stroke-linecap:round; stroke-linejoin:round;">
<path d="M103680 77390
L103680 76800
" />
<path d="M104210 77390
L104210 76800
" />
<path d="M104210 77360
L104160 77390
L104040 77390
L103990 77360
L103960 77340
L103930 77280
L103930 77110
L103960 77050
L103990 77030
L104040 77000
L104160 77000
L104210 77030
" />
<path d="M104490 77340
L104520 77360
L104490 77390
L104460 77360
L104490 77340
L104490 77390
" />
<path d="M104490 77030
L104520 77050
L104490 77080
L104460 77050
L104490 77030
L104490 77080
" />
<path d="M105530 77390
L105190 77390
" />
<path d="M105360 77390
L105360 76800
L105300 76890
L105250 76940
L105190 76970
" />
<path d="M106200 76770
L105700 77530
" />
<path d="M106710 77390
L106370 77390
" />
<path d="M106540 77390
L106540 76800
L106480 76890
L106430 76940
L106370 76970
" />
</g>
<g style="fill:#840000; fill-opacity:0.0; 
stroke:#840000; stroke-width:100; stroke-opacity:1; 
stroke-linecap:round; stroke-linejoin:round;">
</g>
<g style="fill:#840000; fill-opacity:0.0; 
stroke:#840000; stroke-width:60; stroke-opacity:1; 
stroke-linecap:round; stroke-linejoin:round;">
<path d="M69690 73820
L112210 73820
" />
</g>
<g style="fill:#840000; fill-opacity:0.0; 
stroke:#840000; stroke-width:100; stroke-opacity:1; 
stroke-linecap:round; stroke-linejoin:round;">
</g>
<g style="fill:#840000; fill-opacity:0.0; 
stroke:#840000; stroke-width:160; stroke-opacity:1; 
stroke-linecap:round; stroke-linejoin:round;">
<path d="M70260 74090
L70710 74090
" />
<path d="M70390 74880
L70480 74090
" />
<path d="M70880 74880
L70940 74360
" />
<path d="M70970 74090
L70930 74130
L70960 74170
L71010 74130
L70970 74090
L70960 74170
" />
<path d="M71210 74360
L71510 74360
" />
<path d="M71350 74090
L71270 74770
L71300 74840
L71370 74880
L71450 74880
" />
<path d="M71820 74880
L71750 74840
L71720 74770
L71800 74090
" />
<path d="M72420 74840
L72340 74880
L72190 74880
L72120 74840
L72090 74770
L72130 74470
L72180 74390
L72250 74360
L72400 74360
L72480 74390
L72510 74470
L72500 74540
L72110 74620
" />
<path d="M72800 74810
L72840 74840
L72800 74880
L72760 74840
L72800 74810
L72800 74880
" />
<path d="M72860 74390
L72890 74430
L72850 74470
L72810 74430
L72860 74390
L72850 74470
" />
<path d="M73760 74090
L74210 74090
" />
<path d="M73890 74880
L73980 74090
" />
<path d="M74620 74090
L74770 74090
L74840 74130
L74910 74210
L74930 74360
L74900 74620
L74840 74770
L74750 74840
L74680 74880
L74530 74880
L74450 74840
L74390 74770
L74370 74620
L74400 74360
L74460 74210
L74540 74130
L74620 74090
" />
<path d="M75520 74470
L75260 74470
" />
<path d="M75210 74880
L75300 74090
L75670 74090
" />
<path d="M76450 74840
L76560 74880
L76750 74880
L76830 74840
L76860 74810
L76910 74730
L76920 74660
L76890 74580
L76870 74540
L76790 74510
L76650 74470
L76580 74430
L76550 74390
L76520 74320
L76530 74240
L76570 74170
L76620 74130
L76690 74090
L76880 74090
L76990 74130
" />
<path d="M77540 74840
L77460 74880
L77310 74880
L77240 74840
L77210 74770
L77250 74470
L77300 74390
L77370 74360
L77520 74360
L77600 74390
L77630 74470
L77620 74540
L77230 74620
" />
<path d="M77980 74360
L77920 74880
" />
<path d="M77970 74430
L78020 74390
L78090 74360
L78200 74360
L78280 74390
L78310 74470
L78260 74880
" />
<path d="M78590 74840
L78670 74880
L78820 74880
L78890 74840
L78940 74770
L78940 74730
L78910 74660
L78850 74620
L78730 74620
L78660 74580
L78630 74510
L78640 74470
L78690 74390
L78760 74360
L78880 74360
L78950 74390
" />
<path d="M79380 74880
L79310 74840
L79270 74810
L79240 74730
L79270 74510
L79320 74430
L79370 74390
L79440 74360
L79550 74360
L79630 74390
L79660 74430
L79680 74510
L79650 74730
L79610 74810
L79570 74840
L79490 74880
L79380 74880
" />
<path d="M79980 74880
L80040 74360
" />
<path d="M80020 74510
L80070 74430
L80110 74390
L80190 74360
L80260 74360
" />
</g>
<g style="fill:#840000; fill-opacity:0.0; 
stroke:#840000; stroke-width:100; stroke-opacity:1; 
stroke-linecap:round; stroke-linejoin:round;">
</g>
<g style="fill:#840000; fill-opacity:0.0; 
stroke:#840000; stroke-width:60; stroke-opacity:1; 
stroke-linecap:round; stroke-linejoin:round;">
<path d="M70420 73060
L70220 73060
" />
<path d="M70220 73370
L70220 72780
L70500 72780
" />
<path d="M70730 73370
L70730 72980
" />
<path d="M70730 72780
L70700 72810
L70730 72840
L70760 72810
L70730 72780
L70730 72840
" />
<path d="M71090 73370
L71040 73340
L71010 73290
L71010 72780
" />
<path d="M71550 73340
L71490 73370
L71380 73370
L71320 73340
L71290 73290
L71290 73060
L71320 73010
L71380 72980
L71490 72980
L71550 73010
L71570 73060
L71570 73120
L71290 73180
" />
<path d="M71830 73320
L71860 73340
L71830 73370
L71800 73340
L71830 73320
L71830 73370
" />
<path d="M71830 73010
L71860 73030
L71830 73060
L71800 73030
L71830 73010
L71830 73060
" />
<path d="M72640 73370
L72590 73340
L72560 73290
L72560 72780
" />
<path d="M72950 73370
L72900 73340
L72870 73320
L72840 73260
L72840 73090
L72870 73030
L72900 73010
L72950 72980
L73040 72980
L73100 73010
L73120 73030
L73150 73090
L73150 73260
L73120 73320
L73100 73340
L73040 73370
L72950 73370
" />
<path d="M73650 73340
L73600 73370
L73480 73370
L73430 73340
L73400 73320
L73370 73260
L73370 73090
L73400 73030
L73430 73010
L73480 72980
L73600 72980
L73650 73010
" />
<path d="M73990 73370
L73940 73340
L73910 73320
L73880 73260
L73880 73090
L73910 73030
L73940 73010
L73990 72980
L74080 72980
L74140 73010
L74160 73030
L74190 73090
L74190 73260
L74160 73320
L74140 73340
L74080 73370
L73990 73370
" />
<path d="M74440 73370
L74440 72980
" />
<path d="M74440 73030
L74470 73010
L74520 72980
L74610 72980
L74670 73010
L74690 73060
L74690 73370
" />
<path d="M74690 73060
L74720 73010
L74780 72980
L74860 72980
L74920 73010
L74950 73060
L74950 73370
" />
<path d="M75310 73370
L75260 73340
L75230 73320
L75200 73260
L75200 73090
L75230 73030
L75260 73010
L75310 72980
L75400 72980
L75460 73010
L75480 73030
L75510 73090
L75510 73260
L75480 73320
L75460 73340
L75400 73370
L75310 73370
" />
<path d="M75680 72980
L75900 72980
" />
<path d="M75760 72780
L75760 73290
L75790 73340
L75840 73370
L75900 73370
" />
<path d="M76100 73370
L76100 72980
" />
<path d="M76100 72780
L76070 72810
L76100 72840
L76130 72810
L76100 72780
L76100 72840
" />
<path d="M76320 72980
L76460 73370
L76610 72980
" />
<path d="M77060 73340
L77000 73370
L76890 73370
L76830 73340
L76800 73290
L76800 73060
L76830 73010
L76890 72980
L77000 72980
L77060 73010
L77080 73060
L77080 73120
L76800 73180
" />
<path d="M77200 73430
L77650 73430
" />
<path d="M77710 72980
L77930 72980
" />
<path d="M77790 72780
L77790 73290
L77820 73340
L77870 73370
L77930 73370
" />
<path d="M78210 73370
L78160 73340
L78130 73320
L78100 73260
L78100 73090
L78130 73030
L78160 73010
L78210 72980
L78300 72980
L78360 73010
L78380 73030
L78410 73090
L78410 73260
L78380 73320
L78360 73340
L78300 73370
L78210 73370
" />
<path d="M78580 72980
L78800 72980
" />
<path d="M78660 73370
L78660 72870
L78690 72810
L78740 72780
L78800 72780
" />
<path d="M78860 73430
L79310 73430
" />
<path d="M79420 73340
L79480 73370
L79590 73370
L79650 73340
L79680 73290
L79680 73260
L79650 73200
L79590 73180
L79510 73180
L79450 73150
L79420 73090
L79420 73060
L79450 73010
L79510 72980
L79590 72980
L79650 73010
" />
<path d="M80160 73340
L80100 73370
L79990 73370
L79930 73340
L79900 73290
L79900 73060
L79930 73010
L79990 72980
L80100 72980
L80160 73010
L80180 73060
L80180 73120
L79900 73180
" />
<path d="M80440 72980
L80440 73370
" />
<path d="M80440 73030
L80470 73010
L80520 72980
L80610 72980
L80670 73010
L80690 73060
L80690 73370
" />
<path d="M80940 73340
L81000 73370
L81110 73370
L81170 73340
L81200 73290
L81200 73260
L81170 73200
L81110 73180
L81030 73180
L80970 73150
L80940 73090
L80940 73060
L80970 73010
L81030 72980
L81110 72980
L81170 73010
" />
<path d="M81530 73370
L81480 73340
L81450 73320
L81420 73260
L81420 73090
L81450 73030
L81480 73010
L81530 72980
L81620 72980
L81680 73010
L81700 73030
L81730 73090
L81730 73260
L81700 73320
L81680 73340
L81620 73370
L81530 73370
" />
<path d="M81980 73370
L81980 72980
" />
<path d="M81980 73090
L82010 73030
L82040 73010
L82090 72980
L82150 72980
" />
<path d="M82350 73320
L82380 73340
L82350 73370
L82320 73340
L82350 73320
L82350 73370
" />
<path d="M82600 73340
L82660 73370
L82770 73370
L82830 73340
L82860 73290
L82860 73260
L82830 73200
L82770 73180
L82690 73180
L82630 73150
L82600 73090
L82600 73060
L82630 73010
L82690 72980
L82770 72980
L82830 73010
" />
<path d="M83360 73340
L83310 73370
L83190 73370
L83140 73340
L83110 73320
L83080 73260
L83080 73090
L83110 73030
L83140 73010
L83190 72980
L83310 72980
L83360 73010
" />
<path d="M83620 73370
L83620 72780
" />
<path d="M83870 73370
L83870 73060
L83850 73010
L83790 72980
L83700 72980
L83650 73010
L83620 73030
" />
</g>
<g style="fill:#840000; fill-opacity:0.0; 
stroke:#840000; stroke-width:100; stroke-opacity:1; 
stroke-linecap:round; stroke-linejoin:round;">
</g>
<g style="fill:#840000; fill-opacity:0.0; 
stroke:#840000; stroke-width:60; stroke-opacity:1; 
stroke-linecap:round; stroke-linejoin:round;">
<path d="M69690 71460
L112210 71460
" />
</g>
<g style="fill:#840000; fill-opacity:0.0; 
stroke:#840000; stroke-width:100; stroke-opacity:1; 
stroke-linecap:round; stroke-linejoin:round;">
</g>
<g style="fill:#840000; fill-opacity:0.0; 
stroke:#840000; stroke-width:60; stroke-opacity:1; 
stroke-linecap:round; stroke-linejoin:round;">
<path d="M70190 72280
L70280 72310
L70420 72310
L70470 72280
L70500 72260
L70530 72200
L70530 72140
L70500 72090
L70470 72060
L70420 72030
L70300 72000
L70250 71970
L70220 71950
L70190 71890
L70190 71830
L70220 71780
L70250 71750
L70300 71720
L70450 71720
L70530 71750
" />
<path d="M70780 72310
L70780 71720
" />
<path d="M71030 72310
L71030 72000
L71010 71950
L70950 71920
L70860 71920
L70810 71950
L70780 71970
" />
<path d="M71540 72280
L71480 72310
L71370 72310
L71310 72280
L71280 72230
L71280 72000
L71310 71950
L71370 71920
L71480 71920
L71540 71950
L71560 72000
L71560 72060
L71280 72120
" />
<path d="M72050 72280
L71990 72310
L71880 72310
L71820 72280
L71790 72230
L71790 72000
L71820 71950
L71880 71920
L71990 71920
L72050 71950
L72070 72000
L72070 72060
L71790 72120
" />
<path d="M72250 71920
L72470 71920
" />
<path d="M72330 71720
L72330 72230
L72360 72280
L72410 72310
L72470 72310
" />
<path d="M72670 72260
L72700 72280
L72670 72310
L72640 72280
L72670 72260
L72670 72310
" />
<path d="M72670 71950
L72700 71970
L72670 72000
L72640 71970
L72670 71950
L72670 72000
" />
<path d="M73820 71690
L73320 72450
" />
</g>
<g style="fill:#840000; fill-opacity:0.0; 
stroke:#840000; stroke-width:100; stroke-opacity:1; 
stroke-linecap:round; stroke-linejoin:round;">
</g>
<g style="fill:#840000; fill-opacity:0.0; 
stroke:#840000; stroke-width:120; stroke-opacity:1; 
stroke-linecap:round; stroke-linejoin:round;">
<path d="M70220 70820
L70420 70820
" />
<path d="M70500 71130
L70220 71130
L70220 70540
L70500 70540
" />
<path d="M71090 71080
L71060 71100
L70980 71130
L70920 71130
L70830 71100
L70780 71050
L70750 70990
L70720 70880
L70720 70790
L70750 70680
L70780 70630
L70830 70570
L70920 70540
L70980 70540
L71060 70570
L71090 70600
" />
<path d="M71340 70820
L71540 70820
" />
<path d="M71620 71130
L71340 71130
L71340 70540
L71620 70540
" />
<path d="M72570 70740
L72570 71130
" />
<path d="M72430 70510
L72290 70940
L72660 70940
" />
<path d="M73130 70740
L73130 71130
" />
<path d="M72990 70510
L72850 70940
L73220 70940
" />
<path d="M73720 70540
L73440 70540
L73410 70820
L73440 70790
L73500 70770
L73640 70770
L73690 70790
L73720 70820
L73750 70880
L73750 71020
L73720 71080
L73690 71100
L73640 71130
L73500 71130
L73440 71100
L73410 71080
" />
</g>
<g style="fill:#840000; fill-opacity:0.0; 
stroke:#840000; stroke-width:100; stroke-opacity:1; 
stroke-linecap:round; stroke-linejoin:round;">
</g>
<g style="fill:#840000; fill-opacity:0.0; 
stroke:#840000; stroke-width:60; stroke-opacity:1; 
stroke-linecap:round; stroke-linejoin:round;">
<path d="M77560 75400
L77560 76580
" />
</g>
<g style="fill:#840000; fill-opacity:0.0; 
stroke:#840000; stroke-width:100; stroke-opacity:1; 
stroke-linecap:round; stroke-linejoin:round;">
</g>
<g style="fill:#840000; fill-opacity:0.0; 
stroke:#840000; stroke-width:60; stroke-opacity:1; 
stroke-linecap:round; stroke-linejoin:round;">
<path d="M102760 75400
L102760 77960
" />
</g>
<g style="fill:#840000; fill-opacity:0.0; 
stroke:#840000; stroke-width:0; stroke-opacity:1; 
stroke-linecap:round; stroke-linejoin:round;">
</g>
<g style="fill:#840000; fill-opacity:0.0; 
stroke:#840000; stroke-width:60; stroke-opacity:1; 
stroke-linecap:round; stroke-linejoin:round;">
<rect x="55000" y="37000" width="10000" height="6000" rx="0" />
<path d="M55000 39000
L54000 39000
" />
</g>
<g style="fill:#008484; fill-opacity:0.0; 
stroke:#008484; stroke-width:60; stroke-opacity:1; 
stroke-linecap:round; stroke-linejoin:round;">
<path d="M55780 38750
L55730 38730
L55660 38730
L55590 38750
L55540 38800
L55520 38850
L55500 38940
L55500 39010
L55520 39110
L55540 39150
L55590 39200
L55660 39230
L55710 39230
L55780 39200
L55800 39180
L55800 39010
L55710 39010
" />
<path d="M56020 39230
L56020 38730
L56210 38730
L56260 38750
L56280 38770
L56300 38820
L56300 38890
L56280 38940
L56260 38960
L56210 38990
L56020 38990
" />
<path d="M56520 39230
L56520 38730
" />
<path d="M56850 38730
L56950 38730
L57000 38750
L57040 38800
L57070 38890
L57070 39060
L57040 39150
L57000 39200
L56950 39230
L56850 39230
L56810 39200
L56760 39150
L56740 39060
L56740 38890
L56760 38800
L56810 38750
L56850 38730
" />
<path d="M57280 39040
L57660 39040
" />
<path d="M58160 39230
L57880 39230
" />
<path d="M58020 39230
L58020 38730
L57970 38800
L57920 38850
L57880 38870
" />
</g>
<g style="fill:#840000; fill-opacity:0.0; 
stroke:#840000; stroke-width:60; stroke-opacity:1; 
stroke-linecap:round; stroke-linejoin:round;">
<path d="M54640 38880
L54360 38880
" />
<path d="M54500 38880
L54500 38380
L54450 38450
L54400 38500
L54360 38520
" />
<path d="M55000 38000
L54000 38000
" />
</g>
<g style="fill:#008484; fill-opacity:0.0; 
stroke:#008484; stroke-width:60; stroke-opacity:1; 
stroke-linecap:round; stroke-linejoin:round;">
<path d="M55780 37750
L55730 37730
L55660 37730
L55590 37750
L55540 37800
L55520 37850
L55500 37940
L55500 38010
L55520 38110
L55540 38150
L55590 38200
L55660 38230
L55710 38230
L55780 38200
L55800 38180
L55800 38010
L55710 38010
" />
<path d="M56020 38230
L56020 37730
L56210 37730
L56260 37750
L56280 37770
L56300 37820
L56300 37890
L56280 37940
L56260 37960
L56210 37990
L56020 37990
" />
<path d="M56520 38230
L56520 37730
" />
<path d="M56850 37730
L56950 37730
L57000 37750
L57040 37800
L57070 37890
L57070 38060
L57040 38150
L57000 38200
L56950 38230
L56850 38230
L56810 38200
L56760 38150
L56740 38060
L56740 37890
L56760 37800
L56810 37750
L56850 37730
" />
<path d="M57280 38040
L57660 38040
" />
<path d="M57990 37730
L58040 37730
L58090 37750
L58110 37770
L58140 37820
L58160 37920
L58160 38040
L58140 38130
L58110 38180
L58090 38200
L58040 38230
L57990 38230
L57950 38200
L57920 38180
L57900 38130
L57880 38040
L57880 37920
L57900 37820
L57920 37770
L57950 37750
L57990 37730
" />
</g>
<g style="fill:#840000; fill-opacity:0.0; 
stroke:#840000; stroke-width:60; stroke-opacity:1; 
stroke-linecap:round; stroke-linejoin:round;">
<path d="M54590 37540
L54590 37880
" />
<path d="M54470 37350
L54360 37710
L54660 37710
" />
<path d="M55000 42000
L54000 42000
" />
</g>
<g style="fill:#008484; fill-opacity:0.0; 
stroke:#008484; stroke-width:60; stroke-opacity:1; 
stroke-linecap:round; stroke-linejoin:round;">
<path d="M55500 42200
L55570 42230
L55690 42230
L55730 42200
L55760 42180
L55780 42130
L55780 42080
L55760 42040
L55730 42010
L55690 41990
L55590 41960
L55540 41940
L55520 41920
L55500 41870
L55500 41820
L55520 41770
L55540 41750
L55590 41730
L55710 41730
L55780 41750
" />
<path d="M56280 42180
L56260 42200
L56190 42230
L56140 42230
L56070 42200
L56020 42150
L56000 42110
L55980 42010
L55980 41940
L56000 41850
L56020 41800
L56070 41750
L56140 41730
L56190 41730
L56260 41750
L56280 41770
" />
<path d="M56740 42230
L56500 42230
L56500 41730
" />
</g>
<g style="fill:#840000; fill-opacity:0.0; 
stroke:#840000; stroke-width:60; stroke-opacity:1; 
stroke-linecap:round; stroke-linejoin:round;">
<path d="M54620 41380
L54380 41380
L54360 41610
L54380 41590
L54430 41570
L54550 41570
L54590 41590
L54620 41610
L54640 41660
L54640 41780
L54620 41830
L54590 41850
L54550 41880
L54430 41880
L54380 41850
L54360 41830
" />
<path d="M55000 41000
L54000 41000
" />
</g>
<g style="fill:#008484; fill-opacity:0.0; 
stroke:#008484; stroke-width:60; stroke-opacity:1; 
stroke-linecap:round; stroke-linejoin:round;">
<path d="M55500 41200
L55570 41230
L55690 41230
L55730 41200
L55760 41180
L55780 41130
L55780 41080
L55760 41040
L55730 41010
L55690 40990
L55590 40960
L55540 40940
L55520 40920
L55500 40870
L55500 40820
L55520 40770
L55540 40750
L55590 40730
L55710 40730
L55780 40750
" />
<path d="M56000 41230
L56000 40730
L56120 40730
L56190 40750
L56240 40800
L56260 40850
L56280 40940
L56280 41010
L56260 41110
L56240 41150
L56190 41200
L56120 41230
L56000 41230
" />
<path d="M56480 41080
L56710 41080
" />
<path d="M56430 41230
L56590 40730
L56760 41230
" />
</g>
<g style="fill:#840000; fill-opacity:0.0; 
stroke:#840000; stroke-width:60; stroke-opacity:1; 
stroke-linecap:round; stroke-linejoin:round;">
<path d="M54590 40380
L54500 40380
L54450 40400
L54430 40420
L54380 40500
L54360 40590
L54360 40780
L54380 40830
L54400 40850
L54450 40880
L54550 40880
L54590 40850
L54620 40830
L54640 40780
L54640 40660
L54620 40610
L54590 40590
L54550 40570
L54450 40570
L54400 40590
L54380 40610
L54360 40660
" />
<path d="M65000 39000
L66000 39000
" />
</g>
<g style="fill:#008484; fill-opacity:0.0; 
stroke:#008484; stroke-width:60; stroke-opacity:1; 
stroke-linecap:round; stroke-linejoin:round;">
<path d="M60200 39080
L60430 39080
" />
<path d="M60150 39230
L60310 38730
L60480 39230
" />
<path d="M60580 38730
L60740 39230
L60910 38730
" />
<path d="M61080 39230
L61080 38730
L61200 38730
L61270 38750
L61320 38800
L61340 38850
L61360 38940
L61360 39010
L61340 39110
L61320 39150
L61270 39200
L61200 39230
L61080 39230
" />
<path d="M61580 39230
L61580 38730
L61700 38730
L61770 38750
L61820 38800
L61840 38850
L61860 38940
L61860 39010
L61840 39110
L61820 39150
L61770 39200
L61700 39230
L61580 39230
" />
<path d="M61960 39270
L62340 39270
" />
<path d="M62390 38730
L62550 39230
L62720 38730
" />
<path d="M63170 39180
L63150 39200
L63080 39230
L63030 39230
L62960 39200
L62910 39150
L62890 39110
L62870 39010
L62870 38940
L62890 38850
L62910 38800
L62960 38750
L63030 38730
L63080 38730
L63150 38750
L63170 38770
" />
<path d="M63370 39200
L63440 39230
L63560 39230
L63600 39200
L63630 39180
L63650 39130
L63650 39080
L63630 39040
L63600 39010
L63560 38990
L63460 38960
L63410 38940
L63390 38920
L63370 38870
L63370 38820
L63390 38770
L63410 38750
L63460 38730
L63580 38730
L63650 38750
" />
<path d="M63870 38960
L64040 38960
" />
<path d="M64110 39230
L63870 39230
L63870 38730
L64110 38730
" />
<path d="M64560 39230
L64320 39230
L64320 38730
" />
</g>
<g style="fill:#840000; fill-opacity:0.0; 
stroke:#840000; stroke-width:60; stroke-opacity:1; 
stroke-linecap:round; stroke-linejoin:round;">
<path d="M65450 38590
L65400 38570
L65380 38540
L65360 38500
L65360 38470
L65380 38420
L65400 38400
L65450 38380
L65550 38380
L65590 38400
L65620 38420
L65640 38470
L65640 38500
L65620 38540
L65590 38570
L65550 38590
L65450 38590
L65400 38610
L65380 38640
L65360 38690
L65360 38780
L65380 38830
L65400 38850
L65450 38880
L65550 38880
L65590 38850
L65620 38830
L65640 38780
L65640 38690
L65620 38640
L65590 38610
L65550 38590
" />
<path d="M65000 42000
L66000 42000
" />
</g>
<g style="fill:#008484; fill-opacity:0.0; 
stroke:#008484; stroke-width:60; stroke-opacity:1; 
stroke-linecap:round; stroke-linejoin:round;">
<path d="M60240 42080
L60470 42080
" />
<path d="M60190 42230
L60350 41730
L60520 42230
" />
<path d="M60620 41730
L60780 42230
L60950 41730
" />
<path d="M61100 42200
L61170 42230
L61290 42230
L61330 42200
L61360 42180
L61380 42130
L61380 42080
L61360 42040
L61330 42010
L61290 41990
L61190 41960
L61140 41940
L61120 41920
L61100 41870
L61100 41820
L61120 41770
L61140 41750
L61190 41730
L61310 41730
L61380 41750
" />
<path d="M61580 42200
L61650 42230
L61770 42230
L61810 42200
L61840 42180
L61860 42130
L61860 42080
L61840 42040
L61810 42010
L61770 41990
L61670 41960
L61620 41940
L61600 41920
L61580 41870
L61580 41820
L61600 41770
L61620 41750
L61670 41730
L61790 41730
L61860 41750
" />
<path d="M61960 42270
L62340 42270
" />
<path d="M62390 41730
L62550 42230
L62720 41730
" />
<path d="M63170 42180
L63150 42200
L63080 42230
L63030 42230
L62960 42200
L62910 42150
L62890 42110
L62870 42010
L62870 41940
L62890 41850
L62910 41800
L62960 41750
L63030 41730
L63080 41730
L63150 41750
L63170 41770
" />
<path d="M63370 42200
L63440 42230
L63560 42230
L63600 42200
L63630 42180
L63650 42130
L63650 42080
L63630 42040
L63600 42010
L63560 41990
L63460 41960
L63410 41940
L63390 41920
L63370 41870
L63370 41820
L63390 41770
L63410 41750
L63460 41730
L63580 41730
L63650 41750
" />
<path d="M63870 41960
L64040 41960
" />
<path d="M64110 42230
L63870 42230
L63870 41730
L64110 41730
" />
<path d="M64560 42230
L64320 42230
L64320 41730
" />
</g>
<g style="fill:#840000; fill-opacity:0.0; 
stroke:#840000; stroke-width:60; stroke-opacity:1; 
stroke-linecap:round; stroke-linejoin:round;">
<path d="M65400 41880
L65500 41880
L65550 41850
L65570 41830
L65620 41760
L65640 41660
L65640 41470
L65620 41420
L65590 41400
L65550 41380
L65450 41380
L65400 41400
L65380 41420
L65360 41470
L65360 41590
L65380 41640
L65400 41660
L65450 41690
L65550 41690
L65590 41660
L65620 41640
L65640 41590
" />
<path d="M65000 38000
L66000 38000
" />
</g>
<g style="fill:#008484; fill-opacity:0.0; 
stroke:#008484; stroke-width:60; stroke-opacity:1; 
stroke-linecap:round; stroke-linejoin:round;">
<path d="M62840 38080
L63070 38080
" />
<path d="M62790 38230
L62950 37730
L63120 38230
" />
<path d="M63220 37730
L63380 38230
L63550 37730
" />
<path d="M63720 38230
L63720 37730
L63840 37730
L63910 37750
L63960 37800
L63980 37850
L64000 37940
L64000 38010
L63980 38110
L63960 38150
L63910 38200
L63840 38230
L63720 38230
" />
<path d="M64220 38230
L64220 37730
L64340 37730
L64410 37750
L64460 37800
L64480 37850
L64500 37940
L64500 38010
L64480 38110
L64460 38150
L64410 38200
L64340 38230
L64220 38230
" />
</g>
<g style="fill:#840000; fill-opacity:0.0; 
stroke:#840000; stroke-width:60; stroke-opacity:1; 
stroke-linecap:round; stroke-linejoin:round;">
<path d="M65400 37880
L65120 37880
" />
<path d="M65260 37880
L65260 37380
L65210 37450
L65160 37500
L65120 37520
" />
<path d="M65710 37380
L65760 37380
L65810 37400
L65830 37420
L65860 37470
L65880 37570
L65880 37690
L65860 37780
L65830 37830
L65810 37850
L65760 37880
L65710 37880
L65670 37850
L65640 37830
L65620 37780
L65600 37690
L65600 37570
L65620 37470
L65640 37420
L65670 37400
L65710 37380
" />
<path d="M65000 41000
L66000 41000
" />
</g>
<g style="fill:#008484; fill-opacity:0.0; 
stroke:#008484; stroke-width:60; stroke-opacity:1; 
stroke-linecap:round; stroke-linejoin:round;">
<path d="M62880 41080
L63110 41080
" />
<path d="M62830 41230
L62990 40730
L63160 41230
" />
<path d="M63260 40730
L63420 41230
L63590 40730
" />
<path d="M63740 41200
L63810 41230
L63930 41230
L63970 41200
L64000 41180
L64020 41130
L64020 41080
L64000 41040
L63970 41010
L63930 40990
L63830 40960
L63780 40940
L63760 40920
L63740 40870
L63740 40820
L63760 40770
L63780 40750
L63830 40730
L63950 40730
L64020 40750
" />
<path d="M64220 41200
L64290 41230
L64410 41230
L64450 41200
L64480 41180
L64500 41130
L64500 41080
L64480 41040
L64450 41010
L64410 40990
L64310 40960
L64260 40940
L64240 40920
L64220 40870
L64220 40820
L64240 40770
L64260 40750
L64310 40730
L64430 40730
L64500 40750
" />
</g>
<g style="fill:#840000; fill-opacity:0.0; 
stroke:#840000; stroke-width:60; stroke-opacity:1; 
stroke-linecap:round; stroke-linejoin:round;">
<path d="M65400 40880
L65120 40880
" />
<path d="M65260 40880
L65260 40380
L65210 40450
L65160 40500
L65120 40520
" />
<path d="M65600 40420
L65620 40400
L65670 40380
L65790 40380
L65830 40400
L65860 40420
L65880 40470
L65880 40520
L65860 40590
L65570 40880
L65880 40880
" />
</g>
<g style="fill:#008484; fill-opacity:0.0; 
stroke:#008484; stroke-width:60; stroke-opacity:1; 
stroke-linecap:round; stroke-linejoin:round;">
<path d="M55040 36210
L55040 36700
L55070 36750
L55100 36780
L55160 36810
L55270 36810
L55330 36780
L55360 36750
L55390 36700
L55390 36210
" />
<path d="M55990 36810
L55640 36810
" />
<path d="M55820 36810
L55820 36210
L55760 36300
L55700 36350
L55640 36380
" />
<path d="M61140 36210
L61340 36810
L61540 36210
" />
<path d="M62020 36810
L61730 36810
L61730 36210
" />
<path d="M62480 36210
L62370 36210
L62310 36240
L62280 36270
L62220 36350
L62190 36470
L62190 36700
L62220 36750
L62250 36780
L62310 36810
L62420 36810
L62480 36780
L62510 36750
L62540 36700
L62540 36550
L62510 36500
L62480 36470
L62420 36440
L62310 36440
L62250 36470
L62220 36500
L62190 36550
" />
<path d="M63110 36810
L62760 36810
" />
<path d="M62940 36810
L62940 36210
L62880 36300
L62820 36350
L62760 36380
" />
<path d="M63450 36470
L63390 36440
L63360 36410
L63330 36350
L63330 36330
L63360 36270
L63390 36240
L63450 36210
L63560 36210
L63620 36240
L63650 36270
L63680 36330
L63680 36350
L63650 36410
L63620 36440
L63560 36470
L63450 36470
L63390 36500
L63360 36530
L63330 36580
L63330 36700
L63360 36750
L63390 36780
L63450 36810
L63560 36810
L63620 36780
L63650 36750
L63680 36700
L63680 36580
L63650 36530
L63620 36500
L63560 36470
" />
<path d="M64050 36210
L64100 36210
L64160 36240
L64190 36270
L64220 36330
L64250 36440
L64250 36580
L64220 36700
L64190 36750
L64160 36780
L64100 36810
L64050 36810
L63990 36780
L63960 36750
L63930 36700
L63900 36580
L63900 36440
L63930 36330
L63960 36270
L63990 36240
L64050 36210
" />
<path d="M64450 36210
L64850 36810
" />
<path d="M64850 36210
L64450 36810
" />
</g>
<g style="fill:#008484; fill-opacity:0.0; 
stroke:#008484; stroke-width:0; stroke-opacity:1; 
stroke-linecap:round; stroke-linejoin:round;">
</g>
<g style="fill:#840000; fill-opacity:0.0; 
stroke:#840000; stroke-width:0; stroke-opacity:1; 
stroke-linecap:round; stroke-linejoin:round;">
</g>
<g style="fill:#840000; fill-opacity:0.0; 
stroke:#840000; stroke-width:80; stroke-opacity:1; 
stroke-linecap:round; stroke-linejoin:round;">
<rect x="52700" y="35300" width="600" height="1400" rx="0" />
</g>
<g style="fill:#840000; fill-opacity:0.0; 
stroke:#840000; stroke-width:60; stroke-opacity:1; 
stroke-linecap:round; stroke-linejoin:round;">
<path d="M53000 35300
L53000 35000
" />
<path d="M53000 36700
L53000 37000
" />
</g>
<g style="fill:#008484; fill-opacity:0.0; 
stroke:#008484; stroke-width:60; stroke-opacity:1; 
stroke-linecap:round; stroke-linejoin:round;">
<path d="M53700 36060
L53540 35820
" />
<path d="M53420 36060
L53420 35560
L53610 35560
L53660 35580
L53680 35600
L53700 35650
L53700 35720
L53680 35770
L53660 35790
L53610 35820
L53420 35820
" />
<path d="M54180 36060
L53900 36060
" />
<path d="M54040 36060
L54040 35560
L53990 35630
L53940 35680
L53900 35700
" />
<path d="M53630 36320
L53630 36660
" />
<path d="M53510 36130
L53400 36490
L53700 36490
" />
<path d="M53850 36160
L54180 36160
L53970 36660
" />
<path d="M54380 36660
L54380 36160
" />
<path d="M54430 36470
L54570 36660
" />
<path d="M54570 36320
L54380 36510
" />
</g>
<g style="fill:#008484; fill-opacity:0.0; 
stroke:#008484; stroke-width:0; stroke-opacity:1; 
stroke-linecap:round; stroke-linejoin:round;">
</g>
<g style="fill:#840000; fill-opacity:0.0; 
stroke:#840000; stroke-width:0; stroke-opacity:1; 
stroke-linecap:round; stroke-linejoin:round;">
</g>
<g style="fill:#840000; fill-opacity:0.0; 
stroke:#840000; stroke-width:80; stroke-opacity:1; 
stroke-linecap:round; stroke-linejoin:round;">
<rect x="50700" y="35300" width="600" height="1400" rx="0" />
</g>
<g style="fill:#840000; fill-opacity:0.0; 
stroke:#840000; stroke-width:60; stroke-opacity:1; 
stroke-linecap:round; stroke-linejoin:round;">
<path d="M51000 35300
L51000 35000
" />
<path d="M51000 36700
L51000 37000
" />
</g>
<g style="fill:#008484; fill-opacity:0.0; 
stroke:#008484; stroke-width:60; stroke-opacity:1; 
stroke-linecap:round; stroke-linejoin:round;">
<path d="M51700 36060
L51540 35820
" />
<path d="M51420 36060
L51420 35560
L51610 35560
L51660 35580
L51680 35600
L51700 35650
L51700 35720
L51680 35770
L51660 35790
L51610 35820
L51420 35820
" />
<path d="M51900 35600
L51920 35580
L51970 35560
L52090 35560
L52130 35580
L52160 35600
L52180 35650
L52180 35700
L52160 35770
L51870 36060
L52180 36060
" />
<path d="M51630 36320
L51630 36660
" />
<path d="M51510 36130
L51400 36490
L51700 36490
" />
<path d="M51850 36160
L52180 36160
L51970 36660
" />
<path d="M52380 36660
L52380 36160
" />
<path d="M52430 36470
L52570 36660
" />
<path d="M52570 36320
L52380 36510
" />
</g>
<g style="fill:#008484; fill-opacity:0.0; 
stroke:#008484; stroke-width:0; stroke-opacity:1; 
stroke-linecap:round; stroke-linejoin:round;">
</g>
<g style="fill:#840000; fill-opacity:0.0; 
stroke:#840000; stroke-width:0; stroke-opacity:1; 
stroke-linecap:round; stroke-linejoin:round;">
</g>
<g style="fill:#840000; fill-opacity:0.0; 
stroke:#840000; stroke-width:60; stroke-opacity:1; 
stroke-linecap:round; stroke-linejoin:round;">
<polyline fill="none;"
points="51700,32500
52000,32000
" /> 
<polyline fill="none;"
points="52000,33000
52000,32000
" /> 
<polyline fill="none;"
points="52000,32000
52300,32500
" /> 
</g>
<g style="fill:#008484; fill-opacity:0.0; 
stroke:#008484; stroke-width:60; stroke-opacity:1; 
stroke-linecap:round; stroke-linejoin:round;">
<path d="M51120 31670
L51500 31670
" />
<path d="M51310 31860
L51310 31480
" />
<path d="M51720 31400
L51740 31380
L51790 31360
L51910 31360
L51950 31380
L51980 31400
L52000 31450
L52000 31500
L51980 31570
L51690 31860
L52000 31860
" />
<path d="M52150 31360
L52310 31860
L52480 31360
" />
<path d="M52720 31570
L52670 31550
L52650 31520
L52630 31480
L52630 31450
L52650 31400
L52670 31380
L52720 31360
L52820 31360
L52860 31380
L52890 31400
L52910 31450
L52910 31480
L52890 31520
L52860 31550
L52820 31570
L52720 31570
L52670 31590
L52650 31620
L52630 31670
L52630 31760
L52650 31810
L52670 31830
L52720 31860
L52820 31860
L52860 31830
L52890 31810
L52910 31760
L52910 31670
L52890 31620
L52860 31590
L52820 31570
" />
</g>
<g style="fill:#008484; fill-opacity:0.0; 
stroke:#008484; stroke-width:0; stroke-opacity:1; 
stroke-linecap:round; stroke-linejoin:round;">
</g>
<g style="fill:#840000; fill-opacity:0.0; 
stroke:#840000; stroke-width:0; stroke-opacity:1; 
stroke-linecap:round; stroke-linejoin:round;">
</g>
<g style="fill:#840000; fill-opacity:0.0; 
stroke:#840000; stroke-width:130; stroke-opacity:1; 
stroke-linecap:round; stroke-linejoin:round;">
<polyline fill="none;"
points="67400,40200
68600,40200
" /> 
</g>
<g style="fill:#840000; fill-opacity:0.0; 
stroke:#840000; stroke-width:120; stroke-opacity:1; 
stroke-linecap:round; stroke-linejoin:round;">
<polyline fill="none;"
points="67400,39800
68600,39800
" /> 
</g>
<g style="fill:#840000; fill-opacity:0.0; 
stroke:#840000; stroke-width:60; stroke-opacity:1; 
stroke-linecap:round; stroke-linejoin:round;">
<path d="M68000 39800
L68000 39000
" />
<path d="M68000 40200
L68000 41000
" />
</g>
<g style="fill:#008484; fill-opacity:0.0; 
stroke:#008484; stroke-width:60; stroke-opacity:1; 
stroke-linecap:round; stroke-linejoin:round;">
<path d="M68500 39510
L68480 39530
L68410 39560
L68360 39560
L68290 39530
L68240 39480
L68220 39440
L68200 39340
L68200 39270
L68220 39180
L68240 39130
L68290 39080
L68360 39060
L68410 39060
L68480 39080
L68500 39100
" />
<path d="M68700 39100
L68720 39080
L68770 39060
L68890 39060
L68930 39080
L68960 39100
L68980 39150
L68980 39200
L68960 39270
L68670 39560
L68980 39560
" />
<path d="M68430 40720
L68430 41060
" />
<path d="M68310 40530
L68200 40890
L68500 40890
" />
<path d="M68910 40720
L68910 41060
" />
<path d="M68700 40720
L68700 40980
L68720 41030
L68770 41060
L68840 41060
L68890 41030
L68910 41010
" />
<path d="M69100 40560
L69430 40560
L69220 41060
" />
</g>
<g style="fill:#008484; fill-opacity:0.0; 
stroke:#008484; stroke-width:0; stroke-opacity:1; 
stroke-linecap:round; stroke-linejoin:round;">
</g>
<g style="fill:#840000; fill-opacity:0.0; 
stroke:#840000; stroke-width:0; stroke-opacity:1; 
stroke-linecap:round; stroke-linejoin:round;">
</g>
<g style="fill:#840000; fill-opacity:0.0; 
stroke:#840000; stroke-width:130; stroke-opacity:1; 
stroke-linecap:round; stroke-linejoin:round;">
<polyline fill="none;"
points="69400,40200
70600,40200
" /> 
</g>
<g style="fill:#840000; fill-opacity:0.0; 
stroke:#840000; stroke-width:120; stroke-opacity:1; 
stroke-linecap:round; stroke-linejoin:round;">
<polyline fill="none;"
points="69400,39800
70600,39800
" /> 
</g>
<g style="fill:#840000; fill-opacity:0.0; 
stroke:#840000; stroke-width:60; stroke-opacity:1; 
stroke-linecap:round; stroke-linejoin:round;">
<path d="M70000 39800
L70000 39000
" />
<path d="M70000 40200
L70000 41000
" />
</g>
<g style="fill:#008484; fill-opacity:0.0; 
stroke:#008484; stroke-width:60; stroke-opacity:1; 
stroke-linecap:round; stroke-linejoin:round;">
<path d="M70500 39510
L70480 39530
L70410 39560
L70360 39560
L70290 39530
L70240 39480
L70220 39440
L70200 39340
L70200 39270
L70220 39180
L70240 39130
L70290 39080
L70360 39060
L70410 39060
L70480 39080
L70500 39100
" />
<path d="M70980 39560
L70700 39560
" />
<path d="M70840 39560
L70840 39060
L70790 39130
L70740 39180
L70700 39200
" />
<path d="M70480 41060
L70200 41060
" />
<path d="M70340 41060
L70340 40560
L70290 40630
L70240 40680
L70200 40700
" />
<path d="M70790 40560
L70840 40560
L70890 40580
L70910 40600
L70940 40650
L70960 40750
L70960 40870
L70940 40960
L70910 41010
L70890 41030
L70840 41060
L70790 41060
L70750 41030
L70720 41010
L70700 40960
L70680 40870
L70680 40750
L70700 40650
L70720 40600
L70750 40580
L70790 40560
" />
<path d="M71270 40560
L71320 40560
L71370 40580
L71390 40600
L71420 40650
L71440 40750
L71440 40870
L71420 40960
L71390 41010
L71370 41030
L71320 41060
L71270 41060
L71230 41030
L71200 41010
L71180 40960
L71160 40870
L71160 40750
L71180 40650
L71200 40600
L71230 40580
L71270 40560
" />
<path d="M71660 40720
L71660 41060
" />
<path d="M71660 40770
L71680 40750
L71730 40720
L71800 40720
L71850 40750
L71870 40790
L71870 41060
" />
</g>
<g style="fill:#008484; fill-opacity:0.0; 
stroke:#008484; stroke-width:0; stroke-opacity:1; 
stroke-linecap:round; stroke-linejoin:round;">
</g>
<g style="fill:#840000; fill-opacity:0.0; 
stroke:#840000; stroke-width:0; stroke-opacity:1; 
stroke-linecap:round; stroke-linejoin:round;">
</g>
<g style="fill:#840000; fill-opacity:0.0; 
stroke:#840000; stroke-width:60; stroke-opacity:1; 
stroke-linecap:round; stroke-linejoin:round;">
<polyline fill="none;"
points="67000,43000
67000,43500
67500,43500
67000,44000
66500,43500
67000,43500
" /> 
</g>
<g style="fill:#008484; fill-opacity:0.0; 
stroke:#008484; stroke-width:60; stroke-opacity:1; 
stroke-linecap:round; stroke-linejoin:round;">
<path d="M66620 44280
L66570 44260
L66500 44260
L66430 44280
L66380 44330
L66360 44380
L66340 44470
L66340 44540
L66360 44640
L66380 44680
L66430 44730
L66500 44760
L66550 44760
L66620 44730
L66640 44710
L66640 44540
L66550 44540
" />
<path d="M66860 44760
L66860 44260
L67140 44760
L67140 44260
" />
<path d="M67380 44760
L67380 44260
L67500 44260
L67570 44280
L67620 44330
L67640 44380
L67660 44470
L67660 44540
L67640 44640
L67620 44680
L67570 44730
L67500 44760
L67380 44760
" />
</g>
<g style="fill:#008484; fill-opacity:0.0; 
stroke:#008484; stroke-width:0; stroke-opacity:1; 
stroke-linecap:round; stroke-linejoin:round;">
</g>
<g style="fill:#840000; fill-opacity:0.0; 
stroke:#840000; stroke-width:0; stroke-opacity:1; 
stroke-linecap:round; stroke-linejoin:round;">
</g>
<g style="fill:#840000; fill-opacity:0.0; 
stroke:#840000; stroke-width:60; stroke-opacity:1; 
stroke-linecap:round; stroke-linejoin:round;">
<polyline fill="none;"
points="66700,36500
67000,36000
" /> 
<polyline fill="none;"
points="67000,37000
67000,36000
" /> 
<polyline fill="none;"
points="67000,36000
67300,36500
" /> 
</g>
<g style="fill:#008484; fill-opacity:0.0; 
stroke:#008484; stroke-width:60; stroke-opacity:1; 
stroke-linecap:round; stroke-linejoin:round;">
<path d="M66120 35670
L66500 35670
" />
<path d="M66310 35860
L66310 35480
" />
<path d="M66720 35400
L66740 35380
L66790 35360
L66910 35360
L66950 35380
L66980 35400
L67000 35450
L67000 35500
L66980 35570
L66690 35860
L67000 35860
" />
<path d="M67150 35360
L67310 35860
L67480 35360
" />
<path d="M67720 35570
L67670 35550
L67650 35520
L67630 35480
L67630 35450
L67650 35400
L67670 35380
L67720 35360
L67820 35360
L67860 35380
L67890 35400
L67910 35450
L67910 35480
L67890 35520
L67860 35550
L67820 35570
L67720 35570
L67670 35590
L67650 35620
L67630 35670
L67630 35760
L67650 35810
L67670 35830
L67720 35860
L67820 35860
L67860 35830
L67890 35810
L67910 35760
L67910 35670
L67890 35620
L67860 35590
L67820 35570
" />
</g>
<g style="fill:#008484; fill-opacity:0.0; 
stroke:#008484; stroke-width:0; stroke-opacity:1; 
stroke-linecap:round; stroke-linejoin:round;">
</g>
<g style="fill:#840000; fill-opacity:0.0; 
stroke:#840000; stroke-width:0; stroke-opacity:1; 
stroke-linecap:round; stroke-linejoin:round;">
</g>
<g style="fill:#840000; fill-opacity:0.0; 
stroke:#840000; stroke-width:60; stroke-opacity:1; 
stroke-linecap:round; stroke-linejoin:round;">
<rect x="55500" y="50950" width="600" height="100" rx="0" />
<rect x="55500" y="49950" width="600" height="100" rx="0" />
<rect x="55500" y="48950" width="600" height="100" rx="0" />
<rect x="55500" y="47950" width="600" height="100" rx="0" />
<rect x="55500" y="47500" width="1000" height="4000" rx="0" />
<path d="M55500 48000
L54000 48000
" />
<path d="M54890 47880
L54610 47880
" />
<path d="M54750 47880
L54750 47380
L54700 47450
L54650 47500
L54610 47520
" />
<path d="M55500 49000
L54000 49000
" />
<path d="M54610 48420
L54630 48400
L54680 48380
L54800 48380
L54840 48400
L54870 48420
L54890 48470
L54890 48520
L54870 48590
L54580 48880
L54890 48880
" />
<path d="M55500 50000
L54000 50000
" />
<path d="M54580 49380
L54890 49380
L54720 49570
L54800 49570
L54840 49590
L54870 49610
L54890 49660
L54890 49780
L54870 49830
L54840 49850
L54800 49880
L54650 49880
L54610 49850
L54580 49830
" />
<path d="M55500 51000
L54000 51000
" />
<path d="M54840 50540
L54840 50880
" />
<path d="M54720 50350
L54610 50710
L54910 50710
" />
</g>
<g style="fill:#008484; fill-opacity:0.0; 
stroke:#008484; stroke-width:60; stroke-opacity:1; 
stroke-linecap:round; stroke-linejoin:round;">
<path d="M55830 46760
L55830 47110
L55810 47180
L55760 47230
L55690 47260
L55640 47260
" />
<path d="M56330 47260
L56050 47260
" />
<path d="M56190 47260
L56190 46760
L56140 46830
L56090 46880
L56050 46900
" />
<path d="M56760 50100
L56760 49820
" />
<path d="M57260 49960
L56760 49960
" />
<path d="M56760 49560
L56760 49460
L56780 49410
L56830 49370
L56920 49340
L57090 49340
L57180 49370
L57230 49410
L57260 49460
L57260 49560
L57230 49600
L57180 49650
L57090 49670
L56920 49670
L56830 49650
L56780 49600
L56760 49560
" />
<path d="M56990 48960
L56990 49130
" />
<path d="M57260 49130
L56760 49130
L56760 48890
" />
</g>
<g style="fill:#008484; fill-opacity:0.0; 
stroke:#008484; stroke-width:0; stroke-opacity:1; 
stroke-linecap:round; stroke-linejoin:round;">
</g>
<g style="fill:#840000; fill-opacity:0.0; 
stroke:#840000; stroke-width:0; stroke-opacity:1; 
stroke-linecap:round; stroke-linejoin:round;">
</g>
<g style="fill:#840000; fill-opacity:0.0; 
stroke:#840000; stroke-width:60; stroke-opacity:1; 
stroke-linecap:round; stroke-linejoin:round;">
<polyline fill="none;"
points="52700,47000
53000,46500
" /> 
<polyline fill="none;"
points="53000,47500
53000,46500
" /> 
<polyline fill="none;"
points="53000,46500
53300,47000
" /> 
</g>
<g style="fill:#008484; fill-opacity:0.0; 
stroke:#008484; stroke-width:60; stroke-opacity:1; 
stroke-linecap:round; stroke-linejoin:round;">
<path d="M52120 46170
L52500 46170
" />
<path d="M52310 46360
L52310 45980
" />
<path d="M52720 45900
L52740 45880
L52790 45860
L52910 45860
L52950 45880
L52980 45900
L53000 45950
L53000 46000
L52980 46070
L52690 46360
L53000 46360
" />
<path d="M53150 45860
L53310 46360
L53480 45860
" />
<path d="M53720 46070
L53670 46050
L53650 46020
L53630 45980
L53630 45950
L53650 45900
L53670 45880
L53720 45860
L53820 45860
L53860 45880
L53890 45900
L53910 45950
L53910 45980
L53890 46020
L53860 46050
L53820 46070
L53720 46070
L53670 46090
L53650 46120
L53630 46170
L53630 46260
L53650 46310
L53670 46330
L53720 46360
L53820 46360
L53860 46330
L53890 46310
L53910 46260
L53910 46170
L53890 46120
L53860 46090
L53820 46070
" />
</g>
<g style="fill:#008484; fill-opacity:0.0; 
stroke:#008484; stroke-width:0; stroke-opacity:1; 
stroke-linecap:round; stroke-linejoin:round;">
</g>
<g style="fill:#840000; fill-opacity:0.0; 
stroke:#840000; stroke-width:0; stroke-opacity:1; 
stroke-linecap:round; stroke-linejoin:round;">
</g>
<g style="fill:#840000; fill-opacity:0.0; 
stroke:#840000; stroke-width:60; stroke-opacity:1; 
stroke-linecap:round; stroke-linejoin:round;">
<polyline fill="none;"
points="53000,52000
53000,52500
53500,52500
53000,53000
52500,52500
53000,52500
" /> 
</g>
<g style="fill:#008484; fill-opacity:0.0; 
stroke:#008484; stroke-width:60; stroke-opacity:1; 
stroke-linecap:round; stroke-linejoin:round;">
<path d="M52620 53280
L52570 53260
L52500 53260
L52430 53280
L52380 53330
L52360 53380
L52340 53470
L52340 53540
L52360 53640
L52380 53680
L52430 53730
L52500 53760
L52550 53760
L52620 53730
L52640 53710
L52640 53540
L52550 53540
" />
<path d="M52860 53760
L52860 53260
L53140 53760
L53140 53260
" />
<path d="M53380 53760
L53380 53260
L53500 53260
L53570 53280
L53620 53330
L53640 53380
L53660 53470
L53660 53540
L53640 53640
L53620 53680
L53570 53730
L53500 53760
L53380 53760
" />
</g>
<g style="fill:#000000; fill-opacity:0.0; 
stroke:#000000; stroke-width:60; stroke-opacity:1; 
stroke-linecap:round; stroke-linejoin:round;">
<path d="M51110 48840
L51200 48870
L51340 48870
L51400 48840
L51430 48810
L51460 48760
L51460 48700
L51430 48640
L51400 48610
L51340 48590
L51230 48560
L51170 48530
L51140 48500
L51110 48440
L51110 48390
L51140 48330
L51170 48300
L51230 48270
L51370 48270
L51460 48300
" />
<path d="M51710 48870
L51710 48270
L51860 48270
L51940 48300
L52000 48360
L52030 48410
L52060 48530
L52060 48610
L52030 48730
L52000 48790
L51940 48840
L51860 48870
L51710 48870
" />
<path d="M52280 48700
L52570 48700
" />
<path d="M52230 48870
L52430 48270
L52630 48870
" />
<path d="M51110 49840
L51200 49870
L51340 49870
L51400 49840
L51430 49810
L51460 49760
L51460 49700
L51430 49640
L51400 49610
L51340 49590
L51230 49560
L51170 49530
L51140 49500
L51110 49440
L51110 49390
L51140 49330
L51170 49300
L51230 49270
L51370 49270
L51460 49300
" />
<path d="M52060 49810
L52030 49840
L51940 49870
L51880 49870
L51800 49840
L51740 49790
L51710 49730
L51680 49610
L51680 49530
L51710 49410
L51740 49360
L51800 49300
L51880 49270
L51940 49270
L52030 49300
L52060 49330
" />
<path d="M52600 49870
L52310 49870
L52310 49270
" />
<path d="M51110 40840
L51200 40870
L51340 40870
L51400 40840
L51430 40810
L51460 40760
L51460 40700
L51430 40640
L51400 40610
L51340 40590
L51230 40560
L51170 40530
L51140 40500
L51110 40440
L51110 40390
L51140 40330
L51170 40300
L51230 40270
L51370 40270
L51460 40300
" />
<path d="M51710 40870
L51710 40270
L51860 40270
L51940 40300
L52000 40360
L52030 40410
L52060 40530
L52060 40610
L52030 40730
L52000 40790
L51940 40840
L51860 40870
L51710 40870
" />
<path d="M52280 40700
L52570 40700
" />
<path d="M52230 40870
L52430 40270
L52630 40870
" />
<path d="M51110 41840
L51200 41870
L51340 41870
L51400 41840
L51430 41810
L51460 41760
L51460 41700
L51430 41640
L51400 41610
L51340 41590
L51230 41560
L51170 41530
L51140 41500
L51110 41440
L51110 41390
L51140 41330
L51170 41300
L51230 41270
L51370 41270
L51460 41300
" />
<path d="M52060 41810
L52030 41840
L51940 41870
L51880 41870
L51800 41840
L51740 41790
L51710 41730
L51680 41610
L51680 41530
L51710 41410
L51740 41360
L51800 41300
L51880 41270
L51940 41270
L52030 41300
L52060 41330
" />
<path d="M52600 41870
L52310 41870
L52310 41270
" />
<path d="M51140 38870
L51140 38270
" />
<path d="M51430 38870
L51430 38270
L51780 38870
L51780 38270
" />
<path d="M51980 38270
L52320 38270
" />
<path d="M52150 38870
L52150 38270
" />
</g>
<g style="fill:#0000C2; fill-opacity:0.0; 
stroke:#0000C2; stroke-width:60; stroke-opacity:1; 
stroke-linecap:round; stroke-linejoin:round;">
<path d="M45390 36070
L45340 36470
" />
<path d="M45130 36070
L45090 36390
L45120 36440
L45170 36470
L45250 36470
L45320 36440
L45350 36410
" />
<path d="M45670 36070
L45620 36470
" />
<path d="M45670 36130
L45700 36100
L45760 36070
L45840 36070
L45900 36100
L45920 36160
L45880 36470
" />
<path d="M46210 36070
L46140 36670
" />
<path d="M46210 36100
L46270 36070
L46380 36070
L46440 36100
L46470 36130
L46490 36190
L46470 36360
L46430 36410
L46400 36440
L46330 36470
L46220 36470
L46170 36440
" />
<path d="M46790 36470
L46740 36440
L46710 36410
L46690 36360
L46710 36190
L46750 36130
L46780 36100
L46840 36070
L46920 36070
L46980 36100
L47010 36130
L47030 36190
L47010 36360
L46970 36410
L46940 36440
L46870 36470
L46790 36470
" />
<path d="M47290 36070
L47220 36670
" />
<path d="M47290 36100
L47350 36070
L47460 36070
L47520 36100
L47550 36130
L47570 36190
L47550 36360
L47510 36410
L47480 36440
L47410 36470
L47300 36470
L47250 36440
" />
<path d="M48090 36070
L48040 36470
" />
<path d="M47830 36070
L47790 36390
L47820 36440
L47870 36470
L47950 36470
L48020 36440
L48050 36410
" />
<path d="M48410 36470
L48360 36440
L48330 36390
L48400 35870
" />
<path d="M48890 36470
L48930 36160
L48910 36100
L48850 36070
L48740 36070
L48680 36100
" />
<path d="M48900 36440
L48830 36470
L48690 36470
L48640 36440
L48610 36390
L48620 36330
L48660 36270
L48720 36240
L48860 36240
L48930 36210
" />
<path d="M49140 36070
L49370 36070
" />
<path d="M49250 35870
L49180 36390
L49210 36440
L49260 36470
L49320 36470
" />
<path d="M49750 36440
L49680 36470
L49570 36470
L49520 36440
L49490 36390
L49520 36160
L49560 36100
L49620 36070
L49730 36070
L49790 36100
L49810 36160
L49810 36210
L49510 36270
" />
<path d="M50280 36470
L50360 35870
" />
<path d="M50290 36440
L50220 36470
L50110 36470
L50060 36440
L50030 36410
L50010 36360
L50030 36190
L50070 36130
L50100 36100
L50160 36070
L50270 36070
L50330 36100
" />
</g>
<g style="fill:#0000C2; fill-opacity:0.0; 
stroke:#0000C2; stroke-width:0; stroke-opacity:1; 
stroke-linecap:round; stroke-linejoin:round;">
</g>
<g style="fill:#840000; fill-opacity:0.0; 
stroke:#840000; stroke-width:0; stroke-opacity:1; 
stroke-linecap:round; stroke-linejoin:round;">
</g>
<g style="fill:#840000; fill-opacity:0.0; 
stroke:#840000; stroke-width:60; stroke-opacity:1; 
stroke-linecap:round; stroke-linejoin:round;">
<rect x="63500" y="47950" width="600" height="100" rx="0" />
<rect x="63500" y="47500" width="1000" height="1000" rx="0" />
<path d="M63500 48000
L62000 48000
" />
<path d="M62890 47880
L62610 47880
" />
<path d="M62750 47880
L62750 47380
L62700 47450
L62650 47500
L62610 47520
" />
</g>
<g style="fill:#008484; fill-opacity:0.0; 
stroke:#008484; stroke-width:60; stroke-opacity:1; 
stroke-linecap:round; stroke-linejoin:round;">
<path d="M63830 46760
L63830 47110
L63810 47180
L63760 47230
L63690 47260
L63640 47260
" />
<path d="M64050 46800
L64070 46780
L64120 46760
L64240 46760
L64280 46780
L64310 46800
L64330 46850
L64330 46900
L64310 46970
L64020 47260
L64330 47260
" />
<path d="M65260 48450
L64760 48450
" />
<path d="M65260 48210
L64760 48210
L65260 47930
L64760 47930
" />
<path d="M64760 47760
L64760 47480
" />
<path d="M65260 47620
L64760 47620
" />
</g>
<g style="fill:#008400; fill-opacity:0.0; 
stroke:#008400; stroke-width:60; stroke-opacity:1; 
stroke-linecap:round; stroke-linejoin:round;">
<path d="M70000 42000
L70000 41000
" />
<path d="M66000 42000
L70000 42000
" />
<path d="M70000 38000
L70000 39000
" />
<path d="M66000 38000
L70000 38000
" />
<path d="M66000 39000
L68000 39000
" />
<path d="M66000 41000
L68000 41000
" />
<path d="M51000 39000
L51000 37000
" />
<path d="M54000 39000
L51000 39000
" />
<path d="M53000 38000
L53000 37000
" />
<path d="M54000 38000
L53000 38000
" />
<path d="M67000 37000
L67000 39000
" />
</g>
<g style="fill:#008400; fill-opacity:0.0; 
stroke:#008400; stroke-width:0; stroke-opacity:1; 
stroke-linecap:round; stroke-linejoin:round;">
</g>
<g style="fill:#008400; fill-opacity:1.0; 
stroke:#008400; stroke-width:100; stroke-opacity:1; 
stroke-linecap:round; stroke-linejoin:round;">
<circle cx="67000" cy="38000" r="200" /> 
</g>
<g style="fill:#008400; fill-opacity:1.0; 
stroke:#008400; stroke-width:0; stroke-opacity:1; 
stroke-linecap:round; stroke-linejoin:round;">
</g>
<g style="fill:#008400; fill-opacity:1.0; 
stroke:#008400; stroke-width:100; stroke-opacity:1; 
stroke-linecap:round; stroke-linejoin:round;">
<circle cx="67000" cy="39000" r="200" /> 
</g>
<g style="fill:#008400; fill-opacity:1.0; 
stroke:#008400; stroke-width:60; stroke-opacity:1; 
stroke-linecap:round; stroke-linejoin:round;">
</g>
<g style="fill:#008400; fill-opacity:0.0; 
stroke:#008400; stroke-width:60; stroke-opacity:1; 
stroke-linecap:round; stroke-linejoin:round;">
<path d="M67000 41000
L67000 43000
" />
</g>
<g style="fill:#008400; fill-opacity:0.0; 
stroke:#008400; stroke-width:0; stroke-opacity:1; 
stroke-linecap:round; stroke-linejoin:round;">
</g>
<g style="fill:#008400; fill-opacity:1.0; 
stroke:#008400; stroke-width:100; stroke-opacity:1; 
stroke-linecap:round; stroke-linejoin:round;">
<circle cx="67000" cy="42000" r="200" /> 
</g>
<g style="fill:#008400; fill-opacity:1.0; 
stroke:#008400; stroke-width:0; stroke-opacity:1; 
stroke-linecap:round; stroke-linejoin:round;">
</g>
<g style="fill:#008400; fill-opacity:1.0; 
stroke:#008400; stroke-width:100; stroke-opacity:1; 
stroke-linecap:round; stroke-linejoin:round;">
<circle cx="67000" cy="41000" r="200" /> 
</g>
<g style="fill:#008400; fill-opacity:1.0; 
stroke:#008400; stroke-width:60; stroke-opacity:1; 
stroke-linecap:round; stroke-linejoin:round;">
</g>
<g style="fill:#008400; fill-opacity:0.0; 
stroke:#008400; stroke-width:60; stroke-opacity:1; 
stroke-linecap:round; stroke-linejoin:round;">
<path d="M51000 35000
L51000 34000
" />
<path d="M51000 34000
L53000 34000
" />
<path d="M53000 34000
L53000 35000
" />
<path d="M52000 34000
L52000 33000
" />
</g>
<g style="fill:#008400; fill-opacity:0.0; 
stroke:#008400; stroke-width:0; stroke-opacity:1; 
stroke-linecap:round; stroke-linejoin:round;">
</g>
<g style="fill:#008400; fill-opacity:1.0; 
stroke:#008400; stroke-width:100; stroke-opacity:1; 
stroke-linecap:round; stroke-linejoin:round;">
<circle cx="52000" cy="34000" r="200" /> 
</g>
<g style="fill:#008400; fill-opacity:1.0; 
stroke:#008400; stroke-width:60; stroke-opacity:1; 
stroke-linecap:round; stroke-linejoin:round;">
</g>
<g style="fill:#008400; fill-opacity:0.0; 
stroke:#008400; stroke-width:60; stroke-opacity:1; 
stroke-linecap:round; stroke-linejoin:round;">
<path d="M54000 51000
L53000 51000
" />
<path d="M53000 51000
L53000 52000
" />
<path d="M54000 48000
L53000 48000
" />
<path d="M53000 48000
L53000 47500
" />
<path d="M54000 49000
L51000 49000
" />
<path d="M54000 50000
L51000 50000
" />
<path d="M54000 41000
L51000 41000
" />
<path d="M54000 42000
L51000 42000
" />
</g>
<g style="fill:#0000C2; fill-opacity:0.0; 
stroke:#0000C2; stroke-width:60; stroke-opacity:1; 
stroke-linecap:round; stroke-linejoin:round;">
</g>
<g style="fill:#0000C2; fill-opacity:0.0; 
stroke:#0000C2; stroke-width:60; stroke-opacity:1; 
stroke-linecap:round; stroke-linejoin:round;stroke-dasharray:136.85,158.425;">
<path d="M50500 36500
L45000 36500
" />
</g>
<g style="fill:#0000C2; fill-opacity:0.0; 
stroke:#0000C2; stroke-width:60; stroke-opacity:1; 
stroke-linecap:round; stroke-linejoin:round;">
</g>
<g style="fill:#008400; fill-opacity:0.0; 
stroke:#008400; stroke-width:60; stroke-opacity:1; 
stroke-linecap:round; stroke-linejoin:round;">
<path d="M62000 48000
L60000 48000
" />
</g>
<g style="fill:#000000; fill-opacity:0.0; 
stroke:#000000; stroke-width:60; stroke-opacity:1; 
stroke-linecap:round; stroke-linejoin:round;">
<path d="M60140 47870
L60140 47270
" />
<path d="M60430 47870
L60430 47270
L60780 47870
L60780 47270
" />
<path d="M60980 47270
L61320 47270
" />
<path d="M61150 47870
L61150 47270
" />
</g> 
</svg>
