<?xml version="1.0" standalone="no"?>
 <!DOCTYPE svg PUBLIC "-//W3C//DTD SVG 1.1//EN" 
 "http://www.w3.org/Graphics/SVG/1.1/DTD/svg11.dtd"> 
<svg xmlns="http://www.w3.org/2000/svg" version="1.1" 
    width="29.7002cm" height="21.0007cm" viewBox="0 0 116930 82680 ">
<title>SVG Picture created as drivetrain-Drivetrain.svg date 2017/03/22 14:25:30 </title>
  <desc>Picture generated by Eeschema-SVG </desc>
<g style="fill:#000000; fill-opacity:1;stroke:#000000; stroke-opacity:1;
stroke-linecap:round; stroke-linejoin:round; "
 transform="translate(0 0) scale(1 1)">
</g>
<g style="fill:#000000; fill-opacity:0.0; 
stroke:#000000; stroke-width:-10; stroke-opacity:1; 
stroke-linecap:round; stroke-linejoin:round;">
</g>
<g style="fill:#840000; fill-opacity:0.0; 
stroke:#840000; stroke-width:-10; stroke-opacity:1; 
stroke-linecap:round; stroke-linejoin:round;">
</g>
<g style="fill:#840000; fill-opacity:0.0; 
stroke:#840000; stroke-width:100; stroke-opacity:1; 
stroke-linecap:round; stroke-linejoin:round;">
</g>
<g style="fill:#840000; fill-opacity:0.0; 
stroke:#840000; stroke-width:60; stroke-opacity:1; 
stroke-linecap:round; stroke-linejoin:round;">
<rect x="69690" y="65360" width="42520" height="12600" rx="0" />
</g>
<g style="fill:#840000; fill-opacity:0.0; 
stroke:#840000; stroke-width:100; stroke-opacity:1; 
stroke-linecap:round; stroke-linejoin:round;">
</g>
<g style="fill:#840000; fill-opacity:0.0; 
stroke:#840000; stroke-width:60; stroke-opacity:1; 
stroke-linecap:round; stroke-linejoin:round;">
<rect x="3940" y="3940" width="109050" height="74800" rx="0" />
</g>
<g style="fill:#840000; fill-opacity:0.0; 
stroke:#840000; stroke-width:100; stroke-opacity:1; 
stroke-linecap:round; stroke-linejoin:round;">
</g>
<g style="fill:#840000; fill-opacity:0.0; 
stroke:#840000; stroke-width:60; stroke-opacity:1; 
stroke-linecap:round; stroke-linejoin:round;">
<rect x="4720" y="4720" width="107490" height="73240" rx="0" />
</g>
<g style="fill:#840000; fill-opacity:0.0; 
stroke:#840000; stroke-width:100; stroke-opacity:1; 
stroke-linecap:round; stroke-linejoin:round;">
</g>
<g style="fill:#840000; fill-opacity:0.0; 
stroke:#840000; stroke-width:60; stroke-opacity:1; 
stroke-linecap:round; stroke-linejoin:round;">
<path d="M23620 4720
L23620 3940
" />
</g>
<g style="fill:#840000; fill-opacity:0.0; 
stroke:#840000; stroke-width:100; stroke-opacity:1; 
stroke-linecap:round; stroke-linejoin:round;">
</g>
<g style="fill:#840000; fill-opacity:0.0; 
stroke:#840000; stroke-width:60; stroke-opacity:1; 
stroke-linecap:round; stroke-linejoin:round;">
<path d="M43310 4720
L43310 3940
" />
</g>
<g style="fill:#840000; fill-opacity:0.0; 
stroke:#840000; stroke-width:100; stroke-opacity:1; 
stroke-linecap:round; stroke-linejoin:round;">
</g>
<g style="fill:#840000; fill-opacity:0.0; 
stroke:#840000; stroke-width:60; stroke-opacity:1; 
stroke-linecap:round; stroke-linejoin:round;">
<path d="M62990 4720
L62990 3940
" />
</g>
<g style="fill:#840000; fill-opacity:0.0; 
stroke:#840000; stroke-width:100; stroke-opacity:1; 
stroke-linecap:round; stroke-linejoin:round;">
</g>
<g style="fill:#840000; fill-opacity:0.0; 
stroke:#840000; stroke-width:60; stroke-opacity:1; 
stroke-linecap:round; stroke-linejoin:round;">
<path d="M82680 4720
L82680 3940
" />
</g>
<g style="fill:#840000; fill-opacity:0.0; 
stroke:#840000; stroke-width:100; stroke-opacity:1; 
stroke-linecap:round; stroke-linejoin:round;">
</g>
<g style="fill:#840000; fill-opacity:0.0; 
stroke:#840000; stroke-width:60; stroke-opacity:1; 
stroke-linecap:round; stroke-linejoin:round;">
<path d="M102360 4720
L102360 3940
" />
</g>
<g style="fill:#840000; fill-opacity:0.0; 
stroke:#840000; stroke-width:100; stroke-opacity:1; 
stroke-linecap:round; stroke-linejoin:round;">
</g>
<g style="fill:#840000; fill-opacity:0.0; 
stroke:#840000; stroke-width:60; stroke-opacity:1; 
stroke-linecap:round; stroke-linejoin:round;">
<path d="M14170 4560
L13880 4560
" />
<path d="M14020 4560
L14020 4050
L13970 4120
L13930 4170
L13880 4190
" />
</g>
<g style="fill:#840000; fill-opacity:0.0; 
stroke:#840000; stroke-width:100; stroke-opacity:1; 
stroke-linecap:round; stroke-linejoin:round;">
</g>
<g style="fill:#840000; fill-opacity:0.0; 
stroke:#840000; stroke-width:60; stroke-opacity:1; 
stroke-linecap:round; stroke-linejoin:round;">
<path d="M33560 4090
L33580 4070
L33630 4050
L33750 4050
L33800 4070
L33820 4090
L33850 4140
L33850 4190
L33820 4260
L33530 4560
L33850 4560
" />
</g>
<g style="fill:#840000; fill-opacity:0.0; 
stroke:#840000; stroke-width:100; stroke-opacity:1; 
stroke-linecap:round; stroke-linejoin:round;">
</g>
<g style="fill:#840000; fill-opacity:0.0; 
stroke:#840000; stroke-width:60; stroke-opacity:1; 
stroke-linecap:round; stroke-linejoin:round;">
<path d="M53220 4050
L53540 4050
L53370 4240
L53440 4240
L53490 4260
L53510 4290
L53540 4340
L53540 4460
L53510 4510
L53490 4530
L53440 4560
L53300 4560
L53250 4530
L53220 4510
" />
</g>
<g style="fill:#840000; fill-opacity:0.0; 
stroke:#840000; stroke-width:100; stroke-opacity:1; 
stroke-linecap:round; stroke-linejoin:round;">
</g>
<g style="fill:#840000; fill-opacity:0.0; 
stroke:#840000; stroke-width:60; stroke-opacity:1; 
stroke-linecap:round; stroke-linejoin:round;">
<path d="M73170 4220
L73170 4560
" />
<path d="M73050 4020
L72930 4390
L73240 4390
" />
</g>
<g style="fill:#840000; fill-opacity:0.0; 
stroke:#840000; stroke-width:100; stroke-opacity:1; 
stroke-linecap:round; stroke-linejoin:round;">
</g>
<g style="fill:#840000; fill-opacity:0.0; 
stroke:#840000; stroke-width:60; stroke-opacity:1; 
stroke-linecap:round; stroke-linejoin:round;">
<path d="M92880 4050
L92640 4050
L92620 4290
L92640 4260
L92690 4240
L92810 4240
L92860 4260
L92880 4290
L92910 4340
L92910 4460
L92880 4510
L92860 4530
L92810 4560
L92690 4560
L92640 4530
L92620 4510
" />
</g>
<g style="fill:#840000; fill-opacity:0.0; 
stroke:#840000; stroke-width:100; stroke-opacity:1; 
stroke-linecap:round; stroke-linejoin:round;">
</g>
<g style="fill:#840000; fill-opacity:0.0; 
stroke:#840000; stroke-width:60; stroke-opacity:1; 
stroke-linecap:round; stroke-linejoin:round;">
<path d="M112540 4050
L112440 4050
L112390 4070
L112370 4090
L112320 4170
L112300 4260
L112300 4460
L112320 4510
L112350 4530
L112390 4560
L112490 4560
L112540 4530
L112560 4510
L112590 4460
L112590 4340
L112560 4290
L112540 4260
L112490 4240
L112390 4240
L112350 4260
L112320 4290
L112300 4340
" />
</g>
<g style="fill:#840000; fill-opacity:0.0; 
stroke:#840000; stroke-width:100; stroke-opacity:1; 
stroke-linecap:round; stroke-linejoin:round;">
</g>
<g style="fill:#840000; fill-opacity:0.0; 
stroke:#840000; stroke-width:60; stroke-opacity:1; 
stroke-linecap:round; stroke-linejoin:round;">
<path d="M23620 77960
L23620 78740
" />
</g>
<g style="fill:#840000; fill-opacity:0.0; 
stroke:#840000; stroke-width:100; stroke-opacity:1; 
stroke-linecap:round; stroke-linejoin:round;">
</g>
<g style="fill:#840000; fill-opacity:0.0; 
stroke:#840000; stroke-width:60; stroke-opacity:1; 
stroke-linecap:round; stroke-linejoin:round;">
<path d="M43310 77960
L43310 78740
" />
</g>
<g style="fill:#840000; fill-opacity:0.0; 
stroke:#840000; stroke-width:100; stroke-opacity:1; 
stroke-linecap:round; stroke-linejoin:round;">
</g>
<g style="fill:#840000; fill-opacity:0.0; 
stroke:#840000; stroke-width:60; stroke-opacity:1; 
stroke-linecap:round; stroke-linejoin:round;">
<path d="M62990 77960
L62990 78740
" />
</g>
<g style="fill:#840000; fill-opacity:0.0; 
stroke:#840000; stroke-width:100; stroke-opacity:1; 
stroke-linecap:round; stroke-linejoin:round;">
</g>
<g style="fill:#840000; fill-opacity:0.0; 
stroke:#840000; stroke-width:60; stroke-opacity:1; 
stroke-linecap:round; stroke-linejoin:round;">
<path d="M82680 77960
L82680 78740
" />
</g>
<g style="fill:#840000; fill-opacity:0.0; 
stroke:#840000; stroke-width:100; stroke-opacity:1; 
stroke-linecap:round; stroke-linejoin:round;">
</g>
<g style="fill:#840000; fill-opacity:0.0; 
stroke:#840000; stroke-width:60; stroke-opacity:1; 
stroke-linecap:round; stroke-linejoin:round;">
<path d="M102360 77960
L102360 78740
" />
</g>
<g style="fill:#840000; fill-opacity:0.0; 
stroke:#840000; stroke-width:100; stroke-opacity:1; 
stroke-linecap:round; stroke-linejoin:round;">
</g>
<g style="fill:#840000; fill-opacity:0.0; 
stroke:#840000; stroke-width:60; stroke-opacity:1; 
stroke-linecap:round; stroke-linejoin:round;">
<path d="M14170 78580
L13880 78580
" />
<path d="M14020 78580
L14020 78070
L13970 78140
L13930 78190
L13880 78210
" />
</g>
<g style="fill:#840000; fill-opacity:0.0; 
stroke:#840000; stroke-width:100; stroke-opacity:1; 
stroke-linecap:round; stroke-linejoin:round;">
</g>
<g style="fill:#840000; fill-opacity:0.0; 
stroke:#840000; stroke-width:60; stroke-opacity:1; 
stroke-linecap:round; stroke-linejoin:round;">
<path d="M33560 78110
L33580 78090
L33630 78070
L33750 78070
L33800 78090
L33820 78110
L33850 78160
L33850 78210
L33820 78280
L33530 78580
L33850 78580
" />
</g>
<g style="fill:#840000; fill-opacity:0.0; 
stroke:#840000; stroke-width:100; stroke-opacity:1; 
stroke-linecap:round; stroke-linejoin:round;">
</g>
<g style="fill:#840000; fill-opacity:0.0; 
stroke:#840000; stroke-width:60; stroke-opacity:1; 
stroke-linecap:round; stroke-linejoin:round;">
<path d="M53220 78070
L53540 78070
L53370 78260
L53440 78260
L53490 78280
L53510 78310
L53540 78360
L53540 78480
L53510 78530
L53490 78550
L53440 78580
L53300 78580
L53250 78550
L53220 78530
" />
</g>
<g style="fill:#840000; fill-opacity:0.0; 
stroke:#840000; stroke-width:100; stroke-opacity:1; 
stroke-linecap:round; stroke-linejoin:round;">
</g>
<g style="fill:#840000; fill-opacity:0.0; 
stroke:#840000; stroke-width:60; stroke-opacity:1; 
stroke-linecap:round; stroke-linejoin:round;">
<path d="M73170 78240
L73170 78580
" />
<path d="M73050 78040
L72930 78410
L73240 78410
" />
</g>
<g style="fill:#840000; fill-opacity:0.0; 
stroke:#840000; stroke-width:100; stroke-opacity:1; 
stroke-linecap:round; stroke-linejoin:round;">
</g>
<g style="fill:#840000; fill-opacity:0.0; 
stroke:#840000; stroke-width:60; stroke-opacity:1; 
stroke-linecap:round; stroke-linejoin:round;">
<path d="M92880 78070
L92640 78070
L92620 78310
L92640 78280
L92690 78260
L92810 78260
L92860 78280
L92880 78310
L92910 78360
L92910 78480
L92880 78530
L92860 78550
L92810 78580
L92690 78580
L92640 78550
L92620 78530
" />
</g>
<g style="fill:#840000; fill-opacity:0.0; 
stroke:#840000; stroke-width:100; stroke-opacity:1; 
stroke-linecap:round; stroke-linejoin:round;">
</g>
<g style="fill:#840000; fill-opacity:0.0; 
stroke:#840000; stroke-width:60; stroke-opacity:1; 
stroke-linecap:round; stroke-linejoin:round;">
<path d="M112540 78070
L112440 78070
L112390 78090
L112370 78110
L112320 78190
L112300 78280
L112300 78480
L112320 78530
L112350 78550
L112390 78580
L112490 78580
L112540 78550
L112560 78530
L112590 78480
L112590 78360
L112560 78310
L112540 78280
L112490 78260
L112390 78260
L112350 78280
L112320 78310
L112300 78360
" />
</g>
<g style="fill:#840000; fill-opacity:0.0; 
stroke:#840000; stroke-width:100; stroke-opacity:1; 
stroke-linecap:round; stroke-linejoin:round;">
</g>
<g style="fill:#840000; fill-opacity:0.0; 
stroke:#840000; stroke-width:60; stroke-opacity:1; 
stroke-linecap:round; stroke-linejoin:round;">
<path d="M3940 23620
L4720 23620
" />
</g>
<g style="fill:#840000; fill-opacity:0.0; 
stroke:#840000; stroke-width:100; stroke-opacity:1; 
stroke-linecap:round; stroke-linejoin:round;">
</g>
<g style="fill:#840000; fill-opacity:0.0; 
stroke:#840000; stroke-width:60; stroke-opacity:1; 
stroke-linecap:round; stroke-linejoin:round;">
<path d="M3940 43310
L4720 43310
" />
</g>
<g style="fill:#840000; fill-opacity:0.0; 
stroke:#840000; stroke-width:100; stroke-opacity:1; 
stroke-linecap:round; stroke-linejoin:round;">
</g>
<g style="fill:#840000; fill-opacity:0.0; 
stroke:#840000; stroke-width:60; stroke-opacity:1; 
stroke-linecap:round; stroke-linejoin:round;">
<path d="M3940 62990
L4720 62990
" />
</g>
<g style="fill:#840000; fill-opacity:0.0; 
stroke:#840000; stroke-width:100; stroke-opacity:1; 
stroke-linecap:round; stroke-linejoin:round;">
</g>
<g style="fill:#840000; fill-opacity:0.0; 
stroke:#840000; stroke-width:60; stroke-opacity:1; 
stroke-linecap:round; stroke-linejoin:round;">
<path d="M4210 13860
L4450 13860
" />
<path d="M4160 14010
L4330 13500
L4500 14010
" />
</g>
<g style="fill:#840000; fill-opacity:0.0; 
stroke:#840000; stroke-width:100; stroke-opacity:1; 
stroke-linecap:round; stroke-linejoin:round;">
</g>
<g style="fill:#840000; fill-opacity:0.0; 
stroke:#840000; stroke-width:60; stroke-opacity:1; 
stroke-linecap:round; stroke-linejoin:round;">
<path d="M4370 33420
L4440 33440
L4470 33470
L4490 33520
L4490 33590
L4470 33640
L4440 33660
L4400 33690
L4200 33690
L4200 33180
L4370 33180
L4420 33200
L4440 33220
L4470 33270
L4470 33320
L4440 33370
L4420 33390
L4370 33420
L4200 33420
" />
</g>
<g style="fill:#840000; fill-opacity:0.0; 
stroke:#840000; stroke-width:100; stroke-opacity:1; 
stroke-linecap:round; stroke-linejoin:round;">
</g>
<g style="fill:#840000; fill-opacity:0.0; 
stroke:#840000; stroke-width:60; stroke-opacity:1; 
stroke-linecap:round; stroke-linejoin:round;">
<path d="M4490 53330
L4470 53350
L4400 53380
L4350 53380
L4270 53350
L4230 53300
L4200 53250
L4180 53160
L4180 53080
L4200 52990
L4230 52940
L4270 52890
L4350 52870
L4400 52870
L4470 52890
L4490 52910
" />
</g>
<g style="fill:#840000; fill-opacity:0.0; 
stroke:#840000; stroke-width:100; stroke-opacity:1; 
stroke-linecap:round; stroke-linejoin:round;">
</g>
<g style="fill:#840000; fill-opacity:0.0; 
stroke:#840000; stroke-width:60; stroke-opacity:1; 
stroke-linecap:round; stroke-linejoin:round;">
<path d="M4200 73060
L4200 72550
L4320 72550
L4400 72570
L4440 72620
L4470 72670
L4490 72760
L4490 72840
L4470 72930
L4440 72980
L4400 73030
L4320 73060
L4200 73060
" />
</g>
<g style="fill:#840000; fill-opacity:0.0; 
stroke:#840000; stroke-width:100; stroke-opacity:1; 
stroke-linecap:round; stroke-linejoin:round;">
</g>
<g style="fill:#840000; fill-opacity:0.0; 
stroke:#840000; stroke-width:60; stroke-opacity:1; 
stroke-linecap:round; stroke-linejoin:round;">
<path d="M112990 23620
L112210 23620
" />
</g>
<g style="fill:#840000; fill-opacity:0.0; 
stroke:#840000; stroke-width:100; stroke-opacity:1; 
stroke-linecap:round; stroke-linejoin:round;">
</g>
<g style="fill:#840000; fill-opacity:0.0; 
stroke:#840000; stroke-width:60; stroke-opacity:1; 
stroke-linecap:round; stroke-linejoin:round;">
<path d="M112990 43310
L112210 43310
" />
</g>
<g style="fill:#840000; fill-opacity:0.0; 
stroke:#840000; stroke-width:100; stroke-opacity:1; 
stroke-linecap:round; stroke-linejoin:round;">
</g>
<g style="fill:#840000; fill-opacity:0.0; 
stroke:#840000; stroke-width:60; stroke-opacity:1; 
stroke-linecap:round; stroke-linejoin:round;">
<path d="M112990 62990
L112210 62990
" />
</g>
<g style="fill:#840000; fill-opacity:0.0; 
stroke:#840000; stroke-width:100; stroke-opacity:1; 
stroke-linecap:round; stroke-linejoin:round;">
</g>
<g style="fill:#840000; fill-opacity:0.0; 
stroke:#840000; stroke-width:60; stroke-opacity:1; 
stroke-linecap:round; stroke-linejoin:round;">
<path d="M112480 13860
L112720 13860
" />
<path d="M112430 14010
L112600 13500
L112770 14010
" />
</g>
<g style="fill:#840000; fill-opacity:0.0; 
stroke:#840000; stroke-width:100; stroke-opacity:1; 
stroke-linecap:round; stroke-linejoin:round;">
</g>
<g style="fill:#840000; fill-opacity:0.0; 
stroke:#840000; stroke-width:60; stroke-opacity:1; 
stroke-linecap:round; stroke-linejoin:round;">
<path d="M112640 33420
L112710 33440
L112740 33470
L112760 33520
L112760 33590
L112740 33640
L112710 33660
L112670 33690
L112470 33690
L112470 33180
L112640 33180
L112690 33200
L112710 33220
L112740 33270
L112740 33320
L112710 33370
L112690 33390
L112640 33420
L112470 33420
" />
</g>
<g style="fill:#840000; fill-opacity:0.0; 
stroke:#840000; stroke-width:100; stroke-opacity:1; 
stroke-linecap:round; stroke-linejoin:round;">
</g>
<g style="fill:#840000; fill-opacity:0.0; 
stroke:#840000; stroke-width:60; stroke-opacity:1; 
stroke-linecap:round; stroke-linejoin:round;">
<path d="M112760 53330
L112740 53350
L112670 53380
L112620 53380
L112540 53350
L112500 53300
L112470 53250
L112450 53160
L112450 53080
L112470 52990
L112500 52940
L112540 52890
L112620 52870
L112670 52870
L112740 52890
L112760 52910
" />
</g>
<g style="fill:#840000; fill-opacity:0.0; 
stroke:#840000; stroke-width:100; stroke-opacity:1; 
stroke-linecap:round; stroke-linejoin:round;">
</g>
<g style="fill:#840000; fill-opacity:0.0; 
stroke:#840000; stroke-width:60; stroke-opacity:1; 
stroke-linecap:round; stroke-linejoin:round;">
<path d="M112470 73060
L112470 72550
L112590 72550
L112670 72570
L112710 72620
L112740 72670
L112760 72760
L112760 72840
L112740 72930
L112710 72980
L112670 73030
L112590 73060
L112470 73060
" />
</g>
<g style="fill:#840000; fill-opacity:0.0; 
stroke:#840000; stroke-width:100; stroke-opacity:1; 
stroke-linecap:round; stroke-linejoin:round;">
</g>
<g style="fill:#840000; fill-opacity:0.0; 
stroke:#840000; stroke-width:60; stroke-opacity:1; 
stroke-linecap:round; stroke-linejoin:round;">
<path d="M78880 76290
L78880 75700
L79020 75700
L79110 75730
L79160 75790
L79190 75840
L79220 75950
L79220 76040
L79190 76150
L79160 76210
L79110 76260
L79020 76290
L78880 76290
" />
<path d="M79720 76290
L79720 75980
L79700 75930
L79640 75900
L79530 75900
L79470 75930
" />
<path d="M79720 76260
L79670 76290
L79530 76290
L79470 76260
L79440 76210
L79440 76150
L79470 76100
L79530 76070
L79670 76070
L79720 76040
" />
<path d="M79920 75900
L80140 75900
" />
<path d="M80000 75700
L80000 76210
L80030 76260
L80080 76290
L80140 76290
" />
<path d="M80570 76260
L80510 76290
L80400 76290
L80340 76260
L80310 76210
L80310 75980
L80340 75930
L80400 75900
L80510 75900
L80570 75930
L80590 75980
L80590 76040
L80310 76100
" />
<path d="M80850 76240
L80880 76260
L80850 76290
L80820 76260
L80850 76240
L80850 76290
" />
<path d="M80850 75930
L80880 75950
L80850 75980
L80820 75950
L80850 75930
L80850 75980
" />
</g>
<g style="fill:#840000; fill-opacity:0.0; 
stroke:#840000; stroke-width:100; stroke-opacity:1; 
stroke-linecap:round; stroke-linejoin:round;">
</g>
<g style="fill:#840000; fill-opacity:0.0; 
stroke:#840000; stroke-width:60; stroke-opacity:1; 
stroke-linecap:round; stroke-linejoin:round;">
<path d="M69690 76580
L112210 76580
" />
</g>
<g style="fill:#840000; fill-opacity:0.0; 
stroke:#840000; stroke-width:100; stroke-opacity:1; 
stroke-linecap:round; stroke-linejoin:round;">
</g>
<g style="fill:#840000; fill-opacity:0.0; 
stroke:#840000; stroke-width:60; stroke-opacity:1; 
stroke-linecap:round; stroke-linejoin:round;">
<path d="M70220 77390
L70220 76800
" />
<path d="M70560 77390
L70300 77050
" />
<path d="M70560 76800
L70220 77140
" />
<path d="M70810 77390
L70810 77000
" />
<path d="M70810 76800
L70780 76830
L70810 76860
L70840 76830
L70810 76800
L70810 76860
" />
<path d="M71430 77340
L71400 77360
L71320 77390
L71260 77390
L71170 77360
L71120 77310
L71090 77250
L71060 77140
L71060 77050
L71090 76940
L71120 76890
L71170 76830
L71260 76800
L71320 76800
L71400 76830
L71430 76860
" />
<path d="M71930 77390
L71930 77080
L71910 77030
L71850 77000
L71740 77000
L71680 77030
" />
<path d="M71930 77360
L71880 77390
L71740 77390
L71680 77360
L71650 77310
L71650 77250
L71680 77200
L71740 77170
L71880 77170
L71930 77140
" />
<path d="M72460 77390
L72460 76800
" />
<path d="M72460 77360
L72410 77390
L72290 77390
L72240 77360
L72210 77340
L72180 77280
L72180 77110
L72210 77050
L72240 77030
L72290 77000
L72410 77000
L72460 77030
" />
<path d="M73190 77080
L73390 77080
" />
<path d="M73470 77390
L73190 77390
L73190 76800
L73470 76800
" />
<path d="M73720 77340
L73750 77360
L73720 77390
L73690 77360
L73720 77340
L73720 77390
" />
<path d="M74000 77390
L74000 76800
L74140 76800
L74230 76830
L74280 76890
L74310 76940
L74340 77050
L74340 77140
L74310 77250
L74280 77310
L74230 77360
L74140 77390
L74000 77390
" />
<path d="M74590 77340
L74620 77360
L74590 77390
L74560 77360
L74590 77340
L74590 77390
" />
<path d="M74840 77220
L75120 77220
" />
<path d="M74790 77390
L74980 76800
L75180 77390
" />
<path d="M75380 77340
L75410 77360
L75380 77390
L75350 77360
L75380 77340
L75380 77390
" />
<path d="M76560 77390
L76560 76800
" />
<path d="M76620 77170
L76790 77390
" />
<path d="M76790 77000
L76560 77220
" />
<path d="M77040 77390
L77040 77000
" />
<path d="M77040 76800
L77010 76830
L77040 76860
L77070 76830
L77040 76800
L77040 76860
" />
<path d="M77570 77360
L77520 77390
L77400 77390
L77350 77360
L77320 77340
L77290 77280
L77290 77110
L77320 77050
L77350 77030
L77400 77000
L77520 77000
L77570 77030
" />
<path d="M78080 77390
L78080 77080
L78060 77030
L78000 77000
L77890 77000
L77830 77030
" />
<path d="M78080 77360
L78030 77390
L77890 77390
L77830 77360
L77800 77310
L77800 77250
L77830 77200
L77890 77170
L78030 77170
L78080 77140
" />
<path d="M78610 77390
L78610 76800
" />
<path d="M78610 77360
L78560 77390
L78440 77390
L78390 77360
L78360 77340
L78330 77280
L78330 77110
L78360 77050
L78390 77030
L78440 77000
L78560 77000
L78610 77030
" />
<path d="M79590 77000
L79590 77390
" />
<path d="M79450 76770
L79310 77200
L79680 77200
" />
<path d="M79900 77340
L79930 77360
L79900 77390
L79870 77360
L79900 77340
L79900 77390
" />
<path d="M80290 76800
L80350 76800
L80410 76830
L80430 76860
L80460 76910
L80490 77030
L80490 77170
L80460 77280
L80430 77340
L80410 77360
L80350 77390
L80290 77390
L80240 77360
L80210 77340
L80180 77280
L80150 77170
L80150 77030
L80180 76910
L80210 76860
L80240 76830
L80290 76800
" />
<path d="M80740 77340
L80770 77360
L80740 77390
L80710 77360
L80740 77340
L80740 77390
" />
<path d="M81270 76800
L81160 76800
L81100 76830
L81080 76860
L81020 76940
L80990 77050
L80990 77280
L81020 77340
L81050 77360
L81100 77390
L81220 77390
L81270 77360
L81300 77340
L81330 77280
L81330 77140
L81300 77080
L81270 77050
L81220 77030
L81100 77030
L81050 77050
L81020 77080
L80990 77140
" />
</g>
<g style="fill:#840000; fill-opacity:0.0; 
stroke:#840000; stroke-width:100; stroke-opacity:1; 
stroke-linecap:round; stroke-linejoin:round;">
</g>
<g style="fill:#840000; fill-opacity:0.0; 
stroke:#840000; stroke-width:60; stroke-opacity:1; 
stroke-linecap:round; stroke-linejoin:round;">
<path d="M69690 75400
L112210 75400
" />
</g>
<g style="fill:#840000; fill-opacity:0.0; 
stroke:#840000; stroke-width:100; stroke-opacity:1; 
stroke-linecap:round; stroke-linejoin:round;">
</g>
<g style="fill:#840000; fill-opacity:0.0; 
stroke:#840000; stroke-width:120; stroke-opacity:1; 
stroke-linecap:round; stroke-linejoin:round;">
<path d="M104020 76290
L103820 76010
" />
<path d="M103680 76290
L103680 75700
L103910 75700
L103960 75730
L103990 75760
L104020 75810
L104020 75900
L103990 75950
L103960 75980
L103910 76010
L103680 76010
" />
<path d="M104500 76260
L104440 76290
L104330 76290
L104270 76260
L104240 76210
L104240 75980
L104270 75930
L104330 75900
L104440 75900
L104500 75930
L104520 75980
L104520 76040
L104240 76100
" />
<path d="M104720 75900
L104860 76290
L105010 75900
" />
<path d="M105230 76240
L105260 76260
L105230 76290
L105200 76260
L105230 76240
L105230 76290
" />
<path d="M105230 75930
L105260 75950
L105230 75980
L105200 75950
L105230 75930
L105230 75980
" />
</g>
<g style="fill:#840000; fill-opacity:0.0; 
stroke:#840000; stroke-width:100; stroke-opacity:1; 
stroke-linecap:round; stroke-linejoin:round;">
</g>
<g style="fill:#840000; fill-opacity:0.0; 
stroke:#840000; stroke-width:60; stroke-opacity:1; 
stroke-linecap:round; stroke-linejoin:round;">
<path d="M70190 76260
L70280 76290
L70420 76290
L70470 76260
L70500 76240
L70530 76180
L70530 76120
L70500 76070
L70470 76040
L70420 76010
L70300 75980
L70250 75950
L70220 75930
L70190 75870
L70190 75810
L70220 75760
L70250 75730
L70300 75700
L70450 75700
L70530 75730
" />
<path d="M70780 76290
L70780 75900
" />
<path d="M70780 75700
L70750 75730
L70780 75760
L70810 75730
L70780 75700
L70780 75760
" />
<path d="M71000 75900
L71310 75900
L71000 76290
L71310 76290
" />
<path d="M71770 76260
L71710 76290
L71600 76290
L71540 76260
L71510 76210
L71510 75980
L71540 75930
L71600 75900
L71710 75900
L71770 75930
L71790 75980
L71790 76040
L71510 76100
" />
<path d="M72050 76240
L72080 76260
L72050 76290
L72020 76260
L72050 76240
L72050 76290
" />
<path d="M72050 75930
L72080 75950
L72050 75980
L72020 75950
L72050 75930
L72050 75980
" />
<path d="M72750 76120
L73030 76120
" />
<path d="M72700 76290
L72890 75700
L73090 76290
" />
<path d="M73540 75900
L73540 76290
" />
<path d="M73400 75670
L73260 76100
L73630 76100
" />
</g>
<g style="fill:#840000; fill-opacity:0.0; 
stroke:#840000; stroke-width:100; stroke-opacity:1; 
stroke-linecap:round; stroke-linejoin:round;">
</g>
<g style="fill:#840000; fill-opacity:0.0; 
stroke:#840000; stroke-width:60; stroke-opacity:1; 
stroke-linecap:round; stroke-linejoin:round;">
<path d="M103680 77390
L103680 76800
" />
<path d="M104210 77390
L104210 76800
" />
<path d="M104210 77360
L104160 77390
L104040 77390
L103990 77360
L103960 77340
L103930 77280
L103930 77110
L103960 77050
L103990 77030
L104040 77000
L104160 77000
L104210 77030
" />
<path d="M104490 77340
L104520 77360
L104490 77390
L104460 77360
L104490 77340
L104490 77390
" />
<path d="M104490 77030
L104520 77050
L104490 77080
L104460 77050
L104490 77030
L104490 77080
" />
<path d="M105470 77000
L105470 77390
" />
<path d="M105330 76770
L105190 77200
L105560 77200
" />
<path d="M106200 76770
L105700 77530
" />
<path d="M106680 76800
L106400 76800
L106370 77080
L106400 77050
L106460 77030
L106600 77030
L106650 77050
L106680 77080
L106710 77140
L106710 77280
L106680 77340
L106650 77360
L106600 77390
L106460 77390
L106400 77360
L106370 77340
" />
</g>
<g style="fill:#840000; fill-opacity:0.0; 
stroke:#840000; stroke-width:100; stroke-opacity:1; 
stroke-linecap:round; stroke-linejoin:round;">
</g>
<g style="fill:#840000; fill-opacity:0.0; 
stroke:#840000; stroke-width:60; stroke-opacity:1; 
stroke-linecap:round; stroke-linejoin:round;">
<path d="M69690 73820
L112210 73820
" />
</g>
<g style="fill:#840000; fill-opacity:0.0; 
stroke:#840000; stroke-width:100; stroke-opacity:1; 
stroke-linecap:round; stroke-linejoin:round;">
</g>
<g style="fill:#840000; fill-opacity:0.0; 
stroke:#840000; stroke-width:160; stroke-opacity:1; 
stroke-linecap:round; stroke-linejoin:round;">
<path d="M70260 74090
L70710 74090
" />
<path d="M70390 74880
L70480 74090
" />
<path d="M70880 74880
L70940 74360
" />
<path d="M70970 74090
L70930 74130
L70960 74170
L71010 74130
L70970 74090
L70960 74170
" />
<path d="M71210 74360
L71510 74360
" />
<path d="M71350 74090
L71270 74770
L71300 74840
L71370 74880
L71450 74880
" />
<path d="M71820 74880
L71750 74840
L71720 74770
L71800 74090
" />
<path d="M72420 74840
L72340 74880
L72190 74880
L72120 74840
L72090 74770
L72130 74470
L72180 74390
L72250 74360
L72400 74360
L72480 74390
L72510 74470
L72500 74540
L72110 74620
" />
<path d="M72800 74810
L72840 74840
L72800 74880
L72760 74840
L72800 74810
L72800 74880
" />
<path d="M72860 74390
L72890 74430
L72850 74470
L72810 74430
L72860 74390
L72850 74470
" />
</g>
<g style="fill:#840000; fill-opacity:0.0; 
stroke:#840000; stroke-width:100; stroke-opacity:1; 
stroke-linecap:round; stroke-linejoin:round;">
</g>
<g style="fill:#840000; fill-opacity:0.0; 
stroke:#840000; stroke-width:60; stroke-opacity:1; 
stroke-linecap:round; stroke-linejoin:round;">
<path d="M70420 73060
L70220 73060
" />
<path d="M70220 73370
L70220 72780
L70500 72780
" />
<path d="M70730 73370
L70730 72980
" />
<path d="M70730 72780
L70700 72810
L70730 72840
L70760 72810
L70730 72780
L70730 72840
" />
<path d="M71090 73370
L71040 73340
L71010 73290
L71010 72780
" />
<path d="M71550 73340
L71490 73370
L71380 73370
L71320 73340
L71290 73290
L71290 73060
L71320 73010
L71380 72980
L71490 72980
L71550 73010
L71570 73060
L71570 73120
L71290 73180
" />
<path d="M71830 73320
L71860 73340
L71830 73370
L71800 73340
L71830 73320
L71830 73370
" />
<path d="M71830 73010
L71860 73030
L71830 73060
L71800 73030
L71830 73010
L71830 73060
" />
<path d="M72810 73370
L72810 72780
" />
<path d="M72810 73340
L72760 73370
L72640 73370
L72590 73340
L72560 73320
L72530 73260
L72530 73090
L72560 73030
L72590 73010
L72640 72980
L72760 72980
L72810 73010
" />
<path d="M73090 73370
L73090 72980
" />
<path d="M73090 73090
L73120 73030
L73150 73010
L73200 72980
L73260 72980
" />
<path d="M73460 73370
L73460 72980
" />
<path d="M73460 72780
L73430 72810
L73460 72840
L73490 72810
L73460 72780
L73460 72840
" />
<path d="M73680 72980
L73820 73370
L73970 72980
" />
<path d="M74420 73340
L74360 73370
L74250 73370
L74190 73340
L74160 73290
L74160 73060
L74190 73010
L74250 72980
L74360 72980
L74420 73010
L74440 73060
L74440 73120
L74160 73180
" />
<path d="M74620 72980
L74840 72980
" />
<path d="M74700 72780
L74700 73290
L74730 73340
L74780 73370
L74840 73370
" />
<path d="M75040 73370
L75040 72980
" />
<path d="M75040 73090
L75070 73030
L75100 73010
L75150 72980
L75210 72980
" />
<path d="M75660 73370
L75660 73060
L75640 73010
L75580 72980
L75470 72980
L75410 73010
" />
<path d="M75660 73340
L75610 73370
L75470 73370
L75410 73340
L75380 73290
L75380 73230
L75410 73180
L75470 73150
L75610 73150
L75660 73120
" />
<path d="M75940 73370
L75940 72980
" />
<path d="M75940 72780
L75910 72810
L75940 72840
L75970 72810
L75940 72780
L75940 72840
" />
<path d="M76220 72980
L76220 73370
" />
<path d="M76220 73030
L76250 73010
L76300 72980
L76390 72980
L76450 73010
L76470 73060
L76470 73370
" />
<path d="M76750 73320
L76780 73340
L76750 73370
L76720 73340
L76750 73320
L76750 73370
" />
<path d="M77000 73340
L77060 73370
L77170 73370
L77230 73340
L77260 73290
L77260 73260
L77230 73200
L77170 73180
L77090 73180
L77030 73150
L77000 73090
L77000 73060
L77030 73010
L77090 72980
L77170 72980
L77230 73010
" />
<path d="M77760 73340
L77710 73370
L77590 73370
L77540 73340
L77510 73320
L77480 73260
L77480 73090
L77510 73030
L77540 73010
L77590 72980
L77710 72980
L77760 73010
" />
<path d="M78020 73370
L78020 72780
" />
<path d="M78270 73370
L78270 73060
L78250 73010
L78190 72980
L78100 72980
L78050 73010
L78020 73030
" />
</g>
<g style="fill:#840000; fill-opacity:0.0; 
stroke:#840000; stroke-width:100; stroke-opacity:1; 
stroke-linecap:round; stroke-linejoin:round;">
</g>
<g style="fill:#840000; fill-opacity:0.0; 
stroke:#840000; stroke-width:60; stroke-opacity:1; 
stroke-linecap:round; stroke-linejoin:round;">
<path d="M69690 71460
L112210 71460
" />
</g>
<g style="fill:#840000; fill-opacity:0.0; 
stroke:#840000; stroke-width:100; stroke-opacity:1; 
stroke-linecap:round; stroke-linejoin:round;">
</g>
<g style="fill:#840000; fill-opacity:0.0; 
stroke:#840000; stroke-width:60; stroke-opacity:1; 
stroke-linecap:round; stroke-linejoin:round;">
<path d="M70190 72280
L70280 72310
L70420 72310
L70470 72280
L70500 72260
L70530 72200
L70530 72140
L70500 72090
L70470 72060
L70420 72030
L70300 72000
L70250 71970
L70220 71950
L70190 71890
L70190 71830
L70220 71780
L70250 71750
L70300 71720
L70450 71720
L70530 71750
" />
<path d="M70780 72310
L70780 71720
" />
<path d="M71030 72310
L71030 72000
L71010 71950
L70950 71920
L70860 71920
L70810 71950
L70780 71970
" />
<path d="M71540 72280
L71480 72310
L71370 72310
L71310 72280
L71280 72230
L71280 72000
L71310 71950
L71370 71920
L71480 71920
L71540 71950
L71560 72000
L71560 72060
L71280 72120
" />
<path d="M72050 72280
L71990 72310
L71880 72310
L71820 72280
L71790 72230
L71790 72000
L71820 71950
L71880 71920
L71990 71920
L72050 71950
L72070 72000
L72070 72060
L71790 72120
" />
<path d="M72250 71920
L72470 71920
" />
<path d="M72330 71720
L72330 72230
L72360 72280
L72410 72310
L72470 72310
" />
<path d="M72670 72260
L72700 72280
L72670 72310
L72640 72280
L72670 72260
L72670 72310
" />
<path d="M72670 71950
L72700 71970
L72670 72000
L72640 71970
L72670 71950
L72670 72000
" />
<path d="M73820 71690
L73320 72450
" />
<path d="M74020 72310
L74020 71720
L74160 71720
L74250 71750
L74300 71810
L74330 71860
L74360 71970
L74360 72060
L74330 72170
L74300 72230
L74250 72280
L74160 72310
L74020 72310
" />
<path d="M74610 72310
L74610 71920
" />
<path d="M74610 72030
L74640 71970
L74670 71950
L74720 71920
L74780 71920
" />
<path d="M74980 72310
L74980 71920
" />
<path d="M74980 71720
L74950 71750
L74980 71780
L75010 71750
L74980 71720
L74980 71780
" />
<path d="M75200 71920
L75340 72310
L75490 71920
" />
<path d="M75940 72280
L75880 72310
L75770 72310
L75710 72280
L75680 72230
L75680 72000
L75710 71950
L75770 71920
L75880 71920
L75940 71950
L75960 72000
L75960 72060
L75680 72120
" />
<path d="M76140 71920
L76360 71920
" />
<path d="M76220 71720
L76220 72230
L76250 72280
L76300 72310
L76360 72310
" />
<path d="M76560 72310
L76560 71920
" />
<path d="M76560 72030
L76590 71970
L76620 71950
L76670 71920
L76730 71920
" />
<path d="M77180 72310
L77180 72000
L77160 71950
L77100 71920
L76990 71920
L76930 71950
" />
<path d="M77180 72280
L77130 72310
L76990 72310
L76930 72280
L76900 72230
L76900 72170
L76930 72120
L76990 72090
L77130 72090
L77180 72060
" />
<path d="M77460 72310
L77460 71920
" />
<path d="M77460 71720
L77430 71750
L77460 71780
L77490 71750
L77460 71720
L77460 71780
" />
<path d="M77740 71920
L77740 72310
" />
<path d="M77740 71970
L77770 71950
L77820 71920
L77910 71920
L77970 71950
L77990 72000
L77990 72310
" />
<path d="M78690 71690
L78190 72450
" />
</g>
<g style="fill:#840000; fill-opacity:0.0; 
stroke:#840000; stroke-width:100; stroke-opacity:1; 
stroke-linecap:round; stroke-linejoin:round;">
</g>
<g style="fill:#840000; fill-opacity:0.0; 
stroke:#840000; stroke-width:60; stroke-opacity:1; 
stroke-linecap:round; stroke-linejoin:round;">
<path d="M77560 75400
L77560 76580
" />
</g>
<g style="fill:#840000; fill-opacity:0.0; 
stroke:#840000; stroke-width:100; stroke-opacity:1; 
stroke-linecap:round; stroke-linejoin:round;">
</g>
<g style="fill:#840000; fill-opacity:0.0; 
stroke:#840000; stroke-width:60; stroke-opacity:1; 
stroke-linecap:round; stroke-linejoin:round;">
<path d="M102760 75400
L102760 77960
" />
</g>
<g style="fill:#848400; fill-opacity:0.0; 
stroke:#848400; stroke-width:60; stroke-opacity:1; 
stroke-linecap:round; stroke-linejoin:round;">
<path d="M65900 49270
L65900 48670
L66100 49100
L66300 48670
L66300 49270
" />
<path d="M66710 48670
L66820 48670
L66880 48700
L66940 48760
L66960 48870
L66960 49070
L66940 49190
L66880 49240
L66820 49270
L66710 49270
L66650 49240
L66590 49190
L66560 49070
L66560 48870
L66590 48760
L66650 48700
L66710 48670
" />
<path d="M67140 48670
L67480 48670
" />
<path d="M67310 49270
L67310 48670
" />
<path d="M67680 49040
L68140 49040
" />
</g>
<g style="fill:#848400; fill-opacity:0.0; 
stroke:#848400; stroke-width:100; stroke-opacity:1; 
stroke-linecap:round; stroke-linejoin:round;">
<polyline fill="none;"
points="65600,49000
65300,48700
65000,48700
65000,49300
65300,49300
65600,49000
" /> 
</g>
<g style="fill:#848400; fill-opacity:0.0; 
stroke:#848400; stroke-width:60; stroke-opacity:1; 
stroke-linecap:round; stroke-linejoin:round;">
<path d="M65900 33270
L65900 32670
L66100 33100
L66300 32670
L66300 33270
" />
<path d="M66710 32670
L66820 32670
L66880 32700
L66940 32760
L66960 32870
L66960 33070
L66940 33190
L66880 33240
L66820 33270
L66710 33270
L66650 33240
L66590 33190
L66560 33070
L66560 32870
L66590 32760
L66650 32700
L66710 32670
" />
<path d="M67140 32670
L67480 32670
" />
<path d="M67310 33270
L67310 32670
" />
<path d="M67680 33040
L68140 33040
" />
<path d="M67910 33270
L67910 32810
" />
</g>
<g style="fill:#848400; fill-opacity:0.0; 
stroke:#848400; stroke-width:100; stroke-opacity:1; 
stroke-linecap:round; stroke-linejoin:round;">
<polyline fill="none;"
points="65600,33000
65300,32700
65000,32700
65000,33300
65300,33300
65600,33000
" /> 
</g>
<g style="fill:#848400; fill-opacity:0.0; 
stroke:#848400; stroke-width:60; stroke-opacity:1; 
stroke-linecap:round; stroke-linejoin:round;">
<path d="M47430 36270
L47430 35670
L47660 35670
L47720 35700
L47750 35730
L47780 35790
L47780 35870
L47750 35930
L47720 35960
L47660 35990
L47430 35990
" />
<path d="M47980 35670
L48120 36270
L48230 35840
L48350 36270
L48490 35670
" />
<path d="M48720 36270
L48720 35670
L48920 36100
L49120 35670
L49120 36270
" />
<path d="M49270 36330
L49730 36330
" />
<path d="M49840 36100
L50130 36100
" />
<path d="M49790 36270
L49990 35670
L50190 36270
" />
</g>
<g style="fill:#848400; fill-opacity:0.0; 
stroke:#848400; stroke-width:100; stroke-opacity:1; 
stroke-linecap:round; stroke-linejoin:round;">
<polyline fill="none;"
points="51000,36000
50700,35700
50400,35700
50400,36300
50700,36300
51000,36000
" /> 
</g>
<g style="fill:#848400; fill-opacity:0.0; 
stroke:#848400; stroke-width:60; stroke-opacity:1; 
stroke-linecap:round; stroke-linejoin:round;">
<path d="M47340 52270
L47340 51670
L47570 51670
L47630 51700
L47660 51730
L47690 51790
L47690 51870
L47660 51930
L47630 51960
L47570 51990
L47340 51990
" />
<path d="M47890 51670
L48030 52270
L48140 51840
L48260 52270
L48400 51670
" />
<path d="M48630 52270
L48630 51670
L48830 52100
L49030 51670
L49030 52270
" />
<path d="M49180 52330
L49640 52330
" />
<path d="M49980 51960
L50070 51990
L50100 52010
L50130 52070
L50130 52160
L50100 52210
L50070 52240
L50010 52270
L49780 52270
L49780 51670
L49980 51670
L50040 51700
L50070 51730
L50100 51790
L50100 51840
L50070 51900
L50040 51930
L49980 51960
L49780 51960
" />
</g>
<g style="fill:#848400; fill-opacity:0.0; 
stroke:#848400; stroke-width:100; stroke-opacity:1; 
stroke-linecap:round; stroke-linejoin:round;">
<polyline fill="none;"
points="51000,52000
50700,51700
50400,51700
50400,52300
50700,52300
51000,52000
" /> 
</g>
<g style="fill:#848400; fill-opacity:0.0; 
stroke:#848400; stroke-width:0; stroke-opacity:1; 
stroke-linecap:round; stroke-linejoin:round;">
</g>
<g style="fill:#840000; fill-opacity:0.0; 
stroke:#840000; stroke-width:0; stroke-opacity:1; 
stroke-linecap:round; stroke-linejoin:round;">
</g>
<g style="fill:#840000; fill-opacity:0.0; 
stroke:#840000; stroke-width:60; stroke-opacity:1; 
stroke-linecap:round; stroke-linejoin:round;">
<polyline fill="none;"
points="56000,54000
56000,54500
56500,54500
56000,55000
55500,54500
56000,54500
" /> 
</g>
<g style="fill:#008484; fill-opacity:0.0; 
stroke:#008484; stroke-width:60; stroke-opacity:1; 
stroke-linecap:round; stroke-linejoin:round;">
<path d="M55620 55280
L55570 55260
L55500 55260
L55430 55280
L55380 55330
L55360 55380
L55340 55470
L55340 55540
L55360 55640
L55380 55680
L55430 55730
L55500 55760
L55550 55760
L55620 55730
L55640 55710
L55640 55540
L55550 55540
" />
<path d="M55860 55760
L55860 55260
L56140 55760
L56140 55260
" />
<path d="M56380 55760
L56380 55260
L56500 55260
L56570 55280
L56620 55330
L56640 55380
L56660 55470
L56660 55540
L56640 55640
L56620 55680
L56570 55730
L56500 55760
L56380 55760
" />
</g>
<g style="fill:#008484; fill-opacity:0.0; 
stroke:#008484; stroke-width:0; stroke-opacity:1; 
stroke-linecap:round; stroke-linejoin:round;">
</g>
<g style="fill:#840000; fill-opacity:0.0; 
stroke:#840000; stroke-width:0; stroke-opacity:1; 
stroke-linecap:round; stroke-linejoin:round;">
</g>
<g style="fill:#840000; fill-opacity:0.0; 
stroke:#840000; stroke-width:60; stroke-opacity:1; 
stroke-linecap:round; stroke-linejoin:round;">
<polyline fill="none;"
points="39700,37500
40000,37000
" /> 
<polyline fill="none;"
points="40000,38000
40000,37000
" /> 
<polyline fill="none;"
points="40000,37000
40300,37500
" /> 
</g>
<g style="fill:#008484; fill-opacity:0.0; 
stroke:#008484; stroke-width:60; stroke-opacity:1; 
stroke-linecap:round; stroke-linejoin:round;">
<path d="M39120 36670
L39500 36670
" />
<path d="M39310 36860
L39310 36480
" />
<path d="M39720 36400
L39740 36380
L39790 36360
L39910 36360
L39950 36380
L39980 36400
L40000 36450
L40000 36500
L39980 36570
L39690 36860
L40000 36860
" />
<path d="M40150 36360
L40310 36860
L40480 36360
" />
<path d="M40720 36570
L40670 36550
L40650 36520
L40630 36480
L40630 36450
L40650 36400
L40670 36380
L40720 36360
L40820 36360
L40860 36380
L40890 36400
L40910 36450
L40910 36480
L40890 36520
L40860 36550
L40820 36570
L40720 36570
L40670 36590
L40650 36620
L40630 36670
L40630 36760
L40650 36810
L40670 36830
L40720 36860
L40820 36860
L40860 36830
L40890 36810
L40910 36760
L40910 36670
L40890 36620
L40860 36590
L40820 36570
" />
</g>
<g style="fill:#008484; fill-opacity:0.0; 
stroke:#008484; stroke-width:0; stroke-opacity:1; 
stroke-linecap:round; stroke-linejoin:round;">
</g>
<g style="fill:#840000; fill-opacity:0.0; 
stroke:#840000; stroke-width:0; stroke-opacity:1; 
stroke-linecap:round; stroke-linejoin:round;">
</g>
<g style="fill:#840000; fill-opacity:0.0; 
stroke:#840000; stroke-width:60; stroke-opacity:1; 
stroke-linecap:round; stroke-linejoin:round;">
<polyline fill="none;"
points="40000,44000
40000,44500
40500,44500
40000,45000
39500,44500
40000,44500
" /> 
</g>
<g style="fill:#008484; fill-opacity:0.0; 
stroke:#008484; stroke-width:60; stroke-opacity:1; 
stroke-linecap:round; stroke-linejoin:round;">
<path d="M39620 45280
L39570 45260
L39500 45260
L39430 45280
L39380 45330
L39360 45380
L39340 45470
L39340 45540
L39360 45640
L39380 45680
L39430 45730
L39500 45760
L39550 45760
L39620 45730
L39640 45710
L39640 45540
L39550 45540
" />
<path d="M39860 45760
L39860 45260
L40140 45760
L40140 45260
" />
<path d="M40380 45760
L40380 45260
L40500 45260
L40570 45280
L40620 45330
L40640 45380
L40660 45470
L40660 45540
L40640 45640
L40620 45680
L40570 45730
L40500 45760
L40380 45760
" />
</g>
<g style="fill:#008484; fill-opacity:0.0; 
stroke:#008484; stroke-width:0; stroke-opacity:1; 
stroke-linecap:round; stroke-linejoin:round;">
</g>
<g style="fill:#840000; fill-opacity:0.0; 
stroke:#840000; stroke-width:0; stroke-opacity:1; 
stroke-linecap:round; stroke-linejoin:round;">
</g>
<g style="fill:#840000; fill-opacity:0.0; 
stroke:#840000; stroke-width:60; stroke-opacity:1; 
stroke-linecap:round; stroke-linejoin:round;">
<circle cx="64000" cy="27250" r="250" /> 
<polyline fill="none;"
points="64000,28000
64000,27500
" /> 
</g>
<g style="fill:#008484; fill-opacity:0.0; 
stroke:#008484; stroke-width:60; stroke-opacity:1; 
stroke-linecap:round; stroke-linejoin:round;">
<path d="M63340 26260
L63500 26760
L63670 26260
" />
<path d="M64120 26710
L64100 26730
L64030 26760
L63980 26760
L63910 26730
L63860 26680
L63840 26640
L63820 26540
L63820 26470
L63840 26380
L63860 26330
L63910 26280
L63980 26260
L64030 26260
L64100 26280
L64120 26300
" />
<path d="M64620 26710
L64600 26730
L64530 26760
L64480 26760
L64410 26730
L64360 26680
L64340 26640
L64320 26540
L64320 26470
L64340 26380
L64360 26330
L64410 26280
L64480 26260
L64530 26260
L64600 26280
L64620 26300
" />
</g>
<g style="fill:#008484; fill-opacity:0.0; 
stroke:#008484; stroke-width:0; stroke-opacity:1; 
stroke-linecap:round; stroke-linejoin:round;">
</g>
<g style="fill:#840000; fill-opacity:0.0; 
stroke:#840000; stroke-width:0; stroke-opacity:1; 
stroke-linecap:round; stroke-linejoin:round;">
</g>
<g style="fill:#840000; fill-opacity:0.0; 
stroke:#840000; stroke-width:60; stroke-opacity:1; 
stroke-linecap:round; stroke-linejoin:round;">
<circle cx="42000" cy="37250" r="250" /> 
<polyline fill="none;"
points="42000,38000
42000,37500
" /> 
</g>
<g style="fill:#008484; fill-opacity:0.0; 
stroke:#008484; stroke-width:60; stroke-opacity:1; 
stroke-linecap:round; stroke-linejoin:round;">
<path d="M41340 36260
L41500 36760
L41670 36260
" />
<path d="M42120 36710
L42100 36730
L42030 36760
L41980 36760
L41910 36730
L41860 36680
L41840 36640
L41820 36540
L41820 36470
L41840 36380
L41860 36330
L41910 36280
L41980 36260
L42030 36260
L42100 36280
L42120 36300
" />
<path d="M42620 36710
L42600 36730
L42530 36760
L42480 36760
L42410 36730
L42360 36680
L42340 36640
L42320 36540
L42320 36470
L42340 36380
L42360 36330
L42410 36280
L42480 36260
L42530 36260
L42600 36280
L42620 36300
" />
</g>
<g style="fill:#008484; fill-opacity:0.0; 
stroke:#008484; stroke-width:0; stroke-opacity:1; 
stroke-linecap:round; stroke-linejoin:round;">
</g>
<g style="fill:#840000; fill-opacity:0.0; 
stroke:#840000; stroke-width:0; stroke-opacity:1; 
stroke-linecap:round; stroke-linejoin:round;">
</g>
<g style="fill:#840000; fill-opacity:0.0; 
stroke:#840000; stroke-width:100; stroke-opacity:1; 
stroke-linecap:round; stroke-linejoin:round;">
<circle cx="63650" cy="36000" r="1110" /> 
</g>
<g style="fill:#840000; fill-opacity:1.0; 
stroke:#840000; stroke-width:60; stroke-opacity:1; 
stroke-linecap:round; stroke-linejoin:round;">
<circle cx="64000" cy="36700" r="110" /> 
<circle cx="64000" cy="35300" r="110" /> 
</g>
<g style="fill:#840000; fill-opacity:0.0; 
stroke:#840000; stroke-width:60; stroke-opacity:1; 
stroke-linecap:round; stroke-linejoin:round;">
<polyline fill="none;"
points="63300,36700
64000,36700
" /> 
</g>
<g style="fill:#840000; fill-opacity:0.0; 
stroke:#840000; stroke-width:100; stroke-opacity:1; 
stroke-linecap:round; stroke-linejoin:round;">
<polyline fill="none;"
points="63300,36500
63300,36900
" /> 
</g>
<g style="fill:#840000; fill-opacity:0.0; 
stroke:#840000; stroke-width:60; stroke-opacity:1; 
stroke-linecap:round; stroke-linejoin:round;">
<polyline fill="none;"
points="63300,36000
64000,36000
" /> 
</g>
<g style="fill:#840000; fill-opacity:0.0; 
stroke:#840000; stroke-width:100; stroke-opacity:1; 
stroke-linecap:round; stroke-linejoin:round;">
<polyline fill="none;"
points="63300,35800
63300,36200
" /> 
</g>
<g style="fill:#840000; fill-opacity:0.0; 
stroke:#840000; stroke-width:60; stroke-opacity:1; 
stroke-linecap:round; stroke-linejoin:round;">
<polyline fill="none;"
points="63300,35300
64000,35300
" /> 
</g>
<g style="fill:#840000; fill-opacity:0.0; 
stroke:#840000; stroke-width:100; stroke-opacity:1; 
stroke-linecap:round; stroke-linejoin:round;">
<polyline fill="none;"
points="63300,35100
63300,35500
" /> 
</g>
<g style="fill:#840000; fill-opacity:0.0; 
stroke:#840000; stroke-width:60; stroke-opacity:1; 
stroke-linecap:round; stroke-linejoin:round;">
<polyline fill="none;"
points="64000,36700
64000,37000
" /> 
<polyline fill="none;"
points="64000,36700
64000,36000
" /> 
<polyline fill="none;"
points="64000,35000
64000,35300
" /> 
</g>
<g style="fill:#840000; fill-opacity:0.0; 
stroke:#840000; stroke-width:100; stroke-opacity:1; 
stroke-linecap:round; stroke-linejoin:round;">
<polyline fill="none;"
points="63100,35250
63100,36750
63100,36750
" /> 
</g>
<g style="fill:#840000; fill-opacity:0.0; 
stroke:#840000; stroke-width:60; stroke-opacity:1; 
stroke-linecap:round; stroke-linejoin:round;">
<polyline fill="none;"
points="64000,36700
64300,36700
64300,35300
64000,35300
" /> 
</g>
<g style="fill:#840000; fill-opacity:1.0; 
stroke:#840000; stroke-width:60; stroke-opacity:1; 
stroke-linecap:round; stroke-linejoin:round;">
<polyline style="fill-rule:evenodd;"
points="63400,36000
63800,36150
63800,35850
63400,36000
" /> 
</g>
<g style="fill:#840000; fill-opacity:0.0; 
stroke:#840000; stroke-width:60; stroke-opacity:1; 
stroke-linecap:round; stroke-linejoin:round;">
<polyline fill="none;"
points="64100,35800
64150,35850
64450,35850
64500,35900
" /> 
<polyline fill="none;"
points="64300,35850
64150,36100
64450,36100
64300,35850
" /> 
<path d="M63100 36000
L61000 36000
" />
<path d="M62190 36580
L61910 36580
" />
<path d="M62050 36580
L62050 36080
L62000 36150
L61950 36200
L61910 36220
" />
<path d="M64000 37000
L64000 38000
" />
<path d="M64080 37380
L64080 37620
L64310 37640
L64290 37620
L64270 37570
L64270 37450
L64290 37410
L64310 37380
L64360 37360
L64480 37360
L64530 37380
L64550 37410
L64580 37450
L64580 37570
L64550 37620
L64530 37640
" />
<path d="M64000 35000
L64000 34000
" />
<path d="M64080 34410
L64080 34500
L64100 34550
L64120 34570
L64200 34620
L64290 34640
L64480 34640
L64530 34620
L64550 34600
L64580 34550
L64580 34450
L64550 34410
L64530 34380
L64480 34360
L64360 34360
L64310 34380
L64290 34410
L64270 34450
L64270 34550
L64290 34600
L64310 34620
L64360 34640
" />
</g>
<g style="fill:#008484; fill-opacity:0.0; 
stroke:#008484; stroke-width:60; stroke-opacity:1; 
stroke-linecap:round; stroke-linejoin:round;">
<path d="M65450 35800
L65400 35780
L65360 35730
L65290 35660
L65240 35640
L65190 35640
" />
<path d="M65210 35760
L65170 35730
L65120 35680
L65100 35590
L65100 35420
L65120 35330
L65170 35280
L65210 35260
L65310 35260
L65360 35280
L65400 35330
L65430 35420
L65430 35590
L65400 35680
L65360 35730
L65310 35760
L65210 35760
" />
<path d="M65590 35260
L65900 35260
L65730 35450
L65810 35450
L65850 35470
L65880 35490
L65900 35540
L65900 35660
L65880 35710
L65850 35730
L65810 35760
L65660 35760
L65620 35730
L65590 35710
" />
<path d="M66100 35610
L66330 35610
" />
<path d="M66050 35760
L66210 35260
L66380 35760
" />
<path d="M65120 36760
L65120 36260
L65240 36260
L65310 36280
L65360 36330
L65380 36380
L65400 36470
L65400 36540
L65380 36640
L65360 36680
L65310 36730
L65240 36760
L65120 36760
" />
<path d="M65620 36760
L65620 36260
L65790 36610
L65950 36260
L65950 36760
" />
<path d="M66450 36280
L66400 36260
L66330 36260
L66260 36280
L66210 36330
L66190 36380
L66170 36470
L66170 36540
L66190 36640
L66210 36680
L66260 36730
L66330 36760
L66380 36760
L66450 36730
L66470 36710
L66470 36540
L66380 36540
" />
<path d="M66900 36260
L66810 36260
L66760 36280
L66740 36300
L66690 36380
L66670 36470
L66670 36660
L66690 36710
L66710 36730
L66760 36760
L66860 36760
L66900 36730
L66930 36710
L66950 36660
L66950 36540
L66930 36490
L66900 36470
L66860 36450
L66760 36450
L66710 36470
L66690 36490
L66670 36540
" />
<path d="M67380 36260
L67290 36260
L67240 36280
L67220 36300
L67170 36380
L67150 36470
L67150 36660
L67170 36710
L67190 36730
L67240 36760
L67340 36760
L67380 36730
L67410 36710
L67430 36660
L67430 36540
L67410 36490
L67380 36470
L67340 36450
L67240 36450
L67190 36470
L67170 36490
L67150 36540
" />
<path d="M67740 36260
L67790 36260
L67840 36280
L67860 36300
L67890 36350
L67910 36450
L67910 36570
L67890 36660
L67860 36710
L67840 36730
L67790 36760
L67740 36760
L67700 36730
L67670 36710
L67650 36660
L67630 36570
L67630 36450
L67650 36350
L67670 36300
L67700 36280
L67740 36260
" />
<path d="M68390 36760
L68110 36760
" />
<path d="M68250 36760
L68250 36260
L68200 36330
L68150 36380
L68110 36400
" />
<path d="M68850 36760
L68610 36760
L68610 36260
" />
<path d="M68940 36260
L69100 36760
L69270 36260
" />
<path d="M69370 36260
L69650 36260
" />
<path d="M69510 36760
L69510 36260
" />
</g>
<g style="fill:#008484; fill-opacity:0.0; 
stroke:#008484; stroke-width:0; stroke-opacity:1; 
stroke-linecap:round; stroke-linejoin:round;">
</g>
<g style="fill:#840000; fill-opacity:0.0; 
stroke:#840000; stroke-width:0; stroke-opacity:1; 
stroke-linecap:round; stroke-linejoin:round;">
</g>
<g style="fill:#840000; fill-opacity:0.0; 
stroke:#840000; stroke-width:100; stroke-opacity:1; 
stroke-linecap:round; stroke-linejoin:round;">
<circle cx="63650" cy="30000" r="1110" /> 
</g>
<g style="fill:#840000; fill-opacity:1.0; 
stroke:#840000; stroke-width:60; stroke-opacity:1; 
stroke-linecap:round; stroke-linejoin:round;">
<circle cx="64000" cy="29300" r="110" /> 
<circle cx="64000" cy="30700" r="110" /> 
</g>
<g style="fill:#840000; fill-opacity:0.0; 
stroke:#840000; stroke-width:60; stroke-opacity:1; 
stroke-linecap:round; stroke-linejoin:round;">
<polyline fill="none;"
points="63300,29300
64000,29300
" /> 
</g>
<g style="fill:#840000; fill-opacity:0.0; 
stroke:#840000; stroke-width:100; stroke-opacity:1; 
stroke-linecap:round; stroke-linejoin:round;">
<polyline fill="none;"
points="63300,29500
63300,29100
" /> 
</g>
<g style="fill:#840000; fill-opacity:0.0; 
stroke:#840000; stroke-width:60; stroke-opacity:1; 
stroke-linecap:round; stroke-linejoin:round;">
<polyline fill="none;"
points="63300,30000
64000,30000
" /> 
</g>
<g style="fill:#840000; fill-opacity:0.0; 
stroke:#840000; stroke-width:100; stroke-opacity:1; 
stroke-linecap:round; stroke-linejoin:round;">
<polyline fill="none;"
points="63300,30200
63300,29800
" /> 
</g>
<g style="fill:#840000; fill-opacity:0.0; 
stroke:#840000; stroke-width:60; stroke-opacity:1; 
stroke-linecap:round; stroke-linejoin:round;">
<polyline fill="none;"
points="63300,30700
64000,30700
" /> 
</g>
<g style="fill:#840000; fill-opacity:0.0; 
stroke:#840000; stroke-width:100; stroke-opacity:1; 
stroke-linecap:round; stroke-linejoin:round;">
<polyline fill="none;"
points="63300,30900
63300,30500
" /> 
</g>
<g style="fill:#840000; fill-opacity:0.0; 
stroke:#840000; stroke-width:60; stroke-opacity:1; 
stroke-linecap:round; stroke-linejoin:round;">
<polyline fill="none;"
points="64000,29300
64000,29000
" /> 
<polyline fill="none;"
points="64000,29300
64000,30000
" /> 
<polyline fill="none;"
points="64000,31000
64000,30700
" /> 
</g>
<g style="fill:#840000; fill-opacity:0.0; 
stroke:#840000; stroke-width:100; stroke-opacity:1; 
stroke-linecap:round; stroke-linejoin:round;">
<polyline fill="none;"
points="63100,30750
63100,29250
63100,29250
" /> 
</g>
<g style="fill:#840000; fill-opacity:0.0; 
stroke:#840000; stroke-width:60; stroke-opacity:1; 
stroke-linecap:round; stroke-linejoin:round;">
<polyline fill="none;"
points="64000,29300
64300,29300
64300,30700
64000,30700
" /> 
</g>
<g style="fill:#840000; fill-opacity:1.0; 
stroke:#840000; stroke-width:60; stroke-opacity:1; 
stroke-linecap:round; stroke-linejoin:round;">
<polyline style="fill-rule:evenodd;"
points="63500,30150
63900,30000
63500,29850
63500,30150
" /> 
</g>
<g style="fill:#840000; fill-opacity:0.0; 
stroke:#840000; stroke-width:60; stroke-opacity:1; 
stroke-linecap:round; stroke-linejoin:round;">
<polyline fill="none;"
points="64100,29800
64150,29850
64450,29850
64500,29900
" /> 
<polyline fill="none;"
points="64150,30100
64450,30100
64300,29850
64150,30100
" /> 
<path d="M64000 29000
L64000 28000
" />
<path d="M64120 28640
L64100 28620
L64080 28570
L64080 28450
L64100 28410
L64120 28380
L64170 28360
L64220 28360
L64290 28380
L64580 28670
L64580 28360
" />
<path d="M63100 30000
L61000 30000
" />
<path d="M61880 30080
L62190 30080
L62020 30270
L62100 30270
L62140 30290
L62170 30310
L62190 30360
L62190 30480
L62170 30530
L62140 30550
L62100 30580
L61950 30580
L61910 30550
L61880 30530
" />
<path d="M64000 31000
L64000 32000
" />
<path d="M64240 31410
L64580 31410
" />
<path d="M64050 31530
L64410 31640
L64410 31340
" />
</g>
<g style="fill:#008484; fill-opacity:0.0; 
stroke:#008484; stroke-width:60; stroke-opacity:1; 
stroke-linecap:round; stroke-linejoin:round;">
<path d="M65450 30730
L65400 30710
L65360 30660
L65290 30590
L65240 30570
L65190 30570
" />
<path d="M65210 30690
L65170 30660
L65120 30610
L65100 30520
L65100 30350
L65120 30260
L65170 30210
L65210 30190
L65310 30190
L65360 30210
L65400 30260
L65430 30350
L65430 30520
L65400 30610
L65360 30660
L65310 30690
L65210 30690
" />
<path d="M65590 30190
L65900 30190
L65730 30380
L65810 30380
L65850 30400
L65880 30420
L65900 30470
L65900 30590
L65880 30640
L65850 30660
L65810 30690
L65660 30690
L65620 30660
L65590 30640
" />
<path d="M66290 30420
L66360 30450
L66380 30470
L66400 30520
L66400 30590
L66380 30640
L66360 30660
L66310 30690
L66120 30690
L66120 30190
L66290 30190
L66330 30210
L66360 30230
L66380 30280
L66380 30330
L66360 30380
L66330 30400
L66290 30420
L66120 30420
" />
<path d="M65120 29690
L65120 29190
L65240 29190
L65310 29210
L65360 29260
L65380 29310
L65400 29400
L65400 29470
L65380 29570
L65360 29610
L65310 29660
L65240 29690
L65120 29690
" />
<path d="M65620 29690
L65620 29190
L65790 29540
L65950 29190
L65950 29690
" />
<path d="M66450 29210
L66400 29190
L66330 29190
L66260 29210
L66210 29260
L66190 29310
L66170 29400
L66170 29470
L66190 29570
L66210 29610
L66260 29660
L66330 29690
L66380 29690
L66450 29660
L66470 29640
L66470 29470
L66380 29470
" />
<path d="M66900 29190
L66810 29190
L66760 29210
L66740 29230
L66690 29310
L66670 29400
L66670 29590
L66690 29640
L66710 29660
L66760 29690
L66860 29690
L66900 29660
L66930 29640
L66950 29590
L66950 29470
L66930 29420
L66900 29400
L66860 29380
L66760 29380
L66710 29400
L66690 29420
L66670 29470
" />
<path d="M67380 29190
L67290 29190
L67240 29210
L67220 29230
L67170 29310
L67150 29400
L67150 29590
L67170 29640
L67190 29660
L67240 29690
L67340 29690
L67380 29660
L67410 29640
L67430 29590
L67430 29470
L67410 29420
L67380 29400
L67340 29380
L67240 29380
L67190 29400
L67170 29420
L67150 29470
" />
<path d="M67740 29190
L67790 29190
L67840 29210
L67860 29230
L67890 29280
L67910 29380
L67910 29500
L67890 29590
L67860 29640
L67840 29660
L67790 29690
L67740 29690
L67700 29660
L67670 29640
L67650 29590
L67630 29500
L67630 29380
L67650 29280
L67670 29230
L67700 29210
L67740 29190
" />
<path d="M68390 29690
L68110 29690
" />
<path d="M68250 29690
L68250 29190
L68200 29260
L68150 29310
L68110 29330
" />
<path d="M68850 29690
L68610 29690
L68610 29190
" />
<path d="M68940 29190
L69100 29690
L69270 29190
" />
<path d="M69370 29190
L69650 29190
" />
<path d="M69510 29690
L69510 29190
" />
</g>
<g style="fill:#008484; fill-opacity:0.0; 
stroke:#008484; stroke-width:0; stroke-opacity:1; 
stroke-linecap:round; stroke-linejoin:round;">
</g>
<g style="fill:#840000; fill-opacity:0.0; 
stroke:#840000; stroke-width:0; stroke-opacity:1; 
stroke-linecap:round; stroke-linejoin:round;">
</g>
<g style="fill:#840000; fill-opacity:0.0; 
stroke:#840000; stroke-width:60; stroke-opacity:1; 
stroke-linecap:round; stroke-linejoin:round;">
<polyline fill="none;"
points="64000,54000
64000,54500
64500,54500
64000,55000
63500,54500
64000,54500
" /> 
</g>
<g style="fill:#008484; fill-opacity:0.0; 
stroke:#008484; stroke-width:60; stroke-opacity:1; 
stroke-linecap:round; stroke-linejoin:round;">
<path d="M63620 55280
L63570 55260
L63500 55260
L63430 55280
L63380 55330
L63360 55380
L63340 55470
L63340 55540
L63360 55640
L63380 55680
L63430 55730
L63500 55760
L63550 55760
L63620 55730
L63640 55710
L63640 55540
L63550 55540
" />
<path d="M63860 55760
L63860 55260
L64140 55760
L64140 55260
" />
<path d="M64380 55760
L64380 55260
L64500 55260
L64570 55280
L64620 55330
L64640 55380
L64660 55470
L64660 55540
L64640 55640
L64620 55680
L64570 55730
L64500 55760
L64380 55760
" />
</g>
<g style="fill:#008484; fill-opacity:0.0; 
stroke:#008484; stroke-width:0; stroke-opacity:1; 
stroke-linecap:round; stroke-linejoin:round;">
</g>
<g style="fill:#840000; fill-opacity:0.0; 
stroke:#840000; stroke-width:0; stroke-opacity:1; 
stroke-linecap:round; stroke-linejoin:round;">
</g>
<g style="fill:#840000; fill-opacity:0.0; 
stroke:#840000; stroke-width:100; stroke-opacity:1; 
stroke-linecap:round; stroke-linejoin:round;">
<circle cx="63650" cy="52000" r="1110" /> 
</g>
<g style="fill:#840000; fill-opacity:1.0; 
stroke:#840000; stroke-width:60; stroke-opacity:1; 
stroke-linecap:round; stroke-linejoin:round;">
<circle cx="64000" cy="52700" r="110" /> 
<circle cx="64000" cy="51300" r="110" /> 
</g>
<g style="fill:#840000; fill-opacity:0.0; 
stroke:#840000; stroke-width:60; stroke-opacity:1; 
stroke-linecap:round; stroke-linejoin:round;">
<polyline fill="none;"
points="63300,52700
64000,52700
" /> 
</g>
<g style="fill:#840000; fill-opacity:0.0; 
stroke:#840000; stroke-width:100; stroke-opacity:1; 
stroke-linecap:round; stroke-linejoin:round;">
<polyline fill="none;"
points="63300,52500
63300,52900
" /> 
</g>
<g style="fill:#840000; fill-opacity:0.0; 
stroke:#840000; stroke-width:60; stroke-opacity:1; 
stroke-linecap:round; stroke-linejoin:round;">
<polyline fill="none;"
points="63300,52000
64000,52000
" /> 
</g>
<g style="fill:#840000; fill-opacity:0.0; 
stroke:#840000; stroke-width:100; stroke-opacity:1; 
stroke-linecap:round; stroke-linejoin:round;">
<polyline fill="none;"
points="63300,51800
63300,52200
" /> 
</g>
<g style="fill:#840000; fill-opacity:0.0; 
stroke:#840000; stroke-width:60; stroke-opacity:1; 
stroke-linecap:round; stroke-linejoin:round;">
<polyline fill="none;"
points="63300,51300
64000,51300
" /> 
</g>
<g style="fill:#840000; fill-opacity:0.0; 
stroke:#840000; stroke-width:100; stroke-opacity:1; 
stroke-linecap:round; stroke-linejoin:round;">
<polyline fill="none;"
points="63300,51100
63300,51500
" /> 
</g>
<g style="fill:#840000; fill-opacity:0.0; 
stroke:#840000; stroke-width:60; stroke-opacity:1; 
stroke-linecap:round; stroke-linejoin:round;">
<polyline fill="none;"
points="64000,52700
64000,53000
" /> 
<polyline fill="none;"
points="64000,52700
64000,52000
" /> 
<polyline fill="none;"
points="64000,51000
64000,51300
" /> 
</g>
<g style="fill:#840000; fill-opacity:0.0; 
stroke:#840000; stroke-width:100; stroke-opacity:1; 
stroke-linecap:round; stroke-linejoin:round;">
<polyline fill="none;"
points="63100,51250
63100,52750
63100,52750
" /> 
</g>
<g style="fill:#840000; fill-opacity:0.0; 
stroke:#840000; stroke-width:60; stroke-opacity:1; 
stroke-linecap:round; stroke-linejoin:round;">
<polyline fill="none;"
points="64000,52700
64300,52700
64300,51300
64000,51300
" /> 
</g>
<g style="fill:#840000; fill-opacity:1.0; 
stroke:#840000; stroke-width:60; stroke-opacity:1; 
stroke-linecap:round; stroke-linejoin:round;">
<polyline style="fill-rule:evenodd;"
points="63400,52000
63800,52150
63800,51850
63400,52000
" /> 
</g>
<g style="fill:#840000; fill-opacity:0.0; 
stroke:#840000; stroke-width:60; stroke-opacity:1; 
stroke-linecap:round; stroke-linejoin:round;">
<polyline fill="none;"
points="64100,51800
64150,51850
64450,51850
64500,51900
" /> 
<polyline fill="none;"
points="64300,51850
64150,52100
64450,52100
64300,51850
" /> 
<path d="M63100 52000
L61000 52000
" />
<path d="M62190 52580
L61910 52580
" />
<path d="M62050 52580
L62050 52080
L62000 52150
L61950 52200
L61910 52220
" />
<path d="M64000 53000
L64000 54000
" />
<path d="M64080 53380
L64080 53620
L64310 53640
L64290 53620
L64270 53570
L64270 53450
L64290 53410
L64310 53380
L64360 53360
L64480 53360
L64530 53380
L64550 53410
L64580 53450
L64580 53570
L64550 53620
L64530 53640
" />
<path d="M64000 51000
L64000 50000
" />
<path d="M64080 50410
L64080 50500
L64100 50550
L64120 50570
L64200 50620
L64290 50640
L64480 50640
L64530 50620
L64550 50600
L64580 50550
L64580 50450
L64550 50410
L64530 50380
L64480 50360
L64360 50360
L64310 50380
L64290 50410
L64270 50450
L64270 50550
L64290 50600
L64310 50620
L64360 50640
" />
</g>
<g style="fill:#008484; fill-opacity:0.0; 
stroke:#008484; stroke-width:60; stroke-opacity:1; 
stroke-linecap:round; stroke-linejoin:round;">
<path d="M65450 51800
L65400 51780
L65360 51730
L65290 51660
L65240 51640
L65190 51640
" />
<path d="M65210 51760
L65170 51730
L65120 51680
L65100 51590
L65100 51420
L65120 51330
L65170 51280
L65210 51260
L65310 51260
L65360 51280
L65400 51330
L65430 51420
L65430 51590
L65400 51680
L65360 51730
L65310 51760
L65210 51760
" />
<path d="M65850 51420
L65850 51760
" />
<path d="M65730 51230
L65620 51590
L65920 51590
" />
<path d="M66100 51610
L66330 51610
" />
<path d="M66050 51760
L66210 51260
L66380 51760
" />
<path d="M65120 52760
L65120 52260
L65240 52260
L65310 52280
L65360 52330
L65380 52380
L65400 52470
L65400 52540
L65380 52640
L65360 52680
L65310 52730
L65240 52760
L65120 52760
" />
<path d="M65620 52760
L65620 52260
L65790 52610
L65950 52260
L65950 52760
" />
<path d="M66450 52280
L66400 52260
L66330 52260
L66260 52280
L66210 52330
L66190 52380
L66170 52470
L66170 52540
L66190 52640
L66210 52680
L66260 52730
L66330 52760
L66380 52760
L66450 52730
L66470 52710
L66470 52540
L66380 52540
" />
<path d="M66900 52260
L66810 52260
L66760 52280
L66740 52300
L66690 52380
L66670 52470
L66670 52660
L66690 52710
L66710 52730
L66760 52760
L66860 52760
L66900 52730
L66930 52710
L66950 52660
L66950 52540
L66930 52490
L66900 52470
L66860 52450
L66760 52450
L66710 52470
L66690 52490
L66670 52540
" />
<path d="M67380 52260
L67290 52260
L67240 52280
L67220 52300
L67170 52380
L67150 52470
L67150 52660
L67170 52710
L67190 52730
L67240 52760
L67340 52760
L67380 52730
L67410 52710
L67430 52660
L67430 52540
L67410 52490
L67380 52470
L67340 52450
L67240 52450
L67190 52470
L67170 52490
L67150 52540
" />
<path d="M67740 52260
L67790 52260
L67840 52280
L67860 52300
L67890 52350
L67910 52450
L67910 52570
L67890 52660
L67860 52710
L67840 52730
L67790 52760
L67740 52760
L67700 52730
L67670 52710
L67650 52660
L67630 52570
L67630 52450
L67650 52350
L67670 52300
L67700 52280
L67740 52260
" />
<path d="M68390 52760
L68110 52760
" />
<path d="M68250 52760
L68250 52260
L68200 52330
L68150 52380
L68110 52400
" />
<path d="M68850 52760
L68610 52760
L68610 52260
" />
<path d="M68940 52260
L69100 52760
L69270 52260
" />
<path d="M69370 52260
L69650 52260
" />
<path d="M69510 52760
L69510 52260
" />
</g>
<g style="fill:#008484; fill-opacity:0.0; 
stroke:#008484; stroke-width:0; stroke-opacity:1; 
stroke-linecap:round; stroke-linejoin:round;">
</g>
<g style="fill:#840000; fill-opacity:0.0; 
stroke:#840000; stroke-width:0; stroke-opacity:1; 
stroke-linecap:round; stroke-linejoin:round;">
</g>
<g style="fill:#840000; fill-opacity:0.0; 
stroke:#840000; stroke-width:100; stroke-opacity:1; 
stroke-linecap:round; stroke-linejoin:round;">
<circle cx="63650" cy="46000" r="1110" /> 
</g>
<g style="fill:#840000; fill-opacity:1.0; 
stroke:#840000; stroke-width:60; stroke-opacity:1; 
stroke-linecap:round; stroke-linejoin:round;">
<circle cx="64000" cy="45300" r="110" /> 
<circle cx="64000" cy="46700" r="110" /> 
</g>
<g style="fill:#840000; fill-opacity:0.0; 
stroke:#840000; stroke-width:60; stroke-opacity:1; 
stroke-linecap:round; stroke-linejoin:round;">
<polyline fill="none;"
points="63300,45300
64000,45300
" /> 
</g>
<g style="fill:#840000; fill-opacity:0.0; 
stroke:#840000; stroke-width:100; stroke-opacity:1; 
stroke-linecap:round; stroke-linejoin:round;">
<polyline fill="none;"
points="63300,45500
63300,45100
" /> 
</g>
<g style="fill:#840000; fill-opacity:0.0; 
stroke:#840000; stroke-width:60; stroke-opacity:1; 
stroke-linecap:round; stroke-linejoin:round;">
<polyline fill="none;"
points="63300,46000
64000,46000
" /> 
</g>
<g style="fill:#840000; fill-opacity:0.0; 
stroke:#840000; stroke-width:100; stroke-opacity:1; 
stroke-linecap:round; stroke-linejoin:round;">
<polyline fill="none;"
points="63300,46200
63300,45800
" /> 
</g>
<g style="fill:#840000; fill-opacity:0.0; 
stroke:#840000; stroke-width:60; stroke-opacity:1; 
stroke-linecap:round; stroke-linejoin:round;">
<polyline fill="none;"
points="63300,46700
64000,46700
" /> 
</g>
<g style="fill:#840000; fill-opacity:0.0; 
stroke:#840000; stroke-width:100; stroke-opacity:1; 
stroke-linecap:round; stroke-linejoin:round;">
<polyline fill="none;"
points="63300,46900
63300,46500
" /> 
</g>
<g style="fill:#840000; fill-opacity:0.0; 
stroke:#840000; stroke-width:60; stroke-opacity:1; 
stroke-linecap:round; stroke-linejoin:round;">
<polyline fill="none;"
points="64000,45300
64000,45000
" /> 
<polyline fill="none;"
points="64000,45300
64000,46000
" /> 
<polyline fill="none;"
points="64000,47000
64000,46700
" /> 
</g>
<g style="fill:#840000; fill-opacity:0.0; 
stroke:#840000; stroke-width:100; stroke-opacity:1; 
stroke-linecap:round; stroke-linejoin:round;">
<polyline fill="none;"
points="63100,46750
63100,45250
63100,45250
" /> 
</g>
<g style="fill:#840000; fill-opacity:0.0; 
stroke:#840000; stroke-width:60; stroke-opacity:1; 
stroke-linecap:round; stroke-linejoin:round;">
<polyline fill="none;"
points="64000,45300
64300,45300
64300,46700
64000,46700
" /> 
</g>
<g style="fill:#840000; fill-opacity:1.0; 
stroke:#840000; stroke-width:60; stroke-opacity:1; 
stroke-linecap:round; stroke-linejoin:round;">
<polyline style="fill-rule:evenodd;"
points="63500,46150
63900,46000
63500,45850
63500,46150
" /> 
</g>
<g style="fill:#840000; fill-opacity:0.0; 
stroke:#840000; stroke-width:60; stroke-opacity:1; 
stroke-linecap:round; stroke-linejoin:round;">
<polyline fill="none;"
points="64100,45800
64150,45850
64450,45850
64500,45900
" /> 
<polyline fill="none;"
points="64150,46100
64450,46100
64300,45850
64150,46100
" /> 
<path d="M64000 45000
L64000 44000
" />
<path d="M64120 44640
L64100 44620
L64080 44570
L64080 44450
L64100 44410
L64120 44380
L64170 44360
L64220 44360
L64290 44380
L64580 44670
L64580 44360
" />
<path d="M63100 46000
L61000 46000
" />
<path d="M61880 46080
L62190 46080
L62020 46270
L62100 46270
L62140 46290
L62170 46310
L62190 46360
L62190 46480
L62170 46530
L62140 46550
L62100 46580
L61950 46580
L61910 46550
L61880 46530
" />
<path d="M64000 47000
L64000 48000
" />
<path d="M64240 47410
L64580 47410
" />
<path d="M64050 47530
L64410 47640
L64410 47340
" />
</g>
<g style="fill:#008484; fill-opacity:0.0; 
stroke:#008484; stroke-width:60; stroke-opacity:1; 
stroke-linecap:round; stroke-linejoin:round;">
<path d="M65450 46730
L65400 46710
L65360 46660
L65290 46590
L65240 46570
L65190 46570
" />
<path d="M65210 46690
L65170 46660
L65120 46610
L65100 46520
L65100 46350
L65120 46260
L65170 46210
L65210 46190
L65310 46190
L65360 46210
L65400 46260
L65430 46350
L65430 46520
L65400 46610
L65360 46660
L65310 46690
L65210 46690
" />
<path d="M65850 46350
L65850 46690
" />
<path d="M65730 46160
L65620 46520
L65920 46520
" />
<path d="M66290 46420
L66360 46450
L66380 46470
L66400 46520
L66400 46590
L66380 46640
L66360 46660
L66310 46690
L66120 46690
L66120 46190
L66290 46190
L66330 46210
L66360 46230
L66380 46280
L66380 46330
L66360 46380
L66330 46400
L66290 46420
L66120 46420
" />
<path d="M65120 45690
L65120 45190
L65240 45190
L65310 45210
L65360 45260
L65380 45310
L65400 45400
L65400 45470
L65380 45570
L65360 45610
L65310 45660
L65240 45690
L65120 45690
" />
<path d="M65620 45690
L65620 45190
L65790 45540
L65950 45190
L65950 45690
" />
<path d="M66450 45210
L66400 45190
L66330 45190
L66260 45210
L66210 45260
L66190 45310
L66170 45400
L66170 45470
L66190 45570
L66210 45610
L66260 45660
L66330 45690
L66380 45690
L66450 45660
L66470 45640
L66470 45470
L66380 45470
" />
<path d="M66900 45190
L66810 45190
L66760 45210
L66740 45230
L66690 45310
L66670 45400
L66670 45590
L66690 45640
L66710 45660
L66760 45690
L66860 45690
L66900 45660
L66930 45640
L66950 45590
L66950 45470
L66930 45420
L66900 45400
L66860 45380
L66760 45380
L66710 45400
L66690 45420
L66670 45470
" />
<path d="M67380 45190
L67290 45190
L67240 45210
L67220 45230
L67170 45310
L67150 45400
L67150 45590
L67170 45640
L67190 45660
L67240 45690
L67340 45690
L67380 45660
L67410 45640
L67430 45590
L67430 45470
L67410 45420
L67380 45400
L67340 45380
L67240 45380
L67190 45400
L67170 45420
L67150 45470
" />
<path d="M67740 45190
L67790 45190
L67840 45210
L67860 45230
L67890 45280
L67910 45380
L67910 45500
L67890 45590
L67860 45640
L67840 45660
L67790 45690
L67740 45690
L67700 45660
L67670 45640
L67650 45590
L67630 45500
L67630 45380
L67650 45280
L67670 45230
L67700 45210
L67740 45190
" />
<path d="M68390 45690
L68110 45690
" />
<path d="M68250 45690
L68250 45190
L68200 45260
L68150 45310
L68110 45330
" />
<path d="M68850 45690
L68610 45690
L68610 45190
" />
<path d="M68940 45190
L69100 45690
L69270 45190
" />
<path d="M69370 45190
L69650 45190
" />
<path d="M69510 45690
L69510 45190
" />
</g>
<g style="fill:#008400; fill-opacity:0.0; 
stroke:#008400; stroke-width:60; stroke-opacity:1; 
stroke-linecap:round; stroke-linejoin:round;">
<path d="M53000 36000
L53000 36000
" />
<path d="M53000 52000
L53000 52000
" />
<path d="M61000 30000
L60000 30000
" />
<path d="M60000 30000
L60000 36000
" />
<path d="M60000 36000
L61000 36000
" />
<path d="M60000 46000
L60000 52000
" />
<path d="M60000 52000
L61000 52000
" />
</g>
<g style="fill:#008400; fill-opacity:0.0; 
stroke:#008400; stroke-width:0; stroke-opacity:1; 
stroke-linecap:round; stroke-linejoin:round;">
</g>
<g style="fill:#008400; fill-opacity:1.0; 
stroke:#008400; stroke-width:100; stroke-opacity:1; 
stroke-linecap:round; stroke-linejoin:round;">
<circle cx="60000" cy="33000" r="200" /> 
</g>
<g style="fill:#008400; fill-opacity:1.0; 
stroke:#008400; stroke-width:0; stroke-opacity:1; 
stroke-linecap:round; stroke-linejoin:round;">
</g>
<g style="fill:#008400; fill-opacity:1.0; 
stroke:#008400; stroke-width:100; stroke-opacity:1; 
stroke-linecap:round; stroke-linejoin:round;">
<circle cx="60000" cy="49000" r="200" /> 
</g>
<g style="fill:#008400; fill-opacity:1.0; 
stroke:#008400; stroke-width:60; stroke-opacity:1; 
stroke-linecap:round; stroke-linejoin:round;">
</g>
<g style="fill:#008400; fill-opacity:0.0; 
stroke:#008400; stroke-width:60; stroke-opacity:1; 
stroke-linecap:round; stroke-linejoin:round;">
<path d="M64000 32000
L64000 34000
" />
<path d="M64000 33000
L65000 33000
" />
</g>
<g style="fill:#008400; fill-opacity:0.0; 
stroke:#008400; stroke-width:0; stroke-opacity:1; 
stroke-linecap:round; stroke-linejoin:round;">
</g>
<g style="fill:#008400; fill-opacity:1.0; 
stroke:#008400; stroke-width:100; stroke-opacity:1; 
stroke-linecap:round; stroke-linejoin:round;">
<circle cx="64000" cy="33000" r="200" /> 
</g>
<g style="fill:#008400; fill-opacity:1.0; 
stroke:#008400; stroke-width:60; stroke-opacity:1; 
stroke-linecap:round; stroke-linejoin:round;">
</g>
<g style="fill:#008400; fill-opacity:0.0; 
stroke:#008400; stroke-width:60; stroke-opacity:1; 
stroke-linecap:round; stroke-linejoin:round;">
<path d="M64000 28000
L64000 28000
" />
<path d="M64000 38000
L64000 38000
" />
<path d="M64000 44000
L64000 44000
" />
<path d="M60000 46000
L61000 46000
" />
<path d="M64000 54000
L64000 54000
" />
<path d="M64000 48000
L64000 50000
" />
<path d="M64000 49000
L65000 49000
" />
</g>
<g style="fill:#008400; fill-opacity:0.0; 
stroke:#008400; stroke-width:0; stroke-opacity:1; 
stroke-linecap:round; stroke-linejoin:round;">
</g>
<g style="fill:#008400; fill-opacity:1.0; 
stroke:#008400; stroke-width:100; stroke-opacity:1; 
stroke-linecap:round; stroke-linejoin:round;">
<circle cx="64000" cy="49000" r="200" /> 
</g>
<g style="fill:#008400; fill-opacity:1.0; 
stroke:#008400; stroke-width:0; stroke-opacity:1; 
stroke-linecap:round; stroke-linejoin:round;">
</g>
<g style="fill:#840000; fill-opacity:1.0; 
stroke:#840000; stroke-width:0; stroke-opacity:1; 
stroke-linecap:round; stroke-linejoin:round;">
</g>
<g style="fill:#840000; fill-opacity:0.0; 
stroke:#840000; stroke-width:60; stroke-opacity:1; 
stroke-linecap:round; stroke-linejoin:round;">
<polyline fill="none;"
points="56000,38000
56000,38500
56500,38500
56000,39000
55500,38500
56000,38500
" /> 
</g>
<g style="fill:#008484; fill-opacity:0.0; 
stroke:#008484; stroke-width:60; stroke-opacity:1; 
stroke-linecap:round; stroke-linejoin:round;">
<path d="M55620 39280
L55570 39260
L55500 39260
L55430 39280
L55380 39330
L55360 39380
L55340 39470
L55340 39540
L55360 39640
L55380 39680
L55430 39730
L55500 39760
L55550 39760
L55620 39730
L55640 39710
L55640 39540
L55550 39540
" />
<path d="M55860 39760
L55860 39260
L56140 39760
L56140 39260
" />
<path d="M56380 39760
L56380 39260
L56500 39260
L56570 39280
L56620 39330
L56640 39380
L56660 39470
L56660 39540
L56640 39640
L56620 39680
L56570 39730
L56500 39760
L56380 39760
" />
</g>
<g style="fill:#008484; fill-opacity:0.0; 
stroke:#008484; stroke-width:0; stroke-opacity:1; 
stroke-linecap:round; stroke-linejoin:round;">
</g>
<g style="fill:#840000; fill-opacity:0.0; 
stroke:#840000; stroke-width:0; stroke-opacity:1; 
stroke-linecap:round; stroke-linejoin:round;">
</g>
<g style="fill:#840000; fill-opacity:0.0; 
stroke:#840000; stroke-width:60; stroke-opacity:1; 
stroke-linecap:round; stroke-linejoin:round;">
<polyline fill="none;"
points="64000,38000
64000,38500
64500,38500
64000,39000
63500,38500
64000,38500
" /> 
</g>
<g style="fill:#008484; fill-opacity:0.0; 
stroke:#008484; stroke-width:60; stroke-opacity:1; 
stroke-linecap:round; stroke-linejoin:round;">
<path d="M63620 39280
L63570 39260
L63500 39260
L63430 39280
L63380 39330
L63360 39380
L63340 39470
L63340 39540
L63360 39640
L63380 39680
L63430 39730
L63500 39760
L63550 39760
L63620 39730
L63640 39710
L63640 39540
L63550 39540
" />
<path d="M63860 39760
L63860 39260
L64140 39760
L64140 39260
" />
<path d="M64380 39760
L64380 39260
L64500 39260
L64570 39280
L64620 39330
L64640 39380
L64660 39470
L64660 39540
L64640 39640
L64620 39680
L64570 39730
L64500 39760
L64380 39760
" />
</g>
<g style="fill:#008484; fill-opacity:0.0; 
stroke:#008484; stroke-width:0; stroke-opacity:1; 
stroke-linecap:round; stroke-linejoin:round;">
</g>
<g style="fill:#840000; fill-opacity:0.0; 
stroke:#840000; stroke-width:0; stroke-opacity:1; 
stroke-linecap:round; stroke-linejoin:round;">
</g>
<g style="fill:#840000; fill-opacity:0.0; 
stroke:#840000; stroke-width:60; stroke-opacity:1; 
stroke-linecap:round; stroke-linejoin:round;">
<circle cx="64000" cy="43250" r="250" /> 
<polyline fill="none;"
points="64000,44000
64000,43500
" /> 
</g>
<g style="fill:#008484; fill-opacity:0.0; 
stroke:#008484; stroke-width:60; stroke-opacity:1; 
stroke-linecap:round; stroke-linejoin:round;">
<path d="M63340 42260
L63500 42760
L63670 42260
" />
<path d="M64120 42710
L64100 42730
L64030 42760
L63980 42760
L63910 42730
L63860 42680
L63840 42640
L63820 42540
L63820 42470
L63840 42380
L63860 42330
L63910 42280
L63980 42260
L64030 42260
L64100 42280
L64120 42300
" />
<path d="M64620 42710
L64600 42730
L64530 42760
L64480 42760
L64410 42730
L64360 42680
L64340 42640
L64320 42540
L64320 42470
L64340 42380
L64360 42330
L64410 42280
L64480 42260
L64530 42260
L64600 42280
L64620 42300
" />
</g>
<g style="fill:#840000; fill-opacity:0.0; 
stroke:#840000; stroke-width:60; stroke-opacity:1; 
stroke-linecap:round; stroke-linejoin:round;">
<path d="M39700 43380
L39670 43440
L39670 43530
L39700 43610
L39760 43670
L39810 43700
L39930 43730
L40010 43730
L40130 43700
L40190 43670
L40240 43610
L40270 43530
L40270 43470
L40240 43380
L40210 43350
L40010 43350
L40010 43470
" />
<path d="M40270 43100
L39670 43100
L40270 42750
L39670 42750
" />
<path d="M40270 42470
L39670 42470
L39670 42320
L39700 42240
L39760 42180
L39810 42150
L39930 42120
L40010 42120
L40130 42150
L40190 42180
L40240 42240
L40270 42320
L40270 42470
" />
</g>
<g style="fill:#840000; fill-opacity:0.0; 
stroke:#840000; stroke-width:100; stroke-opacity:1; 
stroke-linecap:round; stroke-linejoin:round;">
<polyline fill="none;"
points="40000,44000
40540,44000
40540,41880
40000,41880
39460,41880
39460,44000
40000,44000
" /> 
</g>
<g style="fill:#840000; fill-opacity:0.0; 
stroke:#840000; stroke-width:60; stroke-opacity:1; 
stroke-linecap:round; stroke-linejoin:round;">
<path d="M39730 39700
L39700 39670
L39670 39610
L39670 39470
L39700 39410
L39730 39380
L39790 39350
L39840 39350
L39930 39380
L40270 39720
L40270 39350
" />
<path d="M39670 39180
L40270 38980
L39670 38780
" />
<path d="M39930 38500
L39900 38560
L39870 38590
L39810 38620
L39790 38620
L39730 38590
L39700 38560
L39670 38500
L39670 38390
L39700 38330
L39730 38300
L39790 38270
L39810 38270
L39870 38300
L39900 38330
L39930 38390
L39930 38500
L39960 38560
L39990 38590
L40040 38620
L40160 38620
L40210 38590
L40240 38560
L40270 38500
L40270 38390
L40240 38330
L40210 38300
L40160 38270
L40040 38270
L39990 38300
L39960 38330
L39930 38390
" />
</g>
<g style="fill:#840000; fill-opacity:0.0; 
stroke:#840000; stroke-width:100; stroke-opacity:1; 
stroke-linecap:round; stroke-linejoin:round;">
<polyline fill="none;"
points="40000,38000
39460,38000
39460,39940
40000,39940
40540,39940
40540,38000
40000,38000
" /> 
</g>
<g style="fill:#840000; fill-opacity:0.0; 
stroke:#840000; stroke-width:60; stroke-opacity:1; 
stroke-linecap:round; stroke-linejoin:round;">
<path d="M41670 39810
L42270 39610
L41670 39410
" />
<path d="M42210 38870
L42240 38900
L42270 38990
L42270 39050
L42240 39130
L42190 39190
L42130 39220
L42010 39250
L41930 39250
L41810 39220
L41760 39190
L41700 39130
L41670 39050
L41670 38990
L41700 38900
L41730 38870
" />
<path d="M42210 38270
L42240 38300
L42270 38390
L42270 38450
L42240 38530
L42190 38590
L42130 38620
L42010 38650
L41930 38650
L41810 38620
L41760 38590
L41700 38530
L41670 38450
L41670 38390
L41700 38300
L41730 38270
" />
</g>
<g style="fill:#840000; fill-opacity:0.0; 
stroke:#840000; stroke-width:100; stroke-opacity:1; 
stroke-linecap:round; stroke-linejoin:round;">
<polyline fill="none;"
points="42000,38000
41460,38000
41460,40000
42000,40000
42540,40000
42540,38000
42000,38000
" /> 
</g>
<g style="fill:#840000; fill-opacity:0.0; 
stroke:#840000; stroke-width:0; stroke-opacity:1; 
stroke-linecap:round; stroke-linejoin:round;">
</g>
<g style="fill:#840000; fill-opacity:0.0; 
stroke:#840000; stroke-width:100; stroke-opacity:1; 
stroke-linecap:round; stroke-linejoin:round;">
<circle cx="55500" cy="36000" r="1110" /> 
</g>
<g style="fill:#840000; fill-opacity:0.0; 
stroke:#840000; stroke-width:60; stroke-opacity:1; 
stroke-linecap:round; stroke-linejoin:round;">
<polyline fill="none;"
points="55250,35750
56000,35000
" /> 
<polyline fill="none;"
points="55250,36250
56000,37000
56000,37000
" /> 
</g>
<g style="fill:#840000; fill-opacity:0.0; 
stroke:#840000; stroke-width:200; stroke-opacity:1; 
stroke-linecap:round; stroke-linejoin:round;">
<polyline fill="none;"
points="55250,35250
55250,36750
55250,36750
" /> 
</g>
<g style="fill:#840000; fill-opacity:1.0; 
stroke:#840000; stroke-width:60; stroke-opacity:1; 
stroke-linecap:round; stroke-linejoin:round;">
<polyline style="fill-rule:evenodd;"
points="55500,36700
55700,36500
55900,36900
55500,36700
55500,36700
" /> 
</g>
<g style="fill:#840000; fill-opacity:0.0; 
stroke:#840000; stroke-width:60; stroke-opacity:1; 
stroke-linecap:round; stroke-linejoin:round;">
<path d="M55250 36000
L53000 36000
" />
<path d="M54260 36580
L53980 36580
" />
<path d="M54120 36580
L54120 36080
L54070 36150
L54020 36200
L53980 36220
" />
<path d="M56000 37000
L56000 38000
" />
<path d="M56120 37640
L56100 37620
L56080 37570
L56080 37450
L56100 37410
L56120 37380
L56170 37360
L56220 37360
L56290 37380
L56580 37670
L56580 37360
" />
<path d="M56000 35000
L56000 34000
" />
<path d="M56080 34670
L56080 34360
L56270 34530
L56270 34450
L56290 34410
L56310 34380
L56360 34360
L56480 34360
L56530 34380
L56550 34410
L56580 34450
L56580 34600
L56550 34640
L56530 34670
" />
</g>
<g style="fill:#008484; fill-opacity:0.0; 
stroke:#008484; stroke-width:60; stroke-opacity:1; 
stroke-linecap:round; stroke-linejoin:round;">
<path d="M57450 35800
L57400 35780
L57360 35730
L57290 35660
L57240 35640
L57190 35640
" />
<path d="M57210 35760
L57170 35730
L57120 35680
L57100 35590
L57100 35420
L57120 35330
L57170 35280
L57210 35260
L57310 35260
L57360 35280
L57400 35330
L57430 35420
L57430 35590
L57400 35680
L57360 35730
L57310 35760
L57210 35760
" />
<path d="M57900 35760
L57620 35760
" />
<path d="M57760 35760
L57760 35260
L57710 35330
L57660 35380
L57620 35400
" />
<path d="M57120 36760
L57120 36260
L57290 36610
L57450 36260
L57450 36760
" />
<path d="M57690 36760
L57690 36260
L57860 36610
L58020 36260
L58020 36760
" />
<path d="M58430 36490
L58500 36520
L58520 36540
L58540 36590
L58540 36660
L58520 36710
L58500 36730
L58450 36760
L58260 36760
L58260 36260
L58430 36260
L58470 36280
L58500 36300
L58520 36350
L58520 36400
L58500 36450
L58470 36470
L58430 36490
L58260 36490
" />
<path d="M58690 36260
L58970 36260
" />
<path d="M58830 36760
L58830 36260
" />
<path d="M59120 36300
L59140 36280
L59190 36260
L59310 36260
L59350 36280
L59380 36300
L59400 36350
L59400 36400
L59380 36470
L59090 36760
L59400 36760
" />
<path d="M59600 36300
L59620 36280
L59670 36260
L59790 36260
L59830 36280
L59860 36300
L59880 36350
L59880 36400
L59860 36470
L59570 36760
L59880 36760
" />
<path d="M60080 36300
L60100 36280
L60150 36260
L60270 36260
L60310 36280
L60340 36300
L60360 36350
L60360 36400
L60340 36470
L60050 36760
L60360 36760
" />
<path d="M60560 36300
L60580 36280
L60630 36260
L60750 36260
L60790 36280
L60820 36300
L60840 36350
L60840 36400
L60820 36470
L60530 36760
L60840 36760
" />
<path d="M61040 36610
L61270 36610
" />
<path d="M60990 36760
L61150 36260
L61320 36760
" />
</g>
<g style="fill:#008484; fill-opacity:0.0; 
stroke:#008484; stroke-width:0; stroke-opacity:1; 
stroke-linecap:round; stroke-linejoin:round;">
</g>
<g style="fill:#840000; fill-opacity:0.0; 
stroke:#840000; stroke-width:0; stroke-opacity:1; 
stroke-linecap:round; stroke-linejoin:round;">
</g>
<g style="fill:#840000; fill-opacity:0.0; 
stroke:#840000; stroke-width:60; stroke-opacity:1; 
stroke-linecap:round; stroke-linejoin:round;">
<circle cx="56000" cy="27250" r="250" /> 
<polyline fill="none;"
points="56000,28000
56000,27500
" /> 
</g>
<g style="fill:#008484; fill-opacity:0.0; 
stroke:#008484; stroke-width:60; stroke-opacity:1; 
stroke-linecap:round; stroke-linejoin:round;">
<path d="M55340 26260
L55500 26760
L55670 26260
" />
<path d="M56120 26710
L56100 26730
L56030 26760
L55980 26760
L55910 26730
L55860 26680
L55840 26640
L55820 26540
L55820 26470
L55840 26380
L55860 26330
L55910 26280
L55980 26260
L56030 26260
L56100 26280
L56120 26300
" />
<path d="M56620 26710
L56600 26730
L56530 26760
L56480 26760
L56410 26730
L56360 26680
L56340 26640
L56320 26540
L56320 26470
L56340 26380
L56360 26330
L56410 26280
L56480 26260
L56530 26260
L56600 26280
L56620 26300
" />
</g>
<g style="fill:#008484; fill-opacity:0.0; 
stroke:#008484; stroke-width:0; stroke-opacity:1; 
stroke-linecap:round; stroke-linejoin:round;">
</g>
<g style="fill:#840000; fill-opacity:0.0; 
stroke:#840000; stroke-width:0; stroke-opacity:1; 
stroke-linecap:round; stroke-linejoin:round;">
</g>
<g style="fill:#840000; fill-opacity:0.0; 
stroke:#840000; stroke-width:60; stroke-opacity:1; 
stroke-linecap:round; stroke-linejoin:round;">
<circle cx="56000" cy="43250" r="250" /> 
<polyline fill="none;"
points="56000,44000
56000,43500
" /> 
</g>
<g style="fill:#008484; fill-opacity:0.0; 
stroke:#008484; stroke-width:60; stroke-opacity:1; 
stroke-linecap:round; stroke-linejoin:round;">
<path d="M55340 42260
L55500 42760
L55670 42260
" />
<path d="M56120 42710
L56100 42730
L56030 42760
L55980 42760
L55910 42730
L55860 42680
L55840 42640
L55820 42540
L55820 42470
L55840 42380
L55860 42330
L55910 42280
L55980 42260
L56030 42260
L56100 42280
L56120 42300
" />
<path d="M56620 42710
L56600 42730
L56530 42760
L56480 42760
L56410 42730
L56360 42680
L56340 42640
L56320 42540
L56320 42470
L56340 42380
L56360 42330
L56410 42280
L56480 42260
L56530 42260
L56600 42280
L56620 42300
" />
</g>
<g style="fill:#008484; fill-opacity:0.0; 
stroke:#008484; stroke-width:0; stroke-opacity:1; 
stroke-linecap:round; stroke-linejoin:round;">
</g>
<g style="fill:#840000; fill-opacity:0.0; 
stroke:#840000; stroke-width:0; stroke-opacity:1; 
stroke-linecap:round; stroke-linejoin:round;">
</g>
<g style="fill:#840000; fill-opacity:0.0; 
stroke:#840000; stroke-width:100; stroke-opacity:1; 
stroke-linecap:round; stroke-linejoin:round;">
<circle cx="55500" cy="52000" r="1110" /> 
</g>
<g style="fill:#840000; fill-opacity:0.0; 
stroke:#840000; stroke-width:60; stroke-opacity:1; 
stroke-linecap:round; stroke-linejoin:round;">
<polyline fill="none;"
points="55250,51750
56000,51000
" /> 
<polyline fill="none;"
points="55250,52250
56000,53000
56000,53000
" /> 
</g>
<g style="fill:#840000; fill-opacity:0.0; 
stroke:#840000; stroke-width:200; stroke-opacity:1; 
stroke-linecap:round; stroke-linejoin:round;">
<polyline fill="none;"
points="55250,51250
55250,52750
55250,52750
" /> 
</g>
<g style="fill:#840000; fill-opacity:1.0; 
stroke:#840000; stroke-width:60; stroke-opacity:1; 
stroke-linecap:round; stroke-linejoin:round;">
<polyline style="fill-rule:evenodd;"
points="55500,52700
55700,52500
55900,52900
55500,52700
55500,52700
" /> 
</g>
<g style="fill:#840000; fill-opacity:0.0; 
stroke:#840000; stroke-width:60; stroke-opacity:1; 
stroke-linecap:round; stroke-linejoin:round;">
<path d="M55250 52000
L53000 52000
" />
<path d="M54260 52580
L53980 52580
" />
<path d="M54120 52580
L54120 52080
L54070 52150
L54020 52200
L53980 52220
" />
<path d="M56000 53000
L56000 54000
" />
<path d="M56120 53640
L56100 53620
L56080 53570
L56080 53450
L56100 53410
L56120 53380
L56170 53360
L56220 53360
L56290 53380
L56580 53670
L56580 53360
" />
<path d="M56000 51000
L56000 50000
" />
<path d="M56080 50670
L56080 50360
L56270 50530
L56270 50450
L56290 50410
L56310 50380
L56360 50360
L56480 50360
L56530 50380
L56550 50410
L56580 50450
L56580 50600
L56550 50640
L56530 50670
" />
</g>
<g style="fill:#008484; fill-opacity:0.0; 
stroke:#008484; stroke-width:60; stroke-opacity:1; 
stroke-linecap:round; stroke-linejoin:round;">
<path d="M57450 51800
L57400 51780
L57360 51730
L57290 51660
L57240 51640
L57190 51640
" />
<path d="M57210 51760
L57170 51730
L57120 51680
L57100 51590
L57100 51420
L57120 51330
L57170 51280
L57210 51260
L57310 51260
L57360 51280
L57400 51330
L57430 51420
L57430 51590
L57400 51680
L57360 51730
L57310 51760
L57210 51760
" />
<path d="M57620 51300
L57640 51280
L57690 51260
L57810 51260
L57850 51280
L57880 51300
L57900 51350
L57900 51400
L57880 51470
L57590 51760
L57900 51760
" />
<path d="M57120 52760
L57120 52260
L57290 52610
L57450 52260
L57450 52760
" />
<path d="M57690 52760
L57690 52260
L57860 52610
L58020 52260
L58020 52760
" />
<path d="M58430 52490
L58500 52520
L58520 52540
L58540 52590
L58540 52660
L58520 52710
L58500 52730
L58450 52760
L58260 52760
L58260 52260
L58430 52260
L58470 52280
L58500 52300
L58520 52350
L58520 52400
L58500 52450
L58470 52470
L58430 52490
L58260 52490
" />
<path d="M58690 52260
L58970 52260
" />
<path d="M58830 52760
L58830 52260
" />
<path d="M59120 52300
L59140 52280
L59190 52260
L59310 52260
L59350 52280
L59380 52300
L59400 52350
L59400 52400
L59380 52470
L59090 52760
L59400 52760
" />
<path d="M59600 52300
L59620 52280
L59670 52260
L59790 52260
L59830 52280
L59860 52300
L59880 52350
L59880 52400
L59860 52470
L59570 52760
L59880 52760
" />
<path d="M60080 52300
L60100 52280
L60150 52260
L60270 52260
L60310 52280
L60340 52300
L60360 52350
L60360 52400
L60340 52470
L60050 52760
L60360 52760
" />
<path d="M60560 52300
L60580 52280
L60630 52260
L60750 52260
L60790 52280
L60820 52300
L60840 52350
L60840 52400
L60820 52470
L60530 52760
L60840 52760
" />
<path d="M61040 52610
L61270 52610
" />
<path d="M60990 52760
L61150 52260
L61320 52760
" />
</g>
<g style="fill:#008400; fill-opacity:0.0; 
stroke:#008400; stroke-width:60; stroke-opacity:1; 
stroke-linecap:round; stroke-linejoin:round;">
<path d="M56000 32000
L56000 34000
" />
<path d="M56000 48000
L56000 50000
" />
<path d="M56000 33000
L60000 33000
" />
</g>
<g style="fill:#008400; fill-opacity:0.0; 
stroke:#008400; stroke-width:0; stroke-opacity:1; 
stroke-linecap:round; stroke-linejoin:round;">
</g>
<g style="fill:#008400; fill-opacity:1.0; 
stroke:#008400; stroke-width:100; stroke-opacity:1; 
stroke-linecap:round; stroke-linejoin:round;">
<circle cx="56000" cy="33000" r="200" /> 
</g>
<g style="fill:#008400; fill-opacity:1.0; 
stroke:#008400; stroke-width:60; stroke-opacity:1; 
stroke-linecap:round; stroke-linejoin:round;">
</g>
<g style="fill:#008400; fill-opacity:0.0; 
stroke:#008400; stroke-width:60; stroke-opacity:1; 
stroke-linecap:round; stroke-linejoin:round;">
<path d="M56000 49000
L60000 49000
" />
</g>
<g style="fill:#008400; fill-opacity:0.0; 
stroke:#008400; stroke-width:0; stroke-opacity:1; 
stroke-linecap:round; stroke-linejoin:round;">
</g>
<g style="fill:#008400; fill-opacity:1.0; 
stroke:#008400; stroke-width:100; stroke-opacity:1; 
stroke-linecap:round; stroke-linejoin:round;">
<circle cx="56000" cy="49000" r="200" /> 
</g>
<g style="fill:#008400; fill-opacity:1.0; 
stroke:#008400; stroke-width:0; stroke-opacity:1; 
stroke-linecap:round; stroke-linejoin:round;">
</g>
<g style="fill:#840000; fill-opacity:1.0; 
stroke:#840000; stroke-width:0; stroke-opacity:1; 
stroke-linecap:round; stroke-linejoin:round;">
</g>
<g style="fill:#840000; fill-opacity:0.0; 
stroke:#840000; stroke-width:80; stroke-opacity:1; 
stroke-linecap:round; stroke-linejoin:round;">
<rect x="55700" y="30300" width="600" height="1400" rx="0" />
</g>
<g style="fill:#840000; fill-opacity:0.0; 
stroke:#840000; stroke-width:60; stroke-opacity:1; 
stroke-linecap:round; stroke-linejoin:round;">
<path d="M56000 30300
L56000 30000
" />
<path d="M56000 31700
L56000 32000
" />
</g>
<g style="fill:#008484; fill-opacity:0.0; 
stroke:#008484; stroke-width:60; stroke-opacity:1; 
stroke-linecap:round; stroke-linejoin:round;">
<path d="M56700 31060
L56540 30820
" />
<path d="M56420 31060
L56420 30560
L56610 30560
L56660 30580
L56680 30600
L56700 30650
L56700 30720
L56680 30770
L56660 30790
L56610 30820
L56420 30820
" />
<path d="M57180 31060
L56900 31060
" />
<path d="M57040 31060
L57040 30560
L56990 30630
L56940 30680
L56900 30700
" />
<path d="M57350 30560
L57680 30560
L57470 31060
" />
<path d="M56680 31660
L56400 31660
" />
<path d="M56540 31660
L56540 31160
L56490 31230
L56440 31280
L56400 31300
" />
<path d="M56990 31160
L57040 31160
L57090 31180
L57110 31200
L57140 31250
L57160 31350
L57160 31470
L57140 31560
L57110 31610
L57090 31630
L57040 31660
L56990 31660
L56950 31630
L56920 31610
L56900 31560
L56880 31470
L56880 31350
L56900 31250
L56920 31200
L56950 31180
L56990 31160
" />
<path d="M57470 31160
L57520 31160
L57570 31180
L57590 31200
L57620 31250
L57640 31350
L57640 31470
L57620 31560
L57590 31610
L57570 31630
L57520 31660
L57470 31660
L57430 31630
L57400 31610
L57380 31560
L57360 31470
L57360 31350
L57380 31250
L57400 31200
L57430 31180
L57470 31160
" />
</g>
<g style="fill:#008484; fill-opacity:0.0; 
stroke:#008484; stroke-width:0; stroke-opacity:1; 
stroke-linecap:round; stroke-linejoin:round;">
</g>
<g style="fill:#840000; fill-opacity:0.0; 
stroke:#840000; stroke-width:0; stroke-opacity:1; 
stroke-linecap:round; stroke-linejoin:round;">
</g>
<g style="fill:#840000; fill-opacity:0.0; 
stroke:#840000; stroke-width:80; stroke-opacity:1; 
stroke-linecap:round; stroke-linejoin:round;">
<rect x="55700" y="46300" width="600" height="1400" rx="0" />
</g>
<g style="fill:#840000; fill-opacity:0.0; 
stroke:#840000; stroke-width:60; stroke-opacity:1; 
stroke-linecap:round; stroke-linejoin:round;">
<path d="M56000 46300
L56000 46000
" />
<path d="M56000 47700
L56000 48000
" />
</g>
<g style="fill:#008484; fill-opacity:0.0; 
stroke:#008484; stroke-width:60; stroke-opacity:1; 
stroke-linecap:round; stroke-linejoin:round;">
<path d="M56700 47060
L56540 46820
" />
<path d="M56420 47060
L56420 46560
L56610 46560
L56660 46580
L56680 46600
L56700 46650
L56700 46720
L56680 46770
L56660 46790
L56610 46820
L56420 46820
" />
<path d="M57180 47060
L56900 47060
" />
<path d="M57040 47060
L57040 46560
L56990 46630
L56940 46680
L56900 46700
" />
<path d="M57470 46770
L57420 46750
L57400 46720
L57380 46680
L57380 46650
L57400 46600
L57420 46580
L57470 46560
L57570 46560
L57610 46580
L57640 46600
L57660 46650
L57660 46680
L57640 46720
L57610 46750
L57570 46770
L57470 46770
L57420 46790
L57400 46820
L57380 46870
L57380 46960
L57400 47010
L57420 47030
L57470 47060
L57570 47060
L57610 47030
L57640 47010
L57660 46960
L57660 46870
L57640 46820
L57610 46790
L57570 46770
" />
<path d="M56680 47660
L56400 47660
" />
<path d="M56540 47660
L56540 47160
L56490 47230
L56440 47280
L56400 47300
" />
<path d="M56990 47160
L57040 47160
L57090 47180
L57110 47200
L57140 47250
L57160 47350
L57160 47470
L57140 47560
L57110 47610
L57090 47630
L57040 47660
L56990 47660
L56950 47630
L56920 47610
L56900 47560
L56880 47470
L56880 47350
L56900 47250
L56920 47200
L56950 47180
L56990 47160
" />
<path d="M57470 47160
L57520 47160
L57570 47180
L57590 47200
L57620 47250
L57640 47350
L57640 47470
L57620 47560
L57590 47610
L57570 47630
L57520 47660
L57470 47660
L57430 47630
L57400 47610
L57380 47560
L57360 47470
L57360 47350
L57380 47250
L57400 47200
L57430 47180
L57470 47160
" />
</g>
<g style="fill:#008400; fill-opacity:0.0; 
stroke:#008400; stroke-width:60; stroke-opacity:1; 
stroke-linecap:round; stroke-linejoin:round;">
<path d="M56000 44000
L56000 46000
" />
<path d="M56000 28000
L56000 30000
" />
</g>
<g style="fill:#008400; fill-opacity:0.0; 
stroke:#008400; stroke-width:0; stroke-opacity:1; 
stroke-linecap:round; stroke-linejoin:round;">
</g>
<g style="fill:#840000; fill-opacity:0.0; 
stroke:#840000; stroke-width:0; stroke-opacity:1; 
stroke-linecap:round; stroke-linejoin:round;">
</g>
<g style="fill:#840000; fill-opacity:0.0; 
stroke:#840000; stroke-width:80; stroke-opacity:1; 
stroke-linecap:round; stroke-linejoin:round;">
<rect x="51300" y="35700" width="1400" height="600" rx="0" />
</g>
<g style="fill:#840000; fill-opacity:0.0; 
stroke:#840000; stroke-width:60; stroke-opacity:1; 
stroke-linecap:round; stroke-linejoin:round;">
<path d="M52700 36000
L53000 36000
" />
<path d="M51300 36000
L51000 36000
" />
</g>
<g style="fill:#008484; fill-opacity:0.0; 
stroke:#008484; stroke-width:60; stroke-opacity:1; 
stroke-linecap:round; stroke-linejoin:round;">
<path d="M52390 37360
L52150 37520
" />
<path d="M52390 37640
L51890 37640
L51890 37450
L51910 37400
L51930 37380
L51980 37360
L52050 37360
L52100 37380
L52120 37400
L52150 37450
L52150 37640
" />
<path d="M52390 36880
L52390 37160
" />
<path d="M52390 37020
L51890 37020
L51960 37070
L52010 37120
L52030 37160
" />
<path d="M51890 36420
L51890 36660
L52120 36680
L52100 36660
L52080 36610
L52080 36490
L52100 36450
L52120 36420
L52170 36400
L52290 36400
L52340 36420
L52360 36450
L52390 36490
L52390 36610
L52360 36660
L52340 36680
" />
<path d="M51790 36800
L51790 37080
" />
<path d="M51790 36940
L51290 36940
L51360 36990
L51410 37040
L51430 37080
" />
<path d="M51790 36580
L51290 36580
" />
<path d="M51600 36530
L51790 36390
" />
<path d="M51450 36390
L51640 36580
" />
</g>
<g style="fill:#008484; fill-opacity:0.0; 
stroke:#008484; stroke-width:0; stroke-opacity:1; 
stroke-linecap:round; stroke-linejoin:round;">
</g>
<g style="fill:#840000; fill-opacity:0.0; 
stroke:#840000; stroke-width:0; stroke-opacity:1; 
stroke-linecap:round; stroke-linejoin:round;">
</g>
<g style="fill:#840000; fill-opacity:0.0; 
stroke:#840000; stroke-width:80; stroke-opacity:1; 
stroke-linecap:round; stroke-linejoin:round;">
<rect x="51300" y="51700" width="1400" height="600" rx="0" />
</g>
<g style="fill:#840000; fill-opacity:0.0; 
stroke:#840000; stroke-width:60; stroke-opacity:1; 
stroke-linecap:round; stroke-linejoin:round;">
<path d="M52700 52000
L53000 52000
" />
<path d="M51300 52000
L51000 52000
" />
</g>
<g style="fill:#008484; fill-opacity:0.0; 
stroke:#008484; stroke-width:60; stroke-opacity:1; 
stroke-linecap:round; stroke-linejoin:round;">
<path d="M52390 53360
L52150 53520
" />
<path d="M52390 53640
L51890 53640
L51890 53450
L51910 53400
L51930 53380
L51980 53360
L52050 53360
L52100 53380
L52120 53400
L52150 53450
L52150 53640
" />
<path d="M52390 52880
L52390 53160
" />
<path d="M52390 53020
L51890 53020
L51960 53070
L52010 53120
L52030 53160
" />
<path d="M51890 52450
L51890 52540
L51910 52590
L51930 52610
L52010 52660
L52100 52680
L52290 52680
L52340 52660
L52360 52640
L52390 52590
L52390 52490
L52360 52450
L52340 52420
L52290 52400
L52170 52400
L52120 52420
L52100 52450
L52080 52490
L52080 52590
L52100 52640
L52120 52660
L52170 52680
" />
<path d="M51790 52800
L51790 53080
" />
<path d="M51790 52940
L51290 52940
L51360 52990
L51410 53040
L51430 53080
" />
<path d="M51790 52580
L51290 52580
" />
<path d="M51600 52530
L51790 52390
" />
<path d="M51450 52390
L51640 52580
" />
</g> 
</svg>
