<?xml version="1.0" standalone="no"?>
 <!DOCTYPE svg PUBLIC "-//W3C//DTD SVG 1.1//EN" 
 "http://www.w3.org/Graphics/SVG/1.1/DTD/svg11.dtd"> 
<svg xmlns="http://www.w3.org/2000/svg" version="1.1" 
    width="29.7002cm" height="21.0007cm" viewBox="0 0 116930 82680 ">
<title>SVG Picture created as locomotive-B.SilkS.svg date 2017/03/31 13:48:09 </title>
  <desc>Picture generated by PCBNEW </desc>
<g style="fill:#000000; fill-opacity:1;stroke:#000000; stroke-opacity:1;
stroke-linecap:round; stroke-linejoin:round; "
 transform="translate(0 0) scale(1 1)">
</g>
<g style="fill:#000000; fill-opacity:0.0; 
stroke:#000000; stroke-width:-0.000393701; stroke-opacity:1; 
stroke-linecap:round; stroke-linejoin:round;">
</g>
<g style="fill:#000000; fill-opacity:0.0; 
stroke:#000000; stroke-width:39.3701; stroke-opacity:1; 
stroke-linecap:round; stroke-linejoin:round;">
</g>
<g style="fill:#000000; fill-opacity:0.0; 
stroke:#000000; stroke-width:59.0551; stroke-opacity:1; 
stroke-linecap:round; stroke-linejoin:round;">
<rect x="69685.9" y="65357.2" width="42519.7" height="12598.4" rx="0" />
</g>
<g style="fill:#000000; fill-opacity:0.0; 
stroke:#000000; stroke-width:39.3701; stroke-opacity:1; 
stroke-linecap:round; stroke-linejoin:round;">
</g>
<g style="fill:#000000; fill-opacity:0.0; 
stroke:#000000; stroke-width:59.0551; stroke-opacity:1; 
stroke-linecap:round; stroke-linejoin:round;">
<rect x="3937.01" y="3937.01" width="109056" height="74806" rx="0" />
</g>
<g style="fill:#000000; fill-opacity:0.0; 
stroke:#000000; stroke-width:39.3701; stroke-opacity:1; 
stroke-linecap:round; stroke-linejoin:round;">
</g>
<g style="fill:#000000; fill-opacity:0.0; 
stroke:#000000; stroke-width:59.0551; stroke-opacity:1; 
stroke-linecap:round; stroke-linejoin:round;">
<rect x="4724.41" y="4724.41" width="107481" height="73231.2" rx="0" />
</g>
<g style="fill:#000000; fill-opacity:0.0; 
stroke:#000000; stroke-width:39.3701; stroke-opacity:1; 
stroke-linecap:round; stroke-linejoin:round;">
</g>
<g style="fill:#000000; fill-opacity:0.0; 
stroke:#000000; stroke-width:59.0551; stroke-opacity:1; 
stroke-linecap:round; stroke-linejoin:round;">
<path d="M23622 4724
L23622 3937
" />
</g>
<g style="fill:#000000; fill-opacity:0.0; 
stroke:#000000; stroke-width:39.3701; stroke-opacity:1; 
stroke-linecap:round; stroke-linejoin:round;">
</g>
<g style="fill:#000000; fill-opacity:0.0; 
stroke:#000000; stroke-width:59.0551; stroke-opacity:1; 
stroke-linecap:round; stroke-linejoin:round;">
<path d="M43307 4724
L43307 3937
" />
</g>
<g style="fill:#000000; fill-opacity:0.0; 
stroke:#000000; stroke-width:39.3701; stroke-opacity:1; 
stroke-linecap:round; stroke-linejoin:round;">
</g>
<g style="fill:#000000; fill-opacity:0.0; 
stroke:#000000; stroke-width:59.0551; stroke-opacity:1; 
stroke-linecap:round; stroke-linejoin:round;">
<path d="M62992 4724
L62992 3937
" />
</g>
<g style="fill:#000000; fill-opacity:0.0; 
stroke:#000000; stroke-width:39.3701; stroke-opacity:1; 
stroke-linecap:round; stroke-linejoin:round;">
</g>
<g style="fill:#000000; fill-opacity:0.0; 
stroke:#000000; stroke-width:59.0551; stroke-opacity:1; 
stroke-linecap:round; stroke-linejoin:round;">
<path d="M82677 4724
L82677 3937
" />
</g>
<g style="fill:#000000; fill-opacity:0.0; 
stroke:#000000; stroke-width:39.3701; stroke-opacity:1; 
stroke-linecap:round; stroke-linejoin:round;">
</g>
<g style="fill:#000000; fill-opacity:0.0; 
stroke:#000000; stroke-width:59.0551; stroke-opacity:1; 
stroke-linecap:round; stroke-linejoin:round;">
<path d="M102362 4724
L102362 3937
" />
</g>
<g style="fill:#000000; fill-opacity:0.0; 
stroke:#000000; stroke-width:39.3701; stroke-opacity:1; 
stroke-linecap:round; stroke-linejoin:round;">
</g>
<g style="fill:#000000; fill-opacity:0.0; 
stroke:#000000; stroke-width:59.0551; stroke-opacity:1; 
stroke-linecap:round; stroke-linejoin:round;">
<path d="M14169 4562
L13877 4562
" />
<path d="M14023 4562
L14023 4050
L13974 4123
L13925 4172
L13877 4196
" />
</g>
<g style="fill:#000000; fill-opacity:0.0; 
stroke:#000000; stroke-width:39.3701; stroke-opacity:1; 
stroke-linecap:round; stroke-linejoin:round;">
</g>
<g style="fill:#000000; fill-opacity:0.0; 
stroke:#000000; stroke-width:59.0551; stroke-opacity:1; 
stroke-linecap:round; stroke-linejoin:round;">
<path d="M33562 4099
L33586 4074
L33635 4050
L33757 4050
L33805 4074
L33830 4099
L33854 4147
L33854 4196
L33830 4269
L33537 4562
L33854 4562
" />
</g>
<g style="fill:#000000; fill-opacity:0.0; 
stroke:#000000; stroke-width:39.3701; stroke-opacity:1; 
stroke-linecap:round; stroke-linejoin:round;">
</g>
<g style="fill:#000000; fill-opacity:0.0; 
stroke:#000000; stroke-width:59.0551; stroke-opacity:1; 
stroke-linecap:round; stroke-linejoin:round;">
<path d="M53222 4050
L53539 4050
L53368 4245
L53442 4245
L53490 4269
L53515 4294
L53539 4342
L53539 4464
L53515 4513
L53490 4537
L53442 4562
L53295 4562
L53247 4537
L53222 4513
" />
</g>
<g style="fill:#000000; fill-opacity:0.0; 
stroke:#000000; stroke-width:39.3701; stroke-opacity:1; 
stroke-linecap:round; stroke-linejoin:round;">
</g>
<g style="fill:#000000; fill-opacity:0.0; 
stroke:#000000; stroke-width:59.0551; stroke-opacity:1; 
stroke-linecap:round; stroke-linejoin:round;">
<path d="M73175 4221
L73175 4562
" />
<path d="M73053 4026
L72932 4391
L73248 4391
" />
</g>
<g style="fill:#000000; fill-opacity:0.0; 
stroke:#000000; stroke-width:39.3701; stroke-opacity:1; 
stroke-linecap:round; stroke-linejoin:round;">
</g>
<g style="fill:#000000; fill-opacity:0.0; 
stroke:#000000; stroke-width:59.0551; stroke-opacity:1; 
stroke-linecap:round; stroke-linejoin:round;">
<path d="M92885 4050
L92641 4050
L92617 4294
L92641 4269
L92690 4245
L92812 4245
L92860 4269
L92885 4294
L92909 4342
L92909 4464
L92885 4513
L92860 4537
L92812 4562
L92690 4562
L92641 4537
L92617 4513
" />
</g>
<g style="fill:#000000; fill-opacity:0.0; 
stroke:#000000; stroke-width:39.3701; stroke-opacity:1; 
stroke-linecap:round; stroke-linejoin:round;">
</g>
<g style="fill:#000000; fill-opacity:0.0; 
stroke:#000000; stroke-width:59.0551; stroke-opacity:1; 
stroke-linecap:round; stroke-linejoin:round;">
<path d="M112545 4050
L112448 4050
L112399 4074
L112375 4099
L112326 4172
L112302 4269
L112302 4464
L112326 4513
L112350 4537
L112399 4562
L112497 4562
L112545 4537
L112570 4513
L112594 4464
L112594 4342
L112570 4294
L112545 4269
L112497 4245
L112399 4245
L112350 4269
L112326 4294
L112302 4342
" />
</g>
<g style="fill:#000000; fill-opacity:0.0; 
stroke:#000000; stroke-width:39.3701; stroke-opacity:1; 
stroke-linecap:round; stroke-linejoin:round;">
</g>
<g style="fill:#000000; fill-opacity:0.0; 
stroke:#000000; stroke-width:59.0551; stroke-opacity:1; 
stroke-linecap:round; stroke-linejoin:round;">
<path d="M23622 77955
L23622 78742
" />
</g>
<g style="fill:#000000; fill-opacity:0.0; 
stroke:#000000; stroke-width:39.3701; stroke-opacity:1; 
stroke-linecap:round; stroke-linejoin:round;">
</g>
<g style="fill:#000000; fill-opacity:0.0; 
stroke:#000000; stroke-width:59.0551; stroke-opacity:1; 
stroke-linecap:round; stroke-linejoin:round;">
<path d="M43307 77955
L43307 78742
" />
</g>
<g style="fill:#000000; fill-opacity:0.0; 
stroke:#000000; stroke-width:39.3701; stroke-opacity:1; 
stroke-linecap:round; stroke-linejoin:round;">
</g>
<g style="fill:#000000; fill-opacity:0.0; 
stroke:#000000; stroke-width:59.0551; stroke-opacity:1; 
stroke-linecap:round; stroke-linejoin:round;">
<path d="M62992 77955
L62992 78742
" />
</g>
<g style="fill:#000000; fill-opacity:0.0; 
stroke:#000000; stroke-width:39.3701; stroke-opacity:1; 
stroke-linecap:round; stroke-linejoin:round;">
</g>
<g style="fill:#000000; fill-opacity:0.0; 
stroke:#000000; stroke-width:59.0551; stroke-opacity:1; 
stroke-linecap:round; stroke-linejoin:round;">
<path d="M82677 77955
L82677 78742
" />
</g>
<g style="fill:#000000; fill-opacity:0.0; 
stroke:#000000; stroke-width:39.3701; stroke-opacity:1; 
stroke-linecap:round; stroke-linejoin:round;">
</g>
<g style="fill:#000000; fill-opacity:0.0; 
stroke:#000000; stroke-width:59.0551; stroke-opacity:1; 
stroke-linecap:round; stroke-linejoin:round;">
<path d="M102362 77955
L102362 78742
" />
</g>
<g style="fill:#000000; fill-opacity:0.0; 
stroke:#000000; stroke-width:39.3701; stroke-opacity:1; 
stroke-linecap:round; stroke-linejoin:round;">
</g>
<g style="fill:#000000; fill-opacity:0.0; 
stroke:#000000; stroke-width:59.0551; stroke-opacity:1; 
stroke-linecap:round; stroke-linejoin:round;">
<path d="M14169 78580
L13877 78580
" />
<path d="M14023 78580
L14023 78069
L13974 78142
L13925 78190
L13877 78215
" />
</g>
<g style="fill:#000000; fill-opacity:0.0; 
stroke:#000000; stroke-width:39.3701; stroke-opacity:1; 
stroke-linecap:round; stroke-linejoin:round;">
</g>
<g style="fill:#000000; fill-opacity:0.0; 
stroke:#000000; stroke-width:59.0551; stroke-opacity:1; 
stroke-linecap:round; stroke-linejoin:round;">
<path d="M33562 78117
L33586 78093
L33635 78069
L33757 78069
L33805 78093
L33830 78117
L33854 78166
L33854 78215
L33830 78288
L33537 78580
L33854 78580
" />
</g>
<g style="fill:#000000; fill-opacity:0.0; 
stroke:#000000; stroke-width:39.3701; stroke-opacity:1; 
stroke-linecap:round; stroke-linejoin:round;">
</g>
<g style="fill:#000000; fill-opacity:0.0; 
stroke:#000000; stroke-width:59.0551; stroke-opacity:1; 
stroke-linecap:round; stroke-linejoin:round;">
<path d="M53222 78069
L53539 78069
L53368 78263
L53442 78263
L53490 78288
L53515 78312
L53539 78361
L53539 78483
L53515 78532
L53490 78556
L53442 78580
L53295 78580
L53247 78556
L53222 78532
" />
</g>
<g style="fill:#000000; fill-opacity:0.0; 
stroke:#000000; stroke-width:39.3701; stroke-opacity:1; 
stroke-linecap:round; stroke-linejoin:round;">
</g>
<g style="fill:#000000; fill-opacity:0.0; 
stroke:#000000; stroke-width:59.0551; stroke-opacity:1; 
stroke-linecap:round; stroke-linejoin:round;">
<path d="M73175 78239
L73175 78580
" />
<path d="M73053 78044
L72932 78410
L73248 78410
" />
</g>
<g style="fill:#000000; fill-opacity:0.0; 
stroke:#000000; stroke-width:39.3701; stroke-opacity:1; 
stroke-linecap:round; stroke-linejoin:round;">
</g>
<g style="fill:#000000; fill-opacity:0.0; 
stroke:#000000; stroke-width:59.0551; stroke-opacity:1; 
stroke-linecap:round; stroke-linejoin:round;">
<path d="M92885 78069
L92641 78069
L92617 78312
L92641 78288
L92690 78263
L92812 78263
L92860 78288
L92885 78312
L92909 78361
L92909 78483
L92885 78532
L92860 78556
L92812 78580
L92690 78580
L92641 78556
L92617 78532
" />
</g>
<g style="fill:#000000; fill-opacity:0.0; 
stroke:#000000; stroke-width:39.3701; stroke-opacity:1; 
stroke-linecap:round; stroke-linejoin:round;">
</g>
<g style="fill:#000000; fill-opacity:0.0; 
stroke:#000000; stroke-width:59.0551; stroke-opacity:1; 
stroke-linecap:round; stroke-linejoin:round;">
<path d="M112545 78069
L112448 78069
L112399 78093
L112375 78117
L112326 78190
L112302 78288
L112302 78483
L112326 78532
L112350 78556
L112399 78580
L112497 78580
L112545 78556
L112570 78532
L112594 78483
L112594 78361
L112570 78312
L112545 78288
L112497 78263
L112399 78263
L112350 78288
L112326 78312
L112302 78361
" />
</g>
<g style="fill:#000000; fill-opacity:0.0; 
stroke:#000000; stroke-width:39.3701; stroke-opacity:1; 
stroke-linecap:round; stroke-linejoin:round;">
</g>
<g style="fill:#000000; fill-opacity:0.0; 
stroke:#000000; stroke-width:59.0551; stroke-opacity:1; 
stroke-linecap:round; stroke-linejoin:round;">
<path d="M3937 23622
L4724 23622
" />
</g>
<g style="fill:#000000; fill-opacity:0.0; 
stroke:#000000; stroke-width:39.3701; stroke-opacity:1; 
stroke-linecap:round; stroke-linejoin:round;">
</g>
<g style="fill:#000000; fill-opacity:0.0; 
stroke:#000000; stroke-width:59.0551; stroke-opacity:1; 
stroke-linecap:round; stroke-linejoin:round;">
<path d="M3937 43307
L4724 43307
" />
</g>
<g style="fill:#000000; fill-opacity:0.0; 
stroke:#000000; stroke-width:39.3701; stroke-opacity:1; 
stroke-linecap:round; stroke-linejoin:round;">
</g>
<g style="fill:#000000; fill-opacity:0.0; 
stroke:#000000; stroke-width:59.0551; stroke-opacity:1; 
stroke-linecap:round; stroke-linejoin:round;">
<path d="M3937 62992
L4724 62992
" />
</g>
<g style="fill:#000000; fill-opacity:0.0; 
stroke:#000000; stroke-width:39.3701; stroke-opacity:1; 
stroke-linecap:round; stroke-linejoin:round;">
</g>
<g style="fill:#000000; fill-opacity:0.0; 
stroke:#000000; stroke-width:59.0551; stroke-opacity:1; 
stroke-linecap:round; stroke-linejoin:round;">
<path d="M4208 13864
L4452 13864
" />
<path d="M4160 14011
L4330 13499
L4501 14011
" />
</g>
<g style="fill:#000000; fill-opacity:0.0; 
stroke:#000000; stroke-width:39.3701; stroke-opacity:1; 
stroke-linecap:round; stroke-linejoin:round;">
</g>
<g style="fill:#000000; fill-opacity:0.0; 
stroke:#000000; stroke-width:59.0551; stroke-opacity:1; 
stroke-linecap:round; stroke-linejoin:round;">
<path d="M4367 33428
L4440 33452
L4464 33476
L4489 33525
L4489 33598
L4464 33647
L4440 33671
L4391 33696
L4196 33696
L4196 33184
L4367 33184
L4416 33208
L4440 33233
L4464 33281
L4464 33330
L4440 33379
L4416 33403
L4367 33428
L4196 33428
" />
</g>
<g style="fill:#000000; fill-opacity:0.0; 
stroke:#000000; stroke-width:39.3701; stroke-opacity:1; 
stroke-linecap:round; stroke-linejoin:round;">
</g>
<g style="fill:#000000; fill-opacity:0.0; 
stroke:#000000; stroke-width:59.0551; stroke-opacity:1; 
stroke-linecap:round; stroke-linejoin:round;">
<path d="M4489 53332
L4464 53356
L4391 53381
L4342 53381
L4269 53356
L4221 53308
L4196 53259
L4172 53161
L4172 53088
L4196 52991
L4221 52942
L4269 52893
L4342 52869
L4391 52869
L4464 52893
L4489 52918
" />
</g>
<g style="fill:#000000; fill-opacity:0.0; 
stroke:#000000; stroke-width:39.3701; stroke-opacity:1; 
stroke-linecap:round; stroke-linejoin:round;">
</g>
<g style="fill:#000000; fill-opacity:0.0; 
stroke:#000000; stroke-width:59.0551; stroke-opacity:1; 
stroke-linecap:round; stroke-linejoin:round;">
<path d="M4196 73066
L4196 72554
L4318 72554
L4391 72578
L4440 72627
L4464 72676
L4489 72773
L4489 72846
L4464 72944
L4440 72993
L4391 73041
L4318 73066
L4196 73066
" />
</g>
<g style="fill:#000000; fill-opacity:0.0; 
stroke:#000000; stroke-width:39.3701; stroke-opacity:1; 
stroke-linecap:round; stroke-linejoin:round;">
</g>
<g style="fill:#000000; fill-opacity:0.0; 
stroke:#000000; stroke-width:59.0551; stroke-opacity:1; 
stroke-linecap:round; stroke-linejoin:round;">
<path d="M112992 23622
L112205 23622
" />
</g>
<g style="fill:#000000; fill-opacity:0.0; 
stroke:#000000; stroke-width:39.3701; stroke-opacity:1; 
stroke-linecap:round; stroke-linejoin:round;">
</g>
<g style="fill:#000000; fill-opacity:0.0; 
stroke:#000000; stroke-width:59.0551; stroke-opacity:1; 
stroke-linecap:round; stroke-linejoin:round;">
<path d="M112992 43307
L112205 43307
" />
</g>
<g style="fill:#000000; fill-opacity:0.0; 
stroke:#000000; stroke-width:39.3701; stroke-opacity:1; 
stroke-linecap:round; stroke-linejoin:round;">
</g>
<g style="fill:#000000; fill-opacity:0.0; 
stroke:#000000; stroke-width:59.0551; stroke-opacity:1; 
stroke-linecap:round; stroke-linejoin:round;">
<path d="M112992 62992
L112205 62992
" />
</g>
<g style="fill:#000000; fill-opacity:0.0; 
stroke:#000000; stroke-width:39.3701; stroke-opacity:1; 
stroke-linecap:round; stroke-linejoin:round;">
</g>
<g style="fill:#000000; fill-opacity:0.0; 
stroke:#000000; stroke-width:59.0551; stroke-opacity:1; 
stroke-linecap:round; stroke-linejoin:round;">
<path d="M112477 13864
L112721 13864
" />
<path d="M112428 14011
L112599 13499
L112769 14011
" />
</g>
<g style="fill:#000000; fill-opacity:0.0; 
stroke:#000000; stroke-width:39.3701; stroke-opacity:1; 
stroke-linecap:round; stroke-linejoin:round;">
</g>
<g style="fill:#000000; fill-opacity:0.0; 
stroke:#000000; stroke-width:59.0551; stroke-opacity:1; 
stroke-linecap:round; stroke-linejoin:round;">
<path d="M112635 33428
L112708 33452
L112733 33476
L112757 33525
L112757 33598
L112733 33647
L112708 33671
L112660 33696
L112465 33696
L112465 33184
L112635 33184
L112684 33208
L112708 33233
L112733 33281
L112733 33330
L112708 33379
L112684 33403
L112635 33428
L112465 33428
" />
</g>
<g style="fill:#000000; fill-opacity:0.0; 
stroke:#000000; stroke-width:39.3701; stroke-opacity:1; 
stroke-linecap:round; stroke-linejoin:round;">
</g>
<g style="fill:#000000; fill-opacity:0.0; 
stroke:#000000; stroke-width:59.0551; stroke-opacity:1; 
stroke-linecap:round; stroke-linejoin:round;">
<path d="M112757 53332
L112733 53356
L112660 53381
L112611 53381
L112538 53356
L112489 53308
L112465 53259
L112440 53161
L112440 53088
L112465 52991
L112489 52942
L112538 52893
L112611 52869
L112660 52869
L112733 52893
L112757 52918
" />
</g>
<g style="fill:#000000; fill-opacity:0.0; 
stroke:#000000; stroke-width:39.3701; stroke-opacity:1; 
stroke-linecap:round; stroke-linejoin:round;">
</g>
<g style="fill:#000000; fill-opacity:0.0; 
stroke:#000000; stroke-width:59.0551; stroke-opacity:1; 
stroke-linecap:round; stroke-linejoin:round;">
<path d="M112465 73066
L112465 72554
L112587 72554
L112660 72578
L112708 72627
L112733 72676
L112757 72773
L112757 72846
L112733 72944
L112708 72993
L112660 73041
L112587 73066
L112465 73066
" />
</g>
<g style="fill:#000000; fill-opacity:0.0; 
stroke:#000000; stroke-width:39.3701; stroke-opacity:1; 
stroke-linecap:round; stroke-linejoin:round;">
</g>
<g style="fill:#000000; fill-opacity:0.0; 
stroke:#000000; stroke-width:59.0551; stroke-opacity:1; 
stroke-linecap:round; stroke-linejoin:round;">
<path d="M78881 76293
L78881 75703
L79022 75703
L79106 75731
L79162 75787
L79190 75843
L79219 75956
L79219 76040
L79190 76153
L79162 76209
L79106 76265
L79022 76293
L78881 76293
" />
<path d="M79725 76293
L79725 75984
L79697 75928
L79640 75899
L79528 75899
L79472 75928
" />
<path d="M79725 76265
L79669 76293
L79528 76293
L79472 76265
L79444 76209
L79444 76153
L79472 76096
L79528 76068
L79669 76068
L79725 76040
" />
<path d="M79922 75899
L80147 75899
" />
<path d="M80006 75703
L80006 76209
L80034 76265
L80090 76293
L80147 76293
" />
<path d="M80568 76265
L80512 76293
L80400 76293
L80343 76265
L80315 76209
L80315 75984
L80343 75928
L80400 75899
L80512 75899
L80568 75928
L80597 75984
L80597 76040
L80315 76096
" />
<path d="M80850 76237
L80878 76265
L80850 76293
L80822 76265
L80850 76237
L80850 76293
" />
<path d="M80850 75928
L80878 75956
L80850 75984
L80822 75956
L80850 75928
L80850 75984
" />
<path d="M81553 75759
L81581 75731
L81637 75703
L81778 75703
L81834 75731
L81862 75759
L81890 75815
L81890 75871
L81862 75956
L81525 76293
L81890 76293
" />
<path d="M82256 75703
L82312 75703
L82368 75731
L82396 75759
L82424 75815
L82453 75928
L82453 76068
L82424 76181
L82396 76237
L82368 76265
L82312 76293
L82256 76293
L82199 76265
L82171 76237
L82143 76181
L82115 76068
L82115 75928
L82143 75815
L82171 75759
L82199 75731
L82256 75703
" />
<path d="M83015 76293
L82678 76293
" />
<path d="M82846 76293
L82846 75703
L82790 75787
L82734 75843
L82678 75871
" />
<path d="M83212 75703
L83606 75703
L83352 76293
" />
<path d="M83831 76068
L84280 76068
" />
<path d="M84674 75703
L84730 75703
L84787 75731
L84815 75759
L84843 75815
L84871 75928
L84871 76068
L84843 76181
L84815 76237
L84787 76265
L84730 76293
L84674 76293
L84618 76265
L84590 76237
L84562 76181
L84534 76068
L84534 75928
L84562 75815
L84590 75759
L84618 75731
L84674 75703
" />
<path d="M85068 75703
L85433 75703
L85237 75928
L85321 75928
L85377 75956
L85405 75984
L85433 76040
L85433 76181
L85405 76237
L85377 76265
L85321 76293
L85152 76293
L85096 76265
L85068 76237
" />
<path d="M85687 76068
L86136 76068
" />
<path d="M86361 75703
L86727 75703
L86530 75928
L86615 75928
L86671 75956
L86699 75984
L86727 76040
L86727 76181
L86699 76237
L86671 76265
L86615 76293
L86446 76293
L86390 76265
L86361 76237
" />
<path d="M87093 75703
L87149 75703
L87205 75731
L87233 75759
L87261 75815
L87289 75928
L87289 76068
L87261 76181
L87233 76237
L87205 76265
L87149 76293
L87093 76293
L87036 76265
L87008 76237
L86980 76181
L86952 76068
L86952 75928
L86980 75815
L87008 75759
L87036 75731
L87093 75703
" />
</g>
<g style="fill:#000000; fill-opacity:0.0; 
stroke:#000000; stroke-width:39.3701; stroke-opacity:1; 
stroke-linecap:round; stroke-linejoin:round;">
</g>
<g style="fill:#000000; fill-opacity:0.0; 
stroke:#000000; stroke-width:59.0551; stroke-opacity:1; 
stroke-linecap:round; stroke-linejoin:round;">
<path d="M69685 76577
L112205 76577
" />
</g>
<g style="fill:#000000; fill-opacity:0.0; 
stroke:#000000; stroke-width:39.3701; stroke-opacity:1; 
stroke-linecap:round; stroke-linejoin:round;">
</g>
<g style="fill:#000000; fill-opacity:0.0; 
stroke:#000000; stroke-width:59.0551; stroke-opacity:1; 
stroke-linecap:round; stroke-linejoin:round;">
<path d="M70220 77395
L70220 76805
" />
<path d="M70557 77395
L70304 77058
" />
<path d="M70557 76805
L70220 77142
" />
<path d="M70810 77395
L70810 77002
" />
<path d="M70810 76805
L70782 76833
L70810 76861
L70838 76833
L70810 76805
L70810 76861
" />
<path d="M71429 77339
L71401 77367
L71316 77395
L71260 77395
L71176 77367
L71120 77311
L71091 77255
L71063 77142
L71063 77058
L71091 76946
L71120 76889
L71176 76833
L71260 76805
L71316 76805
L71401 76833
L71429 76861
" />
<path d="M71935 77395
L71935 77086
L71907 77030
L71851 77002
L71738 77002
L71682 77030
" />
<path d="M71935 77367
L71879 77395
L71738 77395
L71682 77367
L71654 77311
L71654 77255
L71682 77199
L71738 77171
L71879 77171
L71935 77142
" />
<path d="M72469 77395
L72469 76805
" />
<path d="M72469 77367
L72413 77395
L72301 77395
L72244 77367
L72216 77339
L72188 77283
L72188 77114
L72216 77058
L72244 77030
L72301 77002
L72413 77002
L72469 77030
" />
<path d="M73201 77086
L73397 77086
" />
<path d="M73482 77395
L73201 77395
L73201 76805
L73482 76805
" />
<path d="M73735 77339
L73763 77367
L73735 77395
L73707 77367
L73735 77339
L73735 77395
" />
<path d="M74016 77395
L74016 76805
L74157 76805
L74241 76833
L74297 76889
L74325 76946
L74354 77058
L74354 77142
L74325 77255
L74297 77311
L74241 77367
L74157 77395
L74016 77395
" />
<path d="M74607 77339
L74635 77367
L74607 77395
L74579 77367
L74607 77339
L74607 77395
" />
<path d="M74860 77227
L75141 77227
" />
<path d="M74804 77395
L75000 76805
L75197 77395
" />
<path d="M75394 77339
L75422 77367
L75394 77395
L75366 77367
L75394 77339
L75394 77395
" />
<path d="M76575 77395
L76575 76805
" />
<path d="M76631 77171
L76800 77395
" />
<path d="M76800 77002
L76575 77227
" />
<path d="M77053 77395
L77053 77002
" />
<path d="M77053 76805
L77025 76833
L77053 76861
L77081 76833
L77053 76805
L77053 76861
" />
<path d="M77588 77367
L77531 77395
L77419 77395
L77363 77367
L77334 77339
L77306 77283
L77306 77114
L77334 77058
L77363 77030
L77419 77002
L77531 77002
L77588 77030
" />
<path d="M78094 77395
L78094 77086
L78066 77030
L78009 77002
L77897 77002
L77841 77030
" />
<path d="M78094 77367
L78037 77395
L77897 77395
L77841 77367
L77813 77311
L77813 77255
L77841 77199
L77897 77171
L78037 77171
L78094 77142
" />
<path d="M78628 77395
L78628 76805
" />
<path d="M78628 77367
L78572 77395
L78459 77395
L78403 77367
L78375 77339
L78347 77283
L78347 77114
L78375 77058
L78403 77030
L78459 77002
L78572 77002
L78628 77030
" />
<path d="M79612 77002
L79612 77395
" />
<path d="M79472 76777
L79331 77199
L79697 77199
" />
<path d="M79922 77339
L79950 77367
L79922 77395
L79894 77367
L79922 77339
L79922 77395
" />
<path d="M80315 76805
L80372 76805
L80428 76833
L80456 76861
L80484 76917
L80512 77030
L80512 77171
L80484 77283
L80456 77339
L80428 77367
L80372 77395
L80315 77395
L80259 77367
L80231 77339
L80203 77283
L80175 77171
L80175 77030
L80203 76917
L80231 76861
L80259 76833
L80315 76805
" />
<path d="M80765 77339
L80793 77367
L80765 77395
L80737 77367
L80765 77339
L80765 77395
" />
<path d="M81300 76805
L81187 76805
L81131 76833
L81103 76861
L81046 76946
L81018 77058
L81018 77283
L81046 77339
L81075 77367
L81131 77395
L81243 77395
L81300 77367
L81328 77339
L81356 77283
L81356 77142
L81328 77086
L81300 77058
L81243 77030
L81131 77030
L81075 77058
L81046 77086
L81018 77142
" />
</g>
<g style="fill:#000000; fill-opacity:0.0; 
stroke:#000000; stroke-width:39.3701; stroke-opacity:1; 
stroke-linecap:round; stroke-linejoin:round;">
</g>
<g style="fill:#000000; fill-opacity:0.0; 
stroke:#000000; stroke-width:59.0551; stroke-opacity:1; 
stroke-linecap:round; stroke-linejoin:round;">
<path d="M69685 75396
L112205 75396
" />
</g>
<g style="fill:#000000; fill-opacity:0.0; 
stroke:#000000; stroke-width:39.3701; stroke-opacity:1; 
stroke-linecap:round; stroke-linejoin:round;">
</g>
<g style="fill:#000000; fill-opacity:0.0; 
stroke:#000000; stroke-width:118.11; stroke-opacity:1; 
stroke-linecap:round; stroke-linejoin:round;">
<path d="M104022 76293
L103825 76012
" />
<path d="M103684 76293
L103684 75703
L103909 75703
L103965 75731
L103994 75759
L104022 75815
L104022 75899
L103994 75956
L103965 75984
L103909 76012
L103684 76012
" />
<path d="M104500 76265
L104444 76293
L104331 76293
L104275 76265
L104247 76209
L104247 75984
L104275 75928
L104331 75899
L104444 75899
L104500 75928
L104528 75984
L104528 76040
L104247 76096
" />
<path d="M104725 75899
L104865 76293
L105006 75899
" />
<path d="M105231 76237
L105259 76265
L105231 76293
L105203 76265
L105231 76237
L105231 76293
" />
<path d="M105231 75928
L105259 75956
L105231 75984
L105203 75956
L105231 75928
L105231 75984
" />
<path d="M106271 76293
L105934 76293
" />
<path d="M106103 76293
L106103 75703
L106046 75787
L105990 75843
L105934 75871
" />
<path d="M106525 76237
L106553 76265
L106525 76293
L106496 76265
L106525 76237
L106525 76293
" />
<path d="M106918 75703
L106974 75703
L107031 75731
L107059 75759
L107087 75815
L107115 75928
L107115 76068
L107087 76181
L107059 76237
L107031 76265
L106974 76293
L106918 76293
L106862 76265
L106834 76237
L106806 76181
L106778 76068
L106778 75928
L106806 75815
L106834 75759
L106862 75731
L106918 75703
" />
</g>
<g style="fill:#000000; fill-opacity:0.0; 
stroke:#000000; stroke-width:39.3701; stroke-opacity:1; 
stroke-linecap:round; stroke-linejoin:round;">
</g>
<g style="fill:#000000; fill-opacity:0.0; 
stroke:#000000; stroke-width:59.0551; stroke-opacity:1; 
stroke-linecap:round; stroke-linejoin:round;">
<path d="M70192 76265
L70276 76293
L70417 76293
L70473 76265
L70501 76237
L70529 76181
L70529 76124
L70501 76068
L70473 76040
L70417 76012
L70304 75984
L70248 75956
L70220 75928
L70192 75871
L70192 75815
L70220 75759
L70248 75731
L70304 75703
L70445 75703
L70529 75731
" />
<path d="M70782 76293
L70782 75899
" />
<path d="M70782 75703
L70754 75731
L70782 75759
L70810 75731
L70782 75703
L70782 75759
" />
<path d="M71007 75899
L71316 75899
L71007 76293
L71316 76293
" />
<path d="M71766 76265
L71710 76293
L71598 76293
L71541 76265
L71513 76209
L71513 75984
L71541 75928
L71598 75899
L71710 75899
L71766 75928
L71795 75984
L71795 76040
L71513 76096
" />
<path d="M72048 76237
L72076 76265
L72048 76293
L72019 76265
L72048 76237
L72048 76293
" />
<path d="M72048 75928
L72076 75956
L72048 75984
L72019 75956
L72048 75928
L72048 75984
" />
<path d="M72751 76124
L73032 76124
" />
<path d="M72694 76293
L72891 75703
L73088 76293
" />
<path d="M73538 75899
L73538 76293
" />
<path d="M73397 75674
L73257 76096
L73622 76096
" />
</g>
<g style="fill:#000000; fill-opacity:0.0; 
stroke:#000000; stroke-width:39.3701; stroke-opacity:1; 
stroke-linecap:round; stroke-linejoin:round;">
</g>
<g style="fill:#000000; fill-opacity:0.0; 
stroke:#000000; stroke-width:59.0551; stroke-opacity:1; 
stroke-linecap:round; stroke-linejoin:round;">
<path d="M103684 77395
L103684 76805
" />
<path d="M104219 77395
L104219 76805
" />
<path d="M104219 77367
L104162 77395
L104050 77395
L103994 77367
L103965 77339
L103937 77283
L103937 77114
L103965 77058
L103994 77030
L104050 77002
L104162 77002
L104219 77030
" />
<path d="M104500 77339
L104528 77367
L104500 77395
L104472 77367
L104500 77339
L104500 77395
" />
<path d="M104500 77030
L104528 77058
L104500 77086
L104472 77058
L104500 77030
L104500 77086
" />
<path d="M105540 77395
L105203 77395
" />
<path d="M105372 77395
L105372 76805
L105315 76889
L105259 76946
L105203 76974
" />
<path d="M106215 76777
L105709 77536
" />
<path d="M106721 77395
L106384 77395
" />
<path d="M106553 77395
L106553 76805
L106496 76889
L106440 76946
L106384 76974
" />
</g>
<g style="fill:#000000; fill-opacity:0.0; 
stroke:#000000; stroke-width:39.3701; stroke-opacity:1; 
stroke-linecap:round; stroke-linejoin:round;">
</g>
<g style="fill:#000000; fill-opacity:0.0; 
stroke:#000000; stroke-width:59.0551; stroke-opacity:1; 
stroke-linecap:round; stroke-linejoin:round;">
<path d="M69685 73821
L112205 73821
" />
</g>
<g style="fill:#000000; fill-opacity:0.0; 
stroke:#000000; stroke-width:39.3701; stroke-opacity:1; 
stroke-linecap:round; stroke-linejoin:round;">
</g>
<g style="fill:#000000; fill-opacity:0.0; 
stroke:#000000; stroke-width:157.48; stroke-opacity:1; 
stroke-linecap:round; stroke-linejoin:round;">
<path d="M70257 74099
L70707 74099
" />
<path d="M70384 74886
L70482 74099
" />
<path d="M70871 74886
L70937 74361
" />
<path d="M70970 74099
L70927 74136
L70960 74174
L71002 74136
L70970 74099
L70960 74174
" />
<path d="M71199 74361
L71499 74361
" />
<path d="M71345 74099
L71260 74774
L71288 74849
L71359 74886
L71434 74886
" />
<path d="M71809 74886
L71738 74849
L71710 74774
L71795 74099
" />
<path d="M72413 74849
L72334 74886
L72184 74886
L72113 74849
L72085 74774
L72123 74474
L72169 74399
L72249 74361
L72399 74361
L72469 74399
L72498 74474
L72488 74549
L72104 74624
" />
<path d="M72793 74811
L72826 74849
L72783 74886
L72751 74849
L72793 74811
L72783 74886
" />
<path d="M72844 74399
L72877 74436
L72835 74474
L72802 74436
L72844 74399
L72835 74474
" />
<path d="M74133 74886
L73758 74886
L73857 74099
" />
<path d="M74508 74886
L74438 74849
L74405 74811
L74377 74736
L74405 74511
L74452 74436
L74494 74399
L74574 74361
L74686 74361
L74757 74399
L74789 74436
L74818 74511
L74789 74736
L74743 74811
L74700 74849
L74621 74886
L74508 74886
" />
<path d="M75450 74849
L75371 74886
L75221 74886
L75150 74849
L75118 74811
L75089 74736
L75118 74511
L75164 74436
L75207 74399
L75286 74361
L75436 74361
L75507 74399
" />
<path d="M75896 74886
L75825 74849
L75792 74811
L75764 74736
L75792 74511
L75839 74436
L75882 74399
L75961 74361
L76074 74361
L76144 74399
L76177 74436
L76205 74511
L76177 74736
L76130 74811
L76088 74849
L76008 74886
L75896 74886
" />
<path d="M76495 74886
L76561 74361
" />
<path d="M76552 74436
L76594 74399
L76674 74361
L76786 74361
L76856 74399
L76885 74474
L76833 74886
" />
<path d="M76885 74474
L76931 74399
L77011 74361
L77124 74361
L77194 74399
L77222 74474
L77170 74886
" />
<path d="M77658 74886
L77588 74849
L77555 74811
L77527 74736
L77555 74511
L77602 74436
L77644 74399
L77723 74361
L77836 74361
L77906 74399
L77939 74436
L77967 74511
L77939 74736
L77892 74811
L77850 74849
L77770 74886
L77658 74886
" />
<path d="M78211 74361
L78511 74361
" />
<path d="M78356 74099
L78272 74774
L78300 74849
L78370 74886
L78445 74886
" />
<path d="M78708 74886
L78773 74361
" />
<path d="M78806 74099
L78764 74136
L78797 74174
L78839 74136
L78806 74099
L78797 74174
" />
<path d="M79073 74361
L79195 74886
L79448 74361
" />
<path d="M79987 74849
L79908 74886
L79758 74886
L79687 74849
L79659 74774
L79697 74474
L79744 74399
L79823 74361
L79973 74361
L80043 74399
L80072 74474
L80062 74549
L79678 74624
" />
</g>
<g style="fill:#000000; fill-opacity:0.0; 
stroke:#000000; stroke-width:39.3701; stroke-opacity:1; 
stroke-linecap:round; stroke-linejoin:round;">
</g>
<g style="fill:#000000; fill-opacity:0.0; 
stroke:#000000; stroke-width:59.0551; stroke-opacity:1; 
stroke-linecap:round; stroke-linejoin:round;">
<path d="M70417 73070
L70220 73070
" />
<path d="M70220 73380
L70220 72789
L70501 72789
" />
<path d="M70726 73380
L70726 72986
" />
<path d="M70726 72789
L70698 72817
L70726 72845
L70754 72817
L70726 72789
L70726 72845
" />
<path d="M71091 73380
L71035 73352
L71007 73295
L71007 72789
" />
<path d="M71541 73352
L71485 73380
L71373 73380
L71316 73352
L71288 73295
L71288 73070
L71316 73014
L71373 72986
L71485 72986
L71541 73014
L71570 73070
L71570 73127
L71288 73183
" />
<path d="M71823 73323
L71851 73352
L71823 73380
L71795 73352
L71823 73323
L71823 73380
" />
<path d="M71823 73014
L71851 73042
L71823 73070
L71795 73042
L71823 73014
L71823 73070
" />
<path d="M72638 73380
L72582 73352
L72554 73295
L72554 72789
" />
<path d="M72947 73380
L72891 73352
L72863 73323
L72835 73267
L72835 73099
L72863 73042
L72891 73014
L72947 72986
L73032 72986
L73088 73014
L73116 73042
L73144 73099
L73144 73267
L73116 73323
L73088 73352
L73032 73380
L72947 73380
" />
<path d="M73651 73352
L73594 73380
L73482 73380
L73426 73352
L73397 73323
L73369 73267
L73369 73099
L73397 73042
L73426 73014
L73482 72986
L73594 72986
L73651 73014
" />
<path d="M73988 73380
L73932 73352
L73904 73323
L73876 73267
L73876 73099
L73904 73042
L73932 73014
L73988 72986
L74072 72986
L74129 73014
L74157 73042
L74185 73099
L74185 73267
L74157 73323
L74129 73352
L74072 73380
L73988 73380
" />
<path d="M74438 73380
L74438 72986
" />
<path d="M74438 73042
L74466 73014
L74522 72986
L74607 72986
L74663 73014
L74691 73070
L74691 73380
" />
<path d="M74691 73070
L74719 73014
L74775 72986
L74860 72986
L74916 73014
L74944 73070
L74944 73380
" />
<path d="M75310 73380
L75253 73352
L75225 73323
L75197 73267
L75197 73099
L75225 73042
L75253 73014
L75310 72986
L75394 72986
L75450 73014
L75478 73042
L75507 73099
L75507 73267
L75478 73323
L75450 73352
L75394 73380
L75310 73380
" />
<path d="M75675 72986
L75900 72986
" />
<path d="M75760 72789
L75760 73295
L75788 73352
L75844 73380
L75900 73380
" />
<path d="M76097 73380
L76097 72986
" />
<path d="M76097 72789
L76069 72817
L76097 72845
L76125 72817
L76097 72789
L76097 72845
" />
<path d="M76322 72986
L76463 73380
L76603 72986
" />
<path d="M77053 73352
L76997 73380
L76885 73380
L76828 73352
L76800 73295
L76800 73070
L76828 73014
L76885 72986
L76997 72986
L77053 73014
L77081 73070
L77081 73127
L76800 73183
" />
<path d="M77334 73323
L77363 73352
L77334 73380
L77306 73352
L77334 73323
L77334 73380
" />
<path d="M77616 73380
L77616 72789
" />
<path d="M77672 73155
L77841 73380
" />
<path d="M77841 72986
L77616 73211
" />
<path d="M78094 73380
L78094 72986
" />
<path d="M78094 72789
L78066 72817
L78094 72845
L78122 72817
L78094 72789
L78094 72845
" />
<path d="M78628 73352
L78572 73380
L78459 73380
L78403 73352
L78375 73323
L78347 73267
L78347 73099
L78375 73042
L78403 73014
L78459 72986
L78572 72986
L78628 73014
" />
<path d="M79134 73380
L79134 73070
L79106 73014
L79050 72986
L78937 72986
L78881 73014
" />
<path d="M79134 73352
L79078 73380
L78937 73380
L78881 73352
L78853 73295
L78853 73239
L78881 73183
L78937 73155
L79078 73155
L79134 73127
" />
<path d="M79669 73380
L79669 72789
" />
<path d="M79669 73352
L79612 73380
L79500 73380
L79444 73352
L79415 73323
L79387 73267
L79387 73099
L79415 73042
L79444 73014
L79500 72986
L79612 72986
L79669 73014
" />
<path d="M79809 73436
L80259 73436
" />
<path d="M80400 72986
L80400 73577
" />
<path d="M80400 73014
L80456 72986
L80568 72986
L80625 73014
L80653 73042
L80681 73099
L80681 73267
L80653 73323
L80625 73352
L80568 73380
L80456 73380
L80400 73352
" />
<path d="M81187 73352
L81131 73380
L81018 73380
L80962 73352
L80934 73323
L80906 73267
L80906 73099
L80934 73042
L80962 73014
L81018 72986
L81131 72986
L81187 73014
" />
<path d="M81440 73380
L81440 72789
" />
<path d="M81440 73014
L81496 72986
L81609 72986
L81665 73014
L81693 73042
L81721 73099
L81721 73267
L81693 73323
L81665 73352
L81609 73380
L81496 73380
L81440 73352
" />
</g>
<g style="fill:#000000; fill-opacity:0.0; 
stroke:#000000; stroke-width:39.3701; stroke-opacity:1; 
stroke-linecap:round; stroke-linejoin:round;">
</g>
<g style="fill:#000000; fill-opacity:0.0; 
stroke:#000000; stroke-width:59.0551; stroke-opacity:1; 
stroke-linecap:round; stroke-linejoin:round;">
<path d="M69685 71459
L112205 71459
" />
</g>
<g style="fill:#000000; fill-opacity:0.0; 
stroke:#000000; stroke-width:39.3701; stroke-opacity:1; 
stroke-linecap:round; stroke-linejoin:round;">
</g>
<g style="fill:#000000; fill-opacity:0.0; 
stroke:#000000; stroke-width:59.0551; stroke-opacity:1; 
stroke-linecap:round; stroke-linejoin:round;">
<path d="M70192 72289
L70276 72317
L70417 72317
L70473 72289
L70501 72260
L70529 72204
L70529 72148
L70501 72092
L70473 72064
L70417 72036
L70304 72007
L70248 71979
L70220 71951
L70192 71895
L70192 71839
L70220 71782
L70248 71754
L70304 71726
L70445 71726
L70529 71754
" />
<path d="M70782 72317
L70782 71726
" />
<path d="M71035 72317
L71035 72007
L71007 71951
L70951 71923
L70867 71923
L70810 71951
L70782 71979
" />
<path d="M71541 72289
L71485 72317
L71373 72317
L71316 72289
L71288 72232
L71288 72007
L71316 71951
L71373 71923
L71485 71923
L71541 71951
L71570 72007
L71570 72064
L71288 72120
" />
<path d="M72048 72289
L71991 72317
L71879 72317
L71823 72289
L71795 72232
L71795 72007
L71823 71951
L71879 71923
L71991 71923
L72048 71951
L72076 72007
L72076 72064
L71795 72120
" />
<path d="M72244 71923
L72469 71923
" />
<path d="M72329 71726
L72329 72232
L72357 72289
L72413 72317
L72469 72317
" />
<path d="M72666 72260
L72694 72289
L72666 72317
L72638 72289
L72666 72260
L72666 72317
" />
<path d="M72666 71951
L72694 71979
L72666 72007
L72638 71979
L72666 71951
L72666 72007
" />
</g>
<g style="fill:#000000; fill-opacity:0.0; 
stroke:#000000; stroke-width:39.3701; stroke-opacity:1; 
stroke-linecap:round; stroke-linejoin:round;">
</g>
<g style="fill:#000000; fill-opacity:0.0; 
stroke:#000000; stroke-width:118.11; stroke-opacity:1; 
stroke-linecap:round; stroke-linejoin:round;">
<path d="M70220 70826
L70417 70826
" />
<path d="M70501 71136
L70220 71136
L70220 70545
L70501 70545
" />
<path d="M71091 71079
L71063 71108
L70979 71136
L70923 71136
L70838 71108
L70782 71051
L70754 70995
L70726 70883
L70726 70798
L70754 70686
L70782 70629
L70838 70573
L70923 70545
L70979 70545
L71063 70573
L71091 70601
" />
<path d="M71345 70826
L71541 70826
" />
<path d="M71626 71136
L71345 71136
L71345 70545
L71626 70545
" />
<path d="M72582 70742
L72582 71136
" />
<path d="M72441 70517
L72301 70939
L72666 70939
" />
<path d="M73144 70742
L73144 71136
" />
<path d="M73004 70517
L72863 70939
L73229 70939
" />
<path d="M73735 70545
L73454 70545
L73426 70826
L73454 70798
L73510 70770
L73651 70770
L73707 70798
L73735 70826
L73763 70883
L73763 71023
L73735 71079
L73707 71108
L73651 71136
L73510 71136
L73454 71108
L73426 71079
" />
</g>
<g style="fill:#000000; fill-opacity:0.0; 
stroke:#000000; stroke-width:39.3701; stroke-opacity:1; 
stroke-linecap:round; stroke-linejoin:round;">
</g>
<g style="fill:#000000; fill-opacity:0.0; 
stroke:#000000; stroke-width:59.0551; stroke-opacity:1; 
stroke-linecap:round; stroke-linejoin:round;">
<path d="M77559 75396
L77559 76577
" />
</g>
<g style="fill:#000000; fill-opacity:0.0; 
stroke:#000000; stroke-width:39.3701; stroke-opacity:1; 
stroke-linecap:round; stroke-linejoin:round;">
</g>
<g style="fill:#000000; fill-opacity:0.0; 
stroke:#000000; stroke-width:59.0551; stroke-opacity:1; 
stroke-linecap:round; stroke-linejoin:round;">
<path d="M102756 75396
L102756 77955
" />
</g>
<g style="fill:#840084; fill-opacity:0.0; 
stroke:#840084; stroke-width:59.0551; stroke-opacity:1; 
stroke-linecap:round; stroke-linejoin:round;">
<path d="M57086 26574
L56889 26574
" />
<path d="M57086 25984
L57086 26574
" />
<path d="M56889 25984
L57086 25984
" />
<path d="M57972 26279
L57086 26279
" />
<path d="M61023 26574
L61220 26574
" />
<path d="M61023 25984
L61023 26574
" />
<path d="M61220 25984
L61023 25984
" />
<path d="M60137 26279
L61023 26279
" />
<path d="M57086 25885
L56889 25885
" />
<path d="M57086 25295
L57086 25885
" />
<path d="M56889 25295
L57086 25295
" />
<path d="M61023 25885
L61220 25885
" />
<path d="M61023 25295
L61023 25885
" />
<path d="M61220 25295
L61023 25295
" />
<path d="M59940 25590
L61023 25590
" />
<path d="M58169 25590
L57086 25590
" />
<path d="M59945 26457
L59945 26063
L59814 26345
L59683 26063
L59683 26457
" />
<path d="M59420 26063
L59345 26063
L59308 26082
L59270 26120
L59251 26195
L59251 26326
L59270 26401
L59308 26438
L59345 26457
L59420 26457
L59458 26438
L59495 26401
L59514 26326
L59514 26195
L59495 26120
L59458 26082
L59420 26063
" />
<path d="M59139 26063
L58914 26063
" />
<path d="M59026 26457
L59026 26063
" />
<path d="M58708 26063
L58633 26063
L58595 26082
L58558 26120
L58539 26195
L58539 26326
L58558 26401
L58595 26438
L58633 26457
L58708 26457
L58745 26438
L58783 26401
L58802 26326
L58802 26195
L58783 26120
L58745 26082
L58708 26063
" />
<path d="M58145 26457
L58277 26270
" />
<path d="M58370 26457
L58370 26063
L58220 26063
L58183 26082
L58164 26101
L58145 26138
L58145 26195
L58164 26232
L58183 26251
L58220 26270
L58370 26270
" />
<path d="M59542 25768
L59673 25581
" />
<path d="M59767 25768
L59767 25374
L59617 25374
L59580 25393
L59561 25412
L59542 25449
L59542 25506
L59561 25543
L59580 25562
L59617 25581
L59767 25581
" />
<path d="M59392 25656
L59205 25656
" />
<path d="M59430 25768
L59298 25374
L59167 25768
" />
<path d="M59036 25768
L59036 25374
" />
<path d="M58661 25768
L58848 25768
L58848 25374
" />
<path d="M58548 25749
L58492 25768
L58398 25768
L58361 25749
L58342 25731
L58323 25693
L58323 25656
L58342 25618
L58361 25599
L58398 25581
L58473 25562
L58511 25543
L58530 25524
L58548 25487
L58548 25449
L58530 25412
L58511 25393
L58473 25374
L58380 25374
L58323 25393
" />
<path d="M61122 28248
L62204 28248
" />
<path d="M61122 26870
L61122 28248
" />
<path d="M62204 26870
L61122 26870
" />
<path d="M56988 41633
L55905 41633
" />
<path d="M56988 40255
L56988 41633
" />
<path d="M55905 40255
L56988 40255
" />
<path d="M61712 27859
L61731 27896
L61731 27952
L61712 28008
L61675 28046
L61637 28065
L61562 28083
L61506 28083
L61431 28065
L61393 28046
L61356 28008
L61337 27952
L61337 27915
L61356 27859
L61375 27840
L61506 27840
L61506 27915
" />
<path d="M61337 27671
L61731 27671
L61337 27446
L61731 27446
" />
<path d="M61337 27259
L61731 27259
L61731 27165
L61712 27109
L61675 27071
L61637 27052
L61562 27034
L61506 27034
L61431 27052
L61393 27071
L61356 27109
L61337 27165
L61337 27259
" />
<path d="M56899 30286
L57030 30286
" />
<path d="M57030 30493
L57030 30099
L56842 30099
" />
<path d="M56692 30343
L56392 30343
" />
<path d="M56861 31280
L56992 31092
" />
<path d="M57086 31280
L57086 30886
L56936 30886
L56899 30905
L56880 30924
L56861 30961
L56861 31017
L56880 31055
L56899 31074
L56936 31092
L57086 31092
" />
<path d="M56692 31130
L56392 31130
" />
<path d="M56533 25768
L56721 25768
L56721 25374
" />
<path d="M61295 25768
L61426 25581
" />
<path d="M61520 25768
L61520 25374
L61370 25374
L61332 25393
L61314 25412
L61295 25449
L61295 25506
L61314 25543
L61332 25562
L61370 25581
L61520 25581
" />
<path d="M61520 26307
L61220 26307
" />
<path d="M61370 26457
L61370 26157
" />
<path d="M56889 26307
L56589 26307
" />
<path d="M58956 46161
L58956 48129
" />
<path d="M58366 46161
L58956 46161
" />
<path d="M58366 48129
L58366 46161
" />
<path d="M59448 49311
L59448 51574
" />
<path d="M60531 44783
L60728 44783
" />
<path d="M60531 44192
L60531 44783
" />
<path d="M60728 44192
L60531 44192
" />
<path d="M59448 44488
L60531 44488
" />
<path d="M59448 48129
L59448 44488
" />
<path d="M59744 30610
L59940 30610
" />
<path d="M59744 30019
L59744 30610
" />
<path d="M59940 30019
L59744 30019
" />
<path d="M59350 30314
L59744 30314
" />
<path d="M57578 48720
L57381 48720
" />
<path d="M57578 48129
L57578 48720
" />
<path d="M57381 48129
L57578 48129
" />
<path d="M58366 48425
L57578 48425
" />
<path d="M59104 32381
L59005 32381
" />
<path d="M59202 32234
L58907 32234
" />
<path d="M59301 32086
L58809 32086
" />
<path d="M59055 31840
L59055 32086
" />
<path d="M58858 31791
L59055 31840
" />
<path d="M59251 31692
L58858 31791
" />
<path d="M58858 31594
L59251 31692
" />
<path d="M59251 31496
L58858 31594
" />
<path d="M59055 31446
L59251 31496
" />
<path d="M59055 31200
L59055 31446
" />
<path d="M59350 43307
L59055 43307
" />
<path d="M59350 43110
L59350 43307
" />
<path d="M58759 43307
L59055 43307
" />
<path d="M59055 43307
L59055 43700
" />
<path d="M58759 43110
L58759 43307
" />
<path d="M59104 43996
L59005 43996
" />
<path d="M59202 43848
L58907 43848
" />
<path d="M59301 43700
L58809 43700
" />
<path d="M57185 51870
L56988 51870
" />
<path d="M57185 51279
L57185 51870
" />
<path d="M56988 51279
L57185 51279
" />
<path d="M58710 50492
L58612 50492
" />
<path d="M58809 50344
L58513 50344
" />
<path d="M58907 50196
L58415 50196
" />
<path d="M58661 49950
L58661 50196
" />
<path d="M58464 49901
L58661 49950
" />
<path d="M58858 49803
L58464 49901
" />
<path d="M58464 49704
L58858 49803
" />
<path d="M58858 49606
L58464 49704
" />
<path d="M58661 49557
L58858 49606
" />
<path d="M58661 49311
L58661 49557
" />
<path d="M59448 51574
L57185 51574
" />
<path d="M58689 47867
L58670 47811
L58652 47792
L58614 47773
L58558 47773
L58520 47792
L58502 47811
L58483 47848
L58483 47998
L58877 47998
L58877 47867
L58858 47829
L58839 47811
L58802 47792
L58764 47792
L58727 47811
L58708 47829
L58689 47867
L58689 47998
" />
<path d="M58877 47529
L58877 47455
L58858 47417
L58820 47380
L58745 47361
L58614 47361
L58539 47380
L58502 47417
L58483 47455
L58483 47529
L58502 47567
L58539 47604
L58614 47623
L58745 47623
L58820 47604
L58858 47567
L58877 47529
" />
<path d="M58877 47117
L58877 47042
L58858 47005
L58820 46967
L58745 46948
L58614 46948
L58539 46967
L58502 47005
L58483 47042
L58483 47117
L58502 47155
L58539 47192
L58614 47211
L58745 47211
L58820 47192
L58858 47155
L58877 47117
" />
<path d="M58877 46836
L58877 46611
" />
<path d="M58483 46723
L58877 46723
" />
<path d="M58483 46273
L58483 46498
" />
<path d="M58483 46386
L58877 46386
L58820 46423
L58783 46461
L58764 46498
" />
<path d="M59748 41418
L59617 41811
L59486 41418
" />
<path d="M59130 41774
L59148 41793
L59205 41811
L59242 41811
L59298 41793
L59336 41755
L59355 41718
L59373 41643
L59373 41586
L59355 41511
L59336 41474
L59298 41437
L59242 41418
L59205 41418
L59148 41437
L59130 41455
" />
<path d="M58980 41699
L58792 41699
" />
<path d="M59017 41811
L58886 41418
L58755 41811
" />
<path d="M58623 41811
L58623 41418
L58473 41418
L58436 41437
L58417 41455
L58398 41493
L58398 41549
L58417 41586
L58436 41605
L58473 41624
L58623 41624
" />
</g>
<g style="fill:#840084; fill-opacity:0.0; 
stroke:#840084; stroke-width:78.7402; stroke-opacity:1; 
stroke-linecap:round; stroke-linejoin:round;">
<path d="M56988 36909
L55905 36909
" />
<path d="M56988 35531
L56988 36909
" />
<path d="M55905 35531
L56988 35531
" />
</g>
<g style="fill:#840084; fill-opacity:0.0; 
stroke:#840084; stroke-width:59.0551; stroke-opacity:1; 
stroke-linecap:round; stroke-linejoin:round;">
<path d="M56772 36689
L56791 36670
L56810 36632
L56810 36539
L56791 36501
L56772 36482
L56735 36464
L56697 36464
L56641 36482
L56416 36707
L56416 36464
" />
<path d="M56810 36351
L56416 36220
L56810 36089
" />
<path d="M56641 35901
L56660 35939
L56678 35958
L56716 35976
L56735 35976
L56772 35958
L56791 35939
L56810 35901
L56810 35826
L56791 35789
L56772 35770
L56735 35751
L56716 35751
L56678 35770
L56660 35789
L56641 35826
L56641 35901
L56622 35939
L56603 35958
L56566 35976
L56491 35976
L56453 35958
L56435 35939
L56416 35901
L56416 35826
L56435 35789
L56453 35770
L56491 35751
L56566 35751
L56603 35770
L56622 35789
L56641 35826
" />
<path d="M56730 51359
L56917 51359
L56936 51546
L56917 51527
L56880 51509
L56786 51509
L56749 51527
L56730 51546
L56711 51584
L56711 51677
L56730 51715
L56749 51734
L56786 51752
L56880 51752
L56917 51734
L56936 51715
" />
<path d="M56599 51359
L56467 51752
L56336 51359
" />
<path d="M57386 50571
L57255 50965
L57124 50571
" />
<path d="M56767 50928
L56786 50946
L56842 50965
L56880 50965
L56936 50946
L56974 50909
L56992 50871
L57011 50796
L57011 50740
L56992 50665
L56974 50628
L56936 50590
L56880 50571
L56842 50571
L56786 50590
L56767 50609
" />
<path d="M56374 50928
L56392 50946
L56449 50965
L56486 50965
L56542 50946
L56580 50909
L56599 50871
L56617 50796
L56617 50740
L56599 50665
L56580 50628
L56542 50590
L56486 50571
L56449 50571
L56392 50590
L56374 50609
" />
<path d="M59514 33642
L59514 33923
L59533 33980
L59570 34017
L59626 34036
L59664 34036
" />
<path d="M59383 33642
L59158 33642
" />
<path d="M59270 34036
L59270 33642
" />
<path d="M59045 33923
L58858 33923
" />
<path d="M59083 34036
L58952 33642
L58820 34036
" />
<path d="M58483 33661
L58520 33642
L58577 33642
L58633 33661
L58670 33698
L58689 33736
L58708 33811
L58708 33867
L58689 33942
L58670 33980
L58633 34017
L58577 34036
L58539 34036
L58483 34017
L58464 33998
L58464 33867
L58539 33867
" />
</g>
<g style="fill:#840084; fill-opacity:0.0; 
stroke:#840084; stroke-width:78.7402; stroke-opacity:1; 
stroke-linecap:round; stroke-linejoin:round;">
<path d="M61122 40846
L62204 40846
" />
<path d="M61122 39468
L61122 40846
" />
<path d="M62204 39468
L61122 39468
" />
</g>
<g style="fill:#840084; fill-opacity:0.0; 
stroke:#840084; stroke-width:59.0551; stroke-opacity:1; 
stroke-linecap:round; stroke-linejoin:round;">
<path d="M61631 28717
L61586 28732
L61571 28747
L61556 28777
L61556 28822
L61571 28852
L61586 28867
L61616 28882
L61736 28882
L61736 28567
L61631 28567
L61601 28582
L61586 28597
L61571 28627
L61571 28657
L61586 28687
L61601 28702
L61631 28717
L61736 28717
" />
<path d="M61406 28882
L61346 28882
L61316 28867
L61301 28852
L61271 28807
L61256 28747
L61256 28627
L61271 28597
L61286 28582
L61316 28567
L61376 28567
L61406 28582
L61421 28597
L61436 28627
L61436 28702
L61421 28732
L61406 28747
L61376 28762
L61316 28762
L61286 28747
L61271 28732
L61256 28702
" />
<path d="M61631 29505
L61586 29520
L61571 29535
L61556 29565
L61556 29610
L61571 29640
L61586 29655
L61616 29670
L61736 29670
L61736 29355
L61631 29355
L61601 29370
L61586 29385
L61571 29415
L61571 29445
L61586 29475
L61601 29490
L61631 29505
L61736 29505
" />
<path d="M61376 29490
L61406 29475
L61421 29460
L61436 29430
L61436 29415
L61421 29385
L61406 29370
L61376 29355
L61316 29355
L61286 29370
L61271 29385
L61256 29415
L61256 29430
L61271 29460
L61286 29475
L61316 29490
L61376 29490
L61406 29505
L61421 29520
L61436 29550
L61436 29610
L61421 29640
L61406 29655
L61376 29670
L61316 29670
L61286 29655
L61271 29640
L61256 29610
L61256 29550
L61271 29520
L61286 29505
L61316 29490
" />
<path d="M61586 30286
L61529 30305
L61511 30324
L61492 30361
L61492 30418
L61511 30455
L61529 30474
L61567 30493
L61717 30493
L61717 30099
L61586 30099
L61548 30118
L61529 30136
L61511 30174
L61511 30211
L61529 30249
L61548 30268
L61586 30286
L61717 30286
" />
<path d="M61248 30099
L61173 30099
L61136 30118
L61098 30155
L61079 30230
L61079 30361
L61098 30436
L61136 30474
L61173 30493
L61248 30493
L61286 30474
L61323 30436
L61342 30361
L61342 30230
L61323 30155
L61286 30118
L61248 30099
" />
<path d="M60836 30099
L60761 30099
L60723 30118
L60686 30155
L60667 30230
L60667 30361
L60686 30436
L60723 30474
L60761 30493
L60836 30493
L60873 30474
L60911 30436
L60929 30361
L60929 30230
L60911 30155
L60873 30118
L60836 30099
" />
<path d="M60554 30099
L60329 30099
" />
<path d="M60442 30493
L60442 30099
" />
<path d="M60123 30099
L60086 30099
L60048 30118
L60029 30136
L60011 30174
L59992 30249
L59992 30343
L60011 30418
L60029 30455
L60048 30474
L60086 30493
L60123 30493
L60161 30474
L60179 30455
L60198 30418
L60217 30343
L60217 30249
L60198 30174
L60179 30136
L60161 30118
L60123 30099
" />
<path d="M61717 31280
L61717 30886
L61567 30886
L61529 30905
L61511 30924
L61492 30961
L61492 31017
L61511 31055
L61529 31074
L61567 31092
L61717 31092
" />
<path d="M61192 31074
L61136 31092
L61117 31111
L61098 31149
L61098 31205
L61117 31242
L61136 31261
L61173 31280
L61323 31280
L61323 30886
L61192 30886
L61154 30905
L61136 30924
L61117 30961
L61117 30999
L61136 31036
L61154 31055
L61192 31074
L61323 31074
" />
<path d="M60967 30886
L60704 30886
L60873 31280
" />
<path d="M61717 32067
L61717 31674
L61567 31674
L61529 31692
L61511 31711
L61492 31749
L61492 31805
L61511 31842
L61529 31861
L61567 31880
L61717 31880
" />
<path d="M61192 31861
L61136 31880
L61117 31899
L61098 31936
L61098 31992
L61117 32030
L61136 32049
L61173 32067
L61323 32067
L61323 31674
L61192 31674
L61154 31692
L61136 31711
L61117 31749
L61117 31786
L61136 31824
L61154 31842
L61192 31861
L61323 31861
" />
<path d="M60761 31674
L60836 31674
L60873 31692
L60892 31711
L60929 31767
L60948 31842
L60948 31992
L60929 32030
L60911 32049
L60873 32067
L60798 32067
L60761 32049
L60742 32030
L60723 31992
L60723 31899
L60742 31861
L60761 31842
L60798 31824
L60873 31824
L60911 31842
L60929 31861
L60948 31899
" />
<path d="M61717 32855
L61717 32461
L61567 32461
L61529 32480
L61511 32499
L61492 32536
L61492 32592
L61511 32630
L61529 32649
L61567 32667
L61717 32667
" />
<path d="M61192 32649
L61136 32667
L61117 32686
L61098 32724
L61098 32780
L61117 32817
L61136 32836
L61173 32855
L61323 32855
L61323 32461
L61192 32461
L61154 32480
L61136 32499
L61117 32536
L61117 32574
L61136 32611
L61154 32630
L61192 32649
L61323 32649
" />
<path d="M60742 32461
L60929 32461
L60948 32649
L60929 32630
L60892 32611
L60798 32611
L60761 32630
L60742 32649
L60723 32686
L60723 32780
L60742 32817
L60761 32836
L60798 32855
L60892 32855
L60929 32836
L60948 32817
" />
<path d="M61717 33642
L61717 33248
L61567 33248
L61529 33267
L61511 33286
L61492 33323
L61492 33380
L61511 33417
L61529 33436
L61567 33455
L61717 33455
" />
<path d="M61192 33436
L61136 33455
L61117 33473
L61098 33511
L61098 33567
L61117 33605
L61136 33623
L61173 33642
L61323 33642
L61323 33248
L61192 33248
L61154 33267
L61136 33286
L61117 33323
L61117 33361
L61136 33398
L61154 33417
L61192 33436
L61323 33436
" />
<path d="M60761 33380
L60761 33642
" />
<path d="M60854 33230
L60948 33511
L60704 33511
" />
<path d="M61717 34430
L61717 34036
L61567 34036
L61529 34055
L61511 34073
L61492 34111
L61492 34167
L61511 34205
L61529 34223
L61567 34242
L61717 34242
" />
<path d="M61192 34223
L61136 34242
L61117 34261
L61098 34298
L61098 34355
L61117 34392
L61136 34411
L61173 34430
L61323 34430
L61323 34036
L61192 34036
L61154 34055
L61136 34073
L61117 34111
L61117 34148
L61136 34186
L61154 34205
L61192 34223
L61323 34223
" />
<path d="M60967 34036
L60723 34036
L60854 34186
L60798 34186
L60761 34205
L60742 34223
L60723 34261
L60723 34355
L60742 34392
L60761 34411
L60798 34430
L60911 34430
L60948 34411
L60967 34392
" />
<path d="M61717 35217
L61717 34823
L61567 34823
L61529 34842
L61511 34861
L61492 34898
L61492 34955
L61511 34992
L61529 35011
L61567 35029
L61717 35029
" />
<path d="M61323 35217
L61323 34823
L61229 34823
L61173 34842
L61136 34880
L61117 34917
L61098 34992
L61098 35048
L61117 35123
L61136 35161
L61173 35198
L61229 35217
L61323 35217
" />
<path d="M60948 34861
L60929 34842
L60892 34823
L60798 34823
L60761 34842
L60742 34861
L60723 34898
L60723 34936
L60742 34992
L60967 35217
L60723 35217
" />
<path d="M61717 36004
L61717 35611
L61567 35611
L61529 35629
L61511 35648
L61492 35686
L61492 35742
L61511 35779
L61529 35798
L61567 35817
L61717 35817
" />
<path d="M61098 35967
L61117 35986
L61173 36004
L61211 36004
L61267 35986
L61304 35948
L61323 35911
L61342 35836
L61342 35779
L61323 35704
L61304 35667
L61267 35629
L61211 35611
L61173 35611
L61117 35629
L61098 35648
" />
<path d="M60723 36004
L60948 36004
" />
<path d="M60836 36004
L60836 35611
L60873 35667
L60911 35704
L60948 35723
" />
<path d="M60573 35648
L60554 35629
L60517 35611
L60423 35611
L60386 35629
L60367 35648
L60348 35686
L60348 35723
L60367 35779
L60592 36004
L60348 36004
" />
<path d="M61717 36792
L61717 36398
L61567 36398
L61529 36417
L61511 36436
L61492 36473
L61492 36529
L61511 36567
L61529 36586
L61567 36604
L61717 36604
" />
<path d="M61098 36754
L61117 36773
L61173 36792
L61211 36792
L61267 36773
L61304 36736
L61323 36698
L61342 36623
L61342 36567
L61323 36492
L61304 36454
L61267 36417
L61211 36398
L61173 36398
L61117 36417
L61098 36436
" />
<path d="M60723 36792
L60948 36792
" />
<path d="M60836 36792
L60836 36398
L60873 36454
L60911 36492
L60948 36511
" />
<path d="M60348 36792
L60573 36792
" />
<path d="M60461 36792
L60461 36398
L60498 36454
L60536 36492
L60573 36511
" />
<path d="M61717 37579
L61717 37185
L61567 37185
L61529 37204
L61511 37223
L61492 37260
L61492 37317
L61511 37354
L61529 37373
L61567 37392
L61717 37392
" />
<path d="M61098 37542
L61117 37560
L61173 37579
L61211 37579
L61267 37560
L61304 37523
L61323 37485
L61342 37410
L61342 37354
L61323 37279
L61304 37242
L61267 37204
L61211 37185
L61173 37185
L61117 37204
L61098 37223
" />
<path d="M60723 37579
L60948 37579
" />
<path d="M60836 37579
L60836 37185
L60873 37242
L60911 37279
L60948 37298
" />
<path d="M60479 37185
L60442 37185
L60404 37204
L60386 37223
L60367 37260
L60348 37335
L60348 37429
L60367 37504
L60386 37542
L60404 37560
L60442 37579
L60479 37579
L60517 37560
L60536 37542
L60554 37504
L60573 37429
L60573 37335
L60554 37260
L60536 37223
L60517 37204
L60479 37185
" />
<path d="M61717 38367
L61717 37973
L61567 37973
L61529 37992
L61511 38010
L61492 38048
L61492 38104
L61511 38142
L61529 38160
L61567 38179
L61717 38179
" />
<path d="M61342 38254
L61154 38254
" />
<path d="M61379 38367
L61248 37973
L61117 38367
" />
<path d="M60779 38367
L61004 38367
" />
<path d="M60892 38367
L60892 37973
L60929 38029
L60967 38067
L61004 38085
" />
<path d="M60423 37973
L60611 37973
L60629 38160
L60611 38142
L60573 38123
L60479 38123
L60442 38142
L60423 38160
L60404 38198
L60404 38292
L60423 38329
L60442 38348
L60479 38367
L60573 38367
L60611 38348
L60629 38329
" />
<path d="M61717 39154
L61717 38760
L61567 38760
L61529 38779
L61511 38798
L61492 38835
L61492 38892
L61511 38929
L61529 38948
L61567 38967
L61717 38967
" />
<path d="M61342 39041
L61154 39041
" />
<path d="M61379 39154
L61248 38760
L61117 39154
" />
<path d="M60779 39154
L61004 39154
" />
<path d="M60892 39154
L60892 38760
L60929 38817
L60967 38854
L61004 38873
" />
<path d="M60442 38892
L60442 39154
" />
<path d="M60536 38742
L60629 39023
L60386 39023
" />
<path d="M61693 40626
L61712 40607
L61731 40569
L61731 40476
L61712 40438
L61693 40419
L61656 40401
L61618 40401
L61562 40419
L61337 40644
L61337 40401
" />
<path d="M61731 40288
L61337 40157
L61731 40026
" />
<path d="M61562 39838
L61581 39876
L61600 39895
L61637 39913
L61656 39913
L61693 39895
L61712 39876
L61731 39838
L61731 39763
L61712 39726
L61693 39707
L61656 39688
L61637 39688
L61600 39707
L61581 39726
L61562 39763
L61562 39838
L61543 39876
L61525 39895
L61487 39913
L61412 39913
L61375 39895
L61356 39876
L61337 39838
L61337 39763
L61356 39726
L61375 39707
L61412 39688
L61487 39688
L61525 39707
L61543 39726
L61562 39763
" />
<path d="M61717 41516
L61717 41122
L61567 41122
L61529 41141
L61511 41160
L61492 41197
L61492 41254
L61511 41291
L61529 41310
L61567 41329
L61717 41329
" />
<path d="M61342 41404
L61154 41404
" />
<path d="M61379 41516
L61248 41122
L61117 41516
" />
<path d="M60779 41516
L61004 41516
" />
<path d="M60892 41516
L60892 41122
L60929 41179
L60967 41216
L61004 41235
" />
<path d="M60648 41122
L60404 41122
L60536 41272
L60479 41272
L60442 41291
L60423 41310
L60404 41347
L60404 41441
L60423 41479
L60442 41497
L60479 41516
L60592 41516
L60629 41497
L60648 41479
" />
<path d="M61717 42304
L61717 41910
L61567 41910
L61529 41929
L61511 41947
L61492 41985
L61492 42041
L61511 42079
L61529 42097
L61567 42116
L61717 42116
" />
<path d="M61342 42191
L61154 42191
" />
<path d="M61379 42304
L61248 41910
L61117 42304
" />
<path d="M60779 42304
L61004 42304
" />
<path d="M60892 42304
L60892 41910
L60929 41966
L60967 42004
L61004 42022
" />
<path d="M60629 41947
L60611 41929
L60573 41910
L60479 41910
L60442 41929
L60423 41947
L60404 41985
L60404 42022
L60423 42079
L60648 42304
L60404 42304
" />
<path d="M61717 43091
L61717 42697
L61567 42697
L61529 42716
L61511 42735
L61492 42772
L61492 42829
L61511 42866
L61529 42885
L61567 42904
L61717 42904
" />
<path d="M61342 42979
L61154 42979
" />
<path d="M61379 43091
L61248 42697
L61117 43091
" />
<path d="M60779 43091
L61004 43091
" />
<path d="M60892 43091
L60892 42697
L60929 42754
L60967 42791
L61004 42810
" />
<path d="M60404 43091
L60629 43091
" />
<path d="M60517 43091
L60517 42697
L60554 42754
L60592 42791
L60629 42810
" />
<path d="M61717 43878
L61717 43485
L61567 43485
L61529 43503
L61511 43522
L61492 43560
L61492 43616
L61511 43653
L61529 43672
L61567 43691
L61717 43691
" />
<path d="M61342 43766
L61154 43766
" />
<path d="M61379 43878
L61248 43485
L61117 43878
" />
<path d="M60779 43878
L61004 43878
" />
<path d="M60892 43878
L60892 43485
L60929 43541
L60967 43578
L61004 43597
" />
<path d="M60536 43485
L60498 43485
L60461 43503
L60442 43522
L60423 43560
L60404 43635
L60404 43728
L60423 43803
L60442 43841
L60461 43860
L60498 43878
L60536 43878
L60573 43860
L60592 43841
L60611 43803
L60629 43728
L60629 43635
L60611 43560
L60592 43522
L60573 43503
L60536 43485
" />
<path d="M61717 44666
L61717 44272
L61567 44272
L61529 44291
L61511 44310
L61492 44347
L61492 44403
L61511 44441
L61529 44460
L61567 44478
L61717 44478
" />
<path d="M61342 44553
L61154 44553
" />
<path d="M61379 44666
L61248 44272
L61117 44666
" />
<path d="M60967 44666
L60892 44666
L60854 44647
L60836 44628
L60798 44572
L60779 44497
L60779 44347
L60798 44310
L60817 44291
L60854 44272
L60929 44272
L60967 44291
L60986 44310
L61004 44347
L61004 44441
L60986 44478
L60967 44497
L60929 44516
L60854 44516
L60817 44497
L60798 44478
L60779 44441
" />
<path d="M61717 45453
L61717 45059
L61567 45059
L61529 45078
L61511 45097
L61492 45134
L61492 45191
L61511 45228
L61529 45247
L61567 45266
L61717 45266
" />
<path d="M61342 45341
L61154 45341
" />
<path d="M61379 45453
L61248 45059
L61117 45453
" />
<path d="M60929 45228
L60967 45209
L60986 45191
L61004 45153
L61004 45134
L60986 45097
L60967 45078
L60929 45059
L60854 45059
L60817 45078
L60798 45097
L60779 45134
L60779 45153
L60798 45191
L60817 45209
L60854 45228
L60929 45228
L60967 45247
L60986 45266
L61004 45303
L61004 45378
L60986 45416
L60967 45434
L60929 45453
L60854 45453
L60817 45434
L60798 45416
L60779 45378
L60779 45303
L60798 45266
L60817 45247
L60854 45228
" />
<path d="M61717 46241
L61717 45847
L61567 45847
L61529 45866
L61511 45884
L61492 45922
L61492 45978
L61511 46016
L61529 46034
L61567 46053
L61717 46053
" />
<path d="M61098 46203
L61117 46222
L61173 46241
L61211 46241
L61267 46222
L61304 46184
L61323 46147
L61342 46072
L61342 46016
L61323 45941
L61304 45903
L61267 45866
L61211 45847
L61173 45847
L61117 45866
L61098 45884
" />
<path d="M60911 46241
L60836 46241
L60798 46222
L60779 46203
L60742 46147
L60723 46072
L60723 45922
L60742 45884
L60761 45866
L60798 45847
L60873 45847
L60911 45866
L60929 45884
L60948 45922
L60948 46016
L60929 46053
L60911 46072
L60873 46091
L60798 46091
L60761 46072
L60742 46053
L60723 46016
" />
<path d="M61717 47028
L61717 46634
L61567 46634
L61529 46653
L61511 46672
L61492 46709
L61492 46766
L61511 46803
L61529 46822
L61567 46841
L61717 46841
" />
<path d="M61098 46991
L61117 47009
L61173 47028
L61211 47028
L61267 47009
L61304 46972
L61323 46934
L61342 46859
L61342 46803
L61323 46728
L61304 46691
L61267 46653
L61211 46634
L61173 46634
L61117 46653
L61098 46672
" />
<path d="M60873 46803
L60911 46784
L60929 46766
L60948 46728
L60948 46709
L60929 46672
L60911 46653
L60873 46634
L60798 46634
L60761 46653
L60742 46672
L60723 46709
L60723 46728
L60742 46766
L60761 46784
L60798 46803
L60873 46803
L60911 46822
L60929 46841
L60948 46878
L60948 46953
L60929 46991
L60911 47009
L60873 47028
L60798 47028
L60761 47009
L60742 46991
L60723 46953
L60723 46878
L60742 46841
L60761 46822
L60798 46803
" />
<path d="M61717 47815
L61717 47422
L61567 47422
L61529 47440
L61511 47459
L61492 47497
L61492 47553
L61511 47590
L61529 47609
L61567 47628
L61717 47628
" />
<path d="M61098 47778
L61117 47797
L61173 47815
L61211 47815
L61267 47797
L61304 47759
L61323 47722
L61342 47647
L61342 47590
L61323 47515
L61304 47478
L61267 47440
L61211 47422
L61173 47422
L61117 47440
L61098 47459
" />
<path d="M60967 47422
L60704 47422
L60873 47815
" />
<path d="M61717 48603
L61717 48209
L61567 48209
L61529 48228
L61511 48247
L61492 48284
L61492 48340
L61511 48378
L61529 48397
L61567 48415
L61717 48415
" />
<path d="M61098 48565
L61117 48584
L61173 48603
L61211 48603
L61267 48584
L61304 48547
L61323 48509
L61342 48434
L61342 48378
L61323 48303
L61304 48265
L61267 48228
L61211 48209
L61173 48209
L61117 48228
L61098 48247
" />
<path d="M60761 48209
L60836 48209
L60873 48228
L60892 48247
L60929 48303
L60948 48378
L60948 48528
L60929 48565
L60911 48584
L60873 48603
L60798 48603
L60761 48584
L60742 48565
L60723 48528
L60723 48434
L60742 48397
L60761 48378
L60798 48359
L60873 48359
L60911 48378
L60929 48397
L60948 48434
" />
<path d="M61717 49390
L61717 48997
L61567 48997
L61529 49015
L61511 49034
L61492 49071
L61492 49128
L61511 49165
L61529 49184
L61567 49203
L61717 49203
" />
<path d="M61192 49184
L61136 49203
L61117 49221
L61098 49259
L61098 49315
L61117 49353
L61136 49371
L61173 49390
L61323 49390
L61323 48997
L61192 48997
L61154 49015
L61136 49034
L61117 49071
L61117 49109
L61136 49146
L61154 49165
L61192 49184
L61323 49184
" />
<path d="M60723 49390
L60948 49390
" />
<path d="M60836 49390
L60836 48997
L60873 49053
L60911 49090
L60948 49109
" />
<path d="M60367 48997
L60554 48997
L60573 49184
L60554 49165
L60517 49146
L60423 49146
L60386 49165
L60367 49184
L60348 49221
L60348 49315
L60367 49353
L60386 49371
L60423 49390
L60517 49390
L60554 49371
L60573 49353
" />
<path d="M61717 50178
L61717 49784
L61567 49784
L61529 49803
L61511 49821
L61492 49859
L61492 49915
L61511 49953
L61529 49971
L61567 49990
L61717 49990
" />
<path d="M61192 49971
L61136 49990
L61117 50009
L61098 50046
L61098 50103
L61117 50140
L61136 50159
L61173 50178
L61323 50178
L61323 49784
L61192 49784
L61154 49803
L61136 49821
L61117 49859
L61117 49896
L61136 49934
L61154 49953
L61192 49971
L61323 49971
" />
<path d="M60723 50178
L60948 50178
" />
<path d="M60836 50178
L60836 49784
L60873 49840
L60911 49878
L60948 49896
" />
<path d="M60386 49915
L60386 50178
" />
<path d="M60479 49765
L60573 50046
L60329 50046
" />
<path d="M61717 50965
L61717 50571
L61567 50571
L61529 50590
L61511 50609
L61492 50646
L61492 50703
L61511 50740
L61529 50759
L61567 50778
L61717 50778
" />
<path d="M61192 50759
L61136 50778
L61117 50796
L61098 50834
L61098 50890
L61117 50928
L61136 50946
L61173 50965
L61323 50965
L61323 50571
L61192 50571
L61154 50590
L61136 50609
L61117 50646
L61117 50684
L61136 50721
L61154 50740
L61192 50759
L61323 50759
" />
<path d="M60723 50965
L60948 50965
" />
<path d="M60836 50965
L60836 50571
L60873 50628
L60911 50665
L60948 50684
" />
<path d="M60592 50571
L60348 50571
L60479 50721
L60423 50721
L60386 50740
L60367 50759
L60348 50796
L60348 50890
L60367 50928
L60386 50946
L60423 50965
L60536 50965
L60573 50946
L60592 50928
" />
<path d="M61717 51752
L61717 51359
L61567 51359
L61529 51377
L61511 51396
L61492 51434
L61492 51490
L61511 51527
L61529 51546
L61567 51565
L61717 51565
" />
<path d="M61192 51546
L61136 51565
L61117 51584
L61098 51621
L61098 51677
L61117 51715
L61136 51734
L61173 51752
L61323 51752
L61323 51359
L61192 51359
L61154 51377
L61136 51396
L61117 51434
L61117 51471
L61136 51509
L61154 51527
L61192 51546
L61323 51546
" />
<path d="M60723 51752
L60948 51752
" />
<path d="M60836 51752
L60836 51359
L60873 51415
L60911 51452
L60948 51471
" />
<path d="M60573 51396
L60554 51377
L60517 51359
L60423 51359
L60386 51377
L60367 51396
L60348 51434
L60348 51471
L60367 51527
L60592 51752
L60348 51752
" />
<path d="M57742 50178
L57742 49784
L57592 49784
L57555 49803
L57536 49821
L57517 49859
L57517 49915
L57536 49953
L57555 49971
L57592 49990
L57742 49990
" />
<path d="M57217 49971
L57161 49990
L57142 50009
L57124 50046
L57124 50103
L57142 50140
L57161 50159
L57199 50178
L57349 50178
L57349 49784
L57217 49784
L57180 49803
L57161 49821
L57142 49859
L57142 49896
L57161 49934
L57180 49953
L57217 49971
L57349 49971
" />
<path d="M56749 50178
L56974 50178
" />
<path d="M56861 50178
L56861 49784
L56899 49840
L56936 49878
L56974 49896
" />
<path d="M56374 50178
L56599 50178
" />
<path d="M56486 50178
L56486 49784
L56524 49840
L56561 49878
L56599 49896
" />
<path d="M57742 49390
L57742 48997
L57592 48997
L57555 49015
L57536 49034
L57517 49071
L57517 49128
L57536 49165
L57555 49184
L57592 49203
L57742 49203
" />
<path d="M57217 49184
L57161 49203
L57142 49221
L57124 49259
L57124 49315
L57142 49353
L57161 49371
L57199 49390
L57349 49390
L57349 48997
L57217 48997
L57180 49015
L57161 49034
L57142 49071
L57142 49109
L57161 49146
L57180 49165
L57217 49184
L57349 49184
" />
<path d="M56749 49390
L56974 49390
" />
<path d="M56861 49390
L56861 48997
L56899 49053
L56936 49090
L56974 49109
" />
<path d="M56505 48997
L56467 48997
L56430 49015
L56411 49034
L56392 49071
L56374 49146
L56374 49240
L56392 49315
L56411 49353
L56430 49371
L56467 49390
L56505 49390
L56542 49371
L56561 49353
L56580 49315
L56599 49240
L56599 49146
L56580 49071
L56561 49034
L56542 49015
L56505 48997
" />
<path d="M57367 48603
L57367 48209
L57217 48209
L57180 48228
L57161 48247
L57142 48284
L57142 48340
L57161 48378
L57180 48397
L57217 48415
L57367 48415
" />
<path d="M56842 48397
L56786 48415
L56767 48434
L56749 48472
L56749 48528
L56767 48565
L56786 48584
L56824 48603
L56974 48603
L56974 48209
L56842 48209
L56805 48228
L56786 48247
L56767 48284
L56767 48322
L56786 48359
L56805 48378
L56842 48397
L56974 48397
" />
<path d="M56599 48247
L56580 48228
L56542 48209
L56449 48209
L56411 48228
L56392 48247
L56374 48284
L56374 48322
L56392 48378
L56617 48603
L56374 48603
" />
<path d="M57367 47815
L57367 47422
L57217 47422
L57180 47440
L57161 47459
L57142 47497
L57142 47553
L57161 47590
L57180 47609
L57217 47628
L57367 47628
" />
<path d="M56842 47609
L56786 47628
L56767 47647
L56749 47684
L56749 47740
L56767 47778
L56786 47797
L56824 47815
L56974 47815
L56974 47422
L56842 47422
L56805 47440
L56786 47459
L56767 47497
L56767 47534
L56786 47572
L56805 47590
L56842 47609
L56974 47609
" />
<path d="M56374 47815
L56599 47815
" />
<path d="M56486 47815
L56486 47422
L56524 47478
L56561 47515
L56599 47534
" />
<path d="M57367 47028
L57367 46634
L57217 46634
L57180 46653
L57161 46672
L57142 46709
L57142 46766
L57161 46803
L57180 46822
L57217 46841
L57367 46841
" />
<path d="M56842 46822
L56786 46841
L56767 46859
L56749 46897
L56749 46953
L56767 46991
L56786 47009
L56824 47028
L56974 47028
L56974 46634
L56842 46634
L56805 46653
L56786 46672
L56767 46709
L56767 46747
L56786 46784
L56805 46803
L56842 46822
L56974 46822
" />
<path d="M56505 46634
L56467 46634
L56430 46653
L56411 46672
L56392 46709
L56374 46784
L56374 46878
L56392 46953
L56411 46991
L56430 47009
L56467 47028
L56505 47028
L56542 47009
L56561 46991
L56580 46953
L56599 46878
L56599 46784
L56580 46709
L56561 46672
L56542 46653
L56505 46634
" />
<path d="M57367 46241
L57367 45847
L57217 45847
L57180 45866
L57161 45884
L57142 45922
L57142 45978
L57161 46016
L57180 46034
L57217 46053
L57367 46053
" />
<path d="M56749 46203
L56767 46222
L56824 46241
L56861 46241
L56917 46222
L56955 46184
L56974 46147
L56992 46072
L56992 46016
L56974 45941
L56955 45903
L56917 45866
L56861 45847
L56824 45847
L56767 45866
L56749 45884
" />
<path d="M56392 45847
L56580 45847
L56599 46034
L56580 46016
L56542 45997
L56449 45997
L56411 46016
L56392 46034
L56374 46072
L56374 46166
L56392 46203
L56411 46222
L56449 46241
L56542 46241
L56580 46222
L56599 46203
" />
<path d="M57367 45453
L57367 45059
L57217 45059
L57180 45078
L57161 45097
L57142 45134
L57142 45191
L57161 45228
L57180 45247
L57217 45266
L57367 45266
" />
<path d="M56749 45416
L56767 45434
L56824 45453
L56861 45453
L56917 45434
L56955 45397
L56974 45359
L56992 45284
L56992 45228
L56974 45153
L56955 45116
L56917 45078
L56861 45059
L56824 45059
L56767 45078
L56749 45097
" />
<path d="M56411 45191
L56411 45453
" />
<path d="M56505 45041
L56599 45322
L56355 45322
" />
<path d="M57311 44666
L57311 44272
L57161 44272
L57124 44291
L57105 44310
L57086 44347
L57086 44403
L57105 44441
L57124 44460
L57161 44478
L57311 44478
" />
<path d="M56936 44553
L56749 44553
" />
<path d="M56974 44666
L56842 44272
L56711 44666
" />
<path d="M56617 44272
L56355 44272
L56524 44666
" />
<path d="M57311 43878
L57311 43485
L57161 43485
L57124 43503
L57105 43522
L57086 43560
L57086 43616
L57105 43653
L57124 43672
L57161 43691
L57311 43691
" />
<path d="M56936 43766
L56749 43766
" />
<path d="M56974 43878
L56842 43485
L56711 43878
" />
<path d="M56411 43485
L56486 43485
L56524 43503
L56542 43522
L56580 43578
L56599 43653
L56599 43803
L56580 43841
L56561 43860
L56524 43878
L56449 43878
L56411 43860
L56392 43841
L56374 43803
L56374 43710
L56392 43672
L56411 43653
L56449 43635
L56524 43635
L56561 43653
L56580 43672
L56599 43710
" />
<path d="M57311 43091
L57311 42697
L57161 42697
L57124 42716
L57105 42735
L57086 42772
L57086 42829
L57105 42866
L57124 42885
L57161 42904
L57311 42904
" />
<path d="M56936 42979
L56749 42979
" />
<path d="M56974 43091
L56842 42697
L56711 43091
" />
<path d="M56392 42697
L56580 42697
L56599 42885
L56580 42866
L56542 42847
L56449 42847
L56411 42866
L56392 42885
L56374 42922
L56374 43016
L56392 43053
L56411 43072
L56449 43091
L56542 43091
L56580 43072
L56599 43053
" />
<path d="M57311 42304
L57311 41910
L57161 41910
L57124 41929
L57105 41947
L57086 41985
L57086 42041
L57105 42079
L57124 42097
L57161 42116
L57311 42116
" />
<path d="M56936 42191
L56749 42191
" />
<path d="M56974 42304
L56842 41910
L56711 42304
" />
<path d="M56411 42041
L56411 42304
" />
<path d="M56505 41891
L56599 42172
L56355 42172
" />
<path d="M56791 41244
L56810 41282
L56810 41338
L56791 41394
L56753 41432
L56716 41451
L56641 41469
L56585 41469
L56510 41451
L56472 41432
L56435 41394
L56416 41338
L56416 41301
L56435 41244
L56453 41226
L56585 41226
L56585 41301
" />
<path d="M56416 41057
L56810 41057
L56416 40832
L56810 40832
" />
<path d="M56416 40644
L56810 40644
L56810 40551
L56791 40494
L56753 40457
L56716 40438
L56641 40419
L56585 40419
L56510 40438
L56472 40457
L56435 40494
L56416 40551
L56416 40644
" />
<path d="M57311 39941
L57311 39548
L57161 39548
L57124 39566
L57105 39585
L57086 39623
L57086 39679
L57105 39716
L57124 39735
L57161 39754
L57311 39754
" />
<path d="M56936 39829
L56749 39829
" />
<path d="M56974 39941
L56842 39548
L56711 39941
" />
<path d="M56617 39548
L56374 39548
L56505 39698
L56449 39698
L56411 39716
L56392 39735
L56374 39773
L56374 39866
L56392 39904
L56411 39923
L56449 39941
L56561 39941
L56599 39923
L56617 39904
" />
<path d="M57311 39154
L57311 38760
L57161 38760
L57124 38779
L57105 38798
L57086 38835
L57086 38892
L57105 38929
L57124 38948
L57161 38967
L57311 38967
" />
<path d="M56936 39041
L56749 39041
" />
<path d="M56974 39154
L56842 38760
L56711 39154
" />
<path d="M56599 38798
L56580 38779
L56542 38760
L56449 38760
L56411 38779
L56392 38798
L56374 38835
L56374 38873
L56392 38929
L56617 39154
L56374 39154
" />
<path d="M57311 38367
L57311 37973
L57161 37973
L57124 37992
L57105 38010
L57086 38048
L57086 38104
L57105 38142
L57124 38160
L57161 38179
L57311 38179
" />
<path d="M56936 38254
L56749 38254
" />
<path d="M56974 38367
L56842 37973
L56711 38367
" />
<path d="M56374 38367
L56599 38367
" />
<path d="M56486 38367
L56486 37973
L56524 38029
L56561 38067
L56599 38085
" />
<path d="M57311 37579
L57311 37185
L57161 37185
L57124 37204
L57105 37223
L57086 37260
L57086 37317
L57105 37354
L57124 37373
L57161 37392
L57311 37392
" />
<path d="M56936 37467
L56749 37467
" />
<path d="M56974 37579
L56842 37185
L56711 37579
" />
<path d="M56505 37185
L56467 37185
L56430 37204
L56411 37223
L56392 37260
L56374 37335
L56374 37429
L56392 37504
L56411 37542
L56430 37560
L56467 37579
L56505 37579
L56542 37560
L56561 37542
L56580 37504
L56599 37429
L56599 37335
L56580 37260
L56561 37223
L56542 37204
L56505 37185
" />
<path d="M57367 35217
L57367 34823
L57217 34823
L57180 34842
L57161 34861
L57142 34898
L57142 34955
L57161 34992
L57180 35011
L57217 35029
L57367 35029
" />
<path d="M56749 35179
L56767 35198
L56824 35217
L56861 35217
L56917 35198
L56955 35161
L56974 35123
L56992 35048
L56992 34992
L56974 34917
L56955 34880
L56917 34842
L56861 34823
L56824 34823
L56767 34842
L56749 34861
" />
<path d="M56617 34823
L56374 34823
L56505 34973
L56449 34973
L56411 34992
L56392 35011
L56374 35048
L56374 35142
L56392 35179
L56411 35198
L56449 35217
L56561 35217
L56599 35198
L56617 35179
" />
<path d="M57367 34430
L57367 34036
L57217 34036
L57180 34055
L57161 34073
L57142 34111
L57142 34167
L57161 34205
L57180 34223
L57217 34242
L57367 34242
" />
<path d="M56749 34392
L56767 34411
L56824 34430
L56861 34430
L56917 34411
L56955 34373
L56974 34336
L56992 34261
L56992 34205
L56974 34130
L56955 34092
L56917 34055
L56861 34036
L56824 34036
L56767 34055
L56749 34073
" />
<path d="M56599 34073
L56580 34055
L56542 34036
L56449 34036
L56411 34055
L56392 34073
L56374 34111
L56374 34148
L56392 34205
L56617 34430
L56374 34430
" />
<path d="M57367 33642
L57367 33248
L57217 33248
L57180 33267
L57161 33286
L57142 33323
L57142 33380
L57161 33417
L57180 33436
L57217 33455
L57367 33455
" />
<path d="M56749 33605
L56767 33623
L56824 33642
L56861 33642
L56917 33623
L56955 33586
L56974 33548
L56992 33473
L56992 33417
L56974 33342
L56955 33305
L56917 33267
L56861 33248
L56824 33248
L56767 33267
L56749 33286
" />
<path d="M56374 33642
L56599 33642
" />
<path d="M56486 33642
L56486 33248
L56524 33305
L56561 33342
L56599 33361
" />
<path d="M57367 32855
L57367 32461
L57217 32461
L57180 32480
L57161 32499
L57142 32536
L57142 32592
L57161 32630
L57180 32649
L57217 32667
L57367 32667
" />
<path d="M56749 32817
L56767 32836
L56824 32855
L56861 32855
L56917 32836
L56955 32799
L56974 32761
L56992 32686
L56992 32630
L56974 32555
L56955 32517
L56917 32480
L56861 32461
L56824 32461
L56767 32480
L56749 32499
" />
<path d="M56505 32461
L56467 32461
L56430 32480
L56411 32499
L56392 32536
L56374 32611
L56374 32705
L56392 32780
L56411 32817
L56430 32836
L56467 32855
L56505 32855
L56542 32836
L56561 32817
L56580 32780
L56599 32705
L56599 32611
L56580 32536
L56561 32499
L56542 32480
L56505 32461
" />
<path d="M57686 32067
L57686 31674
L57461 32067
L57461 31674
" />
<path d="M57049 32067
L57180 31880
" />
<path d="M57274 32067
L57274 31674
L57124 31674
L57086 31692
L57067 31711
L57049 31749
L57049 31805
L57067 31842
L57086 31861
L57124 31880
L57274 31880
" />
<path d="M56899 32049
L56842 32067
L56749 32067
L56711 32049
L56692 32030
L56674 31992
L56674 31955
L56692 31917
L56711 31899
L56749 31880
L56824 31861
L56861 31842
L56880 31824
L56899 31786
L56899 31749
L56880 31711
L56861 31692
L56824 31674
L56730 31674
L56674 31692
" />
<path d="M56561 31674
L56336 31674
" />
<path d="M56449 32067
L56449 31674
" />
<path d="M56762 29246
L56777 29261
L56822 29276
L56852 29276
L56897 29261
L56927 29231
L56942 29201
L56957 29141
L56957 29096
L56942 29036
L56927 29006
L56897 28976
L56852 28961
L56822 28961
L56777 28976
L56762 28991
" />
<path d="M56462 29276
L56642 29276
" />
<path d="M56552 29276
L56552 28961
L56582 29006
L56612 29036
L56642 29051
" />
<path d="M56177 28961
L56327 28961
L56342 29111
L56327 29096
L56297 29081
L56222 29081
L56192 29096
L56177 29111
L56162 29141
L56162 29216
L56177 29246
L56192 29261
L56222 29276
L56297 29276
L56327 29261
L56342 29246
" />
<path d="M56762 28458
L56777 28473
L56822 28488
L56852 28488
L56897 28473
L56927 28443
L56942 28413
L56957 28353
L56957 28308
L56942 28248
L56927 28218
L56897 28188
L56852 28173
L56822 28173
L56777 28188
L56762 28203
" />
<path d="M56462 28488
L56642 28488
" />
<path d="M56552 28488
L56552 28173
L56582 28218
L56612 28248
L56642 28263
" />
<path d="M56192 28278
L56192 28488
" />
<path d="M56267 28158
L56342 28383
L56147 28383
" />
<path d="M56762 27671
L56777 27686
L56822 27701
L56852 27701
L56897 27686
L56927 27656
L56942 27626
L56957 27566
L56957 27521
L56942 27461
L56927 27431
L56897 27401
L56852 27386
L56822 27386
L56777 27401
L56762 27416
" />
<path d="M56462 27701
L56642 27701
" />
<path d="M56552 27701
L56552 27386
L56582 27431
L56612 27461
L56642 27476
" />
<path d="M56357 27386
L56162 27386
L56267 27506
L56222 27506
L56192 27521
L56177 27536
L56162 27566
L56162 27641
L56177 27671
L56192 27686
L56222 27701
L56312 27701
L56342 27686
L56357 27671
" />
<path d="M57167 26697
L57062 27012
L56957 26697
" />
<path d="M56747 26847
L56702 26862
L56687 26877
L56672 26907
L56672 26952
L56687 26982
L56702 26997
L56732 27012
L56852 27012
L56852 26697
L56747 26697
L56717 26712
L56702 26727
L56687 26757
L56687 26787
L56702 26817
L56717 26832
L56747 26847
L56852 26847
" />
<path d="M56552 26922
L56402 26922
" />
<path d="M56582 27012
L56477 26697
L56372 27012
" />
<path d="M56312 26697
L56132 26697
" />
<path d="M56222 27012
L56222 26697
" />
</g>
<g style="fill:#C2C200; fill-opacity:0.0; 
stroke:#C2C200; stroke-width:59.0551; stroke-opacity:1; 
stroke-linecap:round; stroke-linejoin:round;">
</g>
<g style="fill:#C2C200; fill-opacity:0.0; 
stroke:#C2C200; stroke-width:39.3701; stroke-opacity:1; 
stroke-linecap:round; stroke-linejoin:round;">
<path d="M55905 51968
L55905 25196
" />
<path d="M62204 51968
L55905 51968
" />
<path d="M62204 25196
L62204 51968
" />
<path d="M55905 25196
L62204 25196
" />
</g>
<g style="fill:#840000; fill-opacity:0.0; 
stroke:#840000; stroke-width:39.3701; stroke-opacity:1; 
stroke-linecap:round; stroke-linejoin:round;">
<path d="M59133 35303
L59133 35472
L59145 35506
L59167 35528
L59201 35539
L59223 35539
" />
<path d="M59043 35303
L58897 35303
L58976 35393
L58942 35393
L58920 35404
L58908 35416
L58897 35438
L58897 35494
L58908 35517
L58920 35528
L58942 35539
L59010 35539
L59032 35528
L59043 35517
" />
</g>
<g style="fill:#840000; fill-opacity:0.0; 
stroke:#840000; stroke-width:59.0551; stroke-opacity:1; 
stroke-linecap:round; stroke-linejoin:round;">
<path d="M59186 27934
L59186 28215
L59205 28271
L59242 28308
L59298 28327
L59336 28327
" />
<path d="M59036 27934
L58773 27934
L58942 28327
" />
</g>
<g style="fill:#840084; fill-opacity:0.0; 
stroke:#840084; stroke-width:59.0551; stroke-opacity:1; 
stroke-linecap:round; stroke-linejoin:round;">
</g>
<g style="fill:#840084; fill-opacity:0.0; 
stroke:#840084; stroke-width:47.2441; stroke-opacity:1; 
stroke-linecap:round; stroke-linejoin:round;">
<path d="M59578 34167
L59578 34159
" />
<path d="M59578 34159
L58531 34159
" />
<path d="M58531 34159
L58531 34167
" />
<path d="M59578 36698
L59578 36706
" />
<path d="M59578 36706
L58531 36706
" />
<path d="M58531 36706
L58531 36698
" />
<path d="M60486 34167
L59578 34167
" />
<path d="M60870 29173
L61078 29173
" />
<path d="M61078 29173
L61078 27125
" />
<path d="M61078 27125
L60870 27125
" />
<path d="M57240 29173
L57031 29173
" />
<path d="M57031 29173
L57031 27125
" />
<path d="M57031 27125
L57240 27125
" />
<path d="M60870 29830
L60870 29173
" />
</g>
<g style="fill:#840084; fill-opacity:0.0; 
stroke:#840084; stroke-width:59.0551; stroke-opacity:1; 
stroke-linecap:round; stroke-linejoin:round;">
<path d="M59350 30019
L58759 30019
" />
<path d="M59350 31200
L59350 30019
" />
<path d="M58759 31200
L59350 31200
" />
<path d="M58759 30019
L58759 31200
" />
<path d="M58956 48129
L58366 48129
" />
<path d="M58956 49311
L58956 48129
" />
<path d="M58366 49311
L58956 49311
" />
<path d="M58366 48129
L58366 49311
" />
<path d="M58464 43110
L59055 43110
" />
<path d="M58464 41929
L58464 43110
" />
<path d="M59055 41929
L58464 41929
" />
<path d="M59055 43110
L59055 41929
" />
<path d="M59055 43110
L59645 43110
" />
<path d="M59055 41929
L59055 43110
" />
<path d="M59645 41929
L59055 41929
" />
<path d="M59645 43110
L59645 41929
" />
<path d="M59153 49311
L59744 49311
" />
<path d="M59153 48129
L59153 49311
" />
<path d="M59744 48129
L59153 48129
" />
<path d="M59744 49311
L59744 48129
" />
</g>
<g style="fill:#840084; fill-opacity:1.0; 
stroke:#840084; stroke-width:98.4252; stroke-opacity:1; 
stroke-linecap:round; stroke-linejoin:round;">
<polyline style="fill-rule:evenodd;"
points="59943,38533
59448,38533
59429,38537
59413,38548
59402,38564
59399,38582
59399,40895
58710,40895
58710,38582
58706,38563
58695,38547
58679,38536
58661,38533
58166,38533
59055,37289
59943,38533
" /> 
</g> 
</svg>
