<?xml version="1.0" standalone="no"?>
 <!DOCTYPE svg PUBLIC "-//W3C//DTD SVG 1.1//EN" 
 "http://www.w3.org/Graphics/SVG/1.1/DTD/svg11.dtd"> 
<svg xmlns="http://www.w3.org/2000/svg" version="1.1" 
    width="29.7002cm" height="21.0007cm" viewBox="0 0 116930 82680 ">
<title>SVG Picture created as locomotive_ir_receiver.sch.svg date 2017/03/21 16:17:21 </title>
  <desc>Picture generated by Eeschema-SVG </desc>
<g style="fill:#000000; fill-opacity:1;stroke:#000000; stroke-opacity:1;
stroke-linecap:round; stroke-linejoin:round; "
 transform="translate(0 0) scale(1 1)">
</g>
<g style="fill:#000000; fill-opacity:0.0; 
stroke:#000000; stroke-width:-10; stroke-opacity:1; 
stroke-linecap:round; stroke-linejoin:round;">
</g>
<g style="fill:#840000; fill-opacity:0.0; 
stroke:#840000; stroke-width:-10; stroke-opacity:1; 
stroke-linecap:round; stroke-linejoin:round;">
</g>
<g style="fill:#840000; fill-opacity:0.0; 
stroke:#840000; stroke-width:100; stroke-opacity:1; 
stroke-linecap:round; stroke-linejoin:round;">
</g>
<g style="fill:#840000; fill-opacity:0.0; 
stroke:#840000; stroke-width:60; stroke-opacity:1; 
stroke-linecap:round; stroke-linejoin:round;">
<rect x="69690" y="65360" width="42520" height="12600" rx="0" />
</g>
<g style="fill:#840000; fill-opacity:0.0; 
stroke:#840000; stroke-width:100; stroke-opacity:1; 
stroke-linecap:round; stroke-linejoin:round;">
</g>
<g style="fill:#840000; fill-opacity:0.0; 
stroke:#840000; stroke-width:60; stroke-opacity:1; 
stroke-linecap:round; stroke-linejoin:round;">
<rect x="3940" y="3940" width="109050" height="74800" rx="0" />
</g>
<g style="fill:#840000; fill-opacity:0.0; 
stroke:#840000; stroke-width:100; stroke-opacity:1; 
stroke-linecap:round; stroke-linejoin:round;">
</g>
<g style="fill:#840000; fill-opacity:0.0; 
stroke:#840000; stroke-width:60; stroke-opacity:1; 
stroke-linecap:round; stroke-linejoin:round;">
<rect x="4720" y="4720" width="107490" height="73240" rx="0" />
</g>
<g style="fill:#840000; fill-opacity:0.0; 
stroke:#840000; stroke-width:100; stroke-opacity:1; 
stroke-linecap:round; stroke-linejoin:round;">
</g>
<g style="fill:#840000; fill-opacity:0.0; 
stroke:#840000; stroke-width:60; stroke-opacity:1; 
stroke-linecap:round; stroke-linejoin:round;">
<path d="M23620 4720
L23620 3940
" />
</g>
<g style="fill:#840000; fill-opacity:0.0; 
stroke:#840000; stroke-width:100; stroke-opacity:1; 
stroke-linecap:round; stroke-linejoin:round;">
</g>
<g style="fill:#840000; fill-opacity:0.0; 
stroke:#840000; stroke-width:60; stroke-opacity:1; 
stroke-linecap:round; stroke-linejoin:round;">
<path d="M43310 4720
L43310 3940
" />
</g>
<g style="fill:#840000; fill-opacity:0.0; 
stroke:#840000; stroke-width:100; stroke-opacity:1; 
stroke-linecap:round; stroke-linejoin:round;">
</g>
<g style="fill:#840000; fill-opacity:0.0; 
stroke:#840000; stroke-width:60; stroke-opacity:1; 
stroke-linecap:round; stroke-linejoin:round;">
<path d="M62990 4720
L62990 3940
" />
</g>
<g style="fill:#840000; fill-opacity:0.0; 
stroke:#840000; stroke-width:100; stroke-opacity:1; 
stroke-linecap:round; stroke-linejoin:round;">
</g>
<g style="fill:#840000; fill-opacity:0.0; 
stroke:#840000; stroke-width:60; stroke-opacity:1; 
stroke-linecap:round; stroke-linejoin:round;">
<path d="M82680 4720
L82680 3940
" />
</g>
<g style="fill:#840000; fill-opacity:0.0; 
stroke:#840000; stroke-width:100; stroke-opacity:1; 
stroke-linecap:round; stroke-linejoin:round;">
</g>
<g style="fill:#840000; fill-opacity:0.0; 
stroke:#840000; stroke-width:60; stroke-opacity:1; 
stroke-linecap:round; stroke-linejoin:round;">
<path d="M102360 4720
L102360 3940
" />
</g>
<g style="fill:#840000; fill-opacity:0.0; 
stroke:#840000; stroke-width:100; stroke-opacity:1; 
stroke-linecap:round; stroke-linejoin:round;">
</g>
<g style="fill:#840000; fill-opacity:0.0; 
stroke:#840000; stroke-width:60; stroke-opacity:1; 
stroke-linecap:round; stroke-linejoin:round;">
<path d="M14170 4560
L13880 4560
" />
<path d="M14020 4560
L14020 4050
L13970 4120
L13930 4170
L13880 4190
" />
</g>
<g style="fill:#840000; fill-opacity:0.0; 
stroke:#840000; stroke-width:100; stroke-opacity:1; 
stroke-linecap:round; stroke-linejoin:round;">
</g>
<g style="fill:#840000; fill-opacity:0.0; 
stroke:#840000; stroke-width:60; stroke-opacity:1; 
stroke-linecap:round; stroke-linejoin:round;">
<path d="M33560 4090
L33580 4070
L33630 4050
L33750 4050
L33800 4070
L33820 4090
L33850 4140
L33850 4190
L33820 4260
L33530 4560
L33850 4560
" />
</g>
<g style="fill:#840000; fill-opacity:0.0; 
stroke:#840000; stroke-width:100; stroke-opacity:1; 
stroke-linecap:round; stroke-linejoin:round;">
</g>
<g style="fill:#840000; fill-opacity:0.0; 
stroke:#840000; stroke-width:60; stroke-opacity:1; 
stroke-linecap:round; stroke-linejoin:round;">
<path d="M53220 4050
L53540 4050
L53370 4240
L53440 4240
L53490 4260
L53510 4290
L53540 4340
L53540 4460
L53510 4510
L53490 4530
L53440 4560
L53300 4560
L53250 4530
L53220 4510
" />
</g>
<g style="fill:#840000; fill-opacity:0.0; 
stroke:#840000; stroke-width:100; stroke-opacity:1; 
stroke-linecap:round; stroke-linejoin:round;">
</g>
<g style="fill:#840000; fill-opacity:0.0; 
stroke:#840000; stroke-width:60; stroke-opacity:1; 
stroke-linecap:round; stroke-linejoin:round;">
<path d="M73170 4220
L73170 4560
" />
<path d="M73050 4020
L72930 4390
L73240 4390
" />
</g>
<g style="fill:#840000; fill-opacity:0.0; 
stroke:#840000; stroke-width:100; stroke-opacity:1; 
stroke-linecap:round; stroke-linejoin:round;">
</g>
<g style="fill:#840000; fill-opacity:0.0; 
stroke:#840000; stroke-width:60; stroke-opacity:1; 
stroke-linecap:round; stroke-linejoin:round;">
<path d="M92880 4050
L92640 4050
L92620 4290
L92640 4260
L92690 4240
L92810 4240
L92860 4260
L92880 4290
L92910 4340
L92910 4460
L92880 4510
L92860 4530
L92810 4560
L92690 4560
L92640 4530
L92620 4510
" />
</g>
<g style="fill:#840000; fill-opacity:0.0; 
stroke:#840000; stroke-width:100; stroke-opacity:1; 
stroke-linecap:round; stroke-linejoin:round;">
</g>
<g style="fill:#840000; fill-opacity:0.0; 
stroke:#840000; stroke-width:60; stroke-opacity:1; 
stroke-linecap:round; stroke-linejoin:round;">
<path d="M112540 4050
L112440 4050
L112390 4070
L112370 4090
L112320 4170
L112300 4260
L112300 4460
L112320 4510
L112350 4530
L112390 4560
L112490 4560
L112540 4530
L112560 4510
L112590 4460
L112590 4340
L112560 4290
L112540 4260
L112490 4240
L112390 4240
L112350 4260
L112320 4290
L112300 4340
" />
</g>
<g style="fill:#840000; fill-opacity:0.0; 
stroke:#840000; stroke-width:100; stroke-opacity:1; 
stroke-linecap:round; stroke-linejoin:round;">
</g>
<g style="fill:#840000; fill-opacity:0.0; 
stroke:#840000; stroke-width:60; stroke-opacity:1; 
stroke-linecap:round; stroke-linejoin:round;">
<path d="M23620 77960
L23620 78740
" />
</g>
<g style="fill:#840000; fill-opacity:0.0; 
stroke:#840000; stroke-width:100; stroke-opacity:1; 
stroke-linecap:round; stroke-linejoin:round;">
</g>
<g style="fill:#840000; fill-opacity:0.0; 
stroke:#840000; stroke-width:60; stroke-opacity:1; 
stroke-linecap:round; stroke-linejoin:round;">
<path d="M43310 77960
L43310 78740
" />
</g>
<g style="fill:#840000; fill-opacity:0.0; 
stroke:#840000; stroke-width:100; stroke-opacity:1; 
stroke-linecap:round; stroke-linejoin:round;">
</g>
<g style="fill:#840000; fill-opacity:0.0; 
stroke:#840000; stroke-width:60; stroke-opacity:1; 
stroke-linecap:round; stroke-linejoin:round;">
<path d="M62990 77960
L62990 78740
" />
</g>
<g style="fill:#840000; fill-opacity:0.0; 
stroke:#840000; stroke-width:100; stroke-opacity:1; 
stroke-linecap:round; stroke-linejoin:round;">
</g>
<g style="fill:#840000; fill-opacity:0.0; 
stroke:#840000; stroke-width:60; stroke-opacity:1; 
stroke-linecap:round; stroke-linejoin:round;">
<path d="M82680 77960
L82680 78740
" />
</g>
<g style="fill:#840000; fill-opacity:0.0; 
stroke:#840000; stroke-width:100; stroke-opacity:1; 
stroke-linecap:round; stroke-linejoin:round;">
</g>
<g style="fill:#840000; fill-opacity:0.0; 
stroke:#840000; stroke-width:60; stroke-opacity:1; 
stroke-linecap:round; stroke-linejoin:round;">
<path d="M102360 77960
L102360 78740
" />
</g>
<g style="fill:#840000; fill-opacity:0.0; 
stroke:#840000; stroke-width:100; stroke-opacity:1; 
stroke-linecap:round; stroke-linejoin:round;">
</g>
<g style="fill:#840000; fill-opacity:0.0; 
stroke:#840000; stroke-width:60; stroke-opacity:1; 
stroke-linecap:round; stroke-linejoin:round;">
<path d="M14170 78580
L13880 78580
" />
<path d="M14020 78580
L14020 78070
L13970 78140
L13930 78190
L13880 78210
" />
</g>
<g style="fill:#840000; fill-opacity:0.0; 
stroke:#840000; stroke-width:100; stroke-opacity:1; 
stroke-linecap:round; stroke-linejoin:round;">
</g>
<g style="fill:#840000; fill-opacity:0.0; 
stroke:#840000; stroke-width:60; stroke-opacity:1; 
stroke-linecap:round; stroke-linejoin:round;">
<path d="M33560 78110
L33580 78090
L33630 78070
L33750 78070
L33800 78090
L33820 78110
L33850 78160
L33850 78210
L33820 78280
L33530 78580
L33850 78580
" />
</g>
<g style="fill:#840000; fill-opacity:0.0; 
stroke:#840000; stroke-width:100; stroke-opacity:1; 
stroke-linecap:round; stroke-linejoin:round;">
</g>
<g style="fill:#840000; fill-opacity:0.0; 
stroke:#840000; stroke-width:60; stroke-opacity:1; 
stroke-linecap:round; stroke-linejoin:round;">
<path d="M53220 78070
L53540 78070
L53370 78260
L53440 78260
L53490 78280
L53510 78310
L53540 78360
L53540 78480
L53510 78530
L53490 78550
L53440 78580
L53300 78580
L53250 78550
L53220 78530
" />
</g>
<g style="fill:#840000; fill-opacity:0.0; 
stroke:#840000; stroke-width:100; stroke-opacity:1; 
stroke-linecap:round; stroke-linejoin:round;">
</g>
<g style="fill:#840000; fill-opacity:0.0; 
stroke:#840000; stroke-width:60; stroke-opacity:1; 
stroke-linecap:round; stroke-linejoin:round;">
<path d="M73170 78240
L73170 78580
" />
<path d="M73050 78040
L72930 78410
L73240 78410
" />
</g>
<g style="fill:#840000; fill-opacity:0.0; 
stroke:#840000; stroke-width:100; stroke-opacity:1; 
stroke-linecap:round; stroke-linejoin:round;">
</g>
<g style="fill:#840000; fill-opacity:0.0; 
stroke:#840000; stroke-width:60; stroke-opacity:1; 
stroke-linecap:round; stroke-linejoin:round;">
<path d="M92880 78070
L92640 78070
L92620 78310
L92640 78280
L92690 78260
L92810 78260
L92860 78280
L92880 78310
L92910 78360
L92910 78480
L92880 78530
L92860 78550
L92810 78580
L92690 78580
L92640 78550
L92620 78530
" />
</g>
<g style="fill:#840000; fill-opacity:0.0; 
stroke:#840000; stroke-width:100; stroke-opacity:1; 
stroke-linecap:round; stroke-linejoin:round;">
</g>
<g style="fill:#840000; fill-opacity:0.0; 
stroke:#840000; stroke-width:60; stroke-opacity:1; 
stroke-linecap:round; stroke-linejoin:round;">
<path d="M112540 78070
L112440 78070
L112390 78090
L112370 78110
L112320 78190
L112300 78280
L112300 78480
L112320 78530
L112350 78550
L112390 78580
L112490 78580
L112540 78550
L112560 78530
L112590 78480
L112590 78360
L112560 78310
L112540 78280
L112490 78260
L112390 78260
L112350 78280
L112320 78310
L112300 78360
" />
</g>
<g style="fill:#840000; fill-opacity:0.0; 
stroke:#840000; stroke-width:100; stroke-opacity:1; 
stroke-linecap:round; stroke-linejoin:round;">
</g>
<g style="fill:#840000; fill-opacity:0.0; 
stroke:#840000; stroke-width:60; stroke-opacity:1; 
stroke-linecap:round; stroke-linejoin:round;">
<path d="M3940 23620
L4720 23620
" />
</g>
<g style="fill:#840000; fill-opacity:0.0; 
stroke:#840000; stroke-width:100; stroke-opacity:1; 
stroke-linecap:round; stroke-linejoin:round;">
</g>
<g style="fill:#840000; fill-opacity:0.0; 
stroke:#840000; stroke-width:60; stroke-opacity:1; 
stroke-linecap:round; stroke-linejoin:round;">
<path d="M3940 43310
L4720 43310
" />
</g>
<g style="fill:#840000; fill-opacity:0.0; 
stroke:#840000; stroke-width:100; stroke-opacity:1; 
stroke-linecap:round; stroke-linejoin:round;">
</g>
<g style="fill:#840000; fill-opacity:0.0; 
stroke:#840000; stroke-width:60; stroke-opacity:1; 
stroke-linecap:round; stroke-linejoin:round;">
<path d="M3940 62990
L4720 62990
" />
</g>
<g style="fill:#840000; fill-opacity:0.0; 
stroke:#840000; stroke-width:100; stroke-opacity:1; 
stroke-linecap:round; stroke-linejoin:round;">
</g>
<g style="fill:#840000; fill-opacity:0.0; 
stroke:#840000; stroke-width:60; stroke-opacity:1; 
stroke-linecap:round; stroke-linejoin:round;">
<path d="M4210 13860
L4450 13860
" />
<path d="M4160 14010
L4330 13500
L4500 14010
" />
</g>
<g style="fill:#840000; fill-opacity:0.0; 
stroke:#840000; stroke-width:100; stroke-opacity:1; 
stroke-linecap:round; stroke-linejoin:round;">
</g>
<g style="fill:#840000; fill-opacity:0.0; 
stroke:#840000; stroke-width:60; stroke-opacity:1; 
stroke-linecap:round; stroke-linejoin:round;">
<path d="M4370 33420
L4440 33440
L4470 33470
L4490 33520
L4490 33590
L4470 33640
L4440 33660
L4400 33690
L4200 33690
L4200 33180
L4370 33180
L4420 33200
L4440 33220
L4470 33270
L4470 33320
L4440 33370
L4420 33390
L4370 33420
L4200 33420
" />
</g>
<g style="fill:#840000; fill-opacity:0.0; 
stroke:#840000; stroke-width:100; stroke-opacity:1; 
stroke-linecap:round; stroke-linejoin:round;">
</g>
<g style="fill:#840000; fill-opacity:0.0; 
stroke:#840000; stroke-width:60; stroke-opacity:1; 
stroke-linecap:round; stroke-linejoin:round;">
<path d="M4490 53330
L4470 53350
L4400 53380
L4350 53380
L4270 53350
L4230 53300
L4200 53250
L4180 53160
L4180 53080
L4200 52990
L4230 52940
L4270 52890
L4350 52870
L4400 52870
L4470 52890
L4490 52910
" />
</g>
<g style="fill:#840000; fill-opacity:0.0; 
stroke:#840000; stroke-width:100; stroke-opacity:1; 
stroke-linecap:round; stroke-linejoin:round;">
</g>
<g style="fill:#840000; fill-opacity:0.0; 
stroke:#840000; stroke-width:60; stroke-opacity:1; 
stroke-linecap:round; stroke-linejoin:round;">
<path d="M4200 73060
L4200 72550
L4320 72550
L4400 72570
L4440 72620
L4470 72670
L4490 72760
L4490 72840
L4470 72930
L4440 72980
L4400 73030
L4320 73060
L4200 73060
" />
</g>
<g style="fill:#840000; fill-opacity:0.0; 
stroke:#840000; stroke-width:100; stroke-opacity:1; 
stroke-linecap:round; stroke-linejoin:round;">
</g>
<g style="fill:#840000; fill-opacity:0.0; 
stroke:#840000; stroke-width:60; stroke-opacity:1; 
stroke-linecap:round; stroke-linejoin:round;">
<path d="M112990 23620
L112210 23620
" />
</g>
<g style="fill:#840000; fill-opacity:0.0; 
stroke:#840000; stroke-width:100; stroke-opacity:1; 
stroke-linecap:round; stroke-linejoin:round;">
</g>
<g style="fill:#840000; fill-opacity:0.0; 
stroke:#840000; stroke-width:60; stroke-opacity:1; 
stroke-linecap:round; stroke-linejoin:round;">
<path d="M112990 43310
L112210 43310
" />
</g>
<g style="fill:#840000; fill-opacity:0.0; 
stroke:#840000; stroke-width:100; stroke-opacity:1; 
stroke-linecap:round; stroke-linejoin:round;">
</g>
<g style="fill:#840000; fill-opacity:0.0; 
stroke:#840000; stroke-width:60; stroke-opacity:1; 
stroke-linecap:round; stroke-linejoin:round;">
<path d="M112990 62990
L112210 62990
" />
</g>
<g style="fill:#840000; fill-opacity:0.0; 
stroke:#840000; stroke-width:100; stroke-opacity:1; 
stroke-linecap:round; stroke-linejoin:round;">
</g>
<g style="fill:#840000; fill-opacity:0.0; 
stroke:#840000; stroke-width:60; stroke-opacity:1; 
stroke-linecap:round; stroke-linejoin:round;">
<path d="M112480 13860
L112720 13860
" />
<path d="M112430 14010
L112600 13500
L112770 14010
" />
</g>
<g style="fill:#840000; fill-opacity:0.0; 
stroke:#840000; stroke-width:100; stroke-opacity:1; 
stroke-linecap:round; stroke-linejoin:round;">
</g>
<g style="fill:#840000; fill-opacity:0.0; 
stroke:#840000; stroke-width:60; stroke-opacity:1; 
stroke-linecap:round; stroke-linejoin:round;">
<path d="M112640 33420
L112710 33440
L112740 33470
L112760 33520
L112760 33590
L112740 33640
L112710 33660
L112670 33690
L112470 33690
L112470 33180
L112640 33180
L112690 33200
L112710 33220
L112740 33270
L112740 33320
L112710 33370
L112690 33390
L112640 33420
L112470 33420
" />
</g>
<g style="fill:#840000; fill-opacity:0.0; 
stroke:#840000; stroke-width:100; stroke-opacity:1; 
stroke-linecap:round; stroke-linejoin:round;">
</g>
<g style="fill:#840000; fill-opacity:0.0; 
stroke:#840000; stroke-width:60; stroke-opacity:1; 
stroke-linecap:round; stroke-linejoin:round;">
<path d="M112760 53330
L112740 53350
L112670 53380
L112620 53380
L112540 53350
L112500 53300
L112470 53250
L112450 53160
L112450 53080
L112470 52990
L112500 52940
L112540 52890
L112620 52870
L112670 52870
L112740 52890
L112760 52910
" />
</g>
<g style="fill:#840000; fill-opacity:0.0; 
stroke:#840000; stroke-width:100; stroke-opacity:1; 
stroke-linecap:round; stroke-linejoin:round;">
</g>
<g style="fill:#840000; fill-opacity:0.0; 
stroke:#840000; stroke-width:60; stroke-opacity:1; 
stroke-linecap:round; stroke-linejoin:round;">
<path d="M112470 73060
L112470 72550
L112590 72550
L112670 72570
L112710 72620
L112740 72670
L112760 72760
L112760 72840
L112740 72930
L112710 72980
L112670 73030
L112590 73060
L112470 73060
" />
</g>
<g style="fill:#840000; fill-opacity:0.0; 
stroke:#840000; stroke-width:100; stroke-opacity:1; 
stroke-linecap:round; stroke-linejoin:round;">
</g>
<g style="fill:#840000; fill-opacity:0.0; 
stroke:#840000; stroke-width:60; stroke-opacity:1; 
stroke-linecap:round; stroke-linejoin:round;">
<path d="M78880 76290
L78880 75700
L79020 75700
L79110 75730
L79160 75790
L79190 75840
L79220 75950
L79220 76040
L79190 76150
L79160 76210
L79110 76260
L79020 76290
L78880 76290
" />
<path d="M79720 76290
L79720 75980
L79700 75930
L79640 75900
L79530 75900
L79470 75930
" />
<path d="M79720 76260
L79670 76290
L79530 76290
L79470 76260
L79440 76210
L79440 76150
L79470 76100
L79530 76070
L79670 76070
L79720 76040
" />
<path d="M79920 75900
L80140 75900
" />
<path d="M80000 75700
L80000 76210
L80030 76260
L80080 76290
L80140 76290
" />
<path d="M80570 76260
L80510 76290
L80400 76290
L80340 76260
L80310 76210
L80310 75980
L80340 75930
L80400 75900
L80510 75900
L80570 75930
L80590 75980
L80590 76040
L80310 76100
" />
<path d="M80850 76240
L80880 76260
L80850 76290
L80820 76260
L80850 76240
L80850 76290
" />
<path d="M80850 75930
L80880 75950
L80850 75980
L80820 75950
L80850 75930
L80850 75980
" />
<path d="M81550 75760
L81580 75730
L81640 75700
L81780 75700
L81830 75730
L81860 75760
L81890 75810
L81890 75870
L81860 75950
L81520 76290
L81890 76290
" />
<path d="M82250 75700
L82310 75700
L82370 75730
L82390 75760
L82420 75810
L82450 75930
L82450 76070
L82420 76180
L82390 76240
L82370 76260
L82310 76290
L82250 76290
L82200 76260
L82170 76240
L82140 76180
L82110 76070
L82110 75930
L82140 75810
L82170 75760
L82200 75730
L82250 75700
" />
<path d="M83010 76290
L82670 76290
" />
<path d="M82840 76290
L82840 75700
L82780 75790
L82730 75840
L82670 75870
" />
<path d="M83200 75700
L83600 75700
L83340 76290
" />
<path d="M83820 76070
L84270 76070
" />
<path d="M84660 75700
L84720 75700
L84780 75730
L84800 75760
L84830 75810
L84860 75930
L84860 76070
L84830 76180
L84800 76240
L84780 76260
L84720 76290
L84660 76290
L84610 76260
L84580 76240
L84550 76180
L84520 76070
L84520 75930
L84550 75810
L84580 75760
L84610 75730
L84660 75700
" />
<path d="M85050 75700
L85420 75700
L85220 75930
L85310 75930
L85360 75950
L85390 75980
L85420 76040
L85420 76180
L85390 76240
L85360 76260
L85310 76290
L85140 76290
L85080 76260
L85050 76240
" />
<path d="M85670 76070
L86120 76070
" />
<path d="M86370 75760
L86400 75730
L86460 75700
L86600 75700
L86650 75730
L86680 75760
L86710 75810
L86710 75870
L86680 75950
L86340 76290
L86710 76290
" />
<path d="M87270 76290
L86930 76290
" />
<path d="M87100 76290
L87100 75700
L87040 75790
L86990 75840
L86930 75870
" />
</g>
<g style="fill:#840000; fill-opacity:0.0; 
stroke:#840000; stroke-width:100; stroke-opacity:1; 
stroke-linecap:round; stroke-linejoin:round;">
</g>
<g style="fill:#840000; fill-opacity:0.0; 
stroke:#840000; stroke-width:60; stroke-opacity:1; 
stroke-linecap:round; stroke-linejoin:round;">
<path d="M69690 76580
L112210 76580
" />
</g>
<g style="fill:#840000; fill-opacity:0.0; 
stroke:#840000; stroke-width:100; stroke-opacity:1; 
stroke-linecap:round; stroke-linejoin:round;">
</g>
<g style="fill:#840000; fill-opacity:0.0; 
stroke:#840000; stroke-width:60; stroke-opacity:1; 
stroke-linecap:round; stroke-linejoin:round;">
<path d="M70220 77390
L70220 76800
" />
<path d="M70560 77390
L70300 77050
" />
<path d="M70560 76800
L70220 77140
" />
<path d="M70810 77390
L70810 77000
" />
<path d="M70810 76800
L70780 76830
L70810 76860
L70840 76830
L70810 76800
L70810 76860
" />
<path d="M71430 77340
L71400 77360
L71320 77390
L71260 77390
L71170 77360
L71120 77310
L71090 77250
L71060 77140
L71060 77050
L71090 76940
L71120 76890
L71170 76830
L71260 76800
L71320 76800
L71400 76830
L71430 76860
" />
<path d="M71930 77390
L71930 77080
L71910 77030
L71850 77000
L71740 77000
L71680 77030
" />
<path d="M71930 77360
L71880 77390
L71740 77390
L71680 77360
L71650 77310
L71650 77250
L71680 77200
L71740 77170
L71880 77170
L71930 77140
" />
<path d="M72460 77390
L72460 76800
" />
<path d="M72460 77360
L72410 77390
L72290 77390
L72240 77360
L72210 77340
L72180 77280
L72180 77110
L72210 77050
L72240 77030
L72290 77000
L72410 77000
L72460 77030
" />
<path d="M73190 77080
L73390 77080
" />
<path d="M73470 77390
L73190 77390
L73190 76800
L73470 76800
" />
<path d="M73720 77340
L73750 77360
L73720 77390
L73690 77360
L73720 77340
L73720 77390
" />
<path d="M74000 77390
L74000 76800
L74140 76800
L74230 76830
L74280 76890
L74310 76940
L74340 77050
L74340 77140
L74310 77250
L74280 77310
L74230 77360
L74140 77390
L74000 77390
" />
<path d="M74590 77340
L74620 77360
L74590 77390
L74560 77360
L74590 77340
L74590 77390
" />
<path d="M74840 77220
L75120 77220
" />
<path d="M74790 77390
L74980 76800
L75180 77390
" />
<path d="M75380 77340
L75410 77360
L75380 77390
L75350 77360
L75380 77340
L75380 77390
" />
<path d="M76560 77390
L76560 76800
" />
<path d="M76620 77170
L76790 77390
" />
<path d="M76790 77000
L76560 77220
" />
<path d="M77040 77390
L77040 77000
" />
<path d="M77040 76800
L77010 76830
L77040 76860
L77070 76830
L77040 76800
L77040 76860
" />
<path d="M77570 77360
L77520 77390
L77400 77390
L77350 77360
L77320 77340
L77290 77280
L77290 77110
L77320 77050
L77350 77030
L77400 77000
L77520 77000
L77570 77030
" />
<path d="M78080 77390
L78080 77080
L78060 77030
L78000 77000
L77890 77000
L77830 77030
" />
<path d="M78080 77360
L78030 77390
L77890 77390
L77830 77360
L77800 77310
L77800 77250
L77830 77200
L77890 77170
L78030 77170
L78080 77140
" />
<path d="M78610 77390
L78610 76800
" />
<path d="M78610 77360
L78560 77390
L78440 77390
L78390 77360
L78360 77340
L78330 77280
L78330 77110
L78360 77050
L78390 77030
L78440 77000
L78560 77000
L78610 77030
" />
<path d="M79590 77000
L79590 77390
" />
<path d="M79450 76770
L79310 77200
L79680 77200
" />
<path d="M79900 77340
L79930 77360
L79900 77390
L79870 77360
L79900 77340
L79900 77390
" />
<path d="M80290 76800
L80350 76800
L80410 76830
L80430 76860
L80460 76910
L80490 77030
L80490 77170
L80460 77280
L80430 77340
L80410 77360
L80350 77390
L80290 77390
L80240 77360
L80210 77340
L80180 77280
L80150 77170
L80150 77030
L80180 76910
L80210 76860
L80240 76830
L80290 76800
" />
<path d="M80740 77340
L80770 77360
L80740 77390
L80710 77360
L80740 77340
L80740 77390
" />
<path d="M81270 76800
L81160 76800
L81100 76830
L81080 76860
L81020 76940
L80990 77050
L80990 77280
L81020 77340
L81050 77360
L81100 77390
L81220 77390
L81270 77360
L81300 77340
L81330 77280
L81330 77140
L81300 77080
L81270 77050
L81220 77030
L81100 77030
L81050 77050
L81020 77080
L80990 77140
" />
</g>
<g style="fill:#840000; fill-opacity:0.0; 
stroke:#840000; stroke-width:100; stroke-opacity:1; 
stroke-linecap:round; stroke-linejoin:round;">
</g>
<g style="fill:#840000; fill-opacity:0.0; 
stroke:#840000; stroke-width:60; stroke-opacity:1; 
stroke-linecap:round; stroke-linejoin:round;">
<path d="M69690 75400
L112210 75400
" />
</g>
<g style="fill:#840000; fill-opacity:0.0; 
stroke:#840000; stroke-width:100; stroke-opacity:1; 
stroke-linecap:round; stroke-linejoin:round;">
</g>
<g style="fill:#840000; fill-opacity:0.0; 
stroke:#840000; stroke-width:120; stroke-opacity:1; 
stroke-linecap:round; stroke-linejoin:round;">
<path d="M104020 76290
L103820 76010
" />
<path d="M103680 76290
L103680 75700
L103910 75700
L103960 75730
L103990 75760
L104020 75810
L104020 75900
L103990 75950
L103960 75980
L103910 76010
L103680 76010
" />
<path d="M104500 76260
L104440 76290
L104330 76290
L104270 76260
L104240 76210
L104240 75980
L104270 75930
L104330 75900
L104440 75900
L104500 75930
L104520 75980
L104520 76040
L104240 76100
" />
<path d="M104720 75900
L104860 76290
L105010 75900
" />
<path d="M105230 76240
L105260 76260
L105230 76290
L105200 76260
L105230 76240
L105230 76290
" />
<path d="M105230 75930
L105260 75950
L105230 75980
L105200 75950
L105230 75930
L105230 75980
" />
<path d="M106270 76290
L105930 76290
" />
<path d="M106100 76290
L106100 75700
L106040 75790
L105990 75840
L105930 75870
" />
<path d="M106520 76240
L106550 76260
L106520 76290
L106490 76260
L106520 76240
L106520 76290
" />
<path d="M106910 75700
L106970 75700
L107030 75730
L107050 75760
L107080 75810
L107110 75930
L107110 76070
L107080 76180
L107050 76240
L107030 76260
L106970 76290
L106910 76290
L106860 76260
L106830 76240
L106800 76180
L106770 76070
L106770 75930
L106800 75810
L106830 75760
L106860 75730
L106910 75700
" />
</g>
<g style="fill:#840000; fill-opacity:0.0; 
stroke:#840000; stroke-width:100; stroke-opacity:1; 
stroke-linecap:round; stroke-linejoin:round;">
</g>
<g style="fill:#840000; fill-opacity:0.0; 
stroke:#840000; stroke-width:60; stroke-opacity:1; 
stroke-linecap:round; stroke-linejoin:round;">
<path d="M70190 76260
L70280 76290
L70420 76290
L70470 76260
L70500 76240
L70530 76180
L70530 76120
L70500 76070
L70470 76040
L70420 76010
L70300 75980
L70250 75950
L70220 75930
L70190 75870
L70190 75810
L70220 75760
L70250 75730
L70300 75700
L70450 75700
L70530 75730
" />
<path d="M70780 76290
L70780 75900
" />
<path d="M70780 75700
L70750 75730
L70780 75760
L70810 75730
L70780 75700
L70780 75760
" />
<path d="M71000 75900
L71310 75900
L71000 76290
L71310 76290
" />
<path d="M71770 76260
L71710 76290
L71600 76290
L71540 76260
L71510 76210
L71510 75980
L71540 75930
L71600 75900
L71710 75900
L71770 75930
L71790 75980
L71790 76040
L71510 76100
" />
<path d="M72050 76240
L72080 76260
L72050 76290
L72020 76260
L72050 76240
L72050 76290
" />
<path d="M72050 75930
L72080 75950
L72050 75980
L72020 75950
L72050 75930
L72050 75980
" />
<path d="M72750 76120
L73030 76120
" />
<path d="M72700 76290
L72890 75700
L73090 76290
" />
<path d="M73540 75900
L73540 76290
" />
<path d="M73400 75670
L73260 76100
L73630 76100
" />
</g>
<g style="fill:#840000; fill-opacity:0.0; 
stroke:#840000; stroke-width:100; stroke-opacity:1; 
stroke-linecap:round; stroke-linejoin:round;">
</g>
<g style="fill:#840000; fill-opacity:0.0; 
stroke:#840000; stroke-width:60; stroke-opacity:1; 
stroke-linecap:round; stroke-linejoin:round;">
<path d="M103680 77390
L103680 76800
" />
<path d="M104210 77390
L104210 76800
" />
<path d="M104210 77360
L104160 77390
L104040 77390
L103990 77360
L103960 77340
L103930 77280
L103930 77110
L103960 77050
L103990 77030
L104040 77000
L104160 77000
L104210 77030
" />
<path d="M104490 77340
L104520 77360
L104490 77390
L104460 77360
L104490 77340
L104490 77390
" />
<path d="M104490 77030
L104520 77050
L104490 77080
L104460 77050
L104490 77030
L104490 77080
" />
<path d="M105530 77390
L105190 77390
" />
<path d="M105360 77390
L105360 76800
L105300 76890
L105250 76940
L105190 76970
" />
<path d="M106200 76770
L105700 77530
" />
<path d="M106710 77390
L106370 77390
" />
<path d="M106540 77390
L106540 76800
L106480 76890
L106430 76940
L106370 76970
" />
</g>
<g style="fill:#840000; fill-opacity:0.0; 
stroke:#840000; stroke-width:100; stroke-opacity:1; 
stroke-linecap:round; stroke-linejoin:round;">
</g>
<g style="fill:#840000; fill-opacity:0.0; 
stroke:#840000; stroke-width:60; stroke-opacity:1; 
stroke-linecap:round; stroke-linejoin:round;">
<path d="M69690 73820
L112210 73820
" />
</g>
<g style="fill:#840000; fill-opacity:0.0; 
stroke:#840000; stroke-width:100; stroke-opacity:1; 
stroke-linecap:round; stroke-linejoin:round;">
</g>
<g style="fill:#840000; fill-opacity:0.0; 
stroke:#840000; stroke-width:160; stroke-opacity:1; 
stroke-linecap:round; stroke-linejoin:round;">
<path d="M70260 74090
L70710 74090
" />
<path d="M70390 74880
L70480 74090
" />
<path d="M70880 74880
L70940 74360
" />
<path d="M70970 74090
L70930 74130
L70960 74170
L71010 74130
L70970 74090
L70960 74170
" />
<path d="M71210 74360
L71510 74360
" />
<path d="M71350 74090
L71270 74770
L71300 74840
L71370 74880
L71450 74880
" />
<path d="M71820 74880
L71750 74840
L71720 74770
L71800 74090
" />
<path d="M72420 74840
L72340 74880
L72190 74880
L72120 74840
L72090 74770
L72130 74470
L72180 74390
L72250 74360
L72400 74360
L72480 74390
L72510 74470
L72500 74540
L72110 74620
" />
<path d="M72800 74810
L72840 74840
L72800 74880
L72760 74840
L72800 74810
L72800 74880
" />
<path d="M72860 74390
L72890 74430
L72850 74470
L72810 74430
L72860 74390
L72850 74470
" />
<path d="M73780 74880
L73870 74090
" />
<path d="M74610 74880
L74390 74510
" />
<path d="M74160 74880
L74250 74090
L74550 74090
L74620 74130
L74650 74170
L74690 74240
L74670 74360
L74620 74430
L74580 74470
L74500 74510
L74200 74510
" />
<path d="M76000 74880
L75780 74510
" />
<path d="M75550 74880
L75640 74090
L75940 74090
L76010 74130
L76040 74170
L76080 74240
L76060 74360
L76010 74430
L75970 74470
L75890 74510
L75590 74510
" />
<path d="M76640 74840
L76560 74880
L76410 74880
L76340 74840
L76310 74770
L76350 74470
L76400 74390
L76470 74360
L76620 74360
L76700 74390
L76730 74470
L76720 74540
L76330 74620
" />
<path d="M77360 74840
L77280 74880
L77130 74880
L77060 74840
L77020 74810
L76990 74730
L77020 74510
L77070 74430
L77120 74390
L77190 74360
L77340 74360
L77420 74390
" />
<path d="M78000 74840
L77920 74880
L77770 74880
L77700 74840
L77670 74770
L77710 74470
L77760 74390
L77830 74360
L77980 74360
L78060 74390
L78090 74470
L78080 74540
L77690 74620
" />
<path d="M78380 74880
L78440 74360
" />
<path d="M78470 74090
L78430 74130
L78460 74170
L78510 74130
L78470 74090
L78460 74170
" />
<path d="M78740 74360
L78870 74880
L79120 74360
" />
<path d="M79660 74840
L79580 74880
L79430 74880
L79360 74840
L79330 74770
L79370 74470
L79420 74390
L79490 74360
L79640 74360
L79720 74390
L79750 74470
L79740 74540
L79350 74620
" />
<path d="M80040 74880
L80100 74360
" />
<path d="M80080 74510
L80130 74430
L80170 74390
L80250 74360
L80320 74360
" />
</g>
<g style="fill:#840000; fill-opacity:0.0; 
stroke:#840000; stroke-width:100; stroke-opacity:1; 
stroke-linecap:round; stroke-linejoin:round;">
</g>
<g style="fill:#840000; fill-opacity:0.0; 
stroke:#840000; stroke-width:60; stroke-opacity:1; 
stroke-linecap:round; stroke-linejoin:round;">
<path d="M70420 73060
L70220 73060
" />
<path d="M70220 73370
L70220 72780
L70500 72780
" />
<path d="M70730 73370
L70730 72980
" />
<path d="M70730 72780
L70700 72810
L70730 72840
L70760 72810
L70730 72780
L70730 72840
" />
<path d="M71090 73370
L71040 73340
L71010 73290
L71010 72780
" />
<path d="M71550 73340
L71490 73370
L71380 73370
L71320 73340
L71290 73290
L71290 73060
L71320 73010
L71380 72980
L71490 72980
L71550 73010
L71570 73060
L71570 73120
L71290 73180
" />
<path d="M71830 73320
L71860 73340
L71830 73370
L71800 73340
L71830 73320
L71830 73370
" />
<path d="M71830 73010
L71860 73030
L71830 73060
L71800 73030
L71830 73010
L71830 73060
" />
<path d="M72640 73370
L72590 73340
L72560 73290
L72560 72780
" />
<path d="M72950 73370
L72900 73340
L72870 73320
L72840 73260
L72840 73090
L72870 73030
L72900 73010
L72950 72980
L73040 72980
L73100 73010
L73120 73030
L73150 73090
L73150 73260
L73120 73320
L73100 73340
L73040 73370
L72950 73370
" />
<path d="M73650 73340
L73600 73370
L73480 73370
L73430 73340
L73400 73320
L73370 73260
L73370 73090
L73400 73030
L73430 73010
L73480 72980
L73600 72980
L73650 73010
" />
<path d="M73990 73370
L73940 73340
L73910 73320
L73880 73260
L73880 73090
L73910 73030
L73940 73010
L73990 72980
L74080 72980
L74140 73010
L74160 73030
L74190 73090
L74190 73260
L74160 73320
L74140 73340
L74080 73370
L73990 73370
" />
<path d="M74440 73370
L74440 72980
" />
<path d="M74440 73030
L74470 73010
L74520 72980
L74610 72980
L74670 73010
L74690 73060
L74690 73370
" />
<path d="M74690 73060
L74720 73010
L74780 72980
L74860 72980
L74920 73010
L74950 73060
L74950 73370
" />
<path d="M75310 73370
L75260 73340
L75230 73320
L75200 73260
L75200 73090
L75230 73030
L75260 73010
L75310 72980
L75400 72980
L75460 73010
L75480 73030
L75510 73090
L75510 73260
L75480 73320
L75460 73340
L75400 73370
L75310 73370
" />
<path d="M75680 72980
L75900 72980
" />
<path d="M75760 72780
L75760 73290
L75790 73340
L75840 73370
L75900 73370
" />
<path d="M76100 73370
L76100 72980
" />
<path d="M76100 72780
L76070 72810
L76100 72840
L76130 72810
L76100 72780
L76100 72840
" />
<path d="M76320 72980
L76460 73370
L76610 72980
" />
<path d="M77060 73340
L77000 73370
L76890 73370
L76830 73340
L76800 73290
L76800 73060
L76830 73010
L76890 72980
L77000 72980
L77060 73010
L77080 73060
L77080 73120
L76800 73180
" />
<path d="M77200 73430
L77650 73430
" />
<path d="M77790 73370
L77790 72980
" />
<path d="M77790 72780
L77760 72810
L77790 72840
L77820 72810
L77790 72780
L77790 72840
" />
<path d="M78070 73370
L78070 72980
" />
<path d="M78070 73090
L78100 73030
L78130 73010
L78180 72980
L78240 72980
" />
<path d="M78300 73430
L78750 73430
" />
<path d="M78890 73370
L78890 72980
" />
<path d="M78890 73090
L78920 73030
L78950 73010
L79000 72980
L79060 72980
" />
<path d="M79490 73340
L79430 73370
L79320 73370
L79260 73340
L79230 73290
L79230 73060
L79260 73010
L79320 72980
L79430 72980
L79490 73010
L79510 73060
L79510 73120
L79230 73180
" />
<path d="M80020 73340
L79970 73370
L79850 73370
L79800 73340
L79770 73320
L79740 73260
L79740 73090
L79770 73030
L79800 73010
L79850 72980
L79970 72980
L80020 73010
" />
<path d="M80510 73340
L80450 73370
L80340 73370
L80280 73340
L80250 73290
L80250 73060
L80280 73010
L80340 72980
L80450 72980
L80510 73010
L80530 73060
L80530 73120
L80250 73180
" />
<path d="M80790 73370
L80790 72980
" />
<path d="M80790 72780
L80760 72810
L80790 72840
L80820 72810
L80790 72780
L80790 72840
" />
<path d="M81010 72980
L81150 73370
L81300 72980
" />
<path d="M81750 73340
L81690 73370
L81580 73370
L81520 73340
L81490 73290
L81490 73060
L81520 73010
L81580 72980
L81690 72980
L81750 73010
L81770 73060
L81770 73120
L81490 73180
" />
<path d="M82030 73370
L82030 72980
" />
<path d="M82030 73090
L82060 73030
L82090 73010
L82140 72980
L82200 72980
" />
<path d="M82400 73320
L82430 73340
L82400 73370
L82370 73340
L82400 73320
L82400 73370
" />
<path d="M82650 73340
L82710 73370
L82820 73370
L82880 73340
L82910 73290
L82910 73260
L82880 73200
L82820 73180
L82740 73180
L82680 73150
L82650 73090
L82650 73060
L82680 73010
L82740 72980
L82820 72980
L82880 73010
" />
<path d="M83410 73340
L83360 73370
L83240 73370
L83190 73340
L83160 73320
L83130 73260
L83130 73090
L83160 73030
L83190 73010
L83240 72980
L83360 72980
L83410 73010
" />
<path d="M83670 73370
L83670 72780
" />
<path d="M83920 73370
L83920 73060
L83900 73010
L83840 72980
L83750 72980
L83700 73010
L83670 73030
" />
</g>
<g style="fill:#840000; fill-opacity:0.0; 
stroke:#840000; stroke-width:100; stroke-opacity:1; 
stroke-linecap:round; stroke-linejoin:round;">
</g>
<g style="fill:#840000; fill-opacity:0.0; 
stroke:#840000; stroke-width:60; stroke-opacity:1; 
stroke-linecap:round; stroke-linejoin:round;">
<path d="M69690 71460
L112210 71460
" />
</g>
<g style="fill:#840000; fill-opacity:0.0; 
stroke:#840000; stroke-width:100; stroke-opacity:1; 
stroke-linecap:round; stroke-linejoin:round;">
</g>
<g style="fill:#840000; fill-opacity:0.0; 
stroke:#840000; stroke-width:60; stroke-opacity:1; 
stroke-linecap:round; stroke-linejoin:round;">
<path d="M70190 72280
L70280 72310
L70420 72310
L70470 72280
L70500 72260
L70530 72200
L70530 72140
L70500 72090
L70470 72060
L70420 72030
L70300 72000
L70250 71970
L70220 71950
L70190 71890
L70190 71830
L70220 71780
L70250 71750
L70300 71720
L70450 71720
L70530 71750
" />
<path d="M70780 72310
L70780 71720
" />
<path d="M71030 72310
L71030 72000
L71010 71950
L70950 71920
L70860 71920
L70810 71950
L70780 71970
" />
<path d="M71540 72280
L71480 72310
L71370 72310
L71310 72280
L71280 72230
L71280 72000
L71310 71950
L71370 71920
L71480 71920
L71540 71950
L71560 72000
L71560 72060
L71280 72120
" />
<path d="M72050 72280
L71990 72310
L71880 72310
L71820 72280
L71790 72230
L71790 72000
L71820 71950
L71880 71920
L71990 71920
L72050 71950
L72070 72000
L72070 72060
L71790 72120
" />
<path d="M72250 71920
L72470 71920
" />
<path d="M72330 71720
L72330 72230
L72360 72280
L72410 72310
L72470 72310
" />
<path d="M72670 72260
L72700 72280
L72670 72310
L72640 72280
L72670 72260
L72670 72310
" />
<path d="M72670 71950
L72700 71970
L72670 72000
L72640 71970
L72670 71950
L72670 72000
" />
<path d="M73820 71690
L73320 72450
" />
</g>
<g style="fill:#840000; fill-opacity:0.0; 
stroke:#840000; stroke-width:100; stroke-opacity:1; 
stroke-linecap:round; stroke-linejoin:round;">
</g>
<g style="fill:#840000; fill-opacity:0.0; 
stroke:#840000; stroke-width:120; stroke-opacity:1; 
stroke-linecap:round; stroke-linejoin:round;">
<path d="M70220 70820
L70420 70820
" />
<path d="M70500 71130
L70220 71130
L70220 70540
L70500 70540
" />
<path d="M71090 71080
L71060 71100
L70980 71130
L70920 71130
L70830 71100
L70780 71050
L70750 70990
L70720 70880
L70720 70790
L70750 70680
L70780 70630
L70830 70570
L70920 70540
L70980 70540
L71060 70570
L71090 70600
" />
<path d="M71340 70820
L71540 70820
" />
<path d="M71620 71130
L71340 71130
L71340 70540
L71620 70540
" />
<path d="M72570 70740
L72570 71130
" />
<path d="M72430 70510
L72290 70940
L72660 70940
" />
<path d="M73130 70740
L73130 71130
" />
<path d="M72990 70510
L72850 70940
L73220 70940
" />
<path d="M73720 70540
L73440 70540
L73410 70820
L73440 70790
L73500 70770
L73640 70770
L73690 70790
L73720 70820
L73750 70880
L73750 71020
L73720 71080
L73690 71100
L73640 71130
L73500 71130
L73440 71100
L73410 71080
" />
</g>
<g style="fill:#840000; fill-opacity:0.0; 
stroke:#840000; stroke-width:100; stroke-opacity:1; 
stroke-linecap:round; stroke-linejoin:round;">
</g>
<g style="fill:#840000; fill-opacity:0.0; 
stroke:#840000; stroke-width:60; stroke-opacity:1; 
stroke-linecap:round; stroke-linejoin:round;">
<path d="M77560 75400
L77560 76580
" />
</g>
<g style="fill:#840000; fill-opacity:0.0; 
stroke:#840000; stroke-width:100; stroke-opacity:1; 
stroke-linecap:round; stroke-linejoin:round;">
</g>
<g style="fill:#840000; fill-opacity:0.0; 
stroke:#840000; stroke-width:60; stroke-opacity:1; 
stroke-linecap:round; stroke-linejoin:round;">
<path d="M102760 75400
L102760 77960
" />
</g>
<g style="fill:#840000; fill-opacity:0.0; 
stroke:#840000; stroke-width:0; stroke-opacity:1; 
stroke-linecap:round; stroke-linejoin:round;">
</g>
<g style="fill:#840000; fill-opacity:0.0; 
stroke:#840000; stroke-width:60; stroke-opacity:1; 
stroke-linecap:round; stroke-linejoin:round;">
<rect x="55000" y="33000" width="6000" height="6000" rx="0" />
<path d="M55000 34000
L54000 34000
" />
</g>
<g style="fill:#008484; fill-opacity:0.0; 
stroke:#008484; stroke-width:60; stroke-opacity:1; 
stroke-linecap:round; stroke-linejoin:round;">
<path d="M55610 33730
L55710 33730
L55760 33750
L55800 33800
L55830 33890
L55830 34060
L55800 34150
L55760 34200
L55710 34230
L55610 34230
L55570 34200
L55520 34150
L55500 34060
L55500 33890
L55520 33800
L55570 33750
L55610 33730
" />
<path d="M56040 33730
L56040 34130
L56060 34180
L56090 34200
L56130 34230
L56230 34230
L56280 34200
L56300 34180
L56320 34130
L56320 33730
" />
<path d="M56490 33730
L56770 33730
" />
<path d="M56630 34230
L56630 33730
" />
</g>
<g style="fill:#840000; fill-opacity:0.0; 
stroke:#840000; stroke-width:60; stroke-opacity:1; 
stroke-linecap:round; stroke-linejoin:round;">
<path d="M54640 33880
L54360 33880
" />
<path d="M54500 33880
L54500 33380
L54450 33450
L54400 33500
L54360 33520
" />
<path d="M55000 35000
L54000 35000
" />
<path d="M53880 34880
L54120 35120
" />
<path d="M54120 34880
L53880 35120
" />
</g>
<g style="fill:#008484; fill-opacity:0.0; 
stroke:#008484; stroke-width:60; stroke-opacity:1; 
stroke-linecap:round; stroke-linejoin:round;">
<path d="M55660 35420
L55640 35390
L55590 35320
L55570 35270
L55540 35200
L55520 35080
L55520 34990
L55540 34870
L55570 34800
L55590 34750
L55640 34680
L55660 34650
" />
<path d="M56110 34750
L56060 34730
L55990 34730
L55920 34750
L55870 34800
L55850 34850
L55830 34940
L55830 35010
L55850 35110
L55870 35150
L55920 35200
L55990 35230
L56040 35230
L56110 35200
L56130 35180
L56130 35010
L56040 35010
" />
<path d="M56350 35230
L56350 34730
L56630 35230
L56630 34730
" />
<path d="M56870 35230
L56870 34730
L56990 34730
L57060 34750
L57110 34800
L57130 34850
L57150 34940
L57150 35010
L57130 35110
L57110 35150
L57060 35200
L56990 35230
L56870 35230
" />
<path d="M57320 35420
L57350 35390
L57390 35320
L57420 35270
L57440 35200
L57460 35080
L57460 34990
L57440 34870
L57420 34800
L57390 34750
L57350 34680
L57320 34650
" />
</g>
<g style="fill:#840000; fill-opacity:0.0; 
stroke:#840000; stroke-width:60; stroke-opacity:1; 
stroke-linecap:round; stroke-linejoin:round;">
<path d="M54360 34420
L54380 34400
L54430 34380
L54550 34380
L54590 34400
L54620 34420
L54640 34470
L54640 34520
L54620 34590
L54330 34880
L54640 34880
" />
<path d="M55000 36000
L54000 36000
" />
<path d="M53880 35880
L54120 36120
" />
<path d="M54120 35880
L53880 36120
" />
</g>
<g style="fill:#008484; fill-opacity:0.0; 
stroke:#008484; stroke-width:60; stroke-opacity:1; 
stroke-linecap:round; stroke-linejoin:round;">
<path d="M55660 36420
L55640 36390
L55590 36320
L55570 36270
L55540 36200
L55520 36080
L55520 35990
L55540 35870
L55570 35800
L55590 35750
L55640 35680
L55660 35650
" />
<path d="M56110 35750
L56060 35730
L55990 35730
L55920 35750
L55870 35800
L55850 35850
L55830 35940
L55830 36010
L55850 36110
L55870 36150
L55920 36200
L55990 36230
L56040 36230
L56110 36200
L56130 36180
L56130 36010
L56040 36010
" />
<path d="M56350 36230
L56350 35730
L56630 36230
L56630 35730
" />
<path d="M56870 36230
L56870 35730
L56990 35730
L57060 35750
L57110 35800
L57130 35850
L57150 35940
L57150 36010
L57130 36110
L57110 36150
L57060 36200
L56990 36230
L56870 36230
" />
<path d="M57320 36420
L57350 36390
L57390 36320
L57420 36270
L57440 36200
L57460 36080
L57460 35990
L57440 35870
L57420 35800
L57390 35750
L57350 35680
L57320 35650
" />
</g>
<g style="fill:#840000; fill-opacity:0.0; 
stroke:#840000; stroke-width:60; stroke-opacity:1; 
stroke-linecap:round; stroke-linejoin:round;">
<path d="M54330 35380
L54640 35380
L54470 35570
L54550 35570
L54590 35590
L54620 35610
L54640 35660
L54640 35780
L54620 35830
L54590 35850
L54550 35880
L54400 35880
L54360 35850
L54330 35830
" />
<path d="M55000 37000
L54000 37000
" />
<path d="M53880 36880
L54120 37120
" />
<path d="M54120 36880
L53880 37120
" />
</g>
<g style="fill:#008484; fill-opacity:0.0; 
stroke:#008484; stroke-width:60; stroke-opacity:1; 
stroke-linecap:round; stroke-linejoin:round;">
<path d="M55660 37420
L55640 37390
L55590 37320
L55570 37270
L55540 37200
L55520 37080
L55520 36990
L55540 36870
L55570 36800
L55590 36750
L55640 36680
L55660 36650
" />
<path d="M55780 36730
L55940 37230
L56110 36730
" />
<path d="M56260 37200
L56300 37230
L56400 37230
L56450 37200
L56470 37150
L56470 37130
L56450 37080
L56400 37060
L56330 37060
L56280 37040
L56260 36990
L56260 36960
L56280 36920
L56330 36890
L56400 36890
L56450 36920
" />
<path d="M56630 37420
L56660 37390
L56700 37320
L56730 37270
L56750 37200
L56770 37080
L56770 36990
L56750 36870
L56730 36800
L56700 36750
L56660 36680
L56630 36650
" />
</g>
<g style="fill:#840000; fill-opacity:0.0; 
stroke:#840000; stroke-width:60; stroke-opacity:1; 
stroke-linecap:round; stroke-linejoin:round;">
<path d="M54590 36540
L54590 36880
" />
<path d="M54470 36350
L54360 36710
L54660 36710
" />
<path d="M55000 38000
L54000 38000
" />
</g>
<g style="fill:#008484; fill-opacity:0.0; 
stroke:#008484; stroke-width:60; stroke-opacity:1; 
stroke-linecap:round; stroke-linejoin:round;">
<path d="M55450 37730
L55610 38230
L55780 37730
" />
<path d="M55930 38200
L55970 38230
L56070 38230
L56120 38200
L56140 38150
L56140 38130
L56120 38080
L56070 38060
L56000 38060
L55950 38040
L55930 37990
L55930 37960
L55950 37920
L56000 37890
L56070 37890
L56120 37920
" />
</g>
<g style="fill:#840000; fill-opacity:0.0; 
stroke:#840000; stroke-width:60; stroke-opacity:1; 
stroke-linecap:round; stroke-linejoin:round;">
<path d="M54620 37380
L54380 37380
L54360 37610
L54380 37590
L54430 37570
L54550 37570
L54590 37590
L54620 37610
L54640 37660
L54640 37780
L54620 37830
L54590 37850
L54550 37880
L54430 37880
L54380 37850
L54360 37830
" />
<path d="M61000 38000
L62000 38000
" />
</g>
<g style="fill:#008484; fill-opacity:0.0; 
stroke:#008484; stroke-width:60; stroke-opacity:1; 
stroke-linecap:round; stroke-linejoin:round;">
<path d="M59460 37750
L59410 37730
L59340 37730
L59270 37750
L59220 37800
L59200 37850
L59180 37940
L59180 38010
L59200 38110
L59220 38150
L59270 38200
L59340 38230
L59390 38230
L59460 38200
L59480 38180
L59480 38010
L59390 38010
" />
<path d="M59700 38230
L59700 37730
L59980 38230
L59980 37730
" />
<path d="M60220 38230
L60220 37730
L60340 37730
L60410 37750
L60460 37800
L60480 37850
L60500 37940
L60500 38010
L60480 38110
L60460 38150
L60410 38200
L60340 38230
L60220 38230
" />
</g>
<g style="fill:#840000; fill-opacity:0.0; 
stroke:#840000; stroke-width:60; stroke-opacity:1; 
stroke-linecap:round; stroke-linejoin:round;">
<path d="M61590 37380
L61500 37380
L61450 37400
L61430 37420
L61380 37500
L61360 37590
L61360 37780
L61380 37830
L61400 37850
L61450 37880
L61550 37880
L61590 37850
L61620 37830
L61640 37780
L61640 37660
L61620 37610
L61590 37590
L61550 37570
L61450 37570
L61400 37590
L61380 37610
L61360 37660
" />
<path d="M61000 36000
L62000 36000
" />
<path d="M61880 35880
L62120 36120
" />
<path d="M62120 35880
L61880 36120
" />
</g>
<g style="fill:#008484; fill-opacity:0.0; 
stroke:#008484; stroke-width:60; stroke-opacity:1; 
stroke-linecap:round; stroke-linejoin:round;">
<path d="M58680 36420
L58660 36390
L58610 36320
L58590 36270
L58560 36200
L58540 36080
L58540 35990
L58560 35870
L58590 35800
L58610 35750
L58660 35680
L58680 35650
" />
<path d="M59130 35750
L59080 35730
L59010 35730
L58940 35750
L58890 35800
L58870 35850
L58850 35940
L58850 36010
L58870 36110
L58890 36150
L58940 36200
L59010 36230
L59060 36230
L59130 36200
L59150 36180
L59150 36010
L59060 36010
" />
<path d="M59370 36230
L59370 35730
L59650 36230
L59650 35730
" />
<path d="M59890 36230
L59890 35730
L60010 35730
L60080 35750
L60130 35800
L60150 35850
L60170 35940
L60170 36010
L60150 36110
L60130 36150
L60080 36200
L60010 36230
L59890 36230
" />
<path d="M60340 36420
L60370 36390
L60410 36320
L60440 36270
L60460 36200
L60480 36080
L60480 35990
L60460 35870
L60440 35800
L60410 35750
L60370 35680
L60340 35650
" />
</g>
<g style="fill:#840000; fill-opacity:0.0; 
stroke:#840000; stroke-width:60; stroke-opacity:1; 
stroke-linecap:round; stroke-linejoin:round;">
<path d="M61330 35380
L61660 35380
L61450 35880
" />
<path d="M61000 34000
L62000 34000
" />
</g>
<g style="fill:#008484; fill-opacity:0.0; 
stroke:#008484; stroke-width:60; stroke-opacity:1; 
stroke-linecap:round; stroke-linejoin:round;">
<path d="M59460 33750
L59410 33730
L59340 33730
L59270 33750
L59220 33800
L59200 33850
L59180 33940
L59180 34010
L59200 34110
L59220 34150
L59270 34200
L59340 34230
L59390 34230
L59460 34200
L59480 34180
L59480 34010
L59390 34010
" />
<path d="M59700 34230
L59700 33730
L59980 34230
L59980 33730
" />
<path d="M60220 34230
L60220 33730
L60340 33730
L60410 33750
L60460 33800
L60480 33850
L60500 33940
L60500 34010
L60480 34110
L60460 34150
L60410 34200
L60340 34230
L60220 34230
" />
</g>
<g style="fill:#840000; fill-opacity:0.0; 
stroke:#840000; stroke-width:60; stroke-opacity:1; 
stroke-linecap:round; stroke-linejoin:round;">
<path d="M61450 33590
L61400 33570
L61380 33540
L61360 33500
L61360 33470
L61380 33420
L61400 33400
L61450 33380
L61550 33380
L61590 33400
L61620 33420
L61640 33470
L61640 33500
L61620 33540
L61590 33570
L61550 33590
L61450 33590
L61400 33610
L61380 33640
L61360 33690
L61360 33780
L61380 33830
L61400 33850
L61450 33880
L61550 33880
L61590 33850
L61620 33830
L61640 33780
L61640 33690
L61620 33640
L61590 33610
L61550 33590
" />
</g>
<g style="fill:#008484; fill-opacity:0.0; 
stroke:#008484; stroke-width:60; stroke-opacity:1; 
stroke-linecap:round; stroke-linejoin:round;">
<path d="M55040 32210
L55040 32700
L55070 32750
L55100 32780
L55160 32810
L55270 32810
L55330 32780
L55360 32750
L55390 32700
L55390 32210
" />
<path d="M55990 32810
L55640 32810
" />
<path d="M55820 32810
L55820 32210
L55760 32300
L55700 32350
L55640 32380
" />
<path d="M56510 32210
L56850 32210
" />
<path d="M56680 32810
L56680 32210
" />
<path d="M57020 32780
L57110 32810
L57250 32810
L57310 32780
L57340 32750
L57370 32700
L57370 32640
L57340 32580
L57310 32550
L57250 32530
L57140 32500
L57080 32470
L57050 32440
L57020 32380
L57020 32330
L57050 32270
L57080 32240
L57140 32210
L57280 32210
L57370 32240
" />
<path d="M57740 32210
L57850 32210
L57910 32240
L57970 32300
L57990 32410
L57990 32610
L57970 32730
L57910 32780
L57850 32810
L57740 32810
L57680 32780
L57620 32730
L57590 32610
L57590 32410
L57620 32300
L57680 32240
L57740 32210
" />
<path d="M58250 32810
L58250 32210
L58480 32210
L58540 32240
L58570 32270
L58600 32330
L58600 32410
L58570 32470
L58540 32500
L58480 32530
L58250 32530
" />
<path d="M59140 32210
L58850 32210
L58820 32500
L58850 32470
L58910 32440
L59050 32440
L59110 32470
L59140 32500
L59170 32550
L59170 32700
L59140 32750
L59110 32780
L59050 32810
L58910 32810
L58850 32780
L58820 32750
" />
<path d="M59370 32210
L59770 32210
L59510 32810
" />
<path d="M59960 32270
L59990 32240
L60050 32210
L60190 32210
L60250 32240
L60280 32270
L60310 32330
L60310 32380
L60280 32470
L59940 32810
L60310 32810
" />
<path d="M60510 32210
L60880 32210
L60680 32440
L60760 32440
L60820 32470
L60850 32500
L60880 32550
L60880 32700
L60850 32750
L60820 32780
L60760 32810
L60590 32810
L60530 32780
L60510 32750
" />
<path d="M61220 32470
L61160 32440
L61130 32410
L61100 32350
L61100 32330
L61130 32270
L61160 32240
L61220 32210
L61330 32210
L61390 32240
L61420 32270
L61450 32330
L61450 32350
L61420 32410
L61390 32440
L61330 32470
L61220 32470
L61160 32500
L61130 32530
L61100 32580
L61100 32700
L61130 32750
L61160 32780
L61220 32810
L61330 32810
L61390 32780
L61420 32750
L61450 32700
L61450 32580
L61420 32530
L61390 32500
L61330 32470
" />
</g>
<g style="fill:#008484; fill-opacity:0.0; 
stroke:#008484; stroke-width:0; stroke-opacity:1; 
stroke-linecap:round; stroke-linejoin:round;">
</g>
<g style="fill:#840000; fill-opacity:0.0; 
stroke:#840000; stroke-width:0; stroke-opacity:1; 
stroke-linecap:round; stroke-linejoin:round;">
</g>
<g style="fill:#840000; fill-opacity:0.0; 
stroke:#840000; stroke-width:60; stroke-opacity:1; 
stroke-linecap:round; stroke-linejoin:round;">
<rect x="55000" y="42000" width="6000" height="6000" rx="0" />
<path d="M55000 43000
L54000 43000
" />
</g>
<g style="fill:#008484; fill-opacity:0.0; 
stroke:#008484; stroke-width:60; stroke-opacity:1; 
stroke-linecap:round; stroke-linejoin:round;">
<path d="M55610 42730
L55710 42730
L55760 42750
L55800 42800
L55830 42890
L55830 43060
L55800 43150
L55760 43200
L55710 43230
L55610 43230
L55570 43200
L55520 43150
L55500 43060
L55500 42890
L55520 42800
L55570 42750
L55610 42730
" />
<path d="M56040 42730
L56040 43130
L56060 43180
L56090 43200
L56130 43230
L56230 43230
L56280 43200
L56300 43180
L56320 43130
L56320 42730
" />
<path d="M56490 42730
L56770 42730
" />
<path d="M56630 43230
L56630 42730
" />
</g>
<g style="fill:#840000; fill-opacity:0.0; 
stroke:#840000; stroke-width:60; stroke-opacity:1; 
stroke-linecap:round; stroke-linejoin:round;">
<path d="M54640 42880
L54360 42880
" />
<path d="M54500 42880
L54500 42380
L54450 42450
L54400 42500
L54360 42520
" />
<path d="M55000 44000
L54000 44000
" />
<path d="M53880 43880
L54120 44120
" />
<path d="M54120 43880
L53880 44120
" />
</g>
<g style="fill:#008484; fill-opacity:0.0; 
stroke:#008484; stroke-width:60; stroke-opacity:1; 
stroke-linecap:round; stroke-linejoin:round;">
<path d="M55660 44420
L55640 44390
L55590 44320
L55570 44270
L55540 44200
L55520 44080
L55520 43990
L55540 43870
L55570 43800
L55590 43750
L55640 43680
L55660 43650
" />
<path d="M56110 43750
L56060 43730
L55990 43730
L55920 43750
L55870 43800
L55850 43850
L55830 43940
L55830 44010
L55850 44110
L55870 44150
L55920 44200
L55990 44230
L56040 44230
L56110 44200
L56130 44180
L56130 44010
L56040 44010
" />
<path d="M56350 44230
L56350 43730
L56630 44230
L56630 43730
" />
<path d="M56870 44230
L56870 43730
L56990 43730
L57060 43750
L57110 43800
L57130 43850
L57150 43940
L57150 44010
L57130 44110
L57110 44150
L57060 44200
L56990 44230
L56870 44230
" />
<path d="M57320 44420
L57350 44390
L57390 44320
L57420 44270
L57440 44200
L57460 44080
L57460 43990
L57440 43870
L57420 43800
L57390 43750
L57350 43680
L57320 43650
" />
</g>
<g style="fill:#840000; fill-opacity:0.0; 
stroke:#840000; stroke-width:60; stroke-opacity:1; 
stroke-linecap:round; stroke-linejoin:round;">
<path d="M54360 43420
L54380 43400
L54430 43380
L54550 43380
L54590 43400
L54620 43420
L54640 43470
L54640 43520
L54620 43590
L54330 43880
L54640 43880
" />
<path d="M55000 45000
L54000 45000
" />
<path d="M53880 44880
L54120 45120
" />
<path d="M54120 44880
L53880 45120
" />
</g>
<g style="fill:#008484; fill-opacity:0.0; 
stroke:#008484; stroke-width:60; stroke-opacity:1; 
stroke-linecap:round; stroke-linejoin:round;">
<path d="M55660 45420
L55640 45390
L55590 45320
L55570 45270
L55540 45200
L55520 45080
L55520 44990
L55540 44870
L55570 44800
L55590 44750
L55640 44680
L55660 44650
" />
<path d="M56110 44750
L56060 44730
L55990 44730
L55920 44750
L55870 44800
L55850 44850
L55830 44940
L55830 45010
L55850 45110
L55870 45150
L55920 45200
L55990 45230
L56040 45230
L56110 45200
L56130 45180
L56130 45010
L56040 45010
" />
<path d="M56350 45230
L56350 44730
L56630 45230
L56630 44730
" />
<path d="M56870 45230
L56870 44730
L56990 44730
L57060 44750
L57110 44800
L57130 44850
L57150 44940
L57150 45010
L57130 45110
L57110 45150
L57060 45200
L56990 45230
L56870 45230
" />
<path d="M57320 45420
L57350 45390
L57390 45320
L57420 45270
L57440 45200
L57460 45080
L57460 44990
L57440 44870
L57420 44800
L57390 44750
L57350 44680
L57320 44650
" />
</g>
<g style="fill:#840000; fill-opacity:0.0; 
stroke:#840000; stroke-width:60; stroke-opacity:1; 
stroke-linecap:round; stroke-linejoin:round;">
<path d="M54330 44380
L54640 44380
L54470 44570
L54550 44570
L54590 44590
L54620 44610
L54640 44660
L54640 44780
L54620 44830
L54590 44850
L54550 44880
L54400 44880
L54360 44850
L54330 44830
" />
<path d="M55000 46000
L54000 46000
" />
<path d="M53880 45880
L54120 46120
" />
<path d="M54120 45880
L53880 46120
" />
</g>
<g style="fill:#008484; fill-opacity:0.0; 
stroke:#008484; stroke-width:60; stroke-opacity:1; 
stroke-linecap:round; stroke-linejoin:round;">
<path d="M55660 46420
L55640 46390
L55590 46320
L55570 46270
L55540 46200
L55520 46080
L55520 45990
L55540 45870
L55570 45800
L55590 45750
L55640 45680
L55660 45650
" />
<path d="M55780 45730
L55940 46230
L56110 45730
" />
<path d="M56260 46200
L56300 46230
L56400 46230
L56450 46200
L56470 46150
L56470 46130
L56450 46080
L56400 46060
L56330 46060
L56280 46040
L56260 45990
L56260 45960
L56280 45920
L56330 45890
L56400 45890
L56450 45920
" />
<path d="M56630 46420
L56660 46390
L56700 46320
L56730 46270
L56750 46200
L56770 46080
L56770 45990
L56750 45870
L56730 45800
L56700 45750
L56660 45680
L56630 45650
" />
</g>
<g style="fill:#840000; fill-opacity:0.0; 
stroke:#840000; stroke-width:60; stroke-opacity:1; 
stroke-linecap:round; stroke-linejoin:round;">
<path d="M54590 45540
L54590 45880
" />
<path d="M54470 45350
L54360 45710
L54660 45710
" />
<path d="M55000 47000
L54000 47000
" />
</g>
<g style="fill:#008484; fill-opacity:0.0; 
stroke:#008484; stroke-width:60; stroke-opacity:1; 
stroke-linecap:round; stroke-linejoin:round;">
<path d="M55450 46730
L55610 47230
L55780 46730
" />
<path d="M55930 47200
L55970 47230
L56070 47230
L56120 47200
L56140 47150
L56140 47130
L56120 47080
L56070 47060
L56000 47060
L55950 47040
L55930 46990
L55930 46960
L55950 46920
L56000 46890
L56070 46890
L56120 46920
" />
</g>
<g style="fill:#840000; fill-opacity:0.0; 
stroke:#840000; stroke-width:60; stroke-opacity:1; 
stroke-linecap:round; stroke-linejoin:round;">
<path d="M54620 46380
L54380 46380
L54360 46610
L54380 46590
L54430 46570
L54550 46570
L54590 46590
L54620 46610
L54640 46660
L54640 46780
L54620 46830
L54590 46850
L54550 46880
L54430 46880
L54380 46850
L54360 46830
" />
<path d="M61000 47000
L62000 47000
" />
</g>
<g style="fill:#008484; fill-opacity:0.0; 
stroke:#008484; stroke-width:60; stroke-opacity:1; 
stroke-linecap:round; stroke-linejoin:round;">
<path d="M59460 46750
L59410 46730
L59340 46730
L59270 46750
L59220 46800
L59200 46850
L59180 46940
L59180 47010
L59200 47110
L59220 47150
L59270 47200
L59340 47230
L59390 47230
L59460 47200
L59480 47180
L59480 47010
L59390 47010
" />
<path d="M59700 47230
L59700 46730
L59980 47230
L59980 46730
" />
<path d="M60220 47230
L60220 46730
L60340 46730
L60410 46750
L60460 46800
L60480 46850
L60500 46940
L60500 47010
L60480 47110
L60460 47150
L60410 47200
L60340 47230
L60220 47230
" />
</g>
<g style="fill:#840000; fill-opacity:0.0; 
stroke:#840000; stroke-width:60; stroke-opacity:1; 
stroke-linecap:round; stroke-linejoin:round;">
<path d="M61590 46380
L61500 46380
L61450 46400
L61430 46420
L61380 46500
L61360 46590
L61360 46780
L61380 46830
L61400 46850
L61450 46880
L61550 46880
L61590 46850
L61620 46830
L61640 46780
L61640 46660
L61620 46610
L61590 46590
L61550 46570
L61450 46570
L61400 46590
L61380 46610
L61360 46660
" />
<path d="M61000 45000
L62000 45000
" />
<path d="M61880 44880
L62120 45120
" />
<path d="M62120 44880
L61880 45120
" />
</g>
<g style="fill:#008484; fill-opacity:0.0; 
stroke:#008484; stroke-width:60; stroke-opacity:1; 
stroke-linecap:round; stroke-linejoin:round;">
<path d="M58680 45420
L58660 45390
L58610 45320
L58590 45270
L58560 45200
L58540 45080
L58540 44990
L58560 44870
L58590 44800
L58610 44750
L58660 44680
L58680 44650
" />
<path d="M59130 44750
L59080 44730
L59010 44730
L58940 44750
L58890 44800
L58870 44850
L58850 44940
L58850 45010
L58870 45110
L58890 45150
L58940 45200
L59010 45230
L59060 45230
L59130 45200
L59150 45180
L59150 45010
L59060 45010
" />
<path d="M59370 45230
L59370 44730
L59650 45230
L59650 44730
" />
<path d="M59890 45230
L59890 44730
L60010 44730
L60080 44750
L60130 44800
L60150 44850
L60170 44940
L60170 45010
L60150 45110
L60130 45150
L60080 45200
L60010 45230
L59890 45230
" />
<path d="M60340 45420
L60370 45390
L60410 45320
L60440 45270
L60460 45200
L60480 45080
L60480 44990
L60460 44870
L60440 44800
L60410 44750
L60370 44680
L60340 44650
" />
</g>
<g style="fill:#840000; fill-opacity:0.0; 
stroke:#840000; stroke-width:60; stroke-opacity:1; 
stroke-linecap:round; stroke-linejoin:round;">
<path d="M61330 44380
L61660 44380
L61450 44880
" />
<path d="M61000 43000
L62000 43000
" />
</g>
<g style="fill:#008484; fill-opacity:0.0; 
stroke:#008484; stroke-width:60; stroke-opacity:1; 
stroke-linecap:round; stroke-linejoin:round;">
<path d="M59460 42750
L59410 42730
L59340 42730
L59270 42750
L59220 42800
L59200 42850
L59180 42940
L59180 43010
L59200 43110
L59220 43150
L59270 43200
L59340 43230
L59390 43230
L59460 43200
L59480 43180
L59480 43010
L59390 43010
" />
<path d="M59700 43230
L59700 42730
L59980 43230
L59980 42730
" />
<path d="M60220 43230
L60220 42730
L60340 42730
L60410 42750
L60460 42800
L60480 42850
L60500 42940
L60500 43010
L60480 43110
L60460 43150
L60410 43200
L60340 43230
L60220 43230
" />
</g>
<g style="fill:#840000; fill-opacity:0.0; 
stroke:#840000; stroke-width:60; stroke-opacity:1; 
stroke-linecap:round; stroke-linejoin:round;">
<path d="M61450 42590
L61400 42570
L61380 42540
L61360 42500
L61360 42470
L61380 42420
L61400 42400
L61450 42380
L61550 42380
L61590 42400
L61620 42420
L61640 42470
L61640 42500
L61620 42540
L61590 42570
L61550 42590
L61450 42590
L61400 42610
L61380 42640
L61360 42690
L61360 42780
L61380 42830
L61400 42850
L61450 42880
L61550 42880
L61590 42850
L61620 42830
L61640 42780
L61640 42690
L61620 42640
L61590 42610
L61550 42590
" />
</g>
<g style="fill:#008484; fill-opacity:0.0; 
stroke:#008484; stroke-width:60; stroke-opacity:1; 
stroke-linecap:round; stroke-linejoin:round;">
<path d="M55040 41210
L55040 41700
L55070 41750
L55100 41780
L55160 41810
L55270 41810
L55330 41780
L55360 41750
L55390 41700
L55390 41210
" />
<path d="M55640 41270
L55670 41240
L55730 41210
L55870 41210
L55930 41240
L55960 41270
L55990 41330
L55990 41380
L55960 41470
L55620 41810
L55990 41810
" />
<path d="M56510 41210
L56850 41210
" />
<path d="M56680 41810
L56680 41210
" />
<path d="M57020 41780
L57110 41810
L57250 41810
L57310 41780
L57340 41750
L57370 41700
L57370 41640
L57340 41580
L57310 41550
L57250 41530
L57140 41500
L57080 41470
L57050 41440
L57020 41380
L57020 41330
L57050 41270
L57080 41240
L57140 41210
L57280 41210
L57370 41240
" />
<path d="M57740 41210
L57850 41210
L57910 41240
L57970 41300
L57990 41410
L57990 41610
L57970 41730
L57910 41780
L57850 41810
L57740 41810
L57680 41780
L57620 41730
L57590 41610
L57590 41410
L57620 41300
L57680 41240
L57740 41210
" />
<path d="M58250 41810
L58250 41210
L58480 41210
L58540 41240
L58570 41270
L58600 41330
L58600 41410
L58570 41470
L58540 41500
L58480 41530
L58250 41530
" />
<path d="M59140 41210
L58850 41210
L58820 41500
L58850 41470
L58910 41440
L59050 41440
L59110 41470
L59140 41500
L59170 41550
L59170 41700
L59140 41750
L59110 41780
L59050 41810
L58910 41810
L58850 41780
L58820 41750
" />
<path d="M59370 41210
L59770 41210
L59510 41810
" />
<path d="M59960 41270
L59990 41240
L60050 41210
L60190 41210
L60250 41240
L60280 41270
L60310 41330
L60310 41380
L60280 41470
L59940 41810
L60310 41810
" />
<path d="M60510 41210
L60880 41210
L60680 41440
L60760 41440
L60820 41470
L60850 41500
L60880 41550
L60880 41700
L60850 41750
L60820 41780
L60760 41810
L60590 41810
L60530 41780
L60510 41750
" />
<path d="M61220 41470
L61160 41440
L61130 41410
L61100 41350
L61100 41330
L61130 41270
L61160 41240
L61220 41210
L61330 41210
L61390 41240
L61420 41270
L61450 41330
L61450 41350
L61420 41410
L61390 41440
L61330 41470
L61220 41470
L61160 41500
L61130 41530
L61100 41580
L61100 41700
L61130 41750
L61160 41780
L61220 41810
L61330 41810
L61390 41780
L61420 41750
L61450 41700
L61450 41580
L61420 41530
L61390 41500
L61330 41470
" />
</g>
<g style="fill:#008400; fill-opacity:0.0; 
stroke:#008400; stroke-width:60; stroke-opacity:1; 
stroke-linecap:round; stroke-linejoin:round;">
<path d="M62000 34000
L63000 34000
" />
<path d="M63000 34000
L63000 48000
" />
<path d="M63000 38000
L62000 38000
" />
<path d="M63000 43000
L62000 43000
" />
</g>
<g style="fill:#008400; fill-opacity:0.0; 
stroke:#008400; stroke-width:0; stroke-opacity:1; 
stroke-linecap:round; stroke-linejoin:round;">
</g>
<g style="fill:#008400; fill-opacity:1.0; 
stroke:#008400; stroke-width:100; stroke-opacity:1; 
stroke-linecap:round; stroke-linejoin:round;">
<circle cx="63000" cy="38000" r="200" /> 
</g>
<g style="fill:#008400; fill-opacity:1.0; 
stroke:#008400; stroke-width:60; stroke-opacity:1; 
stroke-linecap:round; stroke-linejoin:round;">
</g>
<g style="fill:#008400; fill-opacity:0.0; 
stroke:#008400; stroke-width:60; stroke-opacity:1; 
stroke-linecap:round; stroke-linejoin:round;">
<path d="M63000 47000
L62000 47000
" />
</g>
<g style="fill:#008400; fill-opacity:0.0; 
stroke:#008400; stroke-width:0; stroke-opacity:1; 
stroke-linecap:round; stroke-linejoin:round;">
</g>
<g style="fill:#008400; fill-opacity:1.0; 
stroke:#008400; stroke-width:100; stroke-opacity:1; 
stroke-linecap:round; stroke-linejoin:round;">
<circle cx="63000" cy="43000" r="200" /> 
</g>
<g style="fill:#008400; fill-opacity:1.0; 
stroke:#008400; stroke-width:0; stroke-opacity:1; 
stroke-linecap:round; stroke-linejoin:round;">
</g>
<g style="fill:#840000; fill-opacity:1.0; 
stroke:#840000; stroke-width:0; stroke-opacity:1; 
stroke-linecap:round; stroke-linejoin:round;">
</g>
<g style="fill:#840000; fill-opacity:0.0; 
stroke:#840000; stroke-width:60; stroke-opacity:1; 
stroke-linecap:round; stroke-linejoin:round;">
<polyline fill="none;"
points="63000,48000
63000,48500
63500,48500
63000,49000
62500,48500
63000,48500
" /> 
</g>
<g style="fill:#008484; fill-opacity:0.0; 
stroke:#008484; stroke-width:60; stroke-opacity:1; 
stroke-linecap:round; stroke-linejoin:round;">
<path d="M62620 49280
L62570 49260
L62500 49260
L62430 49280
L62380 49330
L62360 49380
L62340 49470
L62340 49540
L62360 49640
L62380 49680
L62430 49730
L62500 49760
L62550 49760
L62620 49730
L62640 49710
L62640 49540
L62550 49540
" />
<path d="M62860 49760
L62860 49260
L63140 49760
L63140 49260
" />
<path d="M63380 49760
L63380 49260
L63500 49260
L63570 49280
L63620 49330
L63640 49380
L63660 49470
L63660 49540
L63640 49640
L63620 49680
L63570 49730
L63500 49760
L63380 49760
" />
</g>
<g style="fill:#008484; fill-opacity:0.0; 
stroke:#008484; stroke-width:0; stroke-opacity:1; 
stroke-linecap:round; stroke-linejoin:round;">
</g>
<g style="fill:#008400; fill-opacity:0.0; 
stroke:#008400; stroke-width:0; stroke-opacity:1; 
stroke-linecap:round; stroke-linejoin:round;">
</g>
<g style="fill:#008400; fill-opacity:1.0; 
stroke:#008400; stroke-width:100; stroke-opacity:1; 
stroke-linecap:round; stroke-linejoin:round;">
<circle cx="63000" cy="47000" r="200" /> 
</g>
<g style="fill:#008400; fill-opacity:1.0; 
stroke:#008400; stroke-width:0; stroke-opacity:1; 
stroke-linecap:round; stroke-linejoin:round;">
</g>
<g style="fill:#840000; fill-opacity:1.0; 
stroke:#840000; stroke-width:0; stroke-opacity:1; 
stroke-linecap:round; stroke-linejoin:round;">
</g>
<g style="fill:#840000; fill-opacity:0.0; 
stroke:#840000; stroke-width:60; stroke-opacity:1; 
stroke-linecap:round; stroke-linejoin:round;">
<polyline fill="none;"
points="52700,32500
53000,32000
" /> 
<polyline fill="none;"
points="53000,33000
53000,32000
" /> 
<polyline fill="none;"
points="53000,32000
53300,32500
" /> 
</g>
<g style="fill:#008484; fill-opacity:0.0; 
stroke:#008484; stroke-width:60; stroke-opacity:1; 
stroke-linecap:round; stroke-linejoin:round;">
<path d="M52120 31670
L52500 31670
" />
<path d="M52310 31860
L52310 31480
" />
<path d="M52720 31400
L52740 31380
L52790 31360
L52910 31360
L52950 31380
L52980 31400
L53000 31450
L53000 31500
L52980 31570
L52690 31860
L53000 31860
" />
<path d="M53150 31360
L53310 31860
L53480 31360
" />
<path d="M53720 31570
L53670 31550
L53650 31520
L53630 31480
L53630 31450
L53650 31400
L53670 31380
L53720 31360
L53820 31360
L53860 31380
L53890 31400
L53910 31450
L53910 31480
L53890 31520
L53860 31550
L53820 31570
L53720 31570
L53670 31590
L53650 31620
L53630 31670
L53630 31760
L53650 31810
L53670 31830
L53720 31860
L53820 31860
L53860 31830
L53890 31810
L53910 31760
L53910 31670
L53890 31620
L53860 31590
L53820 31570
" />
</g>
<g style="fill:#008400; fill-opacity:0.0; 
stroke:#008400; stroke-width:60; stroke-opacity:1; 
stroke-linecap:round; stroke-linejoin:round;">
<path d="M54000 38000
L53000 38000
" />
<path d="M53000 33000
L53000 47000
" />
<path d="M53000 47000
L54000 47000
" />
</g>
<g style="fill:#008400; fill-opacity:0.0; 
stroke:#008400; stroke-width:0; stroke-opacity:1; 
stroke-linecap:round; stroke-linejoin:round;">
</g>
<g style="fill:#008400; fill-opacity:1.0; 
stroke:#008400; stroke-width:100; stroke-opacity:1; 
stroke-linecap:round; stroke-linejoin:round;">
<circle cx="53000" cy="38000" r="200" /> 
</g>
<g style="fill:#008400; fill-opacity:1.0; 
stroke:#008400; stroke-width:60; stroke-opacity:1; 
stroke-linecap:round; stroke-linejoin:round;">
</g>
<g style="fill:#008400; fill-opacity:0.0; 
stroke:#008400; stroke-width:60; stroke-opacity:1; 
stroke-linecap:round; stroke-linejoin:round;">
<path d="M54000 34000
L50000 34000
" />
<path d="M54000 43000
L50000 43000
" />
</g>
<g style="fill:#000000; fill-opacity:0.0; 
stroke:#000000; stroke-width:60; stroke-opacity:1; 
stroke-linecap:round; stroke-linejoin:round;">
<path d="M50140 33870
L50140 33270
" />
<path d="M50780 33870
L50580 33590
" />
<path d="M50430 33870
L50430 33270
L50660 33270
L50720 33300
L50750 33330
L50780 33390
L50780 33470
L50750 33530
L50720 33560
L50660 33590
L50430 33590
" />
<path d="M50890 33930
L51350 33930
" />
<path d="M51840 33870
L51640 33590
" />
<path d="M51490 33870
L51490 33270
L51720 33270
L51780 33300
L51810 33330
L51840 33390
L51840 33470
L51810 33530
L51780 33560
L51720 33590
L51490 33590
" />
<path d="M50140 42870
L50140 42270
" />
<path d="M50780 42870
L50580 42590
" />
<path d="M50430 42870
L50430 42270
L50660 42270
L50720 42300
L50750 42330
L50780 42390
L50780 42470
L50750 42530
L50720 42560
L50660 42590
L50430 42590
" />
<path d="M50890 42930
L51350 42930
" />
<path d="M51780 42870
L51490 42870
L51490 42270
" />
</g>
<g style="fill:#000000; fill-opacity:0.0; 
stroke:#000000; stroke-width:0; stroke-opacity:1; 
stroke-linecap:round; stroke-linejoin:round;">
</g>
<g style="fill:#840000; fill-opacity:0.0; 
stroke:#840000; stroke-width:0; stroke-opacity:1; 
stroke-linecap:round; stroke-linejoin:round;">
</g>
<g style="fill:#840000; fill-opacity:0.0; 
stroke:#840000; stroke-width:60; stroke-opacity:1; 
stroke-linecap:round; stroke-linejoin:round;">
<rect x="71500" y="41950" width="600" height="100" rx="0" />
<rect x="71500" y="40950" width="600" height="100" rx="0" />
<rect x="71500" y="39950" width="600" height="100" rx="0" />
<rect x="71500" y="38950" width="600" height="100" rx="0" />
<rect x="71500" y="38500" width="1000" height="4000" rx="0" />
<path d="M71500 39000
L70000 39000
" />
<path d="M70890 38880
L70610 38880
" />
<path d="M70750 38880
L70750 38380
L70700 38450
L70650 38500
L70610 38520
" />
<path d="M71500 40000
L70000 40000
" />
<path d="M70610 39420
L70630 39400
L70680 39380
L70800 39380
L70840 39400
L70870 39420
L70890 39470
L70890 39520
L70870 39590
L70580 39880
L70890 39880
" />
<path d="M71500 41000
L70000 41000
" />
<path d="M70580 40380
L70890 40380
L70720 40570
L70800 40570
L70840 40590
L70870 40610
L70890 40660
L70890 40780
L70870 40830
L70840 40850
L70800 40880
L70650 40880
L70610 40850
L70580 40830
" />
<path d="M71500 42000
L70000 42000
" />
<path d="M70840 41540
L70840 41880
" />
<path d="M70720 41350
L70610 41710
L70910 41710
" />
</g>
<g style="fill:#008484; fill-opacity:0.0; 
stroke:#008484; stroke-width:60; stroke-opacity:1; 
stroke-linecap:round; stroke-linejoin:round;">
<path d="M71830 37760
L71830 38110
L71810 38180
L71760 38230
L71690 38260
L71640 38260
" />
<path d="M72330 38260
L72050 38260
" />
<path d="M72190 38260
L72190 37760
L72140 37830
L72090 37880
L72050 37900
" />
<path d="M73260 40750
L72760 40750
" />
<path d="M73260 40230
L73020 40390
" />
<path d="M73260 40510
L72760 40510
L72760 40320
L72780 40270
L72800 40250
L72850 40230
L72920 40230
L72970 40250
L72990 40270
L73020 40320
L73020 40510
" />
</g>
<g style="fill:#008484; fill-opacity:0.0; 
stroke:#008484; stroke-width:0; stroke-opacity:1; 
stroke-linecap:round; stroke-linejoin:round;">
</g>
<g style="fill:#840000; fill-opacity:0.0; 
stroke:#840000; stroke-width:0; stroke-opacity:1; 
stroke-linecap:round; stroke-linejoin:round;">
</g>
<g style="fill:#840000; fill-opacity:0.0; 
stroke:#840000; stroke-width:60; stroke-opacity:1; 
stroke-linecap:round; stroke-linejoin:round;">
<polyline fill="none;"
points="68700,37500
69000,37000
" /> 
<polyline fill="none;"
points="69000,38000
69000,37000
" /> 
<polyline fill="none;"
points="69000,37000
69300,37500
" /> 
</g>
<g style="fill:#008484; fill-opacity:0.0; 
stroke:#008484; stroke-width:60; stroke-opacity:1; 
stroke-linecap:round; stroke-linejoin:round;">
<path d="M68120 36670
L68500 36670
" />
<path d="M68310 36860
L68310 36480
" />
<path d="M68720 36400
L68740 36380
L68790 36360
L68910 36360
L68950 36380
L68980 36400
L69000 36450
L69000 36500
L68980 36570
L68690 36860
L69000 36860
" />
<path d="M69150 36360
L69310 36860
L69480 36360
" />
<path d="M69720 36570
L69670 36550
L69650 36520
L69630 36480
L69630 36450
L69650 36400
L69670 36380
L69720 36360
L69820 36360
L69860 36380
L69890 36400
L69910 36450
L69910 36480
L69890 36520
L69860 36550
L69820 36570
L69720 36570
L69670 36590
L69650 36620
L69630 36670
L69630 36760
L69650 36810
L69670 36830
L69720 36860
L69820 36860
L69860 36830
L69890 36810
L69910 36760
L69910 36670
L69890 36620
L69860 36590
L69820 36570
" />
</g>
<g style="fill:#008484; fill-opacity:0.0; 
stroke:#008484; stroke-width:0; stroke-opacity:1; 
stroke-linecap:round; stroke-linejoin:round;">
</g>
<g style="fill:#840000; fill-opacity:0.0; 
stroke:#840000; stroke-width:0; stroke-opacity:1; 
stroke-linecap:round; stroke-linejoin:round;">
</g>
<g style="fill:#840000; fill-opacity:0.0; 
stroke:#840000; stroke-width:60; stroke-opacity:1; 
stroke-linecap:round; stroke-linejoin:round;">
<polyline fill="none;"
points="69000,43000
69000,43500
69500,43500
69000,44000
68500,43500
69000,43500
" /> 
</g>
<g style="fill:#008484; fill-opacity:0.0; 
stroke:#008484; stroke-width:60; stroke-opacity:1; 
stroke-linecap:round; stroke-linejoin:round;">
<path d="M68620 44280
L68570 44260
L68500 44260
L68430 44280
L68380 44330
L68360 44380
L68340 44470
L68340 44540
L68360 44640
L68380 44680
L68430 44730
L68500 44760
L68550 44760
L68620 44730
L68640 44710
L68640 44540
L68550 44540
" />
<path d="M68860 44760
L68860 44260
L69140 44760
L69140 44260
" />
<path d="M69380 44760
L69380 44260
L69500 44260
L69570 44280
L69620 44330
L69640 44380
L69660 44470
L69660 44540
L69640 44640
L69620 44680
L69570 44730
L69500 44760
L69380 44760
" />
</g>
<g style="fill:#008400; fill-opacity:0.0; 
stroke:#008400; stroke-width:60; stroke-opacity:1; 
stroke-linecap:round; stroke-linejoin:round;">
<path d="M69000 38000
L69000 39000
" />
<path d="M69000 39000
L70000 39000
" />
<path d="M70000 42000
L69000 42000
" />
<path d="M69000 42000
L69000 43000
" />
<path d="M70000 40000
L67000 40000
" />
<path d="M70000 41000
L67000 41000
" />
</g>
<g style="fill:#000000; fill-opacity:0.0; 
stroke:#000000; stroke-width:60; stroke-opacity:1; 
stroke-linecap:round; stroke-linejoin:round;">
<path d="M67140 40870
L67140 40270
" />
<path d="M67780 40870
L67580 40590
" />
<path d="M67430 40870
L67430 40270
L67660 40270
L67720 40300
L67750 40330
L67780 40390
L67780 40470
L67750 40530
L67720 40560
L67660 40590
L67430 40590
" />
<path d="M67890 40930
L68350 40930
" />
<path d="M68780 40870
L68490 40870
L68490 40270
" />
<path d="M67140 39870
L67140 39270
" />
<path d="M67780 39870
L67580 39590
" />
<path d="M67430 39870
L67430 39270
L67660 39270
L67720 39300
L67750 39330
L67780 39390
L67780 39470
L67750 39530
L67720 39560
L67660 39590
L67430 39590
" />
<path d="M67890 39930
L68350 39930
" />
<path d="M68840 39870
L68640 39590
" />
<path d="M68490 39870
L68490 39270
L68720 39270
L68780 39300
L68810 39330
L68840 39390
L68840 39470
L68810 39530
L68780 39560
L68720 39590
L68490 39590
" />
</g> 
</svg>
