<?xml version="1.0" standalone="no"?>
 <!DOCTYPE svg PUBLIC "-//W3C//DTD SVG 1.1//EN" 
 "http://www.w3.org/Graphics/SVG/1.1/DTD/svg11.dtd"> 
<svg xmlns="http://www.w3.org/2000/svg" version="1.1" 
    width="29.7002cm" height="21.0007cm" viewBox="0 0 116930 82680 ">
<title>SVG Picture created as locomotive-F.SilkS.svg date 2017/03/31 13:48:09 </title>
  <desc>Picture generated by PCBNEW </desc>
<g style="fill:#000000; fill-opacity:1;stroke:#000000; stroke-opacity:1;
stroke-linecap:round; stroke-linejoin:round; "
 transform="translate(0 0) scale(1 1)">
</g>
<g style="fill:#000000; fill-opacity:0.0; 
stroke:#000000; stroke-width:-0.000393701; stroke-opacity:1; 
stroke-linecap:round; stroke-linejoin:round;">
</g>
<g style="fill:#000000; fill-opacity:0.0; 
stroke:#000000; stroke-width:39.3701; stroke-opacity:1; 
stroke-linecap:round; stroke-linejoin:round;">
</g>
<g style="fill:#000000; fill-opacity:0.0; 
stroke:#000000; stroke-width:59.0551; stroke-opacity:1; 
stroke-linecap:round; stroke-linejoin:round;">
<rect x="69685.9" y="65357.2" width="42519.7" height="12598.4" rx="0" />
</g>
<g style="fill:#000000; fill-opacity:0.0; 
stroke:#000000; stroke-width:39.3701; stroke-opacity:1; 
stroke-linecap:round; stroke-linejoin:round;">
</g>
<g style="fill:#000000; fill-opacity:0.0; 
stroke:#000000; stroke-width:59.0551; stroke-opacity:1; 
stroke-linecap:round; stroke-linejoin:round;">
<rect x="3937.01" y="3937.01" width="109056" height="74806" rx="0" />
</g>
<g style="fill:#000000; fill-opacity:0.0; 
stroke:#000000; stroke-width:39.3701; stroke-opacity:1; 
stroke-linecap:round; stroke-linejoin:round;">
</g>
<g style="fill:#000000; fill-opacity:0.0; 
stroke:#000000; stroke-width:59.0551; stroke-opacity:1; 
stroke-linecap:round; stroke-linejoin:round;">
<rect x="4724.41" y="4724.41" width="107481" height="73231.2" rx="0" />
</g>
<g style="fill:#000000; fill-opacity:0.0; 
stroke:#000000; stroke-width:39.3701; stroke-opacity:1; 
stroke-linecap:round; stroke-linejoin:round;">
</g>
<g style="fill:#000000; fill-opacity:0.0; 
stroke:#000000; stroke-width:59.0551; stroke-opacity:1; 
stroke-linecap:round; stroke-linejoin:round;">
<path d="M23622 4724
L23622 3937
" />
</g>
<g style="fill:#000000; fill-opacity:0.0; 
stroke:#000000; stroke-width:39.3701; stroke-opacity:1; 
stroke-linecap:round; stroke-linejoin:round;">
</g>
<g style="fill:#000000; fill-opacity:0.0; 
stroke:#000000; stroke-width:59.0551; stroke-opacity:1; 
stroke-linecap:round; stroke-linejoin:round;">
<path d="M43307 4724
L43307 3937
" />
</g>
<g style="fill:#000000; fill-opacity:0.0; 
stroke:#000000; stroke-width:39.3701; stroke-opacity:1; 
stroke-linecap:round; stroke-linejoin:round;">
</g>
<g style="fill:#000000; fill-opacity:0.0; 
stroke:#000000; stroke-width:59.0551; stroke-opacity:1; 
stroke-linecap:round; stroke-linejoin:round;">
<path d="M62992 4724
L62992 3937
" />
</g>
<g style="fill:#000000; fill-opacity:0.0; 
stroke:#000000; stroke-width:39.3701; stroke-opacity:1; 
stroke-linecap:round; stroke-linejoin:round;">
</g>
<g style="fill:#000000; fill-opacity:0.0; 
stroke:#000000; stroke-width:59.0551; stroke-opacity:1; 
stroke-linecap:round; stroke-linejoin:round;">
<path d="M82677 4724
L82677 3937
" />
</g>
<g style="fill:#000000; fill-opacity:0.0; 
stroke:#000000; stroke-width:39.3701; stroke-opacity:1; 
stroke-linecap:round; stroke-linejoin:round;">
</g>
<g style="fill:#000000; fill-opacity:0.0; 
stroke:#000000; stroke-width:59.0551; stroke-opacity:1; 
stroke-linecap:round; stroke-linejoin:round;">
<path d="M102362 4724
L102362 3937
" />
</g>
<g style="fill:#000000; fill-opacity:0.0; 
stroke:#000000; stroke-width:39.3701; stroke-opacity:1; 
stroke-linecap:round; stroke-linejoin:round;">
</g>
<g style="fill:#000000; fill-opacity:0.0; 
stroke:#000000; stroke-width:59.0551; stroke-opacity:1; 
stroke-linecap:round; stroke-linejoin:round;">
<path d="M14169 4562
L13877 4562
" />
<path d="M14023 4562
L14023 4050
L13974 4123
L13925 4172
L13877 4196
" />
</g>
<g style="fill:#000000; fill-opacity:0.0; 
stroke:#000000; stroke-width:39.3701; stroke-opacity:1; 
stroke-linecap:round; stroke-linejoin:round;">
</g>
<g style="fill:#000000; fill-opacity:0.0; 
stroke:#000000; stroke-width:59.0551; stroke-opacity:1; 
stroke-linecap:round; stroke-linejoin:round;">
<path d="M33562 4099
L33586 4074
L33635 4050
L33757 4050
L33805 4074
L33830 4099
L33854 4147
L33854 4196
L33830 4269
L33537 4562
L33854 4562
" />
</g>
<g style="fill:#000000; fill-opacity:0.0; 
stroke:#000000; stroke-width:39.3701; stroke-opacity:1; 
stroke-linecap:round; stroke-linejoin:round;">
</g>
<g style="fill:#000000; fill-opacity:0.0; 
stroke:#000000; stroke-width:59.0551; stroke-opacity:1; 
stroke-linecap:round; stroke-linejoin:round;">
<path d="M53222 4050
L53539 4050
L53368 4245
L53442 4245
L53490 4269
L53515 4294
L53539 4342
L53539 4464
L53515 4513
L53490 4537
L53442 4562
L53295 4562
L53247 4537
L53222 4513
" />
</g>
<g style="fill:#000000; fill-opacity:0.0; 
stroke:#000000; stroke-width:39.3701; stroke-opacity:1; 
stroke-linecap:round; stroke-linejoin:round;">
</g>
<g style="fill:#000000; fill-opacity:0.0; 
stroke:#000000; stroke-width:59.0551; stroke-opacity:1; 
stroke-linecap:round; stroke-linejoin:round;">
<path d="M73175 4221
L73175 4562
" />
<path d="M73053 4026
L72932 4391
L73248 4391
" />
</g>
<g style="fill:#000000; fill-opacity:0.0; 
stroke:#000000; stroke-width:39.3701; stroke-opacity:1; 
stroke-linecap:round; stroke-linejoin:round;">
</g>
<g style="fill:#000000; fill-opacity:0.0; 
stroke:#000000; stroke-width:59.0551; stroke-opacity:1; 
stroke-linecap:round; stroke-linejoin:round;">
<path d="M92885 4050
L92641 4050
L92617 4294
L92641 4269
L92690 4245
L92812 4245
L92860 4269
L92885 4294
L92909 4342
L92909 4464
L92885 4513
L92860 4537
L92812 4562
L92690 4562
L92641 4537
L92617 4513
" />
</g>
<g style="fill:#000000; fill-opacity:0.0; 
stroke:#000000; stroke-width:39.3701; stroke-opacity:1; 
stroke-linecap:round; stroke-linejoin:round;">
</g>
<g style="fill:#000000; fill-opacity:0.0; 
stroke:#000000; stroke-width:59.0551; stroke-opacity:1; 
stroke-linecap:round; stroke-linejoin:round;">
<path d="M112545 4050
L112448 4050
L112399 4074
L112375 4099
L112326 4172
L112302 4269
L112302 4464
L112326 4513
L112350 4537
L112399 4562
L112497 4562
L112545 4537
L112570 4513
L112594 4464
L112594 4342
L112570 4294
L112545 4269
L112497 4245
L112399 4245
L112350 4269
L112326 4294
L112302 4342
" />
</g>
<g style="fill:#000000; fill-opacity:0.0; 
stroke:#000000; stroke-width:39.3701; stroke-opacity:1; 
stroke-linecap:round; stroke-linejoin:round;">
</g>
<g style="fill:#000000; fill-opacity:0.0; 
stroke:#000000; stroke-width:59.0551; stroke-opacity:1; 
stroke-linecap:round; stroke-linejoin:round;">
<path d="M23622 77955
L23622 78742
" />
</g>
<g style="fill:#000000; fill-opacity:0.0; 
stroke:#000000; stroke-width:39.3701; stroke-opacity:1; 
stroke-linecap:round; stroke-linejoin:round;">
</g>
<g style="fill:#000000; fill-opacity:0.0; 
stroke:#000000; stroke-width:59.0551; stroke-opacity:1; 
stroke-linecap:round; stroke-linejoin:round;">
<path d="M43307 77955
L43307 78742
" />
</g>
<g style="fill:#000000; fill-opacity:0.0; 
stroke:#000000; stroke-width:39.3701; stroke-opacity:1; 
stroke-linecap:round; stroke-linejoin:round;">
</g>
<g style="fill:#000000; fill-opacity:0.0; 
stroke:#000000; stroke-width:59.0551; stroke-opacity:1; 
stroke-linecap:round; stroke-linejoin:round;">
<path d="M62992 77955
L62992 78742
" />
</g>
<g style="fill:#000000; fill-opacity:0.0; 
stroke:#000000; stroke-width:39.3701; stroke-opacity:1; 
stroke-linecap:round; stroke-linejoin:round;">
</g>
<g style="fill:#000000; fill-opacity:0.0; 
stroke:#000000; stroke-width:59.0551; stroke-opacity:1; 
stroke-linecap:round; stroke-linejoin:round;">
<path d="M82677 77955
L82677 78742
" />
</g>
<g style="fill:#000000; fill-opacity:0.0; 
stroke:#000000; stroke-width:39.3701; stroke-opacity:1; 
stroke-linecap:round; stroke-linejoin:round;">
</g>
<g style="fill:#000000; fill-opacity:0.0; 
stroke:#000000; stroke-width:59.0551; stroke-opacity:1; 
stroke-linecap:round; stroke-linejoin:round;">
<path d="M102362 77955
L102362 78742
" />
</g>
<g style="fill:#000000; fill-opacity:0.0; 
stroke:#000000; stroke-width:39.3701; stroke-opacity:1; 
stroke-linecap:round; stroke-linejoin:round;">
</g>
<g style="fill:#000000; fill-opacity:0.0; 
stroke:#000000; stroke-width:59.0551; stroke-opacity:1; 
stroke-linecap:round; stroke-linejoin:round;">
<path d="M14169 78580
L13877 78580
" />
<path d="M14023 78580
L14023 78069
L13974 78142
L13925 78190
L13877 78215
" />
</g>
<g style="fill:#000000; fill-opacity:0.0; 
stroke:#000000; stroke-width:39.3701; stroke-opacity:1; 
stroke-linecap:round; stroke-linejoin:round;">
</g>
<g style="fill:#000000; fill-opacity:0.0; 
stroke:#000000; stroke-width:59.0551; stroke-opacity:1; 
stroke-linecap:round; stroke-linejoin:round;">
<path d="M33562 78117
L33586 78093
L33635 78069
L33757 78069
L33805 78093
L33830 78117
L33854 78166
L33854 78215
L33830 78288
L33537 78580
L33854 78580
" />
</g>
<g style="fill:#000000; fill-opacity:0.0; 
stroke:#000000; stroke-width:39.3701; stroke-opacity:1; 
stroke-linecap:round; stroke-linejoin:round;">
</g>
<g style="fill:#000000; fill-opacity:0.0; 
stroke:#000000; stroke-width:59.0551; stroke-opacity:1; 
stroke-linecap:round; stroke-linejoin:round;">
<path d="M53222 78069
L53539 78069
L53368 78263
L53442 78263
L53490 78288
L53515 78312
L53539 78361
L53539 78483
L53515 78532
L53490 78556
L53442 78580
L53295 78580
L53247 78556
L53222 78532
" />
</g>
<g style="fill:#000000; fill-opacity:0.0; 
stroke:#000000; stroke-width:39.3701; stroke-opacity:1; 
stroke-linecap:round; stroke-linejoin:round;">
</g>
<g style="fill:#000000; fill-opacity:0.0; 
stroke:#000000; stroke-width:59.0551; stroke-opacity:1; 
stroke-linecap:round; stroke-linejoin:round;">
<path d="M73175 78239
L73175 78580
" />
<path d="M73053 78044
L72932 78410
L73248 78410
" />
</g>
<g style="fill:#000000; fill-opacity:0.0; 
stroke:#000000; stroke-width:39.3701; stroke-opacity:1; 
stroke-linecap:round; stroke-linejoin:round;">
</g>
<g style="fill:#000000; fill-opacity:0.0; 
stroke:#000000; stroke-width:59.0551; stroke-opacity:1; 
stroke-linecap:round; stroke-linejoin:round;">
<path d="M92885 78069
L92641 78069
L92617 78312
L92641 78288
L92690 78263
L92812 78263
L92860 78288
L92885 78312
L92909 78361
L92909 78483
L92885 78532
L92860 78556
L92812 78580
L92690 78580
L92641 78556
L92617 78532
" />
</g>
<g style="fill:#000000; fill-opacity:0.0; 
stroke:#000000; stroke-width:39.3701; stroke-opacity:1; 
stroke-linecap:round; stroke-linejoin:round;">
</g>
<g style="fill:#000000; fill-opacity:0.0; 
stroke:#000000; stroke-width:59.0551; stroke-opacity:1; 
stroke-linecap:round; stroke-linejoin:round;">
<path d="M112545 78069
L112448 78069
L112399 78093
L112375 78117
L112326 78190
L112302 78288
L112302 78483
L112326 78532
L112350 78556
L112399 78580
L112497 78580
L112545 78556
L112570 78532
L112594 78483
L112594 78361
L112570 78312
L112545 78288
L112497 78263
L112399 78263
L112350 78288
L112326 78312
L112302 78361
" />
</g>
<g style="fill:#000000; fill-opacity:0.0; 
stroke:#000000; stroke-width:39.3701; stroke-opacity:1; 
stroke-linecap:round; stroke-linejoin:round;">
</g>
<g style="fill:#000000; fill-opacity:0.0; 
stroke:#000000; stroke-width:59.0551; stroke-opacity:1; 
stroke-linecap:round; stroke-linejoin:round;">
<path d="M3937 23622
L4724 23622
" />
</g>
<g style="fill:#000000; fill-opacity:0.0; 
stroke:#000000; stroke-width:39.3701; stroke-opacity:1; 
stroke-linecap:round; stroke-linejoin:round;">
</g>
<g style="fill:#000000; fill-opacity:0.0; 
stroke:#000000; stroke-width:59.0551; stroke-opacity:1; 
stroke-linecap:round; stroke-linejoin:round;">
<path d="M3937 43307
L4724 43307
" />
</g>
<g style="fill:#000000; fill-opacity:0.0; 
stroke:#000000; stroke-width:39.3701; stroke-opacity:1; 
stroke-linecap:round; stroke-linejoin:round;">
</g>
<g style="fill:#000000; fill-opacity:0.0; 
stroke:#000000; stroke-width:59.0551; stroke-opacity:1; 
stroke-linecap:round; stroke-linejoin:round;">
<path d="M3937 62992
L4724 62992
" />
</g>
<g style="fill:#000000; fill-opacity:0.0; 
stroke:#000000; stroke-width:39.3701; stroke-opacity:1; 
stroke-linecap:round; stroke-linejoin:round;">
</g>
<g style="fill:#000000; fill-opacity:0.0; 
stroke:#000000; stroke-width:59.0551; stroke-opacity:1; 
stroke-linecap:round; stroke-linejoin:round;">
<path d="M4208 13864
L4452 13864
" />
<path d="M4160 14011
L4330 13499
L4501 14011
" />
</g>
<g style="fill:#000000; fill-opacity:0.0; 
stroke:#000000; stroke-width:39.3701; stroke-opacity:1; 
stroke-linecap:round; stroke-linejoin:round;">
</g>
<g style="fill:#000000; fill-opacity:0.0; 
stroke:#000000; stroke-width:59.0551; stroke-opacity:1; 
stroke-linecap:round; stroke-linejoin:round;">
<path d="M4367 33428
L4440 33452
L4464 33476
L4489 33525
L4489 33598
L4464 33647
L4440 33671
L4391 33696
L4196 33696
L4196 33184
L4367 33184
L4416 33208
L4440 33233
L4464 33281
L4464 33330
L4440 33379
L4416 33403
L4367 33428
L4196 33428
" />
</g>
<g style="fill:#000000; fill-opacity:0.0; 
stroke:#000000; stroke-width:39.3701; stroke-opacity:1; 
stroke-linecap:round; stroke-linejoin:round;">
</g>
<g style="fill:#000000; fill-opacity:0.0; 
stroke:#000000; stroke-width:59.0551; stroke-opacity:1; 
stroke-linecap:round; stroke-linejoin:round;">
<path d="M4489 53332
L4464 53356
L4391 53381
L4342 53381
L4269 53356
L4221 53308
L4196 53259
L4172 53161
L4172 53088
L4196 52991
L4221 52942
L4269 52893
L4342 52869
L4391 52869
L4464 52893
L4489 52918
" />
</g>
<g style="fill:#000000; fill-opacity:0.0; 
stroke:#000000; stroke-width:39.3701; stroke-opacity:1; 
stroke-linecap:round; stroke-linejoin:round;">
</g>
<g style="fill:#000000; fill-opacity:0.0; 
stroke:#000000; stroke-width:59.0551; stroke-opacity:1; 
stroke-linecap:round; stroke-linejoin:round;">
<path d="M4196 73066
L4196 72554
L4318 72554
L4391 72578
L4440 72627
L4464 72676
L4489 72773
L4489 72846
L4464 72944
L4440 72993
L4391 73041
L4318 73066
L4196 73066
" />
</g>
<g style="fill:#000000; fill-opacity:0.0; 
stroke:#000000; stroke-width:39.3701; stroke-opacity:1; 
stroke-linecap:round; stroke-linejoin:round;">
</g>
<g style="fill:#000000; fill-opacity:0.0; 
stroke:#000000; stroke-width:59.0551; stroke-opacity:1; 
stroke-linecap:round; stroke-linejoin:round;">
<path d="M112992 23622
L112205 23622
" />
</g>
<g style="fill:#000000; fill-opacity:0.0; 
stroke:#000000; stroke-width:39.3701; stroke-opacity:1; 
stroke-linecap:round; stroke-linejoin:round;">
</g>
<g style="fill:#000000; fill-opacity:0.0; 
stroke:#000000; stroke-width:59.0551; stroke-opacity:1; 
stroke-linecap:round; stroke-linejoin:round;">
<path d="M112992 43307
L112205 43307
" />
</g>
<g style="fill:#000000; fill-opacity:0.0; 
stroke:#000000; stroke-width:39.3701; stroke-opacity:1; 
stroke-linecap:round; stroke-linejoin:round;">
</g>
<g style="fill:#000000; fill-opacity:0.0; 
stroke:#000000; stroke-width:59.0551; stroke-opacity:1; 
stroke-linecap:round; stroke-linejoin:round;">
<path d="M112992 62992
L112205 62992
" />
</g>
<g style="fill:#000000; fill-opacity:0.0; 
stroke:#000000; stroke-width:39.3701; stroke-opacity:1; 
stroke-linecap:round; stroke-linejoin:round;">
</g>
<g style="fill:#000000; fill-opacity:0.0; 
stroke:#000000; stroke-width:59.0551; stroke-opacity:1; 
stroke-linecap:round; stroke-linejoin:round;">
<path d="M112477 13864
L112721 13864
" />
<path d="M112428 14011
L112599 13499
L112769 14011
" />
</g>
<g style="fill:#000000; fill-opacity:0.0; 
stroke:#000000; stroke-width:39.3701; stroke-opacity:1; 
stroke-linecap:round; stroke-linejoin:round;">
</g>
<g style="fill:#000000; fill-opacity:0.0; 
stroke:#000000; stroke-width:59.0551; stroke-opacity:1; 
stroke-linecap:round; stroke-linejoin:round;">
<path d="M112635 33428
L112708 33452
L112733 33476
L112757 33525
L112757 33598
L112733 33647
L112708 33671
L112660 33696
L112465 33696
L112465 33184
L112635 33184
L112684 33208
L112708 33233
L112733 33281
L112733 33330
L112708 33379
L112684 33403
L112635 33428
L112465 33428
" />
</g>
<g style="fill:#000000; fill-opacity:0.0; 
stroke:#000000; stroke-width:39.3701; stroke-opacity:1; 
stroke-linecap:round; stroke-linejoin:round;">
</g>
<g style="fill:#000000; fill-opacity:0.0; 
stroke:#000000; stroke-width:59.0551; stroke-opacity:1; 
stroke-linecap:round; stroke-linejoin:round;">
<path d="M112757 53332
L112733 53356
L112660 53381
L112611 53381
L112538 53356
L112489 53308
L112465 53259
L112440 53161
L112440 53088
L112465 52991
L112489 52942
L112538 52893
L112611 52869
L112660 52869
L112733 52893
L112757 52918
" />
</g>
<g style="fill:#000000; fill-opacity:0.0; 
stroke:#000000; stroke-width:39.3701; stroke-opacity:1; 
stroke-linecap:round; stroke-linejoin:round;">
</g>
<g style="fill:#000000; fill-opacity:0.0; 
stroke:#000000; stroke-width:59.0551; stroke-opacity:1; 
stroke-linecap:round; stroke-linejoin:round;">
<path d="M112465 73066
L112465 72554
L112587 72554
L112660 72578
L112708 72627
L112733 72676
L112757 72773
L112757 72846
L112733 72944
L112708 72993
L112660 73041
L112587 73066
L112465 73066
" />
</g>
<g style="fill:#000000; fill-opacity:0.0; 
stroke:#000000; stroke-width:39.3701; stroke-opacity:1; 
stroke-linecap:round; stroke-linejoin:round;">
</g>
<g style="fill:#000000; fill-opacity:0.0; 
stroke:#000000; stroke-width:59.0551; stroke-opacity:1; 
stroke-linecap:round; stroke-linejoin:round;">
<path d="M78881 76293
L78881 75703
L79022 75703
L79106 75731
L79162 75787
L79190 75843
L79219 75956
L79219 76040
L79190 76153
L79162 76209
L79106 76265
L79022 76293
L78881 76293
" />
<path d="M79725 76293
L79725 75984
L79697 75928
L79640 75899
L79528 75899
L79472 75928
" />
<path d="M79725 76265
L79669 76293
L79528 76293
L79472 76265
L79444 76209
L79444 76153
L79472 76096
L79528 76068
L79669 76068
L79725 76040
" />
<path d="M79922 75899
L80147 75899
" />
<path d="M80006 75703
L80006 76209
L80034 76265
L80090 76293
L80147 76293
" />
<path d="M80568 76265
L80512 76293
L80400 76293
L80343 76265
L80315 76209
L80315 75984
L80343 75928
L80400 75899
L80512 75899
L80568 75928
L80597 75984
L80597 76040
L80315 76096
" />
<path d="M80850 76237
L80878 76265
L80850 76293
L80822 76265
L80850 76237
L80850 76293
" />
<path d="M80850 75928
L80878 75956
L80850 75984
L80822 75956
L80850 75928
L80850 75984
" />
<path d="M81553 75759
L81581 75731
L81637 75703
L81778 75703
L81834 75731
L81862 75759
L81890 75815
L81890 75871
L81862 75956
L81525 76293
L81890 76293
" />
<path d="M82256 75703
L82312 75703
L82368 75731
L82396 75759
L82424 75815
L82453 75928
L82453 76068
L82424 76181
L82396 76237
L82368 76265
L82312 76293
L82256 76293
L82199 76265
L82171 76237
L82143 76181
L82115 76068
L82115 75928
L82143 75815
L82171 75759
L82199 75731
L82256 75703
" />
<path d="M83015 76293
L82678 76293
" />
<path d="M82846 76293
L82846 75703
L82790 75787
L82734 75843
L82678 75871
" />
<path d="M83212 75703
L83606 75703
L83352 76293
" />
<path d="M83831 76068
L84280 76068
" />
<path d="M84674 75703
L84730 75703
L84787 75731
L84815 75759
L84843 75815
L84871 75928
L84871 76068
L84843 76181
L84815 76237
L84787 76265
L84730 76293
L84674 76293
L84618 76265
L84590 76237
L84562 76181
L84534 76068
L84534 75928
L84562 75815
L84590 75759
L84618 75731
L84674 75703
" />
<path d="M85068 75703
L85433 75703
L85237 75928
L85321 75928
L85377 75956
L85405 75984
L85433 76040
L85433 76181
L85405 76237
L85377 76265
L85321 76293
L85152 76293
L85096 76265
L85068 76237
" />
<path d="M85687 76068
L86136 76068
" />
<path d="M86361 75703
L86727 75703
L86530 75928
L86615 75928
L86671 75956
L86699 75984
L86727 76040
L86727 76181
L86699 76237
L86671 76265
L86615 76293
L86446 76293
L86390 76265
L86361 76237
" />
<path d="M87093 75703
L87149 75703
L87205 75731
L87233 75759
L87261 75815
L87289 75928
L87289 76068
L87261 76181
L87233 76237
L87205 76265
L87149 76293
L87093 76293
L87036 76265
L87008 76237
L86980 76181
L86952 76068
L86952 75928
L86980 75815
L87008 75759
L87036 75731
L87093 75703
" />
</g>
<g style="fill:#000000; fill-opacity:0.0; 
stroke:#000000; stroke-width:39.3701; stroke-opacity:1; 
stroke-linecap:round; stroke-linejoin:round;">
</g>
<g style="fill:#000000; fill-opacity:0.0; 
stroke:#000000; stroke-width:59.0551; stroke-opacity:1; 
stroke-linecap:round; stroke-linejoin:round;">
<path d="M69685 76577
L112205 76577
" />
</g>
<g style="fill:#000000; fill-opacity:0.0; 
stroke:#000000; stroke-width:39.3701; stroke-opacity:1; 
stroke-linecap:round; stroke-linejoin:round;">
</g>
<g style="fill:#000000; fill-opacity:0.0; 
stroke:#000000; stroke-width:59.0551; stroke-opacity:1; 
stroke-linecap:round; stroke-linejoin:round;">
<path d="M70220 77395
L70220 76805
" />
<path d="M70557 77395
L70304 77058
" />
<path d="M70557 76805
L70220 77142
" />
<path d="M70810 77395
L70810 77002
" />
<path d="M70810 76805
L70782 76833
L70810 76861
L70838 76833
L70810 76805
L70810 76861
" />
<path d="M71429 77339
L71401 77367
L71316 77395
L71260 77395
L71176 77367
L71120 77311
L71091 77255
L71063 77142
L71063 77058
L71091 76946
L71120 76889
L71176 76833
L71260 76805
L71316 76805
L71401 76833
L71429 76861
" />
<path d="M71935 77395
L71935 77086
L71907 77030
L71851 77002
L71738 77002
L71682 77030
" />
<path d="M71935 77367
L71879 77395
L71738 77395
L71682 77367
L71654 77311
L71654 77255
L71682 77199
L71738 77171
L71879 77171
L71935 77142
" />
<path d="M72469 77395
L72469 76805
" />
<path d="M72469 77367
L72413 77395
L72301 77395
L72244 77367
L72216 77339
L72188 77283
L72188 77114
L72216 77058
L72244 77030
L72301 77002
L72413 77002
L72469 77030
" />
<path d="M73201 77086
L73397 77086
" />
<path d="M73482 77395
L73201 77395
L73201 76805
L73482 76805
" />
<path d="M73735 77339
L73763 77367
L73735 77395
L73707 77367
L73735 77339
L73735 77395
" />
<path d="M74016 77395
L74016 76805
L74157 76805
L74241 76833
L74297 76889
L74325 76946
L74354 77058
L74354 77142
L74325 77255
L74297 77311
L74241 77367
L74157 77395
L74016 77395
" />
<path d="M74607 77339
L74635 77367
L74607 77395
L74579 77367
L74607 77339
L74607 77395
" />
<path d="M74860 77227
L75141 77227
" />
<path d="M74804 77395
L75000 76805
L75197 77395
" />
<path d="M75394 77339
L75422 77367
L75394 77395
L75366 77367
L75394 77339
L75394 77395
" />
<path d="M76575 77395
L76575 76805
" />
<path d="M76631 77171
L76800 77395
" />
<path d="M76800 77002
L76575 77227
" />
<path d="M77053 77395
L77053 77002
" />
<path d="M77053 76805
L77025 76833
L77053 76861
L77081 76833
L77053 76805
L77053 76861
" />
<path d="M77588 77367
L77531 77395
L77419 77395
L77363 77367
L77334 77339
L77306 77283
L77306 77114
L77334 77058
L77363 77030
L77419 77002
L77531 77002
L77588 77030
" />
<path d="M78094 77395
L78094 77086
L78066 77030
L78009 77002
L77897 77002
L77841 77030
" />
<path d="M78094 77367
L78037 77395
L77897 77395
L77841 77367
L77813 77311
L77813 77255
L77841 77199
L77897 77171
L78037 77171
L78094 77142
" />
<path d="M78628 77395
L78628 76805
" />
<path d="M78628 77367
L78572 77395
L78459 77395
L78403 77367
L78375 77339
L78347 77283
L78347 77114
L78375 77058
L78403 77030
L78459 77002
L78572 77002
L78628 77030
" />
<path d="M79612 77002
L79612 77395
" />
<path d="M79472 76777
L79331 77199
L79697 77199
" />
<path d="M79922 77339
L79950 77367
L79922 77395
L79894 77367
L79922 77339
L79922 77395
" />
<path d="M80315 76805
L80372 76805
L80428 76833
L80456 76861
L80484 76917
L80512 77030
L80512 77171
L80484 77283
L80456 77339
L80428 77367
L80372 77395
L80315 77395
L80259 77367
L80231 77339
L80203 77283
L80175 77171
L80175 77030
L80203 76917
L80231 76861
L80259 76833
L80315 76805
" />
<path d="M80765 77339
L80793 77367
L80765 77395
L80737 77367
L80765 77339
L80765 77395
" />
<path d="M81300 76805
L81187 76805
L81131 76833
L81103 76861
L81046 76946
L81018 77058
L81018 77283
L81046 77339
L81075 77367
L81131 77395
L81243 77395
L81300 77367
L81328 77339
L81356 77283
L81356 77142
L81328 77086
L81300 77058
L81243 77030
L81131 77030
L81075 77058
L81046 77086
L81018 77142
" />
</g>
<g style="fill:#000000; fill-opacity:0.0; 
stroke:#000000; stroke-width:39.3701; stroke-opacity:1; 
stroke-linecap:round; stroke-linejoin:round;">
</g>
<g style="fill:#000000; fill-opacity:0.0; 
stroke:#000000; stroke-width:59.0551; stroke-opacity:1; 
stroke-linecap:round; stroke-linejoin:round;">
<path d="M69685 75396
L112205 75396
" />
</g>
<g style="fill:#000000; fill-opacity:0.0; 
stroke:#000000; stroke-width:39.3701; stroke-opacity:1; 
stroke-linecap:round; stroke-linejoin:round;">
</g>
<g style="fill:#000000; fill-opacity:0.0; 
stroke:#000000; stroke-width:118.11; stroke-opacity:1; 
stroke-linecap:round; stroke-linejoin:round;">
<path d="M104022 76293
L103825 76012
" />
<path d="M103684 76293
L103684 75703
L103909 75703
L103965 75731
L103994 75759
L104022 75815
L104022 75899
L103994 75956
L103965 75984
L103909 76012
L103684 76012
" />
<path d="M104500 76265
L104444 76293
L104331 76293
L104275 76265
L104247 76209
L104247 75984
L104275 75928
L104331 75899
L104444 75899
L104500 75928
L104528 75984
L104528 76040
L104247 76096
" />
<path d="M104725 75899
L104865 76293
L105006 75899
" />
<path d="M105231 76237
L105259 76265
L105231 76293
L105203 76265
L105231 76237
L105231 76293
" />
<path d="M105231 75928
L105259 75956
L105231 75984
L105203 75956
L105231 75928
L105231 75984
" />
<path d="M106271 76293
L105934 76293
" />
<path d="M106103 76293
L106103 75703
L106046 75787
L105990 75843
L105934 75871
" />
<path d="M106525 76237
L106553 76265
L106525 76293
L106496 76265
L106525 76237
L106525 76293
" />
<path d="M106918 75703
L106974 75703
L107031 75731
L107059 75759
L107087 75815
L107115 75928
L107115 76068
L107087 76181
L107059 76237
L107031 76265
L106974 76293
L106918 76293
L106862 76265
L106834 76237
L106806 76181
L106778 76068
L106778 75928
L106806 75815
L106834 75759
L106862 75731
L106918 75703
" />
</g>
<g style="fill:#000000; fill-opacity:0.0; 
stroke:#000000; stroke-width:39.3701; stroke-opacity:1; 
stroke-linecap:round; stroke-linejoin:round;">
</g>
<g style="fill:#000000; fill-opacity:0.0; 
stroke:#000000; stroke-width:59.0551; stroke-opacity:1; 
stroke-linecap:round; stroke-linejoin:round;">
<path d="M70192 76265
L70276 76293
L70417 76293
L70473 76265
L70501 76237
L70529 76181
L70529 76124
L70501 76068
L70473 76040
L70417 76012
L70304 75984
L70248 75956
L70220 75928
L70192 75871
L70192 75815
L70220 75759
L70248 75731
L70304 75703
L70445 75703
L70529 75731
" />
<path d="M70782 76293
L70782 75899
" />
<path d="M70782 75703
L70754 75731
L70782 75759
L70810 75731
L70782 75703
L70782 75759
" />
<path d="M71007 75899
L71316 75899
L71007 76293
L71316 76293
" />
<path d="M71766 76265
L71710 76293
L71598 76293
L71541 76265
L71513 76209
L71513 75984
L71541 75928
L71598 75899
L71710 75899
L71766 75928
L71795 75984
L71795 76040
L71513 76096
" />
<path d="M72048 76237
L72076 76265
L72048 76293
L72019 76265
L72048 76237
L72048 76293
" />
<path d="M72048 75928
L72076 75956
L72048 75984
L72019 75956
L72048 75928
L72048 75984
" />
<path d="M72751 76124
L73032 76124
" />
<path d="M72694 76293
L72891 75703
L73088 76293
" />
<path d="M73538 75899
L73538 76293
" />
<path d="M73397 75674
L73257 76096
L73622 76096
" />
</g>
<g style="fill:#000000; fill-opacity:0.0; 
stroke:#000000; stroke-width:39.3701; stroke-opacity:1; 
stroke-linecap:round; stroke-linejoin:round;">
</g>
<g style="fill:#000000; fill-opacity:0.0; 
stroke:#000000; stroke-width:59.0551; stroke-opacity:1; 
stroke-linecap:round; stroke-linejoin:round;">
<path d="M103684 77395
L103684 76805
" />
<path d="M104219 77395
L104219 76805
" />
<path d="M104219 77367
L104162 77395
L104050 77395
L103994 77367
L103965 77339
L103937 77283
L103937 77114
L103965 77058
L103994 77030
L104050 77002
L104162 77002
L104219 77030
" />
<path d="M104500 77339
L104528 77367
L104500 77395
L104472 77367
L104500 77339
L104500 77395
" />
<path d="M104500 77030
L104528 77058
L104500 77086
L104472 77058
L104500 77030
L104500 77086
" />
<path d="M105540 77395
L105203 77395
" />
<path d="M105372 77395
L105372 76805
L105315 76889
L105259 76946
L105203 76974
" />
<path d="M106215 76777
L105709 77536
" />
<path d="M106721 77395
L106384 77395
" />
<path d="M106553 77395
L106553 76805
L106496 76889
L106440 76946
L106384 76974
" />
</g>
<g style="fill:#000000; fill-opacity:0.0; 
stroke:#000000; stroke-width:39.3701; stroke-opacity:1; 
stroke-linecap:round; stroke-linejoin:round;">
</g>
<g style="fill:#000000; fill-opacity:0.0; 
stroke:#000000; stroke-width:59.0551; stroke-opacity:1; 
stroke-linecap:round; stroke-linejoin:round;">
<path d="M69685 73821
L112205 73821
" />
</g>
<g style="fill:#000000; fill-opacity:0.0; 
stroke:#000000; stroke-width:39.3701; stroke-opacity:1; 
stroke-linecap:round; stroke-linejoin:round;">
</g>
<g style="fill:#000000; fill-opacity:0.0; 
stroke:#000000; stroke-width:157.48; stroke-opacity:1; 
stroke-linecap:round; stroke-linejoin:round;">
<path d="M70257 74099
L70707 74099
" />
<path d="M70384 74886
L70482 74099
" />
<path d="M70871 74886
L70937 74361
" />
<path d="M70970 74099
L70927 74136
L70960 74174
L71002 74136
L70970 74099
L70960 74174
" />
<path d="M71199 74361
L71499 74361
" />
<path d="M71345 74099
L71260 74774
L71288 74849
L71359 74886
L71434 74886
" />
<path d="M71809 74886
L71738 74849
L71710 74774
L71795 74099
" />
<path d="M72413 74849
L72334 74886
L72184 74886
L72113 74849
L72085 74774
L72123 74474
L72169 74399
L72249 74361
L72399 74361
L72469 74399
L72498 74474
L72488 74549
L72104 74624
" />
<path d="M72793 74811
L72826 74849
L72783 74886
L72751 74849
L72793 74811
L72783 74886
" />
<path d="M72844 74399
L72877 74436
L72835 74474
L72802 74436
L72844 74399
L72835 74474
" />
<path d="M74133 74886
L73758 74886
L73857 74099
" />
<path d="M74508 74886
L74438 74849
L74405 74811
L74377 74736
L74405 74511
L74452 74436
L74494 74399
L74574 74361
L74686 74361
L74757 74399
L74789 74436
L74818 74511
L74789 74736
L74743 74811
L74700 74849
L74621 74886
L74508 74886
" />
<path d="M75450 74849
L75371 74886
L75221 74886
L75150 74849
L75118 74811
L75089 74736
L75118 74511
L75164 74436
L75207 74399
L75286 74361
L75436 74361
L75507 74399
" />
<path d="M75896 74886
L75825 74849
L75792 74811
L75764 74736
L75792 74511
L75839 74436
L75882 74399
L75961 74361
L76074 74361
L76144 74399
L76177 74436
L76205 74511
L76177 74736
L76130 74811
L76088 74849
L76008 74886
L75896 74886
" />
<path d="M76495 74886
L76561 74361
" />
<path d="M76552 74436
L76594 74399
L76674 74361
L76786 74361
L76856 74399
L76885 74474
L76833 74886
" />
<path d="M76885 74474
L76931 74399
L77011 74361
L77124 74361
L77194 74399
L77222 74474
L77170 74886
" />
<path d="M77658 74886
L77588 74849
L77555 74811
L77527 74736
L77555 74511
L77602 74436
L77644 74399
L77723 74361
L77836 74361
L77906 74399
L77939 74436
L77967 74511
L77939 74736
L77892 74811
L77850 74849
L77770 74886
L77658 74886
" />
<path d="M78211 74361
L78511 74361
" />
<path d="M78356 74099
L78272 74774
L78300 74849
L78370 74886
L78445 74886
" />
<path d="M78708 74886
L78773 74361
" />
<path d="M78806 74099
L78764 74136
L78797 74174
L78839 74136
L78806 74099
L78797 74174
" />
<path d="M79073 74361
L79195 74886
L79448 74361
" />
<path d="M79987 74849
L79908 74886
L79758 74886
L79687 74849
L79659 74774
L79697 74474
L79744 74399
L79823 74361
L79973 74361
L80043 74399
L80072 74474
L80062 74549
L79678 74624
" />
</g>
<g style="fill:#000000; fill-opacity:0.0; 
stroke:#000000; stroke-width:39.3701; stroke-opacity:1; 
stroke-linecap:round; stroke-linejoin:round;">
</g>
<g style="fill:#000000; fill-opacity:0.0; 
stroke:#000000; stroke-width:59.0551; stroke-opacity:1; 
stroke-linecap:round; stroke-linejoin:round;">
<path d="M70417 73070
L70220 73070
" />
<path d="M70220 73380
L70220 72789
L70501 72789
" />
<path d="M70726 73380
L70726 72986
" />
<path d="M70726 72789
L70698 72817
L70726 72845
L70754 72817
L70726 72789
L70726 72845
" />
<path d="M71091 73380
L71035 73352
L71007 73295
L71007 72789
" />
<path d="M71541 73352
L71485 73380
L71373 73380
L71316 73352
L71288 73295
L71288 73070
L71316 73014
L71373 72986
L71485 72986
L71541 73014
L71570 73070
L71570 73127
L71288 73183
" />
<path d="M71823 73323
L71851 73352
L71823 73380
L71795 73352
L71823 73323
L71823 73380
" />
<path d="M71823 73014
L71851 73042
L71823 73070
L71795 73042
L71823 73014
L71823 73070
" />
<path d="M72638 73380
L72582 73352
L72554 73295
L72554 72789
" />
<path d="M72947 73380
L72891 73352
L72863 73323
L72835 73267
L72835 73099
L72863 73042
L72891 73014
L72947 72986
L73032 72986
L73088 73014
L73116 73042
L73144 73099
L73144 73267
L73116 73323
L73088 73352
L73032 73380
L72947 73380
" />
<path d="M73651 73352
L73594 73380
L73482 73380
L73426 73352
L73397 73323
L73369 73267
L73369 73099
L73397 73042
L73426 73014
L73482 72986
L73594 72986
L73651 73014
" />
<path d="M73988 73380
L73932 73352
L73904 73323
L73876 73267
L73876 73099
L73904 73042
L73932 73014
L73988 72986
L74072 72986
L74129 73014
L74157 73042
L74185 73099
L74185 73267
L74157 73323
L74129 73352
L74072 73380
L73988 73380
" />
<path d="M74438 73380
L74438 72986
" />
<path d="M74438 73042
L74466 73014
L74522 72986
L74607 72986
L74663 73014
L74691 73070
L74691 73380
" />
<path d="M74691 73070
L74719 73014
L74775 72986
L74860 72986
L74916 73014
L74944 73070
L74944 73380
" />
<path d="M75310 73380
L75253 73352
L75225 73323
L75197 73267
L75197 73099
L75225 73042
L75253 73014
L75310 72986
L75394 72986
L75450 73014
L75478 73042
L75507 73099
L75507 73267
L75478 73323
L75450 73352
L75394 73380
L75310 73380
" />
<path d="M75675 72986
L75900 72986
" />
<path d="M75760 72789
L75760 73295
L75788 73352
L75844 73380
L75900 73380
" />
<path d="M76097 73380
L76097 72986
" />
<path d="M76097 72789
L76069 72817
L76097 72845
L76125 72817
L76097 72789
L76097 72845
" />
<path d="M76322 72986
L76463 73380
L76603 72986
" />
<path d="M77053 73352
L76997 73380
L76885 73380
L76828 73352
L76800 73295
L76800 73070
L76828 73014
L76885 72986
L76997 72986
L77053 73014
L77081 73070
L77081 73127
L76800 73183
" />
<path d="M77334 73323
L77363 73352
L77334 73380
L77306 73352
L77334 73323
L77334 73380
" />
<path d="M77616 73380
L77616 72789
" />
<path d="M77672 73155
L77841 73380
" />
<path d="M77841 72986
L77616 73211
" />
<path d="M78094 73380
L78094 72986
" />
<path d="M78094 72789
L78066 72817
L78094 72845
L78122 72817
L78094 72789
L78094 72845
" />
<path d="M78628 73352
L78572 73380
L78459 73380
L78403 73352
L78375 73323
L78347 73267
L78347 73099
L78375 73042
L78403 73014
L78459 72986
L78572 72986
L78628 73014
" />
<path d="M79134 73380
L79134 73070
L79106 73014
L79050 72986
L78937 72986
L78881 73014
" />
<path d="M79134 73352
L79078 73380
L78937 73380
L78881 73352
L78853 73295
L78853 73239
L78881 73183
L78937 73155
L79078 73155
L79134 73127
" />
<path d="M79669 73380
L79669 72789
" />
<path d="M79669 73352
L79612 73380
L79500 73380
L79444 73352
L79415 73323
L79387 73267
L79387 73099
L79415 73042
L79444 73014
L79500 72986
L79612 72986
L79669 73014
" />
<path d="M79809 73436
L80259 73436
" />
<path d="M80400 72986
L80400 73577
" />
<path d="M80400 73014
L80456 72986
L80568 72986
L80625 73014
L80653 73042
L80681 73099
L80681 73267
L80653 73323
L80625 73352
L80568 73380
L80456 73380
L80400 73352
" />
<path d="M81187 73352
L81131 73380
L81018 73380
L80962 73352
L80934 73323
L80906 73267
L80906 73099
L80934 73042
L80962 73014
L81018 72986
L81131 72986
L81187 73014
" />
<path d="M81440 73380
L81440 72789
" />
<path d="M81440 73014
L81496 72986
L81609 72986
L81665 73014
L81693 73042
L81721 73099
L81721 73267
L81693 73323
L81665 73352
L81609 73380
L81496 73380
L81440 73352
" />
</g>
<g style="fill:#000000; fill-opacity:0.0; 
stroke:#000000; stroke-width:39.3701; stroke-opacity:1; 
stroke-linecap:round; stroke-linejoin:round;">
</g>
<g style="fill:#000000; fill-opacity:0.0; 
stroke:#000000; stroke-width:59.0551; stroke-opacity:1; 
stroke-linecap:round; stroke-linejoin:round;">
<path d="M69685 71459
L112205 71459
" />
</g>
<g style="fill:#000000; fill-opacity:0.0; 
stroke:#000000; stroke-width:39.3701; stroke-opacity:1; 
stroke-linecap:round; stroke-linejoin:round;">
</g>
<g style="fill:#000000; fill-opacity:0.0; 
stroke:#000000; stroke-width:59.0551; stroke-opacity:1; 
stroke-linecap:round; stroke-linejoin:round;">
<path d="M70192 72289
L70276 72317
L70417 72317
L70473 72289
L70501 72260
L70529 72204
L70529 72148
L70501 72092
L70473 72064
L70417 72036
L70304 72007
L70248 71979
L70220 71951
L70192 71895
L70192 71839
L70220 71782
L70248 71754
L70304 71726
L70445 71726
L70529 71754
" />
<path d="M70782 72317
L70782 71726
" />
<path d="M71035 72317
L71035 72007
L71007 71951
L70951 71923
L70867 71923
L70810 71951
L70782 71979
" />
<path d="M71541 72289
L71485 72317
L71373 72317
L71316 72289
L71288 72232
L71288 72007
L71316 71951
L71373 71923
L71485 71923
L71541 71951
L71570 72007
L71570 72064
L71288 72120
" />
<path d="M72048 72289
L71991 72317
L71879 72317
L71823 72289
L71795 72232
L71795 72007
L71823 71951
L71879 71923
L71991 71923
L72048 71951
L72076 72007
L72076 72064
L71795 72120
" />
<path d="M72244 71923
L72469 71923
" />
<path d="M72329 71726
L72329 72232
L72357 72289
L72413 72317
L72469 72317
" />
<path d="M72666 72260
L72694 72289
L72666 72317
L72638 72289
L72666 72260
L72666 72317
" />
<path d="M72666 71951
L72694 71979
L72666 72007
L72638 71979
L72666 71951
L72666 72007
" />
</g>
<g style="fill:#000000; fill-opacity:0.0; 
stroke:#000000; stroke-width:39.3701; stroke-opacity:1; 
stroke-linecap:round; stroke-linejoin:round;">
</g>
<g style="fill:#000000; fill-opacity:0.0; 
stroke:#000000; stroke-width:118.11; stroke-opacity:1; 
stroke-linecap:round; stroke-linejoin:round;">
<path d="M70220 70826
L70417 70826
" />
<path d="M70501 71136
L70220 71136
L70220 70545
L70501 70545
" />
<path d="M71091 71079
L71063 71108
L70979 71136
L70923 71136
L70838 71108
L70782 71051
L70754 70995
L70726 70883
L70726 70798
L70754 70686
L70782 70629
L70838 70573
L70923 70545
L70979 70545
L71063 70573
L71091 70601
" />
<path d="M71345 70826
L71541 70826
" />
<path d="M71626 71136
L71345 71136
L71345 70545
L71626 70545
" />
<path d="M72582 70742
L72582 71136
" />
<path d="M72441 70517
L72301 70939
L72666 70939
" />
<path d="M73144 70742
L73144 71136
" />
<path d="M73004 70517
L72863 70939
L73229 70939
" />
<path d="M73735 70545
L73454 70545
L73426 70826
L73454 70798
L73510 70770
L73651 70770
L73707 70798
L73735 70826
L73763 70883
L73763 71023
L73735 71079
L73707 71108
L73651 71136
L73510 71136
L73454 71108
L73426 71079
" />
</g>
<g style="fill:#000000; fill-opacity:0.0; 
stroke:#000000; stroke-width:39.3701; stroke-opacity:1; 
stroke-linecap:round; stroke-linejoin:round;">
</g>
<g style="fill:#000000; fill-opacity:0.0; 
stroke:#000000; stroke-width:59.0551; stroke-opacity:1; 
stroke-linecap:round; stroke-linejoin:round;">
<path d="M77559 75396
L77559 76577
" />
</g>
<g style="fill:#000000; fill-opacity:0.0; 
stroke:#000000; stroke-width:39.3701; stroke-opacity:1; 
stroke-linecap:round; stroke-linejoin:round;">
</g>
<g style="fill:#000000; fill-opacity:0.0; 
stroke:#000000; stroke-width:59.0551; stroke-opacity:1; 
stroke-linecap:round; stroke-linejoin:round;">
<path d="M102756 75396
L102756 77955
" />
</g>
<g style="fill:#008484; fill-opacity:0.0; 
stroke:#008484; stroke-width:59.0551; stroke-opacity:1; 
stroke-linecap:round; stroke-linejoin:round;">
<path d="M58219 47837
L58219 48090
L58203 48141
L58169 48174
L58118 48191
L58084 48191
" />
<path d="M58371 48174
L58422 48191
L58506 48191
L58540 48174
L58557 48158
L58574 48124
L58574 48090
L58557 48056
L58540 48039
L58506 48023
L58439 48006
L58405 47989
L58388 47972
L58371 47938
L58371 47904
L58388 47871
L58405 47854
L58439 47837
L58523 47837
L58574 47854
" />
<path d="M58675 47837
L58877 47837
" />
<path d="M58776 48191
L58776 47837
" />
<path d="M58996 48056
L59266 48056
" />
<path d="M59620 47854
L59586 47837
L59535 47837
L59485 47854
L59451 47888
L59434 47921
L59417 47989
L59417 48039
L59434 48107
L59451 48141
L59485 48174
L59535 48191
L59569 48191
L59620 48174
L59637 48158
L59637 48039
L59569 48039
" />
<path d="M59789 48191
L59789 47837
" />
<path d="M59789 48006
L59991 48006
" />
<path d="M59991 48191
L59991 47837
" />
<path d="M58219 32089
L58219 32342
L58203 32393
L58169 32426
L58118 32443
L58084 32443
" />
<path d="M58371 32426
L58422 32443
L58506 32443
L58540 32426
L58557 32410
L58574 32376
L58574 32342
L58557 32308
L58540 32291
L58506 32275
L58439 32258
L58405 32241
L58388 32224
L58371 32190
L58371 32156
L58388 32123
L58405 32106
L58439 32089
L58523 32089
L58574 32106
" />
<path d="M58675 32089
L58877 32089
" />
<path d="M58776 32443
L58776 32089
" />
<path d="M58996 32308
L59266 32308
" />
<path d="M59620 32106
L59586 32089
L59535 32089
L59485 32106
L59451 32140
L59434 32173
L59417 32241
L59417 32291
L59434 32359
L59451 32393
L59485 32426
L59535 32443
L59569 32443
L59620 32426
L59637 32410
L59637 32291
L59569 32291
" />
<path d="M59789 32443
L59789 32089
" />
<path d="M59789 32258
L59991 32258
" />
<path d="M59991 32443
L59991 32089
" />
<path d="M61121 49773
L61514 49773
" />
<path d="M61364 49773
L61383 49810
L61383 49885
L61364 49923
L61346 49941
L61308 49960
L61196 49960
L61158 49941
L61139 49923
L61121 49885
L61121 49810
L61139 49773
" />
<path d="M61139 50298
L61121 50260
L61121 50185
L61139 50148
L61158 50129
L61196 50110
L61308 50110
L61346 50129
L61364 50148
L61383 50185
L61383 50260
L61364 50298
" />
<path d="M61121 50635
L61327 50635
L61364 50616
L61383 50579
L61383 50504
L61364 50466
" />
<path d="M61139 50635
L61121 50598
L61121 50504
L61139 50466
L61177 50448
L61214 50448
L61252 50466
L61271 50504
L61271 50598
L61289 50635
" />
<path d="M61383 50823
L61121 50823
" />
<path d="M61346 50823
L61364 50841
L61383 50879
L61383 50935
L61364 50973
L61327 50991
L61121 50991
" />
<path d="M61158 51179
L61139 51197
L61121 51179
L61139 51160
L61158 51179
L61121 51179
" />
<path d="M61121 51366
L61383 51366
" />
<path d="M61514 51366
L61496 51347
L61477 51366
L61496 51385
L61514 51366
L61477 51366
" />
<path d="M61121 51610
L61139 51572
L61158 51554
L61196 51535
L61308 51535
L61346 51554
L61364 51572
L61383 51610
L61383 51666
L61364 51704
L61346 51722
L61308 51741
L61196 51741
L61158 51722
L61139 51704
L61121 51666
L61121 51610
" />
<path d="M57134 42702
L57134 42514
L57528 42514
" />
<path d="M57134 42889
L57153 42852
L57172 42833
L57209 42814
L57322 42814
L57359 42833
L57378 42852
L57397 42889
L57397 42946
L57378 42983
L57359 43002
L57322 43021
L57209 43021
L57172 43002
L57153 42983
L57134 42946
L57134 42889
" />
<path d="M57153 43358
L57134 43321
L57134 43246
L57153 43208
L57172 43189
L57209 43171
L57322 43171
L57359 43189
L57378 43208
L57397 43246
L57397 43321
L57378 43358
" />
<path d="M57134 43583
L57153 43546
L57172 43527
L57209 43508
L57322 43508
L57359 43527
L57378 43546
L57397 43583
L57397 43639
L57378 43677
L57359 43696
L57322 43714
L57209 43714
L57172 43696
L57153 43677
L57134 43639
L57134 43583
" />
<path d="M57134 43883
L57397 43883
" />
<path d="M57359 43883
L57378 43902
L57397 43939
L57397 43996
L57378 44033
L57341 44052
L57134 44052
" />
<path d="M57341 44052
L57378 44071
L57397 44108
L57397 44164
L57378 44202
L57341 44221
L57134 44221
" />
<path d="M57134 44464
L57153 44427
L57172 44408
L57209 44389
L57322 44389
L57359 44408
L57378 44427
L57397 44464
L57397 44520
L57378 44558
L57359 44577
L57322 44595
L57209 44595
L57172 44577
L57153 44558
L57134 44520
L57134 44464
" />
<path d="M57397 44708
L57397 44858
" />
<path d="M57528 44764
L57191 44764
L57153 44783
L57134 44820
L57134 44858
" />
<path d="M57134 44989
L57397 44989
" />
<path d="M57528 44989
L57509 44970
L57491 44989
L57509 45008
L57528 44989
L57491 44989
" />
<path d="M57397 45139
L57134 45233
L57397 45327
" />
<path d="M57153 45627
L57134 45589
L57134 45514
L57153 45477
L57191 45458
L57341 45458
L57378 45477
L57397 45514
L57397 45589
L57378 45627
L57341 45645
L57303 45645
L57266 45458
" />
<path d="M56485 42739
L56672 42608
" />
<path d="M56485 42514
L56878 42514
L56878 42664
L56860 42702
L56841 42721
L56803 42739
L56747 42739
L56710 42721
L56691 42702
L56672 42664
L56672 42514
" />
<path d="M56504 43058
L56485 43021
L56485 42946
L56504 42908
L56541 42889
L56691 42889
L56729 42908
L56747 42946
L56747 43021
L56729 43058
L56691 43077
L56654 43077
L56616 42889
" />
<path d="M56747 43208
L56485 43302
L56747 43396
" />
<path d="M56485 44052
L56485 43827
" />
<path d="M56485 43939
L56878 43939
L56822 43902
L56785 43864
L56766 43827
" />
<path d="M56522 44221
L56504 44239
L56485 44221
L56504 44202
L56522 44221
L56485 44221
" />
<path d="M56878 44483
L56878 44520
L56860 44558
L56841 44577
L56803 44595
L56729 44614
L56635 44614
L56560 44595
L56522 44577
L56504 44558
L56485 44520
L56485 44483
L56504 44446
L56522 44427
L56560 44408
L56635 44389
L56729 44389
L56803 44408
L56841 44427
L56860 44446
L56878 44483
" />
<path d="M57302 31992
L57302 32217
" />
<path d="M56908 32105
L57302 32105
" />
<path d="M57302 32424
L57302 32499
L57283 32536
L57245 32574
L57170 32592
L57039 32592
L56964 32574
L56927 32536
L56908 32499
L56908 32424
L56927 32386
L56964 32349
L57039 32330
L57170 32330
L57245 32349
L57283 32386
L57302 32424
" />
<path d="M57114 32892
L57114 32761
" />
<path d="M56908 32761
L57302 32761
L57302 32949
" />
<path d="M56908 47539
L57302 47539
" />
<path d="M56908 47951
L57095 47820
" />
<path d="M56908 47726
L57302 47726
L57302 47876
L57283 47914
L57264 47933
L57227 47951
L57170 47951
L57133 47933
L57114 47914
L57095 47876
L57095 47726
" />
</g>
<g style="fill:#C2C200; fill-opacity:0.0; 
stroke:#C2C200; stroke-width:59.0551; stroke-opacity:1; 
stroke-linecap:round; stroke-linejoin:round;">
</g>
<g style="fill:#C2C200; fill-opacity:0.0; 
stroke:#C2C200; stroke-width:39.3701; stroke-opacity:1; 
stroke-linecap:round; stroke-linejoin:round;">
<path d="M55905 51968
L55905 25196
" />
<path d="M62204 51968
L55905 51968
" />
<path d="M62204 25196
L62204 51968
" />
<path d="M55905 25196
L62204 25196
" />
<path d="M56709 25877
L56721 25866
L56743 25854
L56799 25854
L56822 25866
L56833 25877
L56844 25899
L56844 25922
L56833 25956
L56698 26091
L56844 26091
" />
<path d="M56991 25854
L57013 25854
L57035 25866
L57047 25877
L57058 25899
L57069 25944
L57069 26001
L57058 26046
L57047 26068
L57035 26079
L57013 26091
L56991 26091
L56968 26079
L56957 26068
L56946 26046
L56934 26001
L56934 25944
L56946 25899
L56957 25877
L56968 25866
L56991 25854
" />
<path d="M60880 30126
L60745 30126
" />
<path d="M60812 30126
L60812 29890
L60790 29924
L60767 29946
L60745 29957
" />
<path d="M61082 29890
L61037 29890
L61015 29901
L61003 29912
L60981 29946
L60970 29991
L60970 30081
L60981 30104
L60992 30115
L61015 30126
L61060 30126
L61082 30115
L61093 30104
L61105 30081
L61105 30025
L61093 30002
L61082 29991
L61060 29980
L61015 29980
L60992 29991
L60981 30002
L60970 30025
" />
<path d="M58976 47311
L58976 47480
L58965 47514
L58942 47536
L58908 47547
L58886 47547
" />
<path d="M59122 47412
L59100 47401
L59088 47390
L59077 47367
L59077 47356
L59088 47334
L59100 47322
L59122 47311
L59167 47311
L59190 47322
L59201 47334
L59212 47356
L59212 47367
L59201 47390
L59190 47401
L59167 47412
L59122 47412
L59100 47424
L59088 47435
L59077 47457
L59077 47502
L59088 47525
L59100 47536
L59122 47547
L59167 47547
L59190 47536
L59201 47525
L59212 47502
L59212 47457
L59201 47435
L59190 47424
L59167 47412
" />
<path d="M58976 50756
L58976 50925
L58965 50958
L58942 50981
L58908 50992
L58886 50992
" />
<path d="M59190 50835
L59190 50992
" />
<path d="M59133 50745
L59077 50913
L59223 50913
" />
<path d="M59019 39151
L58884 39286
L58876 39310
L58876 39326
L58884 39350
L58915 39382
L58939 39389
L58955 39389
L58979 39382
L59114 39246
" />
<path d="M59114 39580
L59019 39485
" />
<path d="M59067 39533
L59234 39366
L59194 39374
L59162 39374
L59138 39366
" />
<path d="M56898 33996
L56785 34074
" />
<path d="M56898 34131
L56661 34131
L56661 34041
L56673 34018
L56684 34007
L56706 33996
L56740 33996
L56763 34007
L56774 34018
L56785 34041
L56785 34131
" />
<path d="M56740 33793
L56898 33793
" />
<path d="M56650 33849
L56819 33906
L56819 33759
" />
<path d="M56898 34586
L56785 34665
" />
<path d="M56898 34721
L56661 34721
L56661 34631
L56673 34609
L56684 34597
L56706 34586
L56740 34586
L56763 34597
L56774 34609
L56785 34631
L56785 34721
" />
<path d="M56661 34372
L56661 34485
L56774 34496
L56763 34485
L56751 34462
L56751 34406
L56763 34384
L56774 34372
L56796 34361
L56853 34361
L56875 34372
L56886 34384
L56898 34406
L56898 34462
L56886 34485
L56875 34496
" />
<path d="M58284 49083
L58284 49274
L58295 49296
L58307 49308
L58329 49319
L58374 49319
L58397 49308
L58408 49296
L58419 49274
L58419 49083
" />
<path d="M58644 49083
L58532 49083
L58520 49195
L58532 49184
L58554 49173
L58610 49173
L58633 49184
L58644 49195
L58655 49218
L58655 49274
L58644 49296
L58633 49308
L58610 49319
L58554 49319
L58532 49308
L58520 49296
" />
<path d="M56647 51583
L56512 51583
" />
<path d="M56580 51583
L56580 51347
L56557 51380
L56535 51403
L56512 51414
" />
<path d="M56737 51369
L56749 51358
L56771 51347
L56827 51347
L56850 51358
L56861 51369
L56872 51392
L56872 51414
L56861 51448
L56726 51583
L56872 51583
" />
<path d="M56965 27589
L56943 27578
L56920 27556
L56886 27522
L56864 27511
L56841 27511
" />
<path d="M56853 27567
L56830 27556
L56808 27533
L56796 27488
L56796 27410
L56808 27365
L56830 27342
L56853 27331
L56898 27331
L56920 27342
L56943 27365
L56954 27410
L56954 27488
L56943 27533
L56920 27556
L56898 27567
L56853 27567
" />
<path d="M57044 27353
L57055 27342
L57078 27331
L57134 27331
L57156 27342
L57168 27353
L57179 27376
L57179 27398
L57168 27432
L57033 27567
L57179 27567
" />
<path d="M56965 28967
L56943 28956
L56920 28934
L56886 28900
L56864 28889
L56841 28889
" />
<path d="M56853 28945
L56830 28934
L56808 28911
L56796 28866
L56796 28787
L56808 28742
L56830 28720
L56853 28709
L56898 28709
L56920 28720
L56943 28742
L56954 28787
L56954 28866
L56943 28911
L56920 28934
L56898 28945
L56853 28945
" />
<path d="M57156 28787
L57156 28945
" />
<path d="M57100 28697
L57044 28866
L57190 28866
" />
<path d="M61470 30126
L61335 30126
" />
<path d="M61403 30126
L61403 29890
L61380 29924
L61358 29946
L61335 29957
" />
<path d="M61684 29890
L61571 29890
L61560 30002
L61571 29991
L61594 29980
L61650 29980
L61673 29991
L61684 30002
L61695 30025
L61695 30081
L61684 30104
L61673 30115
L61650 30126
L61594 30126
L61571 30115
L61560 30104
" />
<path d="M60056 43965
L60056 44156
L60067 44178
L60078 44190
L60101 44201
L60146 44201
L60168 44190
L60179 44178
L60191 44156
L60191 43965
" />
<path d="M60292 43987
L60303 43976
L60326 43965
L60382 43965
L60404 43976
L60416 43987
L60427 44010
L60427 44032
L60416 44066
L60281 44201
L60427 44201
" />
<path d="M57790 35607
L57870 35686
" />
<path d="M57647 35575
L57790 35607
L57758 35463
" />
<path d="M58068 35487
L57973 35583
" />
<path d="M58021 35535
L57854 35368
L57862 35408
L57862 35440
L57854 35463
" />
<path d="M59592 28256
L59513 28143
" />
<path d="M59457 28256
L59457 28020
L59547 28020
L59569 28031
L59580 28042
L59592 28065
L59592 28098
L59580 28121
L59569 28132
L59547 28143
L59457 28143
" />
<path d="M59817 28256
L59682 28256
" />
<path d="M59749 28256
L59749 28020
L59727 28053
L59704 28076
L59682 28087
" />
<path d="M59895 28020
L60053 28020
L59952 28256
" />
<path d="M58214 28256
L58135 28143
" />
<path d="M58079 28256
L58079 28020
L58169 28020
L58191 28031
L58203 28042
L58214 28065
L58214 28098
L58203 28121
L58191 28132
L58169 28143
L58079 28143
" />
<path d="M58439 28256
L58304 28256
" />
<path d="M58371 28256
L58371 28020
L58349 28053
L58326 28076
L58304 28087
" />
<path d="M58574 28121
L58551 28110
L58540 28098
L58529 28076
L58529 28065
L58540 28042
L58551 28031
L58574 28020
L58619 28020
L58641 28031
L58652 28042
L58664 28065
L58664 28076
L58652 28098
L58641 28110
L58619 28121
L58574 28121
L58551 28132
L58540 28143
L58529 28166
L58529 28211
L58540 28233
L58551 28245
L58574 28256
L58619 28256
L58641 28245
L58652 28233
L58664 28211
L58664 28166
L58652 28143
L58641 28132
L58619 28121
" />
<path d="M61099 28967
L61077 28956
L61054 28934
L61020 28900
L60998 28889
L60975 28889
" />
<path d="M60987 28945
L60964 28934
L60942 28911
L60930 28866
L60930 28787
L60942 28742
L60964 28720
L60987 28709
L61032 28709
L61054 28720
L61077 28742
L61088 28787
L61088 28866
L61077 28911
L61054 28934
L61032 28945
L60987 28945
" />
<path d="M61313 28945
L61178 28945
" />
<path d="M61245 28945
L61245 28709
L61223 28742
L61200 28765
L61178 28776
" />
<path d="M61099 27589
L61077 27578
L61054 27556
L61020 27522
L60998 27511
L60975 27511
" />
<path d="M60987 27567
L60964 27556
L60942 27533
L60930 27488
L60930 27410
L60942 27365
L60964 27342
L60987 27331
L61032 27331
L61054 27342
L61077 27365
L61088 27410
L61088 27488
L61077 27533
L61054 27556
L61032 27567
L60987 27567
" />
<path d="M61167 27331
L61313 27331
L61234 27421
L61268 27421
L61290 27432
L61302 27443
L61313 27466
L61313 27522
L61302 27544
L61290 27556
L61268 27567
L61200 27567
L61178 27556
L61167 27544
" />
<path d="M58155 42755
L58166 42767
L58177 42800
L58177 42823
L58166 42857
L58143 42879
L58121 42890
L58076 42902
L58042 42902
L57997 42890
L57975 42879
L57952 42857
L57941 42823
L57941 42800
L57952 42767
L57964 42755
" />
<path d="M58177 42530
L58177 42665
" />
<path d="M58177 42598
L57941 42598
L57975 42620
L57997 42643
L58008 42665
" />
<path d="M61304 42952
L61316 42964
L61327 42997
L61327 43020
L61316 43053
L61293 43076
L61271 43087
L61226 43098
L61192 43098
L61147 43087
L61124 43076
L61102 43053
L61091 43020
L61091 42997
L61102 42964
L61113 42952
" />
<path d="M61113 42862
L61102 42851
L61091 42829
L61091 42772
L61102 42750
L61113 42739
L61136 42727
L61158 42727
L61192 42739
L61327 42874
L61327 42727
" />
<path d="M59926 35669
L59938 35680
L59949 35714
L59949 35736
L59938 35770
L59915 35793
L59893 35804
L59848 35815
L59814 35815
L59769 35804
L59746 35793
L59724 35770
L59713 35736
L59713 35714
L59724 35680
L59735 35669
" />
<path d="M59713 35590
L59713 35444
L59803 35523
L59803 35489
L59814 35466
L59825 35455
L59848 35444
L59904 35444
L59926 35455
L59938 35466
L59949 35489
L59949 35556
L59938 35579
L59926 35590
" />
<path d="M58397 34831
L58397 34847
L58382 34879
L58366 34895
L58334 34911
L58302 34911
L58278 34903
L58238 34879
L58215 34855
L58191 34815
L58183 34791
L58183 34760
L58199 34728
L58215 34712
L58246 34696
L58262 34696
" />
<path d="M58445 34592
L58557 34704
" />
<path d="M58342 34569
L58421 34728
L58525 34624
" />
<path d="M57118 36111
L57118 36127
L57102 36158
L57086 36174
L57054 36190
L57022 36190
L56999 36182
L56959 36158
L56935 36134
L56911 36095
L56903 36071
L56903 36039
L56919 36007
L56935 35991
L56967 35975
L56983 35975
" />
<path d="M57118 35808
L57038 35888
L57110 35975
L57110 35959
L57118 35936
L57158 35896
L57182 35888
L57197 35888
L57221 35896
L57261 35936
L57269 35959
L57269 35975
L57261 35999
L57221 36039
L57197 36047
L57182 36047
" />
<path d="M56626 41229
L56626 41245
L56610 41276
L56594 41292
L56562 41308
L56530 41308
L56506 41300
L56467 41276
L56443 41253
L56419 41213
L56411 41189
L56411 41157
L56427 41125
L56443 41109
L56475 41094
L56491 41094
" />
<path d="M56530 41022
L56642 40911
L56737 41149
" />
<path d="M58155 43248
L58166 43259
L58177 43293
L58177 43315
L58166 43349
L58143 43371
L58121 43383
L58076 43394
L58042 43394
L57997 43383
L57975 43371
L57952 43349
L57941 43315
L57941 43293
L57952 43259
L57964 43248
" />
<path d="M58042 43113
L58031 43135
L58020 43146
L57997 43158
L57986 43158
L57964 43146
L57952 43135
L57941 43113
L57941 43068
L57952 43045
L57964 43034
L57986 43023
L57997 43023
L58020 43034
L58031 43045
L58042 43068
L58042 43113
L58053 43135
L58065 43146
L58087 43158
L58132 43158
L58155 43146
L58166 43135
L58177 43113
L58177 43068
L58166 43045
L58155 43034
L58132 43023
L58087 43023
L58065 43034
L58053 43045
L58042 43068
" />
<path d="M61476 42210
L61465 42221
L61431 42232
L61408 42232
L61375 42221
L61352 42199
L61341 42176
L61330 42131
L61330 42097
L61341 42052
L61352 42030
L61375 42007
L61408 41996
L61431 41996
L61465 42007
L61476 42019
" />
<path d="M61588 42232
L61633 42232
L61656 42221
L61667 42210
L61690 42176
L61701 42131
L61701 42041
L61690 42019
L61678 42007
L61656 41996
L61611 41996
L61588 42007
L61577 42019
L61566 42041
L61566 42097
L61577 42120
L61588 42131
L61611 42142
L61656 42142
L61678 42131
L61690 42120
L61701 42097
" />
<path d="M59949 36265
L59949 36400
" />
<path d="M59949 36332
L59713 36332
L59746 36355
L59769 36377
L59780 36400
" />
<path d="M59713 36119
L59713 36096
L59724 36074
L59735 36062
L59758 36051
L59803 36040
L59859 36040
L59904 36051
L59926 36062
L59938 36074
L59949 36096
L59949 36119
L59938 36141
L59926 36152
L59904 36164
L59859 36175
L59803 36175
L59758 36164
L59735 36152
L59724 36141
L59713 36119
" />
<path d="M56736 36524
L56641 36620
" />
<path d="M56688 36572
L56521 36405
L56529 36445
L56529 36476
L56521 36500
" />
<path d="M56895 36365
L56800 36461
" />
<path d="M56848 36413
L56680 36246
L56688 36286
L56688 36317
L56680 36341
" />
<path d="M57274 36854
L57179 36759
" />
<path d="M57226 36807
L57393 36640
L57354 36647
L57322 36647
L57298 36640
" />
<path d="M57489 36767
L57505 36767
L57529 36775
L57568 36815
L57576 36838
L57576 36854
L57568 36878
L57552 36894
L57521 36910
L57330 36910
L57433 37013
" />
<path d="M60683 49516
L60548 49516
" />
<path d="M60615 49516
L60615 49280
L60593 49313
L60570 49336
L60548 49347
" />
<path d="M60762 49280
L60908 49280
L60829 49370
L60863 49370
L60885 49381
L60897 49392
L60908 49415
L60908 49471
L60897 49493
L60885 49505
L60863 49516
L60795 49516
L60773 49505
L60762 49493
" />
<path d="M57109 49319
L57109 49083
L57165 49083
L57199 49094
L57221 49116
L57232 49139
L57244 49184
L57244 49218
L57232 49263
L57221 49285
L57199 49308
L57165 49319
L57109 49319
" />
<path d="M57334 49105
L57345 49094
L57367 49083
L57424 49083
L57446 49094
L57457 49105
L57469 49128
L57469 49150
L57457 49184
L57322 49319
L57469 49319
" />
<path d="M60885 31110
L60807 30998
" />
<path d="M60750 31110
L60750 30874
L60840 30874
L60863 30885
L60874 30897
L60885 30919
L60885 30953
L60874 30975
L60863 30987
L60840 30998
L60750 30998
" />
<path d="M61110 31110
L60975 31110
" />
<path d="M61043 31110
L61043 30874
L61020 30908
L60998 30930
L60975 30942
" />
<path d="M58818 45382
L58740 45269
" />
<path d="M58683 45382
L58683 45146
L58773 45146
L58796 45157
L58807 45168
L58818 45191
L58818 45224
L58807 45247
L58796 45258
L58773 45269
L58683 45269
" />
<path d="M58908 45168
L58920 45157
L58942 45146
L58998 45146
L59021 45157
L59032 45168
L59043 45191
L59043 45213
L59032 45247
L58897 45382
L59043 45382
" />
<path d="M59949 35078
L59836 35157
" />
<path d="M59949 35213
L59713 35213
L59713 35123
L59724 35101
L59735 35089
L59758 35078
L59791 35078
L59814 35089
L59825 35101
L59836 35123
L59836 35213
" />
<path d="M59713 35000
L59713 34853
L59803 34932
L59803 34898
L59814 34876
L59825 34865
L59848 34853
L59904 34853
L59926 34865
L59938 34876
L59949 34898
L59949 34966
L59938 34988
L59926 35000
" />
<path d="M58177 45511
L58065 45590
" />
<path d="M58177 45646
L57941 45646
L57941 45556
L57952 45534
L57964 45523
L57986 45511
L58020 45511
L58042 45523
L58053 45534
L58065 45556
L58065 45646
" />
<path d="M58042 45376
L58031 45399
L58020 45410
L57997 45421
L57986 45421
L57964 45410
L57952 45399
L57941 45376
L57941 45331
L57952 45309
L57964 45298
L57986 45286
L57997 45286
L58020 45298
L58031 45309
L58042 45331
L58042 45376
L58053 45399
L58065 45410
L58087 45421
L58132 45421
L58155 45410
L58166 45399
L58177 45376
L58177 45331
L58166 45309
L58155 45298
L58132 45286
L58087 45286
L58065 45298
L58053 45309
L58042 45331
" />
<path d="M58177 44921
L58065 45000
" />
<path d="M58177 45056
L57941 45056
L57941 44966
L57952 44943
L57964 44932
L57986 44921
L58020 44921
L58042 44932
L58053 44943
L58065 44966
L58065 45056
" />
<path d="M58177 44808
L58177 44763
L58166 44741
L58155 44730
L58121 44707
L58076 44696
L57986 44696
L57964 44707
L57952 44718
L57941 44741
L57941 44786
L57952 44808
L57964 44820
L57986 44831
L58042 44831
L58065 44820
L58076 44808
L58087 44786
L58087 44741
L58076 44718
L58065 44707
L58042 44696
" />
<path d="M58177 44336
L58177 44471
" />
<path d="M58177 44403
L57941 44403
L57975 44426
L57997 44448
L58008 44471
" />
<path d="M57941 44190
L57941 44167
L57952 44145
L57964 44133
L57986 44122
L58031 44111
L58087 44111
L58132 44122
L58155 44133
L58166 44145
L58177 44167
L58177 44190
L58166 44212
L58155 44223
L58132 44235
L58087 44246
L58031 44246
L57986 44235
L57964 44223
L57952 44212
L57941 44190
" />
<path d="M61408 41185
L61312 41090
" />
<path d="M61360 41137
L61527 40970
L61487 40978
L61456 40978
L61432 40970
" />
<path d="M61567 41344
L61472 41249
" />
<path d="M61519 41296
L61686 41129
L61646 41137
L61615 41137
L61591 41129
" />
<path d="M59502 49516
L59367 49516
" />
<path d="M59434 49516
L59434 49280
L59412 49313
L59389 49336
L59367 49347
" />
<path d="M59580 49280
L59727 49280
L59648 49370
L59682 49370
L59704 49381
L59715 49392
L59727 49415
L59727 49471
L59715 49493
L59704 49505
L59682 49516
L59614 49516
L59592 49505
L59580 49493
" />
<path d="M60092 49516
L59957 49516
" />
<path d="M60025 49516
L60025 49280
L60002 49313
L59980 49336
L59957 49347
" />
<path d="M60295 49358
L60295 49516
" />
<path d="M60239 49268
L60182 49437
L60329 49437
" />
<path d="M61175 26091
L61040 26091
" />
<path d="M61107 26091
L61107 25854
L61085 25888
L61062 25911
L61040 25922
" />
<path d="M61287 26091
L61332 26091
L61355 26079
L61366 26068
L61389 26034
L61400 25989
L61400 25899
L61389 25877
L61377 25866
L61355 25854
L61310 25854
L61287 25866
L61276 25877
L61265 25899
L61265 25956
L61276 25978
L61287 25989
L61310 26001
L61355 26001
L61377 25989
L61389 25978
L61400 25956
" />
<path d="M58155 43740
L58166 43751
L58177 43785
L58177 43807
L58166 43841
L58143 43863
L58121 43875
L58076 43886
L58042 43886
L57997 43875
L57975 43863
L57952 43841
L57941 43807
L57941 43785
L57952 43751
L57964 43740
" />
<path d="M57941 43537
L57941 43582
L57952 43605
L57964 43616
L57997 43638
L58042 43650
L58132 43650
L58155 43638
L58166 43627
L58177 43605
L58177 43560
L58166 43537
L58155 43526
L58132 43515
L58076 43515
L58053 43526
L58042 43537
L58031 43560
L58031 43605
L58042 43627
L58053 43638
L58076 43650
" />
<path d="M58579 25854
L58579 26046
L58591 26068
L58602 26079
L58624 26091
L58669 26091
L58692 26079
L58703 26068
L58714 26046
L58714 25854
" />
<path d="M58804 25854
L58962 25854
L58861 26091
" />
<path d="M56491 37646
L56411 37566
L56578 37399
" />
<path d="M56634 37789
L56538 37693
" />
<path d="M56586 37741
L56753 37574
L56713 37582
L56681 37582
L56658 37574
" />
<path d="M60455 26091
L60455 25854
L60511 25854
L60545 25866
L60568 25888
L60579 25911
L60590 25956
L60590 25989
L60579 26034
L60568 26057
L60545 26079
L60511 26091
L60455 26091
" />
<path d="M60669 25854
L60815 25854
L60736 25944
L60770 25944
L60793 25956
L60804 25967
L60815 25989
L60815 26046
L60804 26068
L60793 26079
L60770 26091
L60703 26091
L60680 26079
L60669 26068
" />
<path d="M58880 30815
L58880 30579
L58937 30579
L58970 30590
L58993 30613
L59004 30635
L59015 30680
L59015 30714
L59004 30759
L58993 30781
L58970 30804
L58937 30815
L58880 30815
" />
<path d="M59240 30815
L59105 30815
" />
<path d="M59173 30815
L59173 30579
L59150 30613
L59128 30635
L59105 30646
" />
</g>
<g style="fill:#008484; fill-opacity:0.0; 
stroke:#008484; stroke-width:39.3701; stroke-opacity:1; 
stroke-linecap:round; stroke-linejoin:round;">
</g>
<g style="fill:#008484; fill-opacity:0.0; 
stroke:#008484; stroke-width:59.0551; stroke-opacity:1; 
stroke-linecap:round; stroke-linejoin:round;">
<path d="M59392 30258
L59420 30230
L59476 30202
L59589 30258
L59645 30230
L59673 30202
" />
<path d="M59392 31242
L59420 31214
L59476 31186
L59589 31242
L59645 31214
L59673 31186
" />
<path d="M58413 31228
L58712 31228
" />
<path d="M58413 30244
L58712 30244
" />
<path d="M58562 30394
L58562 30094
" />
</g>
<g style="fill:#C2C200; fill-opacity:0.0; 
stroke:#C2C200; stroke-width:59.0551; stroke-opacity:1; 
stroke-linecap:round; stroke-linejoin:round;">
</g>
<g style="fill:#C2C200; fill-opacity:0.0; 
stroke:#C2C200; stroke-width:39.3701; stroke-opacity:1; 
stroke-linecap:round; stroke-linejoin:round;">
<path d="M58976 32744
L58976 32913
L58965 32947
L58942 32969
L58908 32980
L58886 32980
" />
<path d="M59100 32980
L59145 32980
L59167 32969
L59178 32958
L59201 32924
L59212 32879
L59212 32789
L59201 32767
L59190 32755
L59167 32744
L59122 32744
L59100 32755
L59088 32767
L59077 32789
L59077 32845
L59088 32868
L59100 32879
L59122 32890
L59167 32890
L59190 32879
L59201 32868
L59212 32845
" />
</g>
<g style="fill:#008484; fill-opacity:0.0; 
stroke:#008484; stroke-width:39.3701; stroke-opacity:1; 
stroke-linecap:round; stroke-linejoin:round;">
</g>
<g style="fill:#008484; fill-opacity:0.0; 
stroke:#008484; stroke-width:47.2441; stroke-opacity:1; 
stroke-linecap:round; stroke-linejoin:round;">
<path d="M57157 25787
L57157 26181
" />
<path d="M56622 26181
L56622 25787
" />
<path d="M60657 30216
L60657 29822
" />
<path d="M61192 29822
L61192 30216
" />
<path d="M58070 48474
L60039 48474
" />
<path d="M60039 48474
L60039 48277
" />
<path d="M60039 48277
L58070 48277
" />
<path d="M58070 48277
L58070 48474
" />
<path d="M57401 47155
L57401 46683
" />
<path d="M57401 46683
L58051 46683
" />
<path d="M58051 46683
L58051 46879
" />
<path d="M58051 46879
L57598 46879
" />
<path d="M57598 46879
L57598 47155
" />
<path d="M57598 47155
L57401 47155
" />
<path d="M60708 47155
L60708 46683
" />
<path d="M60708 46683
L60059 46683
" />
<path d="M60059 46683
L60059 46879
" />
<path d="M60059 46879
L60511 46879
" />
<path d="M60511 46879
L60511 47155
" />
<path d="M60511 47155
L60708 47155
" />
<path d="M57923 46387
L57687 46269
" />
<path d="M57687 46269
L57687 46505
" />
<path d="M57687 46505
L57923 46387
" />
</g>
<g style="fill:#008484; fill-opacity:0.0; 
stroke:#008484; stroke-width:59.0551; stroke-opacity:1; 
stroke-linecap:round; stroke-linejoin:round;">
<path d="M58425 50137
L58346 50137
" />
<path d="M59685 50137
L59763 50137
" />
<path d="M60708 51830
L60708 51948
" />
<path d="M60708 50767
L60708 50964
" />
<path d="M57401 51830
L57401 51948
" />
<path d="M57401 50767
L57401 50964
" />
<path d="M59055 36488
L58790 36753
" />
<path d="M61936 39370
L61644 39662
" />
<path d="M59055 42251
L59347 41959
" />
<path d="M56173 39370
L56466 39077
" />
<path d="M59055 36488
L59347 36781
" />
<path d="M56173 39370
L56466 39662
" />
<path d="M59055 42251
L58762 41959
" />
<path d="M61936 39370
L61644 39077
" />
<path d="M58790 36753
L58435 36398
" />
</g>
<g style="fill:#008484; fill-opacity:0.0; 
stroke:#008484; stroke-width:47.2441; stroke-opacity:1; 
stroke-linecap:round; stroke-linejoin:round;">
<path d="M56594 33688
L56988 33688
" />
<path d="M56988 34224
L56594 34224
" />
<path d="M56988 34814
L56594 34814
" />
<path d="M56594 34279
L56988 34279
" />
<path d="M58110 49846
L58818 49846
" />
<path d="M58818 48578
L57854 48578
" />
<path d="M56425 51673
L56425 51279
" />
<path d="M56960 51279
L56960 51673
" />
<path d="M57287 28082
L57287 27716
" />
<path d="M57287 26838
L57287 27204
" />
<path d="M57287 26838
L56437 26838
" />
<path d="M57287 28082
L56712 28082
" />
<path d="M57622 29192
L57622 28484
" />
<path d="M56354 28484
L56354 29448
" />
<path d="M61248 30216
L61248 29822
" />
<path d="M61783 29822
L61783 30216
" />
</g>
<g style="fill:#008484; fill-opacity:0.0; 
stroke:#008484; stroke-width:59.0551; stroke-opacity:1; 
stroke-linecap:round; stroke-linejoin:round;">
<path d="M61151 44734
L61151 44694
" />
<path d="M59320 44734
L59320 44655
" />
<path d="M59320 43454
L59320 43533
" />
<path d="M61151 43454
L61151 43533
" />
<path d="M61151 44734
L59320 44734
" />
<path d="M61151 43454
L59320 43454
" />
<path d="M61151 44694
L61683 44694
" />
</g>
<g style="fill:#008484; fill-opacity:0.0; 
stroke:#008484; stroke-width:47.2441; stroke-opacity:1; 
stroke-linecap:round; stroke-linejoin:round;">
<path d="M57971 36547
L58890 35628
" />
<path d="M58890 35628
L57776 34515
" />
<path d="M59027 29173
L59027 27125
" />
<path d="M60460 27125
L60460 29173
" />
<path d="M59082 27125
L59082 29173
" />
<path d="M57649 29173
L57649 27125
" />
<path d="M60822 28216
L60822 28582
" />
<path d="M60822 29460
L60822 29094
" />
<path d="M60822 29460
L61673 29460
" />
<path d="M60822 28216
L61397 28216
" />
<path d="M60488 27106
L60488 27814
" />
<path d="M61755 27814
L61755 26850
" />
<path d="M57933 42480
L58208 42480
" />
<path d="M58208 42952
L57933 42952
" />
<path d="M61082 42677
L61358 42677
" />
<path d="M61358 43149
L61082 43149
" />
<path d="M59704 35393
L59980 35393
" />
<path d="M59980 35866
L59704 35866
" />
<path d="M58296 35008
L58101 34813
" />
<path d="M58435 34479
L58630 34674
" />
<path d="M57156 35759
L57351 35954
" />
<path d="M57017 36288
L56822 36093
" />
<path d="M56524 41406
L56330 41211
" />
<path d="M56664 40877
L56858 41072
" />
<path d="M57933 42972
L58208 42972
" />
<path d="M58208 43444
L57933 43444
" />
<path d="M61751 41988
L61751 42263
" />
<path d="M61279 42263
L61279 41988
" />
<path d="M59704 35984
L59980 35984
" />
<path d="M59980 36456
L59704 36456
" />
<path d="M56623 36681
L56428 36486
" />
<path d="M56762 36152
L56957 36347
" />
<path d="M57117 36741
L57312 36546
" />
<path d="M57646 36880
L57451 37075
" />
<path d="M60964 49271
L60964 49547
" />
<path d="M60492 49547
L60492 49271
" />
<path d="M57618 48622
L56948 48622
" />
<path d="M56948 48622
L56948 49625
" />
<path d="M57618 48622
L57618 49625
" />
<path d="M60657 31200
L60657 30807
" />
<path d="M61192 30807
L61192 31200
" />
<path d="M59125 45078
L59125 45472
" />
<path d="M58590 45472
L58590 45078
" />
<path d="M59645 34771
L60039 34771
" />
<path d="M60039 35307
L59645 35307
" />
<path d="M57874 45204
L58267 45204
" />
<path d="M58267 45740
L57874 45740
" />
<path d="M57874 44614
L58267 44614
" />
<path d="M58267 45149
L57874 45149
" />
<path d="M58267 44559
L57874 44559
" />
<path d="M57874 44023
L58267 44023
" />
<path d="M61187 41091
L61465 40813
" />
<path d="M61844 41191
L61565 41470
" />
<path d="M59279 49606
L59279 49212
" />
<path d="M59814 49212
L59814 49606
" />
<path d="M60405 49212
L60405 49606
" />
<path d="M59870 49606
L59870 49212
" />
<path d="M61488 25787
L61488 26181
" />
<path d="M60952 26181
L60952 25787
" />
<path d="M57933 43464
L58208 43464
" />
<path d="M58208 43937
L57933 43937
" />
<path d="M59704 26610
L59704 26452
" />
<path d="M59704 26452
L60255 26452
" />
<path d="M59704 26610
L57814 26610
" />
<path d="M59704 25350
L57814 25350
" />
<path d="M56330 37528
L56524 37333
" />
<path d="M56858 37668
L56664 37862
" />
<path d="M60393 26437
L60866 26437
" />
<path d="M60393 25708
L60393 26437
" />
<path d="M60866 25708
L60866 26437
" />
</g>
<g style="fill:#008484; fill-opacity:0.0; 
stroke:#008484; stroke-width:59.0551; stroke-opacity:1; 
stroke-linecap:round; stroke-linejoin:round;">
<path d="M59940 31692
L58169 31692
" />
<path d="M58169 29724
L59940 29724
" />
<path d="M58169 29921
L58169 29724
" />
<path d="M58169 29921
L57578 29921
" />
</g>
<g style="fill:#008484; fill-opacity:0.0; 
stroke:#008484; stroke-width:47.2441; stroke-opacity:1; 
stroke-linecap:round; stroke-linejoin:round;">
<path d="M60039 31948
L58070 31948
" />
<path d="M60708 33208
L60708 33641
" />
<path d="M60708 33641
L60098 33641
" />
<path d="M60098 33641
L60098 33444
" />
<path d="M60098 33444
L60511 33444
" />
<path d="M60511 33444
L60511 33208
" />
<path d="M60511 33208
L60708 33208
" />
<path d="M57401 33208
L57401 33641
" />
<path d="M57401 33641
L58011 33641
" />
<path d="M58011 33641
L58011 33444
" />
<path d="M58011 33444
L57598 33444
" />
<path d="M57598 33444
L57598 33208
" />
<path d="M57598 33208
L57401 33208
" />
<path d="M60187 33917
L60423 34035
" />
<path d="M60423 34035
L60423 33799
" />
<path d="M60423 33799
L60187 33917
" />
</g>
<g style="fill:#008484; fill-opacity:1.0; 
stroke:#008484; stroke-width:100; stroke-opacity:1; 
stroke-linecap:round; stroke-linejoin:round;">
<polyline style="fill-rule:evenodd;"
points="61910,34694
61417,34694
61397,34698
61381,34709
61370,34725
61367,34744
61367,37056
60679,37056
60679,34744
60675,34724
60664,34708
60648,34697
60629,34694
60136,34694
61023,33452
61910,34694
" /> 
</g> 
</svg>
