<?xml version="1.0" standalone="no"?>
 <!DOCTYPE svg PUBLIC "-//W3C//DTD SVG 1.1//EN" 
 "http://www.w3.org/Graphics/SVG/1.1/DTD/svg11.dtd"> 
<svg xmlns="http://www.w3.org/2000/svg" version="1.1" 
    width="29.7002cm" height="21.0007cm" viewBox="0 0 116930 82680 ">
<title>SVG Picture created as power-Power.svg date 2017/03/22 14:25:30 </title>
  <desc>Picture generated by Eeschema-SVG </desc>
<g style="fill:#000000; fill-opacity:1;stroke:#000000; stroke-opacity:1;
stroke-linecap:round; stroke-linejoin:round; "
 transform="translate(0 0) scale(1 1)">
</g>
<g style="fill:#000000; fill-opacity:0.0; 
stroke:#000000; stroke-width:-10; stroke-opacity:1; 
stroke-linecap:round; stroke-linejoin:round;">
</g>
<g style="fill:#840000; fill-opacity:0.0; 
stroke:#840000; stroke-width:-10; stroke-opacity:1; 
stroke-linecap:round; stroke-linejoin:round;">
</g>
<g style="fill:#840000; fill-opacity:0.0; 
stroke:#840000; stroke-width:100; stroke-opacity:1; 
stroke-linecap:round; stroke-linejoin:round;">
</g>
<g style="fill:#840000; fill-opacity:0.0; 
stroke:#840000; stroke-width:60; stroke-opacity:1; 
stroke-linecap:round; stroke-linejoin:round;">
<rect x="69690" y="65360" width="42520" height="12600" rx="0" />
</g>
<g style="fill:#840000; fill-opacity:0.0; 
stroke:#840000; stroke-width:100; stroke-opacity:1; 
stroke-linecap:round; stroke-linejoin:round;">
</g>
<g style="fill:#840000; fill-opacity:0.0; 
stroke:#840000; stroke-width:60; stroke-opacity:1; 
stroke-linecap:round; stroke-linejoin:round;">
<rect x="3940" y="3940" width="109050" height="74800" rx="0" />
</g>
<g style="fill:#840000; fill-opacity:0.0; 
stroke:#840000; stroke-width:100; stroke-opacity:1; 
stroke-linecap:round; stroke-linejoin:round;">
</g>
<g style="fill:#840000; fill-opacity:0.0; 
stroke:#840000; stroke-width:60; stroke-opacity:1; 
stroke-linecap:round; stroke-linejoin:round;">
<rect x="4720" y="4720" width="107490" height="73240" rx="0" />
</g>
<g style="fill:#840000; fill-opacity:0.0; 
stroke:#840000; stroke-width:100; stroke-opacity:1; 
stroke-linecap:round; stroke-linejoin:round;">
</g>
<g style="fill:#840000; fill-opacity:0.0; 
stroke:#840000; stroke-width:60; stroke-opacity:1; 
stroke-linecap:round; stroke-linejoin:round;">
<path d="M23620 4720
L23620 3940
" />
</g>
<g style="fill:#840000; fill-opacity:0.0; 
stroke:#840000; stroke-width:100; stroke-opacity:1; 
stroke-linecap:round; stroke-linejoin:round;">
</g>
<g style="fill:#840000; fill-opacity:0.0; 
stroke:#840000; stroke-width:60; stroke-opacity:1; 
stroke-linecap:round; stroke-linejoin:round;">
<path d="M43310 4720
L43310 3940
" />
</g>
<g style="fill:#840000; fill-opacity:0.0; 
stroke:#840000; stroke-width:100; stroke-opacity:1; 
stroke-linecap:round; stroke-linejoin:round;">
</g>
<g style="fill:#840000; fill-opacity:0.0; 
stroke:#840000; stroke-width:60; stroke-opacity:1; 
stroke-linecap:round; stroke-linejoin:round;">
<path d="M62990 4720
L62990 3940
" />
</g>
<g style="fill:#840000; fill-opacity:0.0; 
stroke:#840000; stroke-width:100; stroke-opacity:1; 
stroke-linecap:round; stroke-linejoin:round;">
</g>
<g style="fill:#840000; fill-opacity:0.0; 
stroke:#840000; stroke-width:60; stroke-opacity:1; 
stroke-linecap:round; stroke-linejoin:round;">
<path d="M82680 4720
L82680 3940
" />
</g>
<g style="fill:#840000; fill-opacity:0.0; 
stroke:#840000; stroke-width:100; stroke-opacity:1; 
stroke-linecap:round; stroke-linejoin:round;">
</g>
<g style="fill:#840000; fill-opacity:0.0; 
stroke:#840000; stroke-width:60; stroke-opacity:1; 
stroke-linecap:round; stroke-linejoin:round;">
<path d="M102360 4720
L102360 3940
" />
</g>
<g style="fill:#840000; fill-opacity:0.0; 
stroke:#840000; stroke-width:100; stroke-opacity:1; 
stroke-linecap:round; stroke-linejoin:round;">
</g>
<g style="fill:#840000; fill-opacity:0.0; 
stroke:#840000; stroke-width:60; stroke-opacity:1; 
stroke-linecap:round; stroke-linejoin:round;">
<path d="M14170 4560
L13880 4560
" />
<path d="M14020 4560
L14020 4050
L13970 4120
L13930 4170
L13880 4190
" />
</g>
<g style="fill:#840000; fill-opacity:0.0; 
stroke:#840000; stroke-width:100; stroke-opacity:1; 
stroke-linecap:round; stroke-linejoin:round;">
</g>
<g style="fill:#840000; fill-opacity:0.0; 
stroke:#840000; stroke-width:60; stroke-opacity:1; 
stroke-linecap:round; stroke-linejoin:round;">
<path d="M33560 4090
L33580 4070
L33630 4050
L33750 4050
L33800 4070
L33820 4090
L33850 4140
L33850 4190
L33820 4260
L33530 4560
L33850 4560
" />
</g>
<g style="fill:#840000; fill-opacity:0.0; 
stroke:#840000; stroke-width:100; stroke-opacity:1; 
stroke-linecap:round; stroke-linejoin:round;">
</g>
<g style="fill:#840000; fill-opacity:0.0; 
stroke:#840000; stroke-width:60; stroke-opacity:1; 
stroke-linecap:round; stroke-linejoin:round;">
<path d="M53220 4050
L53540 4050
L53370 4240
L53440 4240
L53490 4260
L53510 4290
L53540 4340
L53540 4460
L53510 4510
L53490 4530
L53440 4560
L53300 4560
L53250 4530
L53220 4510
" />
</g>
<g style="fill:#840000; fill-opacity:0.0; 
stroke:#840000; stroke-width:100; stroke-opacity:1; 
stroke-linecap:round; stroke-linejoin:round;">
</g>
<g style="fill:#840000; fill-opacity:0.0; 
stroke:#840000; stroke-width:60; stroke-opacity:1; 
stroke-linecap:round; stroke-linejoin:round;">
<path d="M73170 4220
L73170 4560
" />
<path d="M73050 4020
L72930 4390
L73240 4390
" />
</g>
<g style="fill:#840000; fill-opacity:0.0; 
stroke:#840000; stroke-width:100; stroke-opacity:1; 
stroke-linecap:round; stroke-linejoin:round;">
</g>
<g style="fill:#840000; fill-opacity:0.0; 
stroke:#840000; stroke-width:60; stroke-opacity:1; 
stroke-linecap:round; stroke-linejoin:round;">
<path d="M92880 4050
L92640 4050
L92620 4290
L92640 4260
L92690 4240
L92810 4240
L92860 4260
L92880 4290
L92910 4340
L92910 4460
L92880 4510
L92860 4530
L92810 4560
L92690 4560
L92640 4530
L92620 4510
" />
</g>
<g style="fill:#840000; fill-opacity:0.0; 
stroke:#840000; stroke-width:100; stroke-opacity:1; 
stroke-linecap:round; stroke-linejoin:round;">
</g>
<g style="fill:#840000; fill-opacity:0.0; 
stroke:#840000; stroke-width:60; stroke-opacity:1; 
stroke-linecap:round; stroke-linejoin:round;">
<path d="M112540 4050
L112440 4050
L112390 4070
L112370 4090
L112320 4170
L112300 4260
L112300 4460
L112320 4510
L112350 4530
L112390 4560
L112490 4560
L112540 4530
L112560 4510
L112590 4460
L112590 4340
L112560 4290
L112540 4260
L112490 4240
L112390 4240
L112350 4260
L112320 4290
L112300 4340
" />
</g>
<g style="fill:#840000; fill-opacity:0.0; 
stroke:#840000; stroke-width:100; stroke-opacity:1; 
stroke-linecap:round; stroke-linejoin:round;">
</g>
<g style="fill:#840000; fill-opacity:0.0; 
stroke:#840000; stroke-width:60; stroke-opacity:1; 
stroke-linecap:round; stroke-linejoin:round;">
<path d="M23620 77960
L23620 78740
" />
</g>
<g style="fill:#840000; fill-opacity:0.0; 
stroke:#840000; stroke-width:100; stroke-opacity:1; 
stroke-linecap:round; stroke-linejoin:round;">
</g>
<g style="fill:#840000; fill-opacity:0.0; 
stroke:#840000; stroke-width:60; stroke-opacity:1; 
stroke-linecap:round; stroke-linejoin:round;">
<path d="M43310 77960
L43310 78740
" />
</g>
<g style="fill:#840000; fill-opacity:0.0; 
stroke:#840000; stroke-width:100; stroke-opacity:1; 
stroke-linecap:round; stroke-linejoin:round;">
</g>
<g style="fill:#840000; fill-opacity:0.0; 
stroke:#840000; stroke-width:60; stroke-opacity:1; 
stroke-linecap:round; stroke-linejoin:round;">
<path d="M62990 77960
L62990 78740
" />
</g>
<g style="fill:#840000; fill-opacity:0.0; 
stroke:#840000; stroke-width:100; stroke-opacity:1; 
stroke-linecap:round; stroke-linejoin:round;">
</g>
<g style="fill:#840000; fill-opacity:0.0; 
stroke:#840000; stroke-width:60; stroke-opacity:1; 
stroke-linecap:round; stroke-linejoin:round;">
<path d="M82680 77960
L82680 78740
" />
</g>
<g style="fill:#840000; fill-opacity:0.0; 
stroke:#840000; stroke-width:100; stroke-opacity:1; 
stroke-linecap:round; stroke-linejoin:round;">
</g>
<g style="fill:#840000; fill-opacity:0.0; 
stroke:#840000; stroke-width:60; stroke-opacity:1; 
stroke-linecap:round; stroke-linejoin:round;">
<path d="M102360 77960
L102360 78740
" />
</g>
<g style="fill:#840000; fill-opacity:0.0; 
stroke:#840000; stroke-width:100; stroke-opacity:1; 
stroke-linecap:round; stroke-linejoin:round;">
</g>
<g style="fill:#840000; fill-opacity:0.0; 
stroke:#840000; stroke-width:60; stroke-opacity:1; 
stroke-linecap:round; stroke-linejoin:round;">
<path d="M14170 78580
L13880 78580
" />
<path d="M14020 78580
L14020 78070
L13970 78140
L13930 78190
L13880 78210
" />
</g>
<g style="fill:#840000; fill-opacity:0.0; 
stroke:#840000; stroke-width:100; stroke-opacity:1; 
stroke-linecap:round; stroke-linejoin:round;">
</g>
<g style="fill:#840000; fill-opacity:0.0; 
stroke:#840000; stroke-width:60; stroke-opacity:1; 
stroke-linecap:round; stroke-linejoin:round;">
<path d="M33560 78110
L33580 78090
L33630 78070
L33750 78070
L33800 78090
L33820 78110
L33850 78160
L33850 78210
L33820 78280
L33530 78580
L33850 78580
" />
</g>
<g style="fill:#840000; fill-opacity:0.0; 
stroke:#840000; stroke-width:100; stroke-opacity:1; 
stroke-linecap:round; stroke-linejoin:round;">
</g>
<g style="fill:#840000; fill-opacity:0.0; 
stroke:#840000; stroke-width:60; stroke-opacity:1; 
stroke-linecap:round; stroke-linejoin:round;">
<path d="M53220 78070
L53540 78070
L53370 78260
L53440 78260
L53490 78280
L53510 78310
L53540 78360
L53540 78480
L53510 78530
L53490 78550
L53440 78580
L53300 78580
L53250 78550
L53220 78530
" />
</g>
<g style="fill:#840000; fill-opacity:0.0; 
stroke:#840000; stroke-width:100; stroke-opacity:1; 
stroke-linecap:round; stroke-linejoin:round;">
</g>
<g style="fill:#840000; fill-opacity:0.0; 
stroke:#840000; stroke-width:60; stroke-opacity:1; 
stroke-linecap:round; stroke-linejoin:round;">
<path d="M73170 78240
L73170 78580
" />
<path d="M73050 78040
L72930 78410
L73240 78410
" />
</g>
<g style="fill:#840000; fill-opacity:0.0; 
stroke:#840000; stroke-width:100; stroke-opacity:1; 
stroke-linecap:round; stroke-linejoin:round;">
</g>
<g style="fill:#840000; fill-opacity:0.0; 
stroke:#840000; stroke-width:60; stroke-opacity:1; 
stroke-linecap:round; stroke-linejoin:round;">
<path d="M92880 78070
L92640 78070
L92620 78310
L92640 78280
L92690 78260
L92810 78260
L92860 78280
L92880 78310
L92910 78360
L92910 78480
L92880 78530
L92860 78550
L92810 78580
L92690 78580
L92640 78550
L92620 78530
" />
</g>
<g style="fill:#840000; fill-opacity:0.0; 
stroke:#840000; stroke-width:100; stroke-opacity:1; 
stroke-linecap:round; stroke-linejoin:round;">
</g>
<g style="fill:#840000; fill-opacity:0.0; 
stroke:#840000; stroke-width:60; stroke-opacity:1; 
stroke-linecap:round; stroke-linejoin:round;">
<path d="M112540 78070
L112440 78070
L112390 78090
L112370 78110
L112320 78190
L112300 78280
L112300 78480
L112320 78530
L112350 78550
L112390 78580
L112490 78580
L112540 78550
L112560 78530
L112590 78480
L112590 78360
L112560 78310
L112540 78280
L112490 78260
L112390 78260
L112350 78280
L112320 78310
L112300 78360
" />
</g>
<g style="fill:#840000; fill-opacity:0.0; 
stroke:#840000; stroke-width:100; stroke-opacity:1; 
stroke-linecap:round; stroke-linejoin:round;">
</g>
<g style="fill:#840000; fill-opacity:0.0; 
stroke:#840000; stroke-width:60; stroke-opacity:1; 
stroke-linecap:round; stroke-linejoin:round;">
<path d="M3940 23620
L4720 23620
" />
</g>
<g style="fill:#840000; fill-opacity:0.0; 
stroke:#840000; stroke-width:100; stroke-opacity:1; 
stroke-linecap:round; stroke-linejoin:round;">
</g>
<g style="fill:#840000; fill-opacity:0.0; 
stroke:#840000; stroke-width:60; stroke-opacity:1; 
stroke-linecap:round; stroke-linejoin:round;">
<path d="M3940 43310
L4720 43310
" />
</g>
<g style="fill:#840000; fill-opacity:0.0; 
stroke:#840000; stroke-width:100; stroke-opacity:1; 
stroke-linecap:round; stroke-linejoin:round;">
</g>
<g style="fill:#840000; fill-opacity:0.0; 
stroke:#840000; stroke-width:60; stroke-opacity:1; 
stroke-linecap:round; stroke-linejoin:round;">
<path d="M3940 62990
L4720 62990
" />
</g>
<g style="fill:#840000; fill-opacity:0.0; 
stroke:#840000; stroke-width:100; stroke-opacity:1; 
stroke-linecap:round; stroke-linejoin:round;">
</g>
<g style="fill:#840000; fill-opacity:0.0; 
stroke:#840000; stroke-width:60; stroke-opacity:1; 
stroke-linecap:round; stroke-linejoin:round;">
<path d="M4210 13860
L4450 13860
" />
<path d="M4160 14010
L4330 13500
L4500 14010
" />
</g>
<g style="fill:#840000; fill-opacity:0.0; 
stroke:#840000; stroke-width:100; stroke-opacity:1; 
stroke-linecap:round; stroke-linejoin:round;">
</g>
<g style="fill:#840000; fill-opacity:0.0; 
stroke:#840000; stroke-width:60; stroke-opacity:1; 
stroke-linecap:round; stroke-linejoin:round;">
<path d="M4370 33420
L4440 33440
L4470 33470
L4490 33520
L4490 33590
L4470 33640
L4440 33660
L4400 33690
L4200 33690
L4200 33180
L4370 33180
L4420 33200
L4440 33220
L4470 33270
L4470 33320
L4440 33370
L4420 33390
L4370 33420
L4200 33420
" />
</g>
<g style="fill:#840000; fill-opacity:0.0; 
stroke:#840000; stroke-width:100; stroke-opacity:1; 
stroke-linecap:round; stroke-linejoin:round;">
</g>
<g style="fill:#840000; fill-opacity:0.0; 
stroke:#840000; stroke-width:60; stroke-opacity:1; 
stroke-linecap:round; stroke-linejoin:round;">
<path d="M4490 53330
L4470 53350
L4400 53380
L4350 53380
L4270 53350
L4230 53300
L4200 53250
L4180 53160
L4180 53080
L4200 52990
L4230 52940
L4270 52890
L4350 52870
L4400 52870
L4470 52890
L4490 52910
" />
</g>
<g style="fill:#840000; fill-opacity:0.0; 
stroke:#840000; stroke-width:100; stroke-opacity:1; 
stroke-linecap:round; stroke-linejoin:round;">
</g>
<g style="fill:#840000; fill-opacity:0.0; 
stroke:#840000; stroke-width:60; stroke-opacity:1; 
stroke-linecap:round; stroke-linejoin:round;">
<path d="M4200 73060
L4200 72550
L4320 72550
L4400 72570
L4440 72620
L4470 72670
L4490 72760
L4490 72840
L4470 72930
L4440 72980
L4400 73030
L4320 73060
L4200 73060
" />
</g>
<g style="fill:#840000; fill-opacity:0.0; 
stroke:#840000; stroke-width:100; stroke-opacity:1; 
stroke-linecap:round; stroke-linejoin:round;">
</g>
<g style="fill:#840000; fill-opacity:0.0; 
stroke:#840000; stroke-width:60; stroke-opacity:1; 
stroke-linecap:round; stroke-linejoin:round;">
<path d="M112990 23620
L112210 23620
" />
</g>
<g style="fill:#840000; fill-opacity:0.0; 
stroke:#840000; stroke-width:100; stroke-opacity:1; 
stroke-linecap:round; stroke-linejoin:round;">
</g>
<g style="fill:#840000; fill-opacity:0.0; 
stroke:#840000; stroke-width:60; stroke-opacity:1; 
stroke-linecap:round; stroke-linejoin:round;">
<path d="M112990 43310
L112210 43310
" />
</g>
<g style="fill:#840000; fill-opacity:0.0; 
stroke:#840000; stroke-width:100; stroke-opacity:1; 
stroke-linecap:round; stroke-linejoin:round;">
</g>
<g style="fill:#840000; fill-opacity:0.0; 
stroke:#840000; stroke-width:60; stroke-opacity:1; 
stroke-linecap:round; stroke-linejoin:round;">
<path d="M112990 62990
L112210 62990
" />
</g>
<g style="fill:#840000; fill-opacity:0.0; 
stroke:#840000; stroke-width:100; stroke-opacity:1; 
stroke-linecap:round; stroke-linejoin:round;">
</g>
<g style="fill:#840000; fill-opacity:0.0; 
stroke:#840000; stroke-width:60; stroke-opacity:1; 
stroke-linecap:round; stroke-linejoin:round;">
<path d="M112480 13860
L112720 13860
" />
<path d="M112430 14010
L112600 13500
L112770 14010
" />
</g>
<g style="fill:#840000; fill-opacity:0.0; 
stroke:#840000; stroke-width:100; stroke-opacity:1; 
stroke-linecap:round; stroke-linejoin:round;">
</g>
<g style="fill:#840000; fill-opacity:0.0; 
stroke:#840000; stroke-width:60; stroke-opacity:1; 
stroke-linecap:round; stroke-linejoin:round;">
<path d="M112640 33420
L112710 33440
L112740 33470
L112760 33520
L112760 33590
L112740 33640
L112710 33660
L112670 33690
L112470 33690
L112470 33180
L112640 33180
L112690 33200
L112710 33220
L112740 33270
L112740 33320
L112710 33370
L112690 33390
L112640 33420
L112470 33420
" />
</g>
<g style="fill:#840000; fill-opacity:0.0; 
stroke:#840000; stroke-width:100; stroke-opacity:1; 
stroke-linecap:round; stroke-linejoin:round;">
</g>
<g style="fill:#840000; fill-opacity:0.0; 
stroke:#840000; stroke-width:60; stroke-opacity:1; 
stroke-linecap:round; stroke-linejoin:round;">
<path d="M112760 53330
L112740 53350
L112670 53380
L112620 53380
L112540 53350
L112500 53300
L112470 53250
L112450 53160
L112450 53080
L112470 52990
L112500 52940
L112540 52890
L112620 52870
L112670 52870
L112740 52890
L112760 52910
" />
</g>
<g style="fill:#840000; fill-opacity:0.0; 
stroke:#840000; stroke-width:100; stroke-opacity:1; 
stroke-linecap:round; stroke-linejoin:round;">
</g>
<g style="fill:#840000; fill-opacity:0.0; 
stroke:#840000; stroke-width:60; stroke-opacity:1; 
stroke-linecap:round; stroke-linejoin:round;">
<path d="M112470 73060
L112470 72550
L112590 72550
L112670 72570
L112710 72620
L112740 72670
L112760 72760
L112760 72840
L112740 72930
L112710 72980
L112670 73030
L112590 73060
L112470 73060
" />
</g>
<g style="fill:#840000; fill-opacity:0.0; 
stroke:#840000; stroke-width:100; stroke-opacity:1; 
stroke-linecap:round; stroke-linejoin:round;">
</g>
<g style="fill:#840000; fill-opacity:0.0; 
stroke:#840000; stroke-width:60; stroke-opacity:1; 
stroke-linecap:round; stroke-linejoin:round;">
<path d="M78880 76290
L78880 75700
L79020 75700
L79110 75730
L79160 75790
L79190 75840
L79220 75950
L79220 76040
L79190 76150
L79160 76210
L79110 76260
L79020 76290
L78880 76290
" />
<path d="M79720 76290
L79720 75980
L79700 75930
L79640 75900
L79530 75900
L79470 75930
" />
<path d="M79720 76260
L79670 76290
L79530 76290
L79470 76260
L79440 76210
L79440 76150
L79470 76100
L79530 76070
L79670 76070
L79720 76040
" />
<path d="M79920 75900
L80140 75900
" />
<path d="M80000 75700
L80000 76210
L80030 76260
L80080 76290
L80140 76290
" />
<path d="M80570 76260
L80510 76290
L80400 76290
L80340 76260
L80310 76210
L80310 75980
L80340 75930
L80400 75900
L80510 75900
L80570 75930
L80590 75980
L80590 76040
L80310 76100
" />
<path d="M80850 76240
L80880 76260
L80850 76290
L80820 76260
L80850 76240
L80850 76290
" />
<path d="M80850 75930
L80880 75950
L80850 75980
L80820 75950
L80850 75930
L80850 75980
" />
</g>
<g style="fill:#840000; fill-opacity:0.0; 
stroke:#840000; stroke-width:100; stroke-opacity:1; 
stroke-linecap:round; stroke-linejoin:round;">
</g>
<g style="fill:#840000; fill-opacity:0.0; 
stroke:#840000; stroke-width:60; stroke-opacity:1; 
stroke-linecap:round; stroke-linejoin:round;">
<path d="M69690 76580
L112210 76580
" />
</g>
<g style="fill:#840000; fill-opacity:0.0; 
stroke:#840000; stroke-width:100; stroke-opacity:1; 
stroke-linecap:round; stroke-linejoin:round;">
</g>
<g style="fill:#840000; fill-opacity:0.0; 
stroke:#840000; stroke-width:60; stroke-opacity:1; 
stroke-linecap:round; stroke-linejoin:round;">
<path d="M70220 77390
L70220 76800
" />
<path d="M70560 77390
L70300 77050
" />
<path d="M70560 76800
L70220 77140
" />
<path d="M70810 77390
L70810 77000
" />
<path d="M70810 76800
L70780 76830
L70810 76860
L70840 76830
L70810 76800
L70810 76860
" />
<path d="M71430 77340
L71400 77360
L71320 77390
L71260 77390
L71170 77360
L71120 77310
L71090 77250
L71060 77140
L71060 77050
L71090 76940
L71120 76890
L71170 76830
L71260 76800
L71320 76800
L71400 76830
L71430 76860
" />
<path d="M71930 77390
L71930 77080
L71910 77030
L71850 77000
L71740 77000
L71680 77030
" />
<path d="M71930 77360
L71880 77390
L71740 77390
L71680 77360
L71650 77310
L71650 77250
L71680 77200
L71740 77170
L71880 77170
L71930 77140
" />
<path d="M72460 77390
L72460 76800
" />
<path d="M72460 77360
L72410 77390
L72290 77390
L72240 77360
L72210 77340
L72180 77280
L72180 77110
L72210 77050
L72240 77030
L72290 77000
L72410 77000
L72460 77030
" />
<path d="M73190 77080
L73390 77080
" />
<path d="M73470 77390
L73190 77390
L73190 76800
L73470 76800
" />
<path d="M73720 77340
L73750 77360
L73720 77390
L73690 77360
L73720 77340
L73720 77390
" />
<path d="M74000 77390
L74000 76800
L74140 76800
L74230 76830
L74280 76890
L74310 76940
L74340 77050
L74340 77140
L74310 77250
L74280 77310
L74230 77360
L74140 77390
L74000 77390
" />
<path d="M74590 77340
L74620 77360
L74590 77390
L74560 77360
L74590 77340
L74590 77390
" />
<path d="M74840 77220
L75120 77220
" />
<path d="M74790 77390
L74980 76800
L75180 77390
" />
<path d="M75380 77340
L75410 77360
L75380 77390
L75350 77360
L75380 77340
L75380 77390
" />
<path d="M76560 77390
L76560 76800
" />
<path d="M76620 77170
L76790 77390
" />
<path d="M76790 77000
L76560 77220
" />
<path d="M77040 77390
L77040 77000
" />
<path d="M77040 76800
L77010 76830
L77040 76860
L77070 76830
L77040 76800
L77040 76860
" />
<path d="M77570 77360
L77520 77390
L77400 77390
L77350 77360
L77320 77340
L77290 77280
L77290 77110
L77320 77050
L77350 77030
L77400 77000
L77520 77000
L77570 77030
" />
<path d="M78080 77390
L78080 77080
L78060 77030
L78000 77000
L77890 77000
L77830 77030
" />
<path d="M78080 77360
L78030 77390
L77890 77390
L77830 77360
L77800 77310
L77800 77250
L77830 77200
L77890 77170
L78030 77170
L78080 77140
" />
<path d="M78610 77390
L78610 76800
" />
<path d="M78610 77360
L78560 77390
L78440 77390
L78390 77360
L78360 77340
L78330 77280
L78330 77110
L78360 77050
L78390 77030
L78440 77000
L78560 77000
L78610 77030
" />
<path d="M79590 77000
L79590 77390
" />
<path d="M79450 76770
L79310 77200
L79680 77200
" />
<path d="M79900 77340
L79930 77360
L79900 77390
L79870 77360
L79900 77340
L79900 77390
" />
<path d="M80290 76800
L80350 76800
L80410 76830
L80430 76860
L80460 76910
L80490 77030
L80490 77170
L80460 77280
L80430 77340
L80410 77360
L80350 77390
L80290 77390
L80240 77360
L80210 77340
L80180 77280
L80150 77170
L80150 77030
L80180 76910
L80210 76860
L80240 76830
L80290 76800
" />
<path d="M80740 77340
L80770 77360
L80740 77390
L80710 77360
L80740 77340
L80740 77390
" />
<path d="M81270 76800
L81160 76800
L81100 76830
L81080 76860
L81020 76940
L80990 77050
L80990 77280
L81020 77340
L81050 77360
L81100 77390
L81220 77390
L81270 77360
L81300 77340
L81330 77280
L81330 77140
L81300 77080
L81270 77050
L81220 77030
L81100 77030
L81050 77050
L81020 77080
L80990 77140
" />
</g>
<g style="fill:#840000; fill-opacity:0.0; 
stroke:#840000; stroke-width:100; stroke-opacity:1; 
stroke-linecap:round; stroke-linejoin:round;">
</g>
<g style="fill:#840000; fill-opacity:0.0; 
stroke:#840000; stroke-width:60; stroke-opacity:1; 
stroke-linecap:round; stroke-linejoin:round;">
<path d="M69690 75400
L112210 75400
" />
</g>
<g style="fill:#840000; fill-opacity:0.0; 
stroke:#840000; stroke-width:100; stroke-opacity:1; 
stroke-linecap:round; stroke-linejoin:round;">
</g>
<g style="fill:#840000; fill-opacity:0.0; 
stroke:#840000; stroke-width:120; stroke-opacity:1; 
stroke-linecap:round; stroke-linejoin:round;">
<path d="M104020 76290
L103820 76010
" />
<path d="M103680 76290
L103680 75700
L103910 75700
L103960 75730
L103990 75760
L104020 75810
L104020 75900
L103990 75950
L103960 75980
L103910 76010
L103680 76010
" />
<path d="M104500 76260
L104440 76290
L104330 76290
L104270 76260
L104240 76210
L104240 75980
L104270 75930
L104330 75900
L104440 75900
L104500 75930
L104520 75980
L104520 76040
L104240 76100
" />
<path d="M104720 75900
L104860 76290
L105010 75900
" />
<path d="M105230 76240
L105260 76260
L105230 76290
L105200 76260
L105230 76240
L105230 76290
" />
<path d="M105230 75930
L105260 75950
L105230 75980
L105200 75950
L105230 75930
L105230 75980
" />
</g>
<g style="fill:#840000; fill-opacity:0.0; 
stroke:#840000; stroke-width:100; stroke-opacity:1; 
stroke-linecap:round; stroke-linejoin:round;">
</g>
<g style="fill:#840000; fill-opacity:0.0; 
stroke:#840000; stroke-width:60; stroke-opacity:1; 
stroke-linecap:round; stroke-linejoin:round;">
<path d="M70190 76260
L70280 76290
L70420 76290
L70470 76260
L70500 76240
L70530 76180
L70530 76120
L70500 76070
L70470 76040
L70420 76010
L70300 75980
L70250 75950
L70220 75930
L70190 75870
L70190 75810
L70220 75760
L70250 75730
L70300 75700
L70450 75700
L70530 75730
" />
<path d="M70780 76290
L70780 75900
" />
<path d="M70780 75700
L70750 75730
L70780 75760
L70810 75730
L70780 75700
L70780 75760
" />
<path d="M71000 75900
L71310 75900
L71000 76290
L71310 76290
" />
<path d="M71770 76260
L71710 76290
L71600 76290
L71540 76260
L71510 76210
L71510 75980
L71540 75930
L71600 75900
L71710 75900
L71770 75930
L71790 75980
L71790 76040
L71510 76100
" />
<path d="M72050 76240
L72080 76260
L72050 76290
L72020 76260
L72050 76240
L72050 76290
" />
<path d="M72050 75930
L72080 75950
L72050 75980
L72020 75950
L72050 75930
L72050 75980
" />
<path d="M72750 76120
L73030 76120
" />
<path d="M72700 76290
L72890 75700
L73090 76290
" />
<path d="M73540 75900
L73540 76290
" />
<path d="M73400 75670
L73260 76100
L73630 76100
" />
</g>
<g style="fill:#840000; fill-opacity:0.0; 
stroke:#840000; stroke-width:100; stroke-opacity:1; 
stroke-linecap:round; stroke-linejoin:round;">
</g>
<g style="fill:#840000; fill-opacity:0.0; 
stroke:#840000; stroke-width:60; stroke-opacity:1; 
stroke-linecap:round; stroke-linejoin:round;">
<path d="M103680 77390
L103680 76800
" />
<path d="M104210 77390
L104210 76800
" />
<path d="M104210 77360
L104160 77390
L104040 77390
L103990 77360
L103960 77340
L103930 77280
L103930 77110
L103960 77050
L103990 77030
L104040 77000
L104160 77000
L104210 77030
" />
<path d="M104490 77340
L104520 77360
L104490 77390
L104460 77360
L104490 77340
L104490 77390
" />
<path d="M104490 77030
L104520 77050
L104490 77080
L104460 77050
L104490 77030
L104490 77080
" />
<path d="M105500 76800
L105220 76800
L105190 77080
L105220 77050
L105280 77030
L105420 77030
L105470 77050
L105500 77080
L105530 77140
L105530 77280
L105500 77340
L105470 77360
L105420 77390
L105280 77390
L105220 77360
L105190 77340
" />
<path d="M106200 76770
L105700 77530
" />
<path d="M106680 76800
L106400 76800
L106370 77080
L106400 77050
L106460 77030
L106600 77030
L106650 77050
L106680 77080
L106710 77140
L106710 77280
L106680 77340
L106650 77360
L106600 77390
L106460 77390
L106400 77360
L106370 77340
" />
</g>
<g style="fill:#840000; fill-opacity:0.0; 
stroke:#840000; stroke-width:100; stroke-opacity:1; 
stroke-linecap:round; stroke-linejoin:round;">
</g>
<g style="fill:#840000; fill-opacity:0.0; 
stroke:#840000; stroke-width:60; stroke-opacity:1; 
stroke-linecap:round; stroke-linejoin:round;">
<path d="M69690 73820
L112210 73820
" />
</g>
<g style="fill:#840000; fill-opacity:0.0; 
stroke:#840000; stroke-width:100; stroke-opacity:1; 
stroke-linecap:round; stroke-linejoin:round;">
</g>
<g style="fill:#840000; fill-opacity:0.0; 
stroke:#840000; stroke-width:160; stroke-opacity:1; 
stroke-linecap:round; stroke-linejoin:round;">
<path d="M70260 74090
L70710 74090
" />
<path d="M70390 74880
L70480 74090
" />
<path d="M70880 74880
L70940 74360
" />
<path d="M70970 74090
L70930 74130
L70960 74170
L71010 74130
L70970 74090
L70960 74170
" />
<path d="M71210 74360
L71510 74360
" />
<path d="M71350 74090
L71270 74770
L71300 74840
L71370 74880
L71450 74880
" />
<path d="M71820 74880
L71750 74840
L71720 74770
L71800 74090
" />
<path d="M72420 74840
L72340 74880
L72190 74880
L72120 74840
L72090 74770
L72130 74470
L72180 74390
L72250 74360
L72400 74360
L72480 74390
L72510 74470
L72500 74540
L72110 74620
" />
<path d="M72800 74810
L72840 74840
L72800 74880
L72760 74840
L72800 74810
L72800 74880
" />
<path d="M72860 74390
L72890 74430
L72850 74470
L72810 74430
L72860 74390
L72850 74470
" />
</g>
<g style="fill:#840000; fill-opacity:0.0; 
stroke:#840000; stroke-width:100; stroke-opacity:1; 
stroke-linecap:round; stroke-linejoin:round;">
</g>
<g style="fill:#840000; fill-opacity:0.0; 
stroke:#840000; stroke-width:60; stroke-opacity:1; 
stroke-linecap:round; stroke-linejoin:round;">
<path d="M70420 73060
L70220 73060
" />
<path d="M70220 73370
L70220 72780
L70500 72780
" />
<path d="M70730 73370
L70730 72980
" />
<path d="M70730 72780
L70700 72810
L70730 72840
L70760 72810
L70730 72780
L70730 72840
" />
<path d="M71090 73370
L71040 73340
L71010 73290
L71010 72780
" />
<path d="M71550 73340
L71490 73370
L71380 73370
L71320 73340
L71290 73290
L71290 73060
L71320 73010
L71380 72980
L71490 72980
L71550 73010
L71570 73060
L71570 73120
L71290 73180
" />
<path d="M71830 73320
L71860 73340
L71830 73370
L71800 73340
L71830 73320
L71830 73370
" />
<path d="M71830 73010
L71860 73030
L71830 73060
L71800 73030
L71830 73010
L71830 73060
" />
<path d="M72560 72980
L72560 73570
" />
<path d="M72560 73010
L72620 72980
L72730 72980
L72790 73010
L72810 73030
L72840 73090
L72840 73260
L72810 73320
L72790 73340
L72730 73370
L72620 73370
L72560 73340
" />
<path d="M73170 73370
L73120 73340
L73090 73320
L73060 73260
L73060 73090
L73090 73030
L73120 73010
L73170 72980
L73260 72980
L73320 73010
L73340 73030
L73370 73090
L73370 73260
L73340 73320
L73320 73340
L73260 73370
L73170 73370
" />
<path d="M73560 72980
L73680 73370
L73790 73090
L73900 73370
L74010 72980
" />
<path d="M74470 73340
L74410 73370
L74300 73370
L74240 73340
L74210 73290
L74210 73060
L74240 73010
L74300 72980
L74410 72980
L74470 73010
L74490 73060
L74490 73120
L74210 73180
" />
<path d="M74750 73370
L74750 72980
" />
<path d="M74750 73090
L74780 73030
L74810 73010
L74860 72980
L74920 72980
" />
<path d="M75120 73320
L75150 73340
L75120 73370
L75090 73340
L75120 73320
L75120 73370
" />
<path d="M75370 73340
L75430 73370
L75540 73370
L75600 73340
L75630 73290
L75630 73260
L75600 73200
L75540 73180
L75460 73180
L75400 73150
L75370 73090
L75370 73060
L75400 73010
L75460 72980
L75540 72980
L75600 73010
" />
<path d="M76130 73340
L76080 73370
L75960 73370
L75910 73340
L75880 73320
L75850 73260
L75850 73090
L75880 73030
L75910 73010
L75960 72980
L76080 72980
L76130 73010
" />
<path d="M76390 73370
L76390 72780
" />
<path d="M76640 73370
L76640 73060
L76620 73010
L76560 72980
L76470 72980
L76420 73010
L76390 73030
" />
</g>
<g style="fill:#840000; fill-opacity:0.0; 
stroke:#840000; stroke-width:100; stroke-opacity:1; 
stroke-linecap:round; stroke-linejoin:round;">
</g>
<g style="fill:#840000; fill-opacity:0.0; 
stroke:#840000; stroke-width:60; stroke-opacity:1; 
stroke-linecap:round; stroke-linejoin:round;">
<path d="M69690 71460
L112210 71460
" />
</g>
<g style="fill:#840000; fill-opacity:0.0; 
stroke:#840000; stroke-width:100; stroke-opacity:1; 
stroke-linecap:round; stroke-linejoin:round;">
</g>
<g style="fill:#840000; fill-opacity:0.0; 
stroke:#840000; stroke-width:60; stroke-opacity:1; 
stroke-linecap:round; stroke-linejoin:round;">
<path d="M70190 72280
L70280 72310
L70420 72310
L70470 72280
L70500 72260
L70530 72200
L70530 72140
L70500 72090
L70470 72060
L70420 72030
L70300 72000
L70250 71970
L70220 71950
L70190 71890
L70190 71830
L70220 71780
L70250 71750
L70300 71720
L70450 71720
L70530 71750
" />
<path d="M70780 72310
L70780 71720
" />
<path d="M71030 72310
L71030 72000
L71010 71950
L70950 71920
L70860 71920
L70810 71950
L70780 71970
" />
<path d="M71540 72280
L71480 72310
L71370 72310
L71310 72280
L71280 72230
L71280 72000
L71310 71950
L71370 71920
L71480 71920
L71540 71950
L71560 72000
L71560 72060
L71280 72120
" />
<path d="M72050 72280
L71990 72310
L71880 72310
L71820 72280
L71790 72230
L71790 72000
L71820 71950
L71880 71920
L71990 71920
L72050 71950
L72070 72000
L72070 72060
L71790 72120
" />
<path d="M72250 71920
L72470 71920
" />
<path d="M72330 71720
L72330 72230
L72360 72280
L72410 72310
L72470 72310
" />
<path d="M72670 72260
L72700 72280
L72670 72310
L72640 72280
L72670 72260
L72670 72310
" />
<path d="M72670 71950
L72700 71970
L72670 72000
L72640 71970
L72670 71950
L72670 72000
" />
<path d="M73820 71690
L73320 72450
" />
<path d="M74020 72310
L74020 71720
L74250 71720
L74300 71750
L74330 71780
L74360 71830
L74360 71920
L74330 71970
L74300 72000
L74250 72030
L74020 72030
" />
<path d="M74690 72310
L74640 72280
L74610 72260
L74580 72200
L74580 72030
L74610 71970
L74640 71950
L74690 71920
L74780 71920
L74840 71950
L74860 71970
L74890 72030
L74890 72200
L74860 72260
L74840 72280
L74780 72310
L74690 72310
" />
<path d="M75080 71920
L75200 72310
L75310 72030
L75420 72310
L75530 71920
" />
<path d="M75990 72280
L75930 72310
L75820 72310
L75760 72280
L75730 72230
L75730 72000
L75760 71950
L75820 71920
L75930 71920
L75990 71950
L76010 72000
L76010 72060
L75730 72120
" />
<path d="M76270 72310
L76270 71920
" />
<path d="M76270 72030
L76300 71970
L76330 71950
L76380 71920
L76440 71920
" />
<path d="M77060 71690
L76560 72450
" />
</g>
<g style="fill:#840000; fill-opacity:0.0; 
stroke:#840000; stroke-width:100; stroke-opacity:1; 
stroke-linecap:round; stroke-linejoin:round;">
</g>
<g style="fill:#840000; fill-opacity:0.0; 
stroke:#840000; stroke-width:60; stroke-opacity:1; 
stroke-linecap:round; stroke-linejoin:round;">
<path d="M77560 75400
L77560 76580
" />
</g>
<g style="fill:#840000; fill-opacity:0.0; 
stroke:#840000; stroke-width:100; stroke-opacity:1; 
stroke-linecap:round; stroke-linejoin:round;">
</g>
<g style="fill:#840000; fill-opacity:0.0; 
stroke:#840000; stroke-width:60; stroke-opacity:1; 
stroke-linecap:round; stroke-linejoin:round;">
<path d="M102760 75400
L102760 77960
" />
</g>
<g style="fill:#840000; fill-opacity:0.0; 
stroke:#840000; stroke-width:0; stroke-opacity:1; 
stroke-linecap:round; stroke-linejoin:round;">
</g>
<g style="fill:#840000; fill-opacity:0.0; 
stroke:#840000; stroke-width:80; stroke-opacity:1; 
stroke-linecap:round; stroke-linejoin:round;">
<rect x="66700" y="39300" width="600" height="1400" rx="0" />
</g>
<g style="fill:#840000; fill-opacity:0.0; 
stroke:#840000; stroke-width:60; stroke-opacity:1; 
stroke-linecap:round; stroke-linejoin:round;">
<path d="M67000 39300
L67000 39000
" />
<path d="M67000 40700
L67000 41000
" />
</g>
<g style="fill:#008484; fill-opacity:0.0; 
stroke:#008484; stroke-width:60; stroke-opacity:1; 
stroke-linecap:round; stroke-linejoin:round;">
<path d="M67700 40060
L67540 39820
" />
<path d="M67420 40060
L67420 39560
L67610 39560
L67660 39580
L67680 39600
L67700 39650
L67700 39720
L67680 39770
L67660 39790
L67610 39820
L67420 39820
" />
<path d="M68180 40060
L67900 40060
" />
<path d="M68040 40060
L68040 39560
L67990 39630
L67940 39680
L67900 39700
" />
<path d="M68350 39560
L68660 39560
L68490 39750
L68570 39750
L68610 39770
L68640 39790
L68660 39840
L68660 39960
L68640 40010
L68610 40030
L68570 40060
L68420 40060
L68380 40030
L68350 40010
" />
<path d="M67370 40160
L67680 40160
L67510 40350
L67590 40350
L67630 40370
L67660 40390
L67680 40440
L67680 40560
L67660 40610
L67630 40630
L67590 40660
L67440 40660
L67400 40630
L67370 40610
" />
<path d="M67850 40160
L68160 40160
L67990 40350
L68070 40350
L68110 40370
L68140 40390
L68160 40440
L68160 40560
L68140 40610
L68110 40630
L68070 40660
L67920 40660
L67880 40630
L67850 40610
" />
<path d="M68380 40660
L68380 40160
" />
<path d="M68430 40470
L68570 40660
" />
<path d="M68570 40320
L68380 40510
" />
<path d="M68760 40200
L68780 40180
L68830 40160
L68950 40160
L68990 40180
L69020 40200
L69040 40250
L69040 40300
L69020 40370
L68730 40660
L69040 40660
" />
</g>
<g style="fill:#008484; fill-opacity:0.0; 
stroke:#008484; stroke-width:0; stroke-opacity:1; 
stroke-linecap:round; stroke-linejoin:round;">
</g>
<g style="fill:#840000; fill-opacity:0.0; 
stroke:#840000; stroke-width:0; stroke-opacity:1; 
stroke-linecap:round; stroke-linejoin:round;">
</g>
<g style="fill:#840000; fill-opacity:0.0; 
stroke:#840000; stroke-width:80; stroke-opacity:1; 
stroke-linecap:round; stroke-linejoin:round;">
<rect x="66700" y="41300" width="600" height="1400" rx="0" />
</g>
<g style="fill:#840000; fill-opacity:0.0; 
stroke:#840000; stroke-width:60; stroke-opacity:1; 
stroke-linecap:round; stroke-linejoin:round;">
<path d="M67000 41300
L67000 41000
" />
<path d="M67000 42700
L67000 43000
" />
</g>
<g style="fill:#008484; fill-opacity:0.0; 
stroke:#008484; stroke-width:60; stroke-opacity:1; 
stroke-linecap:round; stroke-linejoin:round;">
<path d="M67700 42060
L67540 41820
" />
<path d="M67420 42060
L67420 41560
L67610 41560
L67660 41580
L67680 41600
L67700 41650
L67700 41720
L67680 41770
L67660 41790
L67610 41820
L67420 41820
" />
<path d="M68180 42060
L67900 42060
" />
<path d="M68040 42060
L68040 41560
L67990 41630
L67940 41680
L67900 41700
" />
<path d="M68610 41720
L68610 42060
" />
<path d="M68490 41530
L68380 41890
L68680 41890
" />
<path d="M67400 42200
L67420 42180
L67470 42160
L67590 42160
L67630 42180
L67660 42200
L67680 42250
L67680 42300
L67660 42370
L67370 42660
L67680 42660
" />
<path d="M68110 42160
L68020 42160
L67970 42180
L67950 42200
L67900 42280
L67880 42370
L67880 42560
L67900 42610
L67920 42630
L67970 42660
L68070 42660
L68110 42630
L68140 42610
L68160 42560
L68160 42440
L68140 42390
L68110 42370
L68070 42350
L67970 42350
L67920 42370
L67900 42390
L67880 42440
" />
<path d="M68380 42660
L68380 42160
" />
<path d="M68430 42470
L68570 42660
" />
<path d="M68570 42320
L68380 42510
" />
<path d="M69040 42660
L68760 42660
" />
<path d="M68900 42660
L68900 42160
L68850 42230
L68800 42280
L68760 42300
" />
</g>
<g style="fill:#008484; fill-opacity:0.0; 
stroke:#008484; stroke-width:0; stroke-opacity:1; 
stroke-linecap:round; stroke-linejoin:round;">
</g>
<g style="fill:#840000; fill-opacity:0.0; 
stroke:#840000; stroke-width:0; stroke-opacity:1; 
stroke-linecap:round; stroke-linejoin:round;">
</g>
<g style="fill:#840000; fill-opacity:0.0; 
stroke:#840000; stroke-width:60; stroke-opacity:1; 
stroke-linecap:round; stroke-linejoin:round;">
<polyline fill="none;"
points="62000,44000
62000,44500
62500,44500
62000,45000
61500,44500
62000,44500
" /> 
</g>
<g style="fill:#008484; fill-opacity:0.0; 
stroke:#008484; stroke-width:60; stroke-opacity:1; 
stroke-linecap:round; stroke-linejoin:round;">
<path d="M61620 45280
L61570 45260
L61500 45260
L61430 45280
L61380 45330
L61360 45380
L61340 45470
L61340 45540
L61360 45640
L61380 45680
L61430 45730
L61500 45760
L61550 45760
L61620 45730
L61640 45710
L61640 45540
L61550 45540
" />
<path d="M61860 45760
L61860 45260
L62140 45760
L62140 45260
" />
<path d="M62380 45760
L62380 45260
L62500 45260
L62570 45280
L62620 45330
L62640 45380
L62660 45470
L62660 45540
L62640 45640
L62620 45680
L62570 45730
L62500 45760
L62380 45760
" />
</g>
<g style="fill:#008484; fill-opacity:0.0; 
stroke:#008484; stroke-width:0; stroke-opacity:1; 
stroke-linecap:round; stroke-linejoin:round;">
</g>
<g style="fill:#840000; fill-opacity:0.0; 
stroke:#840000; stroke-width:0; stroke-opacity:1; 
stroke-linecap:round; stroke-linejoin:round;">
</g>
<g style="fill:#840000; fill-opacity:0.0; 
stroke:#840000; stroke-width:60; stroke-opacity:1; 
stroke-linecap:round; stroke-linejoin:round;">
<polyline fill="none;"
points="70000,44000
70000,44500
70500,44500
70000,45000
69500,44500
70000,44500
" /> 
</g>
<g style="fill:#008484; fill-opacity:0.0; 
stroke:#008484; stroke-width:60; stroke-opacity:1; 
stroke-linecap:round; stroke-linejoin:round;">
<path d="M69620 45280
L69570 45260
L69500 45260
L69430 45280
L69380 45330
L69360 45380
L69340 45470
L69340 45540
L69360 45640
L69380 45680
L69430 45730
L69500 45760
L69550 45760
L69620 45730
L69640 45710
L69640 45540
L69550 45540
" />
<path d="M69860 45760
L69860 45260
L70140 45760
L70140 45260
" />
<path d="M70380 45760
L70380 45260
L70500 45260
L70570 45280
L70620 45330
L70640 45380
L70660 45470
L70660 45540
L70640 45640
L70620 45680
L70570 45730
L70500 45760
L70380 45760
" />
</g>
<g style="fill:#008484; fill-opacity:0.0; 
stroke:#008484; stroke-width:0; stroke-opacity:1; 
stroke-linecap:round; stroke-linejoin:round;">
</g>
<g style="fill:#840000; fill-opacity:0.0; 
stroke:#840000; stroke-width:0; stroke-opacity:1; 
stroke-linecap:round; stroke-linejoin:round;">
</g>
<g style="fill:#840000; fill-opacity:0.0; 
stroke:#840000; stroke-width:60; stroke-opacity:1; 
stroke-linecap:round; stroke-linejoin:round;">
<polyline fill="none;"
points="72700,37500
73000,37000
" /> 
<polyline fill="none;"
points="73000,38000
73000,37000
" /> 
<polyline fill="none;"
points="73000,37000
73300,37500
" /> 
</g>
<g style="fill:#008484; fill-opacity:0.0; 
stroke:#008484; stroke-width:60; stroke-opacity:1; 
stroke-linecap:round; stroke-linejoin:round;">
<path d="M72120 36670
L72500 36670
" />
<path d="M72310 36860
L72310 36480
" />
<path d="M72720 36400
L72740 36380
L72790 36360
L72910 36360
L72950 36380
L72980 36400
L73000 36450
L73000 36500
L72980 36570
L72690 36860
L73000 36860
" />
<path d="M73150 36360
L73310 36860
L73480 36360
" />
<path d="M73720 36570
L73670 36550
L73650 36520
L73630 36480
L73630 36450
L73650 36400
L73670 36380
L73720 36360
L73820 36360
L73860 36380
L73890 36400
L73910 36450
L73910 36480
L73890 36520
L73860 36550
L73820 36570
L73720 36570
L73670 36590
L73650 36620
L73630 36670
L73630 36760
L73650 36810
L73670 36830
L73720 36860
L73820 36860
L73860 36830
L73890 36810
L73910 36760
L73910 36670
L73890 36620
L73860 36590
L73820 36570
" />
</g>
<g style="fill:#008484; fill-opacity:0.0; 
stroke:#008484; stroke-width:0; stroke-opacity:1; 
stroke-linecap:round; stroke-linejoin:round;">
</g>
<g style="fill:#840000; fill-opacity:0.0; 
stroke:#840000; stroke-width:0; stroke-opacity:1; 
stroke-linecap:round; stroke-linejoin:round;">
</g>
<g style="fill:#840000; fill-opacity:0.0; 
stroke:#840000; stroke-width:60; stroke-opacity:1; 
stroke-linecap:round; stroke-linejoin:round;">
<circle cx="57000" cy="37250" r="250" /> 
<polyline fill="none;"
points="57000,38000
57000,37500
" /> 
</g>
<g style="fill:#008484; fill-opacity:0.0; 
stroke:#008484; stroke-width:60; stroke-opacity:1; 
stroke-linecap:round; stroke-linejoin:round;">
<path d="M56340 36260
L56500 36760
L56670 36260
" />
<path d="M57120 36710
L57100 36730
L57030 36760
L56980 36760
L56910 36730
L56860 36680
L56840 36640
L56820 36540
L56820 36470
L56840 36380
L56860 36330
L56910 36280
L56980 36260
L57030 36260
L57100 36280
L57120 36300
" />
<path d="M57620 36710
L57600 36730
L57530 36760
L57480 36760
L57410 36730
L57360 36680
L57340 36640
L57320 36540
L57320 36470
L57340 36380
L57360 36330
L57410 36280
L57480 36260
L57530 36260
L57600 36280
L57620 36300
" />
</g>
<g style="fill:#008484; fill-opacity:0.0; 
stroke:#008484; stroke-width:0; stroke-opacity:1; 
stroke-linecap:round; stroke-linejoin:round;">
</g>
<g style="fill:#840000; fill-opacity:0.0; 
stroke:#840000; stroke-width:0; stroke-opacity:1; 
stroke-linecap:round; stroke-linejoin:round;">
</g>
<g style="fill:#840000; fill-opacity:0.0; 
stroke:#840000; stroke-width:60; stroke-opacity:1; 
stroke-linecap:round; stroke-linejoin:round;">
<polyline fill="none;"
points="44500,42000
45000,41500
" /> 
<polyline fill="none;"
points="47000,41500
47500,42000
" /> 
<polyline fill="none;"
points="46500,40000
47000,39500
" /> 
<polyline fill="none;"
points="45500,40000
45000,39500
" /> 
<polyline fill="none;"
points="45000,42500
45500,42000
44750,41750
45000,42500
" /> 
<polyline fill="none;"
points="46500,42000
47000,42500
47250,41750
46500,42000
" /> 
<polyline fill="none;"
points="45000,40500
44500,40000
45250,39750
45000,40500
" /> 
<polyline fill="none;"
points="46750,39750
47000,40500
47500,40000
46750,39750
" /> 
<polyline fill="none;"
points="46000,43000
48000,41000
46000,39000
44000,41000
46000,43000
" /> 
<path d="M46000 39000
L46000 38000
" />
</g>
<g style="fill:#008484; fill-opacity:0.0; 
stroke:#008484; stroke-width:60; stroke-opacity:1; 
stroke-linecap:round; stroke-linejoin:round;">
<path d="M46040 40000
L46040 39620
" />
<path d="M46230 39810
L45850 39810
" />
</g>
<g style="fill:#840000; fill-opacity:0.0; 
stroke:#840000; stroke-width:60; stroke-opacity:1; 
stroke-linecap:round; stroke-linejoin:round;">
<path d="M45880 38360
L45880 38640
" />
<path d="M45880 38500
L45380 38500
L45450 38550
L45500 38600
L45520 38640
" />
<path d="M46000 43000
L46000 44000
" />
</g>
<g style="fill:#008484; fill-opacity:0.0; 
stroke:#008484; stroke-width:60; stroke-opacity:1; 
stroke-linecap:round; stroke-linejoin:round;">
<path d="M46040 42380
L46040 42000
" />
</g>
<g style="fill:#840000; fill-opacity:0.0; 
stroke:#840000; stroke-width:60; stroke-opacity:1; 
stroke-linecap:round; stroke-linejoin:round;">
<path d="M45420 43640
L45400 43620
L45380 43570
L45380 43450
L45400 43410
L45420 43380
L45470 43360
L45520 43360
L45590 43380
L45880 43670
L45880 43360
" />
<path d="M44000 41000
L43000 41000
" />
<path d="M43330 40380
L43640 40380
L43470 40570
L43550 40570
L43590 40590
L43620 40610
L43640 40660
L43640 40780
L43620 40830
L43590 40850
L43550 40880
L43400 40880
L43360 40850
L43330 40830
" />
<path d="M48000 41000
L49000 41000
" />
<path d="M48590 40540
L48590 40880
" />
<path d="M48470 40350
L48360 40710
L48660 40710
" />
</g>
<g style="fill:#008484; fill-opacity:0.0; 
stroke:#008484; stroke-width:60; stroke-opacity:1; 
stroke-linecap:round; stroke-linejoin:round;">
<path d="M43510 40380
L43010 40380
L43010 40260
L43030 40190
L43080 40140
L43130 40120
L43220 40100
L43290 40100
L43390 40120
L43430 40140
L43480 40190
L43510 40260
L43510 40380
" />
<path d="M43510 39620
L43510 39900
" />
<path d="M43510 39760
L43010 39760
L43080 39810
L43130 39860
L43150 39900
" />
<path d="M44260 40380
L43760 40380
L43760 40260
L43780 40190
L43830 40140
L43880 40120
L43970 40100
L44040 40100
L44140 40120
L44180 40140
L44230 40190
L44260 40260
L44260 40380
" />
<path d="M44300 40000
L44300 39620
" />
<path d="M43990 39330
L44020 39260
L44040 39240
L44090 39220
L44160 39220
L44210 39240
L44230 39260
L44260 39310
L44260 39500
L43760 39500
L43760 39330
L43780 39290
L43800 39260
L43850 39240
L43900 39240
L43950 39260
L43970 39290
L43990 39330
L43990 39500
" />
<path d="M44260 39000
L43920 39000
" />
<path d="M44020 39000
L43970 38980
L43950 38950
L43920 38910
L43920 38860
" />
<path d="M44260 38690
L43920 38690
" />
<path d="M43760 38690
L43780 38710
L43800 38690
L43780 38670
L43760 38690
L43800 38690
" />
<path d="M44260 38240
L43760 38240
" />
<path d="M44230 38240
L44260 38280
L44260 38380
L44230 38430
L44210 38450
L44160 38470
L44020 38470
L43970 38450
L43950 38430
L43920 38380
L43920 38280
L43950 38240
" />
<path d="M43920 37790
L44330 37790
L44380 37810
L44400 37830
L44420 37880
L44420 37950
L44400 38000
" />
<path d="M44230 37790
L44260 37830
L44260 37930
L44230 37980
L44210 38000
L44160 38020
L44020 38020
L43970 38000
L43950 37980
L43920 37930
L43920 37830
L43950 37790
" />
<path d="M44230 37360
L44260 37410
L44260 37500
L44230 37550
L44180 37570
L43990 37570
L43950 37550
L43920 37500
L43920 37410
L43950 37360
L43990 37340
L44040 37340
L44090 37570
" />
<path d="M44300 37240
L44300 36860
" />
<path d="M44070 36740
L44070 36360
" />
<path d="M44260 36550
L43880 36550
" />
<path d="M44070 36120
L44070 35740
" />
<path d="M44110 35520
L44110 35290
" />
<path d="M44260 35570
L43760 35410
L44260 35240
" />
<path d="M44110 35090
L44110 34860
" />
<path d="M44260 35140
L43760 34980
L44260 34810
" />
</g>
<g style="fill:#008484; fill-opacity:0.0; 
stroke:#008484; stroke-width:0; stroke-opacity:1; 
stroke-linecap:round; stroke-linejoin:round;">
</g>
<g style="fill:#840000; fill-opacity:0.0; 
stroke:#840000; stroke-width:0; stroke-opacity:1; 
stroke-linecap:round; stroke-linejoin:round;">
</g>
<g style="fill:#840000; fill-opacity:0.0; 
stroke:#840000; stroke-width:60; stroke-opacity:1; 
stroke-linecap:round; stroke-linejoin:round;">
<polyline fill="none;"
points="46000,44000
46000,44500
46500,44500
46000,45000
45500,44500
46000,44500
" /> 
</g>
<g style="fill:#008484; fill-opacity:0.0; 
stroke:#008484; stroke-width:60; stroke-opacity:1; 
stroke-linecap:round; stroke-linejoin:round;">
<path d="M45620 45280
L45570 45260
L45500 45260
L45430 45280
L45380 45330
L45360 45380
L45340 45470
L45340 45540
L45360 45640
L45380 45680
L45430 45730
L45500 45760
L45550 45760
L45620 45730
L45640 45710
L45640 45540
L45550 45540
" />
<path d="M45860 45760
L45860 45260
L46140 45760
L46140 45260
" />
<path d="M46380 45760
L46380 45260
L46500 45260
L46570 45280
L46620 45330
L46640 45380
L46660 45470
L46660 45540
L46640 45640
L46620 45680
L46570 45730
L46500 45760
L46380 45760
" />
</g>
<g style="fill:#008484; fill-opacity:0.0; 
stroke:#008484; stroke-width:0; stroke-opacity:1; 
stroke-linecap:round; stroke-linejoin:round;">
</g>
<g style="fill:#840000; fill-opacity:0.0; 
stroke:#840000; stroke-width:0; stroke-opacity:1; 
stroke-linecap:round; stroke-linejoin:round;">
</g>
<g style="fill:#840000; fill-opacity:0.0; 
stroke:#840000; stroke-width:60; stroke-opacity:1; 
stroke-linecap:round; stroke-linejoin:round;">
<circle cx="46000" cy="37250" r="250" /> 
<polyline fill="none;"
points="46000,38000
46000,37500
" /> 
</g>
<g style="fill:#008484; fill-opacity:0.0; 
stroke:#008484; stroke-width:60; stroke-opacity:1; 
stroke-linecap:round; stroke-linejoin:round;">
<path d="M45340 36260
L45500 36760
L45670 36260
" />
<path d="M46120 36710
L46100 36730
L46030 36760
L45980 36760
L45910 36730
L45860 36680
L45840 36640
L45820 36540
L45820 36470
L45840 36380
L45860 36330
L45910 36280
L45980 36260
L46030 36260
L46100 36280
L46120 36300
" />
<path d="M46620 36710
L46600 36730
L46530 36760
L46480 36760
L46410 36730
L46360 36680
L46340 36640
L46320 36540
L46320 36470
L46340 36380
L46360 36330
L46410 36280
L46480 36260
L46530 36260
L46600 36280
L46620 36300
" />
</g>
<g style="fill:#848400; fill-opacity:0.0; 
stroke:#848400; stroke-width:60; stroke-opacity:1; 
stroke-linecap:round; stroke-linejoin:round;">
<path d="M43270 45220
L42990 45420
" />
<path d="M43270 45570
L42670 45570
L42670 45340
L42700 45280
L42730 45250
L42790 45220
L42870 45220
L42930 45250
L42960 45280
L42990 45340
L42990 45570
" />
<path d="M43100 45000
L43100 44710
" />
<path d="M43270 45050
L42670 44850
L43270 44650
" />
<path d="M43270 44460
L42670 44460
" />
<path d="M43270 43880
L43270 44170
L42670 44170
" />
<path d="M43330 43820
L43330 43360
" />
<path d="M43270 42870
L42990 43070
" />
<path d="M43270 43220
L42670 43220
L42670 42990
L42700 42930
L42730 42900
L42790 42870
L42870 42870
L42930 42900
L42960 42930
L42990 42990
L42990 43220
" />
</g>
<g style="fill:#848400; fill-opacity:0.0; 
stroke:#848400; stroke-width:100; stroke-opacity:1; 
stroke-linecap:round; stroke-linejoin:round;">
<polyline fill="none;"
points="43000,42000
43300,42300
43300,42600
42700,42600
42700,42300
43000,42000
" /> 
</g>
<g style="fill:#848400; fill-opacity:0.0; 
stroke:#848400; stroke-width:60; stroke-opacity:1; 
stroke-linecap:round; stroke-linejoin:round;">
<path d="M49270 45110
L48990 45310
" />
<path d="M49270 45460
L48670 45460
L48670 45230
L48700 45170
L48730 45140
L48790 45110
L48870 45110
L48930 45140
L48960 45170
L48990 45230
L48990 45460
" />
<path d="M49100 44890
L49100 44600
" />
<path d="M49270 44940
L48670 44740
L49270 44540
" />
<path d="M49270 44350
L48670 44350
" />
<path d="M49270 43770
L49270 44060
L48670 44060
" />
<path d="M49330 43710
L49330 43250
" />
<path d="M49270 42820
L49270 43110
L48670 43110
" />
</g>
<g style="fill:#848400; fill-opacity:0.0; 
stroke:#848400; stroke-width:100; stroke-opacity:1; 
stroke-linecap:round; stroke-linejoin:round;">
<polyline fill="none;"
points="49000,42000
49300,42300
49300,42600
48700,42600
48700,42300
49000,42000
" /> 
</g>
<g style="fill:#848400; fill-opacity:0.0; 
stroke:#848400; stroke-width:60; stroke-opacity:1; 
stroke-linecap:round; stroke-linejoin:round;">
<path d="M39170 40410
L39770 40210
L39170 40010
" />
<path d="M39710 39470
L39740 39500
L39770 39590
L39770 39650
L39740 39730
L39690 39790
L39630 39820
L39510 39850
L39430 39850
L39310 39820
L39260 39790
L39200 39730
L39170 39650
L39170 39590
L39200 39500
L39230 39470
" />
<path d="M39710 38870
L39740 38900
L39770 38990
L39770 39050
L39740 39130
L39690 39190
L39630 39220
L39510 39250
L39430 39250
L39310 39220
L39260 39190
L39200 39130
L39170 39050
L39170 38990
L39200 38900
L39230 38870
" />
</g>
<g style="fill:#848400; fill-opacity:0.0; 
stroke:#848400; stroke-width:100; stroke-opacity:1; 
stroke-linecap:round; stroke-linejoin:round;">
<polyline fill="none;"
points="39500,38600
39800,38300
39800,38000
39200,38000
39200,38300
39500,38600
" /> 
</g>
<g style="fill:#848400; fill-opacity:0.0; 
stroke:#848400; stroke-width:0; stroke-opacity:1; 
stroke-linecap:round; stroke-linejoin:round;">
</g>
<g style="fill:#840000; fill-opacity:0.0; 
stroke:#840000; stroke-width:0; stroke-opacity:1; 
stroke-linecap:round; stroke-linejoin:round;">
</g>
<g style="fill:#840000; fill-opacity:0.0; 
stroke:#840000; stroke-width:60; stroke-opacity:1; 
stroke-linecap:round; stroke-linejoin:round;">
<polyline fill="none;"
points="55300,38600
55300,39400
" /> 
<polyline fill="none;"
points="55300,39000
54700,39000
" /> 
<polyline fill="none;"
points="54700,38600
55300,39000
54700,39400
54700,38600
" /> 
<path d="M55300 39000
L56000 39000
" />
<path d="M54700 39000
L54000 39000
" />
</g>
<g style="fill:#008484; fill-opacity:0.0; 
stroke:#008484; stroke-width:60; stroke-opacity:1; 
stroke-linecap:round; stroke-linejoin:round;">
<path d="M54640 39990
L54640 39490
L54760 39490
L54830 39510
L54880 39560
L54900 39610
L54920 39700
L54920 39770
L54900 39870
L54880 39910
L54830 39960
L54760 39990
L54640 39990
" />
<path d="M55120 39530
L55140 39510
L55190 39490
L55310 39490
L55350 39510
L55380 39530
L55400 39580
L55400 39630
L55380 39700
L55090 39990
L55400 39990
" />
<path d="M53620 38390
L53620 37890
L53740 37890
L53810 37910
L53860 37960
L53880 38010
L53900 38100
L53900 38170
L53880 38270
L53860 38310
L53810 38360
L53740 38390
L53620 38390
" />
<path d="M54000 38430
L54380 38430
" />
<path d="M54480 38360
L54550 38390
L54670 38390
L54710 38360
L54740 38340
L54760 38290
L54760 38240
L54740 38200
L54710 38170
L54670 38150
L54570 38120
L54520 38100
L54500 38080
L54480 38030
L54480 37980
L54500 37930
L54520 37910
L54570 37890
L54690 37890
L54760 37910
" />
<path d="M54980 38390
L54980 38050
" />
<path d="M54980 38100
L55000 38080
L55050 38050
L55120 38050
L55170 38080
L55190 38120
L55190 38390
" />
<path d="M55190 38120
L55220 38080
L55260 38050
L55340 38050
L55380 38080
L55410 38120
L55410 38390
" />
<path d="M55860 38390
L55860 38120
L55840 38080
L55790 38050
L55700 38050
L55650 38080
" />
<path d="M55860 38360
L55820 38390
L55700 38390
L55650 38360
L55630 38310
L55630 38270
L55650 38220
L55700 38200
L55820 38200
L55860 38170
" />
<path d="M56170 38390
L56120 38360
L56100 38310
L56100 37890
" />
<path d="M56430 38390
L56380 38360
L56360 38310
L56360 37890
" />
</g>
<g style="fill:#848400; fill-opacity:0.0; 
stroke:#848400; stroke-width:60; stroke-opacity:1; 
stroke-linecap:round; stroke-linejoin:round;">
<path d="M35170 39410
L35170 39700
L35460 39730
L35430 39700
L35400 39640
L35400 39500
L35430 39440
L35460 39410
L35510 39380
L35660 39380
L35710 39410
L35740 39440
L35770 39500
L35770 39640
L35740 39700
L35710 39730
" />
<path d="M35170 39210
L35770 39010
L35170 38810
" />
</g>
<g style="fill:#848400; fill-opacity:0.0; 
stroke:#848400; stroke-width:100; stroke-opacity:1; 
stroke-linecap:round; stroke-linejoin:round;">
<polyline fill="none;"
points="35500,38000
35800,38300
35800,38600
35200,38600
35200,38300
35500,38000
" /> 
</g>
<g style="fill:#848400; fill-opacity:0.0; 
stroke:#848400; stroke-width:0; stroke-opacity:1; 
stroke-linecap:round; stroke-linejoin:round;">
</g>
<g style="fill:#840000; fill-opacity:0.0; 
stroke:#840000; stroke-width:0; stroke-opacity:1; 
stroke-linecap:round; stroke-linejoin:round;">
</g>
<g style="fill:#840000; fill-opacity:0.0; 
stroke:#840000; stroke-width:60; stroke-opacity:1; 
stroke-linecap:round; stroke-linejoin:round;">
<polyline fill="none;"
points="52700,37500
53000,37000
" /> 
<polyline fill="none;"
points="53000,38000
53000,37000
" /> 
<polyline fill="none;"
points="53000,37000
53300,37500
" /> 
</g>
<g style="fill:#008484; fill-opacity:0.0; 
stroke:#008484; stroke-width:60; stroke-opacity:1; 
stroke-linecap:round; stroke-linejoin:round;">
<path d="M52360 36670
L52740 36670
" />
<path d="M52550 36860
L52550 36480
" />
<path d="M53220 36360
L52980 36360
L52960 36590
L52980 36570
L53030 36550
L53150 36550
L53190 36570
L53220 36590
L53240 36640
L53240 36760
L53220 36810
L53190 36830
L53150 36860
L53030 36860
L52980 36830
L52960 36810
" />
<path d="M53390 36360
L53550 36860
L53720 36360
" />
</g>
<g style="fill:#008484; fill-opacity:0.0; 
stroke:#008484; stroke-width:0; stroke-opacity:1; 
stroke-linecap:round; stroke-linejoin:round;">
</g>
<g style="fill:#840000; fill-opacity:0.0; 
stroke:#840000; stroke-width:0; stroke-opacity:1; 
stroke-linecap:round; stroke-linejoin:round;">
</g>
<g style="fill:#840000; fill-opacity:0.0; 
stroke:#840000; stroke-width:60; stroke-opacity:1; 
stroke-linecap:round; stroke-linejoin:round;">
<polyline fill="none;"
points="37200,37500
37500,37000
" /> 
<polyline fill="none;"
points="37500,38000
37500,37000
" /> 
<polyline fill="none;"
points="37500,37000
37800,37500
" /> 
</g>
<g style="fill:#008484; fill-opacity:0.0; 
stroke:#008484; stroke-width:60; stroke-opacity:1; 
stroke-linecap:round; stroke-linejoin:round;">
<path d="M36620 36670
L37000 36670
" />
<path d="M36810 36860
L36810 36480
" />
<path d="M37220 36400
L37240 36380
L37290 36360
L37410 36360
L37450 36380
L37480 36400
L37500 36450
L37500 36500
L37480 36570
L37190 36860
L37500 36860
" />
<path d="M37650 36360
L37810 36860
L37980 36360
" />
<path d="M38220 36570
L38170 36550
L38150 36520
L38130 36480
L38130 36450
L38150 36400
L38170 36380
L38220 36360
L38320 36360
L38360 36380
L38390 36400
L38410 36450
L38410 36480
L38390 36520
L38360 36550
L38320 36570
L38220 36570
L38170 36590
L38150 36620
L38130 36670
L38130 36760
L38150 36810
L38170 36830
L38220 36860
L38320 36860
L38360 36830
L38390 36810
L38410 36760
L38410 36670
L38390 36620
L38360 36590
L38320 36570
" />
</g>
<g style="fill:#008484; fill-opacity:0.0; 
stroke:#008484; stroke-width:0; stroke-opacity:1; 
stroke-linecap:round; stroke-linejoin:round;">
</g>
<g style="fill:#840000; fill-opacity:0.0; 
stroke:#840000; stroke-width:0; stroke-opacity:1; 
stroke-linecap:round; stroke-linejoin:round;">
</g>
<g style="fill:#840000; fill-opacity:0.0; 
stroke:#840000; stroke-width:60; stroke-opacity:1; 
stroke-linecap:round; stroke-linejoin:round;">
<polyline fill="none;"
points="37500,44000
37500,44500
38000,44500
37500,45000
37000,44500
37500,44500
" /> 
</g>
<g style="fill:#008484; fill-opacity:0.0; 
stroke:#008484; stroke-width:60; stroke-opacity:1; 
stroke-linecap:round; stroke-linejoin:round;">
<path d="M37120 45280
L37070 45260
L37000 45260
L36930 45280
L36880 45330
L36860 45380
L36840 45470
L36840 45540
L36860 45640
L36880 45680
L36930 45730
L37000 45760
L37050 45760
L37120 45730
L37140 45710
L37140 45540
L37050 45540
" />
<path d="M37360 45760
L37360 45260
L37640 45760
L37640 45260
" />
<path d="M37880 45760
L37880 45260
L38000 45260
L38070 45280
L38120 45330
L38140 45380
L38160 45470
L38160 45540
L38140 45640
L38120 45680
L38070 45730
L38000 45760
L37880 45760
" />
</g>
<g style="fill:#848400; fill-opacity:0.0; 
stroke:#848400; stroke-width:60; stroke-opacity:1; 
stroke-linecap:round; stroke-linejoin:round;">
<path d="M37230 40300
L37200 40270
L37170 40210
L37170 40070
L37200 40010
L37230 39980
L37290 39950
L37340 39950
L37430 39980
L37770 40320
L37770 39950
" />
<path d="M37170 39780
L37770 39580
L37170 39380
" />
<path d="M37430 39100
L37400 39160
L37370 39190
L37310 39220
L37290 39220
L37230 39190
L37200 39160
L37170 39100
L37170 38990
L37200 38930
L37230 38900
L37290 38870
L37310 38870
L37370 38900
L37400 38930
L37430 38990
L37430 39100
L37460 39160
L37490 39190
L37540 39220
L37660 39220
L37710 39190
L37740 39160
L37770 39100
L37770 38990
L37740 38930
L37710 38900
L37660 38870
L37540 38870
L37490 38900
L37460 38930
L37430 38990
" />
</g>
<g style="fill:#848400; fill-opacity:0.0; 
stroke:#848400; stroke-width:100; stroke-opacity:1; 
stroke-linecap:round; stroke-linejoin:round;">
<polyline fill="none;"
points="37800,38000
37800,38600
37200,38600
37200,38000
37800,38000
" /> 
</g>
<g style="fill:#848400; fill-opacity:0.0; 
stroke:#848400; stroke-width:0; stroke-opacity:1; 
stroke-linecap:round; stroke-linejoin:round;">
</g>
<g style="fill:#840000; fill-opacity:0.0; 
stroke:#840000; stroke-width:0; stroke-opacity:1; 
stroke-linecap:round; stroke-linejoin:round;">
</g>
<g style="fill:#840000; fill-opacity:0.0; 
stroke:#840000; stroke-width:60; stroke-opacity:1; 
stroke-linecap:round; stroke-linejoin:round;">
<polyline fill="none;"
points="35200,37500
35500,37000
" /> 
<polyline fill="none;"
points="35500,38000
35500,37000
" /> 
<polyline fill="none;"
points="35500,37000
35800,37500
" /> 
</g>
<g style="fill:#008484; fill-opacity:0.0; 
stroke:#008484; stroke-width:60; stroke-opacity:1; 
stroke-linecap:round; stroke-linejoin:round;">
<path d="M34860 36670
L35240 36670
" />
<path d="M35050 36860
L35050 36480
" />
<path d="M35720 36360
L35480 36360
L35460 36590
L35480 36570
L35530 36550
L35650 36550
L35690 36570
L35720 36590
L35740 36640
L35740 36760
L35720 36810
L35690 36830
L35650 36860
L35530 36860
L35480 36830
L35460 36810
" />
<path d="M35890 36360
L36050 36860
L36220 36360
" />
</g>
<g style="fill:#008484; fill-opacity:0.0; 
stroke:#008484; stroke-width:0; stroke-opacity:1; 
stroke-linecap:round; stroke-linejoin:round;">
</g>
<g style="fill:#840000; fill-opacity:0.0; 
stroke:#840000; stroke-width:0; stroke-opacity:1; 
stroke-linecap:round; stroke-linejoin:round;">
</g>
<g style="fill:#840000; fill-opacity:0.0; 
stroke:#840000; stroke-width:60; stroke-opacity:1; 
stroke-linecap:round; stroke-linejoin:round;">
<circle cx="39500" cy="37250" r="250" /> 
<polyline fill="none;"
points="39500,38000
39500,37500
" /> 
</g>
<g style="fill:#008484; fill-opacity:0.0; 
stroke:#008484; stroke-width:60; stroke-opacity:1; 
stroke-linecap:round; stroke-linejoin:round;">
<path d="M38840 36260
L39000 36760
L39170 36260
" />
<path d="M39620 36710
L39600 36730
L39530 36760
L39480 36760
L39410 36730
L39360 36680
L39340 36640
L39320 36540
L39320 36470
L39340 36380
L39360 36330
L39410 36280
L39480 36260
L39530 36260
L39600 36280
L39620 36300
" />
<path d="M40120 36710
L40100 36730
L40030 36760
L39980 36760
L39910 36730
L39860 36680
L39840 36640
L39820 36540
L39820 36470
L39840 36380
L39860 36330
L39910 36280
L39980 36260
L40030 36260
L40100 36280
L40120 36300
" />
</g>
<g style="fill:#008400; fill-opacity:0.0; 
stroke:#008400; stroke-width:60; stroke-opacity:1; 
stroke-linecap:round; stroke-linejoin:round;">
<path d="M66000 39000
L73000 39000
" />
</g>
<g style="fill:#008400; fill-opacity:0.0; 
stroke:#008400; stroke-width:0; stroke-opacity:1; 
stroke-linecap:round; stroke-linejoin:round;">
</g>
<g style="fill:#008400; fill-opacity:1.0; 
stroke:#008400; stroke-width:100; stroke-opacity:1; 
stroke-linecap:round; stroke-linejoin:round;">
<circle cx="73000" cy="39000" r="200" /> 
</g>
<g style="fill:#008400; fill-opacity:1.0; 
stroke:#008400; stroke-width:60; stroke-opacity:1; 
stroke-linecap:round; stroke-linejoin:round;">
</g>
<g style="fill:#008400; fill-opacity:0.0; 
stroke:#008400; stroke-width:60; stroke-opacity:1; 
stroke-linecap:round; stroke-linejoin:round;">
<path d="M56000 39000
L58000 39000
" />
<path d="M43000 41000
L43000 42000
" />
<path d="M49000 41000
L49000 42000
" />
<path d="M73000 38000
L73000 41000
" />
<path d="M67000 43000
L73000 43000
" />
<path d="M67000 39000
L67000 39000
" />
</g>
<g style="fill:#008400; fill-opacity:0.0; 
stroke:#008400; stroke-width:0; stroke-opacity:1; 
stroke-linecap:round; stroke-linejoin:round;">
</g>
<g style="fill:#008400; fill-opacity:1.0; 
stroke:#008400; stroke-width:100; stroke-opacity:1; 
stroke-linecap:round; stroke-linejoin:round;">
<circle cx="67000" cy="39000" r="200" /> 
</g>
<g style="fill:#008400; fill-opacity:1.0; 
stroke:#008400; stroke-width:60; stroke-opacity:1; 
stroke-linecap:round; stroke-linejoin:round;">
</g>
<g style="fill:#008400; fill-opacity:0.0; 
stroke:#008400; stroke-width:60; stroke-opacity:1; 
stroke-linecap:round; stroke-linejoin:round;">
<path d="M70000 43000
L70000 43000
" />
<path d="M70000 43000
L70000 44000
" />
</g>
<g style="fill:#008400; fill-opacity:0.0; 
stroke:#008400; stroke-width:0; stroke-opacity:1; 
stroke-linecap:round; stroke-linejoin:round;">
</g>
<g style="fill:#008400; fill-opacity:1.0; 
stroke:#008400; stroke-width:100; stroke-opacity:1; 
stroke-linecap:round; stroke-linejoin:round;">
<circle cx="70000" cy="43000" r="200" /> 
</g>
<g style="fill:#008400; fill-opacity:1.0; 
stroke:#008400; stroke-width:0; stroke-opacity:1; 
stroke-linecap:round; stroke-linejoin:round;">
</g>
<g style="fill:#008400; fill-opacity:1.0; 
stroke:#008400; stroke-width:100; stroke-opacity:1; 
stroke-linecap:round; stroke-linejoin:round;">
<circle cx="57000" cy="39000" r="200" /> 
</g>
<g style="fill:#008400; fill-opacity:1.0; 
stroke:#008400; stroke-width:60; stroke-opacity:1; 
stroke-linecap:round; stroke-linejoin:round;">
</g>
<g style="fill:#008400; fill-opacity:0.0; 
stroke:#008400; stroke-width:60; stroke-opacity:1; 
stroke-linecap:round; stroke-linejoin:round;">
<path d="M54000 39000
L53000 39000
" />
<path d="M53000 38000
L53000 41000
" />
</g>
<g style="fill:#008400; fill-opacity:0.0; 
stroke:#008400; stroke-width:0; stroke-opacity:1; 
stroke-linecap:round; stroke-linejoin:round;">
</g>
<g style="fill:#840000; fill-opacity:0.0; 
stroke:#840000; stroke-width:0; stroke-opacity:1; 
stroke-linecap:round; stroke-linejoin:round;">
</g>
<g style="fill:#840000; fill-opacity:0.0; 
stroke:#840000; stroke-width:60; stroke-opacity:1; 
stroke-linecap:round; stroke-linejoin:round;">
<rect x="59000" y="38000" width="6000" height="4000" rx="0" />
<path d="M59000 39000
L58000 39000
" />
</g>
<g style="fill:#008484; fill-opacity:0.0; 
stroke:#008484; stroke-width:60; stroke-opacity:1; 
stroke-linecap:round; stroke-linejoin:round;">
<path d="M59520 39230
L59520 38730
" />
<path d="M59760 39230
L59760 38730
L60040 39230
L60040 38730
" />
</g>
<g style="fill:#840000; fill-opacity:0.0; 
stroke:#840000; stroke-width:60; stroke-opacity:1; 
stroke-linecap:round; stroke-linejoin:round;">
<path d="M58640 38880
L58360 38880
" />
<path d="M58500 38880
L58500 38380
L58450 38450
L58400 38500
L58360 38520
" />
<path d="M62000 42000
L62000 43000
" />
</g>
<g style="fill:#008484; fill-opacity:0.0; 
stroke:#008484; stroke-width:60; stroke-opacity:1; 
stroke-linecap:round; stroke-linejoin:round;">
<path d="M61750 41220
L61730 41270
L61730 41340
L61750 41410
L61800 41460
L61850 41480
L61940 41500
L62010 41500
L62110 41480
L62150 41460
L62200 41410
L62230 41340
L62230 41290
L62200 41220
L62180 41200
L62010 41200
L62010 41290
" />
<path d="M62230 40980
L61730 40980
L62230 40700
L61730 40700
" />
<path d="M62230 40460
L61730 40460
L61730 40340
L61750 40270
L61800 40220
L61850 40200
L61940 40180
L62010 40180
L62110 40200
L62150 40220
L62200 40270
L62230 40340
L62230 40460
" />
</g>
<g style="fill:#840000; fill-opacity:0.0; 
stroke:#840000; stroke-width:60; stroke-opacity:1; 
stroke-linecap:round; stroke-linejoin:round;">
<path d="M61420 42640
L61400 42620
L61380 42570
L61380 42450
L61400 42410
L61420 42380
L61470 42360
L61520 42360
L61590 42380
L61880 42670
L61880 42360
" />
<path d="M59000 41000
L58000 41000
" />
</g>
<g style="fill:#008484; fill-opacity:0.0; 
stroke:#008484; stroke-width:60; stroke-opacity:1; 
stroke-linecap:round; stroke-linejoin:round;">
<path d="M59520 40960
L59690 40960
" />
<path d="M59760 41230
L59520 41230
L59520 40730
L59760 40730
" />
<path d="M59970 41230
L59970 40730
L60250 41230
L60250 40730
" />
</g>
<g style="fill:#840000; fill-opacity:0.0; 
stroke:#840000; stroke-width:60; stroke-opacity:1; 
stroke-linecap:round; stroke-linejoin:round;">
<path d="M58330 40380
L58640 40380
L58470 40570
L58550 40570
L58590 40590
L58620 40610
L58640 40660
L58640 40780
L58620 40830
L58590 40850
L58550 40880
L58400 40880
L58360 40850
L58330 40830
" />
<path d="M65000 41000
L66000 41000
" />
</g>
<g style="fill:#008484; fill-opacity:0.0; 
stroke:#008484; stroke-width:60; stroke-opacity:1; 
stroke-linecap:round; stroke-linejoin:round;">
<path d="M63390 41080
L63620 41080
" />
<path d="M63340 41230
L63500 40730
L63670 41230
" />
<path d="M63840 41230
L63840 40730
L63960 40730
L64030 40750
L64080 40800
L64100 40850
L64120 40940
L64120 41010
L64100 41110
L64080 41150
L64030 41200
L63960 41230
L63840 41230
" />
<path d="M64480 40730
L64480 41080
L64460 41150
L64410 41200
L64340 41230
L64290 41230
" />
</g>
<g style="fill:#840000; fill-opacity:0.0; 
stroke:#840000; stroke-width:60; stroke-opacity:1; 
stroke-linecap:round; stroke-linejoin:round;">
<path d="M65590 40540
L65590 40880
" />
<path d="M65470 40350
L65360 40710
L65660 40710
" />
<path d="M65000 39000
L66000 39000
" />
</g>
<g style="fill:#008484; fill-opacity:0.0; 
stroke:#008484; stroke-width:60; stroke-opacity:1; 
stroke-linecap:round; stroke-linejoin:round;">
<path d="M63390 38730
L63490 38730
L63540 38750
L63580 38800
L63610 38890
L63610 39060
L63580 39150
L63540 39200
L63490 39230
L63390 39230
L63350 39200
L63300 39150
L63280 39060
L63280 38890
L63300 38800
L63350 38750
L63390 38730
" />
<path d="M63820 38730
L63820 39130
L63840 39180
L63870 39200
L63910 39230
L64010 39230
L64060 39200
L64080 39180
L64100 39130
L64100 38730
" />
<path d="M64270 38730
L64550 38730
" />
<path d="M64410 39230
L64410 38730
" />
</g>
<g style="fill:#840000; fill-opacity:0.0; 
stroke:#840000; stroke-width:60; stroke-opacity:1; 
stroke-linecap:round; stroke-linejoin:round;">
<path d="M65620 38380
L65380 38380
L65360 38610
L65380 38590
L65430 38570
L65550 38570
L65590 38590
L65620 38610
L65640 38660
L65640 38780
L65620 38830
L65590 38850
L65550 38880
L65430 38880
L65380 38850
L65360 38830
" />
</g>
<g style="fill:#008484; fill-opacity:0.0; 
stroke:#008484; stroke-width:60; stroke-opacity:1; 
stroke-linecap:round; stroke-linejoin:round;">
<path d="M59040 37210
L59040 37700
L59070 37750
L59100 37780
L59160 37810
L59270 37810
L59330 37780
L59360 37750
L59390 37700
L59390 37210
" />
<path d="M59960 37210
L59670 37210
L59640 37500
L59670 37470
L59730 37440
L59870 37440
L59930 37470
L59960 37500
L59990 37550
L59990 37700
L59960 37750
L59930 37780
L59870 37810
L59730 37810
L59670 37780
L59640 37750
" />
<path d="M60470 37780
L60560 37810
L60700 37810
L60760 37780
L60790 37750
L60820 37700
L60820 37640
L60790 37580
L60760 37550
L60700 37530
L60590 37500
L60530 37470
L60500 37440
L60470 37380
L60470 37330
L60500 37270
L60530 37240
L60590 37210
L60730 37210
L60820 37240
" />
<path d="M61070 37810
L61070 37210
L61300 37210
L61360 37240
L61390 37270
L61420 37330
L61420 37410
L61390 37470
L61360 37500
L61300 37530
L61070 37530
" />
<path d="M61620 37210
L62020 37810
" />
<path d="M62020 37210
L61620 37810
" />
<path d="M62190 37210
L62560 37210
L62360 37440
L62440 37440
L62500 37470
L62530 37500
L62560 37550
L62560 37700
L62530 37750
L62500 37780
L62440 37810
L62270 37810
L62210 37780
L62190 37750
" />
<path d="M62900 37470
L62840 37440
L62810 37410
L62780 37350
L62780 37330
L62810 37270
L62840 37240
L62900 37210
L63010 37210
L63070 37240
L63100 37270
L63130 37330
L63130 37350
L63100 37410
L63070 37440
L63010 37470
L62900 37470
L62840 37500
L62810 37530
L62780 37580
L62780 37700
L62810 37750
L62840 37780
L62900 37810
L63010 37810
L63070 37780
L63100 37750
L63130 37700
L63130 37580
L63100 37530
L63070 37500
L63010 37470
" />
<path d="M63700 37810
L63350 37810
" />
<path d="M63530 37810
L63530 37210
L63470 37300
L63410 37350
L63350 37380
" />
<path d="M63980 37810
L64100 37810
L64150 37780
L64180 37750
L64240 37670
L64270 37550
L64270 37330
L64240 37270
L64210 37240
L64150 37210
L64040 37210
L63980 37240
L63950 37270
L63920 37330
L63920 37470
L63950 37530
L63980 37550
L64040 37580
L64150 37580
L64210 37550
L64240 37530
L64270 37470
" />
<path d="M64520 37810
L64520 37210
L64720 37640
L64920 37210
L64920 37810
" />
<path d="M65500 37210
L65210 37210
L65180 37500
L65210 37470
L65270 37440
L65410 37440
L65470 37470
L65500 37500
L65530 37550
L65530 37700
L65500 37750
L65470 37780
L65410 37810
L65270 37810
L65210 37780
L65180 37750
" />
</g>
<g style="fill:#008400; fill-opacity:0.0; 
stroke:#008400; stroke-width:60; stroke-opacity:1; 
stroke-linecap:round; stroke-linejoin:round;">
<path d="M62000 43000
L62000 44000
" />
<path d="M57000 41000
L58000 41000
" />
<path d="M57000 38000
L57000 41000
" />
<path d="M66000 41000
L70000 41000
" />
</g>
<g style="fill:#008400; fill-opacity:0.0; 
stroke:#008400; stroke-width:0; stroke-opacity:1; 
stroke-linecap:round; stroke-linejoin:round;">
</g>
<g style="fill:#008400; fill-opacity:1.0; 
stroke:#008400; stroke-width:100; stroke-opacity:1; 
stroke-linecap:round; stroke-linejoin:round;">
<circle cx="67000" cy="41000" r="200" /> 
</g>
<g style="fill:#008400; fill-opacity:1.0; 
stroke:#008400; stroke-width:60; stroke-opacity:1; 
stroke-linecap:round; stroke-linejoin:round;">
</g>
<g style="fill:#840000; fill-opacity:0.0; 
stroke:#840000; stroke-width:60; stroke-opacity:1; 
stroke-linecap:round; stroke-linejoin:round;">
<path d="M37200 43380
L37170 43440
L37170 43530
L37200 43610
L37260 43670
L37310 43700
L37430 43730
L37510 43730
L37630 43700
L37690 43670
L37740 43610
L37770 43530
L37770 43470
L37740 43380
L37710 43350
L37510 43350
L37510 43470
" />
<path d="M37770 43100
L37170 43100
L37770 42750
L37170 42750
" />
<path d="M37770 42470
L37170 42470
L37170 42320
L37200 42240
L37260 42180
L37310 42150
L37430 42120
L37510 42120
L37630 42150
L37690 42180
L37740 42240
L37770 42320
L37770 42470
" />
</g>
<g style="fill:#840000; fill-opacity:0.0; 
stroke:#840000; stroke-width:100; stroke-opacity:1; 
stroke-linecap:round; stroke-linejoin:round;">
<polyline fill="none;"
points="37500,44000
38040,44000
38040,41880
37500,41880
36960,41880
36960,44000
37500,44000
" /> 
</g>
<g style="fill:#840000; fill-opacity:0.0; 
stroke:#840000; stroke-width:0; stroke-opacity:1; 
stroke-linecap:round; stroke-linejoin:round;">
</g>
<g style="fill:#840000; fill-opacity:0.0; 
stroke:#840000; stroke-width:130; stroke-opacity:1; 
stroke-linecap:round; stroke-linejoin:round;">
<polyline fill="none;"
points="69400,42200
70600,42200
" /> 
</g>
<g style="fill:#840000; fill-opacity:0.0; 
stroke:#840000; stroke-width:120; stroke-opacity:1; 
stroke-linecap:round; stroke-linejoin:round;">
<polyline fill="none;"
points="69400,41800
70600,41800
" /> 
</g>
<g style="fill:#840000; fill-opacity:0.0; 
stroke:#840000; stroke-width:60; stroke-opacity:1; 
stroke-linecap:round; stroke-linejoin:round;">
<path d="M70000 41800
L70000 41000
" />
<path d="M70000 42200
L70000 43000
" />
</g>
<g style="fill:#008484; fill-opacity:0.0; 
stroke:#008484; stroke-width:60; stroke-opacity:1; 
stroke-linecap:round; stroke-linejoin:round;">
<path d="M70500 41510
L70480 41530
L70410 41560
L70360 41560
L70290 41530
L70240 41480
L70220 41440
L70200 41340
L70200 41270
L70220 41180
L70240 41130
L70290 41080
L70360 41060
L70410 41060
L70480 41080
L70500 41100
" />
<path d="M70980 41560
L70700 41560
" />
<path d="M70840 41560
L70840 41060
L70790 41130
L70740 41180
L70700 41200
" />
<path d="M71410 41220
L71410 41560
" />
<path d="M71290 41030
L71180 41390
L71480 41390
" />
<path d="M70480 43060
L70200 43060
" />
<path d="M70340 43060
L70340 42560
L70290 42630
L70240 42680
L70200 42700
" />
<path d="M70790 42560
L70840 42560
L70890 42580
L70910 42600
L70940 42650
L70960 42750
L70960 42870
L70940 42960
L70910 43010
L70890 43030
L70840 43060
L70790 43060
L70750 43030
L70720 43010
L70700 42960
L70680 42870
L70680 42750
L70700 42650
L70720 42600
L70750 42580
L70790 42560
" />
<path d="M71180 42720
L71180 43060
" />
<path d="M71180 42770
L71200 42750
L71250 42720
L71320 42720
L71370 42750
L71390 42790
L71390 43060
" />
</g>
<g style="fill:#008484; fill-opacity:0.0; 
stroke:#008484; stroke-width:0; stroke-opacity:1; 
stroke-linecap:round; stroke-linejoin:round;">
</g>
<g style="fill:#840000; fill-opacity:0.0; 
stroke:#840000; stroke-width:0; stroke-opacity:1; 
stroke-linecap:round; stroke-linejoin:round;">
</g>
<g style="fill:#840000; fill-opacity:0.0; 
stroke:#840000; stroke-width:130; stroke-opacity:1; 
stroke-linecap:round; stroke-linejoin:round;">
<polyline fill="none;"
points="72400,42200
73600,42200
" /> 
</g>
<g style="fill:#840000; fill-opacity:0.0; 
stroke:#840000; stroke-width:120; stroke-opacity:1; 
stroke-linecap:round; stroke-linejoin:round;">
<polyline fill="none;"
points="72400,41800
73600,41800
" /> 
</g>
<g style="fill:#840000; fill-opacity:0.0; 
stroke:#840000; stroke-width:60; stroke-opacity:1; 
stroke-linecap:round; stroke-linejoin:round;">
<path d="M73000 41800
L73000 41000
" />
<path d="M73000 42200
L73000 43000
" />
</g>
<g style="fill:#008484; fill-opacity:0.0; 
stroke:#008484; stroke-width:60; stroke-opacity:1; 
stroke-linecap:round; stroke-linejoin:round;">
<path d="M73500 41510
L73480 41530
L73410 41560
L73360 41560
L73290 41530
L73240 41480
L73220 41440
L73200 41340
L73200 41270
L73220 41180
L73240 41130
L73290 41080
L73360 41060
L73410 41060
L73480 41080
L73500 41100
" />
<path d="M73980 41560
L73700 41560
" />
<path d="M73840 41560
L73840 41060
L73790 41130
L73740 41180
L73700 41200
" />
<path d="M74150 41060
L74460 41060
L74290 41250
L74370 41250
L74410 41270
L74440 41290
L74460 41340
L74460 41460
L74440 41510
L74410 41530
L74370 41560
L74220 41560
L74180 41530
L74150 41510
" />
<path d="M73200 42600
L73220 42580
L73270 42560
L73390 42560
L73430 42580
L73460 42600
L73480 42650
L73480 42700
L73460 42770
L73170 43060
L73480 43060
" />
<path d="M73910 42720
L73910 43060
" />
<path d="M73700 42720
L73700 42980
L73720 43030
L73770 43060
L73840 43060
L73890 43030
L73910 43010
" />
<path d="M74130 42600
L74150 42580
L74200 42560
L74320 42560
L74360 42580
L74390 42600
L74410 42650
L74410 42700
L74390 42770
L74100 43060
L74410 43060
" />
</g>
<g style="fill:#008484; fill-opacity:0.0; 
stroke:#008484; stroke-width:0; stroke-opacity:1; 
stroke-linecap:round; stroke-linejoin:round;">
</g>
<g style="fill:#840000; fill-opacity:0.0; 
stroke:#840000; stroke-width:0; stroke-opacity:1; 
stroke-linecap:round; stroke-linejoin:round;">
</g>
<g style="fill:#840000; fill-opacity:0.0; 
stroke:#840000; stroke-width:80; stroke-opacity:1; 
stroke-linecap:round; stroke-linejoin:round;">
<rect x="52700" y="41300" width="600" height="1400" rx="0" />
</g>
<g style="fill:#840000; fill-opacity:0.0; 
stroke:#840000; stroke-width:60; stroke-opacity:1; 
stroke-linecap:round; stroke-linejoin:round;">
<path d="M53000 41300
L53000 41000
" />
<path d="M53000 42700
L53000 43000
" />
</g>
<g style="fill:#008484; fill-opacity:0.0; 
stroke:#008484; stroke-width:60; stroke-opacity:1; 
stroke-linecap:round; stroke-linejoin:round;">
<path d="M53700 42060
L53540 41820
" />
<path d="M53420 42060
L53420 41560
L53610 41560
L53660 41580
L53680 41600
L53700 41650
L53700 41720
L53680 41770
L53660 41790
L53610 41820
L53420 41820
" />
<path d="M54180 42060
L53900 42060
" />
<path d="M54040 42060
L54040 41560
L53990 41630
L53940 41680
L53900 41700
" />
<path d="M54380 41600
L54400 41580
L54450 41560
L54570 41560
L54610 41580
L54640 41600
L54660 41650
L54660 41700
L54640 41770
L54350 42060
L54660 42060
" />
<path d="M53680 42660
L53400 42660
" />
<path d="M53540 42660
L53540 42160
L53490 42230
L53440 42280
L53400 42300
" />
<path d="M53990 42160
L54040 42160
L54090 42180
L54110 42200
L54140 42250
L54160 42350
L54160 42470
L54140 42560
L54110 42610
L54090 42630
L54040 42660
L53990 42660
L53950 42630
L53920 42610
L53900 42560
L53880 42470
L53880 42350
L53900 42250
L53920 42200
L53950 42180
L53990 42160
" />
<path d="M54380 42660
L54380 42160
" />
<path d="M54430 42470
L54570 42660
" />
<path d="M54570 42320
L54380 42510
" />
</g>
<g style="fill:#008484; fill-opacity:0.0; 
stroke:#008484; stroke-width:0; stroke-opacity:1; 
stroke-linecap:round; stroke-linejoin:round;">
</g>
<g style="fill:#840000; fill-opacity:0.0; 
stroke:#840000; stroke-width:0; stroke-opacity:1; 
stroke-linecap:round; stroke-linejoin:round;">
</g>
<g style="fill:#840000; fill-opacity:0.0; 
stroke:#840000; stroke-width:60; stroke-opacity:1; 
stroke-linecap:round; stroke-linejoin:round;">
<polyline fill="none;"
points="53000,44000
53000,44500
53500,44500
53000,45000
52500,44500
53000,44500
" /> 
</g>
<g style="fill:#008484; fill-opacity:0.0; 
stroke:#008484; stroke-width:60; stroke-opacity:1; 
stroke-linecap:round; stroke-linejoin:round;">
<path d="M52620 45280
L52570 45260
L52500 45260
L52430 45280
L52380 45330
L52360 45380
L52340 45470
L52340 45540
L52360 45640
L52380 45680
L52430 45730
L52500 45760
L52550 45760
L52620 45730
L52640 45710
L52640 45540
L52550 45540
" />
<path d="M52860 45760
L52860 45260
L53140 45760
L53140 45260
" />
<path d="M53380 45760
L53380 45260
L53500 45260
L53570 45280
L53620 45330
L53640 45380
L53660 45470
L53660 45540
L53640 45640
L53620 45680
L53570 45730
L53500 45760
L53380 45760
" />
</g>
<g style="fill:#008400; fill-opacity:0.0; 
stroke:#008400; stroke-width:60; stroke-opacity:1; 
stroke-linecap:round; stroke-linejoin:round;">
<path d="M53000 43000
L53000 44000
" />
</g>
<g style="fill:#008400; fill-opacity:0.0; 
stroke:#008400; stroke-width:0; stroke-opacity:1; 
stroke-linecap:round; stroke-linejoin:round;">
</g>
<g style="fill:#008400; fill-opacity:1.0; 
stroke:#008400; stroke-width:100; stroke-opacity:1; 
stroke-linecap:round; stroke-linejoin:round;">
<circle cx="53000" cy="39000" r="200" /> 
</g> 
</svg>
