<?xml version="1.0" standalone="no"?>
 <!DOCTYPE svg PUBLIC "-//W3C//DTD SVG 1.1//EN" 
 "http://www.w3.org/Graphics/SVG/1.1/DTD/svg11.dtd"> 
<svg xmlns="http://www.w3.org/2000/svg" version="1.1" 
    width="29.7002cm" height="21.0007cm" viewBox="0 0 116930 82680 ">
<title>SVG Picture created as locomotive_ir_receiver-brd.svg date 2017/03/21 16:17:09 </title>
  <desc>Picture generated by PCBNEW </desc>
<g style="fill:#000000; fill-opacity:1;stroke:#000000; stroke-opacity:1;
stroke-linecap:round; stroke-linejoin:round; "
 transform="translate(0 0) scale(1 1)">
</g>
<g style="fill:#000000; fill-opacity:0.0; 
stroke:#000000; stroke-width:-0.000393701; stroke-opacity:1; 
stroke-linecap:round; stroke-linejoin:round;">
</g>
<g style="fill:#000000; fill-opacity:0.0; 
stroke:#000000; stroke-width:39.3701; stroke-opacity:1; 
stroke-linecap:round; stroke-linejoin:round;">
</g>
<g style="fill:#000000; fill-opacity:0.0; 
stroke:#000000; stroke-width:59.0551; stroke-opacity:1; 
stroke-linecap:round; stroke-linejoin:round;">
<rect x="69685.9" y="65357.2" width="42519.7" height="12598.4" rx="0" />
</g>
<g style="fill:#000000; fill-opacity:0.0; 
stroke:#000000; stroke-width:39.3701; stroke-opacity:1; 
stroke-linecap:round; stroke-linejoin:round;">
</g>
<g style="fill:#000000; fill-opacity:0.0; 
stroke:#000000; stroke-width:59.0551; stroke-opacity:1; 
stroke-linecap:round; stroke-linejoin:round;">
<rect x="3937.01" y="3937.01" width="109056" height="74806" rx="0" />
</g>
<g style="fill:#000000; fill-opacity:0.0; 
stroke:#000000; stroke-width:39.3701; stroke-opacity:1; 
stroke-linecap:round; stroke-linejoin:round;">
</g>
<g style="fill:#000000; fill-opacity:0.0; 
stroke:#000000; stroke-width:59.0551; stroke-opacity:1; 
stroke-linecap:round; stroke-linejoin:round;">
<rect x="4724.41" y="4724.41" width="107481" height="73231.2" rx="0" />
</g>
<g style="fill:#000000; fill-opacity:0.0; 
stroke:#000000; stroke-width:39.3701; stroke-opacity:1; 
stroke-linecap:round; stroke-linejoin:round;">
</g>
<g style="fill:#000000; fill-opacity:0.0; 
stroke:#000000; stroke-width:59.0551; stroke-opacity:1; 
stroke-linecap:round; stroke-linejoin:round;">
<path d="M23622 4724
L23622 3937
" />
</g>
<g style="fill:#000000; fill-opacity:0.0; 
stroke:#000000; stroke-width:39.3701; stroke-opacity:1; 
stroke-linecap:round; stroke-linejoin:round;">
</g>
<g style="fill:#000000; fill-opacity:0.0; 
stroke:#000000; stroke-width:59.0551; stroke-opacity:1; 
stroke-linecap:round; stroke-linejoin:round;">
<path d="M43307 4724
L43307 3937
" />
</g>
<g style="fill:#000000; fill-opacity:0.0; 
stroke:#000000; stroke-width:39.3701; stroke-opacity:1; 
stroke-linecap:round; stroke-linejoin:round;">
</g>
<g style="fill:#000000; fill-opacity:0.0; 
stroke:#000000; stroke-width:59.0551; stroke-opacity:1; 
stroke-linecap:round; stroke-linejoin:round;">
<path d="M62992 4724
L62992 3937
" />
</g>
<g style="fill:#000000; fill-opacity:0.0; 
stroke:#000000; stroke-width:39.3701; stroke-opacity:1; 
stroke-linecap:round; stroke-linejoin:round;">
</g>
<g style="fill:#000000; fill-opacity:0.0; 
stroke:#000000; stroke-width:59.0551; stroke-opacity:1; 
stroke-linecap:round; stroke-linejoin:round;">
<path d="M82677 4724
L82677 3937
" />
</g>
<g style="fill:#000000; fill-opacity:0.0; 
stroke:#000000; stroke-width:39.3701; stroke-opacity:1; 
stroke-linecap:round; stroke-linejoin:round;">
</g>
<g style="fill:#000000; fill-opacity:0.0; 
stroke:#000000; stroke-width:59.0551; stroke-opacity:1; 
stroke-linecap:round; stroke-linejoin:round;">
<path d="M102362 4724
L102362 3937
" />
</g>
<g style="fill:#000000; fill-opacity:0.0; 
stroke:#000000; stroke-width:39.3701; stroke-opacity:1; 
stroke-linecap:round; stroke-linejoin:round;">
</g>
<g style="fill:#000000; fill-opacity:0.0; 
stroke:#000000; stroke-width:59.0551; stroke-opacity:1; 
stroke-linecap:round; stroke-linejoin:round;">
<path d="M14169 4562
L13877 4562
" />
<path d="M14023 4562
L14023 4050
L13974 4123
L13925 4172
L13877 4196
" />
</g>
<g style="fill:#000000; fill-opacity:0.0; 
stroke:#000000; stroke-width:39.3701; stroke-opacity:1; 
stroke-linecap:round; stroke-linejoin:round;">
</g>
<g style="fill:#000000; fill-opacity:0.0; 
stroke:#000000; stroke-width:59.0551; stroke-opacity:1; 
stroke-linecap:round; stroke-linejoin:round;">
<path d="M33562 4099
L33586 4074
L33635 4050
L33757 4050
L33805 4074
L33830 4099
L33854 4147
L33854 4196
L33830 4269
L33537 4562
L33854 4562
" />
</g>
<g style="fill:#000000; fill-opacity:0.0; 
stroke:#000000; stroke-width:39.3701; stroke-opacity:1; 
stroke-linecap:round; stroke-linejoin:round;">
</g>
<g style="fill:#000000; fill-opacity:0.0; 
stroke:#000000; stroke-width:59.0551; stroke-opacity:1; 
stroke-linecap:round; stroke-linejoin:round;">
<path d="M53222 4050
L53539 4050
L53368 4245
L53442 4245
L53490 4269
L53515 4294
L53539 4342
L53539 4464
L53515 4513
L53490 4537
L53442 4562
L53295 4562
L53247 4537
L53222 4513
" />
</g>
<g style="fill:#000000; fill-opacity:0.0; 
stroke:#000000; stroke-width:39.3701; stroke-opacity:1; 
stroke-linecap:round; stroke-linejoin:round;">
</g>
<g style="fill:#000000; fill-opacity:0.0; 
stroke:#000000; stroke-width:59.0551; stroke-opacity:1; 
stroke-linecap:round; stroke-linejoin:round;">
<path d="M73175 4221
L73175 4562
" />
<path d="M73053 4026
L72932 4391
L73248 4391
" />
</g>
<g style="fill:#000000; fill-opacity:0.0; 
stroke:#000000; stroke-width:39.3701; stroke-opacity:1; 
stroke-linecap:round; stroke-linejoin:round;">
</g>
<g style="fill:#000000; fill-opacity:0.0; 
stroke:#000000; stroke-width:59.0551; stroke-opacity:1; 
stroke-linecap:round; stroke-linejoin:round;">
<path d="M92885 4050
L92641 4050
L92617 4294
L92641 4269
L92690 4245
L92812 4245
L92860 4269
L92885 4294
L92909 4342
L92909 4464
L92885 4513
L92860 4537
L92812 4562
L92690 4562
L92641 4537
L92617 4513
" />
</g>
<g style="fill:#000000; fill-opacity:0.0; 
stroke:#000000; stroke-width:39.3701; stroke-opacity:1; 
stroke-linecap:round; stroke-linejoin:round;">
</g>
<g style="fill:#000000; fill-opacity:0.0; 
stroke:#000000; stroke-width:59.0551; stroke-opacity:1; 
stroke-linecap:round; stroke-linejoin:round;">
<path d="M112545 4050
L112448 4050
L112399 4074
L112375 4099
L112326 4172
L112302 4269
L112302 4464
L112326 4513
L112350 4537
L112399 4562
L112497 4562
L112545 4537
L112570 4513
L112594 4464
L112594 4342
L112570 4294
L112545 4269
L112497 4245
L112399 4245
L112350 4269
L112326 4294
L112302 4342
" />
</g>
<g style="fill:#000000; fill-opacity:0.0; 
stroke:#000000; stroke-width:39.3701; stroke-opacity:1; 
stroke-linecap:round; stroke-linejoin:round;">
</g>
<g style="fill:#000000; fill-opacity:0.0; 
stroke:#000000; stroke-width:59.0551; stroke-opacity:1; 
stroke-linecap:round; stroke-linejoin:round;">
<path d="M23622 77955
L23622 78742
" />
</g>
<g style="fill:#000000; fill-opacity:0.0; 
stroke:#000000; stroke-width:39.3701; stroke-opacity:1; 
stroke-linecap:round; stroke-linejoin:round;">
</g>
<g style="fill:#000000; fill-opacity:0.0; 
stroke:#000000; stroke-width:59.0551; stroke-opacity:1; 
stroke-linecap:round; stroke-linejoin:round;">
<path d="M43307 77955
L43307 78742
" />
</g>
<g style="fill:#000000; fill-opacity:0.0; 
stroke:#000000; stroke-width:39.3701; stroke-opacity:1; 
stroke-linecap:round; stroke-linejoin:round;">
</g>
<g style="fill:#000000; fill-opacity:0.0; 
stroke:#000000; stroke-width:59.0551; stroke-opacity:1; 
stroke-linecap:round; stroke-linejoin:round;">
<path d="M62992 77955
L62992 78742
" />
</g>
<g style="fill:#000000; fill-opacity:0.0; 
stroke:#000000; stroke-width:39.3701; stroke-opacity:1; 
stroke-linecap:round; stroke-linejoin:round;">
</g>
<g style="fill:#000000; fill-opacity:0.0; 
stroke:#000000; stroke-width:59.0551; stroke-opacity:1; 
stroke-linecap:round; stroke-linejoin:round;">
<path d="M82677 77955
L82677 78742
" />
</g>
<g style="fill:#000000; fill-opacity:0.0; 
stroke:#000000; stroke-width:39.3701; stroke-opacity:1; 
stroke-linecap:round; stroke-linejoin:round;">
</g>
<g style="fill:#000000; fill-opacity:0.0; 
stroke:#000000; stroke-width:59.0551; stroke-opacity:1; 
stroke-linecap:round; stroke-linejoin:round;">
<path d="M102362 77955
L102362 78742
" />
</g>
<g style="fill:#000000; fill-opacity:0.0; 
stroke:#000000; stroke-width:39.3701; stroke-opacity:1; 
stroke-linecap:round; stroke-linejoin:round;">
</g>
<g style="fill:#000000; fill-opacity:0.0; 
stroke:#000000; stroke-width:59.0551; stroke-opacity:1; 
stroke-linecap:round; stroke-linejoin:round;">
<path d="M14169 78580
L13877 78580
" />
<path d="M14023 78580
L14023 78069
L13974 78142
L13925 78190
L13877 78215
" />
</g>
<g style="fill:#000000; fill-opacity:0.0; 
stroke:#000000; stroke-width:39.3701; stroke-opacity:1; 
stroke-linecap:round; stroke-linejoin:round;">
</g>
<g style="fill:#000000; fill-opacity:0.0; 
stroke:#000000; stroke-width:59.0551; stroke-opacity:1; 
stroke-linecap:round; stroke-linejoin:round;">
<path d="M33562 78117
L33586 78093
L33635 78069
L33757 78069
L33805 78093
L33830 78117
L33854 78166
L33854 78215
L33830 78288
L33537 78580
L33854 78580
" />
</g>
<g style="fill:#000000; fill-opacity:0.0; 
stroke:#000000; stroke-width:39.3701; stroke-opacity:1; 
stroke-linecap:round; stroke-linejoin:round;">
</g>
<g style="fill:#000000; fill-opacity:0.0; 
stroke:#000000; stroke-width:59.0551; stroke-opacity:1; 
stroke-linecap:round; stroke-linejoin:round;">
<path d="M53222 78069
L53539 78069
L53368 78263
L53442 78263
L53490 78288
L53515 78312
L53539 78361
L53539 78483
L53515 78532
L53490 78556
L53442 78580
L53295 78580
L53247 78556
L53222 78532
" />
</g>
<g style="fill:#000000; fill-opacity:0.0; 
stroke:#000000; stroke-width:39.3701; stroke-opacity:1; 
stroke-linecap:round; stroke-linejoin:round;">
</g>
<g style="fill:#000000; fill-opacity:0.0; 
stroke:#000000; stroke-width:59.0551; stroke-opacity:1; 
stroke-linecap:round; stroke-linejoin:round;">
<path d="M73175 78239
L73175 78580
" />
<path d="M73053 78044
L72932 78410
L73248 78410
" />
</g>
<g style="fill:#000000; fill-opacity:0.0; 
stroke:#000000; stroke-width:39.3701; stroke-opacity:1; 
stroke-linecap:round; stroke-linejoin:round;">
</g>
<g style="fill:#000000; fill-opacity:0.0; 
stroke:#000000; stroke-width:59.0551; stroke-opacity:1; 
stroke-linecap:round; stroke-linejoin:round;">
<path d="M92885 78069
L92641 78069
L92617 78312
L92641 78288
L92690 78263
L92812 78263
L92860 78288
L92885 78312
L92909 78361
L92909 78483
L92885 78532
L92860 78556
L92812 78580
L92690 78580
L92641 78556
L92617 78532
" />
</g>
<g style="fill:#000000; fill-opacity:0.0; 
stroke:#000000; stroke-width:39.3701; stroke-opacity:1; 
stroke-linecap:round; stroke-linejoin:round;">
</g>
<g style="fill:#000000; fill-opacity:0.0; 
stroke:#000000; stroke-width:59.0551; stroke-opacity:1; 
stroke-linecap:round; stroke-linejoin:round;">
<path d="M112545 78069
L112448 78069
L112399 78093
L112375 78117
L112326 78190
L112302 78288
L112302 78483
L112326 78532
L112350 78556
L112399 78580
L112497 78580
L112545 78556
L112570 78532
L112594 78483
L112594 78361
L112570 78312
L112545 78288
L112497 78263
L112399 78263
L112350 78288
L112326 78312
L112302 78361
" />
</g>
<g style="fill:#000000; fill-opacity:0.0; 
stroke:#000000; stroke-width:39.3701; stroke-opacity:1; 
stroke-linecap:round; stroke-linejoin:round;">
</g>
<g style="fill:#000000; fill-opacity:0.0; 
stroke:#000000; stroke-width:59.0551; stroke-opacity:1; 
stroke-linecap:round; stroke-linejoin:round;">
<path d="M3937 23622
L4724 23622
" />
</g>
<g style="fill:#000000; fill-opacity:0.0; 
stroke:#000000; stroke-width:39.3701; stroke-opacity:1; 
stroke-linecap:round; stroke-linejoin:round;">
</g>
<g style="fill:#000000; fill-opacity:0.0; 
stroke:#000000; stroke-width:59.0551; stroke-opacity:1; 
stroke-linecap:round; stroke-linejoin:round;">
<path d="M3937 43307
L4724 43307
" />
</g>
<g style="fill:#000000; fill-opacity:0.0; 
stroke:#000000; stroke-width:39.3701; stroke-opacity:1; 
stroke-linecap:round; stroke-linejoin:round;">
</g>
<g style="fill:#000000; fill-opacity:0.0; 
stroke:#000000; stroke-width:59.0551; stroke-opacity:1; 
stroke-linecap:round; stroke-linejoin:round;">
<path d="M3937 62992
L4724 62992
" />
</g>
<g style="fill:#000000; fill-opacity:0.0; 
stroke:#000000; stroke-width:39.3701; stroke-opacity:1; 
stroke-linecap:round; stroke-linejoin:round;">
</g>
<g style="fill:#000000; fill-opacity:0.0; 
stroke:#000000; stroke-width:59.0551; stroke-opacity:1; 
stroke-linecap:round; stroke-linejoin:round;">
<path d="M4208 13864
L4452 13864
" />
<path d="M4160 14011
L4330 13499
L4501 14011
" />
</g>
<g style="fill:#000000; fill-opacity:0.0; 
stroke:#000000; stroke-width:39.3701; stroke-opacity:1; 
stroke-linecap:round; stroke-linejoin:round;">
</g>
<g style="fill:#000000; fill-opacity:0.0; 
stroke:#000000; stroke-width:59.0551; stroke-opacity:1; 
stroke-linecap:round; stroke-linejoin:round;">
<path d="M4367 33428
L4440 33452
L4464 33476
L4489 33525
L4489 33598
L4464 33647
L4440 33671
L4391 33696
L4196 33696
L4196 33184
L4367 33184
L4416 33208
L4440 33233
L4464 33281
L4464 33330
L4440 33379
L4416 33403
L4367 33428
L4196 33428
" />
</g>
<g style="fill:#000000; fill-opacity:0.0; 
stroke:#000000; stroke-width:39.3701; stroke-opacity:1; 
stroke-linecap:round; stroke-linejoin:round;">
</g>
<g style="fill:#000000; fill-opacity:0.0; 
stroke:#000000; stroke-width:59.0551; stroke-opacity:1; 
stroke-linecap:round; stroke-linejoin:round;">
<path d="M4489 53332
L4464 53356
L4391 53381
L4342 53381
L4269 53356
L4221 53308
L4196 53259
L4172 53161
L4172 53088
L4196 52991
L4221 52942
L4269 52893
L4342 52869
L4391 52869
L4464 52893
L4489 52918
" />
</g>
<g style="fill:#000000; fill-opacity:0.0; 
stroke:#000000; stroke-width:39.3701; stroke-opacity:1; 
stroke-linecap:round; stroke-linejoin:round;">
</g>
<g style="fill:#000000; fill-opacity:0.0; 
stroke:#000000; stroke-width:59.0551; stroke-opacity:1; 
stroke-linecap:round; stroke-linejoin:round;">
<path d="M4196 73066
L4196 72554
L4318 72554
L4391 72578
L4440 72627
L4464 72676
L4489 72773
L4489 72846
L4464 72944
L4440 72993
L4391 73041
L4318 73066
L4196 73066
" />
</g>
<g style="fill:#000000; fill-opacity:0.0; 
stroke:#000000; stroke-width:39.3701; stroke-opacity:1; 
stroke-linecap:round; stroke-linejoin:round;">
</g>
<g style="fill:#000000; fill-opacity:0.0; 
stroke:#000000; stroke-width:59.0551; stroke-opacity:1; 
stroke-linecap:round; stroke-linejoin:round;">
<path d="M112992 23622
L112205 23622
" />
</g>
<g style="fill:#000000; fill-opacity:0.0; 
stroke:#000000; stroke-width:39.3701; stroke-opacity:1; 
stroke-linecap:round; stroke-linejoin:round;">
</g>
<g style="fill:#000000; fill-opacity:0.0; 
stroke:#000000; stroke-width:59.0551; stroke-opacity:1; 
stroke-linecap:round; stroke-linejoin:round;">
<path d="M112992 43307
L112205 43307
" />
</g>
<g style="fill:#000000; fill-opacity:0.0; 
stroke:#000000; stroke-width:39.3701; stroke-opacity:1; 
stroke-linecap:round; stroke-linejoin:round;">
</g>
<g style="fill:#000000; fill-opacity:0.0; 
stroke:#000000; stroke-width:59.0551; stroke-opacity:1; 
stroke-linecap:round; stroke-linejoin:round;">
<path d="M112992 62992
L112205 62992
" />
</g>
<g style="fill:#000000; fill-opacity:0.0; 
stroke:#000000; stroke-width:39.3701; stroke-opacity:1; 
stroke-linecap:round; stroke-linejoin:round;">
</g>
<g style="fill:#000000; fill-opacity:0.0; 
stroke:#000000; stroke-width:59.0551; stroke-opacity:1; 
stroke-linecap:round; stroke-linejoin:round;">
<path d="M112477 13864
L112721 13864
" />
<path d="M112428 14011
L112599 13499
L112769 14011
" />
</g>
<g style="fill:#000000; fill-opacity:0.0; 
stroke:#000000; stroke-width:39.3701; stroke-opacity:1; 
stroke-linecap:round; stroke-linejoin:round;">
</g>
<g style="fill:#000000; fill-opacity:0.0; 
stroke:#000000; stroke-width:59.0551; stroke-opacity:1; 
stroke-linecap:round; stroke-linejoin:round;">
<path d="M112635 33428
L112708 33452
L112733 33476
L112757 33525
L112757 33598
L112733 33647
L112708 33671
L112660 33696
L112465 33696
L112465 33184
L112635 33184
L112684 33208
L112708 33233
L112733 33281
L112733 33330
L112708 33379
L112684 33403
L112635 33428
L112465 33428
" />
</g>
<g style="fill:#000000; fill-opacity:0.0; 
stroke:#000000; stroke-width:39.3701; stroke-opacity:1; 
stroke-linecap:round; stroke-linejoin:round;">
</g>
<g style="fill:#000000; fill-opacity:0.0; 
stroke:#000000; stroke-width:59.0551; stroke-opacity:1; 
stroke-linecap:round; stroke-linejoin:round;">
<path d="M112757 53332
L112733 53356
L112660 53381
L112611 53381
L112538 53356
L112489 53308
L112465 53259
L112440 53161
L112440 53088
L112465 52991
L112489 52942
L112538 52893
L112611 52869
L112660 52869
L112733 52893
L112757 52918
" />
</g>
<g style="fill:#000000; fill-opacity:0.0; 
stroke:#000000; stroke-width:39.3701; stroke-opacity:1; 
stroke-linecap:round; stroke-linejoin:round;">
</g>
<g style="fill:#000000; fill-opacity:0.0; 
stroke:#000000; stroke-width:59.0551; stroke-opacity:1; 
stroke-linecap:round; stroke-linejoin:round;">
<path d="M112465 73066
L112465 72554
L112587 72554
L112660 72578
L112708 72627
L112733 72676
L112757 72773
L112757 72846
L112733 72944
L112708 72993
L112660 73041
L112587 73066
L112465 73066
" />
</g>
<g style="fill:#000000; fill-opacity:0.0; 
stroke:#000000; stroke-width:39.3701; stroke-opacity:1; 
stroke-linecap:round; stroke-linejoin:round;">
</g>
<g style="fill:#000000; fill-opacity:0.0; 
stroke:#000000; stroke-width:59.0551; stroke-opacity:1; 
stroke-linecap:round; stroke-linejoin:round;">
<path d="M78881 76293
L78881 75703
L79022 75703
L79106 75731
L79162 75787
L79190 75843
L79219 75956
L79219 76040
L79190 76153
L79162 76209
L79106 76265
L79022 76293
L78881 76293
" />
<path d="M79725 76293
L79725 75984
L79697 75928
L79640 75899
L79528 75899
L79472 75928
" />
<path d="M79725 76265
L79669 76293
L79528 76293
L79472 76265
L79444 76209
L79444 76153
L79472 76096
L79528 76068
L79669 76068
L79725 76040
" />
<path d="M79922 75899
L80147 75899
" />
<path d="M80006 75703
L80006 76209
L80034 76265
L80090 76293
L80147 76293
" />
<path d="M80568 76265
L80512 76293
L80400 76293
L80343 76265
L80315 76209
L80315 75984
L80343 75928
L80400 75899
L80512 75899
L80568 75928
L80597 75984
L80597 76040
L80315 76096
" />
<path d="M80850 76237
L80878 76265
L80850 76293
L80822 76265
L80850 76237
L80850 76293
" />
<path d="M80850 75928
L80878 75956
L80850 75984
L80822 75956
L80850 75928
L80850 75984
" />
<path d="M81553 75759
L81581 75731
L81637 75703
L81778 75703
L81834 75731
L81862 75759
L81890 75815
L81890 75871
L81862 75956
L81525 76293
L81890 76293
" />
<path d="M82256 75703
L82312 75703
L82368 75731
L82396 75759
L82424 75815
L82453 75928
L82453 76068
L82424 76181
L82396 76237
L82368 76265
L82312 76293
L82256 76293
L82199 76265
L82171 76237
L82143 76181
L82115 76068
L82115 75928
L82143 75815
L82171 75759
L82199 75731
L82256 75703
" />
<path d="M83015 76293
L82678 76293
" />
<path d="M82846 76293
L82846 75703
L82790 75787
L82734 75843
L82678 75871
" />
<path d="M83212 75703
L83606 75703
L83352 76293
" />
<path d="M83831 76068
L84280 76068
" />
<path d="M84674 75703
L84730 75703
L84787 75731
L84815 75759
L84843 75815
L84871 75928
L84871 76068
L84843 76181
L84815 76237
L84787 76265
L84730 76293
L84674 76293
L84618 76265
L84590 76237
L84562 76181
L84534 76068
L84534 75928
L84562 75815
L84590 75759
L84618 75731
L84674 75703
" />
<path d="M85068 75703
L85433 75703
L85237 75928
L85321 75928
L85377 75956
L85405 75984
L85433 76040
L85433 76181
L85405 76237
L85377 76265
L85321 76293
L85152 76293
L85096 76265
L85068 76237
" />
<path d="M85687 76068
L86136 76068
" />
<path d="M86390 75759
L86418 75731
L86474 75703
L86615 75703
L86671 75731
L86699 75759
L86727 75815
L86727 75871
L86699 75956
L86361 76293
L86727 76293
" />
<path d="M87289 76293
L86952 76293
" />
<path d="M87121 76293
L87121 75703
L87064 75787
L87008 75843
L86952 75871
" />
</g>
<g style="fill:#000000; fill-opacity:0.0; 
stroke:#000000; stroke-width:39.3701; stroke-opacity:1; 
stroke-linecap:round; stroke-linejoin:round;">
</g>
<g style="fill:#000000; fill-opacity:0.0; 
stroke:#000000; stroke-width:59.0551; stroke-opacity:1; 
stroke-linecap:round; stroke-linejoin:round;">
<path d="M69685 76577
L112205 76577
" />
</g>
<g style="fill:#000000; fill-opacity:0.0; 
stroke:#000000; stroke-width:39.3701; stroke-opacity:1; 
stroke-linecap:round; stroke-linejoin:round;">
</g>
<g style="fill:#000000; fill-opacity:0.0; 
stroke:#000000; stroke-width:59.0551; stroke-opacity:1; 
stroke-linecap:round; stroke-linejoin:round;">
<path d="M70220 77395
L70220 76805
" />
<path d="M70557 77395
L70304 77058
" />
<path d="M70557 76805
L70220 77142
" />
<path d="M70810 77395
L70810 77002
" />
<path d="M70810 76805
L70782 76833
L70810 76861
L70838 76833
L70810 76805
L70810 76861
" />
<path d="M71429 77339
L71401 77367
L71316 77395
L71260 77395
L71176 77367
L71120 77311
L71091 77255
L71063 77142
L71063 77058
L71091 76946
L71120 76889
L71176 76833
L71260 76805
L71316 76805
L71401 76833
L71429 76861
" />
<path d="M71935 77395
L71935 77086
L71907 77030
L71851 77002
L71738 77002
L71682 77030
" />
<path d="M71935 77367
L71879 77395
L71738 77395
L71682 77367
L71654 77311
L71654 77255
L71682 77199
L71738 77171
L71879 77171
L71935 77142
" />
<path d="M72469 77395
L72469 76805
" />
<path d="M72469 77367
L72413 77395
L72301 77395
L72244 77367
L72216 77339
L72188 77283
L72188 77114
L72216 77058
L72244 77030
L72301 77002
L72413 77002
L72469 77030
" />
<path d="M73201 77086
L73397 77086
" />
<path d="M73482 77395
L73201 77395
L73201 76805
L73482 76805
" />
<path d="M73735 77339
L73763 77367
L73735 77395
L73707 77367
L73735 77339
L73735 77395
" />
<path d="M74016 77395
L74016 76805
L74157 76805
L74241 76833
L74297 76889
L74325 76946
L74354 77058
L74354 77142
L74325 77255
L74297 77311
L74241 77367
L74157 77395
L74016 77395
" />
<path d="M74607 77339
L74635 77367
L74607 77395
L74579 77367
L74607 77339
L74607 77395
" />
<path d="M74860 77227
L75141 77227
" />
<path d="M74804 77395
L75000 76805
L75197 77395
" />
<path d="M75394 77339
L75422 77367
L75394 77395
L75366 77367
L75394 77339
L75394 77395
" />
<path d="M76575 77395
L76575 76805
" />
<path d="M76631 77171
L76800 77395
" />
<path d="M76800 77002
L76575 77227
" />
<path d="M77053 77395
L77053 77002
" />
<path d="M77053 76805
L77025 76833
L77053 76861
L77081 76833
L77053 76805
L77053 76861
" />
<path d="M77588 77367
L77531 77395
L77419 77395
L77363 77367
L77334 77339
L77306 77283
L77306 77114
L77334 77058
L77363 77030
L77419 77002
L77531 77002
L77588 77030
" />
<path d="M78094 77395
L78094 77086
L78066 77030
L78009 77002
L77897 77002
L77841 77030
" />
<path d="M78094 77367
L78037 77395
L77897 77395
L77841 77367
L77813 77311
L77813 77255
L77841 77199
L77897 77171
L78037 77171
L78094 77142
" />
<path d="M78628 77395
L78628 76805
" />
<path d="M78628 77367
L78572 77395
L78459 77395
L78403 77367
L78375 77339
L78347 77283
L78347 77114
L78375 77058
L78403 77030
L78459 77002
L78572 77002
L78628 77030
" />
<path d="M79612 77002
L79612 77395
" />
<path d="M79472 76777
L79331 77199
L79697 77199
" />
<path d="M79922 77339
L79950 77367
L79922 77395
L79894 77367
L79922 77339
L79922 77395
" />
<path d="M80315 76805
L80372 76805
L80428 76833
L80456 76861
L80484 76917
L80512 77030
L80512 77171
L80484 77283
L80456 77339
L80428 77367
L80372 77395
L80315 77395
L80259 77367
L80231 77339
L80203 77283
L80175 77171
L80175 77030
L80203 76917
L80231 76861
L80259 76833
L80315 76805
" />
<path d="M80765 77339
L80793 77367
L80765 77395
L80737 77367
L80765 77339
L80765 77395
" />
<path d="M81300 76805
L81187 76805
L81131 76833
L81103 76861
L81046 76946
L81018 77058
L81018 77283
L81046 77339
L81075 77367
L81131 77395
L81243 77395
L81300 77367
L81328 77339
L81356 77283
L81356 77142
L81328 77086
L81300 77058
L81243 77030
L81131 77030
L81075 77058
L81046 77086
L81018 77142
" />
</g>
<g style="fill:#000000; fill-opacity:0.0; 
stroke:#000000; stroke-width:39.3701; stroke-opacity:1; 
stroke-linecap:round; stroke-linejoin:round;">
</g>
<g style="fill:#000000; fill-opacity:0.0; 
stroke:#000000; stroke-width:59.0551; stroke-opacity:1; 
stroke-linecap:round; stroke-linejoin:round;">
<path d="M69685 75396
L112205 75396
" />
</g>
<g style="fill:#000000; fill-opacity:0.0; 
stroke:#000000; stroke-width:39.3701; stroke-opacity:1; 
stroke-linecap:round; stroke-linejoin:round;">
</g>
<g style="fill:#000000; fill-opacity:0.0; 
stroke:#000000; stroke-width:118.11; stroke-opacity:1; 
stroke-linecap:round; stroke-linejoin:round;">
<path d="M104022 76293
L103825 76012
" />
<path d="M103684 76293
L103684 75703
L103909 75703
L103965 75731
L103994 75759
L104022 75815
L104022 75899
L103994 75956
L103965 75984
L103909 76012
L103684 76012
" />
<path d="M104500 76265
L104444 76293
L104331 76293
L104275 76265
L104247 76209
L104247 75984
L104275 75928
L104331 75899
L104444 75899
L104500 75928
L104528 75984
L104528 76040
L104247 76096
" />
<path d="M104725 75899
L104865 76293
L105006 75899
" />
<path d="M105231 76237
L105259 76265
L105231 76293
L105203 76265
L105231 76237
L105231 76293
" />
<path d="M105231 75928
L105259 75956
L105231 75984
L105203 75956
L105231 75928
L105231 75984
" />
<path d="M106271 76293
L105934 76293
" />
<path d="M106103 76293
L106103 75703
L106046 75787
L105990 75843
L105934 75871
" />
<path d="M106525 76237
L106553 76265
L106525 76293
L106496 76265
L106525 76237
L106525 76293
" />
<path d="M106918 75703
L106974 75703
L107031 75731
L107059 75759
L107087 75815
L107115 75928
L107115 76068
L107087 76181
L107059 76237
L107031 76265
L106974 76293
L106918 76293
L106862 76265
L106834 76237
L106806 76181
L106778 76068
L106778 75928
L106806 75815
L106834 75759
L106862 75731
L106918 75703
" />
</g>
<g style="fill:#000000; fill-opacity:0.0; 
stroke:#000000; stroke-width:39.3701; stroke-opacity:1; 
stroke-linecap:round; stroke-linejoin:round;">
</g>
<g style="fill:#000000; fill-opacity:0.0; 
stroke:#000000; stroke-width:59.0551; stroke-opacity:1; 
stroke-linecap:round; stroke-linejoin:round;">
<path d="M70192 76265
L70276 76293
L70417 76293
L70473 76265
L70501 76237
L70529 76181
L70529 76124
L70501 76068
L70473 76040
L70417 76012
L70304 75984
L70248 75956
L70220 75928
L70192 75871
L70192 75815
L70220 75759
L70248 75731
L70304 75703
L70445 75703
L70529 75731
" />
<path d="M70782 76293
L70782 75899
" />
<path d="M70782 75703
L70754 75731
L70782 75759
L70810 75731
L70782 75703
L70782 75759
" />
<path d="M71007 75899
L71316 75899
L71007 76293
L71316 76293
" />
<path d="M71766 76265
L71710 76293
L71598 76293
L71541 76265
L71513 76209
L71513 75984
L71541 75928
L71598 75899
L71710 75899
L71766 75928
L71795 75984
L71795 76040
L71513 76096
" />
<path d="M72048 76237
L72076 76265
L72048 76293
L72019 76265
L72048 76237
L72048 76293
" />
<path d="M72048 75928
L72076 75956
L72048 75984
L72019 75956
L72048 75928
L72048 75984
" />
<path d="M72751 76124
L73032 76124
" />
<path d="M72694 76293
L72891 75703
L73088 76293
" />
<path d="M73538 75899
L73538 76293
" />
<path d="M73397 75674
L73257 76096
L73622 76096
" />
</g>
<g style="fill:#000000; fill-opacity:0.0; 
stroke:#000000; stroke-width:39.3701; stroke-opacity:1; 
stroke-linecap:round; stroke-linejoin:round;">
</g>
<g style="fill:#000000; fill-opacity:0.0; 
stroke:#000000; stroke-width:59.0551; stroke-opacity:1; 
stroke-linecap:round; stroke-linejoin:round;">
<path d="M103684 77395
L103684 76805
" />
<path d="M104219 77395
L104219 76805
" />
<path d="M104219 77367
L104162 77395
L104050 77395
L103994 77367
L103965 77339
L103937 77283
L103937 77114
L103965 77058
L103994 77030
L104050 77002
L104162 77002
L104219 77030
" />
<path d="M104500 77339
L104528 77367
L104500 77395
L104472 77367
L104500 77339
L104500 77395
" />
<path d="M104500 77030
L104528 77058
L104500 77086
L104472 77058
L104500 77030
L104500 77086
" />
<path d="M105540 77395
L105203 77395
" />
<path d="M105372 77395
L105372 76805
L105315 76889
L105259 76946
L105203 76974
" />
<path d="M106215 76777
L105709 77536
" />
<path d="M106721 77395
L106384 77395
" />
<path d="M106553 77395
L106553 76805
L106496 76889
L106440 76946
L106384 76974
" />
</g>
<g style="fill:#000000; fill-opacity:0.0; 
stroke:#000000; stroke-width:39.3701; stroke-opacity:1; 
stroke-linecap:round; stroke-linejoin:round;">
</g>
<g style="fill:#000000; fill-opacity:0.0; 
stroke:#000000; stroke-width:59.0551; stroke-opacity:1; 
stroke-linecap:round; stroke-linejoin:round;">
<path d="M69685 73821
L112205 73821
" />
</g>
<g style="fill:#000000; fill-opacity:0.0; 
stroke:#000000; stroke-width:39.3701; stroke-opacity:1; 
stroke-linecap:round; stroke-linejoin:round;">
</g>
<g style="fill:#000000; fill-opacity:0.0; 
stroke:#000000; stroke-width:157.48; stroke-opacity:1; 
stroke-linecap:round; stroke-linejoin:round;">
<path d="M70257 74099
L70707 74099
" />
<path d="M70384 74886
L70482 74099
" />
<path d="M70871 74886
L70937 74361
" />
<path d="M70970 74099
L70927 74136
L70960 74174
L71002 74136
L70970 74099
L70960 74174
" />
<path d="M71199 74361
L71499 74361
" />
<path d="M71345 74099
L71260 74774
L71288 74849
L71359 74886
L71434 74886
" />
<path d="M71809 74886
L71738 74849
L71710 74774
L71795 74099
" />
<path d="M72413 74849
L72334 74886
L72184 74886
L72113 74849
L72085 74774
L72123 74474
L72169 74399
L72249 74361
L72399 74361
L72469 74399
L72498 74474
L72488 74549
L72104 74624
" />
<path d="M72793 74811
L72826 74849
L72783 74886
L72751 74849
L72793 74811
L72783 74886
" />
<path d="M72844 74399
L72877 74436
L72835 74474
L72802 74436
L72844 74399
L72835 74474
" />
<path d="M73758 74886
L73857 74099
" />
<path d="M74583 74886
L74368 74511
" />
<path d="M74133 74886
L74232 74099
L74532 74099
L74602 74136
L74635 74174
L74663 74249
L74649 74361
L74602 74436
L74560 74474
L74480 74511
L74180 74511
" />
<path d="M75971 74886
L75755 74511
" />
<path d="M75521 74886
L75619 74099
L75919 74099
L75989 74136
L76022 74174
L76050 74249
L76036 74361
L75989 74436
L75947 74474
L75867 74511
L75567 74511
" />
<path d="M76613 74849
L76533 74886
L76383 74886
L76313 74849
L76285 74774
L76322 74474
L76369 74399
L76449 74361
L76599 74361
L76669 74399
L76697 74474
L76688 74549
L76303 74624
" />
<path d="M77325 74849
L77245 74886
L77095 74886
L77025 74849
L76992 74811
L76964 74736
L76992 74511
L77039 74436
L77081 74399
L77161 74361
L77311 74361
L77381 74399
" />
<path d="M77962 74849
L77883 74886
L77733 74886
L77663 74849
L77634 74774
L77672 74474
L77719 74399
L77798 74361
L77948 74361
L78019 74399
L78047 74474
L78037 74549
L77653 74624
" />
<path d="M78333 74886
L78398 74361
" />
<path d="M78431 74099
L78389 74136
L78422 74174
L78464 74136
L78431 74099
L78422 74174
" />
<path d="M78698 74361
L78820 74886
L79073 74361
" />
<path d="M79612 74849
L79533 74886
L79383 74886
L79312 74849
L79284 74774
L79322 74474
L79369 74399
L79448 74361
L79598 74361
L79669 74399
L79697 74474
L79687 74549
L79303 74624
" />
<path d="M79983 74886
L80048 74361
" />
<path d="M80029 74511
L80076 74436
L80118 74399
L80198 74361
L80273 74361
" />
</g>
<g style="fill:#000000; fill-opacity:0.0; 
stroke:#000000; stroke-width:39.3701; stroke-opacity:1; 
stroke-linecap:round; stroke-linejoin:round;">
</g>
<g style="fill:#000000; fill-opacity:0.0; 
stroke:#000000; stroke-width:59.0551; stroke-opacity:1; 
stroke-linecap:round; stroke-linejoin:round;">
<path d="M70417 73070
L70220 73070
" />
<path d="M70220 73380
L70220 72789
L70501 72789
" />
<path d="M70726 73380
L70726 72986
" />
<path d="M70726 72789
L70698 72817
L70726 72845
L70754 72817
L70726 72789
L70726 72845
" />
<path d="M71091 73380
L71035 73352
L71007 73295
L71007 72789
" />
<path d="M71541 73352
L71485 73380
L71373 73380
L71316 73352
L71288 73295
L71288 73070
L71316 73014
L71373 72986
L71485 72986
L71541 73014
L71570 73070
L71570 73127
L71288 73183
" />
<path d="M71823 73323
L71851 73352
L71823 73380
L71795 73352
L71823 73323
L71823 73380
" />
<path d="M71823 73014
L71851 73042
L71823 73070
L71795 73042
L71823 73014
L71823 73070
" />
<path d="M72638 73380
L72582 73352
L72554 73295
L72554 72789
" />
<path d="M72947 73380
L72891 73352
L72863 73323
L72835 73267
L72835 73099
L72863 73042
L72891 73014
L72947 72986
L73032 72986
L73088 73014
L73116 73042
L73144 73099
L73144 73267
L73116 73323
L73088 73352
L73032 73380
L72947 73380
" />
<path d="M73651 73352
L73594 73380
L73482 73380
L73426 73352
L73397 73323
L73369 73267
L73369 73099
L73397 73042
L73426 73014
L73482 72986
L73594 72986
L73651 73014
" />
<path d="M73988 73380
L73932 73352
L73904 73323
L73876 73267
L73876 73099
L73904 73042
L73932 73014
L73988 72986
L74072 72986
L74129 73014
L74157 73042
L74185 73099
L74185 73267
L74157 73323
L74129 73352
L74072 73380
L73988 73380
" />
<path d="M74438 73380
L74438 72986
" />
<path d="M74438 73042
L74466 73014
L74522 72986
L74607 72986
L74663 73014
L74691 73070
L74691 73380
" />
<path d="M74691 73070
L74719 73014
L74775 72986
L74860 72986
L74916 73014
L74944 73070
L74944 73380
" />
<path d="M75310 73380
L75253 73352
L75225 73323
L75197 73267
L75197 73099
L75225 73042
L75253 73014
L75310 72986
L75394 72986
L75450 73014
L75478 73042
L75507 73099
L75507 73267
L75478 73323
L75450 73352
L75394 73380
L75310 73380
" />
<path d="M75675 72986
L75900 72986
" />
<path d="M75760 72789
L75760 73295
L75788 73352
L75844 73380
L75900 73380
" />
<path d="M76097 73380
L76097 72986
" />
<path d="M76097 72789
L76069 72817
L76097 72845
L76125 72817
L76097 72789
L76097 72845
" />
<path d="M76322 72986
L76463 73380
L76603 72986
" />
<path d="M77053 73352
L76997 73380
L76885 73380
L76828 73352
L76800 73295
L76800 73070
L76828 73014
L76885 72986
L76997 72986
L77053 73014
L77081 73070
L77081 73127
L76800 73183
" />
<path d="M77194 73436
L77644 73436
" />
<path d="M77784 73380
L77784 72986
" />
<path d="M77784 72789
L77756 72817
L77784 72845
L77813 72817
L77784 72789
L77784 72845
" />
<path d="M78066 73380
L78066 72986
" />
<path d="M78066 73099
L78094 73042
L78122 73014
L78178 72986
L78234 72986
" />
<path d="M78291 73436
L78741 73436
" />
<path d="M78881 73380
L78881 72986
" />
<path d="M78881 73099
L78909 73042
L78937 73014
L78994 72986
L79050 72986
" />
<path d="M79472 73352
L79415 73380
L79303 73380
L79247 73352
L79219 73295
L79219 73070
L79247 73014
L79303 72986
L79415 72986
L79472 73014
L79500 73070
L79500 73127
L79219 73183
" />
<path d="M80006 73352
L79950 73380
L79837 73380
L79781 73352
L79753 73323
L79725 73267
L79725 73099
L79753 73042
L79781 73014
L79837 72986
L79950 72986
L80006 73014
" />
<path d="M80484 73352
L80428 73380
L80315 73380
L80259 73352
L80231 73295
L80231 73070
L80259 73014
L80315 72986
L80428 72986
L80484 73014
L80512 73070
L80512 73127
L80231 73183
" />
<path d="M80765 73380
L80765 72986
" />
<path d="M80765 72789
L80737 72817
L80765 72845
L80793 72817
L80765 72789
L80765 72845
" />
<path d="M80990 72986
L81131 73380
L81271 72986
" />
<path d="M81721 73352
L81665 73380
L81553 73380
L81496 73352
L81468 73295
L81468 73070
L81496 73014
L81553 72986
L81665 72986
L81721 73014
L81750 73070
L81750 73127
L81468 73183
" />
<path d="M82003 73380
L82003 72986
" />
<path d="M82003 73099
L82031 73042
L82059 73014
L82115 72986
L82171 72986
" />
<path d="M82368 73323
L82396 73352
L82368 73380
L82340 73352
L82368 73323
L82368 73380
" />
<path d="M82649 73380
L82649 72789
" />
<path d="M82706 73155
L82874 73380
" />
<path d="M82874 72986
L82649 73211
" />
<path d="M83127 73380
L83127 72986
" />
<path d="M83127 72789
L83099 72817
L83127 72845
L83156 72817
L83127 72789
L83127 72845
" />
<path d="M83662 73352
L83606 73380
L83493 73380
L83437 73352
L83409 73323
L83381 73267
L83381 73099
L83409 73042
L83437 73014
L83493 72986
L83606 72986
L83662 73014
" />
<path d="M84168 73380
L84168 73070
L84140 73014
L84084 72986
L83971 72986
L83915 73014
" />
<path d="M84168 73352
L84112 73380
L83971 73380
L83915 73352
L83887 73295
L83887 73239
L83915 73183
L83971 73155
L84112 73155
L84168 73127
" />
<path d="M84702 73380
L84702 72789
" />
<path d="M84702 73352
L84646 73380
L84534 73380
L84477 73352
L84449 73323
L84421 73267
L84421 73099
L84449 73042
L84477 73014
L84534 72986
L84646 72986
L84702 73014
" />
<path d="M84843 73436
L85293 73436
" />
<path d="M85433 72986
L85433 73577
" />
<path d="M85433 73014
L85490 72986
L85602 72986
L85658 73014
L85687 73042
L85715 73099
L85715 73267
L85687 73323
L85658 73352
L85602 73380
L85490 73380
L85433 73352
" />
<path d="M86221 73352
L86165 73380
L86052 73380
L85996 73352
L85968 73323
L85940 73267
L85940 73099
L85968 73042
L85996 73014
L86052 72986
L86165 72986
L86221 73014
" />
<path d="M86474 73380
L86474 72789
" />
<path d="M86474 73014
L86530 72986
L86643 72986
L86699 73014
L86727 73042
L86755 73099
L86755 73267
L86727 73323
L86699 73352
L86643 73380
L86530 73380
L86474 73352
" />
</g>
<g style="fill:#000000; fill-opacity:0.0; 
stroke:#000000; stroke-width:39.3701; stroke-opacity:1; 
stroke-linecap:round; stroke-linejoin:round;">
</g>
<g style="fill:#000000; fill-opacity:0.0; 
stroke:#000000; stroke-width:59.0551; stroke-opacity:1; 
stroke-linecap:round; stroke-linejoin:round;">
<path d="M69685 71459
L112205 71459
" />
</g>
<g style="fill:#000000; fill-opacity:0.0; 
stroke:#000000; stroke-width:39.3701; stroke-opacity:1; 
stroke-linecap:round; stroke-linejoin:round;">
</g>
<g style="fill:#000000; fill-opacity:0.0; 
stroke:#000000; stroke-width:59.0551; stroke-opacity:1; 
stroke-linecap:round; stroke-linejoin:round;">
<path d="M70192 72289
L70276 72317
L70417 72317
L70473 72289
L70501 72260
L70529 72204
L70529 72148
L70501 72092
L70473 72064
L70417 72036
L70304 72007
L70248 71979
L70220 71951
L70192 71895
L70192 71839
L70220 71782
L70248 71754
L70304 71726
L70445 71726
L70529 71754
" />
<path d="M70782 72317
L70782 71726
" />
<path d="M71035 72317
L71035 72007
L71007 71951
L70951 71923
L70867 71923
L70810 71951
L70782 71979
" />
<path d="M71541 72289
L71485 72317
L71373 72317
L71316 72289
L71288 72232
L71288 72007
L71316 71951
L71373 71923
L71485 71923
L71541 71951
L71570 72007
L71570 72064
L71288 72120
" />
<path d="M72048 72289
L71991 72317
L71879 72317
L71823 72289
L71795 72232
L71795 72007
L71823 71951
L71879 71923
L71991 71923
L72048 71951
L72076 72007
L72076 72064
L71795 72120
" />
<path d="M72244 71923
L72469 71923
" />
<path d="M72329 71726
L72329 72232
L72357 72289
L72413 72317
L72469 72317
" />
<path d="M72666 72260
L72694 72289
L72666 72317
L72638 72289
L72666 72260
L72666 72317
" />
<path d="M72666 71951
L72694 71979
L72666 72007
L72638 71979
L72666 71951
L72666 72007
" />
</g>
<g style="fill:#000000; fill-opacity:0.0; 
stroke:#000000; stroke-width:39.3701; stroke-opacity:1; 
stroke-linecap:round; stroke-linejoin:round;">
</g>
<g style="fill:#000000; fill-opacity:0.0; 
stroke:#000000; stroke-width:118.11; stroke-opacity:1; 
stroke-linecap:round; stroke-linejoin:round;">
<path d="M70220 70826
L70417 70826
" />
<path d="M70501 71136
L70220 71136
L70220 70545
L70501 70545
" />
<path d="M71091 71079
L71063 71108
L70979 71136
L70923 71136
L70838 71108
L70782 71051
L70754 70995
L70726 70883
L70726 70798
L70754 70686
L70782 70629
L70838 70573
L70923 70545
L70979 70545
L71063 70573
L71091 70601
" />
<path d="M71345 70826
L71541 70826
" />
<path d="M71626 71136
L71345 71136
L71345 70545
L71626 70545
" />
<path d="M72582 70742
L72582 71136
" />
<path d="M72441 70517
L72301 70939
L72666 70939
" />
<path d="M73144 70742
L73144 71136
" />
<path d="M73004 70517
L72863 70939
L73229 70939
" />
<path d="M73735 70545
L73454 70545
L73426 70826
L73454 70798
L73510 70770
L73651 70770
L73707 70798
L73735 70826
L73763 70883
L73763 71023
L73735 71079
L73707 71108
L73651 71136
L73510 71136
L73454 71108
L73426 71079
" />
</g>
<g style="fill:#000000; fill-opacity:0.0; 
stroke:#000000; stroke-width:39.3701; stroke-opacity:1; 
stroke-linecap:round; stroke-linejoin:round;">
</g>
<g style="fill:#000000; fill-opacity:0.0; 
stroke:#000000; stroke-width:59.0551; stroke-opacity:1; 
stroke-linecap:round; stroke-linejoin:round;">
<path d="M77559 75396
L77559 76577
" />
</g>
<g style="fill:#000000; fill-opacity:0.0; 
stroke:#000000; stroke-width:39.3701; stroke-opacity:1; 
stroke-linecap:round; stroke-linejoin:round;">
</g>
<g style="fill:#000000; fill-opacity:0.0; 
stroke:#000000; stroke-width:59.0551; stroke-opacity:1; 
stroke-linecap:round; stroke-linejoin:round;">
<path d="M102756 75396
L102756 77955
" />
</g>
<g style="fill:#840084; fill-opacity:0.0; 
stroke:#840084; stroke-width:59.0551; stroke-opacity:1; 
stroke-linecap:round; stroke-linejoin:round;">
</g>
<g style="fill:#840084; fill-opacity:0.0; 
stroke:#840084; stroke-width:118.11; stroke-opacity:1; 
stroke-linecap:round; stroke-linejoin:round;">
<path d="M62364 39815
L62364 38831
" />
<path d="M61332 39815
L61661 39346
" />
<path d="M61895 39815
L61895 38831
L61520 38831
L61426 38877
L61379 38924
L61332 39018
L61332 39159
L61379 39252
L61426 39299
L61520 39346
L61895 39346
" />
<path d="M61801 41193
L62129 40724
" />
<path d="M62364 41193
L62364 40209
L61989 40209
L61895 40255
L61848 40302
L61801 40396
L61801 40537
L61848 40630
L61895 40677
L61989 40724
L62364 40724
" />
<path d="M61004 41146
L61098 41193
L61286 41193
L61379 41146
L61426 41052
L61426 40677
L61379 40583
L61286 40537
L61098 40537
L61004 40583
L60958 40677
L60958 40771
L61426 40865
" />
<path d="M60629 40537
L60395 41193
L60161 40537
" />
<path d="M58520 41193
L59083 41193
" />
<path d="M58802 41193
L58802 40209
L58895 40349
L58989 40443
L59083 40490
" />
<path d="M58098 41099
L58052 41146
L58098 41193
L58145 41146
L58098 41099
L58098 41193
" />
<path d="M57442 40209
L57349 40209
L57255 40255
L57208 40302
L57161 40396
L57114 40583
L57114 40818
L57161 41005
L57208 41099
L57255 41146
L57349 41193
L57442 41193
L57536 41146
L57583 41099
L57630 41005
L57677 40818
L57677 40583
L57630 40396
L57583 40302
L57536 40255
L57442 40209
" />
<path d="M62364 38437
L62364 37453
" />
<path d="M62364 37828
L62270 37781
L62082 37781
L61989 37828
L61942 37874
L61895 37968
L61895 38249
L61942 38343
L61989 38390
L62082 38437
L62270 38437
L62364 38390
" />
<path d="M61051 38390
L61145 38437
L61332 38437
L61426 38390
L61473 38343
L61520 38249
L61520 37968
L61473 37874
L61426 37828
L61332 37781
L61145 37781
L61051 37828
" />
<path d="M60208 38437
L60208 37921
L60254 37828
L60348 37781
L60536 37781
L60629 37828
" />
<path d="M60208 38390
L60301 38437
L60536 38437
L60629 38390
L60676 38296
L60676 38203
L60629 38109
L60536 38062
L60301 38062
L60208 38015
" />
<path d="M59739 37781
L59739 38437
" />
<path d="M59739 37874
L59692 37828
L59598 37781
L59458 37781
L59364 37828
L59317 37921
L59317 38437
" />
<path d="M58848 38343
L58802 38390
L58848 38437
L58895 38390
L58848 38343
L58848 38437
" />
<path d="M58380 38437
L58380 37781
" />
<path d="M58380 37453
L58427 37500
L58380 37546
L58333 37500
L58380 37453
L58380 37546
" />
<path d="M57770 38437
L57864 38390
L57911 38343
L57958 38249
L57958 37968
L57911 37874
L57864 37828
L57770 37781
L57630 37781
L57536 37828
L57489 37874
L57442 37968
L57442 38249
L57489 38343
L57536 38390
L57630 38437
L57770 38437
" />
</g>
<g style="fill:#840084; fill-opacity:1.0; 
stroke:#840084; stroke-width:98.4252; stroke-opacity:1; 
stroke-linecap:round; stroke-linejoin:round;">
<polyline style="fill-rule:evenodd;"
points="62093,42035
62332,42195
62492,42434
62549,42721
62549,44483
62492,44770
62332,45009
62093,45169
61806,45226
56304,45226
56017,45169
55777,45009
55618,44770
55561,44483
55561,42721
55618,42434
55777,42195
56017,42035
56304,41978
61806,41978
62093,42035
" /> 
<polyline style="fill-rule:evenodd;"
points="62104,33570
62343,33730
62503,33969
62560,34256
62560,36018
62503,36305
62343,36544
62104,36704
61817,36761
56315,36761
56028,36704
55789,36544
55629,36305
55572,36018
55572,34256
55629,33969
55789,33730
56028,33570
56315,33513
61817,33513
62104,33570
" /> 
</g>
<g style="fill:#000000; fill-opacity:1.0; 
stroke:#000000; stroke-width:98.4252; stroke-opacity:1; 
stroke-linecap:round; stroke-linejoin:round;">
</g>
<g style="fill:#C2C2C2; fill-opacity:1.0; 
stroke:#C2C2C2; stroke-width:98.4252; stroke-opacity:1; 
stroke-linecap:round; stroke-linejoin:round;">
</g>
<g style="fill:#C2C2C2; fill-opacity:1.0; 
stroke:#C2C2C2; stroke-width:0; stroke-opacity:1; 
stroke-linecap:round; stroke-linejoin:round;">
<circle cx="58316.9" cy="39074.8" r="118.11" /> 
</g>
<g style="fill:#C2C2C2; fill-opacity:1.0; 
stroke:#C2C2C2; stroke-width:39.3701; stroke-opacity:1; 
stroke-linecap:round; stroke-linejoin:round;">
</g>
<g style="fill:#C2C2C2; fill-opacity:1.0; 
stroke:#C2C2C2; stroke-width:0; stroke-opacity:1; 
stroke-linecap:round; stroke-linejoin:round;">
<circle cx="55905.5" cy="39960.6" r="118.11" /> 
</g>
<g style="fill:#C2C2C2; fill-opacity:1.0; 
stroke:#C2C2C2; stroke-width:39.3701; stroke-opacity:1; 
stroke-linecap:round; stroke-linejoin:round;">
</g>
<g style="fill:#C2C2C2; fill-opacity:1.0; 
stroke:#C2C2C2; stroke-width:0; stroke-opacity:1; 
stroke-linecap:round; stroke-linejoin:round;">
<circle cx="62204.7" cy="38779.5" r="118.11" /> 
</g>
<g style="fill:#C2C2C2; fill-opacity:1.0; 
stroke:#C2C2C2; stroke-width:39.3701; stroke-opacity:1; 
stroke-linecap:round; stroke-linejoin:round;">
</g>
<g style="fill:#C2C2C2; fill-opacity:1.0; 
stroke:#C2C2C2; stroke-width:0; stroke-opacity:1; 
stroke-linecap:round; stroke-linejoin:round;">
<circle cx="55905.5" cy="38779.5" r="118.11" /> 
</g>
<g style="fill:#C2C2C2; fill-opacity:1.0; 
stroke:#C2C2C2; stroke-width:39.3701; stroke-opacity:1; 
stroke-linecap:round; stroke-linejoin:round;">
</g>
<g style="fill:#C2C2C2; fill-opacity:1.0; 
stroke:#C2C2C2; stroke-width:0; stroke-opacity:1; 
stroke-linecap:round; stroke-linejoin:round;">
<circle cx="58809.1" cy="39074.8" r="118.11" /> 
</g>
<g style="fill:#C2C2C2; fill-opacity:1.0; 
stroke:#C2C2C2; stroke-width:39.3701; stroke-opacity:1; 
stroke-linecap:round; stroke-linejoin:round;">
</g>
<g style="fill:#C2C2C2; fill-opacity:1.0; 
stroke:#C2C2C2; stroke-width:0; stroke-opacity:1; 
stroke-linecap:round; stroke-linejoin:round;">
<circle cx="62204.7" cy="39960.6" r="118.11" /> 
</g>
<g style="fill:#C2C2C2; fill-opacity:1.0; 
stroke:#C2C2C2; stroke-width:39.3701; stroke-opacity:1; 
stroke-linecap:round; stroke-linejoin:round;">
</g>
<g style="fill:#C2C2C2; fill-opacity:1.0; 
stroke:#C2C2C2; stroke-width:0; stroke-opacity:1; 
stroke-linecap:round; stroke-linejoin:round;">
<circle cx="59301.2" cy="39074.8" r="118.11" /> 
</g>
<g style="fill:#C2C2C2; fill-opacity:1.0; 
stroke:#C2C2C2; stroke-width:39.3701; stroke-opacity:1; 
stroke-linecap:round; stroke-linejoin:round;">
</g>
<g style="fill:#C2C2C2; fill-opacity:1.0; 
stroke:#C2C2C2; stroke-width:0; stroke-opacity:1; 
stroke-linecap:round; stroke-linejoin:round;">
<circle cx="59793.3" cy="39074.8" r="118.11" /> 
</g>
<g style="fill:#C2C2C2; fill-opacity:1.0; 
stroke:#C2C2C2; stroke-width:39.3701; stroke-opacity:1; 
stroke-linecap:round; stroke-linejoin:round;">
</g>
<g style="fill:#008400; fill-opacity:1.0; 
stroke:#008400; stroke-width:39.3701; stroke-opacity:1; 
stroke-linecap:round; stroke-linejoin:round;">
</g>
<g style="fill:#008400; fill-opacity:1.0; 
stroke:#008400; stroke-width:98.4252; stroke-opacity:1; 
stroke-linecap:round; stroke-linejoin:round;">
</g>
<g style="fill:#008400; fill-opacity:0.0; 
stroke:#008400; stroke-width:98.4252; stroke-opacity:1; 
stroke-linecap:round; stroke-linejoin:round;">
<path d="M58562 39320
L58927 39320
" />
<path d="M58927 39320
L59055 39192
" />
<path d="M59055 39192
L59055 38956
" />
<path d="M55905 39960
L57431 39960
" />
<path d="M57431 39960
L58316 39074
" />
<path d="M62204 38779
L59232 38779
" />
<path d="M59232 38779
L59055 38956
" />
<path d="M58562 39320
L58316 39074
" />
<path d="M55905 38779
L58513 38779
" />
<path d="M58513 38779
L58809 39074
" />
<path d="M62204 39960
L60187 39960
" />
<path d="M60187 39960
L59301 39074
" />
</g>
<g style="fill:#008400; fill-opacity:1.0; 
stroke:#008400; stroke-width:98.4252; stroke-opacity:1; 
stroke-linecap:round; stroke-linejoin:round;">
<polyline style="fill-rule:evenodd;"
points="62436,33297
62633,33429
62765,33626
62814,33875
62814,44864
62765,45114
62633,45310
62436,45442
62187,45492
55922,45492
55673,45442
55476,45310
55344,45114
55295,44864
55295,43826
57923,43826
58094,44242
58413,44561
58828,44734
59279,44734
59695,44562
60014,44244
60186,43828
60187,43378
60015,42962
59697,42643
59281,42470
58830,42470
58414,42642
58096,42960
57923,43376
57923,43826
55295,43826
55295,38832
55639,38832
55680,38929
55754,39004
55852,39045
55958,39045
56055,39004
56084,38976
58070,38976
58051,39021
58051,39062
57349,39763
56084,39763
56056,39735
55958,39694
55852,39694
55755,39735
55680,39809
55639,39907
55639,40013
55680,40110
55754,40185
55852,40226
55958,40226
56055,40186
56084,40157
57431,40157
57506,40142
57570,40099
58316,39353
58423,39460
58487,39502
58562,39517
58927,39517
59002,39502
59066,39460
59194,39332
59201,39321
59248,39340
59288,39340
60047,40099
60086,40125
60111,40142
60187,40157
62025,40157
62053,40185
62151,40226
62257,40226
62355,40186
62429,40111
62470,40013
62470,39908
62430,39810
62355,39735
62257,39694
62152,39694
62054,39735
62025,39763
60268,39763
59566,39062
59566,39022
59548,38976
62025,38976
62053,39004
62151,39045
62257,39045
62355,39004
62429,38930
62470,38832
62470,38726
62430,38629
62355,38554
62257,38513
62152,38513
62054,38554
62025,38582
59232,38582
59156,38597
59093,38640
58915,38817
58908,38828
58862,38809
58821,38809
58652,38640
58589,38597
58513,38582
56084,38582
56056,38554
55958,38513
55852,38513
55755,38554
55680,38628
55639,38726
55639,38832
55295,38832
55295,35361
57923,35361
58094,35778
58413,36096
58828,36269
59279,36269
59695,36097
60014,35779
60186,35363
60187,34913
60015,34497
59697,34178
59281,34006
58830,34005
58414,34177
58096,34495
57923,34911
57923,35361
55295,35361
55295,33875
55344,33626
55476,33429
55673,33297
55922,33248
62187,33248
62436,33297
" /> 
</g>
<g style="fill:#FFFFFF; fill-opacity:1.0; 
stroke:#FFFFFF; stroke-width:98.4252; stroke-opacity:1; 
stroke-linecap:round; stroke-linejoin:round;">
</g>
<g style="fill:#FFFFFF; fill-opacity:1.0; 
stroke:#FFFFFF; stroke-width:0; stroke-opacity:1; 
stroke-linecap:round; stroke-linejoin:round;">
<circle cx="58316.9" cy="39074.8" r="78.7402" /> 
</g>
<g style="fill:#FFFFFF; fill-opacity:1.0; 
stroke:#FFFFFF; stroke-width:39.3701; stroke-opacity:1; 
stroke-linecap:round; stroke-linejoin:round;">
</g>
<g style="fill:#FFFFFF; fill-opacity:1.0; 
stroke:#FFFFFF; stroke-width:0; stroke-opacity:1; 
stroke-linecap:round; stroke-linejoin:round;">
<circle cx="55905.5" cy="39960.6" r="78.7402" /> 
</g>
<g style="fill:#FFFFFF; fill-opacity:1.0; 
stroke:#FFFFFF; stroke-width:39.3701; stroke-opacity:1; 
stroke-linecap:round; stroke-linejoin:round;">
</g>
<g style="fill:#FFFFFF; fill-opacity:1.0; 
stroke:#FFFFFF; stroke-width:0; stroke-opacity:1; 
stroke-linecap:round; stroke-linejoin:round;">
<circle cx="62204.7" cy="38779.5" r="78.7402" /> 
</g>
<g style="fill:#FFFFFF; fill-opacity:1.0; 
stroke:#FFFFFF; stroke-width:39.3701; stroke-opacity:1; 
stroke-linecap:round; stroke-linejoin:round;">
</g>
<g style="fill:#FFFFFF; fill-opacity:1.0; 
stroke:#FFFFFF; stroke-width:0; stroke-opacity:1; 
stroke-linecap:round; stroke-linejoin:round;">
<circle cx="55905.5" cy="38779.5" r="78.7402" /> 
</g>
<g style="fill:#FFFFFF; fill-opacity:1.0; 
stroke:#FFFFFF; stroke-width:39.3701; stroke-opacity:1; 
stroke-linecap:round; stroke-linejoin:round;">
</g>
<g style="fill:#FFFFFF; fill-opacity:1.0; 
stroke:#FFFFFF; stroke-width:0; stroke-opacity:1; 
stroke-linecap:round; stroke-linejoin:round;">
<circle cx="58809.1" cy="39074.8" r="78.7402" /> 
</g>
<g style="fill:#FFFFFF; fill-opacity:1.0; 
stroke:#FFFFFF; stroke-width:39.3701; stroke-opacity:1; 
stroke-linecap:round; stroke-linejoin:round;">
</g>
<g style="fill:#FFFFFF; fill-opacity:1.0; 
stroke:#FFFFFF; stroke-width:0; stroke-opacity:1; 
stroke-linecap:round; stroke-linejoin:round;">
<circle cx="62204.7" cy="39960.6" r="78.7402" /> 
</g>
<g style="fill:#FFFFFF; fill-opacity:1.0; 
stroke:#FFFFFF; stroke-width:39.3701; stroke-opacity:1; 
stroke-linecap:round; stroke-linejoin:round;">
</g>
<g style="fill:#FFFFFF; fill-opacity:1.0; 
stroke:#FFFFFF; stroke-width:0; stroke-opacity:1; 
stroke-linecap:round; stroke-linejoin:round;">
<circle cx="59301.2" cy="39074.8" r="78.7402" /> 
</g>
<g style="fill:#FFFFFF; fill-opacity:1.0; 
stroke:#FFFFFF; stroke-width:39.3701; stroke-opacity:1; 
stroke-linecap:round; stroke-linejoin:round;">
</g>
<g style="fill:#FFFFFF; fill-opacity:1.0; 
stroke:#FFFFFF; stroke-width:0; stroke-opacity:1; 
stroke-linecap:round; stroke-linejoin:round;">
<circle cx="59793.3" cy="39074.8" r="78.7402" /> 
</g>
<g style="fill:#FFFFFF; fill-opacity:1.0; 
stroke:#FFFFFF; stroke-width:39.3701; stroke-opacity:1; 
stroke-linecap:round; stroke-linejoin:round;">
</g>
<g style="fill:#FFFFFF; fill-opacity:1.0; 
stroke:#FFFFFF; stroke-width:0; stroke-opacity:1; 
stroke-linecap:round; stroke-linejoin:round;">
<circle cx="59055.1" cy="35137.8" r="984.252" /> 
</g>
<g style="fill:#FFFFFF; fill-opacity:1.0; 
stroke:#FFFFFF; stroke-width:39.3701; stroke-opacity:1; 
stroke-linecap:round; stroke-linejoin:round;">
</g>
<g style="fill:#FFFFFF; fill-opacity:1.0; 
stroke:#FFFFFF; stroke-width:0; stroke-opacity:1; 
stroke-linecap:round; stroke-linejoin:round;">
<circle cx="59055.1" cy="43602.4" r="984.252" /> 
</g>
<g style="fill:#FFFFFF; fill-opacity:1.0; 
stroke:#FFFFFF; stroke-width:39.3701; stroke-opacity:1; 
stroke-linecap:round; stroke-linejoin:round;">
</g>
<g style="fill:#000000; fill-opacity:1.0; 
stroke:#000000; stroke-width:39.3701; stroke-opacity:1; 
stroke-linecap:round; stroke-linejoin:round;">
</g>
<g style="fill:#840000; fill-opacity:1.0; 
stroke:#840000; stroke-width:39.3701; stroke-opacity:1; 
stroke-linecap:round; stroke-linejoin:round;">
</g>
<g style="fill:#840000; fill-opacity:1.0; 
stroke:#840000; stroke-width:0; stroke-opacity:1; 
stroke-linecap:round; stroke-linejoin:round;">
<polyline style="fill-rule:evenodd;"
points="55295,38848
55295,38710
55610,38710
55610,38848
55295,38848
" /> 
<polyline style="fill-rule:evenodd;"
points="55295,40029
55295,39891
55610,39891
55610,40029
55295,40029
" /> 
<polyline style="fill-rule:evenodd;"
points="56692,40029
56692,39891
57007,39891
57007,40029
56692,40029
" /> 
<polyline style="fill-rule:evenodd;"
points="56692,38848
56692,38710
57007,38710
57007,38848
56692,38848
" /> 
<polyline style="fill-rule:evenodd;"
points="55295,39143
55295,39005
55610,39005
55610,39143
55295,39143
" /> 
<polyline style="fill-rule:evenodd;"
points="55295,39438
55295,39301
55610,39301
55610,39438
55295,39438
" /> 
<polyline style="fill-rule:evenodd;"
points="55295,39734
55295,39596
55610,39596
55610,39734
55295,39734
" /> 
<polyline style="fill-rule:evenodd;"
points="56692,39438
56692,39301
57007,39301
57007,39438
56692,39438
" /> 
<polyline style="fill-rule:evenodd;"
points="62814,39891
62814,40029
62500,40029
62500,39891
62814,39891
" /> 
<polyline style="fill-rule:evenodd;"
points="62814,38710
62814,38848
62500,38848
62500,38710
62814,38710
" /> 
<polyline style="fill-rule:evenodd;"
points="61417,38710
61417,38848
61102,38848
61102,38710
61417,38710
" /> 
<polyline style="fill-rule:evenodd;"
points="61417,39891
61417,40029
61102,40029
61102,39891
61417,39891
" /> 
<polyline style="fill-rule:evenodd;"
points="62814,39596
62814,39734
62500,39734
62500,39596
62814,39596
" /> 
<polyline style="fill-rule:evenodd;"
points="62814,39301
62814,39438
62500,39438
62500,39301
62814,39301
" /> 
<polyline style="fill-rule:evenodd;"
points="62814,39005
62814,39143
62500,39143
62500,39005
62814,39005
" /> 
<polyline style="fill-rule:evenodd;"
points="61417,39301
61417,39438
61102,39438
61102,39301
61417,39301
" /> 
<polyline style="fill-rule:evenodd;"
points="58198,38110
58198,37401
58435,37401
58435,38110
58198,38110
" /> 
<polyline style="fill-rule:evenodd;"
points="58690,38110
58690,37401
58927,37401
58927,38110
58690,38110
" /> 
<polyline style="fill-rule:evenodd;"
points="59183,38110
59183,37401
59419,37401
59419,38110
59183,38110
" /> 
<polyline style="fill-rule:evenodd;"
points="59675,38110
59675,37401
59911,37401
59911,38110
59675,38110
" /> 
<polyline style="fill-rule:evenodd;"
points="60275,39566
60275,38464
60669,38464
60669,39566
60275,39566
" /> 
<polyline style="fill-rule:evenodd;"
points="57440,39566
57440,38464
57834,38464
57834,39566
57440,39566
" /> 
</g>
<g style="fill:#C2C2C2; fill-opacity:1.0; 
stroke:#C2C2C2; stroke-width:0; stroke-opacity:1; 
stroke-linecap:round; stroke-linejoin:round;">
<circle cx="58316.9" cy="39074.8" r="118.11" /> 
</g>
<g style="fill:#C2C2C2; fill-opacity:1.0; 
stroke:#C2C2C2; stroke-width:39.3701; stroke-opacity:1; 
stroke-linecap:round; stroke-linejoin:round;">
</g>
<g style="fill:#C2C2C2; fill-opacity:1.0; 
stroke:#C2C2C2; stroke-width:0; stroke-opacity:1; 
stroke-linecap:round; stroke-linejoin:round;">
<circle cx="55905.5" cy="39960.6" r="118.11" /> 
</g>
<g style="fill:#C2C2C2; fill-opacity:1.0; 
stroke:#C2C2C2; stroke-width:39.3701; stroke-opacity:1; 
stroke-linecap:round; stroke-linejoin:round;">
</g>
<g style="fill:#C2C2C2; fill-opacity:1.0; 
stroke:#C2C2C2; stroke-width:0; stroke-opacity:1; 
stroke-linecap:round; stroke-linejoin:round;">
<circle cx="62204.7" cy="38779.5" r="118.11" /> 
</g>
<g style="fill:#C2C2C2; fill-opacity:1.0; 
stroke:#C2C2C2; stroke-width:39.3701; stroke-opacity:1; 
stroke-linecap:round; stroke-linejoin:round;">
</g>
<g style="fill:#C2C2C2; fill-opacity:1.0; 
stroke:#C2C2C2; stroke-width:0; stroke-opacity:1; 
stroke-linecap:round; stroke-linejoin:round;">
<circle cx="55905.5" cy="38779.5" r="118.11" /> 
</g>
<g style="fill:#C2C2C2; fill-opacity:1.0; 
stroke:#C2C2C2; stroke-width:39.3701; stroke-opacity:1; 
stroke-linecap:round; stroke-linejoin:round;">
</g>
<g style="fill:#C2C2C2; fill-opacity:1.0; 
stroke:#C2C2C2; stroke-width:0; stroke-opacity:1; 
stroke-linecap:round; stroke-linejoin:round;">
<circle cx="58809.1" cy="39074.8" r="118.11" /> 
</g>
<g style="fill:#C2C2C2; fill-opacity:1.0; 
stroke:#C2C2C2; stroke-width:39.3701; stroke-opacity:1; 
stroke-linecap:round; stroke-linejoin:round;">
</g>
<g style="fill:#C2C2C2; fill-opacity:1.0; 
stroke:#C2C2C2; stroke-width:0; stroke-opacity:1; 
stroke-linecap:round; stroke-linejoin:round;">
<circle cx="62204.7" cy="39960.6" r="118.11" /> 
</g>
<g style="fill:#C2C2C2; fill-opacity:1.0; 
stroke:#C2C2C2; stroke-width:39.3701; stroke-opacity:1; 
stroke-linecap:round; stroke-linejoin:round;">
</g>
<g style="fill:#C2C2C2; fill-opacity:1.0; 
stroke:#C2C2C2; stroke-width:0; stroke-opacity:1; 
stroke-linecap:round; stroke-linejoin:round;">
<circle cx="59301.2" cy="39074.8" r="118.11" /> 
</g>
<g style="fill:#C2C2C2; fill-opacity:1.0; 
stroke:#C2C2C2; stroke-width:39.3701; stroke-opacity:1; 
stroke-linecap:round; stroke-linejoin:round;">
</g>
<g style="fill:#C2C2C2; fill-opacity:1.0; 
stroke:#C2C2C2; stroke-width:0; stroke-opacity:1; 
stroke-linecap:round; stroke-linejoin:round;">
<circle cx="59793.3" cy="39074.8" r="118.11" /> 
</g>
<g style="fill:#C2C2C2; fill-opacity:1.0; 
stroke:#C2C2C2; stroke-width:39.3701; stroke-opacity:1; 
stroke-linecap:round; stroke-linejoin:round;">
</g>
<g style="fill:#840000; fill-opacity:1.0; 
stroke:#840000; stroke-width:39.3701; stroke-opacity:1; 
stroke-linecap:round; stroke-linejoin:round;">
</g>
<g style="fill:#840000; fill-opacity:1.0; 
stroke:#840000; stroke-width:98.4252; stroke-opacity:1; 
stroke-linecap:round; stroke-linejoin:round;">
</g>
<g style="fill:#840000; fill-opacity:0.0; 
stroke:#840000; stroke-width:98.4252; stroke-opacity:1; 
stroke-linecap:round; stroke-linejoin:round;">
<path d="M58316 37755
L58316 39074
" />
<path d="M55905 39960
L55452 39960
" />
<path d="M62204 38779
L62657 38779
" />
<path d="M58809 37755
L58809 39074
" />
<path d="M55905 38779
L55452 38779
" />
<path d="M59301 39074
L59301 37755
" />
<path d="M62204 39960
L62657 39960
" />
<path d="M59793 39074
L59793 39314
" />
<path d="M59793 37755
L59793 39074
" />
<path d="M56850 39960
L59147 39960
" />
<path d="M59147 39960
L59793 39314
" />
<path d="M59793 39314
L60438 39960
" />
<path d="M60438 39960
L61259 39960
" />
<path d="M61259 38779
L61259 38946
" />
<path d="M61259 38946
L60974 39232
" />
<path d="M60974 39232
L60974 39507
" />
<path d="M60974 39507
L61259 39793
" />
<path d="M61259 39793
L61259 39960
" />
<path d="M56850 38779
L56850 38946
" />
<path d="M56850 38946
L57135 39232
" />
<path d="M57135 39232
L57135 39507
" />
<path d="M57135 39507
L56850 39793
" />
<path d="M56850 39793
L56850 39960
" />
</g>
<g style="fill:#840000; fill-opacity:1.0; 
stroke:#840000; stroke-width:98.4252; stroke-opacity:1; 
stroke-linecap:round; stroke-linejoin:round;">
<polyline style="fill-rule:evenodd;"
points="62436,33297
62633,33429
62765,33626
62814,33875
62814,38560
62500,38560
62445,38570
62426,38582
62383,38582
62355,38554
62257,38513
62152,38513
62054,38554
61979,38628
61939,38726
61938,38832
61979,38929
62053,39004
62151,39045
62257,39045
62349,39007
62349,39143
62359,39198
62375,39222
62361,39242
62349,39301
62349,39438
62359,39493
62375,39517
62361,39537
62349,39596
62349,39732
62257,39694
62152,39694
62054,39735
61979,39809
61939,39907
61938,40013
61979,40110
62053,40185
62151,40226
62257,40226
62355,40186
62383,40157
62425,40157
62441,40168
62500,40180
62814,40180
62814,44864
62765,45114
62633,45310
62436,45442
62187,45492
55922,45492
55673,45442
55476,45310
55344,45114
55295,44864
55295,43826
57923,43826
58094,44242
58413,44561
58828,44734
59279,44734
59695,44562
60014,44244
60186,43828
60187,43378
60015,42962
59697,42643
59281,42470
58830,42470
58414,42642
58096,42960
57923,43376
57923,43826
55295,43826
55295,40180
55610,40180
55664,40169
55684,40157
55726,40157
55754,40185
55852,40226
55958,40226
56055,40186
56130,40111
56153,40057
56443,40057
56443,40079
56481,40170
56551,40240
56643,40278
56737,40278
56799,40216
56799,39995
56901,39995
56901,40216
56963,40278
57057,40278
57149,40240
57219,40170
57257,40079
57257,40057
60853,40057
60853,40079
60891,40170
60961,40240
61052,40278
61146,40278
61209,40216
61209,39995
61310,39995
61310,40216
61372,40278
61466,40278
61558,40240
61628,40170
61666,40079
61666,40057
61604,39995
61310,39995
61209,39995
60915,39995
60853,40057
57257,40057
57194,39995
56901,39995
56799,39995
56506,39995
56443,40057
56153,40057
56171,40013
56171,39908
56144,39842
56443,39842
56443,39863
56506,39926
56799,39926
56799,39704
56901,39704
56901,39926
57194,39926
57257,39863
57257,39842
60853,39842
60853,39863
60915,39926
61209,39926
61209,39704
61310,39704
61310,39926
61604,39926
61666,39863
61666,39842
61628,39750
61558,39680
61466,39642
61372,39642
61310,39704
61209,39704
61146,39642
61052,39642
60961,39680
60891,39750
60853,39842
57257,39842
57219,39750
57149,39680
57057,39642
56963,39642
56901,39704
56799,39704
56737,39642
56643,39642
56551,39680
56481,39750
56443,39842
56144,39842
56130,39810
56056,39735
55958,39694
55852,39694
55760,39732
55760,39596
55750,39541
55735,39517
55748,39497
55760,39438
55760,39301
56542,39301
56542,39438
56552,39493
56585,39543
56634,39577
56692,39589
57007,39589
57062,39579
57112,39546
57146,39497
57158,39438
57158,39301
57148,39246
57115,39196
57066,39162
57007,39150
56692,39150
56638,39160
56587,39193
56554,39242
56542,39301
55760,39301
55750,39246
55735,39222
55748,39202
55760,39143
55760,39007
55852,39045
55958,39045
56055,39004
56130,38930
56153,38876
56443,38876
56443,38897
56481,38989
56551,39059
56643,39097
56737,39097
56799,39035
56799,38813
56901,38813
56901,39035
56963,39097
57057,39097
57149,39059
57219,38989
57257,38897
57257,38876
57194,38813
56901,38813
56799,38813
56506,38813
56443,38876
56153,38876
56171,38832
56171,38726
56144,38661
56443,38661
56443,38682
56506,38745
56799,38745
56799,38523
56901,38523
56901,38745
57194,38745
57257,38682
57257,38661
57219,38569
57149,38499
57065,38464
57290,38464
57290,39566
57300,39621
57333,39671
57382,39705
57440,39717
57834,39717
57889,39707
57939,39674
57973,39625
57985,39566
57985,38464
57974,38409
57942,38359
57893,38325
57834,38314
57440,38314
57386,38324
57335,38356
57302,38406
57290,38464
57065,38464
57057,38461
56963,38461
56901,38523
56799,38523
56737,38461
56643,38461
56551,38499
56481,38569
56443,38661
56144,38661
56130,38629
56056,38554
55958,38513
55852,38513
55755,38554
55726,38582
55684,38582
55668,38571
55610,38560
55295,38560
55295,37401
58048,37401
58048,38110
58058,38164
58090,38215
58120,38235
58120,38895
58091,38924
58051,39021
58051,39127
58091,39225
58166,39299
58263,39340
58369,39340
58467,39300
58542,39225
58562,39175
58583,39225
58658,39299
58755,39340
58861,39340
58959,39300
59034,39225
59055,39175
59075,39225
59150,39299
59248,39340
59353,39340
59451,39300
59526,39225
59566,39127
59566,39022
59526,38924
59498,38895
59498,38464
60125,38464
60125,39566
60135,39621
60167,39671
60217,39705
60275,39717
60669,39717
60724,39707
60774,39674
60807,39625
60819,39566
60819,39301
60951,39301
60951,39438
60962,39493
60994,39543
61043,39577
61102,39589
61417,39589
61472,39579
61522,39546
61555,39497
61567,39438
61567,39301
61557,39246
61525,39196
61475,39162
61417,39150
61102,39150
61047,39160
60997,39193
60963,39242
60951,39301
60819,39301
60819,38876
60853,38876
60853,38897
60891,38989
60961,39059
61052,39097
61146,39097
61209,39035
61209,38813
61310,38813
61310,39035
61372,39097
61466,39097
61558,39059
61628,38989
61666,38897
61666,38876
61604,38813
61310,38813
61209,38813
60915,38813
60853,38876
60819,38876
60819,38661
60853,38661
60853,38682
60915,38745
61209,38745
61209,38523
61310,38523
61310,38745
61604,38745
61666,38682
61666,38661
61628,38569
61558,38499
61466,38461
61372,38461
61310,38523
61209,38523
61146,38461
61052,38461
60961,38499
60891,38569
60853,38661
60819,38661
60819,38464
60809,38409
60777,38359
60727,38325
60669,38314
60275,38314
60220,38324
60170,38356
60136,38406
60125,38464
59498,38464
59498,38285
59534,38321
59625,38359
59680,38359
59742,38297
59742,37806
59844,37806
59844,38297
59906,38359
59960,38359
60052,38321
60122,38251
60160,38159
60160,37868
60098,37806
59844,37806
59742,37806
59734,37806
59734,37705
59742,37705
59742,37214
59844,37214
59844,37705
60098,37705
60160,37642
60160,37352
60122,37260
60052,37190
59960,37152
59906,37152
59844,37214
59742,37214
59680,37152
59625,37152
59534,37190
59464,37260
59419,37251
59183,37251
59128,37261
59078,37293
59054,37327
59035,37296
58985,37262
58927,37251
58690,37251
58636,37261
58585,37293
58562,37327
58542,37296
58493,37262
58435,37251
58198,37251
58144,37261
58093,37293
58060,37343
58048,37401
55295,37401
55295,35361
57923,35361
58094,35778
58413,36096
58828,36269
59279,36269
59695,36097
60014,35779
60186,35363
60187,34913
60015,34497
59697,34178
59281,34006
58830,34005
58414,34177
58096,34495
57923,34911
57923,35361
55295,35361
55295,33875
55344,33626
55476,33429
55673,33297
55922,33248
62187,33248
62436,33297
" /> 
</g>
<g style="fill:#FFFFFF; fill-opacity:1.0; 
stroke:#FFFFFF; stroke-width:98.4252; stroke-opacity:1; 
stroke-linecap:round; stroke-linejoin:round;">
</g>
<g style="fill:#FFFFFF; fill-opacity:1.0; 
stroke:#FFFFFF; stroke-width:0; stroke-opacity:1; 
stroke-linecap:round; stroke-linejoin:round;">
<circle cx="58316.9" cy="39074.8" r="78.7402" /> 
</g>
<g style="fill:#FFFFFF; fill-opacity:1.0; 
stroke:#FFFFFF; stroke-width:39.3701; stroke-opacity:1; 
stroke-linecap:round; stroke-linejoin:round;">
</g>
<g style="fill:#FFFFFF; fill-opacity:1.0; 
stroke:#FFFFFF; stroke-width:0; stroke-opacity:1; 
stroke-linecap:round; stroke-linejoin:round;">
<circle cx="55905.5" cy="39960.6" r="78.7402" /> 
</g>
<g style="fill:#FFFFFF; fill-opacity:1.0; 
stroke:#FFFFFF; stroke-width:39.3701; stroke-opacity:1; 
stroke-linecap:round; stroke-linejoin:round;">
</g>
<g style="fill:#FFFFFF; fill-opacity:1.0; 
stroke:#FFFFFF; stroke-width:0; stroke-opacity:1; 
stroke-linecap:round; stroke-linejoin:round;">
<circle cx="62204.7" cy="38779.5" r="78.7402" /> 
</g>
<g style="fill:#FFFFFF; fill-opacity:1.0; 
stroke:#FFFFFF; stroke-width:39.3701; stroke-opacity:1; 
stroke-linecap:round; stroke-linejoin:round;">
</g>
<g style="fill:#FFFFFF; fill-opacity:1.0; 
stroke:#FFFFFF; stroke-width:0; stroke-opacity:1; 
stroke-linecap:round; stroke-linejoin:round;">
<circle cx="55905.5" cy="38779.5" r="78.7402" /> 
</g>
<g style="fill:#FFFFFF; fill-opacity:1.0; 
stroke:#FFFFFF; stroke-width:39.3701; stroke-opacity:1; 
stroke-linecap:round; stroke-linejoin:round;">
</g>
<g style="fill:#FFFFFF; fill-opacity:1.0; 
stroke:#FFFFFF; stroke-width:0; stroke-opacity:1; 
stroke-linecap:round; stroke-linejoin:round;">
<circle cx="58809.1" cy="39074.8" r="78.7402" /> 
</g>
<g style="fill:#FFFFFF; fill-opacity:1.0; 
stroke:#FFFFFF; stroke-width:39.3701; stroke-opacity:1; 
stroke-linecap:round; stroke-linejoin:round;">
</g>
<g style="fill:#FFFFFF; fill-opacity:1.0; 
stroke:#FFFFFF; stroke-width:0; stroke-opacity:1; 
stroke-linecap:round; stroke-linejoin:round;">
<circle cx="62204.7" cy="39960.6" r="78.7402" /> 
</g>
<g style="fill:#FFFFFF; fill-opacity:1.0; 
stroke:#FFFFFF; stroke-width:39.3701; stroke-opacity:1; 
stroke-linecap:round; stroke-linejoin:round;">
</g>
<g style="fill:#FFFFFF; fill-opacity:1.0; 
stroke:#FFFFFF; stroke-width:0; stroke-opacity:1; 
stroke-linecap:round; stroke-linejoin:round;">
<circle cx="59301.2" cy="39074.8" r="78.7402" /> 
</g>
<g style="fill:#FFFFFF; fill-opacity:1.0; 
stroke:#FFFFFF; stroke-width:39.3701; stroke-opacity:1; 
stroke-linecap:round; stroke-linejoin:round;">
</g>
<g style="fill:#FFFFFF; fill-opacity:1.0; 
stroke:#FFFFFF; stroke-width:0; stroke-opacity:1; 
stroke-linecap:round; stroke-linejoin:round;">
<circle cx="59793.3" cy="39074.8" r="78.7402" /> 
</g>
<g style="fill:#FFFFFF; fill-opacity:1.0; 
stroke:#FFFFFF; stroke-width:39.3701; stroke-opacity:1; 
stroke-linecap:round; stroke-linejoin:round;">
</g>
<g style="fill:#FFFFFF; fill-opacity:1.0; 
stroke:#FFFFFF; stroke-width:0; stroke-opacity:1; 
stroke-linecap:round; stroke-linejoin:round;">
<circle cx="59055.1" cy="35137.8" r="984.252" /> 
</g>
<g style="fill:#FFFFFF; fill-opacity:1.0; 
stroke:#FFFFFF; stroke-width:39.3701; stroke-opacity:1; 
stroke-linecap:round; stroke-linejoin:round;">
</g>
<g style="fill:#FFFFFF; fill-opacity:1.0; 
stroke:#FFFFFF; stroke-width:0; stroke-opacity:1; 
stroke-linecap:round; stroke-linejoin:round;">
<circle cx="59055.1" cy="43602.4" r="984.252" /> 
</g>
<g style="fill:#FFFFFF; fill-opacity:1.0; 
stroke:#FFFFFF; stroke-width:39.3701; stroke-opacity:1; 
stroke-linecap:round; stroke-linejoin:round;">
</g>
<g style="fill:#000000; fill-opacity:1.0; 
stroke:#000000; stroke-width:39.3701; stroke-opacity:1; 
stroke-linecap:round; stroke-linejoin:round;">
</g>
<g style="fill:#008484; fill-opacity:1.0; 
stroke:#008484; stroke-width:39.3701; stroke-opacity:1; 
stroke-linecap:round; stroke-linejoin:round;">
</g>
<g style="fill:#008484; fill-opacity:0.0; 
stroke:#008484; stroke-width:39.3701; stroke-opacity:1; 
stroke-linecap:round; stroke-linejoin:round;">
</g>
<g style="fill:#008484; fill-opacity:0.0; 
stroke:#008484; stroke-width:78.7402; stroke-opacity:1; 
stroke-linecap:round; stroke-linejoin:round;">
<path d="M58127 39745
L58127 40026
L58108 40082
L58070 40119
L58014 40138
L57977 40138
" />
<path d="M58295 40119
L58352 40138
L58445 40138
L58483 40119
L58502 40101
L58520 40063
L58520 40026
L58502 39988
L58483 39970
L58445 39951
L58370 39932
L58333 39913
L58314 39895
L58295 39857
L58295 39820
L58314 39782
L58333 39763
L58370 39745
L58464 39745
L58520 39763
" />
<path d="M58633 39745
L58858 39745
" />
<path d="M58745 40138
L58745 39745
" />
<path d="M58989 39988
L59289 39988
" />
<path d="M59683 39763
L59645 39745
L59589 39745
L59533 39763
L59495 39801
L59476 39838
L59458 39913
L59458 39970
L59476 40044
L59495 40082
L59533 40119
L59589 40138
L59626 40138
L59683 40119
L59701 40101
L59701 39970
L59626 39970
" />
<path d="M59870 40138
L59870 39745
" />
<path d="M59870 39932
L60095 39932
" />
<path d="M60095 40138
L60095 39745
" />
<path d="M56050 40945
L56275 40945
" />
<path d="M56163 41339
L56163 40945
" />
<path d="M56407 41339
L56407 40945
" />
<path d="M56575 41339
L56575 41133
L56556 41095
L56519 41077
L56463 41077
L56425 41095
L56407 41114
" />
<path d="M56763 41339
L56763 41077
" />
<path d="M56763 40945
L56744 40964
L56763 40983
L56781 40964
L56763 40945
L56763 40983
" />
<path d="M56931 41320
L56969 41339
L57044 41339
L57081 41320
L57100 41283
L57100 41264
L57081 41227
L57044 41208
L56988 41208
L56950 41189
L56931 41152
L56931 41133
L56950 41095
L56988 41077
L57044 41077
L57081 41095
" />
<path d="M56041 41990
L56097 42008
L56191 42008
L56228 41990
L56247 41971
L56266 41933
L56266 41896
L56247 41858
L56228 41840
L56191 41821
L56116 41802
L56078 41783
L56060 41765
L56041 41727
L56041 41690
L56060 41652
L56078 41633
L56116 41615
L56210 41615
L56266 41633
" />
<path d="M56435 42008
L56435 41746
" />
<path d="M56435 41615
L56416 41633
L56435 41652
L56453 41633
L56435 41615
L56435 41652
" />
<path d="M56791 42008
L56791 41615
" />
<path d="M56791 41990
L56753 42008
L56678 42008
L56641 41990
L56622 41971
L56603 41933
L56603 41821
L56622 41783
L56641 41765
L56678 41746
L56753 41746
L56791 41765
" />
<path d="M57128 41990
L57091 42008
L57016 42008
L56978 41990
L56960 41952
L56960 41802
L56978 41765
L57016 41746
L57091 41746
L57128 41765
L57147 41802
L57147 41840
L56960 41877
" />
<path d="M55928 42678
L55928 42284
L56022 42284
L56078 42303
L56116 42340
L56135 42378
L56153 42453
L56153 42509
L56135 42584
L56116 42621
L56078 42659
L56022 42678
L55928 42678
" />
<path d="M56378 42678
L56341 42659
L56322 42640
L56303 42603
L56303 42490
L56322 42453
L56341 42434
L56378 42415
L56435 42415
L56472 42434
L56491 42453
L56510 42490
L56510 42603
L56491 42640
L56472 42659
L56435 42678
L56378 42678
" />
<path d="M56641 42415
L56716 42678
L56791 42490
L56866 42678
L56941 42415
" />
<path d="M57091 42415
L57091 42678
" />
<path d="M57091 42453
L57110 42434
L57147 42415
L57203 42415
L57241 42434
L57260 42471
L57260 42678
" />
</g>
<g style="fill:#008484; fill-opacity:0.0; 
stroke:#008484; stroke-width:118.11; stroke-opacity:1; 
stroke-linecap:round; stroke-linejoin:round;">
<path d="M58422 45345
L58225 45064
" />
<path d="M58084 45345
L58084 44755
L58309 44755
L58366 44783
L58394 44811
L58422 44867
L58422 44952
L58394 45008
L58366 45036
L58309 45064
L58084 45064
" />
<path d="M58675 45036
L58872 45036
" />
<path d="M58956 45345
L58675 45345
L58675 44755
L58956 44755
" />
<path d="M59181 45177
L59462 45177
" />
<path d="M59125 45345
L59322 44755
L59519 45345
" />
<path d="M60053 45345
L59856 45064
" />
<path d="M59715 45345
L59715 44755
L59940 44755
L59997 44783
L60025 44811
L60053 44867
L60053 44952
L60025 45008
L59997 45036
L59940 45064
L59715 45064
" />
<path d="M58000 33619
L57803 33619
" />
<path d="M57803 33928
L57803 33338
L58084 33338
" />
<path d="M58647 33928
L58450 33647
" />
<path d="M58309 33928
L58309 33338
L58534 33338
L58591 33366
L58619 33394
L58647 33450
L58647 33534
L58619 33591
L58591 33619
L58534 33647
L58309 33647
" />
<path d="M59012 33338
L59125 33338
L59181 33366
L59237 33422
L59266 33534
L59266 33731
L59237 33844
L59181 33900
L59125 33928
L59012 33928
L58956 33900
L58900 33844
L58872 33731
L58872 33534
L58900 33422
L58956 33366
L59012 33338
" />
<path d="M59519 33928
L59519 33338
L59856 33928
L59856 33338
" />
<path d="M60053 33338
L60390 33338
" />
<path d="M60222 33928
L60222 33338
" />
<path d="M62190 38259
L61909 38259
L61909 37668
" />
<path d="M56285 38259
L56088 37978
" />
<path d="M55947 38259
L55947 37668
L56172 37668
L56228 37696
L56257 37724
L56285 37781
L56285 37865
L56257 37921
L56228 37949
L56172 37978
L55947 37978
" />
</g>
<g style="fill:#008484; fill-opacity:0.0; 
stroke:#008484; stroke-width:59.0551; stroke-opacity:1; 
stroke-linecap:round; stroke-linejoin:round;">
<path d="M55364 40157
L55364 40078
" />
<path d="M56938 40078
L56938 40157
" />
<path d="M56938 38582
L56938 38661
" />
<path d="M56938 40157
L55364 40157
" />
<path d="M55285 38582
L56938 38582
" />
<path d="M62746 38582
L62746 38661
" />
<path d="M61171 38661
L61171 38582
" />
<path d="M61171 40157
L61171 40078
" />
<path d="M61171 38582
L62746 38582
" />
<path d="M62824 40157
L61171 40157
" />
</g>
<g style="fill:#008484; fill-opacity:0.0; 
stroke:#008484; stroke-width:47.2441; stroke-opacity:1; 
stroke-linecap:round; stroke-linejoin:round;">
<path d="M58070 39507
L60039 39507
" />
<path d="M57401 38248
L57401 37814
" />
<path d="M57401 37814
L58011 37814
" />
<path d="M58011 37814
L58011 38011
" />
<path d="M58011 38011
L57598 38011
" />
<path d="M57598 38011
L57598 38248
" />
<path d="M57598 38248
L57401 38248
" />
<path d="M60708 38248
L60708 37814
" />
<path d="M60708 37814
L60098 37814
" />
<path d="M60098 37814
L60098 38011
" />
<path d="M60098 38011
L60511 38011
" />
<path d="M60511 38011
L60511 38248
" />
<path d="M60511 38248
L60708 38248
" />
<path d="M57923 37539
L57687 37421
" />
<path d="M57687 37421
L57687 37657
" />
<path d="M57687 37657
L57923 37539
" />
</g>
<g style="fill:#C2C200; fill-opacity:0.0; 
stroke:#C2C200; stroke-width:47.2441; stroke-opacity:1; 
stroke-linecap:round; stroke-linejoin:round;">
</g>
<g style="fill:#C2C200; fill-opacity:0.0; 
stroke:#C2C200; stroke-width:59.0551; stroke-opacity:1; 
stroke-linecap:round; stroke-linejoin:round;">
<path d="M55851 39154
L55851 39473
L55870 39510
L55889 39529
L55926 39548
L56001 39548
L56039 39529
L56057 39510
L56076 39473
L56076 39154
" />
<path d="M56470 39548
L56245 39548
" />
<path d="M56357 39548
L56357 39154
L56320 39210
L56282 39248
L56245 39266
" />
<path d="M61658 39154
L61658 39473
L61677 39510
L61696 39529
L61733 39548
L61808 39548
L61846 39529
L61864 39510
L61883 39473
L61883 39154
" />
<path d="M62052 39191
L62071 39173
L62108 39154
L62202 39154
L62239 39173
L62258 39191
L62277 39229
L62277 39266
L62258 39323
L62033 39548
L62277 39548
" />
<path d="M58923 38367
L58923 38648
L58905 38704
L58867 38742
L58811 38760
L58773 38760
" />
<path d="M59317 38760
L59092 38760
" />
<path d="M59205 38760
L59205 38367
L59167 38423
L59130 38460
L59092 38479
" />
</g>
<g style="fill:#008484; fill-opacity:0.0; 
stroke:#008484; stroke-width:59.0551; stroke-opacity:1; 
stroke-linecap:round; stroke-linejoin:round;">
</g>
<g style="fill:#008484; fill-opacity:1.0; 
stroke:#008484; stroke-width:98.4252; stroke-opacity:1; 
stroke-linecap:round; stroke-linejoin:round;">
<polyline style="fill-rule:evenodd;"
points="62609,42667
62007,42667
61988,42671
61972,42682
61962,42698
61958,42716
61958,45226
61072,45226
61072,42716
61068,42697
61057,42681
61041,42670
61023,42667
60421,42667
61515,40843
62609,42667
" /> 
</g>
<g style="fill:#000000; fill-opacity:1.0; 
stroke:#000000; stroke-width:98.4252; stroke-opacity:1; 
stroke-linecap:round; stroke-linejoin:round;">
</g>
<g style="fill:#C2C200; fill-opacity:1.0; 
stroke:#C2C200; stroke-width:98.4252; stroke-opacity:1; 
stroke-linecap:round; stroke-linejoin:round;">
</g>
<g style="fill:#C2C200; fill-opacity:1.0; 
stroke:#C2C200; stroke-width:59.0551; stroke-opacity:1; 
stroke-linecap:round; stroke-linejoin:round;">
</g>
<g style="fill:#C2C200; fill-opacity:0.0; 
stroke:#C2C200; stroke-width:59.0551; stroke-opacity:1; 
stroke-linecap:round; stroke-linejoin:round;">
<path d="M62992.1 33858.3 A787.402 787.402 0.0 0 0 62204.7 33070.9 " />
<path d="M62204.7 45669.3 A787.402 787.402 0.0 0 0 62992.1 44881.9 " />
<path d="M55118.1 44881.9 A787.402 787.402 0.0 0 0 55905.5 45669.3 " />
<path d="M55905.5 33070.9 A787.402 787.402 0.0 0 0 55118.1 33858.3 " />
<path d="M55118 44881
L55118 33858
" />
<path d="M62204 45669
L55905 45669
" />
<path d="M62992 33858
L62992 44881
" />
<path d="M55905 33070
L62204 33070
" />
</g> 
</svg>
