<?xml version="1.0" standalone="no"?>
 <!DOCTYPE svg PUBLIC "-//W3C//DTD SVG 1.1//EN" 
 "http://www.w3.org/Graphics/SVG/1.1/DTD/svg11.dtd"> 
<svg xmlns="http://www.w3.org/2000/svg" version="1.1" 
    width="29.7002cm" height="21.0007cm" viewBox="0 0 116930 82680 ">
<title>SVG Picture created as drivetrain.sch.svg date 2017/02/24 22:50:51 </title>
  <desc>Picture generated by Eeschema-SVG </desc>
<g style="fill:#000000; fill-opacity:1;stroke:#000000; stroke-opacity:1;
stroke-linecap:round; stroke-linejoin:round; "
 transform="translate(0 0) scale(1 1)">
</g>
<g style="fill:#000000; fill-opacity:0.0; 
stroke:#000000; stroke-width:-10; stroke-opacity:1; 
stroke-linecap:round; stroke-linejoin:round;">
</g>
<g style="fill:#840000; fill-opacity:0.0; 
stroke:#840000; stroke-width:-10; stroke-opacity:1; 
stroke-linecap:round; stroke-linejoin:round;">
</g>
<g style="fill:#840000; fill-opacity:0.0; 
stroke:#840000; stroke-width:100; stroke-opacity:1; 
stroke-linecap:round; stroke-linejoin:round;">
</g>
<g style="fill:#840000; fill-opacity:0.0; 
stroke:#840000; stroke-width:60; stroke-opacity:1; 
stroke-linecap:round; stroke-linejoin:round;">
<rect x="69690" y="65360" width="42520" height="12600" rx="0" />
</g>
<g style="fill:#840000; fill-opacity:0.0; 
stroke:#840000; stroke-width:100; stroke-opacity:1; 
stroke-linecap:round; stroke-linejoin:round;">
</g>
<g style="fill:#840000; fill-opacity:0.0; 
stroke:#840000; stroke-width:60; stroke-opacity:1; 
stroke-linecap:round; stroke-linejoin:round;">
<rect x="3940" y="3940" width="109050" height="74800" rx="0" />
</g>
<g style="fill:#840000; fill-opacity:0.0; 
stroke:#840000; stroke-width:100; stroke-opacity:1; 
stroke-linecap:round; stroke-linejoin:round;">
</g>
<g style="fill:#840000; fill-opacity:0.0; 
stroke:#840000; stroke-width:60; stroke-opacity:1; 
stroke-linecap:round; stroke-linejoin:round;">
<rect x="4720" y="4720" width="107490" height="73240" rx="0" />
</g>
<g style="fill:#840000; fill-opacity:0.0; 
stroke:#840000; stroke-width:100; stroke-opacity:1; 
stroke-linecap:round; stroke-linejoin:round;">
</g>
<g style="fill:#840000; fill-opacity:0.0; 
stroke:#840000; stroke-width:60; stroke-opacity:1; 
stroke-linecap:round; stroke-linejoin:round;">
<path d="M23620 4720
L23620 3940
" />
</g>
<g style="fill:#840000; fill-opacity:0.0; 
stroke:#840000; stroke-width:100; stroke-opacity:1; 
stroke-linecap:round; stroke-linejoin:round;">
</g>
<g style="fill:#840000; fill-opacity:0.0; 
stroke:#840000; stroke-width:60; stroke-opacity:1; 
stroke-linecap:round; stroke-linejoin:round;">
<path d="M43310 4720
L43310 3940
" />
</g>
<g style="fill:#840000; fill-opacity:0.0; 
stroke:#840000; stroke-width:100; stroke-opacity:1; 
stroke-linecap:round; stroke-linejoin:round;">
</g>
<g style="fill:#840000; fill-opacity:0.0; 
stroke:#840000; stroke-width:60; stroke-opacity:1; 
stroke-linecap:round; stroke-linejoin:round;">
<path d="M62990 4720
L62990 3940
" />
</g>
<g style="fill:#840000; fill-opacity:0.0; 
stroke:#840000; stroke-width:100; stroke-opacity:1; 
stroke-linecap:round; stroke-linejoin:round;">
</g>
<g style="fill:#840000; fill-opacity:0.0; 
stroke:#840000; stroke-width:60; stroke-opacity:1; 
stroke-linecap:round; stroke-linejoin:round;">
<path d="M82680 4720
L82680 3940
" />
</g>
<g style="fill:#840000; fill-opacity:0.0; 
stroke:#840000; stroke-width:100; stroke-opacity:1; 
stroke-linecap:round; stroke-linejoin:round;">
</g>
<g style="fill:#840000; fill-opacity:0.0; 
stroke:#840000; stroke-width:60; stroke-opacity:1; 
stroke-linecap:round; stroke-linejoin:round;">
<path d="M102360 4720
L102360 3940
" />
</g>
<g style="fill:#840000; fill-opacity:0.0; 
stroke:#840000; stroke-width:100; stroke-opacity:1; 
stroke-linecap:round; stroke-linejoin:round;">
</g>
<g style="fill:#840000; fill-opacity:0.0; 
stroke:#840000; stroke-width:60; stroke-opacity:1; 
stroke-linecap:round; stroke-linejoin:round;">
<path d="M14170 4560
L13880 4560
" />
<path d="M14020 4560
L14020 4050
L13970 4120
L13930 4170
L13880 4190
" />
</g>
<g style="fill:#840000; fill-opacity:0.0; 
stroke:#840000; stroke-width:100; stroke-opacity:1; 
stroke-linecap:round; stroke-linejoin:round;">
</g>
<g style="fill:#840000; fill-opacity:0.0; 
stroke:#840000; stroke-width:60; stroke-opacity:1; 
stroke-linecap:round; stroke-linejoin:round;">
<path d="M33560 4090
L33580 4070
L33630 4050
L33750 4050
L33800 4070
L33820 4090
L33850 4140
L33850 4190
L33820 4260
L33530 4560
L33850 4560
" />
</g>
<g style="fill:#840000; fill-opacity:0.0; 
stroke:#840000; stroke-width:100; stroke-opacity:1; 
stroke-linecap:round; stroke-linejoin:round;">
</g>
<g style="fill:#840000; fill-opacity:0.0; 
stroke:#840000; stroke-width:60; stroke-opacity:1; 
stroke-linecap:round; stroke-linejoin:round;">
<path d="M53220 4050
L53540 4050
L53370 4240
L53440 4240
L53490 4260
L53510 4290
L53540 4340
L53540 4460
L53510 4510
L53490 4530
L53440 4560
L53300 4560
L53250 4530
L53220 4510
" />
</g>
<g style="fill:#840000; fill-opacity:0.0; 
stroke:#840000; stroke-width:100; stroke-opacity:1; 
stroke-linecap:round; stroke-linejoin:round;">
</g>
<g style="fill:#840000; fill-opacity:0.0; 
stroke:#840000; stroke-width:60; stroke-opacity:1; 
stroke-linecap:round; stroke-linejoin:round;">
<path d="M73170 4220
L73170 4560
" />
<path d="M73050 4020
L72930 4390
L73240 4390
" />
</g>
<g style="fill:#840000; fill-opacity:0.0; 
stroke:#840000; stroke-width:100; stroke-opacity:1; 
stroke-linecap:round; stroke-linejoin:round;">
</g>
<g style="fill:#840000; fill-opacity:0.0; 
stroke:#840000; stroke-width:60; stroke-opacity:1; 
stroke-linecap:round; stroke-linejoin:round;">
<path d="M92880 4050
L92640 4050
L92620 4290
L92640 4260
L92690 4240
L92810 4240
L92860 4260
L92880 4290
L92910 4340
L92910 4460
L92880 4510
L92860 4530
L92810 4560
L92690 4560
L92640 4530
L92620 4510
" />
</g>
<g style="fill:#840000; fill-opacity:0.0; 
stroke:#840000; stroke-width:100; stroke-opacity:1; 
stroke-linecap:round; stroke-linejoin:round;">
</g>
<g style="fill:#840000; fill-opacity:0.0; 
stroke:#840000; stroke-width:60; stroke-opacity:1; 
stroke-linecap:round; stroke-linejoin:round;">
<path d="M112540 4050
L112440 4050
L112390 4070
L112370 4090
L112320 4170
L112300 4260
L112300 4460
L112320 4510
L112350 4530
L112390 4560
L112490 4560
L112540 4530
L112560 4510
L112590 4460
L112590 4340
L112560 4290
L112540 4260
L112490 4240
L112390 4240
L112350 4260
L112320 4290
L112300 4340
" />
</g>
<g style="fill:#840000; fill-opacity:0.0; 
stroke:#840000; stroke-width:100; stroke-opacity:1; 
stroke-linecap:round; stroke-linejoin:round;">
</g>
<g style="fill:#840000; fill-opacity:0.0; 
stroke:#840000; stroke-width:60; stroke-opacity:1; 
stroke-linecap:round; stroke-linejoin:round;">
<path d="M23620 77960
L23620 78740
" />
</g>
<g style="fill:#840000; fill-opacity:0.0; 
stroke:#840000; stroke-width:100; stroke-opacity:1; 
stroke-linecap:round; stroke-linejoin:round;">
</g>
<g style="fill:#840000; fill-opacity:0.0; 
stroke:#840000; stroke-width:60; stroke-opacity:1; 
stroke-linecap:round; stroke-linejoin:round;">
<path d="M43310 77960
L43310 78740
" />
</g>
<g style="fill:#840000; fill-opacity:0.0; 
stroke:#840000; stroke-width:100; stroke-opacity:1; 
stroke-linecap:round; stroke-linejoin:round;">
</g>
<g style="fill:#840000; fill-opacity:0.0; 
stroke:#840000; stroke-width:60; stroke-opacity:1; 
stroke-linecap:round; stroke-linejoin:round;">
<path d="M62990 77960
L62990 78740
" />
</g>
<g style="fill:#840000; fill-opacity:0.0; 
stroke:#840000; stroke-width:100; stroke-opacity:1; 
stroke-linecap:round; stroke-linejoin:round;">
</g>
<g style="fill:#840000; fill-opacity:0.0; 
stroke:#840000; stroke-width:60; stroke-opacity:1; 
stroke-linecap:round; stroke-linejoin:round;">
<path d="M82680 77960
L82680 78740
" />
</g>
<g style="fill:#840000; fill-opacity:0.0; 
stroke:#840000; stroke-width:100; stroke-opacity:1; 
stroke-linecap:round; stroke-linejoin:round;">
</g>
<g style="fill:#840000; fill-opacity:0.0; 
stroke:#840000; stroke-width:60; stroke-opacity:1; 
stroke-linecap:round; stroke-linejoin:round;">
<path d="M102360 77960
L102360 78740
" />
</g>
<g style="fill:#840000; fill-opacity:0.0; 
stroke:#840000; stroke-width:100; stroke-opacity:1; 
stroke-linecap:round; stroke-linejoin:round;">
</g>
<g style="fill:#840000; fill-opacity:0.0; 
stroke:#840000; stroke-width:60; stroke-opacity:1; 
stroke-linecap:round; stroke-linejoin:round;">
<path d="M14170 78580
L13880 78580
" />
<path d="M14020 78580
L14020 78070
L13970 78140
L13930 78190
L13880 78210
" />
</g>
<g style="fill:#840000; fill-opacity:0.0; 
stroke:#840000; stroke-width:100; stroke-opacity:1; 
stroke-linecap:round; stroke-linejoin:round;">
</g>
<g style="fill:#840000; fill-opacity:0.0; 
stroke:#840000; stroke-width:60; stroke-opacity:1; 
stroke-linecap:round; stroke-linejoin:round;">
<path d="M33560 78110
L33580 78090
L33630 78070
L33750 78070
L33800 78090
L33820 78110
L33850 78160
L33850 78210
L33820 78280
L33530 78580
L33850 78580
" />
</g>
<g style="fill:#840000; fill-opacity:0.0; 
stroke:#840000; stroke-width:100; stroke-opacity:1; 
stroke-linecap:round; stroke-linejoin:round;">
</g>
<g style="fill:#840000; fill-opacity:0.0; 
stroke:#840000; stroke-width:60; stroke-opacity:1; 
stroke-linecap:round; stroke-linejoin:round;">
<path d="M53220 78070
L53540 78070
L53370 78260
L53440 78260
L53490 78280
L53510 78310
L53540 78360
L53540 78480
L53510 78530
L53490 78550
L53440 78580
L53300 78580
L53250 78550
L53220 78530
" />
</g>
<g style="fill:#840000; fill-opacity:0.0; 
stroke:#840000; stroke-width:100; stroke-opacity:1; 
stroke-linecap:round; stroke-linejoin:round;">
</g>
<g style="fill:#840000; fill-opacity:0.0; 
stroke:#840000; stroke-width:60; stroke-opacity:1; 
stroke-linecap:round; stroke-linejoin:round;">
<path d="M73170 78240
L73170 78580
" />
<path d="M73050 78040
L72930 78410
L73240 78410
" />
</g>
<g style="fill:#840000; fill-opacity:0.0; 
stroke:#840000; stroke-width:100; stroke-opacity:1; 
stroke-linecap:round; stroke-linejoin:round;">
</g>
<g style="fill:#840000; fill-opacity:0.0; 
stroke:#840000; stroke-width:60; stroke-opacity:1; 
stroke-linecap:round; stroke-linejoin:round;">
<path d="M92880 78070
L92640 78070
L92620 78310
L92640 78280
L92690 78260
L92810 78260
L92860 78280
L92880 78310
L92910 78360
L92910 78480
L92880 78530
L92860 78550
L92810 78580
L92690 78580
L92640 78550
L92620 78530
" />
</g>
<g style="fill:#840000; fill-opacity:0.0; 
stroke:#840000; stroke-width:100; stroke-opacity:1; 
stroke-linecap:round; stroke-linejoin:round;">
</g>
<g style="fill:#840000; fill-opacity:0.0; 
stroke:#840000; stroke-width:60; stroke-opacity:1; 
stroke-linecap:round; stroke-linejoin:round;">
<path d="M112540 78070
L112440 78070
L112390 78090
L112370 78110
L112320 78190
L112300 78280
L112300 78480
L112320 78530
L112350 78550
L112390 78580
L112490 78580
L112540 78550
L112560 78530
L112590 78480
L112590 78360
L112560 78310
L112540 78280
L112490 78260
L112390 78260
L112350 78280
L112320 78310
L112300 78360
" />
</g>
<g style="fill:#840000; fill-opacity:0.0; 
stroke:#840000; stroke-width:100; stroke-opacity:1; 
stroke-linecap:round; stroke-linejoin:round;">
</g>
<g style="fill:#840000; fill-opacity:0.0; 
stroke:#840000; stroke-width:60; stroke-opacity:1; 
stroke-linecap:round; stroke-linejoin:round;">
<path d="M3940 23620
L4720 23620
" />
</g>
<g style="fill:#840000; fill-opacity:0.0; 
stroke:#840000; stroke-width:100; stroke-opacity:1; 
stroke-linecap:round; stroke-linejoin:round;">
</g>
<g style="fill:#840000; fill-opacity:0.0; 
stroke:#840000; stroke-width:60; stroke-opacity:1; 
stroke-linecap:round; stroke-linejoin:round;">
<path d="M3940 43310
L4720 43310
" />
</g>
<g style="fill:#840000; fill-opacity:0.0; 
stroke:#840000; stroke-width:100; stroke-opacity:1; 
stroke-linecap:round; stroke-linejoin:round;">
</g>
<g style="fill:#840000; fill-opacity:0.0; 
stroke:#840000; stroke-width:60; stroke-opacity:1; 
stroke-linecap:round; stroke-linejoin:round;">
<path d="M3940 62990
L4720 62990
" />
</g>
<g style="fill:#840000; fill-opacity:0.0; 
stroke:#840000; stroke-width:100; stroke-opacity:1; 
stroke-linecap:round; stroke-linejoin:round;">
</g>
<g style="fill:#840000; fill-opacity:0.0; 
stroke:#840000; stroke-width:60; stroke-opacity:1; 
stroke-linecap:round; stroke-linejoin:round;">
<path d="M4210 13860
L4450 13860
" />
<path d="M4160 14010
L4330 13500
L4500 14010
" />
</g>
<g style="fill:#840000; fill-opacity:0.0; 
stroke:#840000; stroke-width:100; stroke-opacity:1; 
stroke-linecap:round; stroke-linejoin:round;">
</g>
<g style="fill:#840000; fill-opacity:0.0; 
stroke:#840000; stroke-width:60; stroke-opacity:1; 
stroke-linecap:round; stroke-linejoin:round;">
<path d="M4370 33420
L4440 33440
L4470 33470
L4490 33520
L4490 33590
L4470 33640
L4440 33660
L4400 33690
L4200 33690
L4200 33180
L4370 33180
L4420 33200
L4440 33220
L4470 33270
L4470 33320
L4440 33370
L4420 33390
L4370 33420
L4200 33420
" />
</g>
<g style="fill:#840000; fill-opacity:0.0; 
stroke:#840000; stroke-width:100; stroke-opacity:1; 
stroke-linecap:round; stroke-linejoin:round;">
</g>
<g style="fill:#840000; fill-opacity:0.0; 
stroke:#840000; stroke-width:60; stroke-opacity:1; 
stroke-linecap:round; stroke-linejoin:round;">
<path d="M4490 53330
L4470 53350
L4400 53380
L4350 53380
L4270 53350
L4230 53300
L4200 53250
L4180 53160
L4180 53080
L4200 52990
L4230 52940
L4270 52890
L4350 52870
L4400 52870
L4470 52890
L4490 52910
" />
</g>
<g style="fill:#840000; fill-opacity:0.0; 
stroke:#840000; stroke-width:100; stroke-opacity:1; 
stroke-linecap:round; stroke-linejoin:round;">
</g>
<g style="fill:#840000; fill-opacity:0.0; 
stroke:#840000; stroke-width:60; stroke-opacity:1; 
stroke-linecap:round; stroke-linejoin:round;">
<path d="M4200 73060
L4200 72550
L4320 72550
L4400 72570
L4440 72620
L4470 72670
L4490 72760
L4490 72840
L4470 72930
L4440 72980
L4400 73030
L4320 73060
L4200 73060
" />
</g>
<g style="fill:#840000; fill-opacity:0.0; 
stroke:#840000; stroke-width:100; stroke-opacity:1; 
stroke-linecap:round; stroke-linejoin:round;">
</g>
<g style="fill:#840000; fill-opacity:0.0; 
stroke:#840000; stroke-width:60; stroke-opacity:1; 
stroke-linecap:round; stroke-linejoin:round;">
<path d="M112990 23620
L112210 23620
" />
</g>
<g style="fill:#840000; fill-opacity:0.0; 
stroke:#840000; stroke-width:100; stroke-opacity:1; 
stroke-linecap:round; stroke-linejoin:round;">
</g>
<g style="fill:#840000; fill-opacity:0.0; 
stroke:#840000; stroke-width:60; stroke-opacity:1; 
stroke-linecap:round; stroke-linejoin:round;">
<path d="M112990 43310
L112210 43310
" />
</g>
<g style="fill:#840000; fill-opacity:0.0; 
stroke:#840000; stroke-width:100; stroke-opacity:1; 
stroke-linecap:round; stroke-linejoin:round;">
</g>
<g style="fill:#840000; fill-opacity:0.0; 
stroke:#840000; stroke-width:60; stroke-opacity:1; 
stroke-linecap:round; stroke-linejoin:round;">
<path d="M112990 62990
L112210 62990
" />
</g>
<g style="fill:#840000; fill-opacity:0.0; 
stroke:#840000; stroke-width:100; stroke-opacity:1; 
stroke-linecap:round; stroke-linejoin:round;">
</g>
<g style="fill:#840000; fill-opacity:0.0; 
stroke:#840000; stroke-width:60; stroke-opacity:1; 
stroke-linecap:round; stroke-linejoin:round;">
<path d="M112480 13860
L112720 13860
" />
<path d="M112430 14010
L112600 13500
L112770 14010
" />
</g>
<g style="fill:#840000; fill-opacity:0.0; 
stroke:#840000; stroke-width:100; stroke-opacity:1; 
stroke-linecap:round; stroke-linejoin:round;">
</g>
<g style="fill:#840000; fill-opacity:0.0; 
stroke:#840000; stroke-width:60; stroke-opacity:1; 
stroke-linecap:round; stroke-linejoin:round;">
<path d="M112640 33420
L112710 33440
L112740 33470
L112760 33520
L112760 33590
L112740 33640
L112710 33660
L112670 33690
L112470 33690
L112470 33180
L112640 33180
L112690 33200
L112710 33220
L112740 33270
L112740 33320
L112710 33370
L112690 33390
L112640 33420
L112470 33420
" />
</g>
<g style="fill:#840000; fill-opacity:0.0; 
stroke:#840000; stroke-width:100; stroke-opacity:1; 
stroke-linecap:round; stroke-linejoin:round;">
</g>
<g style="fill:#840000; fill-opacity:0.0; 
stroke:#840000; stroke-width:60; stroke-opacity:1; 
stroke-linecap:round; stroke-linejoin:round;">
<path d="M112760 53330
L112740 53350
L112670 53380
L112620 53380
L112540 53350
L112500 53300
L112470 53250
L112450 53160
L112450 53080
L112470 52990
L112500 52940
L112540 52890
L112620 52870
L112670 52870
L112740 52890
L112760 52910
" />
</g>
<g style="fill:#840000; fill-opacity:0.0; 
stroke:#840000; stroke-width:100; stroke-opacity:1; 
stroke-linecap:round; stroke-linejoin:round;">
</g>
<g style="fill:#840000; fill-opacity:0.0; 
stroke:#840000; stroke-width:60; stroke-opacity:1; 
stroke-linecap:round; stroke-linejoin:round;">
<path d="M112470 73060
L112470 72550
L112590 72550
L112670 72570
L112710 72620
L112740 72670
L112760 72760
L112760 72840
L112740 72930
L112710 72980
L112670 73030
L112590 73060
L112470 73060
" />
</g>
<g style="fill:#840000; fill-opacity:0.0; 
stroke:#840000; stroke-width:100; stroke-opacity:1; 
stroke-linecap:round; stroke-linejoin:round;">
</g>
<g style="fill:#840000; fill-opacity:0.0; 
stroke:#840000; stroke-width:60; stroke-opacity:1; 
stroke-linecap:round; stroke-linejoin:round;">
<path d="M78880 76290
L78880 75700
L79020 75700
L79110 75730
L79160 75790
L79190 75840
L79220 75950
L79220 76040
L79190 76150
L79160 76210
L79110 76260
L79020 76290
L78880 76290
" />
<path d="M79720 76290
L79720 75980
L79700 75930
L79640 75900
L79530 75900
L79470 75930
" />
<path d="M79720 76260
L79670 76290
L79530 76290
L79470 76260
L79440 76210
L79440 76150
L79470 76100
L79530 76070
L79670 76070
L79720 76040
" />
<path d="M79920 75900
L80140 75900
" />
<path d="M80000 75700
L80000 76210
L80030 76260
L80080 76290
L80140 76290
" />
<path d="M80570 76260
L80510 76290
L80400 76290
L80340 76260
L80310 76210
L80310 75980
L80340 75930
L80400 75900
L80510 75900
L80570 75930
L80590 75980
L80590 76040
L80310 76100
" />
<path d="M80850 76240
L80880 76260
L80850 76290
L80820 76260
L80850 76240
L80850 76290
" />
<path d="M80850 75930
L80880 75950
L80850 75980
L80820 75950
L80850 75930
L80850 75980
" />
</g>
<g style="fill:#840000; fill-opacity:0.0; 
stroke:#840000; stroke-width:100; stroke-opacity:1; 
stroke-linecap:round; stroke-linejoin:round;">
</g>
<g style="fill:#840000; fill-opacity:0.0; 
stroke:#840000; stroke-width:60; stroke-opacity:1; 
stroke-linecap:round; stroke-linejoin:round;">
<path d="M69690 76580
L112210 76580
" />
</g>
<g style="fill:#840000; fill-opacity:0.0; 
stroke:#840000; stroke-width:100; stroke-opacity:1; 
stroke-linecap:round; stroke-linejoin:round;">
</g>
<g style="fill:#840000; fill-opacity:0.0; 
stroke:#840000; stroke-width:60; stroke-opacity:1; 
stroke-linecap:round; stroke-linejoin:round;">
<path d="M70220 77390
L70220 76800
" />
<path d="M70560 77390
L70300 77050
" />
<path d="M70560 76800
L70220 77140
" />
<path d="M70810 77390
L70810 77000
" />
<path d="M70810 76800
L70780 76830
L70810 76860
L70840 76830
L70810 76800
L70810 76860
" />
<path d="M71430 77340
L71400 77360
L71320 77390
L71260 77390
L71170 77360
L71120 77310
L71090 77250
L71060 77140
L71060 77050
L71090 76940
L71120 76890
L71170 76830
L71260 76800
L71320 76800
L71400 76830
L71430 76860
" />
<path d="M71930 77390
L71930 77080
L71910 77030
L71850 77000
L71740 77000
L71680 77030
" />
<path d="M71930 77360
L71880 77390
L71740 77390
L71680 77360
L71650 77310
L71650 77250
L71680 77200
L71740 77170
L71880 77170
L71930 77140
" />
<path d="M72460 77390
L72460 76800
" />
<path d="M72460 77360
L72410 77390
L72290 77390
L72240 77360
L72210 77340
L72180 77280
L72180 77110
L72210 77050
L72240 77030
L72290 77000
L72410 77000
L72460 77030
" />
<path d="M73190 77080
L73390 77080
" />
<path d="M73470 77390
L73190 77390
L73190 76800
L73470 76800
" />
<path d="M73720 77340
L73750 77360
L73720 77390
L73690 77360
L73720 77340
L73720 77390
" />
<path d="M74000 77390
L74000 76800
L74140 76800
L74230 76830
L74280 76890
L74310 76940
L74340 77050
L74340 77140
L74310 77250
L74280 77310
L74230 77360
L74140 77390
L74000 77390
" />
<path d="M74590 77340
L74620 77360
L74590 77390
L74560 77360
L74590 77340
L74590 77390
" />
<path d="M74840 77220
L75120 77220
" />
<path d="M74790 77390
L74980 76800
L75180 77390
" />
<path d="M75380 77340
L75410 77360
L75380 77390
L75350 77360
L75380 77340
L75380 77390
" />
<path d="M76560 77390
L76560 76800
" />
<path d="M76620 77170
L76790 77390
" />
<path d="M76790 77000
L76560 77220
" />
<path d="M77040 77390
L77040 77000
" />
<path d="M77040 76800
L77010 76830
L77040 76860
L77070 76830
L77040 76800
L77040 76860
" />
<path d="M77570 77360
L77520 77390
L77400 77390
L77350 77360
L77320 77340
L77290 77280
L77290 77110
L77320 77050
L77350 77030
L77400 77000
L77520 77000
L77570 77030
" />
<path d="M78080 77390
L78080 77080
L78060 77030
L78000 77000
L77890 77000
L77830 77030
" />
<path d="M78080 77360
L78030 77390
L77890 77390
L77830 77360
L77800 77310
L77800 77250
L77830 77200
L77890 77170
L78030 77170
L78080 77140
" />
<path d="M78610 77390
L78610 76800
" />
<path d="M78610 77360
L78560 77390
L78440 77390
L78390 77360
L78360 77340
L78330 77280
L78330 77110
L78360 77050
L78390 77030
L78440 77000
L78560 77000
L78610 77030
" />
<path d="M79590 77000
L79590 77390
" />
<path d="M79450 76770
L79310 77200
L79680 77200
" />
<path d="M79900 77340
L79930 77360
L79900 77390
L79870 77360
L79900 77340
L79900 77390
" />
<path d="M80290 76800
L80350 76800
L80410 76830
L80430 76860
L80460 76910
L80490 77030
L80490 77170
L80460 77280
L80430 77340
L80410 77360
L80350 77390
L80290 77390
L80240 77360
L80210 77340
L80180 77280
L80150 77170
L80150 77030
L80180 76910
L80210 76860
L80240 76830
L80290 76800
" />
<path d="M80740 77340
L80770 77360
L80740 77390
L80710 77360
L80740 77340
L80740 77390
" />
<path d="M81300 76800
L81020 76800
L80990 77080
L81020 77050
L81080 77030
L81220 77030
L81270 77050
L81300 77080
L81330 77140
L81330 77280
L81300 77340
L81270 77360
L81220 77390
L81080 77390
L81020 77360
L80990 77340
" />
</g>
<g style="fill:#840000; fill-opacity:0.0; 
stroke:#840000; stroke-width:100; stroke-opacity:1; 
stroke-linecap:round; stroke-linejoin:round;">
</g>
<g style="fill:#840000; fill-opacity:0.0; 
stroke:#840000; stroke-width:60; stroke-opacity:1; 
stroke-linecap:round; stroke-linejoin:round;">
<path d="M69690 75400
L112210 75400
" />
</g>
<g style="fill:#840000; fill-opacity:0.0; 
stroke:#840000; stroke-width:100; stroke-opacity:1; 
stroke-linecap:round; stroke-linejoin:round;">
</g>
<g style="fill:#840000; fill-opacity:0.0; 
stroke:#840000; stroke-width:120; stroke-opacity:1; 
stroke-linecap:round; stroke-linejoin:round;">
<path d="M104020 76290
L103820 76010
" />
<path d="M103680 76290
L103680 75700
L103910 75700
L103960 75730
L103990 75760
L104020 75810
L104020 75900
L103990 75950
L103960 75980
L103910 76010
L103680 76010
" />
<path d="M104500 76260
L104440 76290
L104330 76290
L104270 76260
L104240 76210
L104240 75980
L104270 75930
L104330 75900
L104440 75900
L104500 75930
L104520 75980
L104520 76040
L104240 76100
" />
<path d="M104720 75900
L104860 76290
L105010 75900
" />
<path d="M105230 76240
L105260 76260
L105230 76290
L105200 76260
L105230 76240
L105230 76290
" />
<path d="M105230 75930
L105260 75950
L105230 75980
L105200 75950
L105230 75930
L105230 75980
" />
</g>
<g style="fill:#840000; fill-opacity:0.0; 
stroke:#840000; stroke-width:100; stroke-opacity:1; 
stroke-linecap:round; stroke-linejoin:round;">
</g>
<g style="fill:#840000; fill-opacity:0.0; 
stroke:#840000; stroke-width:60; stroke-opacity:1; 
stroke-linecap:round; stroke-linejoin:round;">
<path d="M70190 76260
L70280 76290
L70420 76290
L70470 76260
L70500 76240
L70530 76180
L70530 76120
L70500 76070
L70470 76040
L70420 76010
L70300 75980
L70250 75950
L70220 75930
L70190 75870
L70190 75810
L70220 75760
L70250 75730
L70300 75700
L70450 75700
L70530 75730
" />
<path d="M70780 76290
L70780 75900
" />
<path d="M70780 75700
L70750 75730
L70780 75760
L70810 75730
L70780 75700
L70780 75760
" />
<path d="M71000 75900
L71310 75900
L71000 76290
L71310 76290
" />
<path d="M71770 76260
L71710 76290
L71600 76290
L71540 76260
L71510 76210
L71510 75980
L71540 75930
L71600 75900
L71710 75900
L71770 75930
L71790 75980
L71790 76040
L71510 76100
" />
<path d="M72050 76240
L72080 76260
L72050 76290
L72020 76260
L72050 76240
L72050 76290
" />
<path d="M72050 75930
L72080 75950
L72050 75980
L72020 75950
L72050 75930
L72050 75980
" />
<path d="M72750 76120
L73030 76120
" />
<path d="M72700 76290
L72890 75700
L73090 76290
" />
<path d="M73540 75900
L73540 76290
" />
<path d="M73400 75670
L73260 76100
L73630 76100
" />
</g>
<g style="fill:#840000; fill-opacity:0.0; 
stroke:#840000; stroke-width:100; stroke-opacity:1; 
stroke-linecap:round; stroke-linejoin:round;">
</g>
<g style="fill:#840000; fill-opacity:0.0; 
stroke:#840000; stroke-width:60; stroke-opacity:1; 
stroke-linecap:round; stroke-linejoin:round;">
<path d="M103680 77390
L103680 76800
" />
<path d="M104210 77390
L104210 76800
" />
<path d="M104210 77360
L104160 77390
L104040 77390
L103990 77360
L103960 77340
L103930 77280
L103930 77110
L103960 77050
L103990 77030
L104040 77000
L104160 77000
L104210 77030
" />
<path d="M104490 77340
L104520 77360
L104490 77390
L104460 77360
L104490 77340
L104490 77390
" />
<path d="M104490 77030
L104520 77050
L104490 77080
L104460 77050
L104490 77030
L104490 77080
" />
<path d="M105470 77000
L105470 77390
" />
<path d="M105330 76770
L105190 77200
L105560 77200
" />
<path d="M106200 76770
L105700 77530
" />
<path d="M106650 77000
L106650 77390
" />
<path d="M106510 76770
L106370 77200
L106740 77200
" />
</g>
<g style="fill:#840000; fill-opacity:0.0; 
stroke:#840000; stroke-width:100; stroke-opacity:1; 
stroke-linecap:round; stroke-linejoin:round;">
</g>
<g style="fill:#840000; fill-opacity:0.0; 
stroke:#840000; stroke-width:60; stroke-opacity:1; 
stroke-linecap:round; stroke-linejoin:round;">
<path d="M69690 73820
L112210 73820
" />
</g>
<g style="fill:#840000; fill-opacity:0.0; 
stroke:#840000; stroke-width:100; stroke-opacity:1; 
stroke-linecap:round; stroke-linejoin:round;">
</g>
<g style="fill:#840000; fill-opacity:0.0; 
stroke:#840000; stroke-width:160; stroke-opacity:1; 
stroke-linecap:round; stroke-linejoin:round;">
<path d="M70260 74090
L70710 74090
" />
<path d="M70390 74880
L70480 74090
" />
<path d="M70880 74880
L70940 74360
" />
<path d="M70970 74090
L70930 74130
L70960 74170
L71010 74130
L70970 74090
L70960 74170
" />
<path d="M71210 74360
L71510 74360
" />
<path d="M71350 74090
L71270 74770
L71300 74840
L71370 74880
L71450 74880
" />
<path d="M71820 74880
L71750 74840
L71720 74770
L71800 74090
" />
<path d="M72420 74840
L72340 74880
L72190 74880
L72120 74840
L72090 74770
L72130 74470
L72180 74390
L72250 74360
L72400 74360
L72480 74390
L72510 74470
L72500 74540
L72110 74620
" />
<path d="M72800 74810
L72840 74840
L72800 74880
L72760 74840
L72800 74810
L72800 74880
" />
<path d="M72860 74390
L72890 74430
L72850 74470
L72810 74430
L72860 74390
L72850 74470
" />
</g>
<g style="fill:#840000; fill-opacity:0.0; 
stroke:#840000; stroke-width:100; stroke-opacity:1; 
stroke-linecap:round; stroke-linejoin:round;">
</g>
<g style="fill:#840000; fill-opacity:0.0; 
stroke:#840000; stroke-width:60; stroke-opacity:1; 
stroke-linecap:round; stroke-linejoin:round;">
<path d="M70420 73060
L70220 73060
" />
<path d="M70220 73370
L70220 72780
L70500 72780
" />
<path d="M70730 73370
L70730 72980
" />
<path d="M70730 72780
L70700 72810
L70730 72840
L70760 72810
L70730 72780
L70730 72840
" />
<path d="M71090 73370
L71040 73340
L71010 73290
L71010 72780
" />
<path d="M71550 73340
L71490 73370
L71380 73370
L71320 73340
L71290 73290
L71290 73060
L71320 73010
L71380 72980
L71490 72980
L71550 73010
L71570 73060
L71570 73120
L71290 73180
" />
<path d="M71830 73320
L71860 73340
L71830 73370
L71800 73340
L71830 73320
L71830 73370
" />
<path d="M71830 73010
L71860 73030
L71830 73060
L71800 73030
L71830 73010
L71830 73060
" />
<path d="M72810 73370
L72810 72780
" />
<path d="M72810 73340
L72760 73370
L72640 73370
L72590 73340
L72560 73320
L72530 73260
L72530 73090
L72560 73030
L72590 73010
L72640 72980
L72760 72980
L72810 73010
" />
<path d="M73090 73370
L73090 72980
" />
<path d="M73090 73090
L73120 73030
L73150 73010
L73200 72980
L73260 72980
" />
<path d="M73460 73370
L73460 72980
" />
<path d="M73460 72780
L73430 72810
L73460 72840
L73490 72810
L73460 72780
L73460 72840
" />
<path d="M73680 72980
L73820 73370
L73970 72980
" />
<path d="M74420 73340
L74360 73370
L74250 73370
L74190 73340
L74160 73290
L74160 73060
L74190 73010
L74250 72980
L74360 72980
L74420 73010
L74440 73060
L74440 73120
L74160 73180
" />
<path d="M74620 72980
L74840 72980
" />
<path d="M74700 72780
L74700 73290
L74730 73340
L74780 73370
L74840 73370
" />
<path d="M75040 73370
L75040 72980
" />
<path d="M75040 73090
L75070 73030
L75100 73010
L75150 72980
L75210 72980
" />
<path d="M75660 73370
L75660 73060
L75640 73010
L75580 72980
L75470 72980
L75410 73010
" />
<path d="M75660 73340
L75610 73370
L75470 73370
L75410 73340
L75380 73290
L75380 73230
L75410 73180
L75470 73150
L75610 73150
L75660 73120
" />
<path d="M75940 73370
L75940 72980
" />
<path d="M75940 72780
L75910 72810
L75940 72840
L75970 72810
L75940 72780
L75940 72840
" />
<path d="M76220 72980
L76220 73370
" />
<path d="M76220 73030
L76250 73010
L76300 72980
L76390 72980
L76450 73010
L76470 73060
L76470 73370
" />
<path d="M76750 73320
L76780 73340
L76750 73370
L76720 73340
L76750 73320
L76750 73370
" />
<path d="M77000 73340
L77060 73370
L77170 73370
L77230 73340
L77260 73290
L77260 73260
L77230 73200
L77170 73180
L77090 73180
L77030 73150
L77000 73090
L77000 73060
L77030 73010
L77090 72980
L77170 72980
L77230 73010
" />
<path d="M77760 73340
L77710 73370
L77590 73370
L77540 73340
L77510 73320
L77480 73260
L77480 73090
L77510 73030
L77540 73010
L77590 72980
L77710 72980
L77760 73010
" />
<path d="M78020 73370
L78020 72780
" />
<path d="M78270 73370
L78270 73060
L78250 73010
L78190 72980
L78100 72980
L78050 73010
L78020 73030
" />
</g>
<g style="fill:#840000; fill-opacity:0.0; 
stroke:#840000; stroke-width:100; stroke-opacity:1; 
stroke-linecap:round; stroke-linejoin:round;">
</g>
<g style="fill:#840000; fill-opacity:0.0; 
stroke:#840000; stroke-width:60; stroke-opacity:1; 
stroke-linecap:round; stroke-linejoin:round;">
<path d="M69690 71460
L112210 71460
" />
</g>
<g style="fill:#840000; fill-opacity:0.0; 
stroke:#840000; stroke-width:100; stroke-opacity:1; 
stroke-linecap:round; stroke-linejoin:round;">
</g>
<g style="fill:#840000; fill-opacity:0.0; 
stroke:#840000; stroke-width:60; stroke-opacity:1; 
stroke-linecap:round; stroke-linejoin:round;">
<path d="M70190 72280
L70280 72310
L70420 72310
L70470 72280
L70500 72260
L70530 72200
L70530 72140
L70500 72090
L70470 72060
L70420 72030
L70300 72000
L70250 71970
L70220 71950
L70190 71890
L70190 71830
L70220 71780
L70250 71750
L70300 71720
L70450 71720
L70530 71750
" />
<path d="M70780 72310
L70780 71720
" />
<path d="M71030 72310
L71030 72000
L71010 71950
L70950 71920
L70860 71920
L70810 71950
L70780 71970
" />
<path d="M71540 72280
L71480 72310
L71370 72310
L71310 72280
L71280 72230
L71280 72000
L71310 71950
L71370 71920
L71480 71920
L71540 71950
L71560 72000
L71560 72060
L71280 72120
" />
<path d="M72050 72280
L71990 72310
L71880 72310
L71820 72280
L71790 72230
L71790 72000
L71820 71950
L71880 71920
L71990 71920
L72050 71950
L72070 72000
L72070 72060
L71790 72120
" />
<path d="M72250 71920
L72470 71920
" />
<path d="M72330 71720
L72330 72230
L72360 72280
L72410 72310
L72470 72310
" />
<path d="M72670 72260
L72700 72280
L72670 72310
L72640 72280
L72670 72260
L72670 72310
" />
<path d="M72670 71950
L72700 71970
L72670 72000
L72640 71970
L72670 71950
L72670 72000
" />
<path d="M73820 71690
L73320 72450
" />
<path d="M74020 72310
L74020 71720
L74160 71720
L74250 71750
L74300 71810
L74330 71860
L74360 71970
L74360 72060
L74330 72170
L74300 72230
L74250 72280
L74160 72310
L74020 72310
" />
<path d="M74610 72310
L74610 71920
" />
<path d="M74610 72030
L74640 71970
L74670 71950
L74720 71920
L74780 71920
" />
<path d="M74980 72310
L74980 71920
" />
<path d="M74980 71720
L74950 71750
L74980 71780
L75010 71750
L74980 71720
L74980 71780
" />
<path d="M75200 71920
L75340 72310
L75490 71920
" />
<path d="M75940 72280
L75880 72310
L75770 72310
L75710 72280
L75680 72230
L75680 72000
L75710 71950
L75770 71920
L75880 71920
L75940 71950
L75960 72000
L75960 72060
L75680 72120
" />
<path d="M76140 71920
L76360 71920
" />
<path d="M76220 71720
L76220 72230
L76250 72280
L76300 72310
L76360 72310
" />
<path d="M76560 72310
L76560 71920
" />
<path d="M76560 72030
L76590 71970
L76620 71950
L76670 71920
L76730 71920
" />
<path d="M77180 72310
L77180 72000
L77160 71950
L77100 71920
L76990 71920
L76930 71950
" />
<path d="M77180 72280
L77130 72310
L76990 72310
L76930 72280
L76900 72230
L76900 72170
L76930 72120
L76990 72090
L77130 72090
L77180 72060
" />
<path d="M77460 72310
L77460 71920
" />
<path d="M77460 71720
L77430 71750
L77460 71780
L77490 71750
L77460 71720
L77460 71780
" />
<path d="M77740 71920
L77740 72310
" />
<path d="M77740 71970
L77770 71950
L77820 71920
L77910 71920
L77970 71950
L77990 72000
L77990 72310
" />
<path d="M78690 71690
L78190 72450
" />
</g>
<g style="fill:#840000; fill-opacity:0.0; 
stroke:#840000; stroke-width:100; stroke-opacity:1; 
stroke-linecap:round; stroke-linejoin:round;">
</g>
<g style="fill:#840000; fill-opacity:0.0; 
stroke:#840000; stroke-width:60; stroke-opacity:1; 
stroke-linecap:round; stroke-linejoin:round;">
<path d="M77560 75400
L77560 76580
" />
</g>
<g style="fill:#840000; fill-opacity:0.0; 
stroke:#840000; stroke-width:100; stroke-opacity:1; 
stroke-linecap:round; stroke-linejoin:round;">
</g>
<g style="fill:#840000; fill-opacity:0.0; 
stroke:#840000; stroke-width:60; stroke-opacity:1; 
stroke-linecap:round; stroke-linejoin:round;">
<path d="M102760 75400
L102760 77960
" />
</g>
<g style="fill:#840000; fill-opacity:0.0; 
stroke:#840000; stroke-width:0; stroke-opacity:1; 
stroke-linecap:round; stroke-linejoin:round;">
</g>
<g style="fill:#840000; fill-opacity:0.0; 
stroke:#840000; stroke-width:60; stroke-opacity:1; 
stroke-linecap:round; stroke-linejoin:round;">
<rect x="54000" y="38000" width="9000" height="5000" rx="0" />
<path d="M54000 39000
L53000 39000
" />
</g>
<g style="fill:#008484; fill-opacity:0.0; 
stroke:#008484; stroke-width:60; stroke-opacity:1; 
stroke-linecap:round; stroke-linejoin:round;">
<path d="M54520 39230
L54520 38730
L54800 39230
L54800 38730
" />
<path d="M55300 39230
L55020 39230
" />
<path d="M55160 39230
L55160 38730
L55110 38800
L55060 38850
L55020 38870
" />
<path d="M55780 38750
L55730 38730
L55660 38730
L55590 38750
L55540 38800
L55520 38850
L55500 38940
L55500 39010
L55520 39110
L55540 39150
L55590 39200
L55660 39230
L55710 39230
L55780 39200
L55800 39180
L55800 39010
L55710 39010
" />
</g>
<g style="fill:#840000; fill-opacity:0.0; 
stroke:#840000; stroke-width:60; stroke-opacity:1; 
stroke-linecap:round; stroke-linejoin:round;">
<path d="M53640 38880
L53360 38880
" />
<path d="M53500 38880
L53500 38380
L53450 38450
L53400 38500
L53360 38520
" />
<path d="M54000 40000
L53000 40000
" />
</g>
<g style="fill:#008484; fill-opacity:0.0; 
stroke:#008484; stroke-width:60; stroke-opacity:1; 
stroke-linecap:round; stroke-linejoin:round;">
<path d="M54520 40230
L54520 39730
L54800 40230
L54800 39730
" />
<path d="M55300 40230
L55020 40230
" />
<path d="M55160 40230
L55160 39730
L55110 39800
L55060 39850
L55020 39870
" />
<path d="M55520 40230
L55520 39730
L55640 39730
L55710 39750
L55760 39800
L55780 39850
L55800 39940
L55800 40010
L55780 40110
L55760 40150
L55710 40200
L55640 40230
L55520 40230
" />
<path d="M56380 39700
L55950 40350
" />
<path d="M56540 40230
L56540 39730
L56730 39730
L56780 39750
L56800 39770
L56820 39820
L56820 39890
L56800 39940
L56780 39960
L56730 39990
L56540 39990
" />
<path d="M57300 40230
L57020 40230
" />
<path d="M57160 40230
L57160 39730
L57110 39800
L57060 39850
L57020 39870
" />
<path d="M57520 40230
L57520 39730
L57640 39730
L57710 39750
L57760 39800
L57780 39850
L57800 39940
L57800 40010
L57780 40110
L57760 40150
L57710 40200
L57640 40230
L57520 40230
" />
</g>
<g style="fill:#840000; fill-opacity:0.0; 
stroke:#840000; stroke-width:60; stroke-opacity:1; 
stroke-linecap:round; stroke-linejoin:round;">
<path d="M53360 39420
L53380 39400
L53430 39380
L53550 39380
L53590 39400
L53620 39420
L53640 39470
L53640 39520
L53620 39590
L53330 39880
L53640 39880
" />
<path d="M54000 41000
L53000 41000
" />
</g>
<g style="fill:#008484; fill-opacity:0.0; 
stroke:#008484; stroke-width:60; stroke-opacity:1; 
stroke-linecap:round; stroke-linejoin:round;">
<path d="M54520 41230
L54520 40730
L54800 41230
L54800 40730
" />
<path d="M55300 41230
L55020 41230
" />
<path d="M55160 41230
L55160 40730
L55110 40800
L55060 40850
L55020 40870
" />
<path d="M55500 41200
L55570 41230
L55690 41230
L55730 41200
L55760 41180
L55780 41130
L55780 41080
L55760 41040
L55730 41010
L55690 40990
L55590 40960
L55540 40940
L55520 40920
L55500 40870
L55500 40820
L55520 40770
L55540 40750
L55590 40730
L55710 40730
L55780 40750
" />
<path d="M56360 40700
L55930 41350
" />
<path d="M56520 41230
L56520 40730
L56800 41230
L56800 40730
" />
<path d="M57020 40770
L57040 40750
L57090 40730
L57210 40730
L57250 40750
L57280 40770
L57300 40820
L57300 40870
L57280 40940
L56990 41230
L57300 41230
" />
<path d="M57500 41200
L57570 41230
L57690 41230
L57730 41200
L57760 41180
L57780 41130
L57780 41080
L57760 41040
L57730 41010
L57690 40990
L57590 40960
L57540 40940
L57520 40920
L57500 40870
L57500 40820
L57520 40770
L57540 40750
L57590 40730
L57710 40730
L57780 40750
" />
</g>
<g style="fill:#840000; fill-opacity:0.0; 
stroke:#840000; stroke-width:60; stroke-opacity:1; 
stroke-linecap:round; stroke-linejoin:round;">
<path d="M53330 40380
L53640 40380
L53470 40570
L53550 40570
L53590 40590
L53620 40610
L53640 40660
L53640 40780
L53620 40830
L53590 40850
L53550 40880
L53400 40880
L53360 40850
L53330 40830
" />
<path d="M54000 42000
L53000 42000
" />
</g>
<g style="fill:#008484; fill-opacity:0.0; 
stroke:#008484; stroke-width:60; stroke-opacity:1; 
stroke-linecap:round; stroke-linejoin:round;">
<path d="M54520 42230
L54520 41730
L54800 42230
L54800 41730
" />
<path d="M55020 41770
L55040 41750
L55090 41730
L55210 41730
L55250 41750
L55280 41770
L55300 41820
L55300 41870
L55280 41940
L54990 42230
L55300 42230
" />
<path d="M55780 41750
L55730 41730
L55660 41730
L55590 41750
L55540 41800
L55520 41850
L55500 41940
L55500 42010
L55520 42110
L55540 42150
L55590 42200
L55660 42230
L55710 42230
L55780 42200
L55800 42180
L55800 42010
L55710 42010
" />
</g>
<g style="fill:#840000; fill-opacity:0.0; 
stroke:#840000; stroke-width:60; stroke-opacity:1; 
stroke-linecap:round; stroke-linejoin:round;">
<path d="M53590 41540
L53590 41880
" />
<path d="M53470 41350
L53360 41710
L53660 41710
" />
<path d="M63000 42000
L64000 42000
" />
</g>
<g style="fill:#008484; fill-opacity:0.0; 
stroke:#008484; stroke-width:60; stroke-opacity:1; 
stroke-linecap:round; stroke-linejoin:round;">
<path d="M61240 42230
L61240 41730
L61430 41730
L61480 41750
L61500 41770
L61520 41820
L61520 41890
L61500 41940
L61480 41960
L61430 41990
L61240 41990
" />
<path d="M61720 41770
L61740 41750
L61790 41730
L61910 41730
L61950 41750
L61980 41770
L62000 41820
L62000 41870
L61980 41940
L61690 42230
L62000 42230
" />
<path d="M62480 41750
L62430 41730
L62360 41730
L62290 41750
L62240 41800
L62220 41850
L62200 41940
L62200 42010
L62220 42110
L62240 42150
L62290 42200
L62360 42230
L62410 42230
L62480 42200
L62500 42180
L62500 42010
L62410 42010
" />
</g>
<g style="fill:#840000; fill-opacity:0.0; 
stroke:#840000; stroke-width:60; stroke-opacity:1; 
stroke-linecap:round; stroke-linejoin:round;">
<path d="M63620 41380
L63380 41380
L63360 41610
L63380 41590
L63430 41570
L63550 41570
L63590 41590
L63620 41610
L63640 41660
L63640 41780
L63620 41830
L63590 41850
L63550 41880
L63430 41880
L63380 41850
L63360 41830
" />
<path d="M63000 41000
L64000 41000
" />
</g>
<g style="fill:#008484; fill-opacity:0.0; 
stroke:#008484; stroke-width:60; stroke-opacity:1; 
stroke-linecap:round; stroke-linejoin:round;">
<path d="M59220 41230
L59220 40730
L59500 41230
L59500 40730
" />
<path d="M59720 40770
L59740 40750
L59790 40730
L59910 40730
L59950 40750
L59980 40770
L60000 40820
L60000 40870
L59980 40940
L59690 41230
L60000 41230
" />
<path d="M60220 41230
L60220 40730
L60340 40730
L60410 40750
L60460 40800
L60480 40850
L60500 40940
L60500 41010
L60480 41110
L60460 41150
L60410 41200
L60340 41230
L60220 41230
" />
<path d="M61080 40700
L60650 41350
" />
<path d="M61240 41230
L61240 40730
L61430 40730
L61480 40750
L61500 40770
L61520 40820
L61520 40890
L61500 40940
L61480 40960
L61430 40990
L61240 40990
" />
<path d="M61720 40770
L61740 40750
L61790 40730
L61910 40730
L61950 40750
L61980 40770
L62000 40820
L62000 40870
L61980 40940
L61690 41230
L62000 41230
" />
<path d="M62220 41230
L62220 40730
L62340 40730
L62410 40750
L62460 40800
L62480 40850
L62500 40940
L62500 41010
L62480 41110
L62460 41150
L62410 41200
L62340 41230
L62220 41230
" />
</g>
<g style="fill:#840000; fill-opacity:0.0; 
stroke:#840000; stroke-width:60; stroke-opacity:1; 
stroke-linecap:round; stroke-linejoin:round;">
<path d="M63590 40380
L63500 40380
L63450 40400
L63430 40420
L63380 40500
L63360 40590
L63360 40780
L63380 40830
L63400 40850
L63450 40880
L63550 40880
L63590 40850
L63620 40830
L63640 40780
L63640 40660
L63620 40610
L63590 40590
L63550 40570
L63450 40570
L63400 40590
L63380 40610
L63360 40660
" />
<path d="M63000 40000
L64000 40000
" />
</g>
<g style="fill:#008484; fill-opacity:0.0; 
stroke:#008484; stroke-width:60; stroke-opacity:1; 
stroke-linecap:round; stroke-linejoin:round;">
<path d="M59280 40230
L59280 39730
L59470 39730
L59520 39750
L59540 39770
L59560 39820
L59560 39890
L59540 39940
L59520 39960
L59470 39990
L59280 39990
" />
<path d="M60040 40230
L59760 40230
" />
<path d="M59900 40230
L59900 39730
L59850 39800
L59800 39850
L59760 39870
" />
<path d="M60240 40200
L60310 40230
L60430 40230
L60470 40200
L60500 40180
L60520 40130
L60520 40080
L60500 40040
L60470 40010
L60430 39990
L60330 39960
L60280 39940
L60260 39920
L60240 39870
L60240 39820
L60260 39770
L60280 39750
L60330 39730
L60450 39730
L60520 39750
" />
<path d="M61100 39700
L60670 40350
" />
<path d="M61260 40230
L61260 39730
L61450 39730
L61500 39750
L61520 39770
L61540 39820
L61540 39890
L61520 39940
L61500 39960
L61450 39990
L61260 39990
" />
<path d="M61740 39770
L61760 39750
L61810 39730
L61930 39730
L61970 39750
L62000 39770
L62020 39820
L62020 39870
L62000 39940
L61710 40230
L62020 40230
" />
<path d="M62220 40200
L62290 40230
L62410 40230
L62450 40200
L62480 40180
L62500 40130
L62500 40080
L62480 40040
L62450 40010
L62410 39990
L62310 39960
L62260 39940
L62240 39920
L62220 39870
L62220 39820
L62240 39770
L62260 39750
L62310 39730
L62430 39730
L62500 39750
" />
</g>
<g style="fill:#840000; fill-opacity:0.0; 
stroke:#840000; stroke-width:60; stroke-opacity:1; 
stroke-linecap:round; stroke-linejoin:round;">
<path d="M63330 39380
L63660 39380
L63450 39880
" />
<path d="M63000 39000
L64000 39000
" />
</g>
<g style="fill:#008484; fill-opacity:0.0; 
stroke:#008484; stroke-width:60; stroke-opacity:1; 
stroke-linecap:round; stroke-linejoin:round;">
<path d="M61240 39230
L61240 38730
L61430 38730
L61480 38750
L61500 38770
L61520 38820
L61520 38890
L61500 38940
L61480 38960
L61430 38990
L61240 38990
" />
<path d="M62000 39230
L61720 39230
" />
<path d="M61860 39230
L61860 38730
L61810 38800
L61760 38850
L61720 38870
" />
<path d="M62480 38750
L62430 38730
L62360 38730
L62290 38750
L62240 38800
L62220 38850
L62200 38940
L62200 39010
L62220 39110
L62240 39150
L62290 39200
L62360 39230
L62410 39230
L62480 39200
L62500 39180
L62500 39010
L62410 39010
" />
</g>
<g style="fill:#840000; fill-opacity:0.0; 
stroke:#840000; stroke-width:60; stroke-opacity:1; 
stroke-linecap:round; stroke-linejoin:round;">
<path d="M63450 38590
L63400 38570
L63380 38540
L63360 38500
L63360 38470
L63380 38420
L63400 38400
L63450 38380
L63550 38380
L63590 38400
L63620 38420
L63640 38470
L63640 38500
L63620 38540
L63590 38570
L63550 38590
L63450 38590
L63400 38610
L63380 38640
L63360 38690
L63360 38780
L63380 38830
L63400 38850
L63450 38880
L63550 38880
L63590 38850
L63620 38830
L63640 38780
L63640 38690
L63620 38640
L63590 38610
L63550 38590
" />
</g>
<g style="fill:#008484; fill-opacity:0.0; 
stroke:#008484; stroke-width:60; stroke-opacity:1; 
stroke-linecap:round; stroke-linejoin:round;">
<path d="M54070 37210
L54070 37700
L54100 37750
L54130 37780
L54190 37810
L54300 37810
L54360 37780
L54390 37750
L54420 37700
L54420 37210
" />
<path d="M54790 37750
L54820 37780
L54790 37810
L54760 37780
L54790 37750
L54790 37810
" />
<path d="M54670 37240
L54730 37210
L54870 37210
L54930 37240
L54960 37300
L54960 37350
L54930 37410
L54900 37440
L54850 37470
L54820 37500
L54790 37550
L54790 37580
" />
<path d="M55820 37210
L56220 37210
L55820 37810
L56220 37810
" />
<path d="M56390 37210
L56790 37810
" />
<path d="M56790 37210
L56390 37810
" />
<path d="M57010 37810
L57010 37210
L57210 37640
L57410 37210
L57410 37810
" />
<path d="M57700 37810
L57700 37210
" />
<path d="M57700 37500
L58050 37500
" />
<path d="M58050 37810
L58050 37210
" />
<path d="M58680 37750
L58650 37780
L58560 37810
L58500 37810
L58420 37780
L58360 37730
L58330 37670
L58300 37550
L58300 37470
L58330 37350
L58360 37300
L58420 37240
L58500 37210
L58560 37210
L58650 37240
L58680 37270
" />
<path d="M59190 37210
L59080 37210
L59020 37240
L58990 37270
L58930 37350
L58900 37470
L58900 37700
L58930 37750
L58960 37780
L59020 37810
L59130 37810
L59190 37780
L59220 37750
L59250 37700
L59250 37550
L59220 37500
L59190 37470
L59130 37440
L59020 37440
L58960 37470
L58930 37500
L58900 37550
" />
<path d="M59470 37640
L59760 37640
" />
<path d="M59420 37810
L59620 37210
L59820 37810
" />
<path d="M60130 37210
L60180 37210
L60240 37240
L60270 37270
L60300 37330
L60330 37440
L60330 37580
L60300 37700
L60270 37750
L60240 37780
L60180 37810
L60130 37810
L60070 37780
L60040 37750
L60010 37700
L59980 37580
L59980 37440
L60010 37330
L60040 37270
L60070 37240
L60130 37210
" />
<path d="M60530 37210
L60930 37210
L60670 37810
" />
<path d="M61150 37810
L61150 37210
L61500 37810
L61500 37210
" />
<path d="M61870 37470
L61810 37440
L61780 37410
L61750 37350
L61750 37330
L61780 37270
L61810 37240
L61870 37210
L61980 37210
L62040 37240
L62070 37270
L62100 37330
L62100 37350
L62070 37410
L62040 37440
L61980 37470
L61870 37470
L61810 37500
L61780 37530
L61750 37580
L61750 37700
L61780 37750
L61810 37780
L61870 37810
L61980 37810
L62040 37780
L62070 37750
L62100 37700
L62100 37580
L62070 37530
L62040 37500
L61980 37470
" />
<path d="M62270 37210
L62610 37210
" />
<path d="M62440 37810
L62440 37210
" />
<path d="M63160 37750
L63130 37780
L63040 37810
L62980 37810
L62900 37780
L62840 37730
L62810 37670
L62780 37550
L62780 37470
L62810 37350
L62840 37300
L62900 37240
L62980 37210
L63040 37210
L63130 37240
L63160 37270
" />
</g>
<g style="fill:#008484; fill-opacity:0.0; 
stroke:#008484; stroke-width:0; stroke-opacity:1; 
stroke-linecap:round; stroke-linejoin:round;">
</g>
<g style="fill:#840000; fill-opacity:0.0; 
stroke:#840000; stroke-width:0; stroke-opacity:1; 
stroke-linecap:round; stroke-linejoin:round;">
</g>
<g style="fill:#840000; fill-opacity:0.0; 
stroke:#840000; stroke-width:60; stroke-opacity:1; 
stroke-linecap:round; stroke-linejoin:round;">
<circle cx="69000" cy="37250" r="250" /> 
<polyline fill="none;"
points="69000,38000
69000,37500
" /> 
</g>
<g style="fill:#008484; fill-opacity:0.0; 
stroke:#008484; stroke-width:60; stroke-opacity:1; 
stroke-linecap:round; stroke-linejoin:round;">
<path d="M68340 36260
L68500 36760
L68670 36260
" />
<path d="M69120 36710
L69100 36730
L69030 36760
L68980 36760
L68910 36730
L68860 36680
L68840 36640
L68820 36540
L68820 36470
L68840 36380
L68860 36330
L68910 36280
L68980 36260
L69030 36260
L69100 36280
L69120 36300
" />
<path d="M69620 36710
L69600 36730
L69530 36760
L69480 36760
L69410 36730
L69360 36680
L69340 36640
L69320 36540
L69320 36470
L69340 36380
L69360 36330
L69410 36280
L69480 36260
L69530 36260
L69600 36280
L69620 36300
" />
</g>
<g style="fill:#008484; fill-opacity:0.0; 
stroke:#008484; stroke-width:0; stroke-opacity:1; 
stroke-linecap:round; stroke-linejoin:round;">
</g>
<g style="fill:#840000; fill-opacity:0.0; 
stroke:#840000; stroke-width:0; stroke-opacity:1; 
stroke-linecap:round; stroke-linejoin:round;">
</g>
<g style="fill:#840000; fill-opacity:0.0; 
stroke:#840000; stroke-width:60; stroke-opacity:1; 
stroke-linecap:round; stroke-linejoin:round;">
<polyline fill="none;"
points="51000,45000
51000,45500
51500,45500
51000,46000
50500,45500
51000,45500
" /> 
</g>
<g style="fill:#008484; fill-opacity:0.0; 
stroke:#008484; stroke-width:60; stroke-opacity:1; 
stroke-linecap:round; stroke-linejoin:round;">
<path d="M50620 46280
L50570 46260
L50500 46260
L50430 46280
L50380 46330
L50360 46380
L50340 46470
L50340 46540
L50360 46640
L50380 46680
L50430 46730
L50500 46760
L50550 46760
L50620 46730
L50640 46710
L50640 46540
L50550 46540
" />
<path d="M50860 46760
L50860 46260
L51140 46760
L51140 46260
" />
<path d="M51380 46760
L51380 46260
L51500 46260
L51570 46280
L51620 46330
L51640 46380
L51660 46470
L51660 46540
L51640 46640
L51620 46680
L51570 46730
L51500 46760
L51380 46760
" />
</g>
<g style="fill:#008400; fill-opacity:0.0; 
stroke:#008400; stroke-width:60; stroke-opacity:1; 
stroke-linecap:round; stroke-linejoin:round;">
<path d="M53000 41000
L51000 41000
" />
<path d="M51000 39000
L51000 41000
" />
<path d="M51000 41000
L51000 44000
" />
<path d="M51000 44000
L51000 45000
" />
<path d="M69000 40000
L64000 40000
" />
<path d="M69000 38000
L69000 39000
" />
<path d="M69000 39000
L69000 40000
" />
<path d="M69000 40000
L69000 42000
" />
</g>
<g style="fill:#008400; fill-opacity:0.0; 
stroke:#008400; stroke-width:0; stroke-opacity:1; 
stroke-linecap:round; stroke-linejoin:round;">
</g>
<g style="fill:#840000; fill-opacity:0.0; 
stroke:#840000; stroke-width:0; stroke-opacity:1; 
stroke-linecap:round; stroke-linejoin:round;">
</g>
<g style="fill:#FFFFC2; fill-opacity:0.0; 
stroke:#FFFFC2; stroke-width:0; stroke-opacity:1; 
stroke-linecap:round; stroke-linejoin:round;">
</g>
<g style="fill:#FFFFC2; fill-opacity:0.6; 
stroke:#FFFFC2; stroke-width:0; stroke-opacity:1; 
stroke-linecap:round; stroke-linejoin:round;">
<rect x="45000" y="36500" width="4000" height="3000" rx="0" />
</g>
<g style="fill:#840000; fill-opacity:0.6; 
stroke:#840000; stroke-width:0; stroke-opacity:1; 
stroke-linecap:round; stroke-linejoin:round;">
</g>
<g style="fill:#840000; fill-opacity:0.0; 
stroke:#840000; stroke-width:100; stroke-opacity:1; 
stroke-linecap:round; stroke-linejoin:round;">
<rect x="45000" y="36500" width="4000" height="3000" rx="0" />
<polyline fill="none;"
points="45500,38250
46000,38250
" /> 
</g>
<g style="fill:#840000; fill-opacity:0.0; 
stroke:#840000; stroke-width:60; stroke-opacity:1; 
stroke-linecap:round; stroke-linejoin:round;">
<polyline fill="none;"
points="48050,38550
48500,39000
" /> 
<polyline fill="none;"
points="48050,38450
48500,38000
" /> 
<polyline fill="none;"
points="48500,39000
49000,39000
" /> 
<polyline fill="none;"
points="48500,38000
49000,38000
" /> 
</g>
<g style="fill:#840000; fill-opacity:0.0; 
stroke:#840000; stroke-width:140; stroke-opacity:1; 
stroke-linecap:round; stroke-linejoin:round;">
<polyline fill="none;"
points="48050,38100
48050,38900
48050,38900
" /> 
</g>
<g style="fill:#840000; fill-opacity:0.0; 
stroke:#840000; stroke-width:60; stroke-opacity:1; 
stroke-linecap:round; stroke-linejoin:round;">
<polyline fill="none;"
points="45000,39000
45750,39000
45750,37000
45000,37000
" /> 
</g>
<g style="fill:#840000; fill-opacity:1.0; 
stroke:#840000; stroke-width:100; stroke-opacity:1; 
stroke-linecap:round; stroke-linejoin:round;">
<polyline style="fill-rule:evenodd;"
points="45750,38250
45500,37750
46000,37750
45750,38250
" /> 
</g>
<g style="fill:#840000; fill-opacity:0.0; 
stroke:#840000; stroke-width:60; stroke-opacity:1; 
stroke-linecap:round; stroke-linejoin:round;">
<polyline fill="none;"
points="46750,37900
46960,37700
46960,37900
47260,37600
" /> 
<polyline fill="none;"
points="47260,37600
47060,37700
47160,37800
47260,37600
" /> 
<polyline fill="none;"
points="48450,38950
48350,38750
48250,38850
48450,38950
" /> 
<polyline fill="none;"
points="49000,37000
47750,37000
47750,38500
48000,38500
" /> 
<polyline fill="none;"
points="46750,38300
46960,38100
46960,38300
47260,38000
47060,38100
47160,38200
47260,38000
" /> 
<path d="M45000 37000
L44000 37000
" />
<path d="M44640 36880
L44360 36880
" />
<path d="M44500 36880
L44500 36380
L44450 36450
L44400 36500
L44360 36520
" />
<path d="M45000 39000
L44000 39000
" />
<path d="M44360 38420
L44380 38400
L44430 38380
L44550 38380
L44590 38400
L44620 38420
L44640 38470
L44640 38520
L44620 38590
L44330 38880
L44640 38880
" />
<path d="M49000 39000
L50000 39000
" />
<path d="M49590 38540
L49590 38880
" />
<path d="M49470 38350
L49360 38710
L49660 38710
" />
<path d="M49000 38000
L50000 38000
" />
<path d="M49620 37380
L49380 37380
L49360 37610
L49380 37590
L49430 37570
L49550 37570
L49590 37590
L49620 37610
L49640 37660
L49640 37780
L49620 37830
L49590 37850
L49550 37880
L49430 37880
L49380 37850
L49360 37830
" />
<path d="M49000 37000
L50000 37000
" />
<path d="M49590 36380
L49500 36380
L49450 36400
L49430 36420
L49380 36500
L49360 36590
L49360 36780
L49380 36830
L49400 36850
L49450 36880
L49550 36880
L49590 36850
L49620 36830
L49640 36780
L49640 36660
L49620 36610
L49590 36590
L49550 36570
L49450 36570
L49400 36590
L49380 36610
L49360 36660
" />
</g>
<g style="fill:#008484; fill-opacity:0.0; 
stroke:#008484; stroke-width:60; stroke-opacity:1; 
stroke-linecap:round; stroke-linejoin:round;">
<path d="M45120 35760
L45120 36160
L45140 36210
L45170 36230
L45210 36260
L45310 36260
L45360 36230
L45380 36210
L45400 36160
L45400 35760
" />
<path d="M45710 36210
L45730 36230
L45710 36260
L45690 36230
L45710 36210
L45710 36260
" />
<path d="M45620 35780
L45660 35760
L45780 35760
L45830 35780
L45850 35830
L45850 35880
L45830 35920
L45810 35950
L45760 35970
L45730 35990
L45710 36040
L45710 36070
" />
<path d="M47330 35920
L47330 36260
" />
<path d="M47210 35730
L47100 36090
L47400 36090
" />
<path d="M47600 36260
L47600 35760
L47880 36260
L47880 35760
" />
<path d="M48100 35800
L48120 35780
L48170 35760
L48290 35760
L48330 35780
L48360 35800
L48380 35850
L48380 35900
L48360 35970
L48070 36260
L48380 36260
" />
<path d="M48840 35760
L48600 35760
L48580 35990
L48600 35970
L48650 35950
L48770 35950
L48810 35970
L48840 35990
L48860 36040
L48860 36160
L48840 36210
L48810 36230
L48770 36260
L48650 36260
L48600 36230
L48580 36210
" />
</g>
<g style="fill:#008484; fill-opacity:0.0; 
stroke:#008484; stroke-width:0; stroke-opacity:1; 
stroke-linecap:round; stroke-linejoin:round;">
</g>
<g style="fill:#840000; fill-opacity:0.0; 
stroke:#840000; stroke-width:0; stroke-opacity:1; 
stroke-linecap:round; stroke-linejoin:round;">
</g>
<g style="fill:#840000; fill-opacity:0.0; 
stroke:#840000; stroke-width:80; stroke-opacity:1; 
stroke-linecap:round; stroke-linejoin:round;">
<rect x="66300" y="38700" width="1400" height="600" rx="0" />
</g>
<g style="fill:#840000; fill-opacity:0.0; 
stroke:#840000; stroke-width:60; stroke-opacity:1; 
stroke-linecap:round; stroke-linejoin:round;">
<path d="M66300 39000
L66000 39000
" />
<path d="M67700 39000
L68000 39000
" />
</g>
<g style="fill:#008484; fill-opacity:0.0; 
stroke:#008484; stroke-width:60; stroke-opacity:1; 
stroke-linecap:round; stroke-linejoin:round;">
<path d="M67060 38290
L66820 38450
" />
<path d="M67060 38570
L66560 38570
L66560 38380
L66580 38330
L66600 38310
L66650 38290
L66720 38290
L66770 38310
L66790 38330
L66820 38380
L66820 38570
" />
<path d="M67010 38000
L67030 37980
L67060 38000
L67030 38020
L67010 38000
L67060 38000
" />
<path d="M66580 38090
L66560 38050
L66560 37930
L66580 37880
L66630 37860
L66680 37860
L66720 37880
L66750 37900
L66770 37950
L66790 37980
L66840 38000
L66870 38000
" />
<path d="M67660 38320
L67660 38600
" />
<path d="M67660 38460
L67160 38460
L67230 38510
L67280 38560
L67300 38600
" />
<path d="M67160 38010
L67160 37960
L67180 37910
L67200 37890
L67250 37860
L67350 37840
L67470 37840
L67560 37860
L67610 37890
L67630 37910
L67660 37960
L67660 38010
L67630 38050
L67610 38080
L67560 38100
L67470 38120
L67350 38120
L67250 38100
L67200 38080
L67180 38050
L67160 38010
" />
<path d="M67660 37620
L67160 37620
" />
<path d="M67470 37570
L67660 37430
" />
<path d="M67320 37430
L67510 37620
" />
</g>
<g style="fill:#008400; fill-opacity:0.0; 
stroke:#008400; stroke-width:60; stroke-opacity:1; 
stroke-linecap:round; stroke-linejoin:round;">
<path d="M64000 39000
L65000 39000
" />
<path d="M65000 39000
L66000 39000
" />
</g>
<g style="fill:#008400; fill-opacity:0.0; 
stroke:#008400; stroke-width:0; stroke-opacity:1; 
stroke-linecap:round; stroke-linejoin:round;">
</g>
<g style="fill:#008400; fill-opacity:1.0; 
stroke:#008400; stroke-width:100; stroke-opacity:1; 
stroke-linecap:round; stroke-linejoin:round;">
<circle cx="69000" cy="39000" r="200" /> 
</g>
<g style="fill:#008400; fill-opacity:1.0; 
stroke:#008400; stroke-width:0; stroke-opacity:1; 
stroke-linecap:round; stroke-linejoin:round;">
</g>
<g style="fill:#840000; fill-opacity:1.0; 
stroke:#840000; stroke-width:0; stroke-opacity:1; 
stroke-linecap:round; stroke-linejoin:round;">
</g>
<g style="fill:#840000; fill-opacity:0.0; 
stroke:#840000; stroke-width:80; stroke-opacity:1; 
stroke-linecap:round; stroke-linejoin:round;">
<rect x="66300" y="41700" width="1400" height="600" rx="0" />
</g>
<g style="fill:#840000; fill-opacity:0.0; 
stroke:#840000; stroke-width:60; stroke-opacity:1; 
stroke-linecap:round; stroke-linejoin:round;">
<path d="M67700 42000
L68000 42000
" />
<path d="M66300 42000
L66000 42000
" />
</g>
<g style="fill:#008484; fill-opacity:0.0; 
stroke:#008484; stroke-width:60; stroke-opacity:1; 
stroke-linecap:round; stroke-linejoin:round;">
<path d="M67390 42820
L67150 42980
" />
<path d="M67390 43100
L66890 43100
L66890 42910
L66910 42860
L66930 42840
L66980 42820
L67050 42820
L67100 42840
L67120 42860
L67150 42910
L67150 43100
" />
<path d="M67340 42530
L67360 42510
L67390 42530
L67360 42550
L67340 42530
L67390 42530
" />
<path d="M66910 42620
L66890 42580
L66890 42460
L66910 42410
L66960 42390
L67010 42390
L67050 42410
L67080 42430
L67100 42480
L67120 42510
L67170 42530
L67200 42530
" />
<path d="M66790 43280
L66790 43560
" />
<path d="M66790 43420
L66290 43420
L66360 43470
L66410 43520
L66430 43560
" />
<path d="M66290 42970
L66290 42920
L66310 42870
L66330 42850
L66380 42820
L66480 42800
L66600 42800
L66690 42820
L66740 42850
L66760 42870
L66790 42920
L66790 42970
L66760 43010
L66740 43040
L66690 43060
L66600 43080
L66480 43080
L66380 43060
L66330 43040
L66310 43010
L66290 42970
" />
<path d="M66790 42580
L66290 42580
" />
<path d="M66600 42530
L66790 42390
" />
<path d="M66450 42390
L66640 42580
" />
</g>
<g style="fill:#008400; fill-opacity:0.0; 
stroke:#008400; stroke-width:60; stroke-opacity:1; 
stroke-linecap:round; stroke-linejoin:round;">
<path d="M64000 42000
L65000 42000
" />
<path d="M65000 42000
L66000 42000
" />
<path d="M69000 42000
L68000 42000
" />
</g>
<g style="fill:#008400; fill-opacity:0.0; 
stroke:#008400; stroke-width:0; stroke-opacity:1; 
stroke-linecap:round; stroke-linejoin:round;">
</g>
<g style="fill:#008400; fill-opacity:1.0; 
stroke:#008400; stroke-width:100; stroke-opacity:1; 
stroke-linecap:round; stroke-linejoin:round;">
<circle cx="69000" cy="40000" r="200" /> 
</g>
<g style="fill:#008400; fill-opacity:1.0; 
stroke:#008400; stroke-width:60; stroke-opacity:1; 
stroke-linecap:round; stroke-linejoin:round;">
</g>
<g style="fill:#008400; fill-opacity:0.0; 
stroke:#008400; stroke-width:60; stroke-opacity:1; 
stroke-linecap:round; stroke-linejoin:round;">
<path d="M64000 41000
L72000 41000
" />
</g>
<g style="fill:#848400; fill-opacity:0.0; 
stroke:#848400; stroke-width:60; stroke-opacity:1; 
stroke-linecap:round; stroke-linejoin:round;">
<path d="M72900 41270
L72900 40670
L73100 41100
L73300 40670
L73300 41270
" />
<path d="M73710 40670
L73820 40670
L73880 40700
L73940 40760
L73960 40870
L73960 41070
L73940 41190
L73880 41240
L73820 41270
L73710 41270
L73650 41240
L73590 41190
L73560 41070
L73560 40870
L73590 40760
L73650 40700
L73710 40670
" />
<path d="M74140 40670
L74480 40670
" />
<path d="M74310 41270
L74310 40670
" />
<path d="M74680 41040
L75140 41040
" />
</g>
<g style="fill:#848400; fill-opacity:0.0; 
stroke:#848400; stroke-width:100; stroke-opacity:1; 
stroke-linecap:round; stroke-linejoin:round;">
<polyline fill="none;"
points="72000,41000
72300,41300
72600,41300
72600,40700
72300,40700
72000,41000
" /> 
</g>
<g style="fill:#848400; fill-opacity:0.0; 
stroke:#848400; stroke-width:60; stroke-opacity:1; 
stroke-linecap:round; stroke-linejoin:round;">
<path d="M35860 40270
L35860 39670
L36060 40100
L36260 39670
L36260 40270
" />
<path d="M36670 39670
L36780 39670
L36840 39700
L36900 39760
L36920 39870
L36920 40070
L36900 40190
L36840 40240
L36780 40270
L36670 40270
L36610 40240
L36550 40190
L36520 40070
L36520 39870
L36550 39760
L36610 39700
L36670 39670
" />
<path d="M37100 39670
L37440 39670
" />
<path d="M37270 40270
L37270 39670
" />
<path d="M37640 40040
L38100 40040
" />
<path d="M37870 40270
L37870 39810
" />
</g>
<g style="fill:#848400; fill-opacity:0.0; 
stroke:#848400; stroke-width:100; stroke-opacity:1; 
stroke-linecap:round; stroke-linejoin:round;">
<polyline fill="none;"
points="39000,40000
38700,39700
38400,39700
38400,40300
38700,40300
39000,40000
" /> 
</g>
<g style="fill:#848400; fill-opacity:0.0; 
stroke:#848400; stroke-width:60; stroke-opacity:1; 
stroke-linecap:round; stroke-linejoin:round;">
</g>
<g style="fill:#008400; fill-opacity:0.0; 
stroke:#008400; stroke-width:60; stroke-opacity:1; 
stroke-linecap:round; stroke-linejoin:round;">
<path d="M39000 40000
L53000 40000
" />
<path d="M65000 39000
L65000 37000
" />
<path d="M65000 37000
L52000 37000
" />
<path d="M52000 37000
L52000 38000
" />
<path d="M52000 38000
L52000 39000
" />
<path d="M52000 39000
L53000 39000
" />
</g>
<g style="fill:#008400; fill-opacity:0.0; 
stroke:#008400; stroke-width:0; stroke-opacity:1; 
stroke-linecap:round; stroke-linejoin:round;">
</g>
<g style="fill:#008400; fill-opacity:1.0; 
stroke:#008400; stroke-width:100; stroke-opacity:1; 
stroke-linecap:round; stroke-linejoin:round;">
<circle cx="65000" cy="39000" r="200" /> 
</g>
<g style="fill:#008400; fill-opacity:1.0; 
stroke:#008400; stroke-width:60; stroke-opacity:1; 
stroke-linecap:round; stroke-linejoin:round;">
</g>
<g style="fill:#008400; fill-opacity:0.0; 
stroke:#008400; stroke-width:60; stroke-opacity:1; 
stroke-linecap:round; stroke-linejoin:round;">
<path d="M65000 42000
L65000 44000
" />
<path d="M65000 44000
L52000 44000
" />
<path d="M52000 44000
L52000 43000
" />
<path d="M52000 43000
L52000 42000
" />
<path d="M52000 42000
L53000 42000
" />
</g>
<g style="fill:#008400; fill-opacity:0.0; 
stroke:#008400; stroke-width:0; stroke-opacity:1; 
stroke-linecap:round; stroke-linejoin:round;">
</g>
<g style="fill:#008400; fill-opacity:1.0; 
stroke:#008400; stroke-width:100; stroke-opacity:1; 
stroke-linecap:round; stroke-linejoin:round;">
<circle cx="65000" cy="42000" r="200" /> 
</g>
<g style="fill:#008400; fill-opacity:1.0; 
stroke:#008400; stroke-width:0; stroke-opacity:1; 
stroke-linecap:round; stroke-linejoin:round;">
</g>
<g style="fill:#840000; fill-opacity:1.0; 
stroke:#840000; stroke-width:0; stroke-opacity:1; 
stroke-linecap:round; stroke-linejoin:round;">
</g>
<g style="fill:#FFFFC2; fill-opacity:1.0; 
stroke:#FFFFC2; stroke-width:0; stroke-opacity:1; 
stroke-linecap:round; stroke-linejoin:round;">
</g>
<g style="fill:#FFFFC2; fill-opacity:0.6; 
stroke:#FFFFC2; stroke-width:0; stroke-opacity:1; 
stroke-linecap:round; stroke-linejoin:round;">
<rect x="45000" y="41500" width="4000" height="3000" rx="0" />
</g>
<g style="fill:#840000; fill-opacity:0.6; 
stroke:#840000; stroke-width:0; stroke-opacity:1; 
stroke-linecap:round; stroke-linejoin:round;">
</g>
<g style="fill:#840000; fill-opacity:0.0; 
stroke:#840000; stroke-width:100; stroke-opacity:1; 
stroke-linecap:round; stroke-linejoin:round;">
<rect x="45000" y="41500" width="4000" height="3000" rx="0" />
<polyline fill="none;"
points="45500,43250
46000,43250
" /> 
</g>
<g style="fill:#840000; fill-opacity:0.0; 
stroke:#840000; stroke-width:60; stroke-opacity:1; 
stroke-linecap:round; stroke-linejoin:round;">
<polyline fill="none;"
points="48050,43550
48500,44000
" /> 
<polyline fill="none;"
points="48050,43450
48500,43000
" /> 
<polyline fill="none;"
points="48500,44000
49000,44000
" /> 
<polyline fill="none;"
points="48500,43000
49000,43000
" /> 
</g>
<g style="fill:#840000; fill-opacity:0.0; 
stroke:#840000; stroke-width:140; stroke-opacity:1; 
stroke-linecap:round; stroke-linejoin:round;">
<polyline fill="none;"
points="48050,43100
48050,43900
48050,43900
" /> 
</g>
<g style="fill:#840000; fill-opacity:0.0; 
stroke:#840000; stroke-width:60; stroke-opacity:1; 
stroke-linecap:round; stroke-linejoin:round;">
<polyline fill="none;"
points="45000,44000
45750,44000
45750,42000
45000,42000
" /> 
</g>
<g style="fill:#840000; fill-opacity:1.0; 
stroke:#840000; stroke-width:100; stroke-opacity:1; 
stroke-linecap:round; stroke-linejoin:round;">
<polyline style="fill-rule:evenodd;"
points="45750,43250
45500,42750
46000,42750
45750,43250
" /> 
</g>
<g style="fill:#840000; fill-opacity:0.0; 
stroke:#840000; stroke-width:60; stroke-opacity:1; 
stroke-linecap:round; stroke-linejoin:round;">
<polyline fill="none;"
points="46750,42900
46960,42700
46960,42900
47260,42600
" /> 
<polyline fill="none;"
points="47260,42600
47060,42700
47160,42800
47260,42600
" /> 
<polyline fill="none;"
points="48450,43950
48350,43750
48250,43850
48450,43950
" /> 
<polyline fill="none;"
points="49000,42000
47750,42000
47750,43500
48000,43500
" /> 
<polyline fill="none;"
points="46750,43300
46960,43100
46960,43300
47260,43000
47060,43100
47160,43200
47260,43000
" /> 
<path d="M45000 42000
L44000 42000
" />
<path d="M44640 41880
L44360 41880
" />
<path d="M44500 41880
L44500 41380
L44450 41450
L44400 41500
L44360 41520
" />
<path d="M45000 44000
L44000 44000
" />
<path d="M44360 43420
L44380 43400
L44430 43380
L44550 43380
L44590 43400
L44620 43420
L44640 43470
L44640 43520
L44620 43590
L44330 43880
L44640 43880
" />
<path d="M49000 44000
L50000 44000
" />
<path d="M49590 43540
L49590 43880
" />
<path d="M49470 43350
L49360 43710
L49660 43710
" />
<path d="M49000 43000
L50000 43000
" />
<path d="M49620 42380
L49380 42380
L49360 42610
L49380 42590
L49430 42570
L49550 42570
L49590 42590
L49620 42610
L49640 42660
L49640 42780
L49620 42830
L49590 42850
L49550 42880
L49430 42880
L49380 42850
L49360 42830
" />
<path d="M49000 42000
L50000 42000
" />
<path d="M49590 41380
L49500 41380
L49450 41400
L49430 41420
L49380 41500
L49360 41590
L49360 41780
L49380 41830
L49400 41850
L49450 41880
L49550 41880
L49590 41850
L49620 41830
L49640 41780
L49640 41660
L49620 41610
L49590 41590
L49550 41570
L49450 41570
L49400 41590
L49380 41610
L49360 41660
" />
</g>
<g style="fill:#008484; fill-opacity:0.0; 
stroke:#008484; stroke-width:60; stroke-opacity:1; 
stroke-linecap:round; stroke-linejoin:round;">
<path d="M45120 40760
L45120 41160
L45140 41210
L45170 41230
L45210 41260
L45310 41260
L45360 41230
L45380 41210
L45400 41160
L45400 40760
" />
<path d="M45710 41210
L45730 41230
L45710 41260
L45690 41230
L45710 41210
L45710 41260
" />
<path d="M45620 40780
L45660 40760
L45780 40760
L45830 40780
L45850 40830
L45850 40880
L45830 40920
L45810 40950
L45760 40970
L45730 40990
L45710 41040
L45710 41070
" />
<path d="M47330 40920
L47330 41260
" />
<path d="M47210 40730
L47100 41090
L47400 41090
" />
<path d="M47600 41260
L47600 40760
L47880 41260
L47880 40760
" />
<path d="M48100 40800
L48120 40780
L48170 40760
L48290 40760
L48330 40780
L48360 40800
L48380 40850
L48380 40900
L48360 40970
L48070 41260
L48380 41260
" />
<path d="M48840 40760
L48600 40760
L48580 40990
L48600 40970
L48650 40950
L48770 40950
L48810 40970
L48840 40990
L48860 41040
L48860 41160
L48840 41210
L48810 41230
L48770 41260
L48650 41260
L48600 41230
L48580 41210
" />
</g>
<g style="fill:#008400; fill-opacity:0.0; 
stroke:#008400; stroke-width:60; stroke-opacity:1; 
stroke-linecap:round; stroke-linejoin:round;">
<path d="M50000 39000
L51000 39000
" />
</g>
<g style="fill:#008400; fill-opacity:0.0; 
stroke:#008400; stroke-width:0; stroke-opacity:1; 
stroke-linecap:round; stroke-linejoin:round;">
</g>
<g style="fill:#008400; fill-opacity:1.0; 
stroke:#008400; stroke-width:100; stroke-opacity:1; 
stroke-linecap:round; stroke-linejoin:round;">
<circle cx="51000" cy="41000" r="200" /> 
</g>
<g style="fill:#008400; fill-opacity:1.0; 
stroke:#008400; stroke-width:60; stroke-opacity:1; 
stroke-linecap:round; stroke-linejoin:round;">
</g>
<g style="fill:#008400; fill-opacity:0.0; 
stroke:#008400; stroke-width:60; stroke-opacity:1; 
stroke-linecap:round; stroke-linejoin:round;">
<path d="M50000 43000
L52000 43000
" />
</g>
<g style="fill:#008400; fill-opacity:0.0; 
stroke:#008400; stroke-width:0; stroke-opacity:1; 
stroke-linecap:round; stroke-linejoin:round;">
</g>
<g style="fill:#008400; fill-opacity:1.0; 
stroke:#008400; stroke-width:100; stroke-opacity:1; 
stroke-linecap:round; stroke-linejoin:round;">
<circle cx="52000" cy="43000" r="200" /> 
</g>
<g style="fill:#008400; fill-opacity:1.0; 
stroke:#008400; stroke-width:60; stroke-opacity:1; 
stroke-linecap:round; stroke-linejoin:round;">
</g>
<g style="fill:#008400; fill-opacity:0.0; 
stroke:#008400; stroke-width:60; stroke-opacity:1; 
stroke-linecap:round; stroke-linejoin:round;">
<path d="M50000 44000
L51000 44000
" />
</g>
<g style="fill:#008400; fill-opacity:0.0; 
stroke:#008400; stroke-width:0; stroke-opacity:1; 
stroke-linecap:round; stroke-linejoin:round;">
</g>
<g style="fill:#008400; fill-opacity:1.0; 
stroke:#008400; stroke-width:100; stroke-opacity:1; 
stroke-linecap:round; stroke-linejoin:round;">
<circle cx="51000" cy="44000" r="200" /> 
</g>
<g style="fill:#008400; fill-opacity:1.0; 
stroke:#008400; stroke-width:0; stroke-opacity:1; 
stroke-linecap:round; stroke-linejoin:round;">
</g>
<g style="fill:#840000; fill-opacity:1.0; 
stroke:#840000; stroke-width:0; stroke-opacity:1; 
stroke-linecap:round; stroke-linejoin:round;">
</g>
<g style="fill:#840000; fill-opacity:0.0; 
stroke:#840000; stroke-width:80; stroke-opacity:1; 
stroke-linecap:round; stroke-linejoin:round;">
<rect x="40300" y="36700" width="1400" height="600" rx="0" />
</g>
<g style="fill:#840000; fill-opacity:0.0; 
stroke:#840000; stroke-width:60; stroke-opacity:1; 
stroke-linecap:round; stroke-linejoin:round;">
<path d="M40300 37000
L40000 37000
" />
<path d="M41700 37000
L42000 37000
" />
</g>
<g style="fill:#008484; fill-opacity:0.0; 
stroke:#008484; stroke-width:60; stroke-opacity:1; 
stroke-linecap:round; stroke-linejoin:round;">
<path d="M41060 36290
L40820 36450
" />
<path d="M41060 36570
L40560 36570
L40560 36380
L40580 36330
L40600 36310
L40650 36290
L40720 36290
L40770 36310
L40790 36330
L40820 36380
L40820 36570
" />
<path d="M41010 36000
L41030 35980
L41060 36000
L41030 36020
L41010 36000
L41060 36000
" />
<path d="M40580 36090
L40560 36050
L40560 35930
L40580 35880
L40630 35860
L40680 35860
L40720 35880
L40750 35900
L40770 35950
L40790 35980
L40840 36000
L40870 36000
" />
<path d="M41200 36600
L41180 36580
L41160 36530
L41160 36410
L41180 36370
L41200 36340
L41250 36320
L41300 36320
L41370 36340
L41660 36630
L41660 36320
" />
<path d="M41200 36120
L41180 36100
L41160 36050
L41160 35930
L41180 35890
L41200 35860
L41250 35840
L41300 35840
L41370 35860
L41660 36150
L41660 35840
" />
<path d="M41160 35530
L41160 35480
L41180 35430
L41200 35410
L41250 35380
L41350 35360
L41470 35360
L41560 35380
L41610 35410
L41630 35430
L41660 35480
L41660 35530
L41630 35570
L41610 35600
L41560 35620
L41470 35640
L41350 35640
L41250 35620
L41200 35600
L41180 35570
L41160 35530
" />
</g>
<g style="fill:#008400; fill-opacity:0.0; 
stroke:#008400; stroke-width:60; stroke-opacity:1; 
stroke-linecap:round; stroke-linejoin:round;">
<path d="M44000 37000
L42000 37000
" />
</g>
<g style="fill:#008400; fill-opacity:0.0; 
stroke:#008400; stroke-width:0; stroke-opacity:1; 
stroke-linecap:round; stroke-linejoin:round;">
</g>
<g style="fill:#840000; fill-opacity:0.0; 
stroke:#840000; stroke-width:0; stroke-opacity:1; 
stroke-linecap:round; stroke-linejoin:round;">
</g>
<g style="fill:#840000; fill-opacity:0.0; 
stroke:#840000; stroke-width:80; stroke-opacity:1; 
stroke-linecap:round; stroke-linejoin:round;">
<rect x="40300" y="41700" width="1400" height="600" rx="0" />
</g>
<g style="fill:#840000; fill-opacity:0.0; 
stroke:#840000; stroke-width:60; stroke-opacity:1; 
stroke-linecap:round; stroke-linejoin:round;">
<path d="M40300 42000
L40000 42000
" />
<path d="M41700 42000
L42000 42000
" />
</g>
<g style="fill:#008484; fill-opacity:0.0; 
stroke:#008484; stroke-width:60; stroke-opacity:1; 
stroke-linecap:round; stroke-linejoin:round;">
<path d="M41060 41290
L40820 41450
" />
<path d="M41060 41570
L40560 41570
L40560 41380
L40580 41330
L40600 41310
L40650 41290
L40720 41290
L40770 41310
L40790 41330
L40820 41380
L40820 41570
" />
<path d="M41010 41000
L41030 40980
L41060 41000
L41030 41020
L41010 41000
L41060 41000
" />
<path d="M40580 41090
L40560 41050
L40560 40930
L40580 40880
L40630 40860
L40680 40860
L40720 40880
L40750 40900
L40770 40950
L40790 40980
L40840 41000
L40870 41000
" />
<path d="M41200 41600
L41180 41580
L41160 41530
L41160 41410
L41180 41370
L41200 41340
L41250 41320
L41300 41320
L41370 41340
L41660 41630
L41660 41320
" />
<path d="M41200 41120
L41180 41100
L41160 41050
L41160 40930
L41180 40890
L41200 40860
L41250 40840
L41300 40840
L41370 40860
L41660 41150
L41660 40840
" />
<path d="M41160 40530
L41160 40480
L41180 40430
L41200 40410
L41250 40380
L41350 40360
L41470 40360
L41560 40380
L41610 40410
L41630 40430
L41660 40480
L41660 40530
L41630 40570
L41610 40600
L41560 40620
L41470 40640
L41350 40640
L41250 40620
L41200 40600
L41180 40570
L41160 40530
" />
</g>
<g style="fill:#008400; fill-opacity:0.0; 
stroke:#008400; stroke-width:60; stroke-opacity:1; 
stroke-linecap:round; stroke-linejoin:round;">
<path d="M44000 42000
L42000 42000
" />
<path d="M50000 38000
L52000 38000
" />
</g>
<g style="fill:#008400; fill-opacity:0.0; 
stroke:#008400; stroke-width:0; stroke-opacity:1; 
stroke-linecap:round; stroke-linejoin:round;">
</g>
<g style="fill:#008400; fill-opacity:1.0; 
stroke:#008400; stroke-width:100; stroke-opacity:1; 
stroke-linecap:round; stroke-linejoin:round;">
<circle cx="52000" cy="38000" r="200" /> 
</g>
<g style="fill:#008400; fill-opacity:1.0; 
stroke:#008400; stroke-width:60; stroke-opacity:1; 
stroke-linecap:round; stroke-linejoin:round;">
</g>
<g style="fill:#008400; fill-opacity:0.0; 
stroke:#008400; stroke-width:60; stroke-opacity:1; 
stroke-linecap:round; stroke-linejoin:round;">
<path d="M44000 39000
L43000 39000
" />
<path d="M43000 39000
L43000 44000
" />
<path d="M43000 44000
L43000 45000
" />
<path d="M43000 44000
L44000 44000
" />
</g>
<g style="fill:#008400; fill-opacity:0.0; 
stroke:#008400; stroke-width:0; stroke-opacity:1; 
stroke-linecap:round; stroke-linejoin:round;">
</g>
<g style="fill:#840000; fill-opacity:0.0; 
stroke:#840000; stroke-width:0; stroke-opacity:1; 
stroke-linecap:round; stroke-linejoin:round;">
</g>
<g style="fill:#840000; fill-opacity:0.0; 
stroke:#840000; stroke-width:60; stroke-opacity:1; 
stroke-linecap:round; stroke-linejoin:round;">
<polyline fill="none;"
points="43000,45000
43000,45500
43500,45500
43000,46000
42500,45500
43000,45500
" /> 
</g>
<g style="fill:#008484; fill-opacity:0.0; 
stroke:#008484; stroke-width:60; stroke-opacity:1; 
stroke-linecap:round; stroke-linejoin:round;">
<path d="M42620 46280
L42570 46260
L42500 46260
L42430 46280
L42380 46330
L42360 46380
L42340 46470
L42340 46540
L42360 46640
L42380 46680
L42430 46730
L42500 46760
L42550 46760
L42620 46730
L42640 46710
L42640 46540
L42550 46540
" />
<path d="M42860 46760
L42860 46260
L43140 46760
L43140 46260
" />
<path d="M43380 46760
L43380 46260
L43500 46260
L43570 46280
L43620 46330
L43640 46380
L43660 46470
L43660 46540
L43640 46640
L43620 46680
L43570 46730
L43500 46760
L43380 46760
" />
</g>
<g style="fill:#008484; fill-opacity:0.0; 
stroke:#008484; stroke-width:0; stroke-opacity:1; 
stroke-linecap:round; stroke-linejoin:round;">
</g>
<g style="fill:#008400; fill-opacity:0.0; 
stroke:#008400; stroke-width:0; stroke-opacity:1; 
stroke-linecap:round; stroke-linejoin:round;">
</g>
<g style="fill:#008400; fill-opacity:1.0; 
stroke:#008400; stroke-width:100; stroke-opacity:1; 
stroke-linecap:round; stroke-linejoin:round;">
<circle cx="43000" cy="44000" r="200" /> 
</g>
<g style="fill:#008400; fill-opacity:1.0; 
stroke:#008400; stroke-width:60; stroke-opacity:1; 
stroke-linecap:round; stroke-linejoin:round;">
</g>
<g style="fill:#008400; fill-opacity:0.0; 
stroke:#008400; stroke-width:60; stroke-opacity:1; 
stroke-linecap:round; stroke-linejoin:round;">
<path d="M40000 37000
L39000 37000
" />
<path d="M40000 42000
L39000 42000
" />
</g>
<g style="fill:#848400; fill-opacity:0.0; 
stroke:#848400; stroke-width:60; stroke-opacity:1; 
stroke-linecap:round; stroke-linejoin:round;">
<path d="M35430 37270
L35430 36670
L35660 36670
L35720 36700
L35750 36730
L35780 36790
L35780 36870
L35750 36930
L35720 36960
L35660 36990
L35430 36990
" />
<path d="M35980 36670
L36120 37270
L36230 36840
L36350 37270
L36490 36670
" />
<path d="M36720 37270
L36720 36670
L36920 37100
L37120 36670
L37120 37270
" />
<path d="M37270 37330
L37730 37330
" />
<path d="M37840 37100
L38130 37100
" />
<path d="M37790 37270
L37990 36670
L38190 37270
" />
</g>
<g style="fill:#848400; fill-opacity:0.0; 
stroke:#848400; stroke-width:100; stroke-opacity:1; 
stroke-linecap:round; stroke-linejoin:round;">
<polyline fill="none;"
points="39000,37000
38700,36700
38400,36700
38400,37300
38700,37300
39000,37000
" /> 
</g>
<g style="fill:#848400; fill-opacity:0.0; 
stroke:#848400; stroke-width:60; stroke-opacity:1; 
stroke-linecap:round; stroke-linejoin:round;">
<path d="M35340 42270
L35340 41670
L35570 41670
L35630 41700
L35660 41730
L35690 41790
L35690 41870
L35660 41930
L35630 41960
L35570 41990
L35340 41990
" />
<path d="M35890 41670
L36030 42270
L36140 41840
L36260 42270
L36400 41670
" />
<path d="M36630 42270
L36630 41670
L36830 42100
L37030 41670
L37030 42270
" />
<path d="M37180 42330
L37640 42330
" />
<path d="M37980 41960
L38070 41990
L38100 42010
L38130 42070
L38130 42160
L38100 42210
L38070 42240
L38010 42270
L37780 42270
L37780 41670
L37980 41670
L38040 41700
L38070 41730
L38100 41790
L38100 41840
L38070 41900
L38040 41930
L37980 41960
L37780 41960
" />
</g>
<g style="fill:#848400; fill-opacity:0.0; 
stroke:#848400; stroke-width:100; stroke-opacity:1; 
stroke-linecap:round; stroke-linejoin:round;">
<polyline fill="none;"
points="39000,42000
38700,41700
38400,41700
38400,42300
38700,42300
39000,42000
" /> 
</g>
<g style="fill:#848400; fill-opacity:0.0; 
stroke:#848400; stroke-width:0; stroke-opacity:1; 
stroke-linecap:round; stroke-linejoin:round;">
</g>
<g style="fill:#840000; fill-opacity:0.0; 
stroke:#840000; stroke-width:0; stroke-opacity:1; 
stroke-linecap:round; stroke-linejoin:round;">
</g>
<g style="fill:#840000; fill-opacity:0.0; 
stroke:#840000; stroke-width:60; stroke-opacity:1; 
stroke-linecap:round; stroke-linejoin:round;">
<polyline fill="none;"
points="70000,45000
70000,45500
70500,45500
70000,46000
69500,45500
70000,45500
" /> 
</g>
<g style="fill:#008484; fill-opacity:0.0; 
stroke:#008484; stroke-width:60; stroke-opacity:1; 
stroke-linecap:round; stroke-linejoin:round;">
<path d="M69620 46280
L69570 46260
L69500 46260
L69430 46280
L69380 46330
L69360 46380
L69340 46470
L69340 46540
L69360 46640
L69380 46680
L69430 46730
L69500 46760
L69550 46760
L69620 46730
L69640 46710
L69640 46540
L69550 46540
" />
<path d="M69860 46760
L69860 46260
L70140 46760
L70140 46260
" />
<path d="M70380 46760
L70380 46260
L70500 46260
L70570 46280
L70620 46330
L70640 46380
L70660 46470
L70660 46540
L70640 46640
L70620 46680
L70570 46730
L70500 46760
L70380 46760
" />
</g>
<g style="fill:#008400; fill-opacity:0.0; 
stroke:#008400; stroke-width:60; stroke-opacity:1; 
stroke-linecap:round; stroke-linejoin:round;">
<path d="M68000 39000
L69000 39000
" />
<path d="M69000 39000
L70000 39000
" />
<path d="M70000 39000
L72000 39000
" />
<path d="M70000 39000
L70000 41500
" />
</g>
<g style="fill:#008400; fill-opacity:0.0; 
stroke:#008400; stroke-width:0; stroke-opacity:1; 
stroke-linecap:round; stroke-linejoin:round;">
</g>
<g style="fill:#008400; fill-opacity:1.0; 
stroke:#008400; stroke-width:100; stroke-opacity:1; 
stroke-linecap:round; stroke-linejoin:round;">
<circle cx="70000" cy="39000" r="200" /> 
</g>
<g style="fill:#008400; fill-opacity:1.0; 
stroke:#008400; stroke-width:60; stroke-opacity:1; 
stroke-linecap:round; stroke-linejoin:round;">
</g>
<g style="fill:#848400; fill-opacity:0.0; 
stroke:#848400; stroke-width:60; stroke-opacity:1; 
stroke-linecap:round; stroke-linejoin:round;">
<path d="M72820 38670
L73020 39270
L73220 38670
" />
<path d="M73410 39270
L73410 38670
L73610 39100
L73810 38670
L73810 39270
" />
<path d="M74220 38670
L74330 38670
L74390 38700
L74450 38760
L74470 38870
L74470 39070
L74450 39190
L74390 39240
L74330 39270
L74220 39270
L74160 39240
L74100 39190
L74070 39070
L74070 38870
L74100 38760
L74160 38700
L74220 38670
" />
<path d="M74650 38670
L74990 38670
" />
<path d="M74820 39270
L74820 38670
" />
</g>
<g style="fill:#848400; fill-opacity:0.0; 
stroke:#848400; stroke-width:100; stroke-opacity:1; 
stroke-linecap:round; stroke-linejoin:round;">
<polyline fill="none;"
points="72000,39000
72300,39300
72600,39300
72600,38700
72300,38700
72000,39000
" /> 
</g>
<g style="fill:#848400; fill-opacity:0.0; 
stroke:#848400; stroke-width:0; stroke-opacity:1; 
stroke-linecap:round; stroke-linejoin:round;">
</g>
<g style="fill:#840000; fill-opacity:0.0; 
stroke:#840000; stroke-width:0; stroke-opacity:1; 
stroke-linecap:round; stroke-linejoin:round;">
</g>
<g style="fill:#840000; fill-opacity:1.0; 
stroke:#840000; stroke-width:60; stroke-opacity:1; 
stroke-linecap:round; stroke-linejoin:round;">
<rect x="69400" y="42620" width="1200" height="150" rx="0" />
</g>
<g style="fill:#840000; fill-opacity:0.0; 
stroke:#840000; stroke-width:60; stroke-opacity:1; 
stroke-linecap:round; stroke-linejoin:round;">
<rect x="69400" y="42230" width="1200" height="150" rx="0" />
<polyline fill="none;"
points="69500,41900
69700,41900
" /> 
<polyline fill="none;"
points="69600,42000
69600,41800
" /> 
<path d="M70000 42230
L70000 41500
" />
<path d="M70000 42770
L70000 43500
" />
</g>
<g style="fill:#008484; fill-opacity:0.0; 
stroke:#008484; stroke-width:60; stroke-opacity:1; 
stroke-linecap:round; stroke-linejoin:round;">
<path d="M70500 42010
L70480 42030
L70410 42060
L70360 42060
L70290 42030
L70240 41980
L70220 41940
L70200 41840
L70200 41770
L70220 41680
L70240 41630
L70290 41580
L70360 41560
L70410 41560
L70480 41580
L70500 41600
" />
<path d="M70790 42010
L70810 42030
L70790 42060
L70770 42030
L70790 42010
L70790 42060
" />
<path d="M70700 41580
L70740 41560
L70860 41560
L70910 41580
L70930 41630
L70930 41680
L70910 41720
L70890 41750
L70840 41770
L70810 41790
L70790 41840
L70790 41870
" />
<path d="M70200 43100
L70220 43080
L70270 43060
L70390 43060
L70430 43080
L70460 43100
L70480 43150
L70480 43200
L70460 43270
L70170 43560
L70480 43560
" />
<path d="M70680 43100
L70700 43080
L70750 43060
L70870 43060
L70910 43080
L70940 43100
L70960 43150
L70960 43200
L70940 43270
L70650 43560
L70960 43560
" />
<path d="M71270 43060
L71320 43060
L71370 43080
L71390 43100
L71420 43150
L71440 43250
L71440 43370
L71420 43460
L71390 43510
L71370 43530
L71320 43560
L71270 43560
L71230 43530
L71200 43510
L71180 43460
L71160 43370
L71160 43250
L71180 43150
L71200 43100
L71230 43080
L71270 43060
" />
<path d="M71870 43220
L71870 43560
" />
<path d="M71660 43220
L71660 43480
L71680 43530
L71730 43560
L71800 43560
L71850 43530
L71870 43510
" />
</g>
<g style="fill:#008400; fill-opacity:0.0; 
stroke:#008400; stroke-width:60; stroke-opacity:1; 
stroke-linecap:round; stroke-linejoin:round;">
<path d="M70000 45000
L70000 44000
" />
<path d="M70000 44000
L70000 43500
" />
<path d="M70000 44000
L72000 44000
" />
</g>
<g style="fill:#008400; fill-opacity:0.0; 
stroke:#008400; stroke-width:0; stroke-opacity:1; 
stroke-linecap:round; stroke-linejoin:round;">
</g>
<g style="fill:#008400; fill-opacity:1.0; 
stroke:#008400; stroke-width:100; stroke-opacity:1; 
stroke-linecap:round; stroke-linejoin:round;">
<circle cx="70000" cy="44000" r="200" /> 
</g>
<g style="fill:#008400; fill-opacity:1.0; 
stroke:#008400; stroke-width:60; stroke-opacity:1; 
stroke-linecap:round; stroke-linejoin:round;">
</g>
<g style="fill:#848400; fill-opacity:0.0; 
stroke:#848400; stroke-width:60; stroke-opacity:1; 
stroke-linecap:round; stroke-linejoin:round;">
<path d="M73220 43700
L73160 43670
L73070 43670
L72990 43700
L72930 43760
L72900 43810
L72870 43930
L72870 44010
L72900 44130
L72930 44190
L72990 44240
L73070 44270
L73130 44270
L73220 44240
L73250 44210
L73250 44010
L73130 44010
" />
<path d="M73500 44270
L73500 43670
L73850 44270
L73850 43670
" />
<path d="M74130 44270
L74130 43670
L74280 43670
L74360 43700
L74420 43760
L74450 43810
L74480 43930
L74480 44010
L74450 44130
L74420 44190
L74360 44240
L74280 44270
L74130 44270
" />
</g>
<g style="fill:#848400; fill-opacity:0.0; 
stroke:#848400; stroke-width:100; stroke-opacity:1; 
stroke-linecap:round; stroke-linejoin:round;">
<polyline fill="none;"
points="72000,44000
72300,44300
72600,44300
72600,43700
72300,43700
72000,44000
" /> 
</g> 
</svg>
