<?xml version="1.0" standalone="no"?>
 <!DOCTYPE svg PUBLIC "-//W3C//DTD SVG 1.1//EN" 
 "http://www.w3.org/Graphics/SVG/1.1/DTD/svg11.dtd"> 
<svg xmlns="http://www.w3.org/2000/svg" version="1.1" 
    width="29.7002cm" height="21.0007cm" viewBox="0 0 116930 82680 ">
<title>SVG Picture created as power.sch.svg date 2017/02/24 23:10:14 </title>
  <desc>Picture generated by Eeschema-SVG </desc>
<g style="fill:#000000; fill-opacity:1;stroke:#000000; stroke-opacity:1;
stroke-linecap:round; stroke-linejoin:round; "
 transform="translate(0 0) scale(1 1)">
</g>
<g style="fill:#000000; fill-opacity:0.0; 
stroke:#000000; stroke-width:-10; stroke-opacity:1; 
stroke-linecap:round; stroke-linejoin:round;">
</g>
<g style="fill:#840000; fill-opacity:0.0; 
stroke:#840000; stroke-width:-10; stroke-opacity:1; 
stroke-linecap:round; stroke-linejoin:round;">
</g>
<g style="fill:#840000; fill-opacity:0.0; 
stroke:#840000; stroke-width:100; stroke-opacity:1; 
stroke-linecap:round; stroke-linejoin:round;">
</g>
<g style="fill:#840000; fill-opacity:0.0; 
stroke:#840000; stroke-width:60; stroke-opacity:1; 
stroke-linecap:round; stroke-linejoin:round;">
<rect x="69690" y="65360" width="42520" height="12600" rx="0" />
</g>
<g style="fill:#840000; fill-opacity:0.0; 
stroke:#840000; stroke-width:100; stroke-opacity:1; 
stroke-linecap:round; stroke-linejoin:round;">
</g>
<g style="fill:#840000; fill-opacity:0.0; 
stroke:#840000; stroke-width:60; stroke-opacity:1; 
stroke-linecap:round; stroke-linejoin:round;">
<rect x="3940" y="3940" width="109050" height="74800" rx="0" />
</g>
<g style="fill:#840000; fill-opacity:0.0; 
stroke:#840000; stroke-width:100; stroke-opacity:1; 
stroke-linecap:round; stroke-linejoin:round;">
</g>
<g style="fill:#840000; fill-opacity:0.0; 
stroke:#840000; stroke-width:60; stroke-opacity:1; 
stroke-linecap:round; stroke-linejoin:round;">
<rect x="4720" y="4720" width="107490" height="73240" rx="0" />
</g>
<g style="fill:#840000; fill-opacity:0.0; 
stroke:#840000; stroke-width:100; stroke-opacity:1; 
stroke-linecap:round; stroke-linejoin:round;">
</g>
<g style="fill:#840000; fill-opacity:0.0; 
stroke:#840000; stroke-width:60; stroke-opacity:1; 
stroke-linecap:round; stroke-linejoin:round;">
<path d="M23620 4720
L23620 3940
" />
</g>
<g style="fill:#840000; fill-opacity:0.0; 
stroke:#840000; stroke-width:100; stroke-opacity:1; 
stroke-linecap:round; stroke-linejoin:round;">
</g>
<g style="fill:#840000; fill-opacity:0.0; 
stroke:#840000; stroke-width:60; stroke-opacity:1; 
stroke-linecap:round; stroke-linejoin:round;">
<path d="M43310 4720
L43310 3940
" />
</g>
<g style="fill:#840000; fill-opacity:0.0; 
stroke:#840000; stroke-width:100; stroke-opacity:1; 
stroke-linecap:round; stroke-linejoin:round;">
</g>
<g style="fill:#840000; fill-opacity:0.0; 
stroke:#840000; stroke-width:60; stroke-opacity:1; 
stroke-linecap:round; stroke-linejoin:round;">
<path d="M62990 4720
L62990 3940
" />
</g>
<g style="fill:#840000; fill-opacity:0.0; 
stroke:#840000; stroke-width:100; stroke-opacity:1; 
stroke-linecap:round; stroke-linejoin:round;">
</g>
<g style="fill:#840000; fill-opacity:0.0; 
stroke:#840000; stroke-width:60; stroke-opacity:1; 
stroke-linecap:round; stroke-linejoin:round;">
<path d="M82680 4720
L82680 3940
" />
</g>
<g style="fill:#840000; fill-opacity:0.0; 
stroke:#840000; stroke-width:100; stroke-opacity:1; 
stroke-linecap:round; stroke-linejoin:round;">
</g>
<g style="fill:#840000; fill-opacity:0.0; 
stroke:#840000; stroke-width:60; stroke-opacity:1; 
stroke-linecap:round; stroke-linejoin:round;">
<path d="M102360 4720
L102360 3940
" />
</g>
<g style="fill:#840000; fill-opacity:0.0; 
stroke:#840000; stroke-width:100; stroke-opacity:1; 
stroke-linecap:round; stroke-linejoin:round;">
</g>
<g style="fill:#840000; fill-opacity:0.0; 
stroke:#840000; stroke-width:60; stroke-opacity:1; 
stroke-linecap:round; stroke-linejoin:round;">
<path d="M14170 4560
L13880 4560
" />
<path d="M14020 4560
L14020 4050
L13970 4120
L13930 4170
L13880 4190
" />
</g>
<g style="fill:#840000; fill-opacity:0.0; 
stroke:#840000; stroke-width:100; stroke-opacity:1; 
stroke-linecap:round; stroke-linejoin:round;">
</g>
<g style="fill:#840000; fill-opacity:0.0; 
stroke:#840000; stroke-width:60; stroke-opacity:1; 
stroke-linecap:round; stroke-linejoin:round;">
<path d="M33560 4090
L33580 4070
L33630 4050
L33750 4050
L33800 4070
L33820 4090
L33850 4140
L33850 4190
L33820 4260
L33530 4560
L33850 4560
" />
</g>
<g style="fill:#840000; fill-opacity:0.0; 
stroke:#840000; stroke-width:100; stroke-opacity:1; 
stroke-linecap:round; stroke-linejoin:round;">
</g>
<g style="fill:#840000; fill-opacity:0.0; 
stroke:#840000; stroke-width:60; stroke-opacity:1; 
stroke-linecap:round; stroke-linejoin:round;">
<path d="M53220 4050
L53540 4050
L53370 4240
L53440 4240
L53490 4260
L53510 4290
L53540 4340
L53540 4460
L53510 4510
L53490 4530
L53440 4560
L53300 4560
L53250 4530
L53220 4510
" />
</g>
<g style="fill:#840000; fill-opacity:0.0; 
stroke:#840000; stroke-width:100; stroke-opacity:1; 
stroke-linecap:round; stroke-linejoin:round;">
</g>
<g style="fill:#840000; fill-opacity:0.0; 
stroke:#840000; stroke-width:60; stroke-opacity:1; 
stroke-linecap:round; stroke-linejoin:round;">
<path d="M73170 4220
L73170 4560
" />
<path d="M73050 4020
L72930 4390
L73240 4390
" />
</g>
<g style="fill:#840000; fill-opacity:0.0; 
stroke:#840000; stroke-width:100; stroke-opacity:1; 
stroke-linecap:round; stroke-linejoin:round;">
</g>
<g style="fill:#840000; fill-opacity:0.0; 
stroke:#840000; stroke-width:60; stroke-opacity:1; 
stroke-linecap:round; stroke-linejoin:round;">
<path d="M92880 4050
L92640 4050
L92620 4290
L92640 4260
L92690 4240
L92810 4240
L92860 4260
L92880 4290
L92910 4340
L92910 4460
L92880 4510
L92860 4530
L92810 4560
L92690 4560
L92640 4530
L92620 4510
" />
</g>
<g style="fill:#840000; fill-opacity:0.0; 
stroke:#840000; stroke-width:100; stroke-opacity:1; 
stroke-linecap:round; stroke-linejoin:round;">
</g>
<g style="fill:#840000; fill-opacity:0.0; 
stroke:#840000; stroke-width:60; stroke-opacity:1; 
stroke-linecap:round; stroke-linejoin:round;">
<path d="M112540 4050
L112440 4050
L112390 4070
L112370 4090
L112320 4170
L112300 4260
L112300 4460
L112320 4510
L112350 4530
L112390 4560
L112490 4560
L112540 4530
L112560 4510
L112590 4460
L112590 4340
L112560 4290
L112540 4260
L112490 4240
L112390 4240
L112350 4260
L112320 4290
L112300 4340
" />
</g>
<g style="fill:#840000; fill-opacity:0.0; 
stroke:#840000; stroke-width:100; stroke-opacity:1; 
stroke-linecap:round; stroke-linejoin:round;">
</g>
<g style="fill:#840000; fill-opacity:0.0; 
stroke:#840000; stroke-width:60; stroke-opacity:1; 
stroke-linecap:round; stroke-linejoin:round;">
<path d="M23620 77960
L23620 78740
" />
</g>
<g style="fill:#840000; fill-opacity:0.0; 
stroke:#840000; stroke-width:100; stroke-opacity:1; 
stroke-linecap:round; stroke-linejoin:round;">
</g>
<g style="fill:#840000; fill-opacity:0.0; 
stroke:#840000; stroke-width:60; stroke-opacity:1; 
stroke-linecap:round; stroke-linejoin:round;">
<path d="M43310 77960
L43310 78740
" />
</g>
<g style="fill:#840000; fill-opacity:0.0; 
stroke:#840000; stroke-width:100; stroke-opacity:1; 
stroke-linecap:round; stroke-linejoin:round;">
</g>
<g style="fill:#840000; fill-opacity:0.0; 
stroke:#840000; stroke-width:60; stroke-opacity:1; 
stroke-linecap:round; stroke-linejoin:round;">
<path d="M62990 77960
L62990 78740
" />
</g>
<g style="fill:#840000; fill-opacity:0.0; 
stroke:#840000; stroke-width:100; stroke-opacity:1; 
stroke-linecap:round; stroke-linejoin:round;">
</g>
<g style="fill:#840000; fill-opacity:0.0; 
stroke:#840000; stroke-width:60; stroke-opacity:1; 
stroke-linecap:round; stroke-linejoin:round;">
<path d="M82680 77960
L82680 78740
" />
</g>
<g style="fill:#840000; fill-opacity:0.0; 
stroke:#840000; stroke-width:100; stroke-opacity:1; 
stroke-linecap:round; stroke-linejoin:round;">
</g>
<g style="fill:#840000; fill-opacity:0.0; 
stroke:#840000; stroke-width:60; stroke-opacity:1; 
stroke-linecap:round; stroke-linejoin:round;">
<path d="M102360 77960
L102360 78740
" />
</g>
<g style="fill:#840000; fill-opacity:0.0; 
stroke:#840000; stroke-width:100; stroke-opacity:1; 
stroke-linecap:round; stroke-linejoin:round;">
</g>
<g style="fill:#840000; fill-opacity:0.0; 
stroke:#840000; stroke-width:60; stroke-opacity:1; 
stroke-linecap:round; stroke-linejoin:round;">
<path d="M14170 78580
L13880 78580
" />
<path d="M14020 78580
L14020 78070
L13970 78140
L13930 78190
L13880 78210
" />
</g>
<g style="fill:#840000; fill-opacity:0.0; 
stroke:#840000; stroke-width:100; stroke-opacity:1; 
stroke-linecap:round; stroke-linejoin:round;">
</g>
<g style="fill:#840000; fill-opacity:0.0; 
stroke:#840000; stroke-width:60; stroke-opacity:1; 
stroke-linecap:round; stroke-linejoin:round;">
<path d="M33560 78110
L33580 78090
L33630 78070
L33750 78070
L33800 78090
L33820 78110
L33850 78160
L33850 78210
L33820 78280
L33530 78580
L33850 78580
" />
</g>
<g style="fill:#840000; fill-opacity:0.0; 
stroke:#840000; stroke-width:100; stroke-opacity:1; 
stroke-linecap:round; stroke-linejoin:round;">
</g>
<g style="fill:#840000; fill-opacity:0.0; 
stroke:#840000; stroke-width:60; stroke-opacity:1; 
stroke-linecap:round; stroke-linejoin:round;">
<path d="M53220 78070
L53540 78070
L53370 78260
L53440 78260
L53490 78280
L53510 78310
L53540 78360
L53540 78480
L53510 78530
L53490 78550
L53440 78580
L53300 78580
L53250 78550
L53220 78530
" />
</g>
<g style="fill:#840000; fill-opacity:0.0; 
stroke:#840000; stroke-width:100; stroke-opacity:1; 
stroke-linecap:round; stroke-linejoin:round;">
</g>
<g style="fill:#840000; fill-opacity:0.0; 
stroke:#840000; stroke-width:60; stroke-opacity:1; 
stroke-linecap:round; stroke-linejoin:round;">
<path d="M73170 78240
L73170 78580
" />
<path d="M73050 78040
L72930 78410
L73240 78410
" />
</g>
<g style="fill:#840000; fill-opacity:0.0; 
stroke:#840000; stroke-width:100; stroke-opacity:1; 
stroke-linecap:round; stroke-linejoin:round;">
</g>
<g style="fill:#840000; fill-opacity:0.0; 
stroke:#840000; stroke-width:60; stroke-opacity:1; 
stroke-linecap:round; stroke-linejoin:round;">
<path d="M92880 78070
L92640 78070
L92620 78310
L92640 78280
L92690 78260
L92810 78260
L92860 78280
L92880 78310
L92910 78360
L92910 78480
L92880 78530
L92860 78550
L92810 78580
L92690 78580
L92640 78550
L92620 78530
" />
</g>
<g style="fill:#840000; fill-opacity:0.0; 
stroke:#840000; stroke-width:100; stroke-opacity:1; 
stroke-linecap:round; stroke-linejoin:round;">
</g>
<g style="fill:#840000; fill-opacity:0.0; 
stroke:#840000; stroke-width:60; stroke-opacity:1; 
stroke-linecap:round; stroke-linejoin:round;">
<path d="M112540 78070
L112440 78070
L112390 78090
L112370 78110
L112320 78190
L112300 78280
L112300 78480
L112320 78530
L112350 78550
L112390 78580
L112490 78580
L112540 78550
L112560 78530
L112590 78480
L112590 78360
L112560 78310
L112540 78280
L112490 78260
L112390 78260
L112350 78280
L112320 78310
L112300 78360
" />
</g>
<g style="fill:#840000; fill-opacity:0.0; 
stroke:#840000; stroke-width:100; stroke-opacity:1; 
stroke-linecap:round; stroke-linejoin:round;">
</g>
<g style="fill:#840000; fill-opacity:0.0; 
stroke:#840000; stroke-width:60; stroke-opacity:1; 
stroke-linecap:round; stroke-linejoin:round;">
<path d="M3940 23620
L4720 23620
" />
</g>
<g style="fill:#840000; fill-opacity:0.0; 
stroke:#840000; stroke-width:100; stroke-opacity:1; 
stroke-linecap:round; stroke-linejoin:round;">
</g>
<g style="fill:#840000; fill-opacity:0.0; 
stroke:#840000; stroke-width:60; stroke-opacity:1; 
stroke-linecap:round; stroke-linejoin:round;">
<path d="M3940 43310
L4720 43310
" />
</g>
<g style="fill:#840000; fill-opacity:0.0; 
stroke:#840000; stroke-width:100; stroke-opacity:1; 
stroke-linecap:round; stroke-linejoin:round;">
</g>
<g style="fill:#840000; fill-opacity:0.0; 
stroke:#840000; stroke-width:60; stroke-opacity:1; 
stroke-linecap:round; stroke-linejoin:round;">
<path d="M3940 62990
L4720 62990
" />
</g>
<g style="fill:#840000; fill-opacity:0.0; 
stroke:#840000; stroke-width:100; stroke-opacity:1; 
stroke-linecap:round; stroke-linejoin:round;">
</g>
<g style="fill:#840000; fill-opacity:0.0; 
stroke:#840000; stroke-width:60; stroke-opacity:1; 
stroke-linecap:round; stroke-linejoin:round;">
<path d="M4210 13860
L4450 13860
" />
<path d="M4160 14010
L4330 13500
L4500 14010
" />
</g>
<g style="fill:#840000; fill-opacity:0.0; 
stroke:#840000; stroke-width:100; stroke-opacity:1; 
stroke-linecap:round; stroke-linejoin:round;">
</g>
<g style="fill:#840000; fill-opacity:0.0; 
stroke:#840000; stroke-width:60; stroke-opacity:1; 
stroke-linecap:round; stroke-linejoin:round;">
<path d="M4370 33420
L4440 33440
L4470 33470
L4490 33520
L4490 33590
L4470 33640
L4440 33660
L4400 33690
L4200 33690
L4200 33180
L4370 33180
L4420 33200
L4440 33220
L4470 33270
L4470 33320
L4440 33370
L4420 33390
L4370 33420
L4200 33420
" />
</g>
<g style="fill:#840000; fill-opacity:0.0; 
stroke:#840000; stroke-width:100; stroke-opacity:1; 
stroke-linecap:round; stroke-linejoin:round;">
</g>
<g style="fill:#840000; fill-opacity:0.0; 
stroke:#840000; stroke-width:60; stroke-opacity:1; 
stroke-linecap:round; stroke-linejoin:round;">
<path d="M4490 53330
L4470 53350
L4400 53380
L4350 53380
L4270 53350
L4230 53300
L4200 53250
L4180 53160
L4180 53080
L4200 52990
L4230 52940
L4270 52890
L4350 52870
L4400 52870
L4470 52890
L4490 52910
" />
</g>
<g style="fill:#840000; fill-opacity:0.0; 
stroke:#840000; stroke-width:100; stroke-opacity:1; 
stroke-linecap:round; stroke-linejoin:round;">
</g>
<g style="fill:#840000; fill-opacity:0.0; 
stroke:#840000; stroke-width:60; stroke-opacity:1; 
stroke-linecap:round; stroke-linejoin:round;">
<path d="M4200 73060
L4200 72550
L4320 72550
L4400 72570
L4440 72620
L4470 72670
L4490 72760
L4490 72840
L4470 72930
L4440 72980
L4400 73030
L4320 73060
L4200 73060
" />
</g>
<g style="fill:#840000; fill-opacity:0.0; 
stroke:#840000; stroke-width:100; stroke-opacity:1; 
stroke-linecap:round; stroke-linejoin:round;">
</g>
<g style="fill:#840000; fill-opacity:0.0; 
stroke:#840000; stroke-width:60; stroke-opacity:1; 
stroke-linecap:round; stroke-linejoin:round;">
<path d="M112990 23620
L112210 23620
" />
</g>
<g style="fill:#840000; fill-opacity:0.0; 
stroke:#840000; stroke-width:100; stroke-opacity:1; 
stroke-linecap:round; stroke-linejoin:round;">
</g>
<g style="fill:#840000; fill-opacity:0.0; 
stroke:#840000; stroke-width:60; stroke-opacity:1; 
stroke-linecap:round; stroke-linejoin:round;">
<path d="M112990 43310
L112210 43310
" />
</g>
<g style="fill:#840000; fill-opacity:0.0; 
stroke:#840000; stroke-width:100; stroke-opacity:1; 
stroke-linecap:round; stroke-linejoin:round;">
</g>
<g style="fill:#840000; fill-opacity:0.0; 
stroke:#840000; stroke-width:60; stroke-opacity:1; 
stroke-linecap:round; stroke-linejoin:round;">
<path d="M112990 62990
L112210 62990
" />
</g>
<g style="fill:#840000; fill-opacity:0.0; 
stroke:#840000; stroke-width:100; stroke-opacity:1; 
stroke-linecap:round; stroke-linejoin:round;">
</g>
<g style="fill:#840000; fill-opacity:0.0; 
stroke:#840000; stroke-width:60; stroke-opacity:1; 
stroke-linecap:round; stroke-linejoin:round;">
<path d="M112480 13860
L112720 13860
" />
<path d="M112430 14010
L112600 13500
L112770 14010
" />
</g>
<g style="fill:#840000; fill-opacity:0.0; 
stroke:#840000; stroke-width:100; stroke-opacity:1; 
stroke-linecap:round; stroke-linejoin:round;">
</g>
<g style="fill:#840000; fill-opacity:0.0; 
stroke:#840000; stroke-width:60; stroke-opacity:1; 
stroke-linecap:round; stroke-linejoin:round;">
<path d="M112640 33420
L112710 33440
L112740 33470
L112760 33520
L112760 33590
L112740 33640
L112710 33660
L112670 33690
L112470 33690
L112470 33180
L112640 33180
L112690 33200
L112710 33220
L112740 33270
L112740 33320
L112710 33370
L112690 33390
L112640 33420
L112470 33420
" />
</g>
<g style="fill:#840000; fill-opacity:0.0; 
stroke:#840000; stroke-width:100; stroke-opacity:1; 
stroke-linecap:round; stroke-linejoin:round;">
</g>
<g style="fill:#840000; fill-opacity:0.0; 
stroke:#840000; stroke-width:60; stroke-opacity:1; 
stroke-linecap:round; stroke-linejoin:round;">
<path d="M112760 53330
L112740 53350
L112670 53380
L112620 53380
L112540 53350
L112500 53300
L112470 53250
L112450 53160
L112450 53080
L112470 52990
L112500 52940
L112540 52890
L112620 52870
L112670 52870
L112740 52890
L112760 52910
" />
</g>
<g style="fill:#840000; fill-opacity:0.0; 
stroke:#840000; stroke-width:100; stroke-opacity:1; 
stroke-linecap:round; stroke-linejoin:round;">
</g>
<g style="fill:#840000; fill-opacity:0.0; 
stroke:#840000; stroke-width:60; stroke-opacity:1; 
stroke-linecap:round; stroke-linejoin:round;">
<path d="M112470 73060
L112470 72550
L112590 72550
L112670 72570
L112710 72620
L112740 72670
L112760 72760
L112760 72840
L112740 72930
L112710 72980
L112670 73030
L112590 73060
L112470 73060
" />
</g>
<g style="fill:#840000; fill-opacity:0.0; 
stroke:#840000; stroke-width:100; stroke-opacity:1; 
stroke-linecap:round; stroke-linejoin:round;">
</g>
<g style="fill:#840000; fill-opacity:0.0; 
stroke:#840000; stroke-width:60; stroke-opacity:1; 
stroke-linecap:round; stroke-linejoin:round;">
<path d="M78880 76290
L78880 75700
L79020 75700
L79110 75730
L79160 75790
L79190 75840
L79220 75950
L79220 76040
L79190 76150
L79160 76210
L79110 76260
L79020 76290
L78880 76290
" />
<path d="M79720 76290
L79720 75980
L79700 75930
L79640 75900
L79530 75900
L79470 75930
" />
<path d="M79720 76260
L79670 76290
L79530 76290
L79470 76260
L79440 76210
L79440 76150
L79470 76100
L79530 76070
L79670 76070
L79720 76040
" />
<path d="M79920 75900
L80140 75900
" />
<path d="M80000 75700
L80000 76210
L80030 76260
L80080 76290
L80140 76290
" />
<path d="M80570 76260
L80510 76290
L80400 76290
L80340 76260
L80310 76210
L80310 75980
L80340 75930
L80400 75900
L80510 75900
L80570 75930
L80590 75980
L80590 76040
L80310 76100
" />
<path d="M80850 76240
L80880 76260
L80850 76290
L80820 76260
L80850 76240
L80850 76290
" />
<path d="M80850 75930
L80880 75950
L80850 75980
L80820 75950
L80850 75930
L80850 75980
" />
</g>
<g style="fill:#840000; fill-opacity:0.0; 
stroke:#840000; stroke-width:100; stroke-opacity:1; 
stroke-linecap:round; stroke-linejoin:round;">
</g>
<g style="fill:#840000; fill-opacity:0.0; 
stroke:#840000; stroke-width:60; stroke-opacity:1; 
stroke-linecap:round; stroke-linejoin:round;">
<path d="M69690 76580
L112210 76580
" />
</g>
<g style="fill:#840000; fill-opacity:0.0; 
stroke:#840000; stroke-width:100; stroke-opacity:1; 
stroke-linecap:round; stroke-linejoin:round;">
</g>
<g style="fill:#840000; fill-opacity:0.0; 
stroke:#840000; stroke-width:60; stroke-opacity:1; 
stroke-linecap:round; stroke-linejoin:round;">
<path d="M70220 77390
L70220 76800
" />
<path d="M70560 77390
L70300 77050
" />
<path d="M70560 76800
L70220 77140
" />
<path d="M70810 77390
L70810 77000
" />
<path d="M70810 76800
L70780 76830
L70810 76860
L70840 76830
L70810 76800
L70810 76860
" />
<path d="M71430 77340
L71400 77360
L71320 77390
L71260 77390
L71170 77360
L71120 77310
L71090 77250
L71060 77140
L71060 77050
L71090 76940
L71120 76890
L71170 76830
L71260 76800
L71320 76800
L71400 76830
L71430 76860
" />
<path d="M71930 77390
L71930 77080
L71910 77030
L71850 77000
L71740 77000
L71680 77030
" />
<path d="M71930 77360
L71880 77390
L71740 77390
L71680 77360
L71650 77310
L71650 77250
L71680 77200
L71740 77170
L71880 77170
L71930 77140
" />
<path d="M72460 77390
L72460 76800
" />
<path d="M72460 77360
L72410 77390
L72290 77390
L72240 77360
L72210 77340
L72180 77280
L72180 77110
L72210 77050
L72240 77030
L72290 77000
L72410 77000
L72460 77030
" />
<path d="M73190 77080
L73390 77080
" />
<path d="M73470 77390
L73190 77390
L73190 76800
L73470 76800
" />
<path d="M73720 77340
L73750 77360
L73720 77390
L73690 77360
L73720 77340
L73720 77390
" />
<path d="M74000 77390
L74000 76800
L74140 76800
L74230 76830
L74280 76890
L74310 76940
L74340 77050
L74340 77140
L74310 77250
L74280 77310
L74230 77360
L74140 77390
L74000 77390
" />
<path d="M74590 77340
L74620 77360
L74590 77390
L74560 77360
L74590 77340
L74590 77390
" />
<path d="M74840 77220
L75120 77220
" />
<path d="M74790 77390
L74980 76800
L75180 77390
" />
<path d="M75380 77340
L75410 77360
L75380 77390
L75350 77360
L75380 77340
L75380 77390
" />
<path d="M76560 77390
L76560 76800
" />
<path d="M76620 77170
L76790 77390
" />
<path d="M76790 77000
L76560 77220
" />
<path d="M77040 77390
L77040 77000
" />
<path d="M77040 76800
L77010 76830
L77040 76860
L77070 76830
L77040 76800
L77040 76860
" />
<path d="M77570 77360
L77520 77390
L77400 77390
L77350 77360
L77320 77340
L77290 77280
L77290 77110
L77320 77050
L77350 77030
L77400 77000
L77520 77000
L77570 77030
" />
<path d="M78080 77390
L78080 77080
L78060 77030
L78000 77000
L77890 77000
L77830 77030
" />
<path d="M78080 77360
L78030 77390
L77890 77390
L77830 77360
L77800 77310
L77800 77250
L77830 77200
L77890 77170
L78030 77170
L78080 77140
" />
<path d="M78610 77390
L78610 76800
" />
<path d="M78610 77360
L78560 77390
L78440 77390
L78390 77360
L78360 77340
L78330 77280
L78330 77110
L78360 77050
L78390 77030
L78440 77000
L78560 77000
L78610 77030
" />
<path d="M79590 77000
L79590 77390
" />
<path d="M79450 76770
L79310 77200
L79680 77200
" />
<path d="M79900 77340
L79930 77360
L79900 77390
L79870 77360
L79900 77340
L79900 77390
" />
<path d="M80290 76800
L80350 76800
L80410 76830
L80430 76860
L80460 76910
L80490 77030
L80490 77170
L80460 77280
L80430 77340
L80410 77360
L80350 77390
L80290 77390
L80240 77360
L80210 77340
L80180 77280
L80150 77170
L80150 77030
L80180 76910
L80210 76860
L80240 76830
L80290 76800
" />
<path d="M80740 77340
L80770 77360
L80740 77390
L80710 77360
L80740 77340
L80740 77390
" />
<path d="M81300 76800
L81020 76800
L80990 77080
L81020 77050
L81080 77030
L81220 77030
L81270 77050
L81300 77080
L81330 77140
L81330 77280
L81300 77340
L81270 77360
L81220 77390
L81080 77390
L81020 77360
L80990 77340
" />
</g>
<g style="fill:#840000; fill-opacity:0.0; 
stroke:#840000; stroke-width:100; stroke-opacity:1; 
stroke-linecap:round; stroke-linejoin:round;">
</g>
<g style="fill:#840000; fill-opacity:0.0; 
stroke:#840000; stroke-width:60; stroke-opacity:1; 
stroke-linecap:round; stroke-linejoin:round;">
<path d="M69690 75400
L112210 75400
" />
</g>
<g style="fill:#840000; fill-opacity:0.0; 
stroke:#840000; stroke-width:100; stroke-opacity:1; 
stroke-linecap:round; stroke-linejoin:round;">
</g>
<g style="fill:#840000; fill-opacity:0.0; 
stroke:#840000; stroke-width:120; stroke-opacity:1; 
stroke-linecap:round; stroke-linejoin:round;">
<path d="M104020 76290
L103820 76010
" />
<path d="M103680 76290
L103680 75700
L103910 75700
L103960 75730
L103990 75760
L104020 75810
L104020 75900
L103990 75950
L103960 75980
L103910 76010
L103680 76010
" />
<path d="M104500 76260
L104440 76290
L104330 76290
L104270 76260
L104240 76210
L104240 75980
L104270 75930
L104330 75900
L104440 75900
L104500 75930
L104520 75980
L104520 76040
L104240 76100
" />
<path d="M104720 75900
L104860 76290
L105010 75900
" />
<path d="M105230 76240
L105260 76260
L105230 76290
L105200 76260
L105230 76240
L105230 76290
" />
<path d="M105230 75930
L105260 75950
L105230 75980
L105200 75950
L105230 75930
L105230 75980
" />
</g>
<g style="fill:#840000; fill-opacity:0.0; 
stroke:#840000; stroke-width:100; stroke-opacity:1; 
stroke-linecap:round; stroke-linejoin:round;">
</g>
<g style="fill:#840000; fill-opacity:0.0; 
stroke:#840000; stroke-width:60; stroke-opacity:1; 
stroke-linecap:round; stroke-linejoin:round;">
<path d="M70190 76260
L70280 76290
L70420 76290
L70470 76260
L70500 76240
L70530 76180
L70530 76120
L70500 76070
L70470 76040
L70420 76010
L70300 75980
L70250 75950
L70220 75930
L70190 75870
L70190 75810
L70220 75760
L70250 75730
L70300 75700
L70450 75700
L70530 75730
" />
<path d="M70780 76290
L70780 75900
" />
<path d="M70780 75700
L70750 75730
L70780 75760
L70810 75730
L70780 75700
L70780 75760
" />
<path d="M71000 75900
L71310 75900
L71000 76290
L71310 76290
" />
<path d="M71770 76260
L71710 76290
L71600 76290
L71540 76260
L71510 76210
L71510 75980
L71540 75930
L71600 75900
L71710 75900
L71770 75930
L71790 75980
L71790 76040
L71510 76100
" />
<path d="M72050 76240
L72080 76260
L72050 76290
L72020 76260
L72050 76240
L72050 76290
" />
<path d="M72050 75930
L72080 75950
L72050 75980
L72020 75950
L72050 75930
L72050 75980
" />
<path d="M72750 76120
L73030 76120
" />
<path d="M72700 76290
L72890 75700
L73090 76290
" />
<path d="M73540 75900
L73540 76290
" />
<path d="M73400 75670
L73260 76100
L73630 76100
" />
</g>
<g style="fill:#840000; fill-opacity:0.0; 
stroke:#840000; stroke-width:100; stroke-opacity:1; 
stroke-linecap:round; stroke-linejoin:round;">
</g>
<g style="fill:#840000; fill-opacity:0.0; 
stroke:#840000; stroke-width:60; stroke-opacity:1; 
stroke-linecap:round; stroke-linejoin:round;">
<path d="M103680 77390
L103680 76800
" />
<path d="M104210 77390
L104210 76800
" />
<path d="M104210 77360
L104160 77390
L104040 77390
L103990 77360
L103960 77340
L103930 77280
L103930 77110
L103960 77050
L103990 77030
L104040 77000
L104160 77000
L104210 77030
" />
<path d="M104490 77340
L104520 77360
L104490 77390
L104460 77360
L104490 77340
L104490 77390
" />
<path d="M104490 77030
L104520 77050
L104490 77080
L104460 77050
L104490 77030
L104490 77080
" />
<path d="M105160 76800
L105530 76800
L105330 77030
L105420 77030
L105470 77050
L105500 77080
L105530 77140
L105530 77280
L105500 77340
L105470 77360
L105420 77390
L105250 77390
L105190 77360
L105160 77340
" />
<path d="M106200 76770
L105700 77530
" />
<path d="M106650 76800
L106540 76800
L106480 76830
L106460 76860
L106400 76940
L106370 77050
L106370 77280
L106400 77340
L106430 77360
L106480 77390
L106600 77390
L106650 77360
L106680 77340
L106710 77280
L106710 77140
L106680 77080
L106650 77050
L106600 77030
L106480 77030
L106430 77050
L106400 77080
L106370 77140
" />
</g>
<g style="fill:#840000; fill-opacity:0.0; 
stroke:#840000; stroke-width:100; stroke-opacity:1; 
stroke-linecap:round; stroke-linejoin:round;">
</g>
<g style="fill:#840000; fill-opacity:0.0; 
stroke:#840000; stroke-width:60; stroke-opacity:1; 
stroke-linecap:round; stroke-linejoin:round;">
<path d="M69690 73820
L112210 73820
" />
</g>
<g style="fill:#840000; fill-opacity:0.0; 
stroke:#840000; stroke-width:100; stroke-opacity:1; 
stroke-linecap:round; stroke-linejoin:round;">
</g>
<g style="fill:#840000; fill-opacity:0.0; 
stroke:#840000; stroke-width:160; stroke-opacity:1; 
stroke-linecap:round; stroke-linejoin:round;">
<path d="M70260 74090
L70710 74090
" />
<path d="M70390 74880
L70480 74090
" />
<path d="M70880 74880
L70940 74360
" />
<path d="M70970 74090
L70930 74130
L70960 74170
L71010 74130
L70970 74090
L70960 74170
" />
<path d="M71210 74360
L71510 74360
" />
<path d="M71350 74090
L71270 74770
L71300 74840
L71370 74880
L71450 74880
" />
<path d="M71820 74880
L71750 74840
L71720 74770
L71800 74090
" />
<path d="M72420 74840
L72340 74880
L72190 74880
L72120 74840
L72090 74770
L72130 74470
L72180 74390
L72250 74360
L72400 74360
L72480 74390
L72510 74470
L72500 74540
L72110 74620
" />
<path d="M72800 74810
L72840 74840
L72800 74880
L72760 74840
L72800 74810
L72800 74880
" />
<path d="M72860 74390
L72890 74430
L72850 74470
L72810 74430
L72860 74390
L72850 74470
" />
</g>
<g style="fill:#840000; fill-opacity:0.0; 
stroke:#840000; stroke-width:100; stroke-opacity:1; 
stroke-linecap:round; stroke-linejoin:round;">
</g>
<g style="fill:#840000; fill-opacity:0.0; 
stroke:#840000; stroke-width:60; stroke-opacity:1; 
stroke-linecap:round; stroke-linejoin:round;">
<path d="M70420 73060
L70220 73060
" />
<path d="M70220 73370
L70220 72780
L70500 72780
" />
<path d="M70730 73370
L70730 72980
" />
<path d="M70730 72780
L70700 72810
L70730 72840
L70760 72810
L70730 72780
L70730 72840
" />
<path d="M71090 73370
L71040 73340
L71010 73290
L71010 72780
" />
<path d="M71550 73340
L71490 73370
L71380 73370
L71320 73340
L71290 73290
L71290 73060
L71320 73010
L71380 72980
L71490 72980
L71550 73010
L71570 73060
L71570 73120
L71290 73180
" />
<path d="M71830 73320
L71860 73340
L71830 73370
L71800 73340
L71830 73320
L71830 73370
" />
<path d="M71830 73010
L71860 73030
L71830 73060
L71800 73030
L71830 73010
L71830 73060
" />
<path d="M72560 72980
L72560 73570
" />
<path d="M72560 73010
L72620 72980
L72730 72980
L72790 73010
L72810 73030
L72840 73090
L72840 73260
L72810 73320
L72790 73340
L72730 73370
L72620 73370
L72560 73340
" />
<path d="M73170 73370
L73120 73340
L73090 73320
L73060 73260
L73060 73090
L73090 73030
L73120 73010
L73170 72980
L73260 72980
L73320 73010
L73340 73030
L73370 73090
L73370 73260
L73340 73320
L73320 73340
L73260 73370
L73170 73370
" />
<path d="M73560 72980
L73680 73370
L73790 73090
L73900 73370
L74010 72980
" />
<path d="M74470 73340
L74410 73370
L74300 73370
L74240 73340
L74210 73290
L74210 73060
L74240 73010
L74300 72980
L74410 72980
L74470 73010
L74490 73060
L74490 73120
L74210 73180
" />
<path d="M74750 73370
L74750 72980
" />
<path d="M74750 73090
L74780 73030
L74810 73010
L74860 72980
L74920 72980
" />
<path d="M75120 73320
L75150 73340
L75120 73370
L75090 73340
L75120 73320
L75120 73370
" />
<path d="M75370 73340
L75430 73370
L75540 73370
L75600 73340
L75630 73290
L75630 73260
L75600 73200
L75540 73180
L75460 73180
L75400 73150
L75370 73090
L75370 73060
L75400 73010
L75460 72980
L75540 72980
L75600 73010
" />
<path d="M76130 73340
L76080 73370
L75960 73370
L75910 73340
L75880 73320
L75850 73260
L75850 73090
L75880 73030
L75910 73010
L75960 72980
L76080 72980
L76130 73010
" />
<path d="M76390 73370
L76390 72780
" />
<path d="M76640 73370
L76640 73060
L76620 73010
L76560 72980
L76470 72980
L76420 73010
L76390 73030
" />
</g>
<g style="fill:#840000; fill-opacity:0.0; 
stroke:#840000; stroke-width:100; stroke-opacity:1; 
stroke-linecap:round; stroke-linejoin:round;">
</g>
<g style="fill:#840000; fill-opacity:0.0; 
stroke:#840000; stroke-width:60; stroke-opacity:1; 
stroke-linecap:round; stroke-linejoin:round;">
<path d="M69690 71460
L112210 71460
" />
</g>
<g style="fill:#840000; fill-opacity:0.0; 
stroke:#840000; stroke-width:100; stroke-opacity:1; 
stroke-linecap:round; stroke-linejoin:round;">
</g>
<g style="fill:#840000; fill-opacity:0.0; 
stroke:#840000; stroke-width:60; stroke-opacity:1; 
stroke-linecap:round; stroke-linejoin:round;">
<path d="M70190 72280
L70280 72310
L70420 72310
L70470 72280
L70500 72260
L70530 72200
L70530 72140
L70500 72090
L70470 72060
L70420 72030
L70300 72000
L70250 71970
L70220 71950
L70190 71890
L70190 71830
L70220 71780
L70250 71750
L70300 71720
L70450 71720
L70530 71750
" />
<path d="M70780 72310
L70780 71720
" />
<path d="M71030 72310
L71030 72000
L71010 71950
L70950 71920
L70860 71920
L70810 71950
L70780 71970
" />
<path d="M71540 72280
L71480 72310
L71370 72310
L71310 72280
L71280 72230
L71280 72000
L71310 71950
L71370 71920
L71480 71920
L71540 71950
L71560 72000
L71560 72060
L71280 72120
" />
<path d="M72050 72280
L71990 72310
L71880 72310
L71820 72280
L71790 72230
L71790 72000
L71820 71950
L71880 71920
L71990 71920
L72050 71950
L72070 72000
L72070 72060
L71790 72120
" />
<path d="M72250 71920
L72470 71920
" />
<path d="M72330 71720
L72330 72230
L72360 72280
L72410 72310
L72470 72310
" />
<path d="M72670 72260
L72700 72280
L72670 72310
L72640 72280
L72670 72260
L72670 72310
" />
<path d="M72670 71950
L72700 71970
L72670 72000
L72640 71970
L72670 71950
L72670 72000
" />
<path d="M73820 71690
L73320 72450
" />
<path d="M74020 72310
L74020 71720
L74250 71720
L74300 71750
L74330 71780
L74360 71830
L74360 71920
L74330 71970
L74300 72000
L74250 72030
L74020 72030
" />
<path d="M74690 72310
L74640 72280
L74610 72260
L74580 72200
L74580 72030
L74610 71970
L74640 71950
L74690 71920
L74780 71920
L74840 71950
L74860 71970
L74890 72030
L74890 72200
L74860 72260
L74840 72280
L74780 72310
L74690 72310
" />
<path d="M75080 71920
L75200 72310
L75310 72030
L75420 72310
L75530 71920
" />
<path d="M75990 72280
L75930 72310
L75820 72310
L75760 72280
L75730 72230
L75730 72000
L75760 71950
L75820 71920
L75930 71920
L75990 71950
L76010 72000
L76010 72060
L75730 72120
" />
<path d="M76270 72310
L76270 71920
" />
<path d="M76270 72030
L76300 71970
L76330 71950
L76380 71920
L76440 71920
" />
<path d="M77060 71690
L76560 72450
" />
</g>
<g style="fill:#840000; fill-opacity:0.0; 
stroke:#840000; stroke-width:100; stroke-opacity:1; 
stroke-linecap:round; stroke-linejoin:round;">
</g>
<g style="fill:#840000; fill-opacity:0.0; 
stroke:#840000; stroke-width:60; stroke-opacity:1; 
stroke-linecap:round; stroke-linejoin:round;">
<path d="M77560 75400
L77560 76580
" />
</g>
<g style="fill:#840000; fill-opacity:0.0; 
stroke:#840000; stroke-width:100; stroke-opacity:1; 
stroke-linecap:round; stroke-linejoin:round;">
</g>
<g style="fill:#840000; fill-opacity:0.0; 
stroke:#840000; stroke-width:60; stroke-opacity:1; 
stroke-linecap:round; stroke-linejoin:round;">
<path d="M102760 75400
L102760 77960
" />
</g>
<g style="fill:#840000; fill-opacity:0.0; 
stroke:#840000; stroke-width:0; stroke-opacity:1; 
stroke-linecap:round; stroke-linejoin:round;">
</g>
<g style="fill:#840000; fill-opacity:0.0; 
stroke:#840000; stroke-width:60; stroke-opacity:1; 
stroke-linecap:round; stroke-linejoin:round;">
<rect x="55000" y="35000" width="6000" height="4000" rx="0" />
<path d="M55000 36000
L54000 36000
" />
</g>
<g style="fill:#008484; fill-opacity:0.0; 
stroke:#008484; stroke-width:60; stroke-opacity:1; 
stroke-linecap:round; stroke-linejoin:round;">
<path d="M55520 36230
L55520 35730
" />
<path d="M55760 36230
L55760 35730
L56040 36230
L56040 35730
" />
</g>
<g style="fill:#840000; fill-opacity:0.0; 
stroke:#840000; stroke-width:60; stroke-opacity:1; 
stroke-linecap:round; stroke-linejoin:round;">
<path d="M54640 35880
L54360 35880
" />
<path d="M54500 35880
L54500 35380
L54450 35450
L54400 35500
L54360 35520
" />
<path d="M55000 38000
L54000 38000
" />
</g>
<g style="fill:#008484; fill-opacity:0.0; 
stroke:#008484; stroke-width:60; stroke-opacity:1; 
stroke-linecap:round; stroke-linejoin:round;">
<path d="M55520 37960
L55690 37960
" />
<path d="M55760 38230
L55520 38230
L55520 37730
L55760 37730
" />
<path d="M55970 38230
L55970 37730
L56250 38230
L56250 37730
" />
</g>
<g style="fill:#840000; fill-opacity:0.0; 
stroke:#840000; stroke-width:60; stroke-opacity:1; 
stroke-linecap:round; stroke-linejoin:round;">
<path d="M54360 37420
L54380 37400
L54430 37380
L54550 37380
L54590 37400
L54620 37420
L54640 37470
L54640 37520
L54620 37590
L54330 37880
L54640 37880
" />
<path d="M61000 38000
L62000 38000
" />
</g>
<g style="fill:#008484; fill-opacity:0.0; 
stroke:#008484; stroke-width:60; stroke-opacity:1; 
stroke-linecap:round; stroke-linejoin:round;">
<path d="M59390 38080
L59620 38080
" />
<path d="M59340 38230
L59500 37730
L59670 38230
" />
<path d="M59840 38230
L59840 37730
L59960 37730
L60030 37750
L60080 37800
L60100 37850
L60120 37940
L60120 38010
L60100 38110
L60080 38150
L60030 38200
L59960 38230
L59840 38230
" />
<path d="M60480 37730
L60480 38080
L60460 38150
L60410 38200
L60340 38230
L60290 38230
" />
</g>
<g style="fill:#840000; fill-opacity:0.0; 
stroke:#840000; stroke-width:60; stroke-opacity:1; 
stroke-linecap:round; stroke-linejoin:round;">
<path d="M61590 37540
L61590 37880
" />
<path d="M61470 37350
L61360 37710
L61660 37710
" />
<path d="M61000 36000
L62000 36000
" />
</g>
<g style="fill:#008484; fill-opacity:0.0; 
stroke:#008484; stroke-width:60; stroke-opacity:1; 
stroke-linecap:round; stroke-linejoin:round;">
<path d="M59390 35730
L59490 35730
L59540 35750
L59580 35800
L59610 35890
L59610 36060
L59580 36150
L59540 36200
L59490 36230
L59390 36230
L59350 36200
L59300 36150
L59280 36060
L59280 35890
L59300 35800
L59350 35750
L59390 35730
" />
<path d="M59820 35730
L59820 36130
L59840 36180
L59870 36200
L59910 36230
L60010 36230
L60060 36200
L60080 36180
L60100 36130
L60100 35730
" />
<path d="M60270 35730
L60550 35730
" />
<path d="M60410 36230
L60410 35730
" />
</g>
<g style="fill:#840000; fill-opacity:0.0; 
stroke:#840000; stroke-width:60; stroke-opacity:1; 
stroke-linecap:round; stroke-linejoin:round;">
<path d="M61620 35380
L61380 35380
L61360 35610
L61380 35590
L61430 35570
L61550 35570
L61590 35590
L61620 35610
L61640 35660
L61640 35780
L61620 35830
L61590 35850
L61550 35880
L61430 35880
L61380 35850
L61360 35830
" />
<path d="M58000 39000
L58000 41000
" />
</g>
<g style="fill:#008484; fill-opacity:0.0; 
stroke:#008484; stroke-width:60; stroke-opacity:1; 
stroke-linecap:round; stroke-linejoin:round;">
<path d="M57750 38220
L57730 38270
L57730 38340
L57750 38410
L57800 38460
L57850 38480
L57940 38500
L58010 38500
L58110 38480
L58150 38460
L58200 38410
L58230 38340
L58230 38290
L58200 38220
L58180 38200
L58010 38200
L58010 38290
" />
<path d="M58230 37980
L57730 37980
L58230 37700
L57730 37700
" />
<path d="M58230 37460
L57730 37460
L57730 37340
L57750 37270
L57800 37220
L57850 37200
L57940 37180
L58010 37180
L58110 37200
L58150 37220
L58200 37270
L58230 37340
L58230 37460
" />
</g>
<g style="fill:#840000; fill-opacity:0.0; 
stroke:#840000; stroke-width:60; stroke-opacity:1; 
stroke-linecap:round; stroke-linejoin:round;">
<path d="M57610 40300
L57610 40470
" />
<path d="M57880 40470
L57380 40470
L57380 40230
" />
<path d="M57880 40040
L57380 40040
" />
<path d="M57880 39800
L57380 39800
L57880 39520
L57380 39520
" />
</g>
<g style="fill:#008484; fill-opacity:0.0; 
stroke:#008484; stroke-width:60; stroke-opacity:1; 
stroke-linecap:round; stroke-linejoin:round;">
<path d="M55070 34210
L55070 34700
L55100 34750
L55130 34780
L55190 34810
L55300 34810
L55360 34780
L55390 34750
L55420 34700
L55420 34210
" />
<path d="M55790 34750
L55820 34780
L55790 34810
L55760 34780
L55790 34750
L55790 34810
" />
<path d="M55670 34240
L55730 34210
L55870 34210
L55930 34240
L55960 34300
L55960 34350
L55930 34410
L55900 34440
L55850 34470
L55820 34500
L55790 34550
L55790 34580
" />
<path d="M56830 34500
L56920 34530
L56950 34550
L56980 34610
L56980 34700
L56950 34750
L56920 34780
L56860 34810
L56630 34810
L56630 34210
L56830 34210
L56890 34240
L56920 34270
L56950 34330
L56950 34380
L56920 34440
L56890 34470
L56830 34500
L56630 34500
" />
<path d="M57230 34810
L57230 34210
L57380 34210
L57460 34240
L57520 34300
L57550 34350
L57580 34470
L57580 34550
L57550 34670
L57520 34730
L57460 34780
L57380 34810
L57230 34810
" />
<path d="M57780 34210
L58150 34210
L57950 34440
L58030 34440
L58090 34470
L58120 34500
L58150 34550
L58150 34700
L58120 34750
L58090 34780
L58030 34810
L57860 34810
L57800 34780
L57780 34750
" />
<path d="M58690 34210
L58400 34210
L58370 34500
L58400 34470
L58460 34440
L58600 34440
L58660 34470
L58690 34500
L58720 34550
L58720 34700
L58690 34750
L58660 34780
L58600 34810
L58460 34810
L58400 34780
L58370 34750
" />
<path d="M58920 34210
L59320 34210
L59060 34810
" />
<path d="M59830 34210
L59540 34210
L59510 34500
L59540 34470
L59600 34440
L59740 34440
L59800 34470
L59830 34500
L59860 34550
L59860 34700
L59830 34750
L59800 34780
L59740 34810
L59600 34810
L59540 34780
L59510 34750
" />
<path d="M60110 34810
L60110 34210
" />
<path d="M60110 34500
L60460 34500
" />
<path d="M60460 34810
L60460 34210
" />
<path d="M60940 34500
L60740 34500
" />
<path d="M60740 34810
L60740 34210
L61030 34210
" />
<path d="M61250 34810
L61250 34210
L61480 34210
L61540 34240
L61570 34270
L61600 34330
L61600 34410
L61570 34470
L61540 34500
L61480 34530
L61250 34530
" />
<path d="M61850 34580
L62310 34580
" />
<path d="M62510 34210
L62850 34210
" />
<path d="M62680 34810
L62680 34210
" />
<path d="M63400 34810
L63200 34530
" />
<path d="M63050 34810
L63050 34210
L63280 34210
L63340 34240
L63370 34270
L63400 34330
L63400 34410
L63370 34470
L63340 34500
L63280 34530
L63050 34530
" />
</g>
<g style="fill:#008484; fill-opacity:0.0; 
stroke:#008484; stroke-width:0; stroke-opacity:1; 
stroke-linecap:round; stroke-linejoin:round;">
</g>
<g style="fill:#840000; fill-opacity:0.0; 
stroke:#840000; stroke-width:0; stroke-opacity:1; 
stroke-linecap:round; stroke-linejoin:round;">
</g>
<g style="fill:#840000; fill-opacity:0.0; 
stroke:#840000; stroke-width:80; stroke-opacity:1; 
stroke-linecap:round; stroke-linejoin:round;">
<rect x="62700" y="36300" width="600" height="1400" rx="0" />
</g>
<g style="fill:#840000; fill-opacity:0.0; 
stroke:#840000; stroke-width:60; stroke-opacity:1; 
stroke-linecap:round; stroke-linejoin:round;">
<path d="M63000 36300
L63000 36000
" />
<path d="M63000 37700
L63000 38000
" />
</g>
<g style="fill:#008484; fill-opacity:0.0; 
stroke:#008484; stroke-width:60; stroke-opacity:1; 
stroke-linecap:round; stroke-linejoin:round;">
<path d="M63700 37060
L63540 36820
" />
<path d="M63420 37060
L63420 36560
L63610 36560
L63660 36580
L63680 36600
L63700 36650
L63700 36720
L63680 36770
L63660 36790
L63610 36820
L63420 36820
" />
<path d="M63990 37010
L64010 37030
L63990 37060
L63970 37030
L63990 37010
L63990 37060
" />
<path d="M63900 36580
L63940 36560
L64060 36560
L64110 36580
L64130 36630
L64130 36680
L64110 36720
L64090 36750
L64040 36770
L64010 36790
L63990 36840
L63990 36870
" />
<path d="M63680 37660
L63400 37660
" />
<path d="M63540 37660
L63540 37160
L63490 37230
L63440 37280
L63400 37300
" />
<path d="M63970 37370
L63920 37350
L63900 37320
L63880 37280
L63880 37250
L63900 37200
L63920 37180
L63970 37160
L64070 37160
L64110 37180
L64140 37200
L64160 37250
L64160 37280
L64140 37320
L64110 37350
L64070 37370
L63970 37370
L63920 37390
L63900 37420
L63880 37470
L63880 37560
L63900 37610
L63920 37630
L63970 37660
L64070 37660
L64110 37630
L64140 37610
L64160 37560
L64160 37470
L64140 37420
L64110 37390
L64070 37370
" />
<path d="M64330 37160
L64640 37160
L64470 37350
L64550 37350
L64590 37370
L64620 37390
L64640 37440
L64640 37560
L64620 37610
L64590 37630
L64550 37660
L64400 37660
L64360 37630
L64330 37610
" />
<path d="M64860 37610
L64880 37630
L64860 37660
L64840 37630
L64860 37610
L64860 37660
" />
<path d="M65050 37160
L65360 37160
L65190 37350
L65270 37350
L65310 37370
L65340 37390
L65360 37440
L65360 37560
L65340 37610
L65310 37630
L65270 37660
L65120 37660
L65080 37630
L65050 37610
" />
<path d="M65580 37660
L65580 37160
" />
<path d="M65630 37470
L65770 37660
" />
<path d="M65770 37320
L65580 37510
" />
</g>
<g style="fill:#008484; fill-opacity:0.0; 
stroke:#008484; stroke-width:0; stroke-opacity:1; 
stroke-linecap:round; stroke-linejoin:round;">
</g>
<g style="fill:#840000; fill-opacity:0.0; 
stroke:#840000; stroke-width:0; stroke-opacity:1; 
stroke-linecap:round; stroke-linejoin:round;">
</g>
<g style="fill:#840000; fill-opacity:0.0; 
stroke:#840000; stroke-width:80; stroke-opacity:1; 
stroke-linecap:round; stroke-linejoin:round;">
<rect x="62700" y="38300" width="600" height="1400" rx="0" />
</g>
<g style="fill:#840000; fill-opacity:0.0; 
stroke:#840000; stroke-width:60; stroke-opacity:1; 
stroke-linecap:round; stroke-linejoin:round;">
<path d="M63000 38300
L63000 38000
" />
<path d="M63000 39700
L63000 40000
" />
</g>
<g style="fill:#008484; fill-opacity:0.0; 
stroke:#008484; stroke-width:60; stroke-opacity:1; 
stroke-linecap:round; stroke-linejoin:round;">
<path d="M63700 39060
L63540 38820
" />
<path d="M63420 39060
L63420 38560
L63610 38560
L63660 38580
L63680 38600
L63700 38650
L63700 38720
L63680 38770
L63660 38790
L63610 38820
L63420 38820
" />
<path d="M63990 39010
L64010 39030
L63990 39060
L63970 39030
L63990 39010
L63990 39060
" />
<path d="M63900 38580
L63940 38560
L64060 38560
L64110 38580
L64130 38630
L64130 38680
L64110 38720
L64090 38750
L64040 38770
L64010 38790
L63990 38840
L63990 38870
" />
<path d="M63680 39660
L63400 39660
" />
<path d="M63540 39660
L63540 39160
L63490 39230
L63440 39280
L63400 39300
" />
<path d="M64140 39160
L63900 39160
L63880 39390
L63900 39370
L63950 39350
L64070 39350
L64110 39370
L64140 39390
L64160 39440
L64160 39560
L64140 39610
L64110 39630
L64070 39660
L63950 39660
L63900 39630
L63880 39610
" />
<path d="M64470 39160
L64520 39160
L64570 39180
L64590 39200
L64620 39250
L64640 39350
L64640 39470
L64620 39560
L64590 39610
L64570 39630
L64520 39660
L64470 39660
L64430 39630
L64400 39610
L64380 39560
L64360 39470
L64360 39350
L64380 39250
L64400 39200
L64430 39180
L64470 39160
" />
<path d="M64860 39660
L64860 39160
" />
<path d="M64910 39470
L65050 39660
" />
<path d="M65050 39320
L64860 39510
" />
</g>
<g style="fill:#008400; fill-opacity:0.0; 
stroke:#008400; stroke-width:60; stroke-opacity:1; 
stroke-linecap:round; stroke-linejoin:round;">
<path d="M62000 38000
L63000 38000
" />
<path d="M62000 36000
L68000 36000
" />
</g>
<g style="fill:#008400; fill-opacity:0.0; 
stroke:#008400; stroke-width:0; stroke-opacity:1; 
stroke-linecap:round; stroke-linejoin:round;">
</g>
<g style="fill:#008400; fill-opacity:1.0; 
stroke:#008400; stroke-width:100; stroke-opacity:1; 
stroke-linecap:round; stroke-linejoin:round;">
<circle cx="63000" cy="36000" r="200" /> 
</g>
<g style="fill:#008400; fill-opacity:1.0; 
stroke:#008400; stroke-width:60; stroke-opacity:1; 
stroke-linecap:round; stroke-linejoin:round;">
</g>
<g style="fill:#008400; fill-opacity:0.0; 
stroke:#008400; stroke-width:60; stroke-opacity:1; 
stroke-linecap:round; stroke-linejoin:round;">
<path d="M63000 40000
L68000 40000
" />
<path d="M65000 40000
L65000 41000
" />
</g>
<g style="fill:#008400; fill-opacity:0.0; 
stroke:#008400; stroke-width:0; stroke-opacity:1; 
stroke-linecap:round; stroke-linejoin:round;">
</g>
<g style="fill:#008400; fill-opacity:1.0; 
stroke:#008400; stroke-width:100; stroke-opacity:1; 
stroke-linecap:round; stroke-linejoin:round;">
<circle cx="65000" cy="40000" r="200" /> 
</g>
<g style="fill:#008400; fill-opacity:1.0; 
stroke:#008400; stroke-width:0; stroke-opacity:1; 
stroke-linecap:round; stroke-linejoin:round;">
</g>
<g style="fill:#840000; fill-opacity:1.0; 
stroke:#840000; stroke-width:0; stroke-opacity:1; 
stroke-linecap:round; stroke-linejoin:round;">
</g>
<g style="fill:#840000; fill-opacity:0.0; 
stroke:#840000; stroke-width:60; stroke-opacity:1; 
stroke-linecap:round; stroke-linejoin:round;">
<polyline fill="none;"
points="58000,41000
58000,41500
58500,41500
58000,42000
57500,41500
58000,41500
" /> 
</g>
<g style="fill:#008484; fill-opacity:0.0; 
stroke:#008484; stroke-width:60; stroke-opacity:1; 
stroke-linecap:round; stroke-linejoin:round;">
<path d="M57620 42280
L57570 42260
L57500 42260
L57430 42280
L57380 42330
L57360 42380
L57340 42470
L57340 42540
L57360 42640
L57380 42680
L57430 42730
L57500 42760
L57550 42760
L57620 42730
L57640 42710
L57640 42540
L57550 42540
" />
<path d="M57860 42760
L57860 42260
L58140 42760
L58140 42260
" />
<path d="M58380 42760
L58380 42260
L58500 42260
L58570 42280
L58620 42330
L58640 42380
L58660 42470
L58660 42540
L58640 42640
L58620 42680
L58570 42730
L58500 42760
L58380 42760
" />
</g>
<g style="fill:#008484; fill-opacity:0.0; 
stroke:#008484; stroke-width:0; stroke-opacity:1; 
stroke-linecap:round; stroke-linejoin:round;">
</g>
<g style="fill:#840000; fill-opacity:0.0; 
stroke:#840000; stroke-width:0; stroke-opacity:1; 
stroke-linecap:round; stroke-linejoin:round;">
</g>
<g style="fill:#840000; fill-opacity:0.0; 
stroke:#840000; stroke-width:60; stroke-opacity:1; 
stroke-linecap:round; stroke-linejoin:round;">
<polyline fill="none;"
points="65000,41000
65000,41500
65500,41500
65000,42000
64500,41500
65000,41500
" /> 
</g>
<g style="fill:#008484; fill-opacity:0.0; 
stroke:#008484; stroke-width:60; stroke-opacity:1; 
stroke-linecap:round; stroke-linejoin:round;">
<path d="M64620 42280
L64570 42260
L64500 42260
L64430 42280
L64380 42330
L64360 42380
L64340 42470
L64340 42540
L64360 42640
L64380 42680
L64430 42730
L64500 42760
L64550 42760
L64620 42730
L64640 42710
L64640 42540
L64550 42540
" />
<path d="M64860 42760
L64860 42260
L65140 42760
L65140 42260
" />
<path d="M65380 42760
L65380 42260
L65500 42260
L65570 42280
L65620 42330
L65640 42380
L65660 42470
L65660 42540
L65640 42640
L65620 42680
L65570 42730
L65500 42760
L65380 42760
" />
</g>
<g style="fill:#008484; fill-opacity:0.0; 
stroke:#008484; stroke-width:0; stroke-opacity:1; 
stroke-linecap:round; stroke-linejoin:round;">
</g>
<g style="fill:#840000; fill-opacity:0.0; 
stroke:#840000; stroke-width:0; stroke-opacity:1; 
stroke-linecap:round; stroke-linejoin:round;">
</g>
<g style="fill:#840000; fill-opacity:0.0; 
stroke:#840000; stroke-width:60; stroke-opacity:1; 
stroke-linecap:round; stroke-linejoin:round;">
<line x1="66100" y1="37600" x2="66100" y2="37800" />
<line x1="66100" y1="37800" x2="67900" y2="37800" />
</g>
<g style="fill:#840000; fill-opacity:1.0; 
stroke:#840000; stroke-width:60; stroke-opacity:1; 
stroke-linecap:round; stroke-linejoin:round;">
<rect x="66100" y="38200" width="1800" height="200" rx="0" />
</g>
<g style="fill:#840000; fill-opacity:0.0; 
stroke:#840000; stroke-width:60; stroke-opacity:1; 
stroke-linecap:round; stroke-linejoin:round;">
<line x1="66100" y1="37600" x2="67900" y2="37600" />
<line x1="67900" y1="37600" x2="67900" y2="37800" />
<polyline fill="none;"
points="66300,37100
66700,37100
" /> 
<polyline fill="none;"
points="66500,36900
66500,37300
" /> 
<path d="M67000 37600
L67000 36500
" />
<path d="M67000 38400
L67000 39500
" />
</g>
<g style="fill:#008484; fill-opacity:0.0; 
stroke:#008484; stroke-width:60; stroke-opacity:1; 
stroke-linecap:round; stroke-linejoin:round;">
<path d="M67650 37210
L67630 37230
L67560 37260
L67510 37260
L67440 37230
L67390 37180
L67370 37140
L67350 37040
L67350 36970
L67370 36880
L67390 36830
L67440 36780
L67510 36760
L67560 36760
L67630 36780
L67650 36800
" />
<path d="M67940 37210
L67960 37230
L67940 37260
L67920 37230
L67940 37210
L67940 37260
" />
<path d="M67850 36780
L67890 36760
L68010 36760
L68060 36780
L68080 36830
L68080 36880
L68060 36920
L68040 36950
L67990 36970
L67960 36990
L67940 37040
L67940 37070
" />
<path d="M67350 38800
L67370 38780
L67420 38760
L67540 38760
L67580 38780
L67610 38800
L67630 38850
L67630 38900
L67610 38970
L67320 39260
L67630 39260
" />
<path d="M67830 38800
L67850 38780
L67900 38760
L68020 38760
L68060 38780
L68090 38800
L68110 38850
L68110 38900
L68090 38970
L67800 39260
L68110 39260
" />
<path d="M68420 38760
L68470 38760
L68520 38780
L68540 38800
L68570 38850
L68590 38950
L68590 39070
L68570 39160
L68540 39210
L68520 39230
L68470 39260
L68420 39260
L68380 39230
L68350 39210
L68330 39160
L68310 39070
L68310 38950
L68330 38850
L68350 38800
L68380 38780
L68420 38760
" />
<path d="M69020 38920
L69020 39260
" />
<path d="M68810 38920
L68810 39180
L68830 39230
L68880 39260
L68950 39260
L69000 39230
L69020 39210
" />
</g>
<g style="fill:#008400; fill-opacity:0.0; 
stroke:#008400; stroke-width:60; stroke-opacity:1; 
stroke-linecap:round; stroke-linejoin:round;">
<path d="M67000 35000
L67000 36500
" />
<path d="M67000 40000
L67000 39500
" />
</g>
<g style="fill:#008400; fill-opacity:0.0; 
stroke:#008400; stroke-width:0; stroke-opacity:1; 
stroke-linecap:round; stroke-linejoin:round;">
</g>
<g style="fill:#840000; fill-opacity:0.0; 
stroke:#840000; stroke-width:0; stroke-opacity:1; 
stroke-linecap:round; stroke-linejoin:round;">
</g>
<g style="fill:#840000; fill-opacity:0.0; 
stroke:#840000; stroke-width:60; stroke-opacity:1; 
stroke-linecap:round; stroke-linejoin:round;">
<line x1="50100" y1="37600" x2="50100" y2="37800" />
<line x1="50100" y1="37800" x2="51900" y2="37800" />
</g>
<g style="fill:#840000; fill-opacity:1.0; 
stroke:#840000; stroke-width:60; stroke-opacity:1; 
stroke-linecap:round; stroke-linejoin:round;">
<rect x="50100" y="38200" width="1800" height="200" rx="0" />
</g>
<g style="fill:#840000; fill-opacity:0.0; 
stroke:#840000; stroke-width:60; stroke-opacity:1; 
stroke-linecap:round; stroke-linejoin:round;">
<line x1="50100" y1="37600" x2="51900" y2="37600" />
<line x1="51900" y1="37600" x2="51900" y2="37800" />
<polyline fill="none;"
points="50300,37100
50700,37100
" /> 
<polyline fill="none;"
points="50500,36900
50500,37300
" /> 
<path d="M51000 37600
L51000 36500
" />
<path d="M51000 38400
L51000 39500
" />
</g>
<g style="fill:#008484; fill-opacity:0.0; 
stroke:#008484; stroke-width:60; stroke-opacity:1; 
stroke-linecap:round; stroke-linejoin:round;">
<path d="M51650 37210
L51630 37230
L51560 37260
L51510 37260
L51440 37230
L51390 37180
L51370 37140
L51350 37040
L51350 36970
L51370 36880
L51390 36830
L51440 36780
L51510 36760
L51560 36760
L51630 36780
L51650 36800
" />
<path d="M51940 37210
L51960 37230
L51940 37260
L51920 37230
L51940 37210
L51940 37260
" />
<path d="M51850 36780
L51890 36760
L52010 36760
L52060 36780
L52080 36830
L52080 36880
L52060 36920
L52040 36950
L51990 36970
L51960 36990
L51940 37040
L51940 37070
" />
<path d="M51630 39260
L51350 39260
" />
<path d="M51490 39260
L51490 38760
L51440 38830
L51390 38880
L51350 38900
" />
<path d="M51940 38760
L51990 38760
L52040 38780
L52060 38800
L52090 38850
L52110 38950
L52110 39070
L52090 39160
L52060 39210
L52040 39230
L51990 39260
L51940 39260
L51900 39230
L51870 39210
L51850 39160
L51830 39070
L51830 38950
L51850 38850
L51870 38800
L51900 38780
L51940 38760
" />
<path d="M52540 38920
L52540 39260
" />
<path d="M52330 38920
L52330 39180
L52350 39230
L52400 39260
L52470 39260
L52520 39230
L52540 39210
" />
</g>
<g style="fill:#008484; fill-opacity:0.0; 
stroke:#008484; stroke-width:0; stroke-opacity:1; 
stroke-linecap:round; stroke-linejoin:round;">
</g>
<g style="fill:#840000; fill-opacity:0.0; 
stroke:#840000; stroke-width:0; stroke-opacity:1; 
stroke-linecap:round; stroke-linejoin:round;">
</g>
<g style="fill:#840000; fill-opacity:0.0; 
stroke:#840000; stroke-width:60; stroke-opacity:1; 
stroke-linecap:round; stroke-linejoin:round;">
<polyline fill="none;"
points="51000,41000
51000,41500
51500,41500
51000,42000
50500,41500
51000,41500
" /> 
</g>
<g style="fill:#008484; fill-opacity:0.0; 
stroke:#008484; stroke-width:60; stroke-opacity:1; 
stroke-linecap:round; stroke-linejoin:round;">
<path d="M50620 42280
L50570 42260
L50500 42260
L50430 42280
L50380 42330
L50360 42380
L50340 42470
L50340 42540
L50360 42640
L50380 42680
L50430 42730
L50500 42760
L50550 42760
L50620 42730
L50640 42710
L50640 42540
L50550 42540
" />
<path d="M50860 42760
L50860 42260
L51140 42760
L51140 42260
" />
<path d="M51380 42760
L51380 42260
L51500 42260
L51570 42280
L51620 42330
L51640 42380
L51660 42470
L51660 42540
L51640 42640
L51620 42680
L51570 42730
L51500 42760
L51380 42760
" />
</g>
<g style="fill:#008400; fill-opacity:0.0; 
stroke:#008400; stroke-width:60; stroke-opacity:1; 
stroke-linecap:round; stroke-linejoin:round;">
<path d="M51000 41000
L51000 39500
" />
<path d="M51000 35000
L51000 36500
" />
</g>
<g style="fill:#008400; fill-opacity:0.0; 
stroke:#008400; stroke-width:0; stroke-opacity:1; 
stroke-linecap:round; stroke-linejoin:round;">
</g>
<g style="fill:#008400; fill-opacity:1.0; 
stroke:#008400; stroke-width:100; stroke-opacity:1; 
stroke-linecap:round; stroke-linejoin:round;">
<circle cx="51000" cy="36000" r="200" /> 
</g>
<g style="fill:#008400; fill-opacity:1.0; 
stroke:#008400; stroke-width:0; stroke-opacity:1; 
stroke-linecap:round; stroke-linejoin:round;">
</g>
<g style="fill:#840000; fill-opacity:1.0; 
stroke:#840000; stroke-width:0; stroke-opacity:1; 
stroke-linecap:round; stroke-linejoin:round;">
</g>
<g style="fill:#840000; fill-opacity:0.0; 
stroke:#840000; stroke-width:60; stroke-opacity:1; 
stroke-linecap:round; stroke-linejoin:round;">
<polyline fill="none;"
points="66700,34500
67000,34000
" /> 
<polyline fill="none;"
points="67000,35000
67000,34000
" /> 
<polyline fill="none;"
points="67000,34000
67300,34500
" /> 
</g>
<g style="fill:#008484; fill-opacity:0.0; 
stroke:#008484; stroke-width:60; stroke-opacity:1; 
stroke-linecap:round; stroke-linejoin:round;">
<path d="M66120 33670
L66500 33670
" />
<path d="M66310 33860
L66310 33480
" />
<path d="M66720 33400
L66740 33380
L66790 33360
L66910 33360
L66950 33380
L66980 33400
L67000 33450
L67000 33500
L66980 33570
L66690 33860
L67000 33860
" />
<path d="M67150 33360
L67310 33860
L67480 33360
" />
<path d="M67720 33570
L67670 33550
L67650 33520
L67630 33480
L67630 33450
L67650 33400
L67670 33380
L67720 33360
L67820 33360
L67860 33380
L67890 33400
L67910 33450
L67910 33480
L67890 33520
L67860 33550
L67820 33570
L67720 33570
L67670 33590
L67650 33620
L67630 33670
L67630 33760
L67650 33810
L67670 33830
L67720 33860
L67820 33860
L67860 33830
L67890 33810
L67910 33760
L67910 33670
L67890 33620
L67860 33590
L67820 33570
" />
</g>
<g style="fill:#008484; fill-opacity:0.0; 
stroke:#008484; stroke-width:0; stroke-opacity:1; 
stroke-linecap:round; stroke-linejoin:round;">
</g>
<g style="fill:#008400; fill-opacity:0.0; 
stroke:#008400; stroke-width:0; stroke-opacity:1; 
stroke-linecap:round; stroke-linejoin:round;">
</g>
<g style="fill:#008400; fill-opacity:1.0; 
stroke:#008400; stroke-width:100; stroke-opacity:1; 
stroke-linecap:round; stroke-linejoin:round;">
<circle cx="67000" cy="36000" r="200" /> 
</g>
<g style="fill:#008400; fill-opacity:1.0; 
stroke:#008400; stroke-width:0; stroke-opacity:1; 
stroke-linecap:round; stroke-linejoin:round;">
</g>
<g style="fill:#840000; fill-opacity:1.0; 
stroke:#840000; stroke-width:0; stroke-opacity:1; 
stroke-linecap:round; stroke-linejoin:round;">
</g>
<g style="fill:#840000; fill-opacity:0.0; 
stroke:#840000; stroke-width:60; stroke-opacity:1; 
stroke-linecap:round; stroke-linejoin:round;">
<circle cx="51000" cy="34250" r="250" /> 
<polyline fill="none;"
points="51000,35000
51000,34500
" /> 
</g>
<g style="fill:#008484; fill-opacity:0.0; 
stroke:#008484; stroke-width:60; stroke-opacity:1; 
stroke-linecap:round; stroke-linejoin:round;">
<path d="M50340 33260
L50500 33760
L50670 33260
" />
<path d="M51120 33710
L51100 33730
L51030 33760
L50980 33760
L50910 33730
L50860 33680
L50840 33640
L50820 33540
L50820 33470
L50840 33380
L50860 33330
L50910 33280
L50980 33260
L51030 33260
L51100 33280
L51120 33300
" />
<path d="M51620 33710
L51600 33730
L51530 33760
L51480 33760
L51410 33730
L51360 33680
L51340 33640
L51320 33540
L51320 33470
L51340 33380
L51360 33330
L51410 33280
L51480 33260
L51530 33260
L51600 33280
L51620 33300
" />
</g>
<g style="fill:#008400; fill-opacity:0.0; 
stroke:#008400; stroke-width:60; stroke-opacity:1; 
stroke-linecap:round; stroke-linejoin:round;">
<path d="M50000 36000
L54000 36000
" />
</g>
<g style="fill:#008400; fill-opacity:0.0; 
stroke:#008400; stroke-width:0; stroke-opacity:1; 
stroke-linecap:round; stroke-linejoin:round;">
</g>
<g style="fill:#840000; fill-opacity:0.0; 
stroke:#840000; stroke-width:0; stroke-opacity:1; 
stroke-linecap:round; stroke-linejoin:round;">
</g>
<g style="fill:#840000; fill-opacity:0.0; 
stroke:#840000; stroke-width:60; stroke-opacity:1; 
stroke-linecap:round; stroke-linejoin:round;">
<polyline fill="none;"
points="42500,39000
43000,38500
" /> 
<polyline fill="none;"
points="45000,38500
45500,39000
" /> 
<polyline fill="none;"
points="44500,37000
45000,36500
" /> 
<polyline fill="none;"
points="43500,37000
43000,36500
" /> 
<polyline fill="none;"
points="43000,39500
43500,39000
42750,38750
43000,39500
" /> 
<polyline fill="none;"
points="44500,39000
45000,39500
45250,38750
44500,39000
" /> 
<polyline fill="none;"
points="43000,37500
42500,37000
43250,36750
43000,37500
" /> 
<polyline fill="none;"
points="44750,36750
45000,37500
45500,37000
44750,36750
" /> 
<polyline fill="none;"
points="44000,40000
46000,38000
44000,36000
42000,38000
44000,40000
" /> 
<path d="M44000 36000
L44000 35000
" />
</g>
<g style="fill:#008484; fill-opacity:0.0; 
stroke:#008484; stroke-width:60; stroke-opacity:1; 
stroke-linecap:round; stroke-linejoin:round;">
<path d="M44040 37000
L44040 36620
" />
<path d="M44230 36810
L43850 36810
" />
</g>
<g style="fill:#840000; fill-opacity:0.0; 
stroke:#840000; stroke-width:60; stroke-opacity:1; 
stroke-linecap:round; stroke-linejoin:round;">
<path d="M43880 35360
L43880 35640
" />
<path d="M43880 35500
L43380 35500
L43450 35550
L43500 35600
L43520 35640
" />
<path d="M44000 40000
L44000 41000
" />
</g>
<g style="fill:#008484; fill-opacity:0.0; 
stroke:#008484; stroke-width:60; stroke-opacity:1; 
stroke-linecap:round; stroke-linejoin:round;">
<path d="M44040 39380
L44040 39000
" />
</g>
<g style="fill:#840000; fill-opacity:0.0; 
stroke:#840000; stroke-width:60; stroke-opacity:1; 
stroke-linecap:round; stroke-linejoin:round;">
<path d="M43420 40640
L43400 40620
L43380 40570
L43380 40450
L43400 40410
L43420 40380
L43470 40360
L43520 40360
L43590 40380
L43880 40670
L43880 40360
" />
<path d="M42000 38000
L41000 38000
" />
<path d="M41330 37380
L41640 37380
L41470 37570
L41550 37570
L41590 37590
L41620 37610
L41640 37660
L41640 37780
L41620 37830
L41590 37850
L41550 37880
L41400 37880
L41360 37850
L41330 37830
" />
<path d="M46000 38000
L47000 38000
" />
<path d="M46590 37540
L46590 37880
" />
<path d="M46470 37350
L46360 37710
L46660 37710
" />
</g>
<g style="fill:#008484; fill-opacity:0.0; 
stroke:#008484; stroke-width:60; stroke-opacity:1; 
stroke-linecap:round; stroke-linejoin:round;">
<path d="M41510 37370
L41010 37370
L41010 37250
L41030 37180
L41080 37130
L41130 37110
L41220 37090
L41290 37090
L41390 37110
L41430 37130
L41480 37180
L41510 37250
L41510 37370
" />
<path d="M41460 36800
L41480 36780
L41510 36800
L41480 36820
L41460 36800
L41510 36800
" />
<path d="M41030 36890
L41010 36850
L41010 36730
L41030 36680
L41080 36660
L41130 36660
L41170 36680
L41200 36700
L41220 36750
L41240 36780
L41290 36800
L41320 36800
" />
<path d="M42260 37380
L41760 37380
L41760 37260
L41780 37190
L41830 37140
L41880 37120
L41970 37100
L42040 37100
L42140 37120
L42180 37140
L42230 37190
L42260 37260
L42260 37380
" />
<path d="M42300 37000
L42300 36620
" />
<path d="M41990 36330
L42020 36260
L42040 36240
L42090 36220
L42160 36220
L42210 36240
L42230 36260
L42260 36310
L42260 36500
L41760 36500
L41760 36330
L41780 36290
L41800 36260
L41850 36240
L41900 36240
L41950 36260
L41970 36290
L41990 36330
L41990 36500
" />
<path d="M42260 36000
L41920 36000
" />
<path d="M42020 36000
L41970 35980
L41950 35950
L41920 35910
L41920 35860
" />
<path d="M42260 35690
L41920 35690
" />
<path d="M41760 35690
L41780 35710
L41800 35690
L41780 35670
L41760 35690
L41800 35690
" />
<path d="M42260 35240
L41760 35240
" />
<path d="M42230 35240
L42260 35280
L42260 35380
L42230 35430
L42210 35450
L42160 35470
L42020 35470
L41970 35450
L41950 35430
L41920 35380
L41920 35280
L41950 35240
" />
<path d="M41920 34790
L42330 34790
L42380 34810
L42400 34830
L42420 34880
L42420 34950
L42400 35000
" />
<path d="M42230 34790
L42260 34830
L42260 34930
L42230 34980
L42210 35000
L42160 35020
L42020 35020
L41970 35000
L41950 34980
L41920 34930
L41920 34830
L41950 34790
" />
<path d="M42230 34360
L42260 34410
L42260 34500
L42230 34550
L42180 34570
L41990 34570
L41950 34550
L41920 34500
L41920 34410
L41950 34360
L41990 34340
L42040 34340
L42090 34570
" />
<path d="M42300 34240
L42300 33860
" />
<path d="M42070 33740
L42070 33360
" />
<path d="M42260 33550
L41880 33550
" />
<path d="M42070 33120
L42070 32740
" />
<path d="M42110 32520
L42110 32290
" />
<path d="M42260 32570
L41760 32410
L42260 32240
" />
<path d="M42110 32090
L42110 31860
" />
<path d="M42260 32140
L41760 31980
L42260 31810
" />
</g>
<g style="fill:#008400; fill-opacity:0.0; 
stroke:#008400; stroke-width:60; stroke-opacity:1; 
stroke-linecap:round; stroke-linejoin:round;">
<path d="M41000 38000
L41000 41000
" />
<path d="M47000 38000
L47000 41000
" />
</g>
<g style="fill:#008400; fill-opacity:0.0; 
stroke:#008400; stroke-width:0; stroke-opacity:1; 
stroke-linecap:round; stroke-linejoin:round;">
</g>
<g style="fill:#840000; fill-opacity:0.0; 
stroke:#840000; stroke-width:0; stroke-opacity:1; 
stroke-linecap:round; stroke-linejoin:round;">
</g>
<g style="fill:#840000; fill-opacity:0.0; 
stroke:#840000; stroke-width:60; stroke-opacity:1; 
stroke-linecap:round; stroke-linejoin:round;">
<polyline fill="none;"
points="44000,41000
44000,41500
44500,41500
44000,42000
43500,41500
44000,41500
" /> 
</g>
<g style="fill:#008484; fill-opacity:0.0; 
stroke:#008484; stroke-width:60; stroke-opacity:1; 
stroke-linecap:round; stroke-linejoin:round;">
<path d="M43620 42280
L43570 42260
L43500 42260
L43430 42280
L43380 42330
L43360 42380
L43340 42470
L43340 42540
L43360 42640
L43380 42680
L43430 42730
L43500 42760
L43550 42760
L43620 42730
L43640 42710
L43640 42540
L43550 42540
" />
<path d="M43860 42760
L43860 42260
L44140 42760
L44140 42260
" />
<path d="M44380 42760
L44380 42260
L44500 42260
L44570 42280
L44620 42330
L44640 42380
L44660 42470
L44660 42540
L44640 42640
L44620 42680
L44570 42730
L44500 42760
L44380 42760
" />
</g>
<g style="fill:#008484; fill-opacity:0.0; 
stroke:#008484; stroke-width:0; stroke-opacity:1; 
stroke-linecap:round; stroke-linejoin:round;">
</g>
<g style="fill:#840000; fill-opacity:0.0; 
stroke:#840000; stroke-width:0; stroke-opacity:1; 
stroke-linecap:round; stroke-linejoin:round;">
</g>
<g style="fill:#840000; fill-opacity:0.0; 
stroke:#840000; stroke-width:60; stroke-opacity:1; 
stroke-linecap:round; stroke-linejoin:round;">
<circle cx="44000" cy="34250" r="250" /> 
<polyline fill="none;"
points="44000,35000
44000,34500
" /> 
</g>
<g style="fill:#008484; fill-opacity:0.0; 
stroke:#008484; stroke-width:60; stroke-opacity:1; 
stroke-linecap:round; stroke-linejoin:round;">
<path d="M43340 33260
L43500 33760
L43670 33260
" />
<path d="M44120 33710
L44100 33730
L44030 33760
L43980 33760
L43910 33730
L43860 33680
L43840 33640
L43820 33540
L43820 33470
L43840 33380
L43860 33330
L43910 33280
L43980 33260
L44030 33260
L44100 33280
L44120 33300
" />
<path d="M44620 33710
L44600 33730
L44530 33760
L44480 33760
L44410 33730
L44360 33680
L44340 33640
L44320 33540
L44320 33470
L44340 33380
L44360 33330
L44410 33280
L44480 33260
L44530 33260
L44600 33280
L44620 33300
" />
</g>
<g style="fill:#848400; fill-opacity:0.0; 
stroke:#848400; stroke-width:60; stroke-opacity:1; 
stroke-linecap:round; stroke-linejoin:round;">
<path d="M41270 43730
L40990 43930
" />
<path d="M41270 44080
L40670 44080
L40670 43850
L40700 43790
L40730 43760
L40790 43730
L40870 43730
L40930 43760
L40960 43790
L40990 43850
L40990 44080
" />
<path d="M41100 43510
L41100 43220
" />
<path d="M41270 43560
L40670 43360
L41270 43160
" />
<path d="M41270 42970
L40670 42970
" />
<path d="M41270 42390
L41270 42680
L40670 42680
" />
<path d="M41270 41870
L41270 42220
" />
<path d="M41270 42040
L40670 42040
L40760 42100
L40810 42160
L40840 42220
" />
</g>
<g style="fill:#848400; fill-opacity:0.0; 
stroke:#848400; stroke-width:100; stroke-opacity:1; 
stroke-linecap:round; stroke-linejoin:round;">
<polyline fill="none;"
points="41000,41000
41300,41300
41300,41600
40700,41600
40700,41300
41000,41000
" /> 
</g>
<g style="fill:#848400; fill-opacity:0.0; 
stroke:#848400; stroke-width:60; stroke-opacity:1; 
stroke-linecap:round; stroke-linejoin:round;">
<path d="M47270 43730
L46990 43930
" />
<path d="M47270 44080
L46670 44080
L46670 43850
L46700 43790
L46730 43760
L46790 43730
L46870 43730
L46930 43760
L46960 43790
L46990 43850
L46990 44080
" />
<path d="M47100 43510
L47100 43220
" />
<path d="M47270 43560
L46670 43360
L47270 43160
" />
<path d="M47270 42970
L46670 42970
" />
<path d="M47270 42390
L47270 42680
L46670 42680
" />
<path d="M46730 42220
L46700 42190
L46670 42130
L46670 41990
L46700 41930
L46730 41900
L46790 41870
L46840 41870
L46930 41900
L47270 42240
L47270 41870
" />
</g>
<g style="fill:#848400; fill-opacity:0.0; 
stroke:#848400; stroke-width:100; stroke-opacity:1; 
stroke-linecap:round; stroke-linejoin:round;">
<polyline fill="none;"
points="47000,41000
47300,41300
47300,41600
46700,41600
46700,41300
47000,41000
" /> 
</g>
<g style="fill:#848400; fill-opacity:0.0; 
stroke:#848400; stroke-width:60; stroke-opacity:1; 
stroke-linecap:round; stroke-linejoin:round;">
<path d="M68870 35730
L68900 35700
L68960 35670
L69100 35670
L69160 35700
L69190 35730
L69220 35790
L69220 35840
L69190 35930
L68850 36270
L69220 36270
" />
<path d="M69390 35670
L69590 36270
L69790 35670
" />
<path d="M70070 35930
L70010 35900
L69980 35870
L69950 35810
L69950 35790
L69980 35730
L70010 35700
L70070 35670
L70180 35670
L70240 35700
L70270 35730
L70300 35790
L70300 35810
L70270 35870
L70240 35900
L70180 35930
L70070 35930
L70010 35960
L69980 35990
L69950 36040
L69950 36160
L69980 36210
L70010 36240
L70070 36270
L70180 36270
L70240 36240
L70270 36210
L70300 36160
L70300 36040
L70270 35990
L70240 35960
L70180 35930
" />
</g>
<g style="fill:#848400; fill-opacity:0.0; 
stroke:#848400; stroke-width:100; stroke-opacity:1; 
stroke-linecap:round; stroke-linejoin:round;">
<polyline fill="none;"
points="68000,36000
68300,36300
68600,36300
68600,35700
68300,35700
68000,36000
" /> 
</g>
<g style="fill:#848400; fill-opacity:0.0; 
stroke:#848400; stroke-width:0; stroke-opacity:1; 
stroke-linecap:round; stroke-linejoin:round;">
</g>
<g style="fill:#008400; fill-opacity:0.0; 
stroke:#008400; stroke-width:0; stroke-opacity:1; 
stroke-linecap:round; stroke-linejoin:round;">
</g>
<g style="fill:#008400; fill-opacity:1.0; 
stroke:#008400; stroke-width:100; stroke-opacity:1; 
stroke-linecap:round; stroke-linejoin:round;">
<circle cx="67000" cy="40000" r="200" /> 
</g>
<g style="fill:#008400; fill-opacity:1.0; 
stroke:#008400; stroke-width:60; stroke-opacity:1; 
stroke-linecap:round; stroke-linejoin:round;">
</g>
<g style="fill:#848400; fill-opacity:0.0; 
stroke:#848400; stroke-width:60; stroke-opacity:1; 
stroke-linecap:round; stroke-linejoin:round;">
<path d="M69220 39700
L69160 39670
L69070 39670
L68990 39700
L68930 39760
L68900 39810
L68870 39930
L68870 40010
L68900 40130
L68930 40190
L68990 40240
L69070 40270
L69130 40270
L69220 40240
L69250 40210
L69250 40010
L69130 40010
" />
<path d="M69500 40270
L69500 39670
L69850 40270
L69850 39670
" />
<path d="M70130 40270
L70130 39670
L70280 39670
L70360 39700
L70420 39760
L70450 39810
L70480 39930
L70480 40010
L70450 40130
L70420 40190
L70360 40240
L70280 40270
L70130 40270
" />
</g>
<g style="fill:#848400; fill-opacity:0.0; 
stroke:#848400; stroke-width:100; stroke-opacity:1; 
stroke-linecap:round; stroke-linejoin:round;">
<polyline fill="none;"
points="68000,40000
68300,40300
68600,40300
68600,39700
68300,39700
68000,40000
" /> 
</g>
<g style="fill:#848400; fill-opacity:0.0; 
stroke:#848400; stroke-width:60; stroke-opacity:1; 
stroke-linecap:round; stroke-linejoin:round;">
<path d="M47010 35670
L47210 36270
L47410 35670
" />
<path d="M47600 36270
L47600 35670
L47800 36100
L48000 35670
L48000 36270
" />
<path d="M48410 35670
L48520 35670
L48580 35700
L48640 35760
L48660 35870
L48660 36070
L48640 36190
L48580 36240
L48520 36270
L48410 36270
L48350 36240
L48290 36190
L48260 36070
L48260 35870
L48290 35760
L48350 35700
L48410 35670
" />
<path d="M48840 35670
L49180 35670
" />
<path d="M49010 36270
L49010 35670
" />
</g>
<g style="fill:#848400; fill-opacity:0.0; 
stroke:#848400; stroke-width:100; stroke-opacity:1; 
stroke-linecap:round; stroke-linejoin:round;">
<polyline fill="none;"
points="50000,36000
49700,35700
49400,35700
49400,36300
49700,36300
50000,36000
" /> 
</g>
<g style="fill:#848400; fill-opacity:0.0; 
stroke:#848400; stroke-width:0; stroke-opacity:1; 
stroke-linecap:round; stroke-linejoin:round;">
</g>
<g style="fill:#840000; fill-opacity:0.0; 
stroke:#840000; stroke-width:0; stroke-opacity:1; 
stroke-linecap:round; stroke-linejoin:round;">
</g>
<g style="fill:#840000; fill-opacity:0.0; 
stroke:#840000; stroke-width:60; stroke-opacity:1; 
stroke-linecap:round; stroke-linejoin:round;">
<polyline fill="none;"
points="53400,34300
52600,34300
" /> 
<polyline fill="none;"
points="53000,34300
53000,33700
" /> 
<polyline fill="none;"
points="53400,33700
53000,34300
52600,33700
53400,33700
" /> 
<path d="M53000 34300
L53000 35000
" />
<path d="M53000 33700
L53000 33000
" />
</g>
<g style="fill:#008484; fill-opacity:0.0; 
stroke:#008484; stroke-width:60; stroke-opacity:1; 
stroke-linecap:round; stroke-linejoin:round;">
<path d="M52460 34370
L51960 34370
L51960 34250
L51980 34180
L52030 34130
L52080 34110
L52170 34090
L52240 34090
L52340 34110
L52380 34130
L52430 34180
L52460 34250
L52460 34370
" />
<path d="M52410 33800
L52430 33780
L52460 33800
L52430 33820
L52410 33800
L52460 33800
" />
<path d="M51980 33890
L51960 33850
L51960 33730
L51980 33680
L52030 33660
L52080 33660
L52120 33680
L52150 33700
L52170 33750
L52190 33780
L52240 33800
L52270 33800
" />
<path d="M54060 35380
L53560 35380
L53560 35260
L53580 35190
L53630 35140
L53680 35120
L53770 35100
L53840 35100
L53940 35120
L53980 35140
L54030 35190
L54060 35260
L54060 35380
" />
<path d="M54100 35000
L54100 34620
" />
<path d="M54030 34520
L54060 34450
L54060 34330
L54030 34290
L54010 34260
L53960 34240
L53910 34240
L53870 34260
L53840 34290
L53820 34330
L53790 34430
L53770 34480
L53750 34500
L53700 34520
L53650 34520
L53600 34500
L53580 34480
L53560 34430
L53560 34310
L53580 34240
" />
<path d="M54060 34020
L53720 34020
" />
<path d="M53770 34020
L53750 34000
L53720 33950
L53720 33880
L53750 33830
L53790 33810
L54060 33810
" />
<path d="M53790 33810
L53750 33780
L53720 33740
L53720 33660
L53750 33620
L53790 33590
L54060 33590
" />
<path d="M54060 33140
L53790 33140
L53750 33160
L53720 33210
L53720 33300
L53750 33350
" />
<path d="M54030 33140
L54060 33180
L54060 33300
L54030 33350
L53980 33370
L53940 33370
L53890 33350
L53870 33300
L53870 33180
L53840 33140
" />
<path d="M54060 32830
L54030 32880
L53980 32900
L53560 32900
" />
<path d="M54060 32570
L54030 32620
L53980 32640
L53560 32640
" />
</g>
<g style="fill:#008400; fill-opacity:0.0; 
stroke:#008400; stroke-width:60; stroke-opacity:1; 
stroke-linecap:round; stroke-linejoin:round;">
<path d="M53000 36000
L53000 35000
" />
</g>
<g style="fill:#008400; fill-opacity:0.0; 
stroke:#008400; stroke-width:0; stroke-opacity:1; 
stroke-linecap:round; stroke-linejoin:round;">
</g>
<g style="fill:#008400; fill-opacity:1.0; 
stroke:#008400; stroke-width:100; stroke-opacity:1; 
stroke-linecap:round; stroke-linejoin:round;">
<circle cx="53000" cy="36000" r="200" /> 
</g>
<g style="fill:#008400; fill-opacity:1.0; 
stroke:#008400; stroke-width:60; stroke-opacity:1; 
stroke-linecap:round; stroke-linejoin:round;">
</g>
<g style="fill:#008400; fill-opacity:0.0; 
stroke:#008400; stroke-width:60; stroke-opacity:1; 
stroke-linecap:round; stroke-linejoin:round;">
<path d="M53000 33000
L53000 32000
" />
</g>
<g style="fill:#848400; fill-opacity:0.0; 
stroke:#848400; stroke-width:60; stroke-opacity:1; 
stroke-linecap:round; stroke-linejoin:round;">
<path d="M52670 31100
L53160 31100
L53210 31070
L53240 31040
L53270 30980
L53270 30870
L53240 30810
L53210 30780
L53160 30750
L52670 30750
" />
<path d="M53240 30500
L53270 30410
L53270 30270
L53240 30210
L53210 30180
L53160 30150
L53100 30150
L53040 30180
L53010 30210
L52990 30270
L52960 30380
L52930 30440
L52900 30470
L52840 30500
L52790 30500
L52730 30470
L52700 30440
L52670 30380
L52670 30240
L52700 30150
" />
<path d="M52960 29700
L52990 29610
L53010 29580
L53070 29550
L53160 29550
L53210 29580
L53240 29610
L53270 29670
L53270 29900
L52670 29900
L52670 29700
L52700 29640
L52730 29610
L52790 29580
L52840 29580
L52900 29610
L52930 29640
L52960 29700
L52960 29900
" />
<path d="M53330 29440
L53330 28980
" />
<path d="M52670 28920
L53270 28720
L52670 28520
" />
<path d="M52960 28130
L52990 28040
L53010 28010
L53070 27980
L53160 27980
L53210 28010
L53240 28040
L53270 28100
L53270 28330
L52670 28330
L52670 28130
L52700 28070
L52730 28040
L52790 28010
L52840 28010
L52900 28040
L52930 28070
L52960 28130
L52960 28330
" />
<path d="M52670 27730
L53160 27730
L53210 27700
L53240 27670
L53270 27610
L53270 27500
L53240 27440
L53210 27410
L53160 27380
L52670 27380
" />
<path d="M53240 27130
L53270 27040
L53270 26900
L53240 26840
L53210 26810
L53160 26780
L53100 26780
L53040 26810
L53010 26840
L52990 26900
L52960 27010
L52930 27070
L52900 27100
L52840 27130
L52790 27130
L52730 27100
L52700 27070
L52670 27010
L52670 26870
L52700 26780
" />
</g>
<g style="fill:#848400; fill-opacity:0.0; 
stroke:#848400; stroke-width:100; stroke-opacity:1; 
stroke-linecap:round; stroke-linejoin:round;">
<polyline fill="none;"
points="53000,32000
53300,31700
53300,31400
52700,31400
52700,31700
53000,32000
" /> 
</g> 
</svg>
