<?xml version="1.0" standalone="no"?>
 <!DOCTYPE svg PUBLIC "-//W3C//DTD SVG 1.1//EN" 
 "http://www.w3.org/Graphics/SVG/1.1/DTD/svg11.dtd"> 
<svg xmlns="http://www.w3.org/2000/svg" version="1.1" 
    width="29.7002cm" height="21.0007cm" viewBox="0 0 116930 82680 ">
<title>SVG Picture created as beacon-brd.svg date 2017/03/17 14:04:23 </title>
  <desc>Picture generated by PCBNEW </desc>
<g style="fill:#000000; fill-opacity:1;stroke:#000000; stroke-opacity:1;
stroke-linecap:round; stroke-linejoin:round; "
 transform="translate(0 0) scale(1 1)">
</g>
<g style="fill:#000000; fill-opacity:0.0; 
stroke:#000000; stroke-width:-0.000393701; stroke-opacity:1; 
stroke-linecap:round; stroke-linejoin:round;">
</g>
<g style="fill:#000000; fill-opacity:0.0; 
stroke:#000000; stroke-width:39.3701; stroke-opacity:1; 
stroke-linecap:round; stroke-linejoin:round;">
</g>
<g style="fill:#000000; fill-opacity:0.0; 
stroke:#000000; stroke-width:59.0551; stroke-opacity:1; 
stroke-linecap:round; stroke-linejoin:round;">
<rect x="69685.9" y="65357.2" width="42519.7" height="12598.4" rx="0" />
</g>
<g style="fill:#000000; fill-opacity:0.0; 
stroke:#000000; stroke-width:39.3701; stroke-opacity:1; 
stroke-linecap:round; stroke-linejoin:round;">
</g>
<g style="fill:#000000; fill-opacity:0.0; 
stroke:#000000; stroke-width:59.0551; stroke-opacity:1; 
stroke-linecap:round; stroke-linejoin:round;">
<rect x="3937.01" y="3937.01" width="109056" height="74806" rx="0" />
</g>
<g style="fill:#000000; fill-opacity:0.0; 
stroke:#000000; stroke-width:39.3701; stroke-opacity:1; 
stroke-linecap:round; stroke-linejoin:round;">
</g>
<g style="fill:#000000; fill-opacity:0.0; 
stroke:#000000; stroke-width:59.0551; stroke-opacity:1; 
stroke-linecap:round; stroke-linejoin:round;">
<rect x="4724.41" y="4724.41" width="107481" height="73231.2" rx="0" />
</g>
<g style="fill:#000000; fill-opacity:0.0; 
stroke:#000000; stroke-width:39.3701; stroke-opacity:1; 
stroke-linecap:round; stroke-linejoin:round;">
</g>
<g style="fill:#000000; fill-opacity:0.0; 
stroke:#000000; stroke-width:59.0551; stroke-opacity:1; 
stroke-linecap:round; stroke-linejoin:round;">
<path d="M23622 4724
L23622 3937
" />
</g>
<g style="fill:#000000; fill-opacity:0.0; 
stroke:#000000; stroke-width:39.3701; stroke-opacity:1; 
stroke-linecap:round; stroke-linejoin:round;">
</g>
<g style="fill:#000000; fill-opacity:0.0; 
stroke:#000000; stroke-width:59.0551; stroke-opacity:1; 
stroke-linecap:round; stroke-linejoin:round;">
<path d="M43307 4724
L43307 3937
" />
</g>
<g style="fill:#000000; fill-opacity:0.0; 
stroke:#000000; stroke-width:39.3701; stroke-opacity:1; 
stroke-linecap:round; stroke-linejoin:round;">
</g>
<g style="fill:#000000; fill-opacity:0.0; 
stroke:#000000; stroke-width:59.0551; stroke-opacity:1; 
stroke-linecap:round; stroke-linejoin:round;">
<path d="M62992 4724
L62992 3937
" />
</g>
<g style="fill:#000000; fill-opacity:0.0; 
stroke:#000000; stroke-width:39.3701; stroke-opacity:1; 
stroke-linecap:round; stroke-linejoin:round;">
</g>
<g style="fill:#000000; fill-opacity:0.0; 
stroke:#000000; stroke-width:59.0551; stroke-opacity:1; 
stroke-linecap:round; stroke-linejoin:round;">
<path d="M82677 4724
L82677 3937
" />
</g>
<g style="fill:#000000; fill-opacity:0.0; 
stroke:#000000; stroke-width:39.3701; stroke-opacity:1; 
stroke-linecap:round; stroke-linejoin:round;">
</g>
<g style="fill:#000000; fill-opacity:0.0; 
stroke:#000000; stroke-width:59.0551; stroke-opacity:1; 
stroke-linecap:round; stroke-linejoin:round;">
<path d="M102362 4724
L102362 3937
" />
</g>
<g style="fill:#000000; fill-opacity:0.0; 
stroke:#000000; stroke-width:39.3701; stroke-opacity:1; 
stroke-linecap:round; stroke-linejoin:round;">
</g>
<g style="fill:#000000; fill-opacity:0.0; 
stroke:#000000; stroke-width:59.0551; stroke-opacity:1; 
stroke-linecap:round; stroke-linejoin:round;">
<path d="M14169 4562
L13877 4562
" />
<path d="M14023 4562
L14023 4050
L13974 4123
L13925 4172
L13877 4196
" />
</g>
<g style="fill:#000000; fill-opacity:0.0; 
stroke:#000000; stroke-width:39.3701; stroke-opacity:1; 
stroke-linecap:round; stroke-linejoin:round;">
</g>
<g style="fill:#000000; fill-opacity:0.0; 
stroke:#000000; stroke-width:59.0551; stroke-opacity:1; 
stroke-linecap:round; stroke-linejoin:round;">
<path d="M33562 4099
L33586 4074
L33635 4050
L33757 4050
L33805 4074
L33830 4099
L33854 4147
L33854 4196
L33830 4269
L33537 4562
L33854 4562
" />
</g>
<g style="fill:#000000; fill-opacity:0.0; 
stroke:#000000; stroke-width:39.3701; stroke-opacity:1; 
stroke-linecap:round; stroke-linejoin:round;">
</g>
<g style="fill:#000000; fill-opacity:0.0; 
stroke:#000000; stroke-width:59.0551; stroke-opacity:1; 
stroke-linecap:round; stroke-linejoin:round;">
<path d="M53222 4050
L53539 4050
L53368 4245
L53442 4245
L53490 4269
L53515 4294
L53539 4342
L53539 4464
L53515 4513
L53490 4537
L53442 4562
L53295 4562
L53247 4537
L53222 4513
" />
</g>
<g style="fill:#000000; fill-opacity:0.0; 
stroke:#000000; stroke-width:39.3701; stroke-opacity:1; 
stroke-linecap:round; stroke-linejoin:round;">
</g>
<g style="fill:#000000; fill-opacity:0.0; 
stroke:#000000; stroke-width:59.0551; stroke-opacity:1; 
stroke-linecap:round; stroke-linejoin:round;">
<path d="M73175 4221
L73175 4562
" />
<path d="M73053 4026
L72932 4391
L73248 4391
" />
</g>
<g style="fill:#000000; fill-opacity:0.0; 
stroke:#000000; stroke-width:39.3701; stroke-opacity:1; 
stroke-linecap:round; stroke-linejoin:round;">
</g>
<g style="fill:#000000; fill-opacity:0.0; 
stroke:#000000; stroke-width:59.0551; stroke-opacity:1; 
stroke-linecap:round; stroke-linejoin:round;">
<path d="M92885 4050
L92641 4050
L92617 4294
L92641 4269
L92690 4245
L92812 4245
L92860 4269
L92885 4294
L92909 4342
L92909 4464
L92885 4513
L92860 4537
L92812 4562
L92690 4562
L92641 4537
L92617 4513
" />
</g>
<g style="fill:#000000; fill-opacity:0.0; 
stroke:#000000; stroke-width:39.3701; stroke-opacity:1; 
stroke-linecap:round; stroke-linejoin:round;">
</g>
<g style="fill:#000000; fill-opacity:0.0; 
stroke:#000000; stroke-width:59.0551; stroke-opacity:1; 
stroke-linecap:round; stroke-linejoin:round;">
<path d="M112545 4050
L112448 4050
L112399 4074
L112375 4099
L112326 4172
L112302 4269
L112302 4464
L112326 4513
L112350 4537
L112399 4562
L112497 4562
L112545 4537
L112570 4513
L112594 4464
L112594 4342
L112570 4294
L112545 4269
L112497 4245
L112399 4245
L112350 4269
L112326 4294
L112302 4342
" />
</g>
<g style="fill:#000000; fill-opacity:0.0; 
stroke:#000000; stroke-width:39.3701; stroke-opacity:1; 
stroke-linecap:round; stroke-linejoin:round;">
</g>
<g style="fill:#000000; fill-opacity:0.0; 
stroke:#000000; stroke-width:59.0551; stroke-opacity:1; 
stroke-linecap:round; stroke-linejoin:round;">
<path d="M23622 77955
L23622 78742
" />
</g>
<g style="fill:#000000; fill-opacity:0.0; 
stroke:#000000; stroke-width:39.3701; stroke-opacity:1; 
stroke-linecap:round; stroke-linejoin:round;">
</g>
<g style="fill:#000000; fill-opacity:0.0; 
stroke:#000000; stroke-width:59.0551; stroke-opacity:1; 
stroke-linecap:round; stroke-linejoin:round;">
<path d="M43307 77955
L43307 78742
" />
</g>
<g style="fill:#000000; fill-opacity:0.0; 
stroke:#000000; stroke-width:39.3701; stroke-opacity:1; 
stroke-linecap:round; stroke-linejoin:round;">
</g>
<g style="fill:#000000; fill-opacity:0.0; 
stroke:#000000; stroke-width:59.0551; stroke-opacity:1; 
stroke-linecap:round; stroke-linejoin:round;">
<path d="M62992 77955
L62992 78742
" />
</g>
<g style="fill:#000000; fill-opacity:0.0; 
stroke:#000000; stroke-width:39.3701; stroke-opacity:1; 
stroke-linecap:round; stroke-linejoin:round;">
</g>
<g style="fill:#000000; fill-opacity:0.0; 
stroke:#000000; stroke-width:59.0551; stroke-opacity:1; 
stroke-linecap:round; stroke-linejoin:round;">
<path d="M82677 77955
L82677 78742
" />
</g>
<g style="fill:#000000; fill-opacity:0.0; 
stroke:#000000; stroke-width:39.3701; stroke-opacity:1; 
stroke-linecap:round; stroke-linejoin:round;">
</g>
<g style="fill:#000000; fill-opacity:0.0; 
stroke:#000000; stroke-width:59.0551; stroke-opacity:1; 
stroke-linecap:round; stroke-linejoin:round;">
<path d="M102362 77955
L102362 78742
" />
</g>
<g style="fill:#000000; fill-opacity:0.0; 
stroke:#000000; stroke-width:39.3701; stroke-opacity:1; 
stroke-linecap:round; stroke-linejoin:round;">
</g>
<g style="fill:#000000; fill-opacity:0.0; 
stroke:#000000; stroke-width:59.0551; stroke-opacity:1; 
stroke-linecap:round; stroke-linejoin:round;">
<path d="M14169 78580
L13877 78580
" />
<path d="M14023 78580
L14023 78069
L13974 78142
L13925 78190
L13877 78215
" />
</g>
<g style="fill:#000000; fill-opacity:0.0; 
stroke:#000000; stroke-width:39.3701; stroke-opacity:1; 
stroke-linecap:round; stroke-linejoin:round;">
</g>
<g style="fill:#000000; fill-opacity:0.0; 
stroke:#000000; stroke-width:59.0551; stroke-opacity:1; 
stroke-linecap:round; stroke-linejoin:round;">
<path d="M33562 78117
L33586 78093
L33635 78069
L33757 78069
L33805 78093
L33830 78117
L33854 78166
L33854 78215
L33830 78288
L33537 78580
L33854 78580
" />
</g>
<g style="fill:#000000; fill-opacity:0.0; 
stroke:#000000; stroke-width:39.3701; stroke-opacity:1; 
stroke-linecap:round; stroke-linejoin:round;">
</g>
<g style="fill:#000000; fill-opacity:0.0; 
stroke:#000000; stroke-width:59.0551; stroke-opacity:1; 
stroke-linecap:round; stroke-linejoin:round;">
<path d="M53222 78069
L53539 78069
L53368 78263
L53442 78263
L53490 78288
L53515 78312
L53539 78361
L53539 78483
L53515 78532
L53490 78556
L53442 78580
L53295 78580
L53247 78556
L53222 78532
" />
</g>
<g style="fill:#000000; fill-opacity:0.0; 
stroke:#000000; stroke-width:39.3701; stroke-opacity:1; 
stroke-linecap:round; stroke-linejoin:round;">
</g>
<g style="fill:#000000; fill-opacity:0.0; 
stroke:#000000; stroke-width:59.0551; stroke-opacity:1; 
stroke-linecap:round; stroke-linejoin:round;">
<path d="M73175 78239
L73175 78580
" />
<path d="M73053 78044
L72932 78410
L73248 78410
" />
</g>
<g style="fill:#000000; fill-opacity:0.0; 
stroke:#000000; stroke-width:39.3701; stroke-opacity:1; 
stroke-linecap:round; stroke-linejoin:round;">
</g>
<g style="fill:#000000; fill-opacity:0.0; 
stroke:#000000; stroke-width:59.0551; stroke-opacity:1; 
stroke-linecap:round; stroke-linejoin:round;">
<path d="M92885 78069
L92641 78069
L92617 78312
L92641 78288
L92690 78263
L92812 78263
L92860 78288
L92885 78312
L92909 78361
L92909 78483
L92885 78532
L92860 78556
L92812 78580
L92690 78580
L92641 78556
L92617 78532
" />
</g>
<g style="fill:#000000; fill-opacity:0.0; 
stroke:#000000; stroke-width:39.3701; stroke-opacity:1; 
stroke-linecap:round; stroke-linejoin:round;">
</g>
<g style="fill:#000000; fill-opacity:0.0; 
stroke:#000000; stroke-width:59.0551; stroke-opacity:1; 
stroke-linecap:round; stroke-linejoin:round;">
<path d="M112545 78069
L112448 78069
L112399 78093
L112375 78117
L112326 78190
L112302 78288
L112302 78483
L112326 78532
L112350 78556
L112399 78580
L112497 78580
L112545 78556
L112570 78532
L112594 78483
L112594 78361
L112570 78312
L112545 78288
L112497 78263
L112399 78263
L112350 78288
L112326 78312
L112302 78361
" />
</g>
<g style="fill:#000000; fill-opacity:0.0; 
stroke:#000000; stroke-width:39.3701; stroke-opacity:1; 
stroke-linecap:round; stroke-linejoin:round;">
</g>
<g style="fill:#000000; fill-opacity:0.0; 
stroke:#000000; stroke-width:59.0551; stroke-opacity:1; 
stroke-linecap:round; stroke-linejoin:round;">
<path d="M3937 23622
L4724 23622
" />
</g>
<g style="fill:#000000; fill-opacity:0.0; 
stroke:#000000; stroke-width:39.3701; stroke-opacity:1; 
stroke-linecap:round; stroke-linejoin:round;">
</g>
<g style="fill:#000000; fill-opacity:0.0; 
stroke:#000000; stroke-width:59.0551; stroke-opacity:1; 
stroke-linecap:round; stroke-linejoin:round;">
<path d="M3937 43307
L4724 43307
" />
</g>
<g style="fill:#000000; fill-opacity:0.0; 
stroke:#000000; stroke-width:39.3701; stroke-opacity:1; 
stroke-linecap:round; stroke-linejoin:round;">
</g>
<g style="fill:#000000; fill-opacity:0.0; 
stroke:#000000; stroke-width:59.0551; stroke-opacity:1; 
stroke-linecap:round; stroke-linejoin:round;">
<path d="M3937 62992
L4724 62992
" />
</g>
<g style="fill:#000000; fill-opacity:0.0; 
stroke:#000000; stroke-width:39.3701; stroke-opacity:1; 
stroke-linecap:round; stroke-linejoin:round;">
</g>
<g style="fill:#000000; fill-opacity:0.0; 
stroke:#000000; stroke-width:59.0551; stroke-opacity:1; 
stroke-linecap:round; stroke-linejoin:round;">
<path d="M4208 13864
L4452 13864
" />
<path d="M4160 14011
L4330 13499
L4501 14011
" />
</g>
<g style="fill:#000000; fill-opacity:0.0; 
stroke:#000000; stroke-width:39.3701; stroke-opacity:1; 
stroke-linecap:round; stroke-linejoin:round;">
</g>
<g style="fill:#000000; fill-opacity:0.0; 
stroke:#000000; stroke-width:59.0551; stroke-opacity:1; 
stroke-linecap:round; stroke-linejoin:round;">
<path d="M4367 33428
L4440 33452
L4464 33476
L4489 33525
L4489 33598
L4464 33647
L4440 33671
L4391 33696
L4196 33696
L4196 33184
L4367 33184
L4416 33208
L4440 33233
L4464 33281
L4464 33330
L4440 33379
L4416 33403
L4367 33428
L4196 33428
" />
</g>
<g style="fill:#000000; fill-opacity:0.0; 
stroke:#000000; stroke-width:39.3701; stroke-opacity:1; 
stroke-linecap:round; stroke-linejoin:round;">
</g>
<g style="fill:#000000; fill-opacity:0.0; 
stroke:#000000; stroke-width:59.0551; stroke-opacity:1; 
stroke-linecap:round; stroke-linejoin:round;">
<path d="M4489 53332
L4464 53356
L4391 53381
L4342 53381
L4269 53356
L4221 53308
L4196 53259
L4172 53161
L4172 53088
L4196 52991
L4221 52942
L4269 52893
L4342 52869
L4391 52869
L4464 52893
L4489 52918
" />
</g>
<g style="fill:#000000; fill-opacity:0.0; 
stroke:#000000; stroke-width:39.3701; stroke-opacity:1; 
stroke-linecap:round; stroke-linejoin:round;">
</g>
<g style="fill:#000000; fill-opacity:0.0; 
stroke:#000000; stroke-width:59.0551; stroke-opacity:1; 
stroke-linecap:round; stroke-linejoin:round;">
<path d="M4196 73066
L4196 72554
L4318 72554
L4391 72578
L4440 72627
L4464 72676
L4489 72773
L4489 72846
L4464 72944
L4440 72993
L4391 73041
L4318 73066
L4196 73066
" />
</g>
<g style="fill:#000000; fill-opacity:0.0; 
stroke:#000000; stroke-width:39.3701; stroke-opacity:1; 
stroke-linecap:round; stroke-linejoin:round;">
</g>
<g style="fill:#000000; fill-opacity:0.0; 
stroke:#000000; stroke-width:59.0551; stroke-opacity:1; 
stroke-linecap:round; stroke-linejoin:round;">
<path d="M112992 23622
L112205 23622
" />
</g>
<g style="fill:#000000; fill-opacity:0.0; 
stroke:#000000; stroke-width:39.3701; stroke-opacity:1; 
stroke-linecap:round; stroke-linejoin:round;">
</g>
<g style="fill:#000000; fill-opacity:0.0; 
stroke:#000000; stroke-width:59.0551; stroke-opacity:1; 
stroke-linecap:round; stroke-linejoin:round;">
<path d="M112992 43307
L112205 43307
" />
</g>
<g style="fill:#000000; fill-opacity:0.0; 
stroke:#000000; stroke-width:39.3701; stroke-opacity:1; 
stroke-linecap:round; stroke-linejoin:round;">
</g>
<g style="fill:#000000; fill-opacity:0.0; 
stroke:#000000; stroke-width:59.0551; stroke-opacity:1; 
stroke-linecap:round; stroke-linejoin:round;">
<path d="M112992 62992
L112205 62992
" />
</g>
<g style="fill:#000000; fill-opacity:0.0; 
stroke:#000000; stroke-width:39.3701; stroke-opacity:1; 
stroke-linecap:round; stroke-linejoin:round;">
</g>
<g style="fill:#000000; fill-opacity:0.0; 
stroke:#000000; stroke-width:59.0551; stroke-opacity:1; 
stroke-linecap:round; stroke-linejoin:round;">
<path d="M112477 13864
L112721 13864
" />
<path d="M112428 14011
L112599 13499
L112769 14011
" />
</g>
<g style="fill:#000000; fill-opacity:0.0; 
stroke:#000000; stroke-width:39.3701; stroke-opacity:1; 
stroke-linecap:round; stroke-linejoin:round;">
</g>
<g style="fill:#000000; fill-opacity:0.0; 
stroke:#000000; stroke-width:59.0551; stroke-opacity:1; 
stroke-linecap:round; stroke-linejoin:round;">
<path d="M112635 33428
L112708 33452
L112733 33476
L112757 33525
L112757 33598
L112733 33647
L112708 33671
L112660 33696
L112465 33696
L112465 33184
L112635 33184
L112684 33208
L112708 33233
L112733 33281
L112733 33330
L112708 33379
L112684 33403
L112635 33428
L112465 33428
" />
</g>
<g style="fill:#000000; fill-opacity:0.0; 
stroke:#000000; stroke-width:39.3701; stroke-opacity:1; 
stroke-linecap:round; stroke-linejoin:round;">
</g>
<g style="fill:#000000; fill-opacity:0.0; 
stroke:#000000; stroke-width:59.0551; stroke-opacity:1; 
stroke-linecap:round; stroke-linejoin:round;">
<path d="M112757 53332
L112733 53356
L112660 53381
L112611 53381
L112538 53356
L112489 53308
L112465 53259
L112440 53161
L112440 53088
L112465 52991
L112489 52942
L112538 52893
L112611 52869
L112660 52869
L112733 52893
L112757 52918
" />
</g>
<g style="fill:#000000; fill-opacity:0.0; 
stroke:#000000; stroke-width:39.3701; stroke-opacity:1; 
stroke-linecap:round; stroke-linejoin:round;">
</g>
<g style="fill:#000000; fill-opacity:0.0; 
stroke:#000000; stroke-width:59.0551; stroke-opacity:1; 
stroke-linecap:round; stroke-linejoin:round;">
<path d="M112465 73066
L112465 72554
L112587 72554
L112660 72578
L112708 72627
L112733 72676
L112757 72773
L112757 72846
L112733 72944
L112708 72993
L112660 73041
L112587 73066
L112465 73066
" />
</g>
<g style="fill:#000000; fill-opacity:0.0; 
stroke:#000000; stroke-width:39.3701; stroke-opacity:1; 
stroke-linecap:round; stroke-linejoin:round;">
</g>
<g style="fill:#000000; fill-opacity:0.0; 
stroke:#000000; stroke-width:59.0551; stroke-opacity:1; 
stroke-linecap:round; stroke-linejoin:round;">
<path d="M78881 76293
L78881 75703
L79022 75703
L79106 75731
L79162 75787
L79190 75843
L79219 75956
L79219 76040
L79190 76153
L79162 76209
L79106 76265
L79022 76293
L78881 76293
" />
<path d="M79725 76293
L79725 75984
L79697 75928
L79640 75899
L79528 75899
L79472 75928
" />
<path d="M79725 76265
L79669 76293
L79528 76293
L79472 76265
L79444 76209
L79444 76153
L79472 76096
L79528 76068
L79669 76068
L79725 76040
" />
<path d="M79922 75899
L80147 75899
" />
<path d="M80006 75703
L80006 76209
L80034 76265
L80090 76293
L80147 76293
" />
<path d="M80568 76265
L80512 76293
L80400 76293
L80343 76265
L80315 76209
L80315 75984
L80343 75928
L80400 75899
L80512 75899
L80568 75928
L80597 75984
L80597 76040
L80315 76096
" />
<path d="M80850 76237
L80878 76265
L80850 76293
L80822 76265
L80850 76237
L80850 76293
" />
<path d="M80850 75928
L80878 75956
L80850 75984
L80822 75956
L80850 75928
L80850 75984
" />
<path d="M81553 75759
L81581 75731
L81637 75703
L81778 75703
L81834 75731
L81862 75759
L81890 75815
L81890 75871
L81862 75956
L81525 76293
L81890 76293
" />
<path d="M82256 75703
L82312 75703
L82368 75731
L82396 75759
L82424 75815
L82453 75928
L82453 76068
L82424 76181
L82396 76237
L82368 76265
L82312 76293
L82256 76293
L82199 76265
L82171 76237
L82143 76181
L82115 76068
L82115 75928
L82143 75815
L82171 75759
L82199 75731
L82256 75703
" />
<path d="M83015 76293
L82678 76293
" />
<path d="M82846 76293
L82846 75703
L82790 75787
L82734 75843
L82678 75871
" />
<path d="M83212 75703
L83606 75703
L83352 76293
" />
<path d="M83831 76068
L84280 76068
" />
<path d="M84674 75703
L84730 75703
L84787 75731
L84815 75759
L84843 75815
L84871 75928
L84871 76068
L84843 76181
L84815 76237
L84787 76265
L84730 76293
L84674 76293
L84618 76265
L84590 76237
L84562 76181
L84534 76068
L84534 75928
L84562 75815
L84590 75759
L84618 75731
L84674 75703
" />
<path d="M85068 75703
L85433 75703
L85237 75928
L85321 75928
L85377 75956
L85405 75984
L85433 76040
L85433 76181
L85405 76237
L85377 76265
L85321 76293
L85152 76293
L85096 76265
L85068 76237
" />
<path d="M85687 76068
L86136 76068
" />
<path d="M86727 76293
L86390 76293
" />
<path d="M86558 76293
L86558 75703
L86502 75787
L86446 75843
L86390 75871
" />
<path d="M87233 75703
L87121 75703
L87064 75731
L87036 75759
L86980 75843
L86952 75956
L86952 76181
L86980 76237
L87008 76265
L87064 76293
L87177 76293
L87233 76265
L87261 76237
L87289 76181
L87289 76040
L87261 75984
L87233 75956
L87177 75928
L87064 75928
L87008 75956
L86980 75984
L86952 76040
" />
</g>
<g style="fill:#000000; fill-opacity:0.0; 
stroke:#000000; stroke-width:39.3701; stroke-opacity:1; 
stroke-linecap:round; stroke-linejoin:round;">
</g>
<g style="fill:#000000; fill-opacity:0.0; 
stroke:#000000; stroke-width:59.0551; stroke-opacity:1; 
stroke-linecap:round; stroke-linejoin:round;">
<path d="M69685 76577
L112205 76577
" />
</g>
<g style="fill:#000000; fill-opacity:0.0; 
stroke:#000000; stroke-width:39.3701; stroke-opacity:1; 
stroke-linecap:round; stroke-linejoin:round;">
</g>
<g style="fill:#000000; fill-opacity:0.0; 
stroke:#000000; stroke-width:59.0551; stroke-opacity:1; 
stroke-linecap:round; stroke-linejoin:round;">
<path d="M70220 77395
L70220 76805
" />
<path d="M70557 77395
L70304 77058
" />
<path d="M70557 76805
L70220 77142
" />
<path d="M70810 77395
L70810 77002
" />
<path d="M70810 76805
L70782 76833
L70810 76861
L70838 76833
L70810 76805
L70810 76861
" />
<path d="M71429 77339
L71401 77367
L71316 77395
L71260 77395
L71176 77367
L71120 77311
L71091 77255
L71063 77142
L71063 77058
L71091 76946
L71120 76889
L71176 76833
L71260 76805
L71316 76805
L71401 76833
L71429 76861
" />
<path d="M71935 77395
L71935 77086
L71907 77030
L71851 77002
L71738 77002
L71682 77030
" />
<path d="M71935 77367
L71879 77395
L71738 77395
L71682 77367
L71654 77311
L71654 77255
L71682 77199
L71738 77171
L71879 77171
L71935 77142
" />
<path d="M72469 77395
L72469 76805
" />
<path d="M72469 77367
L72413 77395
L72301 77395
L72244 77367
L72216 77339
L72188 77283
L72188 77114
L72216 77058
L72244 77030
L72301 77002
L72413 77002
L72469 77030
" />
<path d="M73201 77086
L73397 77086
" />
<path d="M73482 77395
L73201 77395
L73201 76805
L73482 76805
" />
<path d="M73735 77339
L73763 77367
L73735 77395
L73707 77367
L73735 77339
L73735 77395
" />
<path d="M74016 77395
L74016 76805
L74157 76805
L74241 76833
L74297 76889
L74325 76946
L74354 77058
L74354 77142
L74325 77255
L74297 77311
L74241 77367
L74157 77395
L74016 77395
" />
<path d="M74607 77339
L74635 77367
L74607 77395
L74579 77367
L74607 77339
L74607 77395
" />
<path d="M74860 77227
L75141 77227
" />
<path d="M74804 77395
L75000 76805
L75197 77395
" />
<path d="M75394 77339
L75422 77367
L75394 77395
L75366 77367
L75394 77339
L75394 77395
" />
<path d="M76575 77395
L76575 76805
" />
<path d="M76631 77171
L76800 77395
" />
<path d="M76800 77002
L76575 77227
" />
<path d="M77053 77395
L77053 77002
" />
<path d="M77053 76805
L77025 76833
L77053 76861
L77081 76833
L77053 76805
L77053 76861
" />
<path d="M77588 77367
L77531 77395
L77419 77395
L77363 77367
L77334 77339
L77306 77283
L77306 77114
L77334 77058
L77363 77030
L77419 77002
L77531 77002
L77588 77030
" />
<path d="M78094 77395
L78094 77086
L78066 77030
L78009 77002
L77897 77002
L77841 77030
" />
<path d="M78094 77367
L78037 77395
L77897 77395
L77841 77367
L77813 77311
L77813 77255
L77841 77199
L77897 77171
L78037 77171
L78094 77142
" />
<path d="M78628 77395
L78628 76805
" />
<path d="M78628 77367
L78572 77395
L78459 77395
L78403 77367
L78375 77339
L78347 77283
L78347 77114
L78375 77058
L78403 77030
L78459 77002
L78572 77002
L78628 77030
" />
<path d="M79612 77002
L79612 77395
" />
<path d="M79472 76777
L79331 77199
L79697 77199
" />
<path d="M79922 77339
L79950 77367
L79922 77395
L79894 77367
L79922 77339
L79922 77395
" />
<path d="M80315 76805
L80372 76805
L80428 76833
L80456 76861
L80484 76917
L80512 77030
L80512 77171
L80484 77283
L80456 77339
L80428 77367
L80372 77395
L80315 77395
L80259 77367
L80231 77339
L80203 77283
L80175 77171
L80175 77030
L80203 76917
L80231 76861
L80259 76833
L80315 76805
" />
<path d="M80765 77339
L80793 77367
L80765 77395
L80737 77367
L80765 77339
L80765 77395
" />
<path d="M81300 76805
L81187 76805
L81131 76833
L81103 76861
L81046 76946
L81018 77058
L81018 77283
L81046 77339
L81075 77367
L81131 77395
L81243 77395
L81300 77367
L81328 77339
L81356 77283
L81356 77142
L81328 77086
L81300 77058
L81243 77030
L81131 77030
L81075 77058
L81046 77086
L81018 77142
" />
</g>
<g style="fill:#000000; fill-opacity:0.0; 
stroke:#000000; stroke-width:39.3701; stroke-opacity:1; 
stroke-linecap:round; stroke-linejoin:round;">
</g>
<g style="fill:#000000; fill-opacity:0.0; 
stroke:#000000; stroke-width:59.0551; stroke-opacity:1; 
stroke-linecap:round; stroke-linejoin:round;">
<path d="M69685 75396
L112205 75396
" />
</g>
<g style="fill:#000000; fill-opacity:0.0; 
stroke:#000000; stroke-width:39.3701; stroke-opacity:1; 
stroke-linecap:round; stroke-linejoin:round;">
</g>
<g style="fill:#000000; fill-opacity:0.0; 
stroke:#000000; stroke-width:118.11; stroke-opacity:1; 
stroke-linecap:round; stroke-linejoin:round;">
<path d="M104022 76293
L103825 76012
" />
<path d="M103684 76293
L103684 75703
L103909 75703
L103965 75731
L103994 75759
L104022 75815
L104022 75899
L103994 75956
L103965 75984
L103909 76012
L103684 76012
" />
<path d="M104500 76265
L104444 76293
L104331 76293
L104275 76265
L104247 76209
L104247 75984
L104275 75928
L104331 75899
L104444 75899
L104500 75928
L104528 75984
L104528 76040
L104247 76096
" />
<path d="M104725 75899
L104865 76293
L105006 75899
" />
<path d="M105231 76237
L105259 76265
L105231 76293
L105203 76265
L105231 76237
L105231 76293
" />
<path d="M105231 75928
L105259 75956
L105231 75984
L105203 75956
L105231 75928
L105231 75984
" />
<path d="M106271 76293
L105934 76293
" />
<path d="M106103 76293
L106103 75703
L106046 75787
L105990 75843
L105934 75871
" />
<path d="M106525 76237
L106553 76265
L106525 76293
L106496 76265
L106525 76237
L106525 76293
" />
<path d="M107115 76293
L106778 76293
" />
<path d="M106946 76293
L106946 75703
L106890 75787
L106834 75843
L106778 75871
" />
</g>
<g style="fill:#000000; fill-opacity:0.0; 
stroke:#000000; stroke-width:39.3701; stroke-opacity:1; 
stroke-linecap:round; stroke-linejoin:round;">
</g>
<g style="fill:#000000; fill-opacity:0.0; 
stroke:#000000; stroke-width:59.0551; stroke-opacity:1; 
stroke-linecap:round; stroke-linejoin:round;">
<path d="M70192 76265
L70276 76293
L70417 76293
L70473 76265
L70501 76237
L70529 76181
L70529 76124
L70501 76068
L70473 76040
L70417 76012
L70304 75984
L70248 75956
L70220 75928
L70192 75871
L70192 75815
L70220 75759
L70248 75731
L70304 75703
L70445 75703
L70529 75731
" />
<path d="M70782 76293
L70782 75899
" />
<path d="M70782 75703
L70754 75731
L70782 75759
L70810 75731
L70782 75703
L70782 75759
" />
<path d="M71007 75899
L71316 75899
L71007 76293
L71316 76293
" />
<path d="M71766 76265
L71710 76293
L71598 76293
L71541 76265
L71513 76209
L71513 75984
L71541 75928
L71598 75899
L71710 75899
L71766 75928
L71795 75984
L71795 76040
L71513 76096
" />
<path d="M72048 76237
L72076 76265
L72048 76293
L72019 76265
L72048 76237
L72048 76293
" />
<path d="M72048 75928
L72076 75956
L72048 75984
L72019 75956
L72048 75928
L72048 75984
" />
<path d="M72751 76124
L73032 76124
" />
<path d="M72694 76293
L72891 75703
L73088 76293
" />
<path d="M73538 75899
L73538 76293
" />
<path d="M73397 75674
L73257 76096
L73622 76096
" />
</g>
<g style="fill:#000000; fill-opacity:0.0; 
stroke:#000000; stroke-width:39.3701; stroke-opacity:1; 
stroke-linecap:round; stroke-linejoin:round;">
</g>
<g style="fill:#000000; fill-opacity:0.0; 
stroke:#000000; stroke-width:59.0551; stroke-opacity:1; 
stroke-linecap:round; stroke-linejoin:round;">
<path d="M103684 77395
L103684 76805
" />
<path d="M104219 77395
L104219 76805
" />
<path d="M104219 77367
L104162 77395
L104050 77395
L103994 77367
L103965 77339
L103937 77283
L103937 77114
L103965 77058
L103994 77030
L104050 77002
L104162 77002
L104219 77030
" />
<path d="M104500 77339
L104528 77367
L104500 77395
L104472 77367
L104500 77339
L104500 77395
" />
<path d="M104500 77030
L104528 77058
L104500 77086
L104472 77058
L104500 77030
L104500 77086
" />
<path d="M105540 77395
L105203 77395
" />
<path d="M105372 77395
L105372 76805
L105315 76889
L105259 76946
L105203 76974
" />
<path d="M106215 76777
L105709 77536
" />
<path d="M106721 77395
L106384 77395
" />
<path d="M106553 77395
L106553 76805
L106496 76889
L106440 76946
L106384 76974
" />
</g>
<g style="fill:#000000; fill-opacity:0.0; 
stroke:#000000; stroke-width:39.3701; stroke-opacity:1; 
stroke-linecap:round; stroke-linejoin:round;">
</g>
<g style="fill:#000000; fill-opacity:0.0; 
stroke:#000000; stroke-width:59.0551; stroke-opacity:1; 
stroke-linecap:round; stroke-linejoin:round;">
<path d="M69685 73821
L112205 73821
" />
</g>
<g style="fill:#000000; fill-opacity:0.0; 
stroke:#000000; stroke-width:39.3701; stroke-opacity:1; 
stroke-linecap:round; stroke-linejoin:round;">
</g>
<g style="fill:#000000; fill-opacity:0.0; 
stroke:#000000; stroke-width:157.48; stroke-opacity:1; 
stroke-linecap:round; stroke-linejoin:round;">
<path d="M70257 74099
L70707 74099
" />
<path d="M70384 74886
L70482 74099
" />
<path d="M70871 74886
L70937 74361
" />
<path d="M70970 74099
L70927 74136
L70960 74174
L71002 74136
L70970 74099
L70960 74174
" />
<path d="M71199 74361
L71499 74361
" />
<path d="M71345 74099
L71260 74774
L71288 74849
L71359 74886
L71434 74886
" />
<path d="M71809 74886
L71738 74849
L71710 74774
L71795 74099
" />
<path d="M72413 74849
L72334 74886
L72184 74886
L72113 74849
L72085 74774
L72123 74474
L72169 74399
L72249 74361
L72399 74361
L72469 74399
L72498 74474
L72488 74549
L72104 74624
" />
<path d="M72793 74811
L72826 74849
L72783 74886
L72751 74849
L72793 74811
L72783 74886
" />
<path d="M72844 74399
L72877 74436
L72835 74474
L72802 74436
L72844 74399
L72835 74474
" />
<path d="M73758 74886
L73857 74099
" />
<path d="M74583 74886
L74368 74511
" />
<path d="M74133 74886
L74232 74099
L74532 74099
L74602 74136
L74635 74174
L74663 74249
L74649 74361
L74602 74436
L74560 74474
L74480 74511
L74180 74511
" />
<path d="M75835 74474
L75942 74511
L75975 74549
L76003 74624
L75989 74736
L75942 74811
L75900 74849
L75821 74886
L75521 74886
L75619 74099
L75882 74099
L75952 74136
L75985 74174
L76013 74249
L76003 74324
L75956 74399
L75914 74436
L75835 74474
L75572 74474
" />
<path d="M76613 74849
L76533 74886
L76383 74886
L76313 74849
L76285 74774
L76322 74474
L76369 74399
L76449 74361
L76599 74361
L76669 74399
L76697 74474
L76688 74549
L76303 74624
" />
<path d="M77320 74886
L77372 74474
L77344 74399
L77274 74361
L77124 74361
L77044 74399
" />
<path d="M77325 74849
L77245 74886
L77058 74886
L76988 74849
L76959 74774
L76969 74699
L77016 74624
L77095 74586
L77283 74586
L77363 74549
" />
<path d="M78037 74849
L77958 74886
L77808 74886
L77738 74849
L77705 74811
L77677 74736
L77705 74511
L77752 74436
L77794 74399
L77873 74361
L78023 74361
L78094 74399
" />
<path d="M78483 74886
L78412 74849
L78380 74811
L78352 74736
L78380 74511
L78427 74436
L78469 74399
L78548 74361
L78661 74361
L78731 74399
L78764 74436
L78792 74511
L78764 74736
L78717 74811
L78675 74849
L78595 74886
L78483 74886
" />
<path d="M79148 74361
L79083 74886
" />
<path d="M79139 74436
L79181 74399
L79261 74361
L79373 74361
L79444 74399
L79472 74474
L79420 74886
" />
<path d="M80709 74474
L80817 74511
L80850 74549
L80878 74624
L80864 74736
L80817 74811
L80775 74849
L80695 74886
L80395 74886
L80493 74099
L80756 74099
L80826 74136
L80859 74174
L80887 74249
L80878 74324
L80831 74399
L80789 74436
L80709 74474
L80447 74474
" />
<path d="M81295 74886
L81225 74849
L81192 74811
L81164 74736
L81192 74511
L81239 74436
L81281 74399
L81361 74361
L81473 74361
L81543 74399
L81576 74436
L81604 74511
L81576 74736
L81529 74811
L81487 74849
L81407 74886
L81295 74886
" />
<path d="M82232 74886
L82284 74474
L82256 74399
L82185 74361
L82035 74361
L81956 74399
" />
<path d="M82237 74849
L82157 74886
L81970 74886
L81900 74849
L81871 74774
L81881 74699
L81928 74624
L82007 74586
L82195 74586
L82274 74549
" />
<path d="M82607 74886
L82673 74361
" />
<path d="M82654 74511
L82701 74436
L82743 74399
L82823 74361
L82898 74361
" />
<path d="M83432 74886
L83531 74099
" />
<path d="M83437 74849
L83357 74886
L83207 74886
L83137 74849
L83104 74811
L83076 74736
L83104 74511
L83151 74436
L83193 74399
L83273 74361
L83423 74361
L83493 74399
" />
</g>
<g style="fill:#000000; fill-opacity:0.0; 
stroke:#000000; stroke-width:39.3701; stroke-opacity:1; 
stroke-linecap:round; stroke-linejoin:round;">
</g>
<g style="fill:#000000; fill-opacity:0.0; 
stroke:#000000; stroke-width:59.0551; stroke-opacity:1; 
stroke-linecap:round; stroke-linejoin:round;">
<path d="M70417 73070
L70220 73070
" />
<path d="M70220 73380
L70220 72789
L70501 72789
" />
<path d="M70726 73380
L70726 72986
" />
<path d="M70726 72789
L70698 72817
L70726 72845
L70754 72817
L70726 72789
L70726 72845
" />
<path d="M71091 73380
L71035 73352
L71007 73295
L71007 72789
" />
<path d="M71541 73352
L71485 73380
L71373 73380
L71316 73352
L71288 73295
L71288 73070
L71316 73014
L71373 72986
L71485 72986
L71541 73014
L71570 73070
L71570 73127
L71288 73183
" />
<path d="M71823 73323
L71851 73352
L71823 73380
L71795 73352
L71823 73323
L71823 73380
" />
<path d="M71823 73014
L71851 73042
L71823 73070
L71795 73042
L71823 73014
L71823 73070
" />
<path d="M72554 73380
L72554 72789
" />
<path d="M72554 73014
L72610 72986
L72723 72986
L72779 73014
L72807 73042
L72835 73099
L72835 73267
L72807 73323
L72779 73352
L72723 73380
L72610 73380
L72554 73352
" />
<path d="M73313 73352
L73257 73380
L73144 73380
L73088 73352
L73060 73295
L73060 73070
L73088 73014
L73144 72986
L73257 72986
L73313 73014
L73341 73070
L73341 73127
L73060 73183
" />
<path d="M73847 73380
L73847 73070
L73819 73014
L73763 72986
L73651 72986
L73594 73014
" />
<path d="M73847 73352
L73791 73380
L73651 73380
L73594 73352
L73566 73295
L73566 73239
L73594 73183
L73651 73155
L73791 73155
L73847 73127
" />
<path d="M74382 73352
L74325 73380
L74213 73380
L74157 73352
L74129 73323
L74100 73267
L74100 73099
L74129 73042
L74157 73014
L74213 72986
L74325 72986
L74382 73014
" />
<path d="M74719 73380
L74663 73352
L74635 73323
L74607 73267
L74607 73099
L74635 73042
L74663 73014
L74719 72986
L74804 72986
L74860 73014
L74888 73042
L74916 73099
L74916 73267
L74888 73323
L74860 73352
L74804 73380
L74719 73380
" />
<path d="M75169 72986
L75169 73380
" />
<path d="M75169 73042
L75197 73014
L75253 72986
L75338 72986
L75394 73014
L75422 73070
L75422 73380
" />
<path d="M75703 73323
L75732 73352
L75703 73380
L75675 73352
L75703 73323
L75703 73380
" />
<path d="M75985 73380
L75985 72789
" />
<path d="M76041 73155
L76210 73380
" />
<path d="M76210 72986
L75985 73211
" />
<path d="M76463 73380
L76463 72986
" />
<path d="M76463 72789
L76435 72817
L76463 72845
L76491 72817
L76463 72789
L76463 72845
" />
<path d="M76997 73352
L76941 73380
L76828 73380
L76772 73352
L76744 73323
L76716 73267
L76716 73099
L76744 73042
L76772 73014
L76828 72986
L76941 72986
L76997 73014
" />
<path d="M77503 73380
L77503 73070
L77475 73014
L77419 72986
L77306 72986
L77250 73014
" />
<path d="M77503 73352
L77447 73380
L77306 73380
L77250 73352
L77222 73295
L77222 73239
L77250 73183
L77306 73155
L77447 73155
L77503 73127
" />
<path d="M78037 73380
L78037 72789
" />
<path d="M78037 73352
L77981 73380
L77869 73380
L77813 73352
L77784 73323
L77756 73267
L77756 73099
L77784 73042
L77813 73014
L77869 72986
L77981 72986
L78037 73014
" />
<path d="M78178 73436
L78628 73436
" />
<path d="M78769 72986
L78769 73577
" />
<path d="M78769 73014
L78825 72986
L78937 72986
L78994 73014
L79022 73042
L79050 73099
L79050 73267
L79022 73323
L78994 73352
L78937 73380
L78825 73380
L78769 73352
" />
<path d="M79556 73352
L79500 73380
L79387 73380
L79331 73352
L79303 73323
L79275 73267
L79275 73099
L79303 73042
L79331 73014
L79387 72986
L79500 72986
L79556 73014
" />
<path d="M79809 73380
L79809 72789
" />
<path d="M79809 73014
L79865 72986
L79978 72986
L80034 73014
L80062 73042
L80090 73099
L80090 73267
L80062 73323
L80034 73352
L79978 73380
L79865 73380
L79809 73352
" />
</g>
<g style="fill:#000000; fill-opacity:0.0; 
stroke:#000000; stroke-width:39.3701; stroke-opacity:1; 
stroke-linecap:round; stroke-linejoin:round;">
</g>
<g style="fill:#000000; fill-opacity:0.0; 
stroke:#000000; stroke-width:59.0551; stroke-opacity:1; 
stroke-linecap:round; stroke-linejoin:round;">
<path d="M69685 71459
L112205 71459
" />
</g>
<g style="fill:#000000; fill-opacity:0.0; 
stroke:#000000; stroke-width:39.3701; stroke-opacity:1; 
stroke-linecap:round; stroke-linejoin:round;">
</g>
<g style="fill:#000000; fill-opacity:0.0; 
stroke:#000000; stroke-width:59.0551; stroke-opacity:1; 
stroke-linecap:round; stroke-linejoin:round;">
<path d="M70192 72289
L70276 72317
L70417 72317
L70473 72289
L70501 72260
L70529 72204
L70529 72148
L70501 72092
L70473 72064
L70417 72036
L70304 72007
L70248 71979
L70220 71951
L70192 71895
L70192 71839
L70220 71782
L70248 71754
L70304 71726
L70445 71726
L70529 71754
" />
<path d="M70782 72317
L70782 71726
" />
<path d="M71035 72317
L71035 72007
L71007 71951
L70951 71923
L70867 71923
L70810 71951
L70782 71979
" />
<path d="M71541 72289
L71485 72317
L71373 72317
L71316 72289
L71288 72232
L71288 72007
L71316 71951
L71373 71923
L71485 71923
L71541 71951
L71570 72007
L71570 72064
L71288 72120
" />
<path d="M72048 72289
L71991 72317
L71879 72317
L71823 72289
L71795 72232
L71795 72007
L71823 71951
L71879 71923
L71991 71923
L72048 71951
L72076 72007
L72076 72064
L71795 72120
" />
<path d="M72244 71923
L72469 71923
" />
<path d="M72329 71726
L72329 72232
L72357 72289
L72413 72317
L72469 72317
" />
<path d="M72666 72260
L72694 72289
L72666 72317
L72638 72289
L72666 72260
L72666 72317
" />
<path d="M72666 71951
L72694 71979
L72666 72007
L72638 71979
L72666 71951
L72666 72007
" />
</g>
<g style="fill:#000000; fill-opacity:0.0; 
stroke:#000000; stroke-width:39.3701; stroke-opacity:1; 
stroke-linecap:round; stroke-linejoin:round;">
</g>
<g style="fill:#000000; fill-opacity:0.0; 
stroke:#000000; stroke-width:118.11; stroke-opacity:1; 
stroke-linecap:round; stroke-linejoin:round;">
<path d="M70220 70826
L70417 70826
" />
<path d="M70501 71136
L70220 71136
L70220 70545
L70501 70545
" />
<path d="M71091 71079
L71063 71108
L70979 71136
L70923 71136
L70838 71108
L70782 71051
L70754 70995
L70726 70883
L70726 70798
L70754 70686
L70782 70629
L70838 70573
L70923 70545
L70979 70545
L71063 70573
L71091 70601
" />
<path d="M71345 70826
L71541 70826
" />
<path d="M71626 71136
L71345 71136
L71345 70545
L71626 70545
" />
<path d="M72582 70742
L72582 71136
" />
<path d="M72441 70517
L72301 70939
L72666 70939
" />
<path d="M73144 70742
L73144 71136
" />
<path d="M73004 70517
L72863 70939
L73229 70939
" />
<path d="M73735 70545
L73454 70545
L73426 70826
L73454 70798
L73510 70770
L73651 70770
L73707 70798
L73735 70826
L73763 70883
L73763 71023
L73735 71079
L73707 71108
L73651 71136
L73510 71136
L73454 71108
L73426 71079
" />
</g>
<g style="fill:#000000; fill-opacity:0.0; 
stroke:#000000; stroke-width:39.3701; stroke-opacity:1; 
stroke-linecap:round; stroke-linejoin:round;">
</g>
<g style="fill:#000000; fill-opacity:0.0; 
stroke:#000000; stroke-width:59.0551; stroke-opacity:1; 
stroke-linecap:round; stroke-linejoin:round;">
<path d="M77559 75396
L77559 76577
" />
</g>
<g style="fill:#000000; fill-opacity:0.0; 
stroke:#000000; stroke-width:39.3701; stroke-opacity:1; 
stroke-linecap:round; stroke-linejoin:round;">
</g>
<g style="fill:#000000; fill-opacity:0.0; 
stroke:#000000; stroke-width:59.0551; stroke-opacity:1; 
stroke-linecap:round; stroke-linejoin:round;">
<path d="M102756 75396
L102756 77955
" />
</g>
<g style="fill:#840084; fill-opacity:0.0; 
stroke:#840084; stroke-width:59.0551; stroke-opacity:1; 
stroke-linecap:round; stroke-linejoin:round;">
</g>
<g style="fill:#840084; fill-opacity:0.0; 
stroke:#840084; stroke-width:118.11; stroke-opacity:1; 
stroke-linecap:round; stroke-linejoin:round;">
<path d="M56645 39876
L56054 39876
" />
<path d="M56279 39876
L56251 39932
L56251 40044
L56279 40101
L56307 40129
L56363 40157
L56532 40157
L56588 40129
L56616 40101
L56645 40044
L56645 39932
L56616 39876
" />
<path d="M56616 40663
L56645 40607
L56645 40494
L56616 40438
L56588 40410
L56532 40382
L56363 40382
L56307 40410
L56279 40438
L56251 40494
L56251 40607
L56279 40663
" />
<path d="M56645 41169
L56335 41169
L56279 41141
L56251 41085
L56251 40973
L56279 40916
" />
<path d="M56616 41169
L56645 41113
L56645 40973
L56616 40916
L56560 40888
L56504 40888
L56448 40916
L56420 40973
L56420 41113
L56392 41169
" />
<path d="M56251 41451
L56645 41451
" />
<path d="M56307 41451
L56279 41479
L56251 41535
L56251 41619
L56279 41676
L56335 41704
L56645 41704
" />
<path d="M56588 41985
L56616 42013
L56645 41985
L56616 41957
L56588 41985
L56645 41985
" />
<path d="M56645 42266
L56251 42266
" />
<path d="M56054 42266
L56082 42238
L56110 42266
L56082 42294
L56054 42266
L56110 42266
" />
<path d="M56645 42632
L56616 42575
L56588 42547
L56532 42519
L56363 42519
L56307 42547
L56279 42575
L56251 42632
L56251 42716
L56279 42772
L56307 42800
L56363 42829
L56532 42829
L56588 42800
L56616 42772
L56645 42716
L56645 42632
" />
</g>
<g style="fill:#840084; fill-opacity:0.0; 
stroke:#840084; stroke-width:78.7402; stroke-opacity:1; 
stroke-linecap:round; stroke-linejoin:round;">
<path d="M56850 43228
L56850 39448
" />
<path d="M61259 41338
L56850 41338
" />
<path d="M61259 39448
L61259 43228
" />
</g>
<g style="fill:#840084; fill-opacity:0.0; 
stroke:#840084; stroke-width:118.11; stroke-opacity:1; 
stroke-linecap:round; stroke-linejoin:round;">
<path d="M62809 41605
L63006 41324
" />
<path d="M63146 41605
L63146 41015
L62921 41015
L62865 41043
L62837 41071
L62809 41127
L62809 41212
L62837 41268
L62865 41296
L62921 41324
L63146 41324
" />
<path d="M54935 41605
L55216 41605
L55216 41015
" />
<path d="M62078 40163
L61796 39966
" />
<path d="M62078 39825
L61487 39825
L61487 40050
L61515 40106
L61543 40134
L61600 40163
L61684 40163
L61740 40134
L61768 40106
L61796 40050
L61796 39825
" />
<path d="M62050 40641
L62078 40584
L62078 40472
L62050 40416
L61993 40388
L61768 40388
L61712 40416
L61684 40472
L61684 40584
L61712 40641
L61768 40669
L61825 40669
L61881 40388
" />
<path d="M61684 40866
L62078 41006
L61684 41147
" />
<path d="M62078 42131
L62078 41794
" />
<path d="M62078 41962
L61487 41962
L61571 41906
L61628 41850
L61656 41794
" />
<path d="M62021 42384
L62050 42412
L62078 42384
L62050 42356
L62021 42384
L62078 42384
" />
<path d="M62078 42975
L62078 42637
" />
<path d="M62078 42806
L61487 42806
L61571 42750
L61628 42694
L61656 42637
" />
<path d="M57317 41017
L57514 40735
" />
<path d="M57654 41017
L57654 40426
L57429 40426
L57373 40454
L57345 40482
L57317 40539
L57317 40623
L57345 40679
L57373 40707
L57429 40735
L57654 40735
" />
<path d="M58506 40426
L58393 40426
L58337 40454
L58281 40510
L58253 40623
L58253 40820
L58281 40932
L58337 40989
L58393 41017
L58506 41017
L58562 40989
L58618 40932
L58646 40820
L58646 40623
L58618 40510
L58562 40454
L58506 40426
" />
<path d="M59500 41017
L59500 40426
" />
<path d="M60668 40989
L60584 41017
L60443 41017
L60387 40989
L60359 40960
L60331 40904
L60331 40848
L60359 40792
L60387 40764
L60443 40735
L60556 40707
L60612 40679
L60640 40651
L60668 40595
L60668 40539
L60640 40482
L60612 40454
L60556 40426
L60415 40426
L60331 40454
" />
<path d="M59696 41626
L59500 42217
L59303 41626
" />
<path d="M57387 41823
L57387 42217
" />
<path d="M57528 41598
L57668 42020
L57303 42020
" />
<path d="M58696 41626
L58331 41626
L58528 41851
L58443 41851
L58387 41879
L58359 41907
L58331 41964
L58331 42104
L58359 42160
L58387 42189
L58443 42217
L58612 42217
L58668 42189
L58696 42160
" />
</g>
<g style="fill:#840084; fill-opacity:1.0; 
stroke:#840084; stroke-width:98.4252; stroke-opacity:1; 
stroke-linecap:round; stroke-linejoin:round;">
<polyline style="fill-rule:evenodd;"
points="61210,43179
60127,43179
60127,41387
61210,41387
61210,43179
" /> 
</g>
<g style="fill:#000000; fill-opacity:1.0; 
stroke:#000000; stroke-width:98.4252; stroke-opacity:1; 
stroke-linecap:round; stroke-linejoin:round;">
</g>
<g style="fill:#008400; fill-opacity:1.0; 
stroke:#008400; stroke-width:98.4252; stroke-opacity:1; 
stroke-linecap:round; stroke-linejoin:round;">
</g>
<g style="fill:#008400; fill-opacity:1.0; 
stroke:#008400; stroke-width:0; stroke-opacity:1; 
stroke-linecap:round; stroke-linejoin:round;">
<polyline style="fill-rule:evenodd;"
points="60850,40236
60259,40236
60259,39448
60850,39448
60850,40236
" /> 
<polyline style="fill-rule:evenodd;"
points="59850,40236
59259,40236
59259,39448
59850,39448
59850,40236
" /> 
<polyline style="fill-rule:evenodd;"
points="58850,40236
58259,40236
58259,39448
58850,39448
58850,40236
" /> 
<polyline style="fill-rule:evenodd;"
points="57850,40236
57259,40236
57259,39448
57850,39448
57850,40236
" /> 
<polyline style="fill-rule:evenodd;"
points="57259,42440
57850,42440
57850,43228
57259,43228
57259,42440
" /> 
<polyline style="fill-rule:evenodd;"
points="58259,42440
58850,42440
58850,43228
58259,43228
58259,42440
" /> 
<polyline style="fill-rule:evenodd;"
points="59259,42440
59850,42440
59850,43228
59259,43228
59259,42440
" /> 
<polyline style="fill-rule:evenodd;"
points="60259,42440
60850,42440
60850,43228
60259,43228
60259,42440
" /> 
</g>
<g style="fill:#C2C2C2; fill-opacity:1.0; 
stroke:#C2C2C2; stroke-width:0; stroke-opacity:1; 
stroke-linecap:round; stroke-linejoin:round;">
<circle cx="61496.1" cy="40472.4" r="118.11" /> 
</g>
<g style="fill:#C2C2C2; fill-opacity:1.0; 
stroke:#C2C2C2; stroke-width:39.3701; stroke-opacity:1; 
stroke-linecap:round; stroke-linejoin:round;">
</g>
<g style="fill:#C2C2C2; fill-opacity:1.0; 
stroke:#C2C2C2; stroke-width:0; stroke-opacity:1; 
stroke-linecap:round; stroke-linejoin:round;">
<circle cx="60078.7" cy="41968.5" r="118.11" /> 
</g>
<g style="fill:#C2C2C2; fill-opacity:1.0; 
stroke:#C2C2C2; stroke-width:39.3701; stroke-opacity:1; 
stroke-linecap:round; stroke-linejoin:round;">
</g>
<g style="fill:#C2C2C2; fill-opacity:1.0; 
stroke:#C2C2C2; stroke-width:0; stroke-opacity:1; 
stroke-linecap:round; stroke-linejoin:round;">
<circle cx="56456.7" cy="40708.7" r="118.11" /> 
</g>
<g style="fill:#C2C2C2; fill-opacity:1.0; 
stroke:#C2C2C2; stroke-width:39.3701; stroke-opacity:1; 
stroke-linecap:round; stroke-linejoin:round;">
</g>
<g style="fill:#C2C2C2; fill-opacity:1.0; 
stroke:#C2C2C2; stroke-width:0; stroke-opacity:1; 
stroke-linecap:round; stroke-linejoin:round;">
<circle cx="58425.2" cy="40629.9" r="118.11" /> 
</g>
<g style="fill:#C2C2C2; fill-opacity:1.0; 
stroke:#C2C2C2; stroke-width:39.3701; stroke-opacity:1; 
stroke-linecap:round; stroke-linejoin:round;">
</g>
<g style="fill:#C2C2C2; fill-opacity:1.0; 
stroke:#C2C2C2; stroke-width:0; stroke-opacity:1; 
stroke-linecap:round; stroke-linejoin:round;">
<circle cx="60708.7" cy="41811" r="118.11" /> 
</g>
<g style="fill:#C2C2C2; fill-opacity:1.0; 
stroke:#C2C2C2; stroke-width:39.3701; stroke-opacity:1; 
stroke-linecap:round; stroke-linejoin:round;">
</g>
<g style="fill:#C2C2C2; fill-opacity:1.0; 
stroke:#C2C2C2; stroke-width:0; stroke-opacity:1; 
stroke-linecap:round; stroke-linejoin:round;">
<circle cx="58031.5" cy="39842.5" r="118.11" /> 
</g>
<g style="fill:#C2C2C2; fill-opacity:1.0; 
stroke:#C2C2C2; stroke-width:39.3701; stroke-opacity:1; 
stroke-linecap:round; stroke-linejoin:round;">
</g>
<g style="fill:#C2C2C2; fill-opacity:1.0; 
stroke:#C2C2C2; stroke-width:0; stroke-opacity:1; 
stroke-linecap:round; stroke-linejoin:round;">
<circle cx="60000" cy="40708.7" r="118.11" /> 
</g>
<g style="fill:#C2C2C2; fill-opacity:1.0; 
stroke:#C2C2C2; stroke-width:39.3701; stroke-opacity:1; 
stroke-linecap:round; stroke-linejoin:round;">
</g>
<g style="fill:#C2C2C2; fill-opacity:1.0; 
stroke:#C2C2C2; stroke-width:0; stroke-opacity:1; 
stroke-linecap:round; stroke-linejoin:round;">
<circle cx="58740.2" cy="40629.9" r="118.11" /> 
</g>
<g style="fill:#C2C2C2; fill-opacity:1.0; 
stroke:#C2C2C2; stroke-width:39.3701; stroke-opacity:1; 
stroke-linecap:round; stroke-linejoin:round;">
</g>
<g style="fill:#C2C2C2; fill-opacity:1.0; 
stroke:#C2C2C2; stroke-width:0; stroke-opacity:1; 
stroke-linecap:round; stroke-linejoin:round;">
<circle cx="61023.6" cy="40157.5" r="118.11" /> 
</g>
<g style="fill:#C2C2C2; fill-opacity:1.0; 
stroke:#C2C2C2; stroke-width:39.3701; stroke-opacity:1; 
stroke-linecap:round; stroke-linejoin:round;">
</g>
<g style="fill:#C2C2C2; fill-opacity:1.0; 
stroke:#C2C2C2; stroke-width:0; stroke-opacity:1; 
stroke-linecap:round; stroke-linejoin:round;">
<circle cx="57795.3" cy="40629.9" r="118.11" /> 
</g>
<g style="fill:#C2C2C2; fill-opacity:1.0; 
stroke:#C2C2C2; stroke-width:39.3701; stroke-opacity:1; 
stroke-linecap:round; stroke-linejoin:round;">
</g>
<g style="fill:#C2C2C2; fill-opacity:1.0; 
stroke:#C2C2C2; stroke-width:0; stroke-opacity:1; 
stroke-linecap:round; stroke-linejoin:round;">
<circle cx="57480.3" cy="40629.9" r="118.11" /> 
</g>
<g style="fill:#C2C2C2; fill-opacity:1.0; 
stroke:#C2C2C2; stroke-width:39.3701; stroke-opacity:1; 
stroke-linecap:round; stroke-linejoin:round;">
</g>
<g style="fill:#C2C2C2; fill-opacity:1.0; 
stroke:#C2C2C2; stroke-width:0; stroke-opacity:1; 
stroke-linecap:round; stroke-linejoin:round;">
<circle cx="57007.9" cy="42519.7" r="118.11" /> 
</g>
<g style="fill:#C2C2C2; fill-opacity:1.0; 
stroke:#C2C2C2; stroke-width:39.3701; stroke-opacity:1; 
stroke-linecap:round; stroke-linejoin:round;">
</g>
<g style="fill:#C2C2C2; fill-opacity:1.0; 
stroke:#C2C2C2; stroke-width:0; stroke-opacity:1; 
stroke-linecap:round; stroke-linejoin:round;">
<circle cx="58897.6" cy="41968.5" r="118.11" /> 
</g>
<g style="fill:#C2C2C2; fill-opacity:1.0; 
stroke:#C2C2C2; stroke-width:39.3701; stroke-opacity:1; 
stroke-linecap:round; stroke-linejoin:round;">
</g>
<g style="fill:#C2C2C2; fill-opacity:1.0; 
stroke:#C2C2C2; stroke-width:0; stroke-opacity:1; 
stroke-linecap:round; stroke-linejoin:round;">
<circle cx="61987.1" cy="40778.1" r="118.11" /> 
</g>
<g style="fill:#C2C2C2; fill-opacity:1.0; 
stroke:#C2C2C2; stroke-width:39.3701; stroke-opacity:1; 
stroke-linecap:round; stroke-linejoin:round;">
</g>
<g style="fill:#C2C2C2; fill-opacity:1.0; 
stroke:#C2C2C2; stroke-width:0; stroke-opacity:1; 
stroke-linecap:round; stroke-linejoin:round;">
<circle cx="60708.7" cy="40787.4" r="118.11" /> 
</g>
<g style="fill:#C2C2C2; fill-opacity:1.0; 
stroke:#C2C2C2; stroke-width:39.3701; stroke-opacity:1; 
stroke-linecap:round; stroke-linejoin:round;">
</g>
<g style="fill:#008400; fill-opacity:1.0; 
stroke:#008400; stroke-width:39.3701; stroke-opacity:1; 
stroke-linecap:round; stroke-linejoin:round;">
</g>
<g style="fill:#008400; fill-opacity:1.0; 
stroke:#008400; stroke-width:157.48; stroke-opacity:1; 
stroke-linecap:round; stroke-linejoin:round;">
</g>
<g style="fill:#008400; fill-opacity:0.0; 
stroke:#008400; stroke-width:157.48; stroke-opacity:1; 
stroke-linecap:round; stroke-linejoin:round;">
<path d="M60078 41968
L60078 41496
" />
<path d="M60078 41496
L60078 41023
" />
<path d="M60555 42834
L60555 42736
" />
<path d="M60555 42736
L60984 42307
" />
<path d="M60984 42307
L60984 41678
" />
<path d="M60984 41678
L60801 41496
" />
<path d="M60801 41496
L60078 41496
" />
<path d="M61496 40472
L60629 40472
" />
<path d="M60629 40472
L60078 41023
" />
</g>
<g style="fill:#008400; fill-opacity:0.0; 
stroke:#008400; stroke-width:98.4252; stroke-opacity:1; 
stroke-linecap:round; stroke-linejoin:round;">
<path d="M56456 40708
L56801 40364
" />
<path d="M56801 40364
L58159 40364
" />
<path d="M58159 40364
L58307 40511
" />
<path d="M58307 40511
L58425 40629
" />
<path d="M58425 40629
L58425 40796
" />
<path d="M58425 40796
L58642 41013
" />
<path d="M58642 41013
L59211 41013
" />
<path d="M59211 41013
L59555 41357
" />
<path d="M59555 41357
L59555 42342
" />
<path d="M59555 42342
L59555 42834
" />
</g>
<g style="fill:#008400; fill-opacity:0.0; 
stroke:#008400; stroke-width:157.48; stroke-opacity:1; 
stroke-linecap:round; stroke-linejoin:round;">
<path d="M60708 41811
L60275 42244
" />
<path d="M60275 42244
L60047 42244
" />
<path d="M60047 42244
L59555 42736
" />
<path d="M59555 42736
L59555 42834
" />
</g>
<g style="fill:#008400; fill-opacity:0.0; 
stroke:#008400; stroke-width:98.4252; stroke-opacity:1; 
stroke-linecap:round; stroke-linejoin:round;">
<path d="M58031 39842
L57555 39842
" />
<path d="M59555 39842
L59555 39940
" />
<path d="M59555 39940
L60000 40385
" />
<path d="M60000 40385
L60000 40541
" />
<path d="M60000 40541
L60000 40708
" />
<path d="M58555 39842
L58740 40027
" />
<path d="M58740 40027
L58740 40629
" />
<path d="M61023 40157
L60870 40157
" />
<path d="M60870 40157
L60555 39842
" />
<path d="M58555 42834
L58555 42342
" />
<path d="M58555 42342
L58683 42214
" />
<path d="M58683 42214
L59015 42214
" />
<path d="M59015 42214
L59143 42086
" />
<path d="M59143 42086
L59143 41850
" />
<path d="M59143 41850
L58956 41663
" />
<path d="M58956 41663
L58828 41663
" />
<path d="M58828 41663
L57913 40748
" />
<path d="M57913 40748
L57795 40629
" />
<path d="M57480 40629
L57480 41587
" />
<path d="M56761 42306
L56761 42637
" />
<path d="M56761 42637
L56958 42834
" />
<path d="M56958 42834
L57161 42834
" />
<path d="M57161 42834
L57555 42834
" />
<path d="M57480 41587
L56761 42306
" />
</g>
<g style="fill:#008400; fill-opacity:0.0; 
stroke:#008400; stroke-width:157.48; stroke-opacity:1; 
stroke-linecap:round; stroke-linejoin:round;">
<path d="M57007 42519
L57007 42352
" />
<path d="M57007 42352
L57392 41968
" />
<path d="M57392 41968
L58730 41968
" />
<path d="M58730 41968
L58897 41968
" />
<path d="M60708 40787
L61977 40787
" />
<path d="M61977 40787
L61987 40778
" />
</g>
<g style="fill:#008400; fill-opacity:1.0; 
stroke:#008400; stroke-width:98.4252; stroke-opacity:1; 
stroke-linecap:round; stroke-linejoin:round;">
<polyline style="fill-rule:evenodd;"
points="59109,40236
59119,40290
59151,40341
59201,40374
59259,40386
59722,40386
59803,40467
59803,40529
59774,40557
59734,40655
59734,40761
59774,40858
59849,40933
59946,40974
60052,40974
60150,40934
60225,40859
60265,40761
60265,40656
60225,40558
60196,40529
60196,40385
60193,40369
60201,40374
60259,40386
60850,40386
60872,40382
60872,40382
60970,40423
61076,40423
61173,40382
61248,40308
61289,40210
61289,40104
61249,40007
61174,39932
61076,39891
61000,39891
61000,39625
62027,39625
62027,40512
61934,40512
61836,40552
61828,40561
60856,40561
60761,40521
60656,40521
60558,40561
60483,40636
60442,40734
60442,40840
60483,40937
60557,41012
60655,41053
60761,41053
60856,41013
61861,41013
61934,41043
62039,41043
62112,41013
62136,41029
62204,41043
63602,41043
63602,41633
62204,41633
62136,41647
62079,41685
62041,41743
62027,41811
62027,43051
61096,43051
61096,42945
61034,42883
60604,42883
60604,42891
60505,42891
60505,42883
60075,42883
60013,42945
60013,43051
60000,43051
60000,42610
60013,42597
60013,42723
60075,42785
60505,42785
60505,42777
60604,42777
60604,42785
61034,42785
61096,42723
61096,42392
61058,42301
60989,42232
60899,42194
60665,42194
60604,42256
60604,42235
60764,42075
60859,42036
60933,41961
60974,41864
60974,41758
60934,41660
60859,41585
60761,41545
60656,41545
60558,41585
60483,41660
60443,41755
60181,42017
60047,42017
59960,42034
59887,42084
59751,42219
59751,41357
59736,41282
59728,41269
59694,41218
59350,40874
59286,40831
59280,40830
59211,40816
58928,40816
58965,40780
59005,40683
59005,40577
58965,40479
58937,40450
58937,40355
58955,40344
58989,40294
59000,40236
59000,39625
59109,39625
59109,40236
" /> 
</g>
<g style="fill:#FFFFFF; fill-opacity:1.0; 
stroke:#FFFFFF; stroke-width:98.4252; stroke-opacity:1; 
stroke-linecap:round; stroke-linejoin:round;">
</g>
<g style="fill:#FFFFFF; fill-opacity:1.0; 
stroke:#FFFFFF; stroke-width:0; stroke-opacity:1; 
stroke-linecap:round; stroke-linejoin:round;">
<circle cx="61496.1" cy="40472.4" r="78.7402" /> 
</g>
<g style="fill:#FFFFFF; fill-opacity:1.0; 
stroke:#FFFFFF; stroke-width:39.3701; stroke-opacity:1; 
stroke-linecap:round; stroke-linejoin:round;">
</g>
<g style="fill:#FFFFFF; fill-opacity:1.0; 
stroke:#FFFFFF; stroke-width:0; stroke-opacity:1; 
stroke-linecap:round; stroke-linejoin:round;">
<circle cx="60078.7" cy="41968.5" r="78.7402" /> 
</g>
<g style="fill:#FFFFFF; fill-opacity:1.0; 
stroke:#FFFFFF; stroke-width:39.3701; stroke-opacity:1; 
stroke-linecap:round; stroke-linejoin:round;">
</g>
<g style="fill:#FFFFFF; fill-opacity:1.0; 
stroke:#FFFFFF; stroke-width:0; stroke-opacity:1; 
stroke-linecap:round; stroke-linejoin:round;">
<circle cx="56456.7" cy="40708.7" r="78.7402" /> 
</g>
<g style="fill:#FFFFFF; fill-opacity:1.0; 
stroke:#FFFFFF; stroke-width:39.3701; stroke-opacity:1; 
stroke-linecap:round; stroke-linejoin:round;">
</g>
<g style="fill:#FFFFFF; fill-opacity:1.0; 
stroke:#FFFFFF; stroke-width:0; stroke-opacity:1; 
stroke-linecap:round; stroke-linejoin:round;">
<circle cx="58425.2" cy="40629.9" r="78.7402" /> 
</g>
<g style="fill:#FFFFFF; fill-opacity:1.0; 
stroke:#FFFFFF; stroke-width:39.3701; stroke-opacity:1; 
stroke-linecap:round; stroke-linejoin:round;">
</g>
<g style="fill:#FFFFFF; fill-opacity:1.0; 
stroke:#FFFFFF; stroke-width:0; stroke-opacity:1; 
stroke-linecap:round; stroke-linejoin:round;">
<circle cx="60708.7" cy="41811" r="78.7402" /> 
</g>
<g style="fill:#FFFFFF; fill-opacity:1.0; 
stroke:#FFFFFF; stroke-width:39.3701; stroke-opacity:1; 
stroke-linecap:round; stroke-linejoin:round;">
</g>
<g style="fill:#FFFFFF; fill-opacity:1.0; 
stroke:#FFFFFF; stroke-width:0; stroke-opacity:1; 
stroke-linecap:round; stroke-linejoin:round;">
<circle cx="58031.5" cy="39842.5" r="78.7402" /> 
</g>
<g style="fill:#FFFFFF; fill-opacity:1.0; 
stroke:#FFFFFF; stroke-width:39.3701; stroke-opacity:1; 
stroke-linecap:round; stroke-linejoin:round;">
</g>
<g style="fill:#FFFFFF; fill-opacity:1.0; 
stroke:#FFFFFF; stroke-width:0; stroke-opacity:1; 
stroke-linecap:round; stroke-linejoin:round;">
<circle cx="60000" cy="40708.7" r="78.7402" /> 
</g>
<g style="fill:#FFFFFF; fill-opacity:1.0; 
stroke:#FFFFFF; stroke-width:39.3701; stroke-opacity:1; 
stroke-linecap:round; stroke-linejoin:round;">
</g>
<g style="fill:#FFFFFF; fill-opacity:1.0; 
stroke:#FFFFFF; stroke-width:0; stroke-opacity:1; 
stroke-linecap:round; stroke-linejoin:round;">
<circle cx="58740.2" cy="40629.9" r="78.7402" /> 
</g>
<g style="fill:#FFFFFF; fill-opacity:1.0; 
stroke:#FFFFFF; stroke-width:39.3701; stroke-opacity:1; 
stroke-linecap:round; stroke-linejoin:round;">
</g>
<g style="fill:#FFFFFF; fill-opacity:1.0; 
stroke:#FFFFFF; stroke-width:0; stroke-opacity:1; 
stroke-linecap:round; stroke-linejoin:round;">
<circle cx="61023.6" cy="40157.5" r="78.7402" /> 
</g>
<g style="fill:#FFFFFF; fill-opacity:1.0; 
stroke:#FFFFFF; stroke-width:39.3701; stroke-opacity:1; 
stroke-linecap:round; stroke-linejoin:round;">
</g>
<g style="fill:#FFFFFF; fill-opacity:1.0; 
stroke:#FFFFFF; stroke-width:0; stroke-opacity:1; 
stroke-linecap:round; stroke-linejoin:round;">
<circle cx="57795.3" cy="40629.9" r="78.7402" /> 
</g>
<g style="fill:#FFFFFF; fill-opacity:1.0; 
stroke:#FFFFFF; stroke-width:39.3701; stroke-opacity:1; 
stroke-linecap:round; stroke-linejoin:round;">
</g>
<g style="fill:#FFFFFF; fill-opacity:1.0; 
stroke:#FFFFFF; stroke-width:0; stroke-opacity:1; 
stroke-linecap:round; stroke-linejoin:round;">
<circle cx="57480.3" cy="40629.9" r="78.7402" /> 
</g>
<g style="fill:#FFFFFF; fill-opacity:1.0; 
stroke:#FFFFFF; stroke-width:39.3701; stroke-opacity:1; 
stroke-linecap:round; stroke-linejoin:round;">
</g>
<g style="fill:#FFFFFF; fill-opacity:1.0; 
stroke:#FFFFFF; stroke-width:0; stroke-opacity:1; 
stroke-linecap:round; stroke-linejoin:round;">
<circle cx="57007.9" cy="42519.7" r="78.7402" /> 
</g>
<g style="fill:#FFFFFF; fill-opacity:1.0; 
stroke:#FFFFFF; stroke-width:39.3701; stroke-opacity:1; 
stroke-linecap:round; stroke-linejoin:round;">
</g>
<g style="fill:#FFFFFF; fill-opacity:1.0; 
stroke:#FFFFFF; stroke-width:0; stroke-opacity:1; 
stroke-linecap:round; stroke-linejoin:round;">
<circle cx="58897.6" cy="41968.5" r="78.7402" /> 
</g>
<g style="fill:#FFFFFF; fill-opacity:1.0; 
stroke:#FFFFFF; stroke-width:39.3701; stroke-opacity:1; 
stroke-linecap:round; stroke-linejoin:round;">
</g>
<g style="fill:#FFFFFF; fill-opacity:1.0; 
stroke:#FFFFFF; stroke-width:0; stroke-opacity:1; 
stroke-linecap:round; stroke-linejoin:round;">
<circle cx="61987.1" cy="40778.1" r="78.7402" /> 
</g>
<g style="fill:#FFFFFF; fill-opacity:1.0; 
stroke:#FFFFFF; stroke-width:39.3701; stroke-opacity:1; 
stroke-linecap:round; stroke-linejoin:round;">
</g>
<g style="fill:#FFFFFF; fill-opacity:1.0; 
stroke:#FFFFFF; stroke-width:0; stroke-opacity:1; 
stroke-linecap:round; stroke-linejoin:round;">
<circle cx="60708.7" cy="40787.4" r="78.7402" /> 
</g>
<g style="fill:#FFFFFF; fill-opacity:1.0; 
stroke:#FFFFFF; stroke-width:39.3701; stroke-opacity:1; 
stroke-linecap:round; stroke-linejoin:round;">
</g>
<g style="fill:#FFFFFF; fill-opacity:1.0; 
stroke:#FFFFFF; stroke-width:0; stroke-opacity:1; 
stroke-linecap:round; stroke-linejoin:round;">
<circle cx="59055.1" cy="41338.6" r="196.85" /> 
</g>
<g style="fill:#FFFFFF; fill-opacity:1.0; 
stroke:#FFFFFF; stroke-width:39.3701; stroke-opacity:1; 
stroke-linecap:round; stroke-linejoin:round;">
</g>
<g style="fill:#000000; fill-opacity:1.0; 
stroke:#000000; stroke-width:39.3701; stroke-opacity:1; 
stroke-linecap:round; stroke-linejoin:round;">
</g>
<g style="fill:#840000; fill-opacity:1.0; 
stroke:#840000; stroke-width:39.3701; stroke-opacity:1; 
stroke-linecap:round; stroke-linejoin:round;">
</g>
<g style="fill:#840000; fill-opacity:1.0; 
stroke:#840000; stroke-width:0; stroke-opacity:1; 
stroke-linecap:round; stroke-linejoin:round;">
<polyline style="fill-rule:evenodd;"
points="56663,39862
56663,39685
57234,39685
57234,39862
56663,39862
" /> 
<polyline style="fill-rule:evenodd;"
points="56663,40118
56663,39940
57234,39940
57234,40118
56663,40118
" /> 
<polyline style="fill-rule:evenodd;"
points="56663,40374
56663,40196
57234,40196
57234,40374
56663,40374
" /> 
<polyline style="fill-rule:evenodd;"
points="56663,40629
56663,40452
57234,40452
57234,40629
56663,40629
" /> 
<polyline style="fill-rule:evenodd;"
points="58986,40629
58986,40452
59557,40452
59557,40629
58986,40629
" /> 
<polyline style="fill-rule:evenodd;"
points="58986,40374
58986,40196
59557,40196
59557,40374
58986,40374
" /> 
<polyline style="fill-rule:evenodd;"
points="58986,40118
58986,39940
59557,39940
59557,40118
58986,40118
" /> 
<polyline style="fill-rule:evenodd;"
points="58986,39862
58986,39685
59557,39685
59557,39862
58986,39862
" /> 
<polyline style="fill-rule:evenodd;"
points="61830,42913
61476,42913
61476,42716
61830,42716
61830,42913
" /> 
<polyline style="fill-rule:evenodd;"
points="61830,42322
61476,42322
61476,42125
61830,42125
61830,42322
" /> 
<polyline style="fill-rule:evenodd;"
points="60954,42066
61250,42066
61250,42381
60954,42381
60954,42066
" /> 
<polyline style="fill-rule:evenodd;"
points="60954,42657
61250,42657
61250,42972
60954,42972
60954,42657
" /> 
<polyline style="fill-rule:evenodd;"
points="61279,41732
60925,41732
60925,41535
61279,41535
61279,41732
" /> 
<polyline style="fill-rule:evenodd;"
points="61279,41141
60925,41141
60925,40944
61279,40944
61279,41141
" /> 
<polyline style="fill-rule:evenodd;"
points="61811,41811
61496,41811
61496,41496
61811,41496
61811,41811
" /> 
<polyline style="fill-rule:evenodd;"
points="61811,41181
61496,41181
61496,40866
61811,40866
61811,41181
" /> 
<polyline style="fill-rule:evenodd;"
points="58661,43059
58110,43059
58110,42586
58661,42586
58661,43059
" /> 
<polyline style="fill-rule:evenodd;"
points="58661,42342
58110,42342
58110,41948
58661,41948
58661,42342
" /> 
<polyline style="fill-rule:evenodd;"
points="57795,42342
57244,42342
57244,41948
57795,41948
57795,42342
" /> 
<polyline style="fill-rule:evenodd;"
points="57795,43090
57244,43090
57244,42696
57795,42696
57795,43090
" /> 
<polyline style="fill-rule:evenodd;"
points="60925,39940
60925,39625
61279,39625
61279,39940
60925,39940
" /> 
<polyline style="fill-rule:evenodd;"
points="60925,40688
60925,40374
61279,40374
61279,40688
60925,40688
" /> 
<polyline style="fill-rule:evenodd;"
points="61712,40314
61712,40000
62066,40000
62066,40314
61712,40314
" /> 
<polyline style="fill-rule:evenodd;"
points="59437,42273
59437,42017
59854,42017
59854,42273
59437,42273
" /> 
<polyline style="fill-rule:evenodd;"
points="59437,42647
59437,42391
59854,42391
59854,42647
59437,42647
" /> 
<polyline style="fill-rule:evenodd;"
points="59437,43021
59437,42765
59854,42765
59854,43021
59437,43021
" /> 
<polyline style="fill-rule:evenodd;"
points="60303,43021
60303,42765
60720,42765
60720,43021
60303,43021
" /> 
<polyline style="fill-rule:evenodd;"
points="60303,42273
60303,42017
60720,42017
60720,42273
60303,42273
" /> 
<polyline style="fill-rule:evenodd;"
points="58907,42066
59202,42066
59202,42381
58907,42381
58907,42066
" /> 
<polyline style="fill-rule:evenodd;"
points="58907,42657
59202,42657
59202,42972
58907,42972
58907,42657
" /> 
<polyline style="fill-rule:evenodd;"
points="56397,40551
56043,40551
56043,40354
56397,40354
56397,40551
" /> 
<polyline style="fill-rule:evenodd;"
points="56397,39960
56043,39960
56043,39763
56397,39763
56397,39960
" /> 
<polyline style="fill-rule:evenodd;"
points="60177,40551
59822,40551
59822,40354
60177,40354
60177,40551
" /> 
<polyline style="fill-rule:evenodd;"
points="60177,39960
59822,39960
59822,39763
60177,39763
60177,39960
" /> 
<polyline style="fill-rule:evenodd;"
points="60374,39763
60728,39763
60728,39960
60374,39960
60374,39763
" /> 
<polyline style="fill-rule:evenodd;"
points="60374,40354
60728,40354
60728,40551
60374,40551
60374,40354
" /> 
<polyline style="fill-rule:evenodd;"
points="54330,41811
54330,40866
55905,40866
55905,41811
54330,41811
" /> 
<polyline style="fill-rule:evenodd;"
points="62204,41811
62204,40866
63779,40866
63779,41811
62204,41811
" /> 
</g>
<g style="fill:#C2C2C2; fill-opacity:1.0; 
stroke:#C2C2C2; stroke-width:0; stroke-opacity:1; 
stroke-linecap:round; stroke-linejoin:round;">
<circle cx="61496.1" cy="40472.4" r="118.11" /> 
</g>
<g style="fill:#C2C2C2; fill-opacity:1.0; 
stroke:#C2C2C2; stroke-width:39.3701; stroke-opacity:1; 
stroke-linecap:round; stroke-linejoin:round;">
</g>
<g style="fill:#C2C2C2; fill-opacity:1.0; 
stroke:#C2C2C2; stroke-width:0; stroke-opacity:1; 
stroke-linecap:round; stroke-linejoin:round;">
<circle cx="60078.7" cy="41968.5" r="118.11" /> 
</g>
<g style="fill:#C2C2C2; fill-opacity:1.0; 
stroke:#C2C2C2; stroke-width:39.3701; stroke-opacity:1; 
stroke-linecap:round; stroke-linejoin:round;">
</g>
<g style="fill:#C2C2C2; fill-opacity:1.0; 
stroke:#C2C2C2; stroke-width:0; stroke-opacity:1; 
stroke-linecap:round; stroke-linejoin:round;">
<circle cx="56456.7" cy="40708.7" r="118.11" /> 
</g>
<g style="fill:#C2C2C2; fill-opacity:1.0; 
stroke:#C2C2C2; stroke-width:39.3701; stroke-opacity:1; 
stroke-linecap:round; stroke-linejoin:round;">
</g>
<g style="fill:#C2C2C2; fill-opacity:1.0; 
stroke:#C2C2C2; stroke-width:0; stroke-opacity:1; 
stroke-linecap:round; stroke-linejoin:round;">
<circle cx="58425.2" cy="40629.9" r="118.11" /> 
</g>
<g style="fill:#C2C2C2; fill-opacity:1.0; 
stroke:#C2C2C2; stroke-width:39.3701; stroke-opacity:1; 
stroke-linecap:round; stroke-linejoin:round;">
</g>
<g style="fill:#C2C2C2; fill-opacity:1.0; 
stroke:#C2C2C2; stroke-width:0; stroke-opacity:1; 
stroke-linecap:round; stroke-linejoin:round;">
<circle cx="60708.7" cy="41811" r="118.11" /> 
</g>
<g style="fill:#C2C2C2; fill-opacity:1.0; 
stroke:#C2C2C2; stroke-width:39.3701; stroke-opacity:1; 
stroke-linecap:round; stroke-linejoin:round;">
</g>
<g style="fill:#C2C2C2; fill-opacity:1.0; 
stroke:#C2C2C2; stroke-width:0; stroke-opacity:1; 
stroke-linecap:round; stroke-linejoin:round;">
<circle cx="58031.5" cy="39842.5" r="118.11" /> 
</g>
<g style="fill:#C2C2C2; fill-opacity:1.0; 
stroke:#C2C2C2; stroke-width:39.3701; stroke-opacity:1; 
stroke-linecap:round; stroke-linejoin:round;">
</g>
<g style="fill:#C2C2C2; fill-opacity:1.0; 
stroke:#C2C2C2; stroke-width:0; stroke-opacity:1; 
stroke-linecap:round; stroke-linejoin:round;">
<circle cx="60000" cy="40708.7" r="118.11" /> 
</g>
<g style="fill:#C2C2C2; fill-opacity:1.0; 
stroke:#C2C2C2; stroke-width:39.3701; stroke-opacity:1; 
stroke-linecap:round; stroke-linejoin:round;">
</g>
<g style="fill:#C2C2C2; fill-opacity:1.0; 
stroke:#C2C2C2; stroke-width:0; stroke-opacity:1; 
stroke-linecap:round; stroke-linejoin:round;">
<circle cx="58740.2" cy="40629.9" r="118.11" /> 
</g>
<g style="fill:#C2C2C2; fill-opacity:1.0; 
stroke:#C2C2C2; stroke-width:39.3701; stroke-opacity:1; 
stroke-linecap:round; stroke-linejoin:round;">
</g>
<g style="fill:#C2C2C2; fill-opacity:1.0; 
stroke:#C2C2C2; stroke-width:0; stroke-opacity:1; 
stroke-linecap:round; stroke-linejoin:round;">
<circle cx="61023.6" cy="40157.5" r="118.11" /> 
</g>
<g style="fill:#C2C2C2; fill-opacity:1.0; 
stroke:#C2C2C2; stroke-width:39.3701; stroke-opacity:1; 
stroke-linecap:round; stroke-linejoin:round;">
</g>
<g style="fill:#C2C2C2; fill-opacity:1.0; 
stroke:#C2C2C2; stroke-width:0; stroke-opacity:1; 
stroke-linecap:round; stroke-linejoin:round;">
<circle cx="57795.3" cy="40629.9" r="118.11" /> 
</g>
<g style="fill:#C2C2C2; fill-opacity:1.0; 
stroke:#C2C2C2; stroke-width:39.3701; stroke-opacity:1; 
stroke-linecap:round; stroke-linejoin:round;">
</g>
<g style="fill:#C2C2C2; fill-opacity:1.0; 
stroke:#C2C2C2; stroke-width:0; stroke-opacity:1; 
stroke-linecap:round; stroke-linejoin:round;">
<circle cx="57480.3" cy="40629.9" r="118.11" /> 
</g>
<g style="fill:#C2C2C2; fill-opacity:1.0; 
stroke:#C2C2C2; stroke-width:39.3701; stroke-opacity:1; 
stroke-linecap:round; stroke-linejoin:round;">
</g>
<g style="fill:#C2C2C2; fill-opacity:1.0; 
stroke:#C2C2C2; stroke-width:0; stroke-opacity:1; 
stroke-linecap:round; stroke-linejoin:round;">
<circle cx="57007.9" cy="42519.7" r="118.11" /> 
</g>
<g style="fill:#C2C2C2; fill-opacity:1.0; 
stroke:#C2C2C2; stroke-width:39.3701; stroke-opacity:1; 
stroke-linecap:round; stroke-linejoin:round;">
</g>
<g style="fill:#C2C2C2; fill-opacity:1.0; 
stroke:#C2C2C2; stroke-width:0; stroke-opacity:1; 
stroke-linecap:round; stroke-linejoin:round;">
<circle cx="58897.6" cy="41968.5" r="118.11" /> 
</g>
<g style="fill:#C2C2C2; fill-opacity:1.0; 
stroke:#C2C2C2; stroke-width:39.3701; stroke-opacity:1; 
stroke-linecap:round; stroke-linejoin:round;">
</g>
<g style="fill:#C2C2C2; fill-opacity:1.0; 
stroke:#C2C2C2; stroke-width:0; stroke-opacity:1; 
stroke-linecap:round; stroke-linejoin:round;">
<circle cx="61987.1" cy="40778.1" r="118.11" /> 
</g>
<g style="fill:#C2C2C2; fill-opacity:1.0; 
stroke:#C2C2C2; stroke-width:39.3701; stroke-opacity:1; 
stroke-linecap:round; stroke-linejoin:round;">
</g>
<g style="fill:#C2C2C2; fill-opacity:1.0; 
stroke:#C2C2C2; stroke-width:0; stroke-opacity:1; 
stroke-linecap:round; stroke-linejoin:round;">
<circle cx="60708.7" cy="40787.4" r="118.11" /> 
</g>
<g style="fill:#C2C2C2; fill-opacity:1.0; 
stroke:#C2C2C2; stroke-width:39.3701; stroke-opacity:1; 
stroke-linecap:round; stroke-linejoin:round;">
</g>
<g style="fill:#840000; fill-opacity:1.0; 
stroke:#840000; stroke-width:39.3701; stroke-opacity:1; 
stroke-linecap:round; stroke-linejoin:round;">
</g>
<g style="fill:#840000; fill-opacity:1.0; 
stroke:#840000; stroke-width:98.4252; stroke-opacity:1; 
stroke-linecap:round; stroke-linejoin:round;">
</g>
<g style="fill:#840000; fill-opacity:0.0; 
stroke:#840000; stroke-width:98.4252; stroke-opacity:1; 
stroke-linecap:round; stroke-linejoin:round;">
<path d="M56948 40541
L56948 40872
" />
<path d="M56948 40872
L57952 41875
" />
<path d="M57952 41875
L57952 42440
" />
<path d="M58385 42822
L58334 42822
" />
<path d="M58334 42822
L57952 42440
" />
</g>
<g style="fill:#840000; fill-opacity:0.0; 
stroke:#840000; stroke-width:157.48; stroke-opacity:1; 
stroke-linecap:round; stroke-linejoin:round;">
<path d="M61102 40531
L61437 40531
" />
<path d="M61437 40531
L61496 40472
" />
<path d="M61102 40531
L61122 40531
" />
<path d="M60078 42519
L60078 41968
" />
<path d="M59055 42814
L58393 42814
" />
<path d="M58393 42814
L58385 42822
" />
<path d="M59645 42519
L59350 42519
" />
<path d="M59350 42519
L59055 42814
" />
<path d="M59645 42519
L60078 42519
" />
<path d="M60078 42519
L60807 42519
" />
<path d="M60807 42519
L61102 42814
" />
<path d="M60551 40452
L61023 40452
" />
<path d="M61023 40452
L61102 40531
" />
</g>
<g style="fill:#840000; fill-opacity:0.0; 
stroke:#840000; stroke-width:98.4252; stroke-opacity:1; 
stroke-linecap:round; stroke-linejoin:round;">
<path d="M56220 40452
L56220 40472
" />
<path d="M56220 40472
L56456 40708
" />
<path d="M58425 40236
L58425 40629
" />
<path d="M59271 39773
L58887 39773
" />
<path d="M58887 39773
L58425 40236
" />
</g>
<g style="fill:#840000; fill-opacity:0.0; 
stroke:#840000; stroke-width:157.48; stroke-opacity:1; 
stroke-linecap:round; stroke-linejoin:round;">
<path d="M60511 42145
L60511 42007
" />
<path d="M60511 42007
L60708 41811
" />
<path d="M60511 42145
L61023 42145
" />
<path d="M61023 42145
L61102 42224
" />
<path d="M61102 42224
L61102 42263
" />
<path d="M61102 42263
L61653 42814
" />
<path d="M61653 41653
L61653 42224
" />
<path d="M61653 41653
L61122 41653
" />
<path d="M61122 41653
L61102 41633
" />
<path d="M61889 40157
L61889 40472
" />
<path d="M61889 40472
L61653 40708
" />
<path d="M61653 40708
L61653 41023
" />
<path d="M61653 41023
L61122 41023
" />
<path d="M61122 41023
L61102 41043
" />
</g>
<g style="fill:#840000; fill-opacity:0.0; 
stroke:#840000; stroke-width:98.4252; stroke-opacity:1; 
stroke-linecap:round; stroke-linejoin:round;">
<path d="M60551 39862
L61023 39862
" />
<path d="M60000 39862
L60551 39862
" />
<path d="M61023 39862
L61102 39783
" />
<path d="M56948 39773
L57962 39773
" />
<path d="M57962 39773
L58031 39842
" />
<path d="M56220 39862
L56309 39773
" />
<path d="M56309 39773
L56948 39773
" />
<path d="M60000 40708
L60000 40452
" />
<path d="M59271 40285
L59655 40285
" />
<path d="M59655 40285
L59822 40452
" />
<path d="M59822 40452
L60000 40452
" />
<path d="M59271 40541
L58828 40541
" />
<path d="M58828 40541
L58740 40629
" />
<path d="M61023 40157
L59783 40157
" />
<path d="M59271 40029
L59655 40029
" />
<path d="M59655 40029
L59783 40157
" />
<path d="M56948 40029
L57332 40029
" />
<path d="M57332 40029
L57795 40492
" />
<path d="M57795 40492
L57795 40629
" />
<path d="M56948 40285
L57332 40285
" />
<path d="M57332 40285
L57480 40433
" />
<path d="M57480 40433
L57480 40629
" />
</g>
<g style="fill:#840000; fill-opacity:0.0; 
stroke:#840000; stroke-width:157.48; stroke-opacity:1; 
stroke-linecap:round; stroke-linejoin:round;">
<path d="M59133 42145
L59055 42224
" />
<path d="M59055 42224
L59055 42125
" />
<path d="M59055 42125
L58897 41968
" />
<path d="M57519 42893
L57381 42893
" />
<path d="M57381 42893
L57007 42519
" />
<path d="M59645 42145
L59133 42145
" />
<path d="M62992 41338
L62547 41338
" />
<path d="M62547 41338
L61987 40778
" />
<path d="M60708 40787
L60393 41102
" />
<path d="M60393 41102
L59343 41102
" />
<path d="M59343 41102
L59185 40944
" />
<path d="M59185 40944
L58924 40944
" />
<path d="M58385 42145
L58385 41483
" />
<path d="M58385 41483
L58924 40944
" />
<path d="M61968 40759
L61987 40778
" />
<path d="M61968 40748
L61968 40759
" />
<path d="M55118 41338
L57066 41338
" />
<path d="M57066 41338
L57519 41791
" />
<path d="M57519 41791
L57519 42145
" />
</g>
<g style="fill:#840000; fill-opacity:1.0; 
stroke:#840000; stroke-width:98.4252; stroke-opacity:1; 
stroke-linecap:round; stroke-linejoin:round;">
<polyline style="fill-rule:evenodd;"
points="60774,41141
60784,41196
60817,41246
60866,41280
60925,41292
61279,41292
61334,41281
61370,41258
61388,41286
61437,41319
61496,41331
61811,41331
61865,41321
61915,41289
61949,41239
61961,41181
61961,41072
62054,41165
62054,41723
62041,41743
62027,41811
62027,43051
61889,43051
61935,43021
61969,42971
61981,42913
61981,42716
61970,42661
61938,42611
61889,42577
61830,42566
61724,42566
61632,42473
61830,42473
61885,42463
61935,42430
61969,42381
61981,42322
61981,42125
61970,42071
61938,42021
61889,41987
61879,41985
61879,41942
61915,41918
61949,41869
61961,41811
61961,41496
61951,41441
61918,41391
61869,41357
61811,41345
61496,41345
61441,41355
61391,41388
61370,41418
61338,41396
61279,41384
60925,41384
60870,41395
60820,41427
60786,41476
60774,41535
60774,41550
60761,41545
60656,41545
60558,41585
60483,41660
60443,41755
60351,41847
60338,41867
60303,41867
60248,41877
60198,41909
60164,41959
60152,42017
60152,42273
60162,42328
60195,42378
60244,42412
60303,42424
60720,42424
60775,42413
60806,42393
60814,42436
60820,42446
60815,42448
60746,42518
60708,42608
60708,42615
60303,42615
60248,42625
60198,42657
60164,42707
60152,42765
60152,43021
60158,43051
59998,43051
60004,43021
60004,42845
60062,42787
60100,42696
60100,42630
60038,42568
59694,42568
59694,42576
59596,42576
59596,42568
59588,42568
59588,42470
59596,42470
59596,42462
59694,42462
59694,42470
60038,42470
60100,42408
60100,42342
60062,42252
60004,42194
60004,42017
59994,41963
59962,41912
59912,41879
59854,41867
59437,41867
59382,41877
59332,41909
59325,41919
59217,41919
59202,41916
59165,41916
59162,41912
59123,41818
59048,41743
58950,41702
58845,41702
58747,41743
58686,41803
58661,41798
58612,41798
58612,41577
58731,41457
58762,41533
58859,41630
58986,41683
59123,41683
59250,41630
59346,41533
59399,41407
59399,41328
60393,41328
60480,41311
60553,41262
60764,41051
60774,41047
60774,41141
" /> 
<polyline style="fill-rule:evenodd;"
points="59104,42765
59112,42765
59112,42864
59104,42864
59104,42872
59005,42872
59005,42864
58722,42864
58715,42872
58435,42872
58435,42879
58336,42879
58336,42872
58328,42872
58328,42773
58336,42773
58336,42765
58435,42765
58435,42773
58845,42773
58853,42765
59005,42765
59005,42757
59104,42757
59104,42765
" /> 
<polyline style="fill-rule:evenodd;"
points="61151,42765
61159,42765
61159,42864
61151,42864
61151,42872
61053,42872
61053,42864
61045,42864
61045,42765
61053,42765
61053,42757
61151,42757
61151,42765
" /> 
<polyline style="fill-rule:evenodd;"
points="58748,39634
58286,40097
58243,40160
58228,40236
58228,40450
58200,40479
58159,40576
58159,40682
58199,40780
58274,40855
58372,40895
58477,40895
58575,40855
58582,40848
58589,40855
58663,40885
58225,41323
58176,41396
58159,41483
58159,41798
58110,41798
58055,41808
58005,41840
57971,41890
57959,41948
57959,42342
57967,42381
57904,42444
57933,42401
57945,42342
57945,41948
57935,41894
57903,41843
57853,41810
57795,41798
57746,41798
57746,41791
57728,41704
57699,41660
57679,41631
57227,41178
57153,41129
57066,41112
56056,41112
56056,40953
56069,40933
56082,40866
56082,40701
56171,40701
56190,40721
56190,40761
56231,40858
56305,40933
56403,40974
56509,40974
56607,40934
56665,40875
56838,40875
56899,40814
56899,40585
56891,40585
56891,40524
57005,40524
57005,40585
56998,40585
56998,40814
57059,40875
57283,40875
57331,40855
57427,40895
57532,40895
57630,40855
57637,40848
57644,40855
57742,40895
57847,40895
57945,40855
58020,40780
58060,40683
58061,40577
58020,40479
57981,40440
57977,40416
57934,40352
57552,39970
57796,39970
57806,39992
57880,40067
57978,40108
58084,40108
58181,40067
58256,39993
58297,39895
58297,39789
58256,39692
58190,39625
58761,39625
58748,39634
" /> 
<polyline style="fill-rule:evenodd;"
points="61151,40482
61159,40482
61159,40580
61151,40580
61151,40588
61053,40588
61053,40580
61045,40580
61045,40482
61053,40482
61053,40474
61151,40474
61151,40482
" /> 
<polyline style="fill-rule:evenodd;"
points="62027,39849
61712,39849
61657,39859
61607,39892
61573,39941
61562,40000
61562,40314
61572,40369
61604,40419
61615,40427
61525,40516
61525,40482
61464,40482
61525,40420
61525,40325
61488,40234
61418,40165
61328,40127
61289,40127
61289,40104
61283,40090
61334,40081
61384,40048
61418,39999
61430,39940
61430,39625
62027,39625
62027,39849
" /> 
<polyline style="fill-rule:evenodd;"
points="60600,40403
60608,40403
60608,40501
60600,40501
60600,40509
60501,40509
60501,40501
60494,40501
60494,40403
60501,40403
60501,40395
60600,40395
60600,40403
" /> 
</g>
<g style="fill:#FFFFFF; fill-opacity:1.0; 
stroke:#FFFFFF; stroke-width:98.4252; stroke-opacity:1; 
stroke-linecap:round; stroke-linejoin:round;">
</g>
<g style="fill:#FFFFFF; fill-opacity:1.0; 
stroke:#FFFFFF; stroke-width:0; stroke-opacity:1; 
stroke-linecap:round; stroke-linejoin:round;">
<circle cx="61496.1" cy="40472.4" r="78.7402" /> 
</g>
<g style="fill:#FFFFFF; fill-opacity:1.0; 
stroke:#FFFFFF; stroke-width:39.3701; stroke-opacity:1; 
stroke-linecap:round; stroke-linejoin:round;">
</g>
<g style="fill:#FFFFFF; fill-opacity:1.0; 
stroke:#FFFFFF; stroke-width:0; stroke-opacity:1; 
stroke-linecap:round; stroke-linejoin:round;">
<circle cx="60078.7" cy="41968.5" r="78.7402" /> 
</g>
<g style="fill:#FFFFFF; fill-opacity:1.0; 
stroke:#FFFFFF; stroke-width:39.3701; stroke-opacity:1; 
stroke-linecap:round; stroke-linejoin:round;">
</g>
<g style="fill:#FFFFFF; fill-opacity:1.0; 
stroke:#FFFFFF; stroke-width:0; stroke-opacity:1; 
stroke-linecap:round; stroke-linejoin:round;">
<circle cx="56456.7" cy="40708.7" r="78.7402" /> 
</g>
<g style="fill:#FFFFFF; fill-opacity:1.0; 
stroke:#FFFFFF; stroke-width:39.3701; stroke-opacity:1; 
stroke-linecap:round; stroke-linejoin:round;">
</g>
<g style="fill:#FFFFFF; fill-opacity:1.0; 
stroke:#FFFFFF; stroke-width:0; stroke-opacity:1; 
stroke-linecap:round; stroke-linejoin:round;">
<circle cx="58425.2" cy="40629.9" r="78.7402" /> 
</g>
<g style="fill:#FFFFFF; fill-opacity:1.0; 
stroke:#FFFFFF; stroke-width:39.3701; stroke-opacity:1; 
stroke-linecap:round; stroke-linejoin:round;">
</g>
<g style="fill:#FFFFFF; fill-opacity:1.0; 
stroke:#FFFFFF; stroke-width:0; stroke-opacity:1; 
stroke-linecap:round; stroke-linejoin:round;">
<circle cx="60708.7" cy="41811" r="78.7402" /> 
</g>
<g style="fill:#FFFFFF; fill-opacity:1.0; 
stroke:#FFFFFF; stroke-width:39.3701; stroke-opacity:1; 
stroke-linecap:round; stroke-linejoin:round;">
</g>
<g style="fill:#FFFFFF; fill-opacity:1.0; 
stroke:#FFFFFF; stroke-width:0; stroke-opacity:1; 
stroke-linecap:round; stroke-linejoin:round;">
<circle cx="58031.5" cy="39842.5" r="78.7402" /> 
</g>
<g style="fill:#FFFFFF; fill-opacity:1.0; 
stroke:#FFFFFF; stroke-width:39.3701; stroke-opacity:1; 
stroke-linecap:round; stroke-linejoin:round;">
</g>
<g style="fill:#FFFFFF; fill-opacity:1.0; 
stroke:#FFFFFF; stroke-width:0; stroke-opacity:1; 
stroke-linecap:round; stroke-linejoin:round;">
<circle cx="60000" cy="40708.7" r="78.7402" /> 
</g>
<g style="fill:#FFFFFF; fill-opacity:1.0; 
stroke:#FFFFFF; stroke-width:39.3701; stroke-opacity:1; 
stroke-linecap:round; stroke-linejoin:round;">
</g>
<g style="fill:#FFFFFF; fill-opacity:1.0; 
stroke:#FFFFFF; stroke-width:0; stroke-opacity:1; 
stroke-linecap:round; stroke-linejoin:round;">
<circle cx="58740.2" cy="40629.9" r="78.7402" /> 
</g>
<g style="fill:#FFFFFF; fill-opacity:1.0; 
stroke:#FFFFFF; stroke-width:39.3701; stroke-opacity:1; 
stroke-linecap:round; stroke-linejoin:round;">
</g>
<g style="fill:#FFFFFF; fill-opacity:1.0; 
stroke:#FFFFFF; stroke-width:0; stroke-opacity:1; 
stroke-linecap:round; stroke-linejoin:round;">
<circle cx="61023.6" cy="40157.5" r="78.7402" /> 
</g>
<g style="fill:#FFFFFF; fill-opacity:1.0; 
stroke:#FFFFFF; stroke-width:39.3701; stroke-opacity:1; 
stroke-linecap:round; stroke-linejoin:round;">
</g>
<g style="fill:#FFFFFF; fill-opacity:1.0; 
stroke:#FFFFFF; stroke-width:0; stroke-opacity:1; 
stroke-linecap:round; stroke-linejoin:round;">
<circle cx="57795.3" cy="40629.9" r="78.7402" /> 
</g>
<g style="fill:#FFFFFF; fill-opacity:1.0; 
stroke:#FFFFFF; stroke-width:39.3701; stroke-opacity:1; 
stroke-linecap:round; stroke-linejoin:round;">
</g>
<g style="fill:#FFFFFF; fill-opacity:1.0; 
stroke:#FFFFFF; stroke-width:0; stroke-opacity:1; 
stroke-linecap:round; stroke-linejoin:round;">
<circle cx="57480.3" cy="40629.9" r="78.7402" /> 
</g>
<g style="fill:#FFFFFF; fill-opacity:1.0; 
stroke:#FFFFFF; stroke-width:39.3701; stroke-opacity:1; 
stroke-linecap:round; stroke-linejoin:round;">
</g>
<g style="fill:#FFFFFF; fill-opacity:1.0; 
stroke:#FFFFFF; stroke-width:0; stroke-opacity:1; 
stroke-linecap:round; stroke-linejoin:round;">
<circle cx="57007.9" cy="42519.7" r="78.7402" /> 
</g>
<g style="fill:#FFFFFF; fill-opacity:1.0; 
stroke:#FFFFFF; stroke-width:39.3701; stroke-opacity:1; 
stroke-linecap:round; stroke-linejoin:round;">
</g>
<g style="fill:#FFFFFF; fill-opacity:1.0; 
stroke:#FFFFFF; stroke-width:0; stroke-opacity:1; 
stroke-linecap:round; stroke-linejoin:round;">
<circle cx="58897.6" cy="41968.5" r="78.7402" /> 
</g>
<g style="fill:#FFFFFF; fill-opacity:1.0; 
stroke:#FFFFFF; stroke-width:39.3701; stroke-opacity:1; 
stroke-linecap:round; stroke-linejoin:round;">
</g>
<g style="fill:#FFFFFF; fill-opacity:1.0; 
stroke:#FFFFFF; stroke-width:0; stroke-opacity:1; 
stroke-linecap:round; stroke-linejoin:round;">
<circle cx="61987.1" cy="40778.1" r="78.7402" /> 
</g>
<g style="fill:#FFFFFF; fill-opacity:1.0; 
stroke:#FFFFFF; stroke-width:39.3701; stroke-opacity:1; 
stroke-linecap:round; stroke-linejoin:round;">
</g>
<g style="fill:#FFFFFF; fill-opacity:1.0; 
stroke:#FFFFFF; stroke-width:0; stroke-opacity:1; 
stroke-linecap:round; stroke-linejoin:round;">
<circle cx="60708.7" cy="40787.4" r="78.7402" /> 
</g>
<g style="fill:#FFFFFF; fill-opacity:1.0; 
stroke:#FFFFFF; stroke-width:39.3701; stroke-opacity:1; 
stroke-linecap:round; stroke-linejoin:round;">
</g>
<g style="fill:#FFFFFF; fill-opacity:1.0; 
stroke:#FFFFFF; stroke-width:0; stroke-opacity:1; 
stroke-linecap:round; stroke-linejoin:round;">
<circle cx="59055.1" cy="41338.6" r="196.85" /> 
</g>
<g style="fill:#FFFFFF; fill-opacity:1.0; 
stroke:#FFFFFF; stroke-width:39.3701; stroke-opacity:1; 
stroke-linecap:round; stroke-linejoin:round;">
</g>
<g style="fill:#000000; fill-opacity:1.0; 
stroke:#000000; stroke-width:39.3701; stroke-opacity:1; 
stroke-linecap:round; stroke-linejoin:round;">
</g>
<g style="fill:#008484; fill-opacity:1.0; 
stroke:#008484; stroke-width:39.3701; stroke-opacity:1; 
stroke-linecap:round; stroke-linejoin:round;">
</g>
<g style="fill:#008484; fill-opacity:1.0; 
stroke:#008484; stroke-width:59.0551; stroke-opacity:1; 
stroke-linecap:round; stroke-linejoin:round;">
</g>
<g style="fill:#008484; fill-opacity:0.0; 
stroke:#008484; stroke-width:59.0551; stroke-opacity:1; 
stroke-linecap:round; stroke-linejoin:round;">
<path d="M57194 39517
L57194 39557
" />
<path d="M59025 39517
L59025 39596
" />
<path d="M59025 40797
L59025 40718
" />
<path d="M57194 40797
L57194 40718
" />
<path d="M57194 39517
L59025 39517
" />
<path d="M57194 40797
L59025 40797
" />
<path d="M57194 39557
L56663 39557
" />
</g>
<g style="fill:#008484; fill-opacity:0.0; 
stroke:#008484; stroke-width:47.2441; stroke-opacity:1; 
stroke-linecap:round; stroke-linejoin:round;">
<path d="M61921 42322
L61921 42716
" />
<path d="M61385 42716
L61385 42322
" />
<path d="M61338 42381
L61338 42657
" />
<path d="M60866 42657
L60866 42381
" />
<path d="M61370 41141
L61370 41535
" />
<path d="M60834 41535
L60834 41141
" />
<path d="M61850 40826
L61456 40826
" />
<path d="M61456 40826
L61456 41653
" />
<path d="M61850 40826
L61850 41653
" />
<path d="M58425 41909
L57480 41909
" />
<path d="M57480 43129
L58641 43129
" />
<path d="M61795 40779
L61795 40413
" />
<path d="M61795 39535
L61795 39901
" />
<path d="M61795 39535
L60944 39535
" />
<path d="M61795 40779
L61220 40779
" />
<path d="M59724 43153
L60433 43153
" />
<path d="M60433 41885
L59468 41885
" />
<path d="M59291 42381
L59291 42657
" />
<path d="M58818 42657
L58818 42381
" />
<path d="M56488 39960
L56488 40354
" />
<path d="M55952 40354
L55952 39960
" />
<path d="M60267 39960
L60267 40354
" />
<path d="M59732 40354
L59732 39960
" />
<path d="M60283 40354
L60283 39960
" />
<path d="M60818 39960
L60818 40354
" />
</g>
<g style="fill:#C2C200; fill-opacity:0.0; 
stroke:#C2C200; stroke-width:47.2441; stroke-opacity:1; 
stroke-linecap:round; stroke-linejoin:round;">
</g>
<g style="fill:#C2C200; fill-opacity:0.0; 
stroke:#C2C200; stroke-width:39.3701; stroke-opacity:1; 
stroke-linecap:round; stroke-linejoin:round;">
<path d="M57930 40028
L57930 40219
L57941 40241
L57952 40253
L57975 40264
L58020 40264
L58042 40253
L58053 40241
L58065 40219
L58065 40028
" />
<path d="M58301 40264
L58166 40264
" />
<path d="M58233 40264
L58233 40028
L58211 40061
L58188 40084
L58166 40095
" />
<path d="M61614 42626
L61535 42514
" />
<path d="M61479 42626
L61479 42390
L61569 42390
L61591 42401
L61602 42412
L61614 42435
L61614 42469
L61602 42491
L61591 42502
L61569 42514
L61479 42514
" />
<path d="M61816 42469
L61816 42626
" />
<path d="M61760 42379
L61704 42547
L61850 42547
" />
<path d="M61062 42604
L61051 42615
L61017 42626
L60995 42626
L60961 42615
L60939 42592
L60928 42570
L60916 42525
L60916 42491
L60928 42446
L60939 42424
L60961 42401
L60995 42390
L61017 42390
L61051 42401
L61062 42412
" />
<path d="M61152 42412
L61164 42401
L61186 42390
L61242 42390
L61265 42401
L61276 42412
L61287 42435
L61287 42457
L61276 42491
L61141 42626
L61287 42626
" />
<path d="M61062 41445
L60984 41332
" />
<path d="M60928 41445
L60928 41209
L61017 41209
L61040 41220
L61051 41231
L61062 41254
L61062 41287
L61051 41310
L61040 41321
L61017 41332
L60928 41332
" />
<path d="M61276 41209
L61164 41209
L61152 41321
L61164 41310
L61186 41299
L61242 41299
L61265 41310
L61276 41321
L61287 41344
L61287 41400
L61276 41422
L61265 41434
L61242 41445
L61186 41445
L61164 41434
L61152 41422
" />
<path d="M57679 42626
L57679 42390
L57736 42390
L57769 42401
L57792 42424
L57803 42446
L57814 42491
L57814 42525
L57803 42570
L57792 42592
L57769 42615
L57736 42626
L57679 42626
" />
<path d="M57904 42412
L57916 42401
L57938 42390
L57994 42390
L58017 42401
L58028 42412
L58039 42435
L58039 42457
L58028 42491
L57893 42626
L58039 42626
" />
<path d="M61394 40286
L61372 40275
L61349 40253
L61316 40219
L61293 40208
L61271 40208
" />
<path d="M61282 40264
L61259 40253
L61237 40230
L61226 40185
L61226 40106
L61237 40061
L61259 40039
L61282 40028
L61327 40028
L61349 40039
L61372 40061
L61383 40106
L61383 40185
L61372 40230
L61349 40253
L61327 40264
L61282 40264
" />
<path d="M61608 40264
L61473 40264
" />
<path d="M61541 40264
L61541 40028
L61518 40061
L61496 40084
L61473 40095
" />
<path d="M59997 42390
L59997 42581
L60008 42604
L60019 42615
L60042 42626
L60087 42626
L60109 42615
L60120 42604
L60132 42581
L60132 42390
" />
<path d="M60233 42412
L60244 42401
L60267 42390
L60323 42390
L60345 42401
L60357 42412
L60368 42435
L60368 42457
L60357 42491
L60222 42626
L60368 42626
" />
<path d="M59015 42604
L59004 42615
L58970 42626
L58948 42626
L58914 42615
L58892 42592
L58880 42570
L58869 42525
L58869 42491
L58880 42446
L58892 42424
L58914 42401
L58948 42390
L58970 42390
L59004 42401
L59015 42412
" />
<path d="M59240 42626
L59105 42626
" />
<path d="M59173 42626
L59173 42390
L59150 42424
L59128 42446
L59105 42457
" />
<path d="M56181 40264
L56102 40151
" />
<path d="M56046 40264
L56046 40028
L56136 40028
L56158 40039
L56169 40050
L56181 40073
L56181 40106
L56169 40129
L56158 40140
L56136 40151
L56046 40151
" />
<path d="M56406 40264
L56271 40264
" />
<path d="M56338 40264
L56338 40028
L56316 40061
L56293 40084
L56271 40095
" />
<path d="M59960 40264
L59881 40151
" />
<path d="M59825 40264
L59825 40028
L59915 40028
L59938 40039
L59949 40050
L59960 40073
L59960 40106
L59949 40129
L59938 40140
L59915 40151
L59825 40151
" />
<path d="M60050 40050
L60061 40039
L60084 40028
L60140 40028
L60163 40039
L60174 40050
L60185 40073
L60185 40095
L60174 40129
L60039 40264
L60185 40264
" />
<path d="M60511 40264
L60433 40151
" />
<path d="M60376 40264
L60376 40028
L60466 40028
L60489 40039
L60500 40050
L60511 40073
L60511 40106
L60500 40129
L60489 40140
L60466 40151
L60376 40151
" />
<path d="M60590 40028
L60736 40028
L60658 40118
L60691 40118
L60714 40129
L60725 40140
L60736 40163
L60736 40219
L60725 40241
L60714 40253
L60691 40264
L60624 40264
L60601 40253
L60590 40241
" />
</g>
<g style="fill:#008484; fill-opacity:0.0; 
stroke:#008484; stroke-width:39.3701; stroke-opacity:1; 
stroke-linecap:round; stroke-linejoin:round;">
</g>
<g style="fill:#008484; fill-opacity:1.0; 
stroke:#008484; stroke-width:98.4252; stroke-opacity:1; 
stroke-linecap:round; stroke-linejoin:round;">
<polyline style="fill-rule:evenodd;"
points="60679,41781
57431,41781
57431,40895
60679,40895
60679,41781
" /> 
<polyline style="fill-rule:evenodd;"
points="57159,41761
56850,41761
56831,41765
56815,41776
56804,41793
56801,41811
56801,43021
56427,43021
56427,41811
56423,41791
56412,41775
56395,41765
56377,41761
56069,41761
56614,40807
57159,41761
" /> 
</g>
<g style="fill:#000000; fill-opacity:1.0; 
stroke:#000000; stroke-width:98.4252; stroke-opacity:1; 
stroke-linecap:round; stroke-linejoin:round;">
</g>
<g style="fill:#C2C200; fill-opacity:1.0; 
stroke:#C2C200; stroke-width:98.4252; stroke-opacity:1; 
stroke-linecap:round; stroke-linejoin:round;">
</g>
<g style="fill:#C2C200; fill-opacity:1.0; 
stroke:#C2C200; stroke-width:59.0551; stroke-opacity:1; 
stroke-linecap:round; stroke-linejoin:round;">
</g>
<g style="fill:#C2C200; fill-opacity:0.0; 
stroke:#C2C200; stroke-width:59.0551; stroke-opacity:1; 
stroke-linecap:round; stroke-linejoin:round;">
<path d="M55905 40866
L55905 39448
" />
<path d="M54330 40866
L55905 40866
" />
<path d="M54330 41811
L54330 40866
" />
<path d="M55905 41811
L54330 41811
" />
<path d="M55905 43228
L55905 41811
" />
<path d="M62204 41811
L62204 43228
" />
<path d="M63779 41811
L62204 41811
" />
<path d="M63779 40866
L63779 41811
" />
<path d="M62204 40866
L63779 40866
" />
<path d="M62204 39448
L62204 40866
" />
<path d="M62204 43228
L55905 43228
" />
<path d="M55905 39448
L62204 39448
" />
</g> 
</svg>
